<?xml version="1.0" standalone="no"?>
<!DOCTYPE svg PUBLIC "-//W3C//DTD SVG 1.1//EN" "http://www.w3.org/Graphics/SVG/1.1/DTD/svg11.dtd" >
<svg xmlns="http://www.w3.org/2000/svg" xmlns:xlink="http://www.w3.org/1999/xlink" version="1.1">
<metadata>
Created by FontForge 20170731 at Thu Nov  2 11:43:21 2023
 By Aleksey,,,
copyright missing
</metadata>
<defs>
<font id="HTArkan-Medium" horiz-adv-x="0" >
  <font-face 
    font-family="HT Arkan Medium"
    font-weight="500"
    font-stretch="normal"
    units-per-em="2048"
    panose-1="0 0 6 0 0 0 0 0 0 0"
    ascent="1638"
    descent="-410"
    bbox="-387 -1384 4515 2397"
    underline-thickness="102"
    underline-position="-307"
    unicode-range="U+000D-FFED"
  />
<missing-glyph horiz-adv-x="1394" 
d="M1156 0h-917v1433h917v-1433zM437 1300l260 -451l259 451h-519zM371 1143v-854l248 427zM778 716l243 -428v853zM697 584l-259 -451h517z" />
    <glyph glyph-name="uniFDF2" unicode="&#x627;&#xfedf;&#xfee0;&#xfeea;" horiz-adv-x="3006" arabic-form="isolated" 
d="M1517 1734h-81q0 25 1 76.5t0.5 76.5t-3 63.5t-10.5 70.5t-22 65h81q14 -33 22 -65t10.5 -70.5t3 -63.5t-0.5 -76.5t-1 -76.5zM1381 1330q-64 0 -103 41.5t-39 108.5v61l107 26v-87q0 -44 35 -44q20 0 31.5 14.5t11.5 40.5v105l107 29v-122q0 -16 10 -25t25 -9
q44 0 44 57v124l107 29v-153q0 -77 -37 -120t-104 -43q-53 0 -87 31q-17 -30 -46 -47t-62 -17zM2634 0v1430h222v-1430h-222zM1785 194l209 -1v1237h221v-1430h-414h-13v0h-3h-10q-85 1 -148 46t-91 120q-28 -77 -90 -121.5t-147 -44.5h-251q-107 0 -181 51.5t-100 142.5
h-39q-41 -1 -199.5 -0.5t-184.5 0.5h-224v193l168 421q15 38 31.5 65t43.5 55t69 43t97 15h225v136h222v-785q0 -59 36.5 -101.5t101.5 -42.5h22v1h115q59 0 97.5 39.5t38.5 98.5v889h222v-889q0 -59 39.5 -98.5t98.5 -39.5h38zM706 387h48v400h-264l-160 -400h376z" />
    <glyph glyph-name="uniFEF5" unicode="&#xfedf;&#xfe82;" horiz-adv-x="1175" arabic-form="isolated" 
d="M162 1631l-72 -32l-5 113l170 90h24q18 -49 49 -74t86 -25h234v-108h-234q-109 0 -159 81zM453 440h-220v996h220v-996zM1012 0h-528h-370l1 195h337l340 -3v1239h220v-1431z" />
    <glyph glyph-name="uniFEF6" unicode="&#xfee0;&#xfe82;" horiz-adv-x="1232" arabic-form="final" 
d="M270 1676l-93 -45l-73 -32l-4 113l169 90h24q36 -99 136 -99h234v-108h-234q-109 0 -159 81zM467 440h-220v996h220v-996zM1234 194v-194h-208h-527h-370l1 195h336l341 -3v1239h219v-1237h208z" />
    <glyph glyph-name="uniFEF7" unicode="&#xfedf;&#xfe84;" horiz-adv-x="1206" arabic-form="isolated" 
d="M367 1561l124 -114h152v-106h-444v106h104l-78 77q0 53 18 109t51 86q72 66 185 66h118v-106h-100q-55 0 -92.5 -33t-37.5 -85zM1042 0h-527h-401l2 195h336l370 -2v1238h220v-1431zM453 440h-220v731h220v-731z" />
    <glyph glyph-name="uniFEF8" unicode="&#xfee0;&#xfe84;" horiz-adv-x="1249" arabic-form="final" 
d="M428 1457h178v-105h-483v105h75q-29 46 -29 113q0 95 68 159q71 65 185 65q72 0 124 -20v-107q-48 21 -106 21q-55 0 -92.5 -33t-37.5 -85q0 -49 32.5 -80t85.5 -33zM1060 1431v-1077q7 -78 56 -119t134 -41v-194q-153 0 -218 126q-53 -169 -196 -261.5t-354 -92.5
q-178 0 -350 66l2 209q145 -80 336 -80q177 0 273.5 91t96.5 256v1117h220zM470 1188v-974h-219v974h219z" />
    <glyph glyph-name="uniFEF9" unicode="&#xfedf;&#xfe88;" horiz-adv-x="1175" arabic-form="isolated" 
d="M453 440h-220v996h220v-996zM1012 0h-528h-370l1 195h337l340 -3v1239h220v-1431zM375 -393l124 -113h152v-106h-444v106h104l-78 77q0 53 18 109t51 86q71 65 185 65h118v-105h-100q-55 0 -92.5 -33.5t-37.5 -85.5z" />
    <glyph glyph-name="uniFEFA" unicode="&#xfee0;&#xfe88;" horiz-adv-x="1232" arabic-form="final" 
d="M247 1436h220v-996h-220v996zM1234 194v-194h-208h-527h-370l1 195h336l341 -3v1239h219v-1237h208zM390 -393l124 -113h151v-106h-443v106h103l-77 77q0 53 18 109t50 86q71 65 186 65h118v-105h-100q-55 0 -92.5 -33.5t-37.5 -85.5z" />
    <glyph glyph-name="uniFEFB" unicode="&#xfedf;&#xfe8e;" horiz-adv-x="1175" arabic-form="isolated" 
d="M453 1436v-996h-220v996h220zM1012 1431v-1431h-898l1 195l677 -3v1239h220z" />
    <glyph glyph-name="uniFEFC" unicode="&#xfee0;&#xfe8e;" horiz-adv-x="1232" arabic-form="final" 
d="M247 1436h220v-996h-220v996zM1234 194v-194h-208h-527h-370l1 195h336l341 -3v1239h219v-1237h208z" />
    <glyph glyph-name="uni06440671" unicode="&#xfedf;&#xfb51;" horiz-adv-x="1175" 
d="M192 1593h-13v-2h-77v78h68l-4 231h88l2 -95q80 106 164 106q68 0 107.5 -49t39.5 -125v-146h-375v2zM396 1826q-43 0 -82 -40.5t-53 -70.5v-45h218v68q0 41 -22 64.5t-61 23.5zM453 1436v-996h-220v996h220zM792 192v1239h220v-1431h-528h-370l1 195h337z" />
    <glyph glyph-name="uni06440671.fina" unicode="&#xfee0;&#xfb51;" horiz-adv-x="1232" 
d="M206 1593h-13v-2h-76v78h67l-3 231h88l1 -95q80 106 165 106q68 0 107.5 -49t39.5 -125v-146h-376v2zM411 1826q-43 0 -82 -40.5t-53 -70.5v-45h217v68q0 41 -21.5 64.5t-60.5 23.5zM467 1436v-996h-220v996h220zM1234 194v-194h-208h-527h-370l1 195h336l341 -3v1239
h219v-1237h208z" />
    <glyph glyph-name="uni0620.init" unicode="&#x620;" horiz-adv-x="638" 
d="M274 194v696h221v-890h-494v0h-3v2l-38 30v130l38 29v3h276zM290 -98q81 0 139 -57.5t58 -139.5q0 -81 -58 -138.5t-139 -57.5t-139 57.5t-58 138.5t57.5 139t139.5 58zM290 -392q40 0 68.5 28t28.5 69t-28.5 69.5t-68.5 28.5t-68.5 -28.5t-28.5 -69.5t28.5 -69t68.5 -28
z" />
    <glyph glyph-name="uni0620.medi" unicode="&#x620;" horiz-adv-x="696" 
d="M611 194h85v-194h-57q-85 0 -147.5 45t-91.5 121q-28 -77 -90 -121.5t-147 -44.5h-164v2l-39 30v130l39 30v2h116q59 0 97.5 39.5t38.5 98.5v558h222v-558q0 -59 39 -98.5t99 -39.5zM380 -98q81 0 139 -57.5t58 -138.5q0 -82 -58 -139.5t-139 -57.5t-139 57.5t-58 139.5
q0 81 57.5 138.5t139.5 57.5zM380 -392q40 0 68.5 28.5t28.5 69.5q0 40 -28.5 68.5t-68.5 28.5t-68.5 -28.5t-28.5 -68.5q0 -41 28.5 -69.5t68.5 -28.5z" />
    <glyph glyph-name="uni0620.fina" unicode="&#x620;" horiz-adv-x="1613" 
d="M1338 194h275v-194h-59q-60 -217 -267 -349t-494 -132q-338 0 -517.5 170.5t-179.5 480.5q0 164 43 355h163q-35 -153 -35 -308q0 -110 30 -198t93 -154.5t167 -102t245 -35.5q118 0 222.5 26t176 67.5t119.5 87.5t71 92h-491v193h438v1zM803 -571q81 0 139 -57.5
t58 -139.5t-58 -139.5t-139 -57.5t-139 57.5t-58 139.5q0 81 57.5 139t139.5 58zM803 -865q41 0 69 28.5t28 68.5t-28 68.5t-69 28.5t-69 -28.5t-28 -68.5t28 -68.5t69 -28.5z" />
    <glyph glyph-name="uni063B.init" unicode="&#x63b;" horiz-adv-x="1038" 
d="M342 1538l56 -154l-126 -46l-56 154zM129 1460l56 -154l-126 -45l-57 154zM931 1233l-668 -281q429 -286 697 -759v-193h-960v2l-38 30v130l38 30v2h715q-226 379 -663 668l1 1h-1v216l879 364v-210z" />
    <glyph glyph-name="uni063B.medi" unicode="&#x63b;" horiz-adv-x="1140" 
d="M379 1540l56 -154l-126 -46l-56 154zM165 1462l56 -154l-126 -46l-56 154zM960 194h180v-194h-1139v2l-39 30v130l39 30v2h715q-226 379 -663 668v1v216l879 364v-211l-669 -280q429 -287 697 -758z" />
    <glyph glyph-name="uni063B.fina" unicode="&#x63b;" horiz-adv-x="1966" 
d="M940 1533l56 -154l-126 -46l-56 154zM726 1455l56 -154l-126 -46l-56 154zM1602 1233l-668 -281q430 -287 698 -759v-193h-961h-155q-206 0 -342.5 128.5t-136.5 325.5v306h206v-295q0 -118 84 -194t204 -76h855q-111 185 -281 356t-382 311l1 1h-1v216l879 364v-210z
M1769 0v194h173v-194h-173z" />
    <glyph glyph-name="uni063C.init" unicode="&#x63c;" horiz-adv-x="1038" 
d="M931 1232l-668 -280q429 -286 697 -759v-193h-960v2l-38 30v130l38 30v2h715q-226 379 -663 668l1 1h-1v216l879 364v-211zM191 -191h202v-247h-202v247zM735 -438h-202v247h202v-247zM558 -759h-202v247h202v-247z" />
    <glyph glyph-name="uni063C.medi" unicode="&#x63c;" horiz-adv-x="1140" 
d="M960 194h180v-194h-1139v2l-39 30v130l39 30v2h715q-226 379 -663 668v1v216l879 364v-211l-669 -280q429 -287 697 -758zM191 -191h202v-247h-202v247zM736 -438h-202v247h202v-247zM558 -759h-202v247h202v-247z" />
    <glyph glyph-name="uni063C.fina" unicode="&#x63c;" horiz-adv-x="1966" 
d="M1602 1232l-668 -280q430 -287 698 -759v-193h-961h-155q-206 0 -342.5 128.5t-136.5 325.5v306h206v-295q0 -118 84 -194t204 -76h855q-111 185 -281 356t-382 311l1 1h-1v216l879 364v-211zM1769 0v194h173v-194h-173zM593 -247h202v-247h-202v247zM1138 -494h-202v247
h202v-247zM960 -815h-202v247h202v-247z" />
    <glyph glyph-name="uni063D.init" unicode="&#x63d;" horiz-adv-x="638" 
d="M483 1099l-111 162l-116 -163h-122l231 292h22l223 -291h-127zM495 0h-494v0h-3v2l-38 30v130l38 29v3h276v696h221v-890zM209 -519h-201v246h201v-246zM550 -519h-201v246h201v-246z" />
    <glyph glyph-name="uni063D.medi" unicode="&#x63d;" horiz-adv-x="696" 
d="M461 1100l-111 162l-116 -162h-123l231 291h23l223 -291h-127zM611 194h85v-194h-57q-85 0 -147.5 45t-91.5 121q-28 -77 -90 -121.5t-147 -44.5h-164v2l-39 30v130l39 30v2h116q59 0 97.5 39.5t38.5 98.5v558h222v-558q0 -59 39 -98.5t99 -39.5zM299 -519h-201v246h201
v-246zM640 -519h-201v246h201v-246z" />
    <glyph glyph-name="uni063D.fina" unicode="&#x63d;" horiz-adv-x="1613" 
d="M846 518l-111 162l-116 -162h-122l231 292h23l222 -292h-127zM1338 194h275v-194h-59q-60 -217 -267 -349t-494 -132q-338 0 -517.5 170.5t-179.5 480.5q0 164 43 355h163q-35 -153 -35 -308q0 -110 30 -198t93 -154.5t167 -102t245 -35.5q118 0 222.5 26t176 67.5
t119.5 87.5t71 92h-491v193h438v1zM722 -993h-201v246h201v-246zM1063 -993h-201v246h201v-246z" />
    <glyph glyph-name="uni063E.init" unicode="&#x63e;" horiz-adv-x="638" 
d="M80 1404h202v-246h-202v246zM421 1158v246h202v-246h-202zM495 0h-494v0h-3v2l-38 30v130l38 29v3h276v696h221v-890zM209 -519h-201v246h201v-246zM550 -519h-201v246h201v-246z" />
    <glyph glyph-name="uni063E.medi" unicode="&#x63e;" horiz-adv-x="696" 
d="M58 1405h201v-246h-201v246zM399 1405h202v-246h-202v246zM611 194h85v-194h-57q-85 0 -147.5 45t-91.5 121q-28 -77 -90 -121.5t-147 -44.5h-164v2l-39 30v130l39 30v2h116q59 0 97.5 39.5t38.5 98.5v558h222v-558q0 -59 39 -98.5t99 -39.5zM299 -519h-201v246h201v-246
zM640 -519h-201v246h201v-246z" />
    <glyph glyph-name="uni063E.fina" unicode="&#x63e;" horiz-adv-x="1613" 
d="M443 824h202v-246h-202v246zM785 824h201v-246h-201v246zM1338 194h275v-194h-59q-60 -217 -267 -349t-494 -132q-338 0 -517.5 170.5t-179.5 480.5q0 164 43 355h163q-35 -153 -35 -308q0 -110 30 -198t93 -154.5t167 -102t245 -35.5q118 0 222.5 26t176 67.5
t119.5 87.5t71 92h-491v193h438v1z" />
    <glyph glyph-name="uni063F.init" unicode="&#x63f;" horiz-adv-x="638" 
d="M272 1788h202v-246h-202v246zM80 1404h202v-246h-202v246zM421 1158v246h202v-246h-202zM495 0h-494v0h-3v2l-38 30v130l38 29v3h276v696h221v-890zM209 -519h-201v246h201v-246zM550 -519h-201v246h201v-246z" />
    <glyph glyph-name="uni063F.medi" unicode="&#x63f;" horiz-adv-x="696" 
d="M250 1790h201v-246h-201v246zM58 1405h201v-246h-201v246zM601 1159h-202v246h202v-246zM611 194h85v-194h-57q-85 0 -147.5 45t-91.5 121q-28 -77 -90 -121.5t-147 -44.5h-164v2l-39 30v130l39 30v2h116q59 0 97.5 39.5t38.5 98.5v558h222v-558q0 -59 39 -98.5t99 -39.5
zM299 -519h-201v246h201v-246zM640 -519h-201v246h201v-246z" />
    <glyph glyph-name="uni063F.fina" unicode="&#x63f;" horiz-adv-x="1613" 
d="M635 1208h202v-246h-202v246zM443 824h202v-246h-202v246zM986 578h-201v246h201v-246zM1338 194h275v-194h-59q-60 -217 -267 -349t-494 -132q-338 0 -517.5 170.5t-179.5 480.5q0 164 43 355h163q-35 -153 -35 -308q0 -110 30 -198t93 -154.5t167 -102t245 -35.5
q118 0 222.5 26t176 67.5t119.5 87.5t71 92h-491v193h438v1z" />
    <glyph glyph-name="uni066E.init" unicode="&#x66e;" horiz-adv-x="638" 
d="M274 890h221v-890h-494v0h-3v2l-38 30v130l38 29v3h276v696z" />
    <glyph glyph-name="uni066E.medi" unicode="&#x66e;" horiz-adv-x="696" 
d="M611 194h85v-194h-57q-85 0 -147.5 45t-91.5 121q-28 -77 -90 -121.5t-147 -44.5h-164v2l-39 30v130l39 30v2h116q59 0 97.5 39.5t38.5 98.5v558h222v-558q0 -59 39 -98.5t99 -39.5z" />
    <glyph glyph-name="uni066E.fina" unicode="&#x66e;" horiz-adv-x="1855" 
d="M1312 0l-752 -1q-206 0 -342.5 128t-136.5 325v307h205v-295q0 -118 84.5 -194.5t204.5 -76.5l688 1q59 0 97.5 39.5t38.5 99.5v557h223v-558q0 -60 38.5 -99t98.5 -39h96v-194h-67q-79 0 -140.5 38.5t-98.5 106.5q-36 -69 -97 -107t-140 -38z" />
    <glyph glyph-name="uni066F.init" unicode="&#x66f;" horiz-adv-x="1189" 
d="M589 892h443v-442v-450h-435v-1l-599 1v2l-39 30v130l39 30v2h205q-79 115 -79 259q0 191 132.5 315t332.5 124zM597 194v-1h216v259v248h-224q-105 0 -175.5 -69.5t-70.5 -177.5q0 -107 67.5 -180.5t168.5 -78.5h18z" />
    <glyph glyph-name="uni066F.medi" unicode="&#x66f;" horiz-adv-x="1165" 
d="M1025 193h143v-193h-583h-17h-569v1l-40 31v130l40 31h1v0h197q-79 113 -79 260q0 191 132 315t332 124h443v-442v-257zM583 700q-104 0 -175.5 -69.5t-71.5 -177.5q0 -110 71.5 -185t176.5 -75h222v259v248h-223z" />
    <glyph glyph-name="uni066F.fina" unicode="&#x66f;" horiz-adv-x="1615" 
d="M1481 450v-256h136v-194h-136q-1 -76 -30.5 -154t-90.5 -150.5t-145.5 -129t-205 -90.5t-258.5 -34q-147 0 -274 49.5t-214 133.5t-136.5 197.5t-49.5 240.5v358h208v-325q0 -187 134.5 -315.5t363.5 -128.5q200 0 327 97.5t154 250.5h-223q-201 0 -334 130t-133 323
q0 191 132.5 315t332.5 124h442v-442zM1040 193h223l-1 258v249h-223q-104 0 -175 -69.5t-71 -177.5q0 -110 71 -185t176 -75z" />
    <glyph glyph-name="uni0672.fina" unicode="&#x672;" horiz-adv-x="546" 
d="M369 1462h151v-106h-443v106h103l-77 77q0 53 18 109t50 86q71 65 186 65h118v-105h-100q-55 0 -92.5 -33.5t-37.5 -85.5zM71 1253h-70v206h70v-206zM485 193h50v-193h-116q-135 0 -214.5 79.5t-79.5 214.5v886h222v-843q0 -59 36.5 -101.5t101.5 -42.5z" />
    <glyph glyph-name="uni0673.fina" unicode="&#x673;" horiz-adv-x="620" 
d="M572 193h50v-193h-116q-135 0 -214.5 79.5t-79.5 214.5v1136h222v-1093q0 -59 36.5 -101.5t101.5 -42.5zM314 -445l124 -113h-1h152v-106h-380v-128h-97v273h97l-38 38q0 53 18 109t51 86q71 65 185 65h118v-106h-100q-55 0 -92 -33t-37 -85zM249 -558l-40 39v-39h40z
" />
    <glyph glyph-name="uni0675.fina" unicode="&#x675;" horiz-adv-x="577" 
d="M426 1701h152v-106h-444v106h104l-78 77q0 53 18 109.5t51 86.5q71 65 185 65h118v-106h-100q-55 0 -92.5 -33t-37.5 -85zM571 193h50v-193h-117q-135 0 -214 79.5t-79 214.5v1137h221v-1094q0 -59 37 -101.5t102 -42.5z" />
    <glyph glyph-name="uni0676.fina" unicode="&#x676;" horiz-adv-x="1193" 
d="M709 1222l151 -1v-106h-444v106h104l-77 77q0 53 18 109.5t50 86.5q71 65 185 65h119v-106h-101q-55 0 -92 -33t-37 -85zM1055 228v-34h139v-194h-139v-63q0 -53 -15.5 -101t-35 -84.5t-63 -72t-73 -58.5t-94 -49.5t-97 -40t-110 -35t-104.5 -28t-109 -26.5
q-58 -14 -86 -21v199q221 56 270 71q225 71 279 176q19 39 19 82v51h-222q-201 0 -334 130t-133 323q0 191 132.5 315t332.5 124h443v-442v-203v-19zM614 193h222v259v248h-224q-104 0 -175 -69.5t-71 -177.5q0 -110 71.5 -185t176.5 -75z" />
    <glyph glyph-name="uni0677.fina" unicode="&#x677;" horiz-adv-x="1171" 
d="M561 1379q0 -55 -33 -98.5t-89 -62.5l-345 -97v111l204 56q-49 35 -49 97q-2 65 42 108t114 43q65 0 110.5 -46t45.5 -111zM990 1240h121v-85h-355v85h83l-62 62q0 43 14.5 87.5t40.5 68.5q55 52 148 52h94v-85h-80q-45 0 -74 -26t-29 -68zM407 1311q48 23 48 66
q0 27 -14.5 42.5t-39.5 15.5t-39.5 -15t-13.5 -40q3 -54 59 -69zM1055 228v-34h139v-194h-139v-63q0 -53 -15.5 -101t-35 -84.5t-63 -72t-73 -58.5t-94 -49.5t-97 -40t-110 -35t-104.5 -28t-109 -26.5q-58 -14 -86 -21v199q21 5 64 16q80 19 122 30.5t112.5 33.5t109 43.5
t80.5 52t61 68.5t19 84v52h-222q-201 0 -334 130t-133 323q0 191 132.5 315t332.5 124h443v-442v-203v-19zM614 193h222v259v248h-224q-104 0 -175 -69.5t-71 -177.5q0 -110 71.5 -185t176.5 -75z" />
    <glyph glyph-name="uni0678.init" unicode="&#x678;" horiz-adv-x="759" 
d="M352 1385l124 -114h152v-106h-444v106h103l-77 77q0 53 18 109.5t51 86.5q71 65 185 65h118v-106h-100q-55 0 -92.5 -33t-37.5 -85zM-1 193h275v697h222v-890h-494v0h-3v2l-38 30v130l38 29v2z" />
    <glyph glyph-name="uni0678.medi" unicode="&#x678;" horiz-adv-x="696" 
d="M454 1273h152v-107h-444v107h103l-77 76q0 53 18 109.5t51 86.5q71 65 185 65h118v-106h-100q-55 0 -92.5 -33t-37.5 -85zM611 194h86v-194h-57q-85 0 -147.5 45t-91.5 121q-28 -77 -90 -121.5t-147 -44.5h-164v2l-39 30v130l39 30v2h116q59 0 97.5 39.5t38.5 98.5v558
h222v-558q0 -59 39 -98.5t98 -39.5z" />
    <glyph glyph-name="uni0678.fina" unicode="&#x678;" horiz-adv-x="1613" 
d="M838 691h152v-106h-444v106h104l-78 77q0 53 18 109t51 86q71 65 185 65h118v-105h-100q-55 0 -92 -33.5t-37 -85.5zM1338 194h275v-194h-59q-60 -217 -267 -349t-494 -132q-338 0 -517 170.5t-179 480.5q0 164 43 355h162q-35 -153 -35 -308q0 -110 30 -198t93 -154.5
t167 -102t245 -35.5q118 0 222.5 26t176 67.5t119.5 87.5t71 92h-491v194h438z" />
    <glyph glyph-name="uni067C.init" unicode="&#x67c;" horiz-adv-x="673" 
d="M81 1404h201v-246h-201v246zM422 1158v246h201v-246h-201zM-1 194h275v696h222v-890h-67q25 -42 25 -92q0 -74 -52.5 -126t-126.5 -52t-126.5 52t-52.5 126q0 48 26 92h-120v0h-3v2l-38 30v130l38 29v3zM381 -92q0 62 -52 92h-107q-53 -30 -53 -92q0 -44 31 -75t75 -31
t75 31t31 75z" />
    <glyph glyph-name="uni067C.medi" unicode="&#x67c;" horiz-adv-x="747" 
d="M59 1405h201v-246h-201v246zM400 1405h201v-246h-201v246zM611 194h86v-194h-57q-85 0 -147.5 45t-91.5 121q-24 -64 -71 -106q77 -55 77 -147q0 -75 -53 -127.5t-128 -52.5q-74 0 -127 52.5t-53 127.5q0 46 22 87h-68v2l-39 30v130l39 30v2h116q59 0 97.5 39.5
t38.5 98.5v558h222v-558q0 -59 39 -98.5t98 -39.5zM333 -87q0 36 -21.5 64.5t-55.5 38.5q-45 -16 -92 -16q-45 -32 -45 -87q0 -44 31.5 -75.5t75.5 -31.5t75.5 31.5t31.5 75.5z" />
    <glyph glyph-name="uni067C.fina" unicode="&#x67c;" horiz-adv-x="2029" 
d="M486 1263h201v-246h-201v246zM827 1263h201v-246h-201v246zM1759 194h96v-194h-67q-79 0 -140.5 38t-98.5 106q-36 -69 -97 -106.5t-140 -37.5h-159q22 -41 22 -87q0 -75 -53 -127.5t-127 -52.5t-127 52.5t-53 127.5q0 45 22 86h-277q-206 0 -342.5 128t-136.5 325v307
h205v-295q0 -118 84.5 -194.5t204.5 -76.5l688 1q59 0 97.5 39.5t38.5 99.5v557h223v-558q0 -60 38.5 -99t98.5 -39zM1102 -87q0 55 -44 86h-126q-44 -31 -44 -86q0 -44 31.5 -75.5t75.5 -31.5t75.5 31.5t31.5 75.5z" />
    <glyph glyph-name="uni067D.init" unicode="&#x67d;" horiz-adv-x="638" 
d="M232 1331q-49 0 -83 34t-34 81q0 46 34 78.5t83 32.5q46 0 78.5 -32.5t32.5 -78.5q0 -47 -32.5 -81t-78.5 -34zM519 1557q46 0 78.5 -32.5t32.5 -78.5q0 -47 -32.5 -81t-78.5 -34q-49 0 -83 34t-34 81q0 46 34 78.5t83 32.5zM255 1206q0 46 34 78.5t83 32.5
q46 0 78.5 -32.5t32.5 -78.5q0 -47 -32.5 -81t-78.5 -34q-49 0 -83 34t-34 81zM-2 194h276v696h221v-890h-494v0h-3v2l-38 30v130l38 29v3z" />
    <glyph glyph-name="uni067D.medi" unicode="&#x67d;" horiz-adv-x="696" 
d="M210 1332q-49 0 -83 34t-34 81q0 46 34 78.5t83 32.5q46 0 78.5 -32.5t32.5 -78.5q0 -47 -32.5 -81t-78.5 -34zM496 1332q-48 0 -82 34t-34 81q0 46 33.5 78.5t82.5 32.5q46 0 79 -32.5t33 -78.5q0 -47 -33 -81t-79 -34zM233 1207q0 46 34 79t82 33q46 0 79 -33t33 -79
q0 -47 -33 -80.5t-79 -33.5q-49 0 -82.5 33.5t-33.5 80.5zM611 194h85v-194h-57q-85 0 -147.5 45t-91.5 121q-28 -77 -90 -121.5t-147 -44.5h-164v2l-39 30v130l39 30v2h116q59 0 97.5 39.5t38.5 98.5v558h222v-558q0 -59 39 -98.5t99 -39.5z" />
    <glyph glyph-name="uni067D.fina" unicode="&#x67d;" horiz-adv-x="1855" 
d="M637 1190q-49 0 -82.5 33.5t-33.5 80.5q0 46 34 79t82 33q46 0 79 -33t33 -79q0 -47 -33 -80.5t-79 -33.5zM924 1190q-49 0 -82.5 33.5t-33.5 80.5q0 46 34 79t82 33q46 0 78.5 -33t32.5 -79q0 -47 -32.5 -80.5t-78.5 -33.5zM777 950q-49 0 -82.5 34t-33.5 81
q0 46 33.5 78.5t82.5 32.5q46 0 79 -32.5t33 -78.5q0 -47 -33 -81t-79 -34zM1312 0l-752 -1q-206 0 -342.5 128t-136.5 325v307h205v-295q0 -118 84.5 -194.5t204.5 -76.5l688 1q59 0 97.5 39.5t38.5 99.5v557h223v-558q0 -60 38.5 -99t98.5 -39h96v-194h-67
q-79 0 -140.5 38t-98.5 106q-36 -69 -97 -106.5t-140 -37.5z" />
    <glyph glyph-name="uni0681.init" unicode="&#x681;" horiz-adv-x="1353" 
d="M508 1243h152v-106h-444v106h104l-78 77q0 53 18 109.5t51 86.5q71 65 185 65h118v-106h-100q-55 0 -92.5 -33t-37.5 -85zM1196 193h33v-194h-113q-90 0 -133 22t-93 93q-121 -71 -199.5 -92t-213.5 -21h-441v-1l-1 1h-41v192h505q164 0 322 84l-202 323l-69 99h-384v193
h412q85 0 127 -21.5t78 -81.5l333 -551q26 -45 80 -45z" />
    <glyph glyph-name="uni0681.medi" unicode="&#x681;" horiz-adv-x="1232" 
d="M515 1240h151v-106h-444v106h104l-77 77q0 53 18 109t50 86q71 65 185 65h119v-106h-101q-55 0 -92 -33t-37 -85zM1199 193h33v-193h-113h-29h-2q-72 3 -111 26t-84 88q-121 -71 -199.5 -92t-213.5 -21h-441v-1v1h-42l1 192h504q164 0 322 84l-201 323l-70 99h-384v193
h412q85 0 127 -21.5t78 -81.5l334 -551q26 -45 79 -45z" />
    <glyph glyph-name="uni0681.fina" unicode="&#x681;" horiz-adv-x="1454" 
d="M641 1295l152 -1v-106h-444v106h104l-78 77q0 53 18 109.5t51 86.5q71 65 185 65h118v-106h-100q-55 0 -92.5 -33t-37.5 -85zM1300 194h157v-194h-104h-113h-225q-83 0 -203.5 0.5t-210.5 0.5h-80l1 -1q-119 0 -194 -72.5t-75 -168.5q0 -116 96.5 -182.5t250.5 -66.5h352
v-175h-391q-242 0 -386 116.5t-144 319.5q0 177 125 299.5t306 122.5l3 -10v10h158h372l-251 393l-75 100h-379v193h412q85 0 126.5 -22t78.5 -82l361 -582h32v1z" />
    <glyph glyph-name="uni0682.init" unicode="&#x682;" horiz-adv-x="1353" 
d="M407 1390q-45 0 -76.5 31t-31.5 75q0 43 31.5 73.5t76.5 30.5q43 0 73 -30.5t30 -73.5q0 -44 -30 -75t-73 -31zM407 1123q-45 0 -76.5 31t-31.5 75q0 43 31.5 73.5t76.5 30.5q43 0 73 -30.5t30 -73.5q0 -44 -30 -75t-73 -31zM1196 193h33v-194h-113q-90 0 -133 22t-93 93
q-121 -71 -199.5 -92t-213.5 -21h-441v-1l-1 1h-41v192h505q164 0 322 84l-202 323l-69 99h-384v193h412q85 0 127 -21.5t78 -81.5l333 -551q26 -45 80 -45z" />
    <glyph glyph-name="uni0682.medi" unicode="&#x682;" horiz-adv-x="1232" 
d="M413 1387q-45 0 -76 31t-31 75q0 43 31 73t76 30q43 0 73 -30t30 -73q0 -44 -30 -75t-73 -31zM413 1120q-45 0 -76 31t-31 75q0 43 31 73t76 30q43 0 73 -30t30 -73q0 -44 -30 -75t-73 -31zM1199 193h33v-193h-113h-29h-2q-72 3 -111 26t-84 88q-121 -71 -199.5 -92
t-213.5 -21h-441v-1v1h-42l1 192h504q164 0 322 84l-201 323l-70 99h-384v193h412q85 0 127 -21.5t78 -81.5l334 -551q26 -45 79 -45z" />
    <glyph glyph-name="uni0682.fina" unicode="&#x682;" horiz-adv-x="1454" 
d="M540 1441q-45 0 -76.5 31.5t-31.5 75.5q0 43 31.5 73t76.5 30q43 0 73 -30t30 -73q0 -44 -30 -75.5t-73 -31.5zM540 1174q-45 0 -76.5 31.5t-31.5 75.5q0 43 31.5 73t76.5 30q43 0 73 -30t30 -73q0 -44 -30 -75.5t-73 -31.5zM1299 194h157v-194h-103h-113h-226
q-83 0 -203 0.5t-210 0.5h-80v-1q-119 0 -193.5 -72.5t-74.5 -168.5q0 -116 96.5 -182.5t250.5 -66.5h352v-175h-391q-242 0 -386 116.5t-144 319.5q0 177 125 299.5t306 122.5l3 -10v10h158h372l-251 393l-75 99h-379v193h412q85 0 126.5 -22t78.5 -81l361 -582h31v1z" />
    <glyph glyph-name="uni0685.init" unicode="&#x685;" horiz-adv-x="1353" 
d="M304 1680h202v-247h-202v247zM139 1359h202v-247h-202v247zM684 1112h-203v247h203v-247zM1196 193h33v-193h-113q-90 0 -133.5 22t-92.5 92q-121 -71 -199.5 -92t-213.5 -21h-441v-1l-1 1h-41v192h505q164 0 322 84l-202 323l-69 99h-384v193h412q85 0 127 -21.5
t78 -81.5l333 -551q26 -45 80 -45z" />
    <glyph glyph-name="uni0685.medi" unicode="&#x685;" horiz-adv-x="1232" 
d="M310 1677h202v-247h-202v247zM145 1355h202v-247h-202v247zM690 1108h-202v247h202v-247zM1199 193h33v-193h-113h-29h-2q-72 3 -111 26t-84 88q-121 -71 -199.5 -92t-213.5 -21h-441v-1v1h-42l1 192h504q164 0 322 84l-201 323l-70 99h-384v193h412q85 0 127 -21.5
t78 -81.5l334 -551q26 -45 79 -45z" />
    <glyph glyph-name="uni0685.fina" unicode="&#x685;" horiz-adv-x="1454" 
d="M437 1731h202v-247h-202v247zM272 1410h202v-247h-202v247zM817 1163h-202v247h202v-247zM1299 194h157v-194h-103h-113h-226q-83 0 -203 0.5t-210 0.5h-80v-1q-119 0 -193.5 -72.5t-74.5 -168.5q0 -116 96.5 -182.5t250.5 -66.5h352v-175h-391q-242 0 -386 116.5
t-144 319.5q0 177 125 299.5t306 122.5l3 -10v10h158h372l-251 393l-75 100h-379v193h412q85 0 126.5 -22t78.5 -82l361 -582h31v1z" />
    <glyph glyph-name="uni0689.fina" unicode="&#x689;" horiz-adv-x="1071" 
d="M1038 193h61v-193h-61v-1h-36h-188h-120q35 -59 35 -126q0 -102 -72 -174t-173 -72t-173.5 72t-72.5 174q0 68 35 127l-165 1l1 192h314h360l-160 404l-45 99h-282v199h258q105 0 172.5 -52.5t98.5 -126.5zM484 -273q60 0 103 42.5t43 103.5q0 40 -20 73.5t-53 52.5h-146
q-33 -19 -53 -52.5t-20 -73.5q0 -61 43 -103.5t103 -42.5z" />
    <glyph glyph-name="uni068A.fina" unicode="&#x68a;" horiz-adv-x="1099" 
d="M1038 193h61v-193h-61v-1h-36h-188q-235 0 -413 1l-293 1l1 192h314h360l-160 404l-45 99h-282v199h258q105 0 172.5 -52.5t98.5 -126.5zM673 -414h-202v246h202v-246z" />
    <glyph glyph-name="uni068B.fina" unicode="&#x68b;" horiz-adv-x="1064" 
d="M371 1171h-19v-1h-112v100h104v378h114v-238q71 82 146 82q69 0 110 -52t41 -130v-140h-384v1zM459 1298v-28h183v42q0 34 -18 53t-51 19q-35 0 -67.5 -29t-46.5 -57zM1037 193h61v-193h-61v-1h-36h-188q-235 0 -413 1l-293 1l1 192h314h360l-161 404l-45 99h-282v199
h259q105 0 172.5 -52.5t98.5 -126.5zM578 -504h-201v246h201v-246z" />
    <glyph glyph-name="uni068F.fina" unicode="&#x68f;" horiz-adv-x="1099" 
d="M416 1333q-49 0 -82.5 33.5t-33.5 80.5q0 46 34 79t82 33q46 0 79 -33t33 -79q0 -47 -33 -80.5t-79 -33.5zM703 1333q-49 0 -82.5 33.5t-33.5 80.5q0 46 34 79t82 33q46 0 78.5 -33t32.5 -79q0 -47 -32.5 -80.5t-78.5 -33.5zM440 1208q0 46 33.5 78.5t82.5 32.5
q46 0 79 -32.5t33 -78.5q0 -47 -33 -81t-79 -34q-48 0 -82 33.5t-34 81.5zM1038 193h61v-193h-61v-1h-36h-188q-235 0 -413 1l-293 1l1 192h314h360l-160 404l-45 99h-282v199h258q105 0 172.5 -52.5t98.5 -126.5z" />
    <glyph glyph-name="uni0690.fina" unicode="&#x690;" horiz-adv-x="1099" 
d="M423 1387q-46 0 -78 32t-32 76t32 74.5t78 30.5q43 0 74 -31t31 -74q0 -44 -31 -76t-74 -32zM695 1387q-46 0 -78 32t-32 76t32 74.5t78 30.5q43 0 74 -31t31 -74q0 -44 -31 -76t-74 -32zM423 1123q-46 0 -78 32t-32 76t32 74.5t78 30.5q43 0 74 -31t31 -74
q0 -44 -31 -76t-74 -32zM695 1123q-46 0 -78 32t-32 76t32 74.5t78 30.5q43 0 74 -31t31 -74q0 -44 -31 -76t-74 -32zM1038 193h61v-193h-61h-36h-188h-413l-293 1l1 192h314h360l-160 404l-45 99h-282v199h258q105 0 172.5 -52.5t98.5 -126.5z" />
    <glyph glyph-name="uni0692.fina" unicode="&#x692;" horiz-adv-x="647" 
d="M616 1373l-211 -286h-24l-219 286h126l101 -153l96 153h131zM504 194h144v-194h-144v-33q0 -81 -17 -149t-43.5 -117.5t-72.5 -91.5t-91 -70t-112.5 -54t-123 -42.5t-136.5 -36.5v245q68 17 115.5 32t93 35t74.5 43.5t51.5 55t32.5 71.5t10 91v907h219v-692z" />
    <glyph glyph-name="uni0693.fina" unicode="&#x693;" horiz-adv-x="696" 
d="M649 0h-144v-33q0 -221 -121 -347q59 -31 95 -89.5t36 -127.5q0 -102 -72.5 -174t-173.5 -72t-173.5 72t-72.5 174q0 17 3 34q-44 -13 -117 -31v245q68 17 115.5 32t93 35t74.5 43.5t51.5 55t32.5 71.5t10 91v907h219v-692h144v-194zM269 -743q60 0 103 42.5t43 103.5
q0 54 -35 95t-87 49q-64 -42 -151 -73q-19 -33 -19 -71q0 -61 43 -103.5t103 -42.5z" />
    <glyph glyph-name="uni0694.fina" unicode="&#x694;" horiz-adv-x="647" 
d="M504 194h144v-194h-144v-33q0 -81 -17 -149t-43.5 -117.5t-72.5 -91.5t-91 -70t-112.5 -54t-123 -42.5t-136.5 -36.5v245q68 17 115.5 32t93 35t74.5 43.5t51.5 55t32.5 71.5t10 91v907h219v-692zM343 -943h-201v246h201v-246z" />
    <glyph glyph-name="uni0695.fina" unicode="&#x695;" horiz-adv-x="647" 
d="M504 886v-692h144v-194h-144v-33q0 -81 -17 -149t-43.5 -117.5t-72.5 -91.5t-91 -70t-112.5 -54t-123 -42.5t-136.5 -36.5v245q68 17 115.5 32t93 35t74.5 43.5t51.5 55t32.5 71.5t10 91v907h219zM137 -725l102 -143l97 143h181l-256 -322h-32l-265 322h173z" />
    <glyph glyph-name="uni0696.fina" unicode="&#x696;" horiz-adv-x="647" 
d="M290 1395h201v-246h-201v246zM504 194h144v-194h-144v-33q0 -81 -17 -149t-43.5 -117.5t-72.5 -91.5t-91 -70t-112.5 -54t-123 -42.5t-136.5 -36.5v245q68 17 115.5 32t93 35t74.5 43.5t51.5 55t32.5 71.5t10 91v907h219v-692zM343 -943h-201v246h201v-246z" />
    <glyph glyph-name="uni0697.fina" unicode="&#x697;" horiz-adv-x="647" 
d="M98 1427h201v-246h-201v246zM439 1427h201v-246h-201v246zM504 194h144v-194h-144v-33q0 -81 -17 -149t-43.5 -117.5t-72.5 -91.5t-91 -70t-112.5 -54t-123 -42.5t-136.5 -36.5v245q68 17 115.5 32t93 35t74.5 43.5t51.5 55t32.5 71.5t10 91v907h219v-692z" />
    <glyph glyph-name="uni0699.fina" unicode="&#x699;" horiz-adv-x="647" 
d="M256 1408q-46 0 -78 32t-32 76t32 74.5t78 30.5q44 0 74.5 -30.5t30.5 -74.5t-31 -76t-74 -32zM527 1408q-45 0 -77 32t-32 76t31.5 74.5t77.5 30.5q44 0 75 -31t31 -74q0 -44 -31.5 -76t-74.5 -32zM256 1144q-46 0 -78 32t-32 76t32 74.5t78 30.5q44 0 74.5 -30.5
t30.5 -74.5t-31 -76t-74 -32zM527 1144q-45 0 -77 32t-32 76t31.5 74.5t77.5 30.5q44 0 75 -31t31 -74q0 -44 -31.5 -76t-74.5 -32zM504 194h144v-194h-144v-33q0 -81 -17 -149t-43.5 -117.5t-72.5 -91.5t-91 -70t-112.5 -54t-123 -42.5t-136.5 -36.5v245q68 17 115.5 32
t93 35t74.5 43.5t51.5 55t32.5 71.5t10 91v907h219v-692z" />
    <glyph glyph-name="uni069A.init" unicode="&#x69a;" horiz-adv-x="1650" 
d="M790 1373h201v-246h-201v246zM1334 891h219v-891h-239q-211 0 -369 112q-39 -54 -101.5 -83t-137.5 -29q-76 0 -162 32.5t-162 96.5q-38 -61 -97.5 -95t-132.5 -34h-156v2l-37 30v130l37 29v2h3v0h82q67 0 107.5 34.5t40.5 98.5v465h207v-455q0 -38 -6 -72
q46 -36 101.5 -56.5t96.5 -20.5q72 0 120 41.5t48 112.5v450h203v-500q0 -17 -4 -49q88 -55 207 -55h132v704zM1004 -471h-201v246h201v-246z" />
    <glyph glyph-name="uni069A.medi" unicode="&#x69a;" horiz-adv-x="1740" 
d="M786 1373h201v-246h-201v246zM1549 193h191v-193h-430q-211 0 -369 112q-39 -54 -101.5 -83t-137.5 -29q-76 0 -162 32.5t-162 96.5q-38 -61 -97.5 -95t-132.5 -34h-156v2l-37 30v130l37 29v2h3v0h82q67 0 107.5 34.5t40.5 98.5v465h207v-455q0 -38 -6 -72
q46 -36 101 -56.5t96 -20.5q72 0 120 41.5t48 112.5v450h203v-500q0 -25 -3 -49q88 -55 207 -55h132v704h219v-698zM1000 -471h-201v246h201v-246z" />
    <glyph glyph-name="uni069A.fina" unicode="&#x69a;" horiz-adv-x="2484" 
d="M1545 1373h201v-246h-201v246zM2343 194h142v-194h-381q-211 0 -369 112q-39 -54 -102 -83t-138 -29q-143 0 -279 94v-9q0 -149 -78.5 -277t-210 -201.5t-281.5 -73.5q-163 0 -293 72.5t-200.5 195t-70.5 270.5v360h188v-331q0 -149 100.5 -253.5t264.5 -104.5
q151 0 261 104t110 246l-1 707h211v-532q47 -38 103 -59t98 -21q72 0 120 41.5t48 112.5v450h203v-500q0 -25 -3 -49q88 -55 206 -55h132v704h220v-697zM1784 -386h-201v246h201v-246z" />
    <glyph glyph-name="uni069B.init" unicode="&#x69b;" horiz-adv-x="1650" 
d="M1334 891h219v-891h-239q-211 0 -369 112q-39 -54 -101.5 -83t-137.5 -29q-76 0 -162 32.5t-162 96.5q-38 -61 -97.5 -95t-132.5 -34h-156v2l-37 30v130l37 29v2h3v0h82q67 0 107.5 34.5t40.5 98.5v465h207v-455q0 -38 -6 -72q46 -36 101.5 -56.5t96.5 -20.5
q72 0 120 41.5t48 112.5v450h203v-500q0 -17 -4 -49q88 -55 207 -55h132v704zM628 -217h202v-247h-202v247zM1173 -464h-202v247h202v-247zM995 -785h-202v247h202v-247z" />
    <glyph glyph-name="uni069B.medi" unicode="&#x69b;" horiz-adv-x="1740" 
d="M1549 193h191v-193h-430q-211 0 -369 112q-39 -54 -101.5 -83t-137.5 -29q-76 0 -162 32.5t-162 96.5q-38 -61 -97.5 -95t-132.5 -34h-156v2l-37 30v130l37 29v2h3v0h82q67 0 107.5 34.5t40.5 98.5v465h207v-455q0 -38 -6 -72q46 -36 101 -56.5t96 -20.5q72 0 120 41.5
t48 112.5v450h203v-500q0 -25 -3 -49q88 -55 207 -55h132v704h219v-698zM624 -217h202v-247h-202v247zM1169 -464h-202v247h202v-247zM991 -785h-202v247h202v-247z" />
    <glyph glyph-name="uni069B.fina" unicode="&#x69b;" horiz-adv-x="2484" 
d="M2343 194h142v-194h-381q-211 0 -369 112q-39 -54 -102 -83t-138 -29q-143 0 -279 94v-9q0 -149 -78.5 -277t-210 -201.5t-281.5 -73.5q-163 0 -293 72.5t-200.5 195t-70.5 270.5v360h188v-331q0 -149 100.5 -253.5t264.5 -104.5q151 0 261 104t110 246l-1 707h211v-532
q47 -38 103 -59t98 -21q72 0 120 41.5t48 112.5v450h203v-500q0 -25 -3 -49q88 -55 206 -55h132v704h220v-697zM1408 -131h202v-247h-202v247zM1953 -378h-202v247h202v-247zM1775 -699h-202v247h202v-247z" />
    <glyph glyph-name="uni069C.init" unicode="&#x69c;" horiz-adv-x="1650" 
d="M789 1709h202v-248h-202v248zM624 1387h202v-247h-202v247zM1169 1140h-203v247h203v-247zM1334 891h219v-891h-239q-211 0 -369 112q-39 -54 -101.5 -83t-137.5 -29q-76 0 -162 32.5t-162 96.5q-38 -61 -97.5 -95t-132.5 -34h-156v2l-37 30v130l37 29v2h3v0h82
q67 0 107.5 34.5t40.5 98.5v465h207v-455q0 -38 -6 -72q46 -36 101.5 -56.5t96.5 -20.5q72 0 120 41.5t48 112.5v450h203v-500q0 -17 -4 -49q88 -55 207 -55h132v704zM628 -217h202v-247h-202v247zM1173 -464h-202v247h202v-247zM995 -785h-202v247h202v-247z" />
    <glyph glyph-name="uni069C.medi" unicode="&#x69c;" horiz-adv-x="1740" 
d="M785 1709h202v-248h-202v248zM620 1387h202v-247h-202v247zM1164 1140h-202v247h202v-247zM1549 193h191v-193h-430q-211 0 -369 112q-39 -54 -101.5 -83t-137.5 -29q-76 0 -162 32.5t-162 96.5q-38 -61 -97.5 -95t-132.5 -34h-156v2l-37 30v130l37 29v2h3v0h81
q67 0 108 35t41 98v465h207v-455q0 -38 -6 -72q46 -36 101 -56.5t96 -20.5q72 0 120 41.5t48 112.5v450h203v-500q0 -25 -3 -49q88 -55 207 -55h132v704h219v-698zM624 -217h202v-247h-202v247zM1169 -464h-202v247h202v-247zM991 -785h-202v247h202v-247z" />
    <glyph glyph-name="uni069C.fina" unicode="&#x69c;" horiz-adv-x="2484" 
d="M1543 1708h203v-247h-203v247zM1378 1387h202v-247h-202v247zM1923 1140h-202v247h202v-247zM2343 194h142v-194h-381q-211 0 -369 112q-39 -54 -102 -83t-138 -29q-143 0 -279 94v-9q0 -149 -78.5 -277t-210 -201.5t-281.5 -73.5q-163 0 -293 72.5t-200.5 195
t-70.5 270.5v360h188v-331q0 -149 100.5 -253.5t264.5 -104.5q151 0 261 104t110 246l-1 707h211v-532q47 -38 103 -59t98 -21q72 0 120 41.5t48 112.5v450h203v-500q0 -25 -3 -49q88 -55 206 -55h132v704h220v-697zM1408 -131h202v-247h-202v247zM1953 -378h-202v247h202
v-247zM1775 -699h-202v247h202v-247z" />
    <glyph glyph-name="uni069D.init" unicode="&#x69d;" horiz-adv-x="1568" 
d="M409 659l596 251q192 0 305.5 -138.5t113.5 -353.5v-418h-1188h-16h-246v2l-38 30v130l38 30v1h213v699h222v-233zM409 194h795v230q0 128 -67.5 195t-190.5 67l-537 -233v-259zM621 -447h-201v246h201v-246zM962 -447h-201v246h201v-246z" />
    <glyph glyph-name="uni069D.medi" unicode="&#x69d;" horiz-adv-x="1517" 
d="M1417 418v-224h100v-194h-196h-1091h-16h-246v2l-38 30v130l38 30v1h213v699h222v-233l596 251q192 0 305 -138t113 -354zM403 194h795v230q0 128 -67.5 195t-190.5 67l-537 -233v-259zM615 -447h-202v246h202v-246zM956 -447h-201v246h201v-246z" />
    <glyph glyph-name="uni069D.fina" unicode="&#x69d;" horiz-adv-x="2330" 
d="M2214 418v-224h118v-194h-1149q-32 -199 -191.5 -333t-365.5 -134q-147 0 -272.5 66.5t-200.5 185.5t-75 265v371h196v-346q0 -140 104 -236t248 -96t253.5 101t109.5 241l-1 786h202v-216l606 255q192 0 305 -138t113 -354zM1197 194h797v230q0 128 -67 195t-190 67
l-540 -234v-258zM1511 -480h-201v246h201v-246zM1852 -480h-201v246h201v-246z" />
    <glyph glyph-name="uni069E.init" unicode="&#x69e;" horiz-adv-x="1568" 
d="M742 1709h202v-247h-202v247zM577 1387h202v-247h-202v247zM1122 1140h-202v247h202v-247zM409 659l596 251q192 0 305.5 -138.5t113.5 -353.5v-418h-1188h-16h-246v2l-38 30v130l38 30v1h213v699h222v-233zM409 194h795v230q0 128 -67.5 195.5t-190.5 67.5l-537 -234
v-259z" />
    <glyph glyph-name="uni069E.medi" unicode="&#x69e;" horiz-adv-x="1517" 
d="M736 1709h202v-247h-202v247zM571 1387h202v-247h-202v247zM1115 1140h-202v247h202v-247zM1417 418v-224h100v-194h-196h-1091h-16h-246v2l-39 30v130l39 30v1h213v699h222v-233l596 251q192 0 305 -138t113 -354zM403 194h795v230q0 128 -67.5 195.5t-190.5 67.5
l-537 -234v-259z" />
    <glyph glyph-name="uni069E.fina" unicode="&#x69e;" horiz-adv-x="2330" 
d="M1493 1709h203v-247h-203v247zM1328 1387h202v-247h-202v247zM1873 1140h-202v247h202v-247zM2214 418v-224h118v-194h-1149q-32 -199 -191.5 -333t-365.5 -134q-147 0 -272.5 66.5t-200.5 185.5t-75 265v371h196v-346q0 -140 104 -236t248 -96t253.5 101t109.5 241
l-1 786h202v-216l605 255q192 0 305.5 -138.5t113.5 -353.5zM1197 194h797v230q0 128 -67 195t-190 67l-540 -234v-258z" />
    <glyph glyph-name="uni069F.init" unicode="&#x69f;" horiz-adv-x="1568" 
d="M828 1736h202v-247h-202v247zM1423 418v-418h-1143h-283v3l-38 29v130l38 29v2h2h1h224v1237h222v-755l558 235q192 0 305.5 -138.5t113.5 -353.5zM663 1415h202v-247h-202v247zM1208 1168h-202v247h202v-247zM446 194h757v230q0 128 -67 195.5t-190 67.5l-500 -217v-276
z" />
    <glyph glyph-name="uni069F.medi" unicode="&#x69f;" horiz-adv-x="1540" 
d="M824 1736h202v-247h-202v247zM1419 418v-224h125v-194h-163h-1105h-283v3l-38 29v130l38 29v2h2h1h224v1237h222v-755l558 235q192 0 305.5 -138.5t113.5 -353.5zM659 1415h202v-247h-202v247zM1204 1168h-202v247h202v-247zM442 194h757v230q0 128 -67.5 195.5
t-190.5 67.5l-499 -217v-276z" />
    <glyph glyph-name="uni069F.fina" unicode="&#x69f;" horiz-adv-x="1798" 
d="M973 1736h202v-247h-202v247zM1641 418l1 -224h157v-194h-177h-1063h-477v193h345v1237h222v-762l574 242q192 0 305 -138t113 -354zM808 1414h202v-247h-202v247zM1352 1167h-202v247h202v-247zM649 194h773v230q0 128 -67.5 195t-190.5 67l-515 -223v-269z" />
    <glyph glyph-name="uni06A0.init" unicode="&#x6a0;" horiz-adv-x="1306" 
d="M535 1705h202v-247h-202v247zM370 1384h202v-247h-202v247zM915 1137h-202v247h202v-247zM647 193h528v-193h-1175v2l-39 30v130l39 30v2h288l-155 220q0 232 174 371q133 107 322 107h278v-173h-246q-130 0 -217.5 -76t-87.5 -199l108 -148q74 -103 183 -103z" />
    <glyph glyph-name="uni06A0.medi" unicode="&#x6a0;" horiz-adv-x="1177" 
d="M505 1682h202v-247h-202v247zM340 1361h202v-247h-202v247zM884 1114h-202v247h202v-247zM650 193h528v-193h-1175v2l-38 30v130l38 30v2h288l-155 220q0 231 175 371q133 107 322 107h277v-173h-246q-130 0 -217.5 -76t-87.5 -199l109 -148q74 -103 182 -103z" />
    <glyph glyph-name="uni06A0.fina" unicode="&#x6a0;" horiz-adv-x="1218" 
d="M577 1698h202v-247h-202v247zM412 1377h202v-247h-202v247zM956 1130h-202v247h202v-247zM1220 0h-643q-116 -3 -188.5 -74.5t-72.5 -166.5q0 -116 96.5 -182.5t250.5 -66.5h352v-175h-391q-242 0 -386 116.5t-144 319.5q0 131 72 236.5t190 153.5l-178 253
q0 232 174 371q133 107 322 107h278v-173h-246q-130 0 -217.5 -76t-87.5 -199l108 -148q74 -103 183 -103h528v-193z" />
    <glyph glyph-name="uni06A1.init" unicode="&#x6a1;" horiz-adv-x="1189" 
d="M589 892h443v-442v-450h-435v-1l-599 1v2l-39 30v130l39 30v2h205q-79 115 -79 259q0 191 132.5 315t332.5 124zM597 194v-1h216v259v248h-224q-105 0 -175.5 -69.5t-70.5 -177.5q0 -107 67.5 -180.5t168.5 -78.5h18z" />
    <glyph glyph-name="uni06A1.medi" unicode="&#x6a1;" horiz-adv-x="1165" 
d="M1025 193h143v-193h-583h-17h-569v1l-40 31v130l40 31h1v0h197q-79 113 -79 260q0 191 132 315t332 124h443v-442v-257zM583 700q-104 0 -175.5 -69.5t-71.5 -177.5q0 -110 71.5 -185t176.5 -75h222v259v248h-223z" />
    <glyph glyph-name="uni06A1.fina" unicode="&#x6a1;" horiz-adv-x="2033" 
d="M1849 450v-256h185v-194h-582v-1l-936 1q-206 0 -342.5 128t-136.5 325v305h206v-293q0 -118 84.5 -194.5t203.5 -76.5h489q-79 115 -79 259q0 191 132.5 315t332.5 124h443v-442zM1407 700q-105 0 -176 -69.5t-71 -177.5q0 -107 67.5 -180.5t168.5 -78.5h56h178v258v248
h-223z" />
    <glyph glyph-name="uni06A2.init" unicode="&#x6a2;" horiz-adv-x="1189" 
d="M589 892h443v-442v-450h-435v-1l-599 1v2l-39 30v130l39 30v2h205q-79 115 -79 259q0 191 132.5 315t332.5 124zM597 194v-1h216v259v248h-224q-105 0 -175.5 -69.5t-70.5 -177.5q0 -107 67.5 -180.5t168.5 -78.5h18zM725 -465h-201v246h201v-246z" />
    <glyph glyph-name="uni06A2.medi" unicode="&#x6a2;" horiz-adv-x="1165" 
d="M1025 193h143v-193h-583h-17h-569v1l-40 31v130l40 31h1v0h197q-79 113 -79 260q0 191 132 315t332 124h443v-442v-257zM583 700q-104 0 -175.5 -69.5t-71.5 -177.5q0 -110 71.5 -185t176.5 -75h222v259v248h-223zM726 -464h-201v246h201v-246z" />
    <glyph glyph-name="uni06A2.fina" unicode="&#x6a2;" horiz-adv-x="2033" 
d="M1849 450v-256h185v-194h-582v-1l-936 1q-206 0 -342.5 128t-136.5 325v305h206v-293q0 -118 84.5 -194.5t203.5 -76.5h489q-79 115 -79 259q0 191 132.5 315t332.5 124h443v-442zM1407 700q-105 0 -176 -69.5t-71 -177.5q0 -107 67.5 -180.5t168.5 -78.5h56h178v258v248
h-223zM1174 -443h-201v246h201v-246z" />
    <glyph glyph-name="uni06A3.init" unicode="&#x6a3;" horiz-adv-x="1171" 
d="M499 1373h201v-246h-201v246zM589 892h443v-442v-450h-434v-1l-600 1v2l-38 30v130l39 30v2h204q-78 114 -78 259q0 191 132 315t332 124zM598 194v-1h215v259v248h-223q-104 0 -175 -69.5t-71 -177.5q0 -107 67.5 -180.5t168.5 -78.5h18zM695 -506h-201v246h201v-246z
" />
    <glyph glyph-name="uni06A3.medi" unicode="&#x6a3;" horiz-adv-x="1167" 
d="M482 1373h201v-246h-201v246zM1026 193h142v-193h-583h-17h-568v1l-40 31v130l40 31v0v0h198q-80 115 -80 260q0 191 132.5 315t332.5 124h443v-442v-257zM583 700q-104 0 -175 -69.5t-71 -177.5q0 -110 71.5 -185t176.5 -75h222v259v248h-224zM692 -505h-201v246h201
v-246z" />
    <glyph glyph-name="uni06A3.fina" unicode="&#x6a3;" horiz-adv-x="2033" 
d="M1326 1373h201v-246h-201v246zM1849 450v-256h185v-194h-582v-1l-936 1q-206 0 -342.5 128t-136.5 325v305h206v-293q0 -118 84.5 -194.5t203.5 -76.5h489q-79 115 -79 259q0 191 132.5 315t332.5 124h443v-442zM1406 700q-105 0 -175.5 -69.5t-70.5 -177.5
q0 -107 67.5 -180.5t168.5 -78.5h56h178v258v248h-224zM1174 -443h-201v246h201v-246z" />
    <glyph glyph-name="uni06A5.init" unicode="&#x6a5;" horiz-adv-x="1171" 
d="M589 892h443v-442v-450h-434v-1l-600 1v2l-38 30v130l39 30v2h204q-78 114 -78 259q0 191 132 315t332 124zM598 194v-1h215v259v248h-223q-104 0 -175 -69.5t-71 -177.5q0 -107 67.5 -180.5t168.5 -78.5h18zM329 -181h202v-247h-202v247zM874 -428h-202v247h202v-247z
M696 -749h-202v247h202v-247z" />
    <glyph glyph-name="uni06A5.medi" unicode="&#x6a5;" horiz-adv-x="1167" 
d="M1026 193h142v-193h-583h-17h-568v1l-40 31v130l40 31h1v0h197q-80 115 -80 260q0 191 132.5 315t332.5 124h443v-442v-257zM583 700q-104 0 -175 -69.5t-71 -177.5q0 -110 71.5 -185t176.5 -75h222v259v248h-224zM326 -180h202v-247h-202v247zM871 -427h-202v247h202
v-247zM693 -748h-202v247h202v-247z" />
    <glyph glyph-name="uni06A5.fina" unicode="&#x6a5;" horiz-adv-x="2033" 
d="M1849 450v-256h185v-194h-582v-1l-936 1q-206 0 -342.5 128t-136.5 325v305h206v-293q0 -118 84.5 -194.5t203.5 -76.5h489q-79 115 -79 259q0 191 132.5 315t332.5 124h443v-442zM1407 700q-105 0 -176 -69.5t-71 -177.5q0 -107 67.5 -180.5t168.5 -78.5h56h178v258v248
h-223zM798 -189h202v-247h-202v247zM1343 -436h-202v247h202v-247zM1165 -757h-202v247h202v-247z" />
    <glyph glyph-name="uni06A7.init" unicode="&#x6a7;" horiz-adv-x="1189" 
d="M498 1373h201v-246h-201v246zM589 892h443v-442v-450h-435v-1l-599 1v2l-39 30v130l39 30v2h205q-79 115 -79 259q0 191 132.5 315t332.5 124zM597 194v-1h216v259v248h-224q-105 0 -175.5 -69.5t-70.5 -177.5q0 -107 67.5 -180.5t168.5 -78.5h18z" />
    <glyph glyph-name="uni06A7.medi" unicode="&#x6a7;" horiz-adv-x="1165" 
d="M481 1373h202v-246h-202v246zM1025 193h143v-193h-583h-17h-569v1l-40 31v130l40 31h1v0h197q-79 113 -79 260q0 191 132 315t332 124h443v-442v-257zM583 700q-104 0 -175.5 -69.5t-71.5 -177.5q0 -110 71.5 -185t176.5 -75h222v259v248h-223z" />
    <glyph glyph-name="uni06A7.fina" unicode="&#x6a7;" horiz-adv-x="1638" 
d="M924 1382h202v-246h-202v246zM1481 450v-256h136v-194h-136q-1 -76 -30.5 -154t-90.5 -150.5t-145.5 -129t-205 -90.5t-258.5 -34q-147 0 -274 49.5t-214 133.5t-136.5 197.5t-49.5 240.5v358h208v-325q0 -187 134.5 -315.5t363.5 -128.5q200 0 327 97.5t154 250.5h-223
q-201 0 -334 130t-133 323q0 191 132.5 315t332.5 124h442v-442zM1040 193h223l-1 258v249h-223q-104 0 -175 -69.5t-71 -177.5q0 -110 71 -185t176 -75z" />
    <glyph glyph-name="uni06A8.init" unicode="&#x6a8;" horiz-adv-x="1189" 
d="M497 1708h202v-247h-202v247zM332 1387h202v-247h-202v247zM877 1140h-203v247h203v-247zM589 892h443v-442v-450h-435v-1l-599 1v2l-39 30v130l39 30v2h205q-79 115 -79 259q0 191 132.5 315t332.5 124zM597 194v-1h216v259v248h-224q-105 0 -175.5 -69.5t-70.5 -177.5
q0 -107 67.5 -180.5t168.5 -78.5h18z" />
    <glyph glyph-name="uni06A8.medi" unicode="&#x6a8;" horiz-adv-x="1165" 
d="M480 1708h202v-247h-202v247zM315 1387h202v-247h-202v247zM860 1140h-203v247h203v-247zM1025 193h143v-193h-583h-17h-569v1l-40 31v130l40 31h1v0h197q-79 113 -79 260q0 191 132 315t332 124h443v-442v-257zM583 700q-104 0 -175.5 -69.5t-71.5 -177.5
q0 -110 71.5 -185t176.5 -75h222v259v248h-223z" />
    <glyph glyph-name="uni06A8.fina" unicode="&#x6a8;" horiz-adv-x="1638" 
d="M920 1763h202v-247h-202v247zM755 1441h202v-247h-202v247zM1299 1194h-202v247h202v-247zM1481 450v-256h136v-194h-136q-1 -76 -30.5 -154t-90.5 -150.5t-145.5 -129t-205 -90.5t-258.5 -34q-147 0 -274 49.5t-214 133.5t-136.5 197.5t-49.5 240.5v358h208v-325
q0 -187 134.5 -315.5t363.5 -128.5q200 0 327 97.5t154 250.5h-223q-201 0 -334 130t-133 323q0 191 132 315t332 124h443v-442zM1040 193h222v259v248h-223q-104 0 -175 -69.5t-71 -177.5q0 -110 71 -185t176 -75z" />
    <glyph glyph-name="uni06AA.init" unicode="&#x6aa;" horiz-adv-x="2119" 
d="M398 769l1078 1q74 0 142.5 -16t131 -51.5t108.5 -87.5t73.5 -129t27.5 -171v-315h-1957v2l-38 30v130l38 30v1h1744l-1 122q-4 135 -83 198.5t-198 63.5h-1292v192q0 110 39 199.5t106 147t153 88.5t182 31q137 0 257 -54v-177q-109 49 -226 49q-126 0 -205.5 -74
t-79.5 -210z" />
    <glyph glyph-name="uni06AA.medi" unicode="&#x6aa;" horiz-adv-x="2019" 
d="M1858 315v-122h162v-193h-174h-1842v2l-39 30v130l39 30v1h1641l-1 122q-4 135 -83 198.5t-198 63.5h-1189v192q0 110 39 199.5t105.5 147t152.5 88.5t182 31q136 0 258 -55v-176q-109 49 -226 49q-126 0 -205.5 -74t-79.5 -210l975 1q74 0 142.5 -16t131 -51.5
t108.5 -87.5t73.5 -129t27.5 -171z" />
    <glyph glyph-name="uni06AA.fina" unicode="&#x6aa;" horiz-adv-x="2465" 
d="M2305 324v-130h160v-194h-1910q-205 2 -339 129.5t-134 323.5q0 114 54 212t149 164l153 -107q-76 -45 -113.5 -113.5t-37.5 -143.5q0 -115 80.5 -191.5t196.5 -80.5h1528l-1 130q-4 130 -82 192t-216 62h-1091v192q0 99 32 181.5t86 138.5t127.5 92.5t154.5 48
t168.5 -0.5t169.5 -48v-177q-87 37 -177.5 42.5t-164.5 -20.5t-121.5 -92.5t-47.5 -164.5l876 1q105 0 194 -27t158 -80t108.5 -140t39.5 -199z" />
    <glyph glyph-name="uni06AB.init" unicode="&#x6ab;" horiz-adv-x="1490" 
d="M390 907h462q237 0 357.5 -148t120.5 -408v-351h-1330v281h1020l-2 94q-6 121 -72 199.5t-196 78.5h-620v251q0 129 40 229.5t108 161.5t153.5 92t182.5 31q99 0 195 -31t171 -88v-233q-67 64 -159 101q2 -12 2 -18q0 -58 -41.5 -98.5t-99.5 -40.5t-98.5 40.5t-40.5 98.5
q0 11 1 17q-153 -67 -154 -259zM752 1149q0 22 -15 42q-21 4 -49 4q-32 0 -60 -4q-14 -19 -14 -42q0 -29 20 -48.5t48 -19.5q29 0 49.5 20t20.5 48z" />
    <glyph glyph-name="uni06AB.medi" unicode="&#x6ab;" horiz-adv-x="1499" 
d="M1326 351v-70h173v-281h-1503v281h1020l-1 94q-6 121 -72.5 199.5t-196.5 78.5h-620v251q0 129 40 229.5t108 161.5t153.5 92t182.5 31q99 0 195 -31t171 -88v-233q-68 65 -158 101q1 -6 1 -18q0 -58 -41 -98.5t-99 -40.5t-99 40.5t-41 98.5q0 5 2 17q-154 -68 -155 -259
h462q237 0 357.5 -148t120.5 -408zM748 1149q0 23 -14 42q-21 4 -49 4q-33 0 -61 -4q-14 -19 -14 -42q0 -29 20 -49t49 -20t49 20t20 49z" />
    <glyph glyph-name="uni06AB.fina" unicode="&#x6ab;" horiz-adv-x="2097" 
d="M1928 351v-70h169v-281h-1471q-223 1 -366.5 135.5t-143.5 347.5q0 122 59 228t162 178l224 -155q-77 -42 -112 -105t-35 -129q0 -96 64 -155t159 -64h982l-2 94q-6 121 -72 199.5t-196 78.5h-620v251h-1q0 129 40 229.5t108 161.5t153.5 92t182.5 31q99 0 195 -31
t171 -88v-233q-68 65 -158 101q1 -6 1 -18q0 -58 -41 -98.5t-99 -40.5t-98.5 40.5t-40.5 98.5q0 11 1 17q-154 -68 -155 -259h462q237 0 357.5 -148t120.5 -408zM1350 1149q0 23 -14 42q-21 4 -49 4q-33 0 -61 -4q-13 -17 -13 -42q0 -29 20 -49t48 -20q29 0 49 20t20 49z
" />
    <glyph glyph-name="uni06AC.init" unicode="&#x6ac;" horiz-adv-x="1038" 
d="M113 1668h201v-246h-201v246zM931 1232l-668 -280q429 -286 697 -759v-193h-960v2l-38 30v130l38 30v2h715q-226 379 -663 668l1 1h-1v216l879 364v-211z" />
    <glyph glyph-name="uni06AC.medi" unicode="&#x6ac;" horiz-adv-x="1140" 
d="M113 1668h202v-246h-202v246zM960 194h180v-194h-1139v2l-39 30v130l39 30v2h715q-226 379 -663 668v1v216l879 364v-211l-669 -280q429 -287 697 -758z" />
    <glyph glyph-name="uni06AC.fina" unicode="&#x6ac;" horiz-adv-x="2025" 
d="M847 1594h201v-246h-201v246zM1486 0l-926 -1q-206 0 -342.5 128t-136.5 325v307h205v-295q0 -118 84.5 -194.5t204.5 -76.5l863 1q59 0 97.5 39.5t38.5 99.5v1097h222v-1098q0 -59 39 -98.5t99 -39.5h95v-194h-67q-159 0 -238 144q-36 -69 -97.5 -106.5t-140.5 -37.5z
M948 965l124 -113h152v-106h-444v106h104l-78 77q0 53 18 109t51 86q71 65 185 65h118v-105h-100q-55 0 -92.5 -33.5t-37.5 -85.5z" />
    <glyph glyph-name="uni06AE.init" unicode="&#x6ae;" horiz-adv-x="1038" 
d="M931 1232l-668 -280q429 -286 697 -759v-193h-960v2l-38 30v130l38 30v2h715q-226 379 -663 668l1 1h-1v216l879 364v-211zM191 -191h202v-247h-202v247zM735 -438h-202v247h202v-247zM558 -759h-202v247h202v-247z" />
    <glyph glyph-name="uni06AE.medi" unicode="&#x6ae;" horiz-adv-x="1140" 
d="M960 194h180v-194h-1139v2l-39 30v130l39 30v2h715q-226 379 -663 668v1v216l879 364v-211l-669 -280q429 -287 697 -758zM191 -191h202v-247h-202v247zM736 -438h-202v247h202v-247zM558 -759h-202v247h202v-247z" />
    <glyph glyph-name="uni06AE.fina" unicode="&#x6ae;" horiz-adv-x="2025" 
d="M1486 0l-926 -1q-206 0 -342.5 128t-136.5 325v307h205v-295q0 -118 84.5 -194.5t204.5 -76.5l863 1q59 0 97.5 39.5t38.5 99.5v1097h222v-1098q0 -59 39 -98.5t99 -39.5h95v-194h-67q-79 0 -140 38.5t-98 106.5q-36 -69 -97.5 -107t-140.5 -38zM948 965l124 -113h152
v-106h-444v106h104l-78 77q0 53 18 109t51 86q71 65 185 65h118v-105h-100q-55 0 -92.5 -33.5t-37.5 -85.5zM935 -196v-247h-202v247h202zM1277 -196v-247h-202v247h202zM1100 -517v-247h-202v247h202z" />
    <glyph glyph-name="uni06B0.init" unicode="&#x6b0;" horiz-adv-x="1490" 
d="M390 907h462q237 0 357.5 -148t120.5 -408v-351h-1330v281h1020l-2 94q-6 121 -72 199.5t-196 78.5h-620v251q0 158 58 272l-248 -111l-3 120l848 385v-127l-73 -33q155 -25 268 -111v-233q-67 64 -159 101q2 -12 2 -18q0 -58 -41.5 -98.5t-99.5 -40.5t-98.5 40.5
t-40.5 98.5q0 11 1 17q-153 -67 -154 -259zM752 1149q0 22 -15 42q-21 4 -49 4q-32 0 -60 -4q-14 -19 -14 -42q0 -29 20 -49t48 -20q29 0 49.5 20.5t20.5 48.5z" />
    <glyph glyph-name="uni06B0.medi" unicode="&#x6b0;" horiz-adv-x="1499" 
d="M1326 351v-70h173v-281h-1503v281h1020l-1 94q-6 121 -72.5 199.5t-196.5 78.5h-620v251q0 159 60 274l-250 -112l-3 120l847 385v-127l-74 -33q153 -23 270 -112v-233q-68 65 -158 101q1 -6 1 -18q0 -58 -41 -98.5t-99 -40.5t-99 40.5t-41 98.5q0 5 2 17
q-154 -68 -155 -259h462q237 0 357.5 -148t120.5 -408zM748 1149q0 23 -14 42q-21 4 -49 4q-33 0 -61 -4q-14 -19 -14 -42q0 -29 20 -49t49 -20t49 20t20 49z" />
    <glyph glyph-name="uni06B0.fina" unicode="&#x6b0;" horiz-adv-x="2097" 
d="M1928 351v-70h169v-281h-1471q-223 1 -366.5 135.5t-143.5 347.5q0 122 59 228t162 178l224 -155q-77 -42 -112 -105t-35 -129q0 -96 64 -155t159 -64h982l-2 94q-6 121 -72 199.5t-196 78.5h-620v251h-1q0 136 46 244l-252 -113l-3 119l431 197q40 24 89 40l327 149
v-128l-20 -8q132 -30 232 -105v-233q-68 65 -158 101q1 -6 1 -18q0 -58 -41 -98.5t-99 -40.5t-98.5 40.5t-40.5 98.5q0 11 1 17q-154 -68 -155 -259h462q237 0 357.5 -148t120.5 -408zM1350 1149q0 23 -14 42q-21 4 -49 4q-33 0 -61 -4q-13 -17 -13 -42q0 -29 20 -49t48 -20
q29 0 49 20t20 49z" />
    <glyph glyph-name="uniFB9C" unicode="&#x6b1;" horiz-adv-x="1038" arabic-form="initial" 
d="M245 1792l56 -154l-126 -46l-56 155zM-94 1669l126 46l56 -154l-126 -46zM871 1554l-844 -378l-3 120l847 385v-127zM931 1232l-668 -280q429 -286 697 -759v-193h-960v2l-38 30v130l38 30v2h715q-226 379 -663 668l1 1h-1v216l879 364v-211z" />
    <glyph glyph-name="uniFB9D" unicode="&#x6b1;" horiz-adv-x="1140" arabic-form="medial" 
d="M237 1786l56 -154l-126 -46l-56 154zM-102 1662l126 46l56 -154l-126 -46zM872 1554l-844 -378l-4 120l848 385v-127zM960 194h180v-194h-1139v2l-39 30v130l39 30v2h715q-226 379 -663 668v1v216l879 364v-211l-669 -281q430 -288 697 -757z" />
    <glyph glyph-name="uniFB9B" unicode="&#x6b1;" horiz-adv-x="1966" arabic-form="final" 
d="M808 1781l56 -154l-126 -46l-56 154zM1549 1594l-844 -377l-4 119l848 386v-128zM594 1703l56 -154l-126 -46l-56 154zM1602 1233l-668 -281q430 -287 698 -759v-193h-961v1h-155q-206 0 -342.5 128t-136.5 325v306h206v-295q0 -118 84 -194t204 -76h855
q-111 185 -281 356t-382 311l1 1h-1v216l879 364v-210zM1769 0v194h173v-194h-173z" />
    <glyph glyph-name="uni06B2.init" unicode="&#x6b2;" horiz-adv-x="1038" 
d="M871 1681v-127l-844 -378l-3 120zM931 1232l-668 -280q429 -286 697 -759v-193h-960v2l-38 30v130l38 30v2h715q-226 379 -663 668l1 1h-1v216l879 364v-211zM386 -445h-201v246h201v-246zM727 -445h-201v246h201v-246z" />
    <glyph glyph-name="uni06B2.medi" unicode="&#x6b2;" horiz-adv-x="1140" 
d="M872 1681v-127l-844 -378l-4 120zM960 194h180v-194h-1139v2l-39 30v130l39 30v2h715q-226 379 -663 668v1v216l879 364v-211l-669 -280q429 -287 697 -758zM387 -445h-202v246h202v-246zM728 -445h-201v246h201v-246z" />
    <glyph glyph-name="uni06B2.fina" unicode="&#x6b2;" horiz-adv-x="1966" 
d="M1549 1722v-128l-844 -377l-4 119zM1602 1233l-668 -281q430 -287 698 -759v-193h-961h-155q-206 0 -342.5 128.5t-136.5 325.5v306h206v-295q0 -118 84 -194t204 -76h855q-111 185 -281 356t-382 311l1 1h-1v216l879 364v-210zM1769 0v194h173v-194h-173zM789 -501h-201
v246h201v-246zM1130 -501h-201v246h201v-246z" />
    <glyph glyph-name="uniFB98" unicode="&#x6b3;" horiz-adv-x="1038" arabic-form="initial" 
d="M871 1681v-127l-844 -378l-3 120zM931 1232l-668 -280q429 -286 697 -759v-193h-960v2l-38 30v130l38 30v2h715q-226 379 -663 668l1 1h-1v216l879 364v-211zM467 -167q46 0 78.5 -32.5t32.5 -78.5q0 -47 -32.5 -80.5t-78.5 -33.5q-48 0 -81.5 33.5t-33.5 80.5
q0 46 33.5 78.5t81.5 32.5zM467 -457q46 0 78.5 -32.5t32.5 -78.5q0 -47 -32.5 -80.5t-78.5 -33.5q-48 0 -81.5 33.5t-33.5 80.5q0 46 33.5 78.5t81.5 32.5z" />
    <glyph glyph-name="uniFB99" unicode="&#x6b3;" horiz-adv-x="1140" arabic-form="medial" 
d="M872 1681v-127l-844 -378l-4 120zM960 194h180v-194h-1139v2l-39 30v130l39 30v2h715q-226 379 -663 668v1v216l879 364v-211l-669 -280q429 -287 697 -758zM468 -167q46 0 78 -32.5t32 -78.5q0 -47 -32 -80.5t-78 -33.5q-48 0 -82 33.5t-34 80.5q0 46 34 78.5t82 32.5z
M468 -457q46 0 78 -32.5t32 -78.5q0 -47 -32 -80.5t-78 -33.5q-48 0 -82 33.5t-34 80.5q0 46 34 78.5t82 32.5z" />
    <glyph glyph-name="uniFB97" unicode="&#x6b3;" horiz-adv-x="1966" arabic-form="final" 
d="M1549 1722v-128l-844 -377l-4 119zM1602 1233l-668 -281q430 -287 698 -759v-193h-961h-155q-206 0 -342.5 128.5t-136.5 325.5v306h206v-295q0 -118 84 -194t204 -76h855q-111 185 -281 356t-382 311l1 1h-1v216l879 364v-210zM1769 0v194h173v-194h-173zM870 -223
q46 0 78.5 -32.5t32.5 -78.5q0 -47 -32.5 -80.5t-78.5 -33.5q-48 0 -82 33.5t-34 80.5q0 46 34 78.5t82 32.5zM870 -513q46 0 78.5 -32.5t32.5 -78.5q0 -47 -32.5 -80.5t-78.5 -33.5q-48 0 -82 33.5t-34 80.5q0 46 34 78.5t82 32.5z" />
    <glyph glyph-name="uni06B4.init" unicode="&#x6b4;" horiz-adv-x="1640" 
d="M169 1578q-23 -20 -53 -18t-49 24q-19 23 -16 53t26 50q23 19 51.5 16t48.5 -26q19 -22 16.5 -51t-24.5 -48zM239 1017h-103q3 121 47.5 227t117 181.5t171 125t205 65.5t223.5 -4.5t223 -78.5v-89q-101 51 -207.5 69t-202 5t-181.5 -54.5t-149.5 -104.5t-102 -151.5
t-41.5 -190.5zM335 1520q-23 -20 -52.5 -17.5t-48.5 24.5q-20 23 -17 53.5t26 49.5t52 15.5t49 -26.5q19 -22 16.5 -51t-25.5 -48zM108 1516q22 19 51.5 16t48.5 -26q19 -22 16.5 -51t-24.5 -48q-23 -20 -53 -18t-49 24q-19 23 -16 53t26 50zM662 932l309 1q245 1 403 -153
t158 -404v-376h-1532v281h1223l-2 94q-6 121 -72 199.5t-196 78.5h-621v278q17 208 159 335t348 127q150 0 295 -68v-256q-117 60 -222 60q-106 0 -170 -51.5t-80 -145.5z" />
    <glyph glyph-name="uni06B4.medi" unicode="&#x6b4;" horiz-adv-x="1456" 
d="M-223 1942l109 -130l-106 -89l-110 130zM12 1851l110 -130l-107 -89l-109 130zM-275 1611l107 89l109 -130l-106 -89zM-103 1157l847 386v-128l-844 -377zM961 194h180v-194h-1139v2l-39 30v130l39 30v2h715q-226 379 -663 668v1v216l879 364v-211l-669 -280
q429 -287 697 -758z" />
    <glyph glyph-name="uni06B4.fina" unicode="&#x6b4;" horiz-adv-x="1941" 
d="M354 1940l109 -131l-106 -89l-110 130zM589 1849l109 -130l-106 -90l-109 130zM412 1478l-110 130l107 89l109 -130zM1296 1543v-128l-844 -377l-3 119zM1601 1233l-669 -281q430 -287 698 -759v-193h-960h-156q-206 0 -342 128.5t-136 325.5v306h205v-295
q0 -118 84.5 -194t204.5 -76h854q-111 186 -280.5 356.5t-381.5 310.5l1 1h-1v216l879 364v-210zM1767 0v194h174v-194h-174z" />
    <glyph glyph-name="uni06B5.init" unicode="&#x6b5;" horiz-adv-x="591" 
d="M532 1864l-211 -286h-24l-219 286h126l101 -154l96 154h131zM-2 194h209v1236h221v-1430h-427v0h-3v2l-38 30v130l38 29v3z" />
    <glyph glyph-name="uni06B5.medi" unicode="&#x6b5;" horiz-adv-x="661" 
d="M575 1865l-212 -286h-23l-219 286h125l101 -154l96 154h132zM608 194h54v-194h-26q-85 1 -148 46t-91 120q-28 -77 -90.5 -121.5t-146.5 -44.5h-163v3l-37 29v130l37 28v4h115q59 0 97.5 39.5t38.5 98.5v1098h222v-1098q0 -59 39.5 -98.5t98.5 -39.5z" />
    <glyph glyph-name="uni06B5.fina" unicode="&#x6b5;" horiz-adv-x="1390" 
d="M1289 1917l-211 -287h-24l-219 287h126l100 -154l97 154h131zM1208 194h183v-194h-190q-33 -199 -194.5 -333t-368.5 -134q-163 0 -290 72.5t-194.5 194.5t-67.5 271v360h196v-335q0 -148 96.5 -250.5t259.5 -102.5q143 0 251.5 101t108.5 241l-1 1345h211v-1236z" />
    <glyph glyph-name="uni06B6.init" unicode="&#x6b6;" horiz-adv-x="591" 
d="M205 1886h202v-246h-202v246zM207 1430h221v-1430h-427v0h-3v2l-38 30v130l38 29v3h209v1236z" />
    <glyph glyph-name="uni06B6.medi" unicode="&#x6b6;" horiz-adv-x="661" 
d="M248 1887h201v-246h-201v246zM607 194h55v-194h-26q-85 1 -148 46t-91 120q-28 -77 -90.5 -121.5t-146.5 -44.5h-163v3l-37 29v130l37 28v4h115q59 0 97.5 39.5t38.5 98.5v1098h222v-1098q0 -59 39 -98.5t98 -39.5z" />
    <glyph glyph-name="uni06B6.fina" unicode="&#x6b6;" horiz-adv-x="1390" 
d="M1003 1769h201v-247h-201v247zM1208 194h183v-194h-190q-33 -199 -194.5 -333t-368.5 -134q-163 0 -290 72.5t-194.5 194.5t-67.5 271v360h196v-335q0 -148 96.5 -250.5t259.5 -102.5q143 0 251.5 101t108.5 241l-1 1345h211v-1236z" />
    <glyph glyph-name="uni06B7.init" unicode="&#x6b7;" horiz-adv-x="591" 
d="M204 2221h202v-247h-202v247zM39 1900h202v-247h-202v247zM382 1653v247h202v-247h-202zM-2 194h209v1236h222v-1430h-428v0h-3v2l-38 30v130l38 29v3z" />
    <glyph glyph-name="uni06B7.medi" unicode="&#x6b7;" horiz-adv-x="661" 
d="M247 2223h202v-248h-202v248zM82 1901h202v-247h-202v247zM626 1654h-202v247h202v-247zM607 194h55v-194h-26q-85 1 -148 46t-91 120q-28 -77 -90.5 -121.5t-146.5 -44.5h-163v3l-37 29v130l37 28v4h115q59 0 97.5 39.5t38.5 98.5v1098h222v-1098q0 -59 39 -98.5
t98 -39.5z" />
    <glyph glyph-name="uni06B7.fina" unicode="&#x6b7;" horiz-adv-x="1390" 
d="M1059 2372h202v-247h-202v247zM894 2051h202v-247h-202v247zM1237 1804v247h202v-247h-202zM997 1430h211v-1236h183v-194h-190q-33 -199 -194.5 -333t-368.5 -134q-163 0 -290 72.5t-194.5 194.5t-67.5 271v360h196v-335q0 -148 96.5 -250.5t259.5 -102.5
q143 0 251.5 101t108.5 241z" />
    <glyph glyph-name="uni06B8.init" unicode="&#x6b8;" horiz-adv-x="591" 
d="M1 0h-3v2l-38 30v130l38 29v3h209v1236h221v-1430h-427v0zM-54 -196h203v-247h-203v247zM289 -443v247h202v-247h-202zM314 -764h-202v247h202v-247z" />
    <glyph glyph-name="uni06B8.medi" unicode="&#x6b8;" horiz-adv-x="661" 
d="M607 194h55v-194h-26q-85 1 -148 46t-91 120q-28 -77 -90.5 -121.5t-146.5 -44.5h-163v3l-37 29v130l37 28v4h115q59 0 97.5 39.5t38.5 98.5v1098h222v-1098q0 -59 39 -98.5t98 -39.5zM100 -196h202v-247h-202v247zM645 -443h-202v247h202v-247zM467 -764h-202v247h202
v-247z" />
    <glyph glyph-name="uni06B8.fina" unicode="&#x6b8;" horiz-adv-x="1390" 
d="M1208 194h183v-194h-190q-33 -199 -194.5 -333t-368.5 -134q-163 0 -290 72.5t-194.5 194.5t-67.5 271v360h196v-335q0 -148 96.5 -250.5t259.5 -102.5q143 0 251.5 101t108.5 241l-1 1345h211v-1236zM355 -694h203v-247h-203v247zM900 -941h-202v247h202v-247z
M723 -1262h-203v247h203v-247z" />
    <glyph glyph-name="uni06B9.init" unicode="&#x6b9;" horiz-adv-x="638" 
d="M272 1373h202v-246h-202v246zM274 194v696h221v-890h-494v0h-3v2l-38 30v130l38 29v3h276zM389 -520h-201v246h201v-246z" />
    <glyph glyph-name="uni06B9.medi" unicode="&#x6b9;" horiz-adv-x="696" 
d="M250 1374h201v-246h-201v246zM611 194h85v-194h-57q-85 0 -147.5 45t-91.5 121q-28 -77 -90 -121.5t-147 -44.5h-164v2l-39 30v130l39 30v2h116q59 0 97.5 39.5t38.5 98.5v558h222v-558q0 -59 39 -98.5t99 -39.5zM479 -520h-201v246h201v-246z" />
    <glyph glyph-name="uni06B9.fina" unicode="&#x6b9;" horiz-adv-x="1343" 
d="M469 1037h201v-246h-201v246zM1187 194h156v-194h-165q-35 -217 -192 -342t-368 -125q-123 0 -229 42.5t-179.5 115t-115 171t-41.5 209.5v360h189v-331q0 -149 100 -253.5t264 -104.5q160 0 265.5 98.5t105.5 278.5l-1 743h211v-668zM744 -858h-201v246h201v-246z" />
    <glyph glyph-name="uni06BA.init" unicode="&#x6ba;" horiz-adv-x="638" 
d="M274 890h221v-890h-494v0h-3v2l-38 30v130l38 29v3h276v696z" />
    <glyph glyph-name="uni06BA.medi" unicode="&#x6ba;" horiz-adv-x="696" 
d="M611 194h85v-194h-57q-85 0 -147.5 45t-91.5 121q-28 -77 -90 -121.5t-147 -44.5h-164v2l-39 30v130l39 30v2h116q59 0 97.5 39.5t38.5 98.5v558h222v-558q0 -59 39 -98.5t99 -39.5z" />
    <glyph glyph-name="uni06BC.init" unicode="&#x6bc;" horiz-adv-x="638" 
d="M272 1373h202v-246h-202v246zM274 194v696h221v-890h-494v0h-3v2l-38 30v130l38 29v3h276zM290 -98q81 0 139 -57.5t58 -139.5q0 -81 -58 -138.5t-139 -57.5t-139 57.5t-58 138.5t57.5 139t139.5 58zM290 -392q40 0 68.5 28t28.5 69t-28.5 69.5t-68.5 28.5t-68.5 -28.5
t-28.5 -69.5t28.5 -69t68.5 -28z" />
    <glyph glyph-name="uni06BC.medi" unicode="&#x6bc;" horiz-adv-x="696" 
d="M250 1374h201v-246h-201v246zM611 194h85v-194h-57q-85 0 -147.5 45t-91.5 121q-28 -77 -90 -121.5t-147 -44.5h-164v2l-39 30v130l39 30v2h116q59 0 97.5 39.5t38.5 98.5v558h222v-558q0 -59 39 -98.5t99 -39.5zM380 -98q81 0 139 -57.5t58 -138.5q0 -82 -58 -139.5
t-139 -57.5t-139 57.5t-58 139.5q0 81 57.5 138.5t139.5 57.5zM380 -392q40 0 68.5 28.5t28.5 69.5q0 40 -28.5 68.5t-68.5 28.5t-68.5 -28.5t-28.5 -68.5q0 -41 28.5 -69.5t68.5 -28.5z" />
    <glyph glyph-name="uni06BC.fina" unicode="&#x6bc;" horiz-adv-x="1343" 
d="M469 1037h201v-246h-201v246zM1187 194h156v-194h-165q-30 -186 -151.5 -305.5t-294.5 -151.5q50 -24 80 -71.5t30 -104.5q0 -82 -58 -139.5t-139 -57.5t-139 57.5t-58 139.5q0 53 26.5 98.5t71.5 71.5q-219 24 -356 174.5t-137 359.5v360h189v-331q0 -149 100 -253.5
t264 -104.5q160 0 265.5 98.5t105.5 278.5l-1 743h211v-668zM645 -730q41 0 69 28t28 69t-28 69t-69 28t-69 -28t-28 -69t28 -69t69 -28z" />
    <glyph glyph-name="uni06BD.init" unicode="&#x6bd;" horiz-adv-x="638" 
d="M271 1708h202v-247h-202v247zM106 1387h202v-247h-202v247zM449 1140v247h202v-247h-202zM-2 194h276v696h221v-890h-494v0h-3v2l-38 30v130l38 29v3z" />
    <glyph glyph-name="uni06BD.medi" unicode="&#x6bd;" horiz-adv-x="696" 
d="M249 1709h202v-247h-202v247zM84 1388h202v-247h-202v247zM629 1141h-203v247h203v-247zM611 194h85v-194h-57q-85 0 -147.5 45t-91.5 121q-28 -77 -90 -121.5t-147 -44.5h-164v2l-39 30v130l39 30v2h116q59 0 97.5 39.5t38.5 98.5v558h222v-558q0 -59 39 -98.5t99 -39.5
z" />
    <glyph glyph-name="uni06BD.fina" unicode="&#x6bd;" horiz-adv-x="1343" 
d="M479 1766h202v-247h-202v247zM313 1444h203v-247h-203v247zM858 1197h-202v247h202v-247zM1187 194h156v-194h-165q-35 -217 -192 -342t-368 -125q-123 0 -229 42.5t-179.5 115t-115 171t-41.5 209.5v360h189v-331q0 -149 100 -253.5t264 -104.5q160 0 265.5 98.5
t105.5 278.5l-1 743h211v-668z" />
    <glyph glyph-name="uni06BF.init" unicode="&#x6bf;" horiz-adv-x="1353" 
d="M305 1345h201v-246h-201v246zM1196 193h33v-194h-113q-90 0 -133 22t-93 93q-121 -71 -199.5 -92t-213.5 -21h-441v-1l-1 1h-41v192h505q164 0 322 84l-202 323l-69 99h-384v193h412q85 0 127 -21.5t78 -81.5l333 -551q26 -45 80 -45zM210 -265h202v-247h-202v247z
M755 -512h-202v247h202v-247zM577 -834h-202v247h202v-247z" />
    <glyph glyph-name="uni06BF.medi" unicode="&#x6bf;" horiz-adv-x="1232" 
d="M312 1341h201v-246h-201v246zM1199 193h33v-193h-113h-29h-2q-72 3 -111 26t-84 88q-121 -71 -199.5 -92t-213.5 -21h-441v-1v1h-42l1 192h504q164 0 322 84l-201 323l-70 99h-384v193h412q85 0 127 -21.5t78 -81.5l334 -551q26 -45 79 -45zM231 -249h202v-247h-202v247z
M776 -496h-202v247h202v-247zM598 -818h-202v247h202v-247z" />
    <glyph glyph-name="uni06BF.fina" unicode="&#x6bf;" horiz-adv-x="1273" 
d="M451 1377h201v-246h-201v246zM1199 194h75v-194h-659q-119 0 -193.5 -72.5t-74.5 -168.5q0 -112 90 -178t237 -71v-174q-243 -3 -396 112.5t-153 322.5q0 177 125 299.5t306 122.5h377q-42 59 -44 274q-2 71 -30 126.5t-74 88t-100.5 49t-114.5 16.5q-139 0 -255 -79v173
q61 42 145 67.5t175 25.5q96 0 180.5 -28t151.5 -82.5t106 -143.5t39 -202q0 -44 0.5 -64.5t4.5 -62.5t12.5 -66t26 -50.5t43.5 -40.5zM608 -118h202v-247h-202v247zM1152 -365h-202v247h202v-247zM975 -686h-202v247h202v-247z" />
    <glyph glyph-name="uni06C2.init" unicode="&#x6c2;" horiz-adv-x="737" 
d="M335 1427l124 -114h152v-106h-444v106h104l-78 77q0 53 18 109.5t51 86.5q71 65 185 65h118v-106h-100q-55 0 -92.5 -33t-37.5 -85zM495 0h-494v0h-3v2l-38 30v130l38 29v2h275v697h222v-890zM373 -416q32 0 110 108l102 -69q-116 -178 -245 -178q-68 0 -106 36
q-34 29 -39 77.5t12 84.5l80 248l148 -1l-86 -258q-7 -21 -0.5 -34.5t24.5 -13.5z" />
    <glyph glyph-name="uni06C2.medi" unicode="&#x6c2;" horiz-adv-x="974" 
d="M681 793h152v-106h-444v106h104l-78 77q0 53 18 109t51 86q71 65 185 65h118v-106h-100q-55 0 -92.5 -33t-37.5 -85zM976 0h-201q-103 0 -143.5 -76t8 -180t175.5 -173l-69 -180q-527 215 -541 609h-203l-40 32v130l40 31v1h202v352h178v-523q0 -84 22 -149.5t73 -125.5
q-30 84 -17 164.5t51.5 143t102 100.5t133.5 38h229v-194z" />
    <glyph glyph-name="uni06C2.fina" unicode="&#x6c2;" horiz-adv-x="1210" 
d="M734 1324h151v-106h-444v106h104l-77 77q0 53 18 109t50 86q71 65 186 65h118v-105h-101q-55 0 -92 -33.5t-37 -85.5zM1147 194h66v-194h-93q-142 0 -233.5 91.5t-93.5 233.5v435v3h-206q-123 0 -184 -76.5t-61 -194.5q0 -110 56.5 -176.5t159.5 -66.5v-193
q-194 0 -316 124t-122 312q0 94 32 178t90.5 148t147.5 101t197 37h428v-453v-178q0 -56 38 -93.5t94 -37.5z" />
    <glyph glyph-name="uni06C3.fina" unicode="&#x6c3;" horiz-adv-x="1163" 
d="M329 1663h201v-246h-201v246zM670 1663h201v-246h-201v246zM1114 193h50v-193h-116q-107 0 -181 51.5t-100 142.5h-39q-41 -1 -199.5 -0.5t-184.5 0.5h-188h-36v193l168 421q15 38 31.5 65t43.5 55t69 43t97 15h225v136h222v-785q0 -59 36.5 -101.5t101.5 -42.5zM706 387
h48v400h-264l-160 -400h376z" />
    <glyph glyph-name="uni06C4.fina" unicode="&#x6c4;" horiz-adv-x="1116" 
d="M998 450l1 -256h118v-194h-118v-75q0 -180 -103 -309t-286 -176t-436 7v200q62 -14 103 -20q-2 14 -2 22q0 74 53 127t127 53q71 0 122.5 -48.5t56.5 -118.5q146 77 146 263v75h-238q-201 0 -334 130t-133 323q0 191 132.5 315t332.5 124q207 0 332.5 -123t125.5 -319z
M541 193h239l-1 259q0 110 -68 179t-171 69q-104 0 -175 -69.5t-71 -177.5q0 -110 71 -185t176 -75zM366 -351q0 -17 6 -32q96 -4 169 12q3 11 3 20q0 37 -26 63t-63 26t-63 -26t-26 -63z" />
    <glyph glyph-name="uniFBE1.fina" unicode="&#x6c5;" horiz-adv-x="1167" arabic-form="final" 
d="M998 450v-256h119v-194h-119v-81q0 -180 -102.5 -308.5t-285.5 -175.5t-436 7v199q246 -52 387.5 -13t192.5 156h-493v70h514q5 35 5 65v81h-238q-201 0 -334 130t-133 323q0 191 132.5 315t332.5 124q207 0 332.5 -123t125.5 -319zM541 193h239l-1 259q0 110 -68 179
t-171 69q-104 0 -175 -69.5t-71 -177.5q0 -110 71 -185t176 -75z" />
    <glyph glyph-name="uni06CA.fina" unicode="&#x6ca;" horiz-adv-x="1193" 
d="M313 1354h202v-246h-202v246zM655 1354h201v-246h-201v246zM1055 228v-34h139v-194h-140v-63q0 -53 -15.5 -101t-35 -84.5t-63 -72t-73 -58.5t-94 -49.5t-97 -40t-109.5 -35t-104.5 -28.5t-108.5 -26q-58 -14 -86 -21v199q21 5 64 16q80 19 122 30.5t112.5 33.5t109 43.5
t80.5 52t61 68.5t19 84v52h-222q-201 0 -334 130t-133 323q0 191 132.5 315t332.5 124h443v-442v-203v-19zM613 193h223l-1 258q0 45 0.5 123.5t0.5 125.5h-224q-104 0 -175 -69.5t-71 -177.5q0 -110 71 -185t176 -75z" />
    <glyph glyph-name="uni06CD.fina" unicode="&#x6cd;" horiz-adv-x="2390" 
d="M1604 194l275 -1v-193h-59q-60 -217 -267 -349t-494 -132q-337 0 -516 170t-180 480l-254 -92v232l272 85q7 49 25 130h163q-23 -101 -31 -191l63 -78l-68 -25v-13q0 -110 30.5 -198t93 -154.5t167 -102t245.5 -35.5q118 0 222.5 26t176 67.5t119.5 87.5t71 92h-492v193
h438v1z" />
    <glyph glyph-name="uni06CE.init" unicode="&#x6ce;" horiz-adv-x="638" 
d="M599 1351l-212 -287h-23l-219 287h126l100 -154l97 154h131zM495 0h-494v0h-3v2l-38 30v130l38 29v3h276v696h221v-890zM209 -519h-201v246h201v-246zM550 -519h-201v246h201v-246z" />
    <glyph glyph-name="uni06CE.medi" unicode="&#x6ce;" horiz-adv-x="696" 
d="M577 1352l-212 -287h-23l-219 287h126l100 -154l97 154h131zM611 194h85v-194h-57q-85 0 -147.5 45t-91.5 121q-28 -77 -90 -121.5t-147 -44.5h-164v2l-39 30v130l39 30v2h116q59 0 97.5 39.5t38.5 98.5v558h222v-558q0 -59 39 -98.5t99 -39.5zM299 -519h-201v246h201
v-246zM640 -519h-201v246h201v-246z" />
    <glyph glyph-name="uni06CE.fina" unicode="&#x6ce;" horiz-adv-x="1613" 
d="M962 770l-211 -286h-24l-219 286h126l101 -153l96 153h131zM1338 194h275v-194h-59q-60 -217 -267 -349t-494 -132q-338 0 -517.5 170.5t-179.5 480.5q0 164 43 355h163q-35 -153 -35 -308q0 -110 30 -198t93 -154.5t167 -102t245 -35.5q118 0 222.5 26t176 67.5
t119.5 87.5t71 92h-491v193h438v1z" />
    <glyph glyph-name="uni06CF.fina" unicode="&#x6cf;" horiz-adv-x="1193" 
d="M506 1323h201v-246h-201v246zM1055 228v-34h139v-194h-140v-63q0 -53 -15.5 -101t-35 -84.5t-63 -72t-73 -58.5t-94 -49.5t-97 -40t-109.5 -35t-104.5 -28.5t-108.5 -26q-58 -14 -86 -21v199q21 5 64 16q80 19 122 30.5t112.5 33.5t109 43.5t80.5 52t61 68.5t19 84v52
h-222q-201 0 -334 130t-133 323q0 191 132.5 315t332.5 124h443v-442v-203v-19zM613 193h223l-1 258q0 45 0.5 123.5t0.5 125.5h-224q-104 0 -175 -69.5t-71 -177.5q0 -110 71 -185t176 -75z" />
    <glyph glyph-name="uni06D1.init" unicode="&#x6d1;" horiz-adv-x="638" 
d="M495 0h-494v0h-3v2l-38 30v130l38 29v3h276v696h221v-890zM13 -265h202v-247h-202v247zM356 -512v247h202v-247h-202zM380 -833h-202v247h202v-247z" />
    <glyph glyph-name="uni06D1.medi" unicode="&#x6d1;" horiz-adv-x="696" 
d="M611 194h85v-194h-57q-85 0 -147.5 45t-91.5 121q-28 -77 -90 -121.5t-147 -44.5h-164v2l-39 30v130l39 30v2h116q59 0 97.5 39.5t38.5 98.5v558h222v-558q0 -59 39 -98.5t99 -39.5zM103 -265h202v-247h-202v247zM648 -512h-202v247h202v-247zM470 -833h-202v247h202
v-247z" />
    <glyph glyph-name="uni06D1.fina" unicode="&#x6d1;" horiz-adv-x="1613" 
d="M1338 194h275v-194h-59q-60 -217 -267 -349t-494 -132q-338 0 -517.5 170.5t-179.5 480.5q0 164 43 355h163q-35 -153 -35 -308q0 -110 30 -198t93 -154.5t167 -102t245 -35.5q118 0 222.5 26t176 67.5t119.5 87.5t71 92h-491v193h438v1zM521 -747h201v-246h-201v246z
M1063 -993h-201v246h201v-246zM902 -1384h-201v246h201v-246z" />
    <glyph glyph-name="uni06D5.fina" unicode="&#x6d5;" horiz-adv-x="1212" 
d="M1114 193h50v-193h-116q-107 0 -181 51.5t-100 142.5h-39q-41 -1 -199.5 -0.5t-184.5 0.5h-188h-36v193l168 421q15 38 31.5 65t43.5 55t69 43t97 15h225v136h222v-785q0 -59 36.5 -101.5t101.5 -42.5zM706 387h48v400h-264l-160 -400h376z" />
    <glyph glyph-name="uni06EE.fina" unicode="&#x6ee;" horiz-adv-x="1099" 
d="M667 1100l-111 162l-116 -162h-122l231 292h23l223 -292h-128zM1038 193h61v-193h-61v-1h-36h-188q-235 0 -413 1l-293 1l1 192h314h360l-160 404l-45 99h-282v199h258q105 0 172.5 -52.5t98.5 -126.5z" />
    <glyph glyph-name="uni06EF.fina" unicode="&#x6ef;" horiz-adv-x="647" 
d="M500 1121l-111 162l-116 -162h-122l231 292h23l223 -292h-128zM504 194h144v-194h-144v-33q0 -81 -17 -149t-43.5 -117.5t-72.5 -91.5t-91 -70t-112.5 -54t-123 -42.5t-136.5 -36.5v245q68 17 115.5 32t93 35t74.5 43.5t51.5 55t32.5 71.5t10 91v907h219v-692z" />
    <glyph glyph-name="uni06FA.init" unicode="&#x6fa;" horiz-adv-x="1650" 
d="M789 1709h202v-248h-202v248zM624 1387h202v-247h-202v247zM1169 1140h-203v247h203v-247zM1334 891h219v-891h-239q-211 0 -369 112q-39 -54 -101.5 -83t-137.5 -29q-76 0 -162 32.5t-162 96.5q-38 -61 -97.5 -95t-132.5 -34h-156v2l-37 30v130l37 29v2h3v0h82
q67 0 107.5 34.5t40.5 98.5v465h207v-455q0 -38 -6 -72q46 -36 101.5 -56.5t96.5 -20.5q72 0 120 41.5t48 112.5v450h203v-500q0 -17 -4 -49q88 -55 207 -55h132v704zM1004 -471h-201v246h201v-246z" />
    <glyph glyph-name="uni06FA.medi" unicode="&#x6fa;" horiz-adv-x="1740" 
d="M785 1709h202v-248h-202v248zM620 1387h202v-247h-202v247zM1164 1140h-202v247h202v-247zM1549 193h191v-193h-430q-211 0 -369 112q-39 -54 -101.5 -83t-137.5 -29q-76 0 -162 32.5t-162 96.5q-38 -61 -97.5 -95t-132.5 -34h-156v2l-37 30v130l37 29v2h3v0h81
q67 0 108 35t41 98v465h207v-455q0 -38 -6 -72q46 -36 101 -56.5t96 -20.5q72 0 120 41.5t48 112.5v450h203v-500q0 -25 -3 -49q88 -55 207 -55h132v704h219v-698zM1000 -471h-201v246h201v-246z" />
    <glyph glyph-name="uni06FA.fina" unicode="&#x6fa;" horiz-adv-x="2484" 
d="M1543 1708h203v-247h-203v247zM1378 1387h202v-247h-202v247zM1923 1140h-202v247h202v-247zM2343 194h142v-194h-381q-211 0 -369 112q-39 -54 -102 -83t-138 -29q-143 0 -279 94v-9q0 -149 -78.5 -277t-210 -201.5t-281.5 -73.5q-163 0 -293 72.5t-200.5 195
t-70.5 270.5v360h188v-331q0 -149 100.5 -253.5t264.5 -104.5q151 0 261 104t110 246l-1 707h211v-532q47 -38 103 -59t98 -21q72 0 120 41.5t48 112.5v450h203v-500q0 -25 -3 -49q88 -55 206 -55h132v704h220v-697zM1784 -386h-201v246h201v-246z" />
    <glyph glyph-name="uni06FB.init" unicode="&#x6fb;" horiz-adv-x="1568" 
d="M743 1373h202v-246h-202v246zM409 659l596 251q192 0 305.5 -138.5t113.5 -353.5v-418h-1188h-16h-246v2l-38 30v130l38 30v1h213v699h222v-233zM409 194h795v230q0 128 -67.5 195.5t-190.5 67.5l-537 -234v-259zM801 -447h-201v246h201v-246z" />
    <glyph glyph-name="uni06FB.medi" unicode="&#x6fb;" horiz-adv-x="1517" 
d="M737 1373h201v-246h-201v246zM1417 418v-224h100v-194h-196h-1091h-16h-246v2l-39 30v130l39 30v1h213v699h222v-233l596 251q192 0 305 -138t113 -354zM403 194h795v230q0 128 -67.5 195t-190.5 67l-537 -233v-259zM795 -447h-201v246h201v-246z" />
    <glyph glyph-name="uni06FB.fina" unicode="&#x6fb;" horiz-adv-x="2330" 
d="M1495 1373h201v-246h-201v246zM2214 418v-224h118v-194h-1149q-32 -199 -191.5 -333t-365.5 -134q-147 0 -272.5 66.5t-200.5 185.5t-75 265v371h196v-346q0 -140 104 -236t248 -96t253.5 101t109.5 241l-1 786h202v-216l606 255q192 0 305 -138t113 -354zM1197 194h797
v230q0 128 -67 195t-190 67l-540 -234v-258zM1692 -480h-202v246h202v-246z" />
    <glyph glyph-name="uni06FC.init" unicode="&#x6fc;" horiz-adv-x="1306" 
d="M536 1370h202v-246h-202v246zM647 193h528v-193h-1175v2l-39 30v130l39 30v2h288l-155 220q0 231 174 370q134 108 322 108h278v-173h-246q-130 0 -217.5 -76t-87.5 -199l108 -148q74 -103 183 -103zM645 -468h-201v246h201v-246z" />
    <glyph glyph-name="uni06FC.medi" unicode="&#x6fc;" horiz-adv-x="1177" 
d="M506 1346h201v-246h-201v246zM650 193h528v-193h-1175v2l-38 30v130l38 30v2h288l-155 220q0 231 175 371q133 107 322 107h277v-173h-246q-130 0 -217.5 -76t-87.5 -199l109 -148q74 -103 182 -103zM747 -468h-201v246h201v-246z" />
    <glyph glyph-name="uni06FC.fina" unicode="&#x6fc;" horiz-adv-x="1218" 
d="M578 1363h201v-246h-201v246zM1220 0h-643q-116 -3 -188.5 -74.5t-72.5 -166.5q0 -116 96.5 -182.5t250.5 -66.5h352v-176h-391q-242 0 -386 117t-144 320q0 131 72 236.5t190 153.5l-178 253q0 231 174 370q134 108 322 108h278v-173h-246q-130 0 -217.5 -76t-87.5 -199
l108 -148q74 -103 183 -103h528v-193zM883 -1100h-201v246h201v-246z" />
    <glyph glyph-name="uni06FF.init" unicode="&#x6ff;" horiz-adv-x="1533" 
d="M915 1104l-111 163l-116 -163h-123l231 292h23l223 -292h-127zM1290 694l193 -501v-193h-217h-414l-858 -1v15l-22 16v125l22 17l1 20h212q-63 102 -63 226q0 174 118.5 291t291.5 117h74l439 2q81 1 142 -40.5t81 -93.5zM867 193h7h386l-140 371q-20 55 -50 77t-81 22
l-122 -1v-11v-458zM552 193h126v237v231h-49h-1h-77q-95 0 -159 -63.5t-64 -164.5q0 -105 64 -172.5t160 -67.5z" />
    <glyph glyph-name="uni06FF.medi" unicode="&#x6ff;" horiz-adv-x="1613" 
d="M909 1104l-111 163l-116 -163h-122l231 292h23l223 -292h-128zM1478 193h137v-193h-137h-218h-413l-859 -1v14l-21 17v125l22 17v20h212q-62 101 -62 226q0 175 118 291.5t291 116.5h74l440 2q81 1 141.5 -40.5t80.5 -93.5zM861 193h8h385l-140 371q-20 55 -49.5 77
t-80.5 22l-123 -1q0 -2 0.5 -5.5t0.5 -5.5zM546 193h127v237v231h-50h-78q-95 0 -158.5 -63.5t-63.5 -164.5q0 -105 63.5 -172.5t159.5 -67.5z" />
    <glyph glyph-name="uni06FF.fina" unicode="&#x6ff;" horiz-adv-x="1533" 
d="M570 1182l-111 162l-116 -162h-122l231 291h23l223 -291h-128zM143 858l-1 31q109 63 226 90t221.5 20t199.5 -45.5t163.5 -102t109 -154.5t40.5 -197v-500h-517q-72 -188 -285.5 -277t-507.5 -39v159q217 -31 373.5 12t221.5 145h-188q-181 0 -304.5 126.5t-123.5 310.5
q0 167 105.5 284.5t266.5 136.5zM617 193h265v295q0 125 -68 213.5t-186 122.5t-260 5q114 -47 181.5 -150.5t67.5 -242.5v-243zM-45 452q0 -111 67 -184t169 -75h236v227h1v29q0 111 -66.5 179.5t-166.5 68.5q-103 0 -171.5 -68t-68.5 -177zM1324 0v194h210v-194h-210z" />
    <glyph glyph-name="uniFB51" unicode="&#x671;" horiz-adv-x="505" arabic-form="final" 
d="M405 1498v-147h-376v3h-12v-3h-77v79h67l-3 231h88l2 -95q80 106 164 106q68 0 107.5 -49t39.5 -125zM234 1586q-43 0 -82.5 -40.5t-52.5 -69.5v-46h217v68q0 41 -21.5 64.5t-60.5 23.5zM455 193h50v-193h-117q-135 0 -214 79.5t-79 214.5v886h221v-843q0 -59 37 -101.5
t102 -42.5z" />
    <glyph glyph-name="uniFB52" unicode="&#x67b;" horiz-adv-x="1716" arabic-form="isolated" 
d="M81 454v306h205v-295q0 -118 85 -195t204 -77h836v698h207v-891h-1058q-206 0 -342.5 128.5t-136.5 325.5zM941 -421q-48 0 -82 33.5t-34 80.5q0 46 34 78.5t82 32.5q46 0 78 -32.5t32 -78.5q0 -47 -32 -80.5t-78 -33.5zM941 -711q-48 0 -82 33.5t-34 80.5q0 46 34 78.5
t82 32.5q46 0 78 -32.5t32 -78.5q0 -47 -32 -80.5t-78 -33.5z" />
    <glyph glyph-name="uniFB53" unicode="&#x67b;" horiz-adv-x="1855" arabic-form="final" 
d="M1312 0l-752 -1q-206 0 -342.5 128t-136.5 325v307h205v-295q0 -118 84.5 -194.5t204.5 -76.5l688 1q59 0 97.5 39.5t38.5 99.5v557h223v-558q0 -60 38.5 -99t98.5 -39h96v-194h-67q-79 0 -140.5 38.5t-98.5 106.5q-36 -69 -97 -107t-140 -38zM814 -466q-48 0 -82 33.5
t-34 80.5q0 46 34 78.5t82 32.5q46 0 78.5 -32.5t32.5 -78.5q0 -47 -32.5 -80.5t-78.5 -33.5zM814 -756q-48 0 -82 33.5t-34 80.5q0 46 34 78.5t82 32.5q46 0 78.5 -32.5t32.5 -78.5q0 -47 -32.5 -80.5t-78.5 -33.5z" />
    <glyph glyph-name="uniFB54" unicode="&#x67b;" horiz-adv-x="638" arabic-form="initial" 
d="M274 194v696h221v-890h-494v0h-3v2l-38 30v130l38 29v3h276zM290 -241q46 0 78.5 -32.5t32.5 -78.5q0 -47 -32.5 -80.5t-78.5 -33.5q-48 0 -82 33.5t-34 80.5q0 46 34 78.5t82 32.5zM290 -531q46 0 78.5 -32.5t32.5 -78.5q0 -47 -32.5 -80.5t-78.5 -33.5q-48 0 -82 33.5
t-34 80.5q0 46 34 78.5t82 32.5z" />
    <glyph glyph-name="uniFB55" unicode="&#x67b;" horiz-adv-x="696" arabic-form="medial" 
d="M611 194h85v-194h-57q-85 0 -147.5 45t-91.5 121q-28 -77 -90 -121.5t-147 -44.5h-164v2l-39 30v130l39 30v2h116q59 0 97.5 39.5t38.5 98.5v558h222v-558q0 -59 39 -98.5t99 -39.5zM380 -241q46 0 78.5 -32.5t32.5 -78.5q0 -47 -32.5 -80.5t-78.5 -33.5q-48 0 -82 33.5
t-34 80.5q0 46 34 78.5t82 32.5zM380 -531q46 0 78.5 -32.5t32.5 -78.5q0 -47 -32.5 -80.5t-78.5 -33.5q-48 0 -82 33.5t-34 80.5q0 46 34 78.5t82 32.5z" />
    <glyph glyph-name="uniFB56" unicode="&#x67e;" horiz-adv-x="1716" arabic-form="isolated" 
d="M81 454v306h205v-295q0 -118 85 -195t204 -77h836v698h207v-891h-1058q-206 0 -342.5 128.5t-136.5 325.5zM664 -467v247h202v-247h-202zM1006 -467v247h203v-247h-203zM829 -788v247h202v-247h-202z" />
    <glyph glyph-name="uniFB57" unicode="&#x67e;" horiz-adv-x="1855" arabic-form="final" 
d="M1312 0l-752 -1q-206 0 -342.5 128t-136.5 325v307h205v-295q0 -118 84.5 -194.5t204.5 -76.5l688 1q59 0 97.5 39.5t38.5 99.5v557h223v-558q0 -60 38.5 -99t98.5 -39h96v-194h-67q-79 0 -140.5 38.5t-98.5 106.5q-36 -69 -97 -107t-140 -38zM537 -512v247h202v-247
h-202zM880 -512v247h202v-247h-202zM702 -833v247h203v-247h-203z" />
    <glyph glyph-name="uniFB58" unicode="&#x67e;" horiz-adv-x="638" arabic-form="initial" 
d="M495 0h-494v0h-3v2l-38 30v130l38 29v3h276v696h221v-890zM13 -265h202v-247h-202v247zM356 -512v247h202v-247h-202zM380 -833h-202v247h202v-247z" />
    <glyph glyph-name="uniFB59" unicode="&#x67e;" horiz-adv-x="696" arabic-form="medial" 
d="M611 194h85v-194h-57q-85 0 -147.5 45t-91.5 121q-28 -77 -90 -121.5t-147 -44.5h-164v2l-39 30v130l39 30v2h116q59 0 97.5 39.5t38.5 98.5v558h222v-558q0 -59 39 -98.5t99 -39.5zM103 -265h202v-247h-202v247zM648 -512h-202v247h202v-247zM470 -833h-202v247h202
v-247z" />
    <glyph glyph-name="uniFB5A" unicode="&#x680;" horiz-adv-x="1716" arabic-form="isolated" 
d="M81 454v306h205v-295q0 -118 85 -195t204 -77h836v698h207v-891h-1058q-206 0 -342.5 128.5t-136.5 325.5zM809 -454q-47 0 -80 32.5t-33 78.5q0 44 33 76t80 32q44 0 76 -32t32 -76q0 -46 -32 -78.5t-76 -32.5zM1077 -454q-47 0 -79.5 32.5t-32.5 78.5q0 45 32.5 76.5
t79.5 31.5q44 0 76 -32t32 -76q0 -46 -32 -78.5t-76 -32.5zM809 -722q-47 0 -80 32.5t-33 78.5q0 44 33 76t80 32q44 0 76 -32t32 -76q0 -46 -32 -78.5t-76 -32.5zM1077 -722q-47 0 -79.5 32.5t-32.5 78.5q0 45 32.5 76.5t79.5 31.5q44 0 76 -32t32 -76q0 -46 -32 -78.5
t-76 -32.5z" />
    <glyph glyph-name="uniFB5B" unicode="&#x680;" horiz-adv-x="1855" arabic-form="final" 
d="M1312 0l-752 -1q-206 0 -342.5 128t-136.5 325v307h205v-295q0 -118 84.5 -194.5t204.5 -76.5l688 1q59 0 97.5 39.5t38.5 99.5v557h223v-558q0 -60 38.5 -99t98.5 -39h96v-194h-67q-79 0 -140.5 38.5t-98.5 106.5q-36 -69 -97 -107t-140 -38zM682 -498q-47 0 -79.5 32.5
t-32.5 78.5q0 45 32.5 76.5t79.5 31.5q44 0 76 -32t32 -76q0 -46 -32 -78.5t-76 -32.5zM951 -498q-47 0 -80 32.5t-33 78.5q0 44 33 76t80 32q44 0 76 -32t32 -76q0 -46 -32 -78.5t-76 -32.5zM682 -767q-47 0 -79.5 32.5t-32.5 78.5q0 45 32.5 76.5t79.5 31.5q44 0 76 -32
t32 -76q0 -46 -32 -78.5t-76 -32.5zM951 -767q-47 0 -80 32.5t-33 78.5q0 44 33 76t80 32q44 0 76 -32t32 -76q0 -46 -32 -78.5t-76 -32.5z" />
    <glyph glyph-name="uniFB5C" unicode="&#x680;" horiz-adv-x="638" arabic-form="initial" 
d="M495 0h-494v0h-3v2l-38 30v130l38 29v3h276v696h221v-890zM158 -279q44 0 76 -32t32 -76q0 -46 -32 -78.5t-76 -32.5q-47 0 -79.5 32.5t-32.5 78.5q0 45 32.5 76.5t79.5 31.5zM314 -387q0 44 33 76t80 32q44 0 75.5 -32t31.5 -76q0 -46 -31.5 -78.5t-75.5 -32.5
q-47 0 -80 32.5t-33 78.5zM158 -548q44 0 76 -32t32 -76q0 -46 -32 -78.5t-76 -32.5q-47 0 -79.5 32.5t-32.5 78.5q0 45 32.5 76.5t79.5 31.5zM427 -548q44 0 75.5 -32t31.5 -76q0 -46 -31.5 -78.5t-75.5 -32.5q-47 0 -80 32.5t-33 78.5q0 44 33 76t80 32z" />
    <glyph glyph-name="uniFB5D" unicode="&#x680;" horiz-adv-x="696" arabic-form="medial" 
d="M611 194h85v-194h-57q-85 0 -147.5 45t-91.5 121q-28 -77 -90 -121.5t-147 -44.5h-164v2l-39 30v130l39 30v2h116q59 0 97.5 39.5t38.5 98.5v558h222v-558q0 -59 39 -98.5t99 -39.5zM248 -279q44 0 76 -32t32 -76q0 -46 -32 -78.5t-76 -32.5q-47 0 -79.5 32.5t-32.5 78.5
q0 45 32.5 76.5t79.5 31.5zM517 -279q44 0 75.5 -32t31.5 -76q0 -46 -31.5 -78.5t-75.5 -32.5q-47 0 -80 32.5t-33 78.5q0 44 33 76t80 32zM248 -548q44 0 76 -31.5t32 -75.5q0 -46 -32 -79t-76 -33q-47 0 -79.5 33t-32.5 79q0 44 32.5 75.5t79.5 31.5zM517 -548
q44 0 75.5 -31.5t31.5 -75.5q0 -46 -31.5 -79t-75.5 -33q-47 0 -80 33t-33 79q0 44 33 75.5t80 31.5z" />
    <glyph glyph-name="uniFB5E" unicode="&#x67a;" horiz-adv-x="1716" arabic-form="isolated" 
d="M847 1211q-45 0 -76.5 31t-31.5 75q0 43 31.5 73t76.5 30q43 0 73 -30t30 -73q0 -44 -30 -75t-73 -31zM847 944q-45 0 -76.5 31t-31.5 75q0 43 31.5 73t76.5 30q43 0 73 -30t30 -73q0 -44 -30 -75t-73 -31zM81 454v306h205v-295q0 -118 85 -195t204 -77h836v698h207v-891
h-1058q-206 0 -342.5 128.5t-136.5 325.5z" />
    <glyph glyph-name="uniFB5F" unicode="&#x67a;" horiz-adv-x="1855" arabic-form="final" 
d="M779 1277q-45 0 -76 31t-31 75q0 43 31 73t76 30q43 0 73.5 -30t30.5 -73q0 -44 -30.5 -75t-73.5 -31zM779 1010q-45 0 -76 31t-31 75q0 43 31 73.5t76 30.5q43 0 73.5 -30.5t30.5 -73.5q0 -44 -30.5 -75t-73.5 -31zM1312 0l-752 -1q-206 0 -342.5 128t-136.5 325v307
h205v-295q0 -118 84.5 -194.5t204.5 -76.5l688 1q59 0 97.5 39.5t38.5 99.5v557h223v-558q0 -60 38.5 -99t98.5 -39h96v-194h-67q-79 0 -140.5 38t-98.5 106q-36 -69 -97 -106.5t-140 -37.5z" />
    <glyph glyph-name="uniFB60" unicode="&#x67a;" horiz-adv-x="638" arabic-form="initial" 
d="M374 1418q-45 0 -76.5 31t-31.5 75q0 43 31.5 73.5t76.5 30.5q43 0 73 -30.5t30 -73.5q0 -44 -30 -75t-73 -31zM374 1151q-45 0 -76.5 31t-31.5 75q0 43 31.5 73.5t76.5 30.5q43 0 73 -30.5t30 -73.5q0 -44 -30 -75t-73 -31zM274 890h221v-890h-494v0h-3v2l-38 30v130
l38 29v3h276v696z" />
    <glyph glyph-name="uniFB61" unicode="&#x67a;" horiz-adv-x="696" arabic-form="medial" 
d="M352 1419q-45 0 -76.5 31.5t-31.5 75.5q0 43 31.5 73t76.5 30q43 0 73 -30t30 -73q0 -44 -30 -75.5t-73 -31.5zM352 1152q-45 0 -76.5 31.5t-31.5 75.5q0 43 31.5 73t76.5 30q43 0 73 -30t30 -73q0 -44 -30 -75.5t-73 -31.5zM611 194h85v-194h-57q-85 0 -147.5 45
t-91.5 121q-28 -77 -90 -121.5t-147 -44.5h-164v2l-39 30v130l39 30v2h116q59 0 97.5 39.5t38.5 98.5v558h222v-558q0 -59 39 -98.5t99 -39.5z" />
    <glyph glyph-name="uniFB62" unicode="&#x67f;" horiz-adv-x="1716" arabic-form="isolated" 
d="M711 1178q-46 0 -78 32t-32 76t32 74.5t78 30.5q43 0 74 -30.5t31 -74.5t-31 -76t-74 -32zM983 1178q-46 0 -78 32t-32 76t32 74.5t78 30.5q43 0 74 -30.5t31 -74.5t-31 -76t-74 -32zM711 913q-46 0 -78 32t-32 76t32 74.5t78 30.5q43 0 74 -31t31 -74q0 -44 -31 -76
t-74 -32zM983 913q-46 0 -78 32t-32 76t32 74.5t78 30.5q43 0 74 -31t31 -74q0 -44 -31 -76t-74 -32zM81 454v306h205v-295q0 -118 85 -195t204 -77h836v698h207v-891h-1058q-206 0 -342.5 128.5t-136.5 325.5z" />
    <glyph glyph-name="uniFB63" unicode="&#x67f;" horiz-adv-x="1855" arabic-form="final" 
d="M644 1244q-46 0 -78 32t-32 76t32 74.5t78 30.5q44 0 74.5 -30.5t30.5 -74.5t-31 -76t-74 -32zM916 1244q-46 0 -78 32t-32 76t32 74.5t78 30.5q44 0 74.5 -30.5t30.5 -74.5t-31 -76t-74 -32zM644 980q-46 0 -78 32t-32 76t32 74.5t78 30.5q44 0 74.5 -30.5t30.5 -74.5
t-31 -76t-74 -32zM916 980q-46 0 -78 32t-32 76t32 74.5t78 30.5q44 0 74.5 -30.5t30.5 -74.5t-31 -76t-74 -32zM1312 0l-752 -1q-206 0 -342.5 128t-136.5 325v307h205v-295q0 -118 84.5 -194.5t204.5 -76.5l688 1q59 0 97.5 39.5t38.5 99.5v557h223v-558q0 -60 38.5 -99
t98.5 -39h96v-194h-67q-79 0 -140.5 38.5t-98.5 106.5q-36 -69 -97 -107t-140 -38z" />
    <glyph glyph-name="uniFB64" unicode="&#x67f;" horiz-adv-x="638" arabic-form="initial" 
d="M238 1385q-46 0 -77.5 31.5t-31.5 76.5q0 44 31.5 74.5t77.5 30.5q44 0 74.5 -31t30.5 -74q0 -44 -31 -76t-74 -32zM510 1385q-46 0 -77.5 31.5t-31.5 76.5q0 44 31.5 74.5t77.5 30.5q44 0 74.5 -31t30.5 -74q0 -44 -31 -76t-74 -32zM238 1121q-46 0 -77.5 31.5
t-31.5 76.5q0 44 31.5 74.5t77.5 30.5q44 0 74.5 -31t30.5 -74q0 -44 -31 -76t-74 -32zM510 1334q44 0 74.5 -31t30.5 -74q0 -44 -31 -76t-74 -32q-46 0 -77.5 31.5t-31.5 76.5q0 44 31.5 74.5t77.5 30.5zM-2 194h276v696h221v-890h-494v0h-3v2l-38 30v130l38 29v3z" />
    <glyph glyph-name="uniFB65" unicode="&#x67f;" horiz-adv-x="696" arabic-form="medial" 
d="M216 1386q-46 0 -77.5 32t-31.5 76t31.5 74.5t77.5 30.5q44 0 74.5 -30.5t30.5 -74.5t-31 -76t-74 -32zM488 1386q-46 0 -77.5 32t-31.5 76t31.5 74.5t77.5 30.5q44 0 74.5 -30.5t30.5 -74.5t-31 -76t-74 -32zM216 1122q-46 0 -77.5 32t-31.5 76t31.5 74.5t77.5 30.5
q44 0 74.5 -30.5t30.5 -74.5t-31 -76t-74 -32zM488 1122q-46 0 -77.5 32t-31.5 76t31.5 74.5t77.5 30.5q44 0 74.5 -30.5t30.5 -74.5t-31 -76t-74 -32zM611 194h85v-194h-57q-85 0 -147.5 45t-91.5 121q-28 -77 -90 -121.5t-147 -44.5h-164v2l-39 30v130l39 30v2h116
q59 0 97.5 39.5t38.5 98.5v558h222v-558q0 -59 39 -98.5t99 -39.5z" />
    <glyph glyph-name="uniFB66" unicode="&#x679;" horiz-adv-x="1716" arabic-form="isolated" 
d="M694 933h-20v-1h-112v99h105v379h113v-238q70 81 146 81q69 0 110 -51.5t41 -129.5v-140h-383v1zM896 1146q-35 0 -67.5 -29t-46.5 -57v-28h182v42q0 72 -68 72zM1411 891h207v-891h-1058q-206 0 -342.5 128.5t-136.5 325.5v306h205v-295q0 -118 85 -195t204 -77h836v698
z" />
    <glyph glyph-name="uniFB67" unicode="&#x679;" horiz-adv-x="1855" arabic-form="final" 
d="M626 999h-19v-1h-112v100h104v378h114v-237q70 81 146 81q69 0 110 -52t41 -130v-140h-384v1zM828 1212q-35 0 -67.5 -29t-46.5 -57v-28h183v42q0 34 -18 53t-51 19zM1759 194h96v-194h-67q-79 0 -140.5 38.5t-98.5 106.5q-36 -69 -97 -107t-140 -38l-752 -1
q-206 0 -342.5 128t-136.5 325v307h205v-295q0 -118 84.5 -194.5t204.5 -76.5l688 1q59 0 97.5 39.5t38.5 99.5v557h223v-558q0 -60 38.5 -99t98.5 -39z" />
    <glyph glyph-name="uniFB68" unicode="&#x679;" horiz-adv-x="638" arabic-form="initial" 
d="M454 1461q69 0 109.5 -52t40.5 -130v-140h-383v2h-20v-2h-112v100h105v379h113v-238q70 81 147 81zM309 1239h182v42q0 72 -68 72q-35 0 -67.5 -29t-46.5 -57v-28zM-2 194h276v696h221v-890h-494v0h-3v2l-38 30v130l38 29v3z" />
    <glyph glyph-name="uniFB69" unicode="&#x679;" horiz-adv-x="696" arabic-form="medial" 
d="M199 1142h-20v-2h-112v100h105v379h113v-238q70 81 147 81q69 0 109.5 -52t40.5 -130v-140h-383v2zM401 1354q-35 0 -67.5 -29t-46.5 -56v-29h182v42q0 72 -68 72zM611 194h85v-194h-57q-85 0 -147.5 45t-91.5 121q-28 -77 -90 -121.5t-147 -44.5h-164v2l-39 30v130
l39 30v2h116q59 0 97.5 39.5t38.5 98.5v558h222v-558q0 -59 39 -98.5t99 -39.5z" />
    <glyph glyph-name="uniFB6B" unicode="&#x6a4;" horiz-adv-x="2033" arabic-form="final" 
d="M1325 1708h202v-247h-202v247zM1160 1387h202v-247h-202v247zM1705 1140h-203v247h203v-247zM1849 450v-256h185v-194h-582v-1l-936 1q-206 0 -342.5 128t-136.5 325v305h206v-293q0 -118 84.5 -194.5t203.5 -76.5h489q-79 115 -79 259q0 191 132.5 315t332.5 124h443
v-442zM1406 700q-105 0 -175.5 -69.5t-70.5 -177.5q0 -107 67.5 -180.5t168.5 -78.5h56h178v258v248h-224z" />
    <glyph glyph-name="uniFB6C" unicode="&#x6a4;" horiz-adv-x="1189" arabic-form="initial" 
d="M497 1708h202v-247h-202v247zM332 1387h202v-247h-202v247zM877 1140h-203v247h203v-247zM589 892h443v-442v-450h-435v-1l-599 1v2l-39 30v130l39 30v2h205q-79 115 -79 259q0 191 132.5 315t332.5 124zM597 194v-1h216v259v248h-224q-105 0 -175.5 -69.5t-70.5 -177.5
q0 -107 67.5 -180.5t168.5 -78.5h18z" />
    <glyph glyph-name="uniFB6D" unicode="&#x6a4;" horiz-adv-x="1165" arabic-form="medial" 
d="M480 1708h202v-247h-202v247zM315 1387h202v-247h-202v247zM860 1140h-203v247h203v-247zM1025 193h143v-193h-583h-17h-569v1l-40 31v130l40 31h1v0h197q-79 113 -79 260q0 191 132 315t332 124h443v-442v-257zM583 700q-104 0 -175.5 -69.5t-71.5 -177.5
q0 -110 71.5 -185t176.5 -75h222v259v248h-223z" />
    <glyph glyph-name="uniFB6E" unicode="&#x6a6;" horiz-adv-x="2013" arabic-form="isolated" 
d="M1282 1343q-46 0 -78 32t-32 76t32 74.5t78 30.5q44 0 74.5 -31t30.5 -74q0 -44 -31 -76t-74 -32zM1554 1343q-46 0 -78 32t-32 76t32 74.5t78 30.5q44 0 74.5 -31t30.5 -74q0 -44 -31 -76t-74 -32zM1282 1079q-46 0 -78 32t-32 76t32 74.5t78 30.5q44 0 74.5 -31
t30.5 -74q0 -44 -31 -76t-74 -32zM1554 1079q-46 0 -78 32t-32 76t32 74.5t78 30.5q44 0 74.5 -31t30.5 -74q0 -44 -31 -76t-74 -32zM1450 892h443v-442v-450h-397v-1l-936 1q-206 0 -342.5 128t-136.5 325v305h205v-293q0 -118 84.5 -194.5t204.5 -76.5h489
q-79 115 -79 259q0 191 132.5 315t332.5 124zM1496 194v-1h178v258v249h-224q-104 0 -175 -69.5t-71 -177.5q0 -107 67.5 -180.5t168.5 -78.5h56z" />
    <glyph glyph-name="uniFB6F" unicode="&#x6a6;" horiz-adv-x="2033" arabic-form="final" 
d="M1292 1385q-46 0 -78 32t-32 76t32 74.5t78 30.5q44 0 74.5 -31t30.5 -74q0 -44 -31 -76t-74 -32zM1564 1385q-46 0 -78 32t-32 76t32 74.5t78 30.5q44 0 74.5 -31t30.5 -74q0 -44 -31 -76t-74 -32zM1292 1121q-46 0 -78 32t-32 76t32 74.5t78 30.5q44 0 74.5 -31
t30.5 -74q0 -44 -31 -76t-74 -32zM1564 1121q-46 0 -78 32t-32 76t32 74.5t78 30.5q44 0 74.5 -31t30.5 -74q0 -44 -31 -76t-74 -32zM1849 450v-256h185v-194h-582v-1l-936 1q-206 0 -342.5 128t-136.5 325v305h206v-293q0 -118 84.5 -194.5t203.5 -76.5h489
q-79 115 -79 259q0 191 132.5 315t332.5 124h443v-442zM1407 700q-105 0 -176 -69.5t-71 -177.5q0 -107 67.5 -180.5t168.5 -78.5h56h178v258v248h-223z" />
    <glyph glyph-name="uniFB70" unicode="&#x6a6;" horiz-adv-x="1189" arabic-form="initial" 
d="M464 1385q-46 0 -78 32t-32 76t32 74.5t78 30.5q44 0 74.5 -31t30.5 -74q0 -44 -31 -76t-74 -32zM736 1385q-46 0 -78 32t-32 76t32 74.5t78 30.5q44 0 74.5 -31t30.5 -74q0 -44 -31 -76t-74 -32zM464 1121q-46 0 -78 32t-32 76t32 74.5t78 30.5q44 0 74.5 -31t30.5 -74
q0 -44 -31 -76t-74 -32zM736 1121q-46 0 -78 32t-32 76t32 74.5t78 30.5q44 0 74.5 -31t30.5 -74q0 -44 -31 -76t-74 -32zM589 892h443v-442v-450h-435v-1l-599 1v2l-39 30v130l39 30v2h205q-79 115 -79 259q0 191 132.5 315t332.5 124zM597 194v-1h216v259v248h-224
q-105 0 -175.5 -69.5t-70.5 -177.5q0 -107 67.5 -180.5t168.5 -78.5h18z" />
    <glyph glyph-name="uniFB71" unicode="&#x6a6;" horiz-adv-x="1165" arabic-form="medial" 
d="M447 1385q-45 0 -77 31.5t-32 76.5q0 44 31.5 74.5t77.5 30.5q43 0 74 -31t31 -74q0 -44 -31 -76t-74 -32zM719 1385q-45 0 -77 31.5t-32 76.5q0 44 31.5 74.5t77.5 30.5q43 0 74 -31t31 -74q0 -44 -31 -76t-74 -32zM447 1121q-45 0 -77 31.5t-32 76.5q0 44 31.5 74.5
t77.5 30.5q43 0 74 -31t31 -74q0 -44 -31 -76t-74 -32zM719 1121q-45 0 -77 31.5t-32 76.5q0 44 31.5 74.5t77.5 30.5q43 0 74 -31t31 -74q0 -44 -31 -76t-74 -32zM1025 193h143v-193h-583h-17h-569v1l-40 31v130l40 31h1v0h197q-79 113 -79 260q0 191 132 315t332 124h443
v-442v-257zM583 700q-104 0 -175.5 -69.5t-71.5 -177.5q0 -110 71.5 -185t176.5 -75h222v259v248h-223z" />
    <glyph glyph-name="uniFB73" unicode="&#x684;" horiz-adv-x="1273" arabic-form="final" 
d="M1199 194h76v-194h-660q-119 0 -193.5 -72.5t-74.5 -168.5q0 -112 90 -178t237 -71v-174q-243 -3 -396 112.5t-153 322.5q0 177 125 299.5t306 122.5h377q-42 59 -44 274q-2 71 -30 126.5t-74 88t-100.5 49t-114.5 16.5q-139 0 -255 -79v173q61 42 145 67.5t175 25.5
q96 0 180.5 -28t151.5 -82.5t106 -143.5t39 -202q0 -44 0.5 -64.5t4.5 -62.5t12.5 -66t26 -50.5t43.5 -40.5zM1046 -127q46 0 78.5 -32.5t32.5 -78.5q0 -47 -32.5 -80.5t-78.5 -33.5q-48 0 -82 33.5t-34 80.5q0 46 34 78.5t82 32.5zM1046 -417q46 0 78.5 -32.5t32.5 -78.5
q0 -47 -32.5 -80.5t-78.5 -33.5q-48 0 -82 33.5t-34 80.5q0 46 34 78.5t82 32.5z" />
    <glyph glyph-name="uniFB74" unicode="&#x684;" horiz-adv-x="1353" arabic-form="initial" 
d="M1196 193h33v-194h-113q-90 0 -133 22t-93 93q-121 -71 -199.5 -92t-213.5 -21h-441v-1l-1 1h-41v192h505q164 0 322 84l-202 323l-69 99h-384v193h412q85 0 127 -21.5t78 -81.5l333 -551q26 -45 80 -45zM487 -242q46 0 78.5 -32.5t32.5 -78.5q0 -47 -32.5 -80.5
t-78.5 -33.5q-48 0 -82 33.5t-34 80.5q0 46 34 78.5t82 32.5zM487 -532q46 0 78.5 -32.5t32.5 -78.5q0 -47 -32.5 -80.5t-78.5 -33.5q-48 0 -82 33.5t-34 80.5q0 46 34 78.5t82 32.5z" />
    <glyph glyph-name="uniFB75" unicode="&#x684;" horiz-adv-x="1232" arabic-form="medial" 
d="M1199 193h33v-193h-113h-29h-2q-72 3 -111 26t-84 88q-121 -71 -199.5 -92t-213.5 -21h-441v-1v1h-42l1 192h504q164 0 322 84l-201 323l-70 99h-384v193h412q85 0 127 -21.5t78 -81.5l334 -551q26 -45 79 -45zM508 -226q46 0 78.5 -32t32.5 -78q0 -47 -32.5 -81
t-78.5 -34q-48 0 -82 34t-34 81q0 46 34 78t82 32zM508 -516q46 0 78.5 -32t32.5 -78q0 -47 -32.5 -81t-78.5 -34q-48 0 -82 34t-34 81q0 46 34 78t82 32z" />
    <glyph glyph-name="uniFB77" unicode="&#x683;" horiz-adv-x="1273" arabic-form="final" 
d="M347 -241q0 -112 90 -178t237 -71v-174q-243 -3 -396 112.5t-153 322.5q0 177 125 299.5t306 122.5h377q-42 59 -44 274q-2 71 -30 126.5t-74 88t-100.5 49t-114.5 16.5q-139 0 -255 -79v173q61 42 145 67.5t175 25.5q96 0 180.5 -28t151.5 -82.5t106 -143.5t39 -202
q0 -44 0.5 -64.5t4.5 -62.5t12.5 -66t26 -50.5t43.5 -40.5h76v-194h-660q-119 0 -193.5 -72.5t-74.5 -168.5zM936 -369h-201v246h201v-246zM1076 -369v246h201v-246h-201z" />
    <glyph glyph-name="uniFB78" unicode="&#x683;" horiz-adv-x="1353" arabic-form="initial" 
d="M1196 193h33v-194h-113q-90 0 -133 22t-93 93q-121 -71 -199.5 -92t-213.5 -21h-441v-1l-1 1h-41v192h505q164 0 322 84l-202 323l-69 99h-384v193h412q85 0 127 -21.5t78 -81.5l333 -551q26 -45 80 -45zM406 -520h-201v246h201v-246zM747 -520h-201v246h201v-246z" />
    <glyph glyph-name="uniFB79" unicode="&#x683;" horiz-adv-x="1232" arabic-form="medial" 
d="M1199 193h33v-193h-113h-29h-2q-72 3 -111 26t-84 88q-121 -71 -199.5 -92t-213.5 -21h-441v-1v1h-42l1 192h504q164 0 322 84l-201 323l-70 99h-384v193h412q85 0 127 -21.5t78 -81.5l334 -551q26 -45 79 -45zM427 -504h-202v246h202v-246zM768 -504h-201v246h201v-246z
" />
    <glyph glyph-name="uniFB7B" unicode="&#x686;" horiz-adv-x="1273" arabic-form="final" 
d="M1199 194h76v-194h-660q-119 0 -193.5 -72.5t-74.5 -168.5q0 -112 90 -178t237 -71v-174q-243 -3 -396 112.5t-153 322.5q0 177 125 299.5t306 122.5h377q-42 59 -44 274q-2 71 -30 126.5t-74 88t-100.5 49t-114.5 16.5q-139 0 -255 -79v173q61 42 145 67.5t175 25.5
q96 0 180.5 -28t151.5 -82.5t106 -143.5t39 -202q0 -44 0.5 -64.5t4.5 -62.5t12.5 -66t26 -50.5t43.5 -40.5zM608 -118h202v-247h-202v247zM1152 -365h-202v247h202v-247zM975 -686h-202v247h202v-247z" />
    <glyph glyph-name="uniFB7C" unicode="&#x686;" horiz-adv-x="1353" arabic-form="initial" 
d="M1196 193h33v-194h-113q-90 0 -133 22t-93 93q-121 -71 -199.5 -92t-213.5 -21h-441v-1l-1 1h-41v192h505q164 0 322 84l-202 323l-69 99h-384v193h412q85 0 127 -21.5t78 -81.5l333 -551q26 -45 80 -45zM210 -265h202v-247h-202v247zM755 -512h-202v247h202v-247z
M577 -834h-202v247h202v-247z" />
    <glyph glyph-name="uniFB7D" unicode="&#x686;" horiz-adv-x="1232" arabic-form="medial" 
d="M1199 193h33v-193h-113h-29h-2q-72 3 -111 26t-84 88q-121 -71 -199.5 -92t-213.5 -21h-441v-1v1h-42l1 192h504q164 0 322 84l-201 323l-70 99h-384v193h412q85 0 127 -21.5t78 -81.5l334 -551q26 -45 79 -45zM231 -249h202v-247h-202v247zM776 -496h-202v247h202v-247z
M598 -818h-202v247h202v-247z" />
    <glyph glyph-name="uniFB7E" unicode="&#x687;" horiz-adv-x="1245" arabic-form="isolated" 
d="M301 -241q0 -112 90 -178t237 -71v-174q-243 -3 -396 112.5t-153 322.5q0 177 125 299.5t306 122.5h367l6 6q-38 60 -40 268q-2 71 -30 126.5t-74 88t-100.5 49t-114.5 16.5q-139 0 -255 -79v173q135 93 319 93q96 0 180.5 -28t152 -82.5t106.5 -143.5t39 -202v-46
t1.5 -45t4.5 -48.5t9.5 -43t15.5 -42.5t23.5 -32.5t33.5 -26.5v-194h-585q-119 0 -193.5 -72.5t-74.5 -168.5zM904 -128q46 0 78 -32.5t32 -78.5q0 -47 -32 -80t-78 -33q-48 0 -81.5 33t-33.5 80q0 46 33.5 78.5t81.5 32.5zM1063 -239q0 46 33.5 78.5t81.5 32.5
q46 0 78 -32.5t32 -78.5q0 -47 -32 -80t-78 -33q-48 0 -81.5 33t-33.5 80zM904 -402q46 0 78 -32t32 -78q0 -47 -32 -80.5t-78 -33.5q-48 0 -81.5 33.5t-33.5 80.5q0 46 33.5 78t81.5 32zM1178 -402q46 0 78 -32t32 -78q0 -47 -32 -80.5t-78 -33.5q-48 0 -81.5 33.5
t-33.5 80.5q0 46 33.5 78t81.5 32z" />
    <glyph glyph-name="uniFB7F" unicode="&#x687;" horiz-adv-x="1273" arabic-form="final" 
d="M347 -241q0 -112 90 -178t237 -71v-174q-243 -3 -396 112.5t-153 322.5q0 177 125 299.5t306 122.5h377q-42 59 -44 274q-2 71 -30 126.5t-74 88t-100.5 49t-114.5 16.5q-139 0 -255 -79v173q61 42 145 67.5t175 25.5q96 0 180.5 -28t151.5 -82.5t106 -143.5t39 -202
q0 -44 0.5 -64.5t4.5 -62.5t12.5 -66t26 -50.5t43.5 -40.5h76v-194h-660q-119 0 -193.5 -72.5t-74.5 -168.5zM897 -136q46 0 78.5 -32t32.5 -78q0 -47 -32.5 -80.5t-78.5 -33.5q-48 0 -81.5 33.5t-33.5 80.5q0 46 33.5 78t81.5 32zM1171 -136q46 0 78.5 -32t32.5 -78
q0 -47 -32.5 -80.5t-78.5 -33.5q-48 0 -81.5 33.5t-33.5 80.5q0 46 33.5 78t81.5 32zM897 -410q46 0 78.5 -32t32.5 -78q0 -47 -32.5 -80.5t-78.5 -33.5q-48 0 -81.5 33.5t-33.5 80.5q0 46 33.5 78t81.5 32zM1171 -410q46 0 78.5 -32t32.5 -78q0 -47 -32.5 -80.5
t-78.5 -33.5q-48 0 -81.5 33.5t-33.5 80.5q0 46 33.5 78t81.5 32z" />
    <glyph glyph-name="uniFB80" unicode="&#x687;" horiz-adv-x="1353" arabic-form="initial" 
d="M1196 193h33v-194h-113q-90 0 -133 22t-93 93q-121 -71 -199.5 -92t-213.5 -21h-441v-1l-1 1h-41v192h505q164 0 322 84l-202 323l-69 99h-384v193h412q85 0 127 -21.5t78 -81.5l333 -551q26 -45 80 -45zM355 -280q44 0 76 -32t32 -76q0 -46 -32 -78.5t-76 -32.5
q-47 0 -79.5 32.5t-32.5 78.5q0 45 32.5 76.5t79.5 31.5zM624 -280q44 0 75.5 -32t31.5 -76q0 -46 -31.5 -78.5t-75.5 -32.5q-47 0 -80 32.5t-33 78.5q0 44 33 76t80 32zM355 -548q44 0 76 -32t32 -76q0 -46 -32 -78.5t-76 -32.5q-47 0 -79.5 32.5t-32.5 78.5
q0 45 32.5 76.5t79.5 31.5zM624 -548q44 0 75.5 -32t31.5 -76q0 -46 -31.5 -78.5t-75.5 -32.5q-47 0 -80 32.5t-33 78.5q0 44 33 76t80 32z" />
    <glyph glyph-name="uniFB81" unicode="&#x687;" horiz-adv-x="1232" arabic-form="medial" 
d="M1199 193h33v-193h-113h-29h-2q-72 3 -111 26t-84 88q-121 -71 -199.5 -92t-213.5 -21h-441v-1v1h-42l1 192h504q164 0 322 84l-201 323l-70 99h-384v193h412q85 0 127 -21.5t78 -81.5l334 -551q26 -45 79 -45zM376 -264q44 0 76 -32t32 -76q0 -46 -32 -78.5t-76 -32.5
q-47 0 -79.5 32.5t-32.5 78.5q0 45 32.5 76.5t79.5 31.5zM644 -264q44 0 76 -32t32 -76q0 -46 -32 -78.5t-76 -32.5q-47 0 -79.5 32.5t-32.5 78.5q0 45 32.5 76.5t79.5 31.5zM376 -532q44 0 76 -32t32 -76q0 -46 -32 -78.5t-76 -32.5q-47 0 -79.5 32.5t-32.5 78.5
q0 45 32.5 76.5t79.5 31.5zM644 -532q44 0 76 -32t32 -76q0 -46 -32 -78.5t-76 -32.5q-47 0 -79.5 32.5t-32.5 78.5q0 45 32.5 76.5t79.5 31.5z" />
    <glyph glyph-name="uniFB82" unicode="&#x68d;" horiz-adv-x="1169" arabic-form="isolated" 
d="M831 716l213 -523v-194h-35h-189q-235 0 -413 1l-293 1l1 192h314h360l-160 404l-45 99h-282v199h258q105 0 172.5 -52.5t98.5 -126.5zM498 -414h-201v246h201v-246zM840 -414h-202v246h202v-246z" />
    <glyph glyph-name="uniFB83" unicode="&#x68d;" horiz-adv-x="1099" arabic-form="final" 
d="M1038 193h61v-193h-61v-1h-36h-188q-235 0 -413 1l-293 1l1 192h314h360l-160 404l-45 99h-282v199h258q105 0 172.5 -52.5t98.5 -126.5zM492 -414h-201v246h201v-246zM833 -414h-201v246h201v-246z" />
    <glyph glyph-name="uniFB84" unicode="&#x68c;" horiz-adv-x="1169" arabic-form="isolated" 
d="M271 1406h201v-246h-201v246zM612 1406h201v-246h-201v246zM831 716l213 -523v-194h-35h-189q-235 0 -413 1l-293 1l1 192h314h360l-160 404l-45 99h-282v199h258q105 0 172.5 -52.5t98.5 -126.5z" />
    <glyph glyph-name="uniFB85" unicode="&#x68c;" horiz-adv-x="1099" arabic-form="final" 
d="M265 1406h201v-246h-201v246zM606 1406h201v-246h-201v246zM1038 193h61v-193h-61v-1h-36h-188q-235 0 -413 1l-293 1l1 192h314h360l-160 404l-45 99h-282v199h258q105 0 172.5 -52.5t98.5 -126.5z" />
    <glyph glyph-name="uniFB87" unicode="&#x68e;" horiz-adv-x="1099" arabic-form="final" 
d="M456 1710h202v-247h-202v247zM290 1389h203v-247h-203v247zM835 1142h-202v247h202v-247zM1038 193h61v-193h-61h-36h-188h-413l-293 1l1 192h314h360l-160 404l-45 99h-282v199h258q105 0 172.5 -52.5t98.5 -126.5z" />
    <glyph glyph-name="uniFB88" unicode="&#x688;" horiz-adv-x="1169" arabic-form="isolated" 
d="M412 1142h-20v-1h-112v100h105v378h113v-238q71 82 146 82q69 0 110 -52t41 -130v-140h-383v1zM499 1269v-28h183v42q0 34 -18 53t-51 19q-35 0 -67.5 -29t-46.5 -57zM831 716l213 -523v-193h-35h-189h-413l-293 1l1 192h314h360l-160 404l-45 99h-282v199h258
q105 0 172.5 -52.5t98.5 -126.5z" />
    <glyph glyph-name="uniFB89" unicode="&#x688;" horiz-adv-x="1099" arabic-form="final" 
d="M405 1142h-19v-1h-112v100h104v378h114v-238q71 82 146 82q69 0 110 -52t41 -130v-140h-384v1zM493 1269v-28h183v42q0 34 -18 53t-51 19q-35 0 -67.5 -29t-46.5 -57zM1038 193h61v-193h-61v-1h-36h-188q-235 0 -413 1l-293 1l1 192h314h360l-160 404l-45 99h-283v199
h259q105 0 172.5 -52.5t98.5 -126.5z" />
    </font>
</defs>
</svg>
