<svg width="72" height="72" viewBox="0 0 72 72" fill="none" xmlns="http://www.w3.org/2000/svg">
<rect x="1" y="1" width="70" height="70" fill="white"/>
<rect x="1" y="1" width="70" height="70" stroke="url(#paint0_linear_3073_5886)" stroke-width="2"/>
<path opacity="0.2" d="M37.25 21V49.75H22.25V29.3359C22.2499 29.1301 22.3006 28.9274 22.3976 28.7459C22.4946 28.5643 22.635 28.4096 22.8063 28.2953L35.3062 19.9625C35.4943 19.837 35.7129 19.7649 35.9387 19.7538C36.1645 19.7427 36.3891 19.7931 36.5886 19.8996C36.7881 20.006 36.9549 20.1646 37.0714 20.3584C37.1879 20.5522 37.2496 20.7739 37.25 21Z" fill="url(#paint1_linear_3073_5886)"/>
<path d="M53.5 48.5H51V31C51 30.337 50.7366 29.7011 50.2678 29.2322C49.7989 28.7634 49.163 28.5 48.5 28.5H38.5V21C38.5003 20.5473 38.3777 20.103 38.1452 19.7145C37.9127 19.3261 37.5791 19.008 37.18 18.7944C36.7808 18.5807 36.3312 18.4794 35.879 18.5013C35.4268 18.5232 34.9891 18.6675 34.6125 18.9188L22.1125 27.25C21.7696 27.4788 21.4886 27.7888 21.2945 28.1525C21.1004 28.5161 20.9992 28.9222 21 29.3344V48.5H18.5C18.1685 48.5 17.8505 48.6317 17.6161 48.8661C17.3817 49.1005 17.25 49.4185 17.25 49.75C17.25 50.0815 17.3817 50.3995 17.6161 50.6339C17.8505 50.8683 18.1685 51 18.5 51H53.5C53.8315 51 54.1495 50.8683 54.3839 50.6339C54.6183 50.3995 54.75 50.0815 54.75 49.75C54.75 49.4185 54.6183 49.1005 54.3839 48.8661C54.1495 48.6317 53.8315 48.5 53.5 48.5ZM48.5 31V48.5H38.5V31H48.5ZM23.5 29.3344L36 21V48.5H23.5V29.3344ZM33.5 33.5V36C33.5 36.3315 33.3683 36.6495 33.1339 36.8839C32.8995 37.1183 32.5815 37.25 32.25 37.25C31.9185 37.25 31.6005 37.1183 31.3661 36.8839C31.1317 36.6495 31 36.3315 31 36V33.5C31 33.1685 31.1317 32.8505 31.3661 32.6161C31.6005 32.3817 31.9185 32.25 32.25 32.25C32.5815 32.25 32.8995 32.3817 33.1339 32.6161C33.3683 32.8505 33.5 33.1685 33.5 33.5ZM28.5 33.5V36C28.5 36.3315 28.3683 36.6495 28.1339 36.8839C27.8995 37.1183 27.5815 37.25 27.25 37.25C26.9185 37.25 26.6005 37.1183 26.3661 36.8839C26.1317 36.6495 26 36.3315 26 36V33.5C26 33.1685 26.1317 32.8505 26.3661 32.6161C26.6005 32.3817 26.9185 32.25 27.25 32.25C27.5815 32.25 27.8995 32.3817 28.1339 32.6161C28.3683 32.8505 28.5 33.1685 28.5 33.5ZM28.5 42.25V44.75C28.5 45.0815 28.3683 45.3995 28.1339 45.6339C27.8995 45.8683 27.5815 46 27.25 46C26.9185 46 26.6005 45.8683 26.3661 45.6339C26.1317 45.3995 26 45.0815 26 44.75V42.25C26 41.9185 26.1317 41.6005 26.3661 41.3661C26.6005 41.1317 26.9185 41 27.25 41C27.5815 41 27.8995 41.1317 28.1339 41.3661C28.3683 41.6005 28.5 41.9185 28.5 42.25ZM33.5 42.25V44.75C33.5 45.0815 33.3683 45.3995 33.1339 45.6339C32.8995 45.8683 32.5815 46 32.25 46C31.9185 46 31.6005 45.8683 31.3661 45.6339C31.1317 45.3995 31 45.0815 31 44.75V42.25C31 41.9185 31.1317 41.6005 31.3661 41.3661C31.6005 41.1317 31.9185 41 32.25 41C32.5815 41 32.8995 41.1317 33.1339 41.3661C33.3683 41.6005 33.5 41.9185 33.5 42.25Z" fill="url(#paint2_linear_3073_5886)"/>
<defs>
<linearGradient id="paint0_linear_3073_5886" x1="-0.799145" y1="36" x2="72.8028" y2="36" gradientUnits="userSpaceOnUse">
<stop stop-color="#D9C59A"/>
<stop offset="0.8" stop-color="#B28B31"/>
</linearGradient>
<linearGradient id="paint1_linear_3073_5886" x1="22.0835" y1="34.7512" x2="37.4173" y2="34.7512" gradientUnits="userSpaceOnUse">
<stop stop-color="#D9C59A"/>
<stop offset="0.8" stop-color="#B28B31"/>
</linearGradient>
<linearGradient id="paint2_linear_3073_5886" x1="16.8338" y1="34.7492" x2="55.1681" y2="34.7492" gradientUnits="userSpaceOnUse">
<stop stop-color="#D9C59A"/>
<stop offset="0.8" stop-color="#B28B31"/>
</linearGradient>
</defs>
</svg>
