<svg width="72" height="72" viewBox="0 0 72 72" fill="none" xmlns="http://www.w3.org/2000/svg">
<rect x="1" y="1" width="70" height="70" fill="white"/>
<rect x="1" y="1" width="70" height="70" stroke="url(#paint0_linear_3679_5306)" stroke-width="2"/>
<path opacity="0.2" d="M53.5 32.25L36 42.25L18.5 32.25L36 22.25L53.5 32.25Z" fill="url(#paint1_linear_3679_5306)"/>
<path d="M17.8752 33.3438L35.3752 43.3438C35.5641 43.4518 35.778 43.5086 35.9955 43.5086C36.2131 43.5086 36.427 43.4518 36.6159 43.3438L54.1159 33.3438C54.3075 33.2346 54.4668 33.0766 54.5776 32.8858C54.6884 32.6951 54.7468 32.4785 54.7468 32.2579C54.7468 32.0373 54.6884 31.8207 54.5776 31.6299C54.4668 31.4392 54.3075 31.2812 54.1159 31.1719L36.6159 21.1719C36.427 21.064 36.2131 21.0072 35.9955 21.0072C35.778 21.0072 35.5641 21.064 35.3752 21.1719L17.8752 31.1719C17.6836 31.2812 17.5243 31.4392 17.4135 31.6299C17.3027 31.8207 17.2443 32.0373 17.2443 32.2579C17.2443 32.4785 17.3027 32.6951 17.4135 32.8858C17.5243 33.0766 17.6836 33.2346 17.8752 33.3438ZM36.0002 23.6891L50.9799 32.2501L36.0002 40.811L21.0205 32.2501L36.0002 23.6891ZM54.594 37.8751C54.6774 38.0184 54.7314 38.1768 54.753 38.3412C54.7745 38.5056 54.7631 38.6726 54.7195 38.8326C54.6759 38.9926 54.6009 39.1422 54.4989 39.2729C54.3968 39.4036 54.2698 39.5127 54.1252 39.5938L36.6252 49.5938C36.4363 49.7018 36.2225 49.7586 36.0049 49.7586C35.7873 49.7586 35.5735 49.7018 35.3846 49.5938L17.8752 39.5938C17.7321 39.5117 17.6066 39.4023 17.5057 39.2717C17.4049 39.1411 17.3308 38.9919 17.2877 38.8327C17.2445 38.6734 17.2331 38.5073 17.2542 38.3436C17.2752 38.18 17.3283 38.0221 17.4104 37.879C17.4925 37.7359 17.6019 37.6103 17.7325 37.5095C17.8631 37.4087 18.0123 37.3346 18.1715 37.2914C18.4931 37.2042 18.8362 37.2484 19.1252 37.4141L36.0002 47.061L52.8752 37.4141C53.0181 37.3304 53.1761 37.2759 53.3402 37.2538C53.5042 37.2317 53.6711 37.2424 53.831 37.2853C53.9909 37.3282 54.1407 37.4024 54.2716 37.5036C54.4026 37.6049 54.5122 37.7311 54.594 37.8751Z" fill="url(#paint2_linear_3679_5306)"/>
<defs>
<linearGradient id="paint0_linear_3679_5306" x1="-0.799145" y1="36" x2="72.8028" y2="36" gradientUnits="userSpaceOnUse">
<stop stop-color="#D9C59A"/>
<stop offset="0.8" stop-color="#B28B31"/>
</linearGradient>
<linearGradient id="paint1_linear_3679_5306" x1="18.1115" y1="32.25" x2="53.8903" y2="32.25" gradientUnits="userSpaceOnUse">
<stop stop-color="#D9C59A"/>
<stop offset="0.8" stop-color="#B28B31"/>
</linearGradient>
<linearGradient id="paint2_linear_3679_5306" x1="16.8275" y1="35.3829" x2="55.1819" y2="35.3829" gradientUnits="userSpaceOnUse">
<stop stop-color="#D9C59A"/>
<stop offset="0.8" stop-color="#B28B31"/>
</linearGradient>
</defs>
</svg>
