<svg width="26" height="25" viewBox="0 0 26 25" fill="none" xmlns="http://www.w3.org/2000/svg">
<g filter="url(#filter0_d_1623_260)">
<g clip-path="url(#clip0_1623_260)">
<mask id="mask0_1623_260" style="mask-type:luminance" maskUnits="userSpaceOnUse" x="3" y="5" width="20" height="15">
<rect x="3" y="5" width="20" height="15" fill="white"/>
</mask>
<g mask="url(#mask0_1623_260)">
<rect x="3" y="5" width="20" height="15" fill="#67BD23"/>
<path fill-rule="evenodd" clip-rule="evenodd" d="M12.0244 7.54562C11.9432 7.66923 11.877 7.84657 11.877 7.92932L11.8768 7.95379C11.8756 8.04801 11.8733 8.22219 11.9843 8.10171C12.106 7.96972 12.2234 7.81513 12.1976 7.69554C12.1717 7.57594 12.1055 7.422 12.0244 7.54562ZM10.8905 7.82915C10.8905 7.6582 11.1002 7.52813 11.1572 7.52813C11.2143 7.52813 11.1572 7.67984 11.0533 7.74448C10.9769 7.79204 11.037 7.81545 11.1091 7.8435C11.135 7.85356 11.1624 7.86423 11.1856 7.87682C11.2733 7.92448 11.1572 8.04769 11.0239 8.08767C10.8905 8.12766 10.8905 8.0001 10.8905 7.82915ZM10.6827 8.03661C10.6077 8.21425 10.4652 8.56078 10.5967 8.83637C10.6122 8.86874 10.627 8.90075 10.6414 8.932L10.6414 8.93202C10.7499 9.16684 10.8384 9.35842 11.0359 9.33123C11.2459 9.3023 11.3429 8.92627 11.375 8.80153L11.3805 8.78055C11.406 8.68521 11.5106 8.52448 11.5381 8.62638C11.552 8.67766 11.5449 8.77619 11.538 8.8728V8.87281C11.5311 8.96815 11.5244 9.06162 11.5381 9.10595C11.5657 9.19521 11.6947 9.58993 11.9839 9.49744C12.1361 9.44875 12.2342 9.34015 12.3114 9.25461C12.3809 9.17767 12.4336 9.11939 12.4936 9.14019C12.5422 9.15704 12.5913 9.21918 12.6451 9.2872C12.7314 9.39648 12.8298 9.52096 12.9575 9.49744C13.1226 9.46705 13.2419 9.28939 13.3178 9.17639L13.3178 9.17638C13.3372 9.1475 13.3538 9.12284 13.3675 9.10595C13.4185 9.04335 13.4428 9.08084 13.4761 9.13207C13.4869 9.14876 13.4987 9.16692 13.5127 9.18355C13.5695 9.25117 13.6812 9.29705 13.7574 9.18355C13.8336 9.07004 13.9464 8.72473 13.8002 8.78055L13.7906 8.78422C13.6449 8.83996 13.4397 8.91841 13.3675 8.774C13.2937 8.62638 13.0923 8.1694 13.193 8.1694C13.2937 8.1694 13.4604 8.16911 13.4261 8.00596C13.3918 7.84281 13.7374 8.37185 13.8002 8.48275C13.8123 8.50406 13.837 8.54924 13.8694 8.6087C14.0059 8.85862 14.2801 9.3608 14.3355 9.40285C14.3945 9.44764 14.4442 10.3253 14.4569 10.7205C14.425 10.7146 14.3684 10.7121 14.2786 10.7121C14.0446 10.7121 13.8573 10.7381 13.7058 10.759C13.5392 10.7821 13.4158 10.7992 13.321 10.7693C13.2676 10.7524 13.2044 10.7417 13.149 10.7323C13.0164 10.7097 12.9294 10.695 13.1337 10.623C13.1919 10.6025 13.2588 10.5856 13.3282 10.5681C13.6043 10.4984 13.9212 10.4183 13.8962 10.0609C13.8649 9.61357 13.8056 9.41684 13.4697 9.47604C13.1337 9.53523 13.0281 9.80238 13.0281 10.0609C13.0281 10.2772 12.9991 10.28 12.9087 10.2888C12.8911 10.2905 12.8711 10.2924 12.8485 10.2962C12.8343 10.2986 12.8171 10.3009 12.7973 10.3036L12.7972 10.3036L12.7972 10.3036C12.6247 10.327 12.26 10.3765 12.0278 10.7121C11.808 11.0299 11.8348 10.5623 11.8478 10.3341V10.3341C11.8502 10.2936 11.852 10.2606 11.852 10.2409C11.852 10.1103 11.8068 9.9951 11.7052 9.76388L11.6976 9.74646C11.5978 9.51883 11.4824 9.25565 11.3195 9.50655C11.1525 9.76388 11.3498 10.1277 11.4207 10.1843C11.4917 10.2409 11.8583 11.0411 11.4981 11.4368C11.138 11.8326 10.6275 12.2218 10.4904 12.0968C10.3533 11.9718 10.2714 11.8943 10.4269 11.7937C10.4523 11.7772 10.4938 11.7574 10.5449 11.7329C10.8059 11.6078 11.3175 11.3627 11.2217 10.8395C11.1621 10.5144 11.1024 10.3255 11.0688 10.219C11.0376 10.1206 11.0288 10.0926 11.063 10.0926C11.0719 10.0926 11.0814 10.0933 11.0909 10.0939C11.1568 10.0982 11.2255 10.1027 11.1497 9.9011C11.063 9.67047 10.9392 9.40887 10.71 9.66502C10.4808 9.92117 10.573 10.0808 10.71 10.2409C10.847 10.4011 11.0805 10.6862 10.8133 10.9406C10.7313 11.0187 10.6565 11.097 10.5921 11.1644L10.5921 11.1644C10.4466 11.3166 10.3547 11.4129 10.3547 11.3237C10.3547 11.1951 10.3161 11.0231 10.2467 11.1734C10.2332 11.2025 10.2203 11.2361 10.2065 11.272C10.1489 11.4215 10.0755 11.612 9.88284 11.6931C9.64385 11.7937 9.10921 12.1905 9.10921 12.1905C9.10921 12.1905 8.75726 12.5038 8.91881 12.4771C9.08035 12.4504 9.49786 12.3313 9.61148 12.2339C9.7251 12.1365 9.99995 12.0683 9.99995 12.0683C9.99995 12.0683 10.3205 12.672 10.6552 12.5745C10.99 12.4771 11.7341 11.662 11.7341 11.662C11.7341 11.662 12.1939 12.293 12.7103 12.3348C13.2268 12.3766 13.3548 12.207 13.2111 12.0968C13.1727 12.0673 13.1173 12.0355 13.0586 12.0018C12.8984 11.9099 12.714 11.804 12.7847 11.6931C12.8813 11.5416 13.0815 11.492 13.4233 11.4368C13.4737 11.4287 13.524 11.4218 13.5734 11.4151C13.8584 11.3763 14.112 11.3418 14.1829 11.0864C14.2203 10.9516 14.3428 10.8623 14.4215 10.8049C14.4355 10.7948 14.4481 10.7856 14.4586 10.7773C14.4596 10.8154 14.4601 10.8466 14.4601 10.8693C14.4601 11.1064 14.451 11.8982 14.4194 11.9865C14.3879 12.0748 14.5812 12.0181 14.6373 11.9232L14.6409 11.9171C14.6969 11.8225 14.7758 11.6892 14.7758 11.4886C14.7758 11.4569 14.7763 11.411 14.777 11.3554C14.7804 11.0526 14.7871 10.4639 14.7299 10.33C14.6623 10.1715 14.6841 10.0166 14.7299 10.0565C14.7511 10.0748 14.8918 10.3447 15.0452 10.6387C15.2249 10.9832 15.4218 11.3608 15.4637 11.4056C15.5119 11.457 15.5338 11.3309 15.5559 11.2044C15.5694 11.1266 15.583 11.0486 15.6028 11.0117C15.6546 10.9148 15.6963 10.8401 15.6963 11.0117C15.6963 11.0275 15.6968 11.0457 15.6972 11.066C15.7018 11.265 15.7107 11.6587 15.3714 11.8844C15.2518 11.9639 15.15 12.0345 15.0634 12.0946C14.8795 12.2221 14.7639 12.3022 14.6907 12.3205C14.583 12.3475 14.5997 12.5523 14.7299 12.5523C14.7395 12.5523 14.7515 12.5527 14.7656 12.5531C14.9429 12.5587 15.4545 12.5748 15.7646 11.9865C16.061 11.4241 15.8766 9.64951 15.8305 9.20581C15.8246 9.14845 15.8209 9.11333 15.8209 9.10595C15.8209 9.08657 15.8076 9.04193 15.7905 8.98503C15.751 8.85263 15.6915 8.6539 15.7344 8.55301C15.7687 8.47222 15.7892 8.4831 15.8122 8.4953C15.8302 8.50489 15.8498 8.51529 15.8789 8.48275C15.9449 8.40878 16.0234 8.30282 15.8789 8.11801C15.8277 8.05249 15.7892 7.96498 15.7552 7.88732C15.6931 7.74593 15.6454 7.6372 15.5607 7.75332C15.4296 7.9332 15.368 8.45709 15.4314 8.71142C15.4949 8.96575 15.7741 10.9926 15.6028 10.8233C15.5016 10.7234 15.4086 10.5331 15.307 10.3255C15.2365 10.1813 15.1619 10.0288 15.0776 9.8922C14.8719 9.55883 14.4691 8.88451 14.5799 8.68363C14.6123 8.62499 14.6397 8.58557 14.661 8.55493C14.7128 8.48062 14.7285 8.45802 14.6907 8.33838C14.6614 8.24548 14.6077 8.18124 14.5513 8.11382C14.5052 8.05861 14.4573 8.00126 14.4194 7.92429C14.3355 7.75332 14.1578 7.64428 14.1578 7.80581C14.1578 7.96733 14.068 8.13489 14.0119 7.97035C13.9559 7.80581 13.6578 7.45371 13.5127 7.57511C13.4214 7.65144 13.4416 7.69615 13.4595 7.73569C13.47 7.75905 13.4797 7.7806 13.4652 7.80581C13.4582 7.81802 13.4512 7.8322 13.4441 7.84653L13.4441 7.84654C13.4117 7.91183 13.378 7.98005 13.3349 7.87789C13.3263 7.85752 13.3179 7.83177 13.3088 7.80392C13.2624 7.66146 13.1982 7.46424 12.997 7.65265C12.7565 7.87789 12.7303 8.10925 12.8636 8.24181C12.997 8.37436 13.1975 8.69123 13.0972 8.83637C12.997 8.98151 12.8092 9.08949 12.7186 8.93502C12.6279 8.78055 12.575 8.60844 12.6151 8.38892C12.6552 8.1694 12.7164 7.49758 12.4532 7.57511C12.1901 7.65265 12.2177 8.04102 12.2804 8.21497C12.3432 8.38892 12.3778 8.67601 12.3291 8.774L12.3238 8.78476C12.2706 8.89239 12.1316 9.17357 11.9839 9.07784C11.8309 8.97873 11.7172 8.69711 11.7881 8.43326C11.859 8.1694 11.8121 7.74983 11.5963 7.87789C11.3805 8.00596 11.1381 8.41638 11.1381 8.62638C11.1381 8.83637 11.0528 9.08949 10.9645 8.93502L10.95 8.90974C10.8621 8.75689 10.7412 8.54698 10.8069 8.33838C10.8763 8.11801 10.7576 7.85898 10.6827 8.03661ZM6.53808 7.64951C6.52594 7.66579 6.53516 7.67635 6.55554 7.69966C6.58005 7.7277 6.62068 7.7742 6.65969 7.87131C6.69113 7.9496 6.70034 8.06395 6.70755 8.15347C6.71671 8.26731 6.72264 8.34099 6.76696 8.24933C6.84614 8.08559 6.88722 7.72976 6.76696 7.64951C6.64671 7.56927 6.56481 7.61366 6.53808 7.64951ZM8.09877 7.9901C7.86162 7.9901 7.89394 7.64275 7.89394 7.64275C7.89394 7.64275 7.89394 7.60964 7.99864 7.60964C8.07006 7.60964 8.07736 7.64759 8.08384 7.68128C8.08686 7.69699 8.0897 7.71176 8.09877 7.72134C8.11148 7.73474 8.11287 7.72062 8.11482 7.70083C8.11724 7.67618 8.12053 7.64275 8.14762 7.64275C8.19647 7.64275 8.20642 7.69331 8.20642 7.77465C8.20642 7.85599 8.27355 7.79101 8.27355 7.72134C8.27355 7.65166 8.33593 7.64275 8.39118 7.64275C8.44644 7.64275 8.33593 7.9901 8.09877 7.9901ZM6.80447 11.8023C6.77502 11.47 6.85197 11.1506 6.99497 11.1506C7.13797 11.1506 7.13797 11.4685 7.13797 11.4685C7.13797 11.4685 7.21812 12.1214 7.87757 12.1505C8.53701 12.1795 8.97717 11.0345 8.97717 11.0345C9.01506 10.8418 9.00409 10.6013 9.00409 10.6013C8.96107 10.5101 8.93665 10.6012 8.8874 10.785C8.84536 10.9418 8.78522 11.1661 8.67997 11.4022C8.46006 11.8956 8.00127 11.885 7.71255 11.8784L7.67934 11.8776C7.39381 11.8719 7.16321 11.3965 7.13797 11.1506C7.11274 10.9047 7.19556 10.7121 7.19556 10.7121C7.19556 10.7121 7.42293 10.4743 7.4149 10.8895C7.40687 11.3047 7.61245 11.373 7.98123 11.4022C8.35002 11.4315 8.62232 10.8658 8.67997 10.6512C8.73762 10.4366 8.38712 10.7702 8.38712 10.7702C8.29189 10.8601 8.08442 10.7762 7.98123 10.5531C7.87804 10.33 8.08442 10.0665 8.25414 9.8848C8.42386 9.70311 8.61625 9.85171 8.61625 9.85171C8.86521 9.89474 8.96624 10.0648 8.96624 10.0648C9.09012 10.1575 8.95582 9.64404 8.95582 9.64404C8.87017 9.42768 8.76566 8.73635 8.76566 8.73635C8.7442 8.66075 8.72778 8.56977 8.71532 8.47994C8.68803 8.52795 8.67997 8.63502 8.67997 8.63502C8.67997 8.63502 8.84402 9.34855 8.60943 9.57063C8.49515 9.67881 8.43654 9.73429 8.37552 9.73708C8.31127 9.74002 8.24435 9.68454 8.10696 9.57065L8.10696 9.57064L8.10696 9.57064L8.10695 9.57064L8.10695 9.57063L8.10695 9.57063C7.83906 9.34855 7.82516 9.57063 7.82516 9.83683V10.9106C7.82516 11.0765 7.72069 11.0745 7.62727 11.0728C7.57905 11.0719 7.53377 11.071 7.50731 11.0933C7.52396 10.9186 7.54211 10.6049 7.54211 10.6049C7.55108 10.4572 7.35417 9.86581 7.35417 9.86581C7.18138 9.71878 6.97764 9.34855 6.97764 9.34855C6.93072 9.07375 6.83069 9.21902 6.83069 9.21902C6.83069 9.41185 6.76944 9.8224 6.4559 9.70153C6.14235 9.58067 6.31843 8.45713 6.31843 8.45713C6.31843 8.45713 6.44443 8.46996 6.4559 8.75568C6.46737 9.0414 6.61944 9.25408 6.61944 9.25408C6.69878 9.46168 6.72675 8.79728 6.72675 8.79728C6.72753 8.52532 7.06193 8.28277 7.06193 8.28277C7.24771 8.18291 7.24305 8.60725 7.24305 8.60725C7.33181 8.88831 7.23614 9.09952 7.23614 9.09952C7.22403 9.37635 7.42556 9.23598 7.42556 9.23598C7.56738 9.22883 7.3198 8.42889 7.3198 8.42889C7.19977 8.14527 7.2661 7.8947 7.2661 7.8947C7.27831 7.7434 7.46594 7.70373 7.46594 7.70373C7.59474 7.71647 7.59592 8.28725 7.59592 8.28725C7.59592 8.64556 7.69449 8.96633 7.78139 9.03285C7.86829 9.09938 7.76682 8.83141 7.69449 8.75624C7.64819 8.70812 7.66116 8.59905 7.6765 8.47012L7.6765 8.47011C7.68512 8.39761 7.69449 8.31883 7.69449 8.24107C7.69449 8.02645 7.82342 8.12757 7.96524 8.23882L7.96811 8.24107C8.08031 8.32906 8.0722 8.47336 8.06352 8.62786L8.06352 8.62786C8.06114 8.67021 8.05872 8.71331 8.05872 8.75624C8.05872 8.95579 8.15851 9.09108 8.3237 9.21902C8.46464 9.32816 8.45816 9.15796 8.45321 9.02815C8.45236 9.0058 8.45156 8.98465 8.45156 8.96633C8.45156 8.86973 8.3749 8.72409 8.29943 8.58069C8.27743 8.53889 8.25553 8.49728 8.23566 8.45713C8.16444 8.31325 8.19931 8.26077 8.26921 8.15558L8.26921 8.15558L8.26922 8.15557L8.26924 8.15554C8.28575 8.13069 8.30422 8.1029 8.3237 8.07026C8.42568 7.89946 8.60943 8.08248 8.67997 8.24107L8.69184 8.26736C8.6824 8.15788 8.67926 8.07891 8.67926 8.07891C8.63625 7.95114 9.00409 7.6678 9.00409 7.6678C9.23322 7.61595 9.27515 8.36323 9.27515 8.36323C9.35685 8.62952 9.08384 8.52462 9.08384 8.52462C8.95022 8.51289 9.22779 9.60916 9.22779 9.60916C9.24796 9.98449 9.43043 9.78553 9.43043 9.78553C9.5707 9.7301 9.58065 10.0905 9.58065 10.0905C9.67487 10.2341 9.85373 9.74618 9.85373 9.74618C9.97915 9.56743 10.176 9.97486 10.176 9.97486C10.2696 10.1013 10.4637 9.74057 10.4637 9.74057C10.5735 9.67024 10.545 9.78019 10.5089 9.91974C10.4876 10.0018 10.4637 10.0941 10.4637 10.166C10.4637 10.3578 10.4326 10.372 10.2283 10.4656L10.2206 10.4692C10.0092 10.566 9.94363 10.4045 9.94363 10.4045C9.89286 10.3437 9.53926 10.5531 9.53926 10.5531C9.40563 10.6028 9.32332 10.4929 9.32332 10.4929C9.26586 10.4183 9.26709 10.7299 9.26867 11.1265V11.1265V11.1265V11.1265V11.1266V11.1266V11.1266V11.1267V11.1267V11.1267V11.1268V11.1268V11.1268V11.1269V11.1269V11.127V11.127V11.1271V11.1271V11.1272V11.1273C9.26893 11.1945 9.26921 11.2641 9.26921 11.3347C9.26921 11.8224 8.52888 12.4339 7.84309 12.5526C7.1573 12.6713 6.83392 12.1345 6.80447 11.8023ZM7.48371 11.1693C7.48854 11.2489 7.49768 11.1944 7.50731 11.0933C7.49058 11.1074 7.48137 11.1308 7.48371 11.1693ZM6.74534 10.248C7.04615 9.98389 7.25729 10.0345 7.25729 10.0345C7.25729 10.0345 7.32321 10.0345 7.40886 10.1258C7.49451 10.2172 7.19782 10.4025 7.00233 10.46C6.86996 10.499 6.70883 10.5799 6.55375 10.6578L6.55374 10.6578C6.47979 10.695 6.40721 10.7314 6.33978 10.7623C6.13093 10.858 6.44453 10.5121 6.74534 10.248ZM6.37659 11.3543C6.37659 11.3543 6.08367 11.8331 6.13181 12.1426C6.17995 12.452 6.38293 12.5163 6.51756 12.4842C6.6522 12.452 6.71427 12.1426 6.71427 12.1426C6.71427 12.1426 6.6213 11.93 6.51756 12.045C6.51756 12.045 6.34774 12.1167 6.37962 11.9188C6.4115 11.7208 6.37659 11.3543 6.37659 11.3543ZM8.37215 10.1885C8.37215 10.1885 8.17513 10.2505 8.27364 10.3421C8.37215 10.4338 8.52318 10.4451 8.52318 10.3421C8.52318 10.2392 8.37215 10.1885 8.37215 10.1885ZM12.321 9.72033C12.321 9.72033 12.3008 10.0686 12.5378 10.0603C12.7748 10.052 12.8731 9.70105 12.8179 9.70298C12.7627 9.70491 12.7006 9.71599 12.7031 9.78562C12.7055 9.85526 12.6407 9.92254 12.6378 9.84125C12.635 9.75996 12.6233 9.70978 12.5745 9.71148C12.5474 9.71243 12.5453 9.74595 12.5437 9.77067C12.5425 9.79052 12.5416 9.80468 12.5284 9.79172C12.519 9.78247 12.5156 9.7678 12.5121 9.75222C12.5044 9.71877 12.4958 9.68109 12.4244 9.68359C12.3198 9.68724 12.321 9.72033 12.321 9.72033ZM15.0899 9.2218C14.8529 9.23008 14.8731 8.88181 14.8731 8.88181C14.8731 8.88181 14.8719 8.84872 14.9766 8.84506C15.0479 8.84257 15.0566 8.88025 15.0642 8.91369C15.0678 8.92928 15.0711 8.94395 15.0805 8.9532C15.0937 8.96616 15.0946 8.95199 15.0959 8.93215C15.0974 8.90743 15.0995 8.8739 15.1266 8.87296C15.1754 8.87125 15.1871 8.92143 15.19 9.00272C15.1928 9.08401 15.2576 9.01674 15.2552 8.9471C15.2528 8.87747 15.3148 8.86639 15.37 8.86446C15.4252 8.86253 15.3269 9.21352 15.0899 9.2218ZM9.64572 10.9948C9.53773 10.9373 9.54909 10.895 9.64572 10.8068C9.74235 10.7186 9.85974 10.8474 9.97729 10.9948C10.0762 11.1187 10.0146 11.2182 9.9578 11.3099C9.94709 11.3272 9.93656 11.3442 9.92731 11.361C9.86903 11.4672 9.7107 11.4481 9.76992 11.361C9.82913 11.2739 9.75371 11.0523 9.64572 10.9948ZM17.5822 10.4894C17.4856 10.5776 17.4742 10.6199 17.5822 10.6774C17.6902 10.7349 17.6414 10.9768 17.5822 11.0639C17.523 11.151 17.6884 11.2468 17.7467 11.1407L17.7569 11.1222C17.8135 11.0202 17.8799 10.9004 17.834 10.7209C17.7853 10.5304 17.6788 10.4013 17.5822 10.4894ZM18.9558 8.45959C18.8478 8.40209 18.8592 8.35976 18.9558 8.2716C19.0524 8.18344 19.159 8.31254 19.2076 8.50303C19.2535 8.68257 19.1871 8.80235 19.1305 8.90437L19.1203 8.92287C19.062 9.02899 18.8966 8.93321 18.9558 8.8461C19.015 8.759 19.0638 8.5171 18.9558 8.45959ZM14.8543 7.75971C14.7577 7.84787 14.7463 7.89019 14.8543 7.94769C14.9623 8.0052 15.0877 8.3697 15.0285 8.4568C14.9693 8.54391 15.1276 8.56292 15.1859 8.4568C15.2442 8.35069 15.3034 8.09503 15.1859 7.94769C15.0683 7.80036 14.9509 7.67154 14.8543 7.75971ZM13.4494 9.89642C13.3161 9.9569 13.2394 9.99202 13.3094 10.0404C13.3794 10.0888 13.5453 10.1003 13.5453 10.0404C13.5453 10.0306 13.5463 10.0184 13.5474 10.0052C13.553 9.93845 13.5607 9.84589 13.4494 9.89642ZM12.1599 11.0918C12.3018 11.0918 12.414 11.0665 12.414 11.0665C12.414 11.0665 12.6076 11.0918 12.761 11.0918C12.9144 11.0918 12.8866 11.2267 12.7049 11.3128C12.5382 11.3919 12.5275 11.4433 12.5058 11.5477L12.4995 11.5771C12.4722 11.702 12.4514 11.7889 12.315 11.7461C12.1855 11.7054 12.0601 11.3918 11.9938 11.2261L11.9837 11.201C11.9339 11.0771 11.9843 11.0809 12.0777 11.0879C12.1024 11.0897 12.1302 11.0918 12.1599 11.0918ZM10.4699 8.02962C10.5231 8.02962 10.5879 7.70055 10.4699 7.65402C10.3519 7.60749 10.0079 7.66504 10.0497 7.80353C10.0633 7.8488 10.0961 7.89478 10.1295 7.94158C10.1983 8.03796 10.2696 8.1378 10.1811 8.24204C10.0497 8.3969 9.64679 8.73714 9.58295 8.77626L9.55621 8.79228C9.47459 8.84075 9.31679 8.93447 9.42781 8.93447C9.46761 8.93447 9.51607 8.93775 9.56674 8.94119L9.56674 8.94119C9.67536 8.94855 9.79417 8.9566 9.85976 8.93447C9.90903 8.91785 9.98574 8.828 10.0699 8.72944C10.1501 8.63557 10.237 8.53378 10.3133 8.47983C10.4699 8.36923 10.5029 8.14949 10.4699 8.11856C10.4609 8.11013 10.4383 8.10054 10.4111 8.08901C10.3386 8.05828 10.2335 8.01375 10.2671 7.9405C10.3133 7.83977 10.3507 7.90514 10.3507 7.9405C10.3507 7.97585 10.4167 8.02962 10.4699 8.02962ZM10.3808 9.1269L10.2572 9.17159C10.2572 9.17159 10.186 9.17159 10.1611 9.0856C10.1503 9.0484 10.1669 9.00251 10.1813 8.96243C10.2003 8.90988 10.2156 8.8673 10.1611 8.8673C10.065 8.8673 9.99277 9.02937 9.96016 9.1269C9.92755 9.22443 10.0782 9.34321 10.1611 9.39513C10.244 9.44705 10.3472 9.34321 10.4372 9.24985C10.5272 9.1565 10.3808 9.1269 10.3808 9.1269ZM16.1112 12.0613C15.99 11.8983 16.0424 11.5331 16.1539 11.3044C16.2403 11.1272 16.2372 11.2247 16.2314 11.4046C16.2297 11.4567 16.2278 11.5157 16.2278 11.577C16.2278 11.7939 16.292 11.8683 16.3818 11.9724L16.3818 11.9724C16.4049 11.9991 16.4296 12.0277 16.4553 12.0613C16.5815 12.2254 16.6878 12.0613 16.6878 11.9618C16.6878 11.8624 16.9119 11.4021 17.0741 11.2269C17.2363 11.0517 17.3709 11.1571 17.3709 11.2269C17.3709 11.2968 17.5283 11.5245 17.7106 11.577C17.8929 11.6295 17.9584 11.1571 17.9584 11.1571V9.73097C17.9584 9.31772 17.8555 9.2382 17.7681 9.17065C17.7476 9.15478 17.7279 9.13958 17.7106 9.12087C17.6809 9.08868 17.6265 9.0373 17.5632 8.97748L17.5631 8.97747C17.4329 8.85446 17.2649 8.69578 17.1959 8.59488C17.1095 8.46852 17.1126 8.23124 17.1157 7.9925V7.9925V7.99243V7.99236C17.1163 7.94782 17.1168 7.90323 17.1168 7.8593C17.1168 7.57985 17.5029 7.98374 17.5941 8.13874C17.653 8.23883 17.6359 8.30533 17.6163 8.38108C17.6056 8.42264 17.5941 8.46698 17.5941 8.52117C17.5941 8.67416 17.7106 8.638 17.7106 8.52117C17.7106 8.50001 17.7083 8.46692 17.7055 8.42653L17.7055 8.42647C17.6929 8.24391 17.6699 7.91238 17.8015 7.8593C17.9261 7.80903 17.9518 7.87565 18.0238 8.06237C18.0447 8.11653 18.0695 8.18079 18.1017 8.25523C18.1925 8.46489 18.1683 8.56251 18.1384 8.68337C18.121 8.75337 18.1017 8.83116 18.1017 8.94303C18.1017 9.17014 18.2682 9.36976 18.3837 9.50822C18.4233 9.55572 18.4569 9.59603 18.4758 9.62778C18.5494 9.75205 18.4021 8.82184 18.2749 8.638C18.1477 8.45415 18.2173 8.02528 18.4021 7.79462C18.5418 7.62014 18.632 7.84162 18.7207 8.05938C18.7493 8.12949 18.7777 8.19922 18.8075 8.25523C18.9091 8.44581 18.805 8.58341 18.7275 8.68577C18.7115 8.70691 18.6966 8.72655 18.685 8.74485C18.6535 8.7941 18.6771 8.85658 18.7117 8.94814C18.7521 9.05521 18.8075 9.20205 18.8075 9.41401C18.8075 9.80723 18.9647 10.2017 19.1965 10.5187C19.4163 10.8193 19.465 11.1695 19.5138 11.5198L19.5218 11.577C19.5738 11.9463 19.5776 10.9968 19.5218 10.5187C19.466 10.0406 19.2839 8.35902 19.3577 7.92414C19.406 7.63974 19.4588 7.76708 19.5371 7.95585L19.5371 7.95586C19.5785 8.05575 19.6271 8.17284 19.6859 8.25523L19.7216 8.30508C19.8581 8.49489 19.8683 8.50911 19.7859 8.638C19.739 8.71125 19.6971 8.70052 19.668 8.69305C19.6416 8.6863 19.6256 8.6822 19.6256 8.74485C19.6256 8.78367 19.6472 8.96343 19.6776 9.21728C19.7507 9.82702 19.875 10.8642 19.875 11.4021C19.875 12.1641 19.4698 12.4612 19.1192 12.5916C18.7685 12.722 18.5782 12.5916 18.5782 12.4612C18.5782 12.3924 18.5291 12.4326 18.464 12.4859C18.4058 12.5335 18.3349 12.5916 18.2749 12.5916C18.1477 12.5916 18.1909 12.4419 18.2749 12.2933C18.326 12.2029 18.3149 12.1954 18.2984 12.1841C18.2878 12.1768 18.2749 12.168 18.2749 12.1344C18.2749 12.0488 18.2749 11.9618 18.4021 11.9618C18.5292 11.9618 18.6416 11.9618 18.5192 12.1344C18.4444 12.2398 18.4496 12.2404 18.4998 12.2465C18.5318 12.2503 18.5821 12.2564 18.6416 12.2933C18.7253 12.3452 18.7324 12.3463 18.7407 12.3476C18.7476 12.3487 18.7553 12.3499 18.8075 12.3798C18.9231 12.446 19.2014 12.2126 19.4698 11.9618C19.6608 11.7835 19.5645 11.7423 19.4637 11.6993C19.4228 11.6818 19.3812 11.664 19.3577 11.6365C19.3224 11.5952 19.2577 11.4879 19.1897 11.375L19.1897 11.375L19.1897 11.375L19.1897 11.375C19.1012 11.2281 19.0071 11.072 18.9647 11.0399C18.9302 11.0137 18.9434 11.1022 18.9603 11.216C18.9802 11.3494 19.0052 11.5177 18.9647 11.577C18.8898 11.687 18.7194 11.8275 18.6416 11.8275C18.5637 11.8275 18.6416 10.4193 18.6416 10.4193C18.6416 10.4193 18.2055 9.81374 18.2749 10.041C18.3443 10.2682 18.2055 11.7315 18.0079 11.9618C17.8104 12.1921 17.3995 11.8971 17.2985 11.7315C17.1975 11.566 17.0757 11.7269 17.0299 11.8971C16.984 12.0674 16.8836 12.4392 16.6389 12.5916C16.4557 12.7057 16.3189 12.4429 16.2109 12.2352C16.1746 12.1656 16.1416 12.1022 16.1112 12.0613ZM17.4574 10.022C17.4574 10.022 17.0483 10.2968 16.98 10.3835C16.9116 10.4702 16.8872 10.5339 16.98 10.582C17.0727 10.63 17.4455 10.4519 17.5831 10.302C17.7207 10.1521 17.8244 10.0079 17.7726 9.91622C17.7207 9.82455 17.4574 10.022 17.4574 10.022ZM16.7842 9.39766C16.6187 9.20307 16.871 9.12087 16.871 9.12087C16.871 9.12087 17.0054 9.12087 17.1496 9.2396C17.229 9.30496 17.2209 9.24383 17.2087 9.15057C17.1987 9.07441 17.186 8.97683 17.2157 8.90922C17.2818 8.75882 17.5069 8.93457 17.565 9.12087C17.6056 9.2511 17.5611 9.25611 17.4929 9.26378C17.4635 9.26708 17.4298 9.27088 17.3966 9.28537C17.3235 9.31728 17.3473 9.46114 17.3717 9.60848C17.3841 9.68347 17.3966 9.75937 17.3966 9.82187C17.3966 10.0072 16.9497 9.59225 16.7842 9.39766Z" fill="white"/>
<path fill-rule="evenodd" clip-rule="evenodd" d="M11.7087 14.9097C11.2004 14.9713 8.63208 14.9607 7.86483 14.7756C7.69293 14.7394 7.7912 15.5233 7.90243 15.7035C8.01366 15.8836 8.88683 16.0641 9.19127 16.1057C9.4525 16.1414 10.459 16.0852 11.5052 16.0269C11.6782 16.0172 11.8524 16.0075 12.0245 15.9981C12.9404 15.9482 14.2784 16.0352 14.9781 16.0806C15.2044 16.0953 15.3639 16.1057 15.4208 16.1057C15.6352 16.1057 15.6191 16.1781 15.5867 16.3235C15.5839 16.336 15.581 16.3491 15.5781 16.3628C15.5416 16.5345 15.7338 16.9032 15.8186 16.9379C15.9033 16.9725 16.5337 16.9379 16.8772 16.8053C17.0727 16.7298 17.0959 16.7403 17.1468 16.7633C17.1853 16.7807 17.2397 16.8053 17.3968 16.8053C17.6327 16.8053 17.645 16.4674 17.6536 16.2288C17.6584 16.0987 17.662 15.9981 17.7003 15.9981C17.7433 15.9981 17.801 16.1257 17.855 16.2452C17.9373 16.4273 18.0111 16.5905 18.0111 16.2533C18.0111 15.6951 17.3547 14.9641 17.1401 15.0226C16.9896 15.0636 16.7418 15.0183 16.5736 14.9876C16.5018 14.9745 16.4446 14.9641 16.4155 14.9641C16.3733 14.9641 16.386 14.9539 16.4139 14.9314C16.4503 14.902 16.5128 14.8516 16.5128 14.7756C16.5128 14.6415 16.3851 14.6226 16.2789 14.6226C16.1727 14.6226 16.1159 14.7094 16.1159 14.7756C16.1159 14.8419 16.196 14.9097 16.196 14.9097C16.1794 14.9097 16.0956 14.9086 15.9617 14.9069C15.0978 14.8954 12.1488 14.8565 11.7087 14.9097ZM16.0471 16.0913C16.047 16.0912 16.1146 16.052 16.2714 15.8588C16.4449 15.6449 16.5063 15.7132 16.5703 15.7845C16.6033 15.8213 16.6369 15.8588 16.687 15.8588C16.8343 15.8588 17.0288 15.8588 17.1553 15.9662C17.2818 16.0735 16.9888 16.2211 16.9035 16.2211C16.8611 16.2211 16.8298 16.1947 16.7983 16.168C16.7662 16.141 16.734 16.1137 16.6896 16.1137C16.6373 16.1137 16.5932 16.1516 16.5575 16.1824C16.5331 16.2034 16.5126 16.2211 16.4959 16.2211C16.4814 16.2211 16.4491 16.2027 16.4073 16.1788C16.3309 16.1352 16.2228 16.0735 16.1338 16.0735C16.0783 16.0735 16.0471 16.0914 16.0471 16.0913Z" fill="white"/>
</g>
</g>
<rect x="3.25" y="5.25" width="19.5" height="14.5" rx="0.75" stroke="black" stroke-opacity="0.1" stroke-width="0.5" style="mix-blend-mode:multiply"/>
</g>
<defs>
<filter id="filter0_d_1623_260" x="0" y="4" width="26" height="21" filterUnits="userSpaceOnUse" color-interpolation-filters="sRGB">
<feFlood flood-opacity="0" result="BackgroundImageFix"/>
<feColorMatrix in="SourceAlpha" type="matrix" values="0 0 0 0 0 0 0 0 0 0 0 0 0 0 0 0 0 0 127 0" result="hardAlpha"/>
<feOffset dy="2"/>
<feGaussianBlur stdDeviation="1.5"/>
<feColorMatrix type="matrix" values="0 0 0 0 0 0 0 0 0 0 0 0 0 0 0 0 0 0 0.1 0"/>
<feBlend mode="normal" in2="BackgroundImageFix" result="effect1_dropShadow_1623_260"/>
<feBlend mode="normal" in="SourceGraphic" in2="effect1_dropShadow_1623_260" result="shape"/>
</filter>
<clipPath id="clip0_1623_260">
<rect x="3" y="5" width="20" height="15" rx="1" fill="white"/>
</clipPath>
</defs>
</svg>
