<svg width="72" height="72" viewBox="0 0 72 72" fill="none" xmlns="http://www.w3.org/2000/svg">
<rect x="1" y="1" width="70" height="70" fill="white"/>
<rect x="1" y="1" width="70" height="70" stroke="url(#paint0_linear_3679_6480)" stroke-width="2"/>
<path opacity="0.2" d="M51 36C51.0022 38.1036 50.5609 40.1841 49.7047 42.1056C48.8486 44.0271 47.5968 45.7465 46.0313 47.1516C45.09 45.3001 43.6546 43.7454 41.884 42.6597C40.1135 41.5739 38.0769 40.9995 36 41C37.2361 41 38.4445 40.6334 39.4723 39.9467C40.5001 39.2599 41.3012 38.2838 41.7743 37.1418C42.2473 35.9997 42.3711 34.7431 42.1299 33.5307C41.8888 32.3183 41.2935 31.2046 40.4194 30.3306C39.5453 29.4565 38.4317 28.8612 37.2193 28.6201C36.0069 28.3789 34.7503 28.5027 33.6082 28.9757C32.4662 29.4488 31.4901 30.2499 30.8033 31.2777C30.1166 32.3055 29.75 33.5139 29.75 34.75C29.75 36.4076 30.4085 37.9973 31.5806 39.1694C32.7527 40.3415 34.3424 41 36 41C33.9231 40.9995 31.8865 41.5739 30.116 42.6597C28.3454 43.7454 26.91 45.3001 25.9688 47.1516C24.1098 45.4794 22.6983 43.3692 21.8626 41.0126C21.0269 38.656 20.7936 36.1279 21.1838 33.6582C21.574 31.1885 22.5754 28.8555 24.097 26.8714C25.6185 24.8873 27.6118 23.315 29.8958 22.2975C32.1797 21.28 34.6818 20.8495 37.1745 21.0453C39.6672 21.2411 42.0714 22.0568 44.1684 23.4184C46.2655 24.78 47.989 26.6443 49.1821 28.8416C50.3752 31.0389 51.0001 33.4996 51 36Z" fill="url(#paint1_linear_3679_6480)"/>
<path d="M36 19.75C32.7861 19.75 29.6443 20.703 26.972 22.4886C24.2997 24.2742 22.2169 26.8121 20.987 29.7814C19.757 32.7507 19.4352 36.018 20.0622 39.1702C20.6893 42.3224 22.2369 45.2179 24.5095 47.4905C26.7821 49.7631 29.6776 51.3107 32.8298 51.9378C35.982 52.5648 39.2493 52.243 42.2186 51.013C45.1879 49.7831 47.7258 47.7003 49.5114 45.028C51.297 42.3557 52.25 39.2139 52.25 36C52.2455 31.6916 50.5319 27.561 47.4855 24.5145C44.439 21.4681 40.3084 19.7545 36 19.75ZM27.575 46.8594C28.4793 45.4451 29.725 44.2813 31.1974 43.4751C32.6698 42.6689 34.3214 42.2463 36 42.2463C37.6786 42.2463 39.3303 42.6689 40.8026 43.4751C42.275 44.2813 43.5207 45.4451 44.425 46.8594C42.0162 48.7328 39.0516 49.7499 36 49.7499C32.9484 49.7499 29.9839 48.7328 27.575 46.8594ZM31 34.75C31 33.7611 31.2933 32.7944 31.8427 31.9721C32.3921 31.1499 33.173 30.509 34.0866 30.1306C35.0002 29.7522 36.0056 29.6531 36.9755 29.8461C37.9454 30.039 38.8363 30.5152 39.5355 31.2145C40.2348 31.9137 40.711 32.8046 40.9039 33.7745C41.0969 34.7445 40.9978 35.7498 40.6194 36.6634C40.241 37.577 39.6001 38.3579 38.7779 38.9073C37.9556 39.4568 36.9889 39.75 36 39.75C34.6739 39.75 33.4022 39.2232 32.4645 38.2855C31.5268 37.3479 31 36.0761 31 34.75ZM46.275 45.1266C44.8809 43.1064 42.9206 41.5435 40.6406 40.6344C41.8653 39.6698 42.759 38.3475 43.1974 36.8514C43.6358 35.3553 43.597 33.7598 43.0866 32.2868C42.5761 30.8137 41.6194 29.5364 40.3493 28.6323C39.0792 27.7283 37.559 27.2425 36 27.2425C34.441 27.2425 32.9208 27.7283 31.6507 28.6323C30.3807 29.5364 29.4239 30.8137 28.9134 32.2868C28.403 33.7598 28.3642 35.3553 28.8026 36.8514C29.241 38.3475 30.1347 39.6698 31.3594 40.6344C29.0794 41.5435 27.1191 43.1064 25.725 45.1266C23.9634 43.1456 22.812 40.6976 22.4095 38.0773C22.0069 35.4571 22.3704 32.7764 23.4561 30.358C24.5419 27.9395 26.3036 25.8865 28.5291 24.4462C30.7546 23.0058 33.349 22.2394 36 22.2394C38.651 22.2394 41.2454 23.0058 43.4709 24.4462C45.6965 25.8865 47.4582 27.9395 48.5439 30.358C49.6296 32.7764 49.9931 35.4571 49.5906 38.0773C49.188 40.6976 48.0366 43.1456 46.275 45.1266Z" fill="url(#paint2_linear_3679_6480)"/>
<defs>
<linearGradient id="paint0_linear_3679_6480" x1="-0.799145" y1="36" x2="72.8028" y2="36" gradientUnits="userSpaceOnUse">
<stop stop-color="#D9C59A"/>
<stop offset="0.8" stop-color="#B28B31"/>
</linearGradient>
<linearGradient id="paint1_linear_3679_6480" x1="20.667" y1="34.0754" x2="51.3345" y2="34.0754" gradientUnits="userSpaceOnUse">
<stop stop-color="#D9C59A"/>
<stop offset="0.8" stop-color="#B28B31"/>
</linearGradient>
<linearGradient id="paint2_linear_3679_6480" x1="19.3893" y1="36" x2="52.6124" y2="36" gradientUnits="userSpaceOnUse">
<stop stop-color="#D9C59A"/>
<stop offset="0.8" stop-color="#B28B31"/>
</linearGradient>
</defs>
</svg>
