<svg width="72" height="72" viewBox="0 0 72 72" fill="none" xmlns="http://www.w3.org/2000/svg">
<rect x="1" y="1" width="70" height="70" fill="white"/>
<rect x="1" y="1" width="70" height="70" stroke="url(#paint0_linear_3679_6473)" stroke-width="2"/>
<path opacity="0.2" d="M48.5 26V34.75C45.1848 34.75 42.0054 36.067 39.6612 38.4112C37.317 40.7554 36 43.9348 36 47.25C36 43.9348 34.683 40.7554 32.3388 38.4112C29.9946 36.067 26.8152 34.75 23.5 34.75V26C25.457 25.9984 27.3868 26.4582 29.1328 27.3422C30.9406 22.2797 36 19.75 36 19.75C36 19.75 41.0609 22.2797 42.875 27.3406C44.6186 26.458 46.5457 25.9987 48.5 26Z" fill="url(#paint1_linear_3679_6473)"/>
<path d="M48.5 24.75C46.7972 24.75 45.1095 25.0679 43.5234 25.6875C41.2859 21.0469 36.7656 18.7406 36.5594 18.6359C36.3857 18.549 36.1942 18.5038 36 18.5038C35.8058 18.5038 35.6143 18.549 35.4406 18.6359C35.2328 18.7406 30.7141 21.0469 28.4766 25.6875C26.8905 25.0679 25.2028 24.75 23.5 24.75C23.1685 24.75 22.8505 24.8817 22.6161 25.1161C22.3817 25.3505 22.25 25.6685 22.25 26V38.5C22.25 42.1467 23.6987 45.6441 26.2773 48.2227C28.8559 50.8013 32.3533 52.25 36 52.25C39.6467 52.25 43.1441 50.8013 45.7227 48.2227C48.3013 45.6441 49.75 42.1467 49.75 38.5V26C49.75 25.6685 49.6183 25.3505 49.3839 25.1161C49.1495 24.8817 48.8315 24.75 48.5 24.75ZM34.75 49.6812C32.0011 49.3705 29.4626 48.0591 27.6184 45.997C25.7742 43.935 24.7532 41.2664 24.75 38.5V36.0687C27.4989 36.3795 30.0374 37.6909 31.8816 39.753C33.7258 41.815 34.7468 44.4836 34.75 47.25V49.6812ZM34.75 39.3531C33.6037 37.7192 32.1154 36.3545 30.3885 35.3537C28.6616 34.3529 26.7376 33.7401 24.75 33.5578V27.3187C27.4989 27.6295 30.0374 28.9409 31.8816 31.003C33.7258 33.065 34.7468 35.7336 34.75 38.5V39.3531ZM30.7109 26.7984C32.1516 23.7953 34.8406 21.9 36 21.1875C37.1625 21.8969 39.8438 23.7812 41.2875 26.7984C38.976 28.2278 37.137 30.3065 36 32.775C34.8626 30.3063 33.023 28.2276 30.7109 26.7984ZM47.25 38.5C47.2468 41.2664 46.2258 43.935 44.3816 45.997C42.5374 48.0591 39.9989 49.3705 37.25 49.6812V47.25C37.2532 44.4836 38.2742 41.815 40.1184 39.753C41.9626 37.6909 44.5011 36.3795 47.25 36.0687V38.5ZM47.25 33.5578C45.2624 33.7401 43.3384 34.3529 41.6115 35.3537C39.8846 36.3545 38.3963 37.7192 37.25 39.3531V38.5C37.2532 35.7336 38.2742 33.065 40.1184 31.003C41.9626 28.9409 44.5011 27.6295 47.25 27.3187V33.5578Z" fill="url(#paint2_linear_3679_6473)"/>
<defs>
<linearGradient id="paint0_linear_3679_6473" x1="-0.799145" y1="36" x2="72.8028" y2="36" gradientUnits="userSpaceOnUse">
<stop stop-color="#D9C59A"/>
<stop offset="0.8" stop-color="#B28B31"/>
</linearGradient>
<linearGradient id="paint1_linear_3679_6473" x1="23.2225" y1="33.5" x2="48.7788" y2="33.5" gradientUnits="userSpaceOnUse">
<stop stop-color="#D9C59A"/>
<stop offset="0.8" stop-color="#B28B31"/>
</linearGradient>
<linearGradient id="paint2_linear_3679_6473" x1="21.9448" y1="35.3769" x2="50.0566" y2="35.3769" gradientUnits="userSpaceOnUse">
<stop stop-color="#D9C59A"/>
<stop offset="0.8" stop-color="#B28B31"/>
</linearGradient>
</defs>
</svg>
