<svg width="72" height="72" viewBox="0 0 72 72" fill="none" xmlns="http://www.w3.org/2000/svg">
<rect x="1" y="1" width="70" height="70" fill="white"/>
<rect x="1" y="1" width="70" height="70" stroke="url(#paint0_linear_3679_6613)" stroke-width="2"/>
<rect x="17" y="17" width="38" height="38" fill="white"/>
<rect x="17" y="17" width="38" height="38" stroke="url(#paint1_linear_3679_6613)" stroke-width="2"/>
<path opacity="0.2" d="M49.75 23.5V39.75C49.75 40.0815 49.6183 40.3995 49.3839 40.6339C49.1495 40.8683 48.8315 41 48.5 41H42.25V48.5C42.25 48.8315 42.1183 49.1495 41.8839 49.3839C41.6495 49.6183 41.3315 49.75 41 49.75H23.5C23.1685 49.75 22.8505 49.6183 22.6161 49.3839C22.3817 49.1495 22.25 48.8315 22.25 48.5V32.25C22.25 31.9185 22.3817 31.6005 22.6161 31.3661C22.8505 31.1317 23.1685 31 23.5 31H29.75V23.5C29.75 23.1685 29.8817 22.8505 30.1161 22.6161C30.3505 22.3817 30.6685 22.25 31 22.25H48.5C48.8315 22.25 49.1495 22.3817 49.3839 22.6161C49.6183 22.8505 49.75 23.1685 49.75 23.5Z" fill="url(#paint2_linear_3679_6613)"/>
<path d="M51 23.5V39.75C51 40.413 50.7366 41.0489 50.2678 41.5178C49.7989 41.9866 49.163 42.25 48.5 42.25H31.5172L33.1344 43.8656C33.2505 43.9818 33.3426 44.1196 33.4055 44.2714C33.4683 44.4231 33.5007 44.5858 33.5007 44.75C33.5007 44.9142 33.4683 45.0769 33.4055 45.2286C33.3426 45.3804 33.2505 45.5182 33.1344 45.6344C33.0182 45.7505 32.8804 45.8426 32.7286 45.9055C32.5769 45.9683 32.4142 46.0007 32.25 46.0007C32.0858 46.0007 31.9231 45.9683 31.7714 45.9055C31.6196 45.8426 31.4818 45.7505 31.3656 45.6344L27.6156 41.8844C27.4994 41.7683 27.4072 41.6304 27.3443 41.4787C27.2814 41.3269 27.249 41.1643 27.249 41C27.249 40.8357 27.2814 40.6731 27.3443 40.5213C27.4072 40.3696 27.4994 40.2317 27.6156 40.1156L31.3656 36.3656C31.6002 36.1311 31.9183 35.9993 32.25 35.9993C32.5817 35.9993 32.8998 36.1311 33.1344 36.3656C33.3689 36.6002 33.5007 36.9183 33.5007 37.25C33.5007 37.5817 33.3689 37.8998 33.1344 38.1344L31.5172 39.75H48.5V23.5H31V24.75C31 25.0815 30.8683 25.3995 30.6339 25.6339C30.3995 25.8683 30.0815 26 29.75 26C29.4185 26 29.1005 25.8683 28.8661 25.6339C28.6317 25.3995 28.5 25.0815 28.5 24.75V23.5C28.5 22.837 28.7634 22.2011 29.2322 21.7322C29.7011 21.2634 30.337 21 31 21H48.5C49.163 21 49.7989 21.2634 50.2678 21.7322C50.7366 22.2011 51 22.837 51 23.5ZM42.25 46C41.9185 46 41.6005 46.1317 41.3661 46.3661C41.1317 46.6005 41 46.9185 41 47.25V48.5H23.5V32.25H40.4828L38.8656 33.8656C38.6311 34.1002 38.4993 34.4183 38.4993 34.75C38.4993 35.0817 38.6311 35.3998 38.8656 35.6344C39.1002 35.8689 39.4183 36.0007 39.75 36.0007C40.0817 36.0007 40.3998 35.8689 40.6344 35.6344L44.3844 31.8844C44.5006 31.7683 44.5928 31.6304 44.6557 31.4787C44.7186 31.3269 44.751 31.1643 44.751 31C44.751 30.8357 44.7186 30.6731 44.6557 30.5213C44.5928 30.3696 44.5006 30.2317 44.3844 30.1156L40.6344 26.3656C40.3998 26.1311 40.0817 25.9993 39.75 25.9993C39.4183 25.9993 39.1002 26.1311 38.8656 26.3656C38.6311 26.6002 38.4993 26.9183 38.4993 27.25C38.4993 27.5817 38.6311 27.8998 38.8656 28.1344L40.4828 29.75H23.5C22.837 29.75 22.2011 30.0134 21.7322 30.4822C21.2634 30.9511 21 31.587 21 32.25V48.5C21 49.163 21.2634 49.7989 21.7322 50.2678C22.2011 50.7366 22.837 51 23.5 51H41C41.663 51 42.2989 50.7366 42.7678 50.2678C43.2366 49.7989 43.5 49.163 43.5 48.5V47.25C43.5 46.9185 43.3683 46.6005 43.1339 46.3661C42.8995 46.1317 42.5815 46 42.25 46Z" fill="url(#paint3_linear_3679_6613)"/>
<defs>
<linearGradient id="paint0_linear_3679_6613" x1="-0.799145" y1="36" x2="72.8028" y2="36" gradientUnits="userSpaceOnUse">
<stop stop-color="#D9C59A"/>
<stop offset="0.8" stop-color="#B28B31"/>
</linearGradient>
<linearGradient id="paint1_linear_3679_6613" x1="15.556" y1="36" x2="56.446" y2="36" gradientUnits="userSpaceOnUse">
<stop stop-color="#D9C59A"/>
<stop offset="0.8" stop-color="#B28B31"/>
</linearGradient>
<linearGradient id="paint2_linear_3679_6613" x1="21.9448" y1="36" x2="50.0566" y2="36" gradientUnits="userSpaceOnUse">
<stop stop-color="#D9C59A"/>
<stop offset="0.8" stop-color="#B28B31"/>
</linearGradient>
<linearGradient id="paint3_linear_3679_6613" x1="20.667" y1="36" x2="51.3345" y2="36" gradientUnits="userSpaceOnUse">
<stop stop-color="#D9C59A"/>
<stop offset="0.8" stop-color="#B28B31"/>
</linearGradient>
</defs>
</svg>
