<svg width="24" height="24" viewBox="0 0 24 24" fill="none" xmlns="http://www.w3.org/2000/svg">
<path d="M21.9415 7.21894C21.727 6.03438 21.1042 4.96305 20.1805 4.19189C19.2568 3.42067 18.091 2.99919 16.8878 3H6.63517C5.43512 3.00163 4.27347 3.42311 3.35225 4.19189C2.43019 4.95986 1.80654 6.02622 1.58886 7.20579C1.58479 7.22291 1.58234 7.24003 1.57989 7.25715C1.52853 7.54575 1.50245 7.83844 1.5 8.13192V15.8655C1.50082 17.3346 2.13346 18.7318 3.23567 19.7037C3.23567 19.7037 3.23567 19.7111 3.24301 19.7143C3.25034 19.7176 3.25524 19.7209 3.25931 19.7258V19.7249C4.19197 20.5467 5.39206 21 6.63532 21H16.8871C18.1303 21 19.3304 20.5467 20.2639 19.7258C20.2688 19.72 20.2762 19.7184 20.281 19.7135C20.2859 19.7086 20.2851 19.7062 20.2884 19.7021V19.7029C21.3906 18.732 22.0224 17.3337 22.0232 15.8655V8.13193C22.0232 7.82622 21.9955 7.52131 21.9417 7.22048L21.9415 7.21894ZM6.63673 4.041H16.8868C17.7877 4.04181 18.6625 4.34101 19.375 4.8913C20.0876 5.44159 20.5979 6.212 20.8262 7.0827L13.3234 12.0271C12.8595 12.3125 12.3272 12.4657 11.7834 12.4714C11.2388 12.4763 10.704 12.3328 10.2353 12.0565L2.68433 7.08595C2.91505 6.21363 3.42784 5.44322 4.14282 4.89205C4.85699 4.34176 5.73256 4.04256 6.63496 4.04094L6.63673 4.041ZM20.981 15.8679L20.9802 15.867C20.9785 16.882 20.5986 17.8587 19.9138 18.608L18.2197 16.9139C18.1227 16.8128 17.989 16.7557 17.8488 16.7549C17.7094 16.7533 17.5749 16.8087 17.4754 16.9073C17.3768 17.0068 17.3221 17.1413 17.323 17.2807C17.3246 17.421 17.3816 17.5547 17.4827 17.6517L19.1198 19.2887C18.4562 19.724 17.68 19.9556 16.8868 19.9556H6.63507C5.84183 19.9556 5.06653 19.724 4.40298 19.2887L6.04002 17.6517C6.14111 17.5547 6.19817 17.4209 6.1998 17.2807C6.20062 17.1413 6.146 17.0068 6.04735 16.9073C5.94789 16.8087 5.81337 16.7533 5.67396 16.7549C5.53373 16.7557 5.40003 16.8128 5.30303 16.9139L3.60893 18.608C2.92413 17.8579 2.54421 16.8805 2.54339 15.8654V8.24203L9.67441 12.9379C10.2981 13.3145 11.0139 13.5126 11.7427 13.5102C12.4976 13.511 13.2379 13.3023 13.8811 12.9069L20.977 8.23151V15.8655L20.981 15.8679Z" fill="white"/>
</svg>
