<svg width="398" height="377" viewBox="0 0 398 377" fill="none" xmlns="http://www.w3.org/2000/svg">
<mask id="mask0_5697_15419" style="mask-type:luminance" maskUnits="userSpaceOnUse" x="268" y="286" width="88" height="51">
<path d="M354.037 309.662L308.509 335.911C306.428 337.116 302.791 336.96 300.399 335.581L270.43 317.764C268.038 316.384 267.765 314.286 269.846 313.081L315.374 286.832C317.455 285.627 321.092 285.783 323.484 287.162L353.453 304.979C355.845 306.359 356.118 308.457 354.037 309.662Z" fill="white"/>
</mask>
<g mask="url(#mask0_5697_15419)">
<path d="M370.366 291.02L277.645 344.416L278.218 345.409L370.939 292.013L370.366 291.02Z" fill="#B28B31"/>
<path d="M373.487 292.692L280.766 346.088L281.339 347.081L374.06 293.685L373.487 292.692Z" fill="#B28B31"/>
<path d="M376.335 294.477L283.613 347.873L284.186 348.866L376.908 295.47L376.335 294.477Z" fill="#B28B31"/>
<path d="M379.55 296.039L286.848 349.467L287.421 350.46L380.124 297.032L379.55 296.039Z" fill="#B28B31"/>
<path d="M382.171 297.944L289.449 351.34L290.022 352.333L382.744 298.937L382.171 297.944Z" fill="#B28B31"/>
<path d="M385.316 299.547L292.613 352.975L293.187 353.968L385.889 300.54L385.316 299.547Z" fill="#B28B31"/>
<path d="M388.163 301.389L295.441 354.785L296.014 355.778L388.736 302.383L388.163 301.389Z" fill="#B28B31"/>
<path d="M391.342 303.04L298.621 356.436L299.194 357.429L391.915 304.033L391.342 303.04Z" fill="#B28B31"/>
<path d="M394.216 304.772L301.504 358.184L302.077 359.177L394.789 305.765L394.216 304.772Z" fill="#B28B31"/>
<path d="M397.407 306.418L304.695 359.83L305.269 360.823L397.981 307.411L397.407 306.418Z" fill="#B28B31"/>
<path d="M400.232 308.239L307.52 361.65L308.093 362.643L400.805 309.232L400.232 308.239Z" fill="#B28B31"/>
<path d="M403.428 309.891L310.707 363.287L311.28 364.28L404.001 310.885L403.428 309.891Z" fill="#B28B31"/>
<path d="M406.082 311.658L313.379 365.086L313.952 366.079L406.655 312.651L406.082 311.658Z" fill="#B28B31"/>
<path d="M409.214 313.382L316.492 366.777L317.065 367.771L409.787 314.375L409.214 313.382Z" fill="#B28B31"/>
<path d="M412.067 315.151L319.355 368.562L319.929 369.556L412.641 316.144L412.067 315.151Z" fill="#B28B31"/>
<path d="M415.245 316.805L322.523 370.201L323.096 371.194L415.818 317.799L415.245 316.805Z" fill="#B28B31"/>
<path d="M418.091 318.58L325.379 371.992L325.952 372.985L418.664 319.573L418.091 318.58Z" fill="#B28B31"/>
<path d="M328.435 266.994L235.723 320.406L236.296 321.399L329.008 267.987L328.435 266.994Z" fill="#B28B31"/>
<path d="M331.651 268.622L238.93 322.018L239.503 323.011L332.224 269.615L331.651 268.622Z" fill="#B28B31"/>
<path d="M334.268 270.47L241.547 323.865L242.12 324.858L334.841 271.463L334.268 270.47Z" fill="#B28B31"/>
<path d="M337.424 272.132L244.703 325.527L245.276 326.52L337.997 273.125L337.424 272.132Z" fill="#B28B31"/>
<path d="M340.267 273.905L247.555 327.316L248.128 328.309L340.84 274.898L340.267 273.905Z" fill="#B28B31"/>
<path d="M343.452 275.546L250.73 328.941L251.304 329.935L344.025 276.539L343.452 275.546Z" fill="#B28B31"/>
<path d="M346.303 277.339L253.582 330.734L254.155 331.728L346.876 278.332L346.303 277.339Z" fill="#B28B31"/>
<path d="M349.497 278.973L256.785 332.385L257.358 333.378L350.07 279.966L349.497 278.973Z" fill="#B28B31"/>
<path d="M352.327 280.768L259.605 334.164L260.179 335.157L352.9 281.762L352.327 280.768Z" fill="#B28B31"/>
<path d="M355.517 282.405L262.805 335.816L263.378 336.809L356.09 283.398L355.517 282.405Z" fill="#B28B31"/>
<path d="M358.173 284.237L265.461 337.648L266.034 338.641L358.746 285.23L358.173 284.237Z" fill="#B28B31"/>
<path d="M361.3 285.857L268.598 339.285L269.171 340.278L361.874 286.85L361.3 285.857Z" fill="#B28B31"/>
<path d="M364.151 287.702L271.43 341.098L272.003 342.091L364.724 288.695L364.151 287.702Z" fill="#B28B31"/>
<path d="M367.36 289.315L274.648 342.727L275.222 343.72L367.934 290.308L367.36 289.315Z" fill="#B28B31"/>
<path d="M370.192 291.098L277.48 344.51L278.054 345.503L370.766 292.091L370.192 291.098Z" fill="#B28B31"/>
</g>
<mask id="mask1_5697_15419" style="mask-type:luminance" maskUnits="userSpaceOnUse" x="247" y="245" width="88" height="52">
<path d="M333.556 269.289L288.028 295.538C285.947 296.743 282.311 296.587 279.919 295.208L249.949 277.391C247.557 276.011 247.285 273.913 249.366 272.708L294.894 246.459C296.975 245.254 300.611 245.41 303.003 246.789L332.973 264.606C335.365 265.986 335.637 268.084 333.556 269.289Z" fill="white"/>
</mask>
<g mask="url(#mask1_5697_15419)">
<path d="M349.913 250.649L257.191 304.045L257.764 305.038L350.486 251.642L349.913 250.649Z" fill="#B28B31"/>
<path d="M353.052 252.291L260.34 305.703L260.913 306.696L353.625 253.284L353.052 252.291Z" fill="#B28B31"/>
<path d="M355.903 254.065L263.191 307.477L263.765 308.47L356.477 255.058L355.903 254.065Z" fill="#B28B31"/>
<path d="M359.081 255.745L266.359 309.141L266.932 310.134L359.654 256.738L359.081 255.745Z" fill="#B28B31"/>
<path d="M361.725 257.561L269.004 310.957L269.577 311.95L362.298 258.554L361.725 257.561Z" fill="#B28B31"/>
<path d="M364.863 259.17L272.16 312.598L272.734 313.591L365.436 260.163L364.863 259.17Z" fill="#B28B31"/>
<path d="M367.708 261.004L274.996 314.416L275.569 315.409L368.281 261.997L367.708 261.004Z" fill="#B28B31"/>
<path d="M370.911 262.604L278.199 316.016L278.772 317.009L371.484 263.597L370.911 262.604Z" fill="#B28B31"/>
<path d="M373.739 264.426L281.027 317.838L281.601 318.831L374.313 265.419L373.739 264.426Z" fill="#B28B31"/>
<path d="M376.932 266.087L284.211 319.482L284.784 320.476L377.505 267.08L376.932 266.087Z" fill="#B28B31"/>
<path d="M379.775 267.854L287.062 321.266L287.636 322.259L380.348 268.847L379.775 267.854Z" fill="#B28B31"/>
<path d="M382.993 269.475L290.281 322.887L290.854 323.88L383.566 270.468L382.993 269.475Z" fill="#B28B31"/>
<path d="M385.617 271.299L292.914 324.727L293.487 325.72L386.19 272.291L385.617 271.299Z" fill="#B28B31"/>
<path d="M388.741 273.026L296.02 326.422L296.593 327.415L389.314 274.019L388.741 273.026Z" fill="#B28B31"/>
<path d="M391.61 274.783L298.898 328.195L299.472 329.188L392.184 275.777L391.61 274.783Z" fill="#B28B31"/>
<path d="M394.786 276.414L302.074 329.826L302.647 330.819L395.359 277.407L394.786 276.414Z" fill="#B28B31"/>
<path d="M397.642 278.176L304.93 331.588L305.503 332.581L398.215 279.169L397.642 278.176Z" fill="#B28B31"/>
<path d="M307.985 226.6L215.273 280.012L215.847 281.005L308.559 227.593L307.985 226.6Z" fill="#B28B31"/>
<path d="M311.169 228.248L218.457 281.66L219.03 282.653L311.742 229.241L311.169 228.248Z" fill="#B28B31"/>
<path d="M313.81 230.065L221.098 283.477L221.671 284.47L314.383 231.058L313.81 230.065Z" fill="#B28B31"/>
<path d="M316.954 231.737L224.242 285.148L224.815 286.142L317.527 232.73L316.954 231.737Z" fill="#B28B31"/>
<path d="M319.796 233.496L227.094 286.924L227.667 287.917L320.37 234.489L319.796 233.496Z" fill="#B28B31"/>
<path d="M323.005 235.158L230.293 288.57L230.866 289.563L323.578 236.151L323.005 235.158Z" fill="#B28B31"/>
<path d="M325.85 236.968L233.129 290.363L233.702 291.356L326.423 237.961L325.85 236.968Z" fill="#B28B31"/>
<path d="M329.04 238.608L236.328 292.02L236.901 293.013L329.613 239.601L329.04 238.608Z" fill="#B28B31"/>
<path d="M331.874 240.397L239.152 293.793L239.725 294.786L332.447 241.39L331.874 240.397Z" fill="#B28B31"/>
<path d="M335.061 242.046L242.34 295.441L242.913 296.435L335.634 243.039L335.061 242.046Z" fill="#B28B31"/>
<path d="M337.725 243.88L245.004 297.275L245.577 298.269L338.298 244.873L337.725 243.88Z" fill="#B28B31"/>
<path d="M340.859 245.496L248.156 298.924L248.73 299.917L341.432 246.489L340.859 245.496Z" fill="#B28B31"/>
<path d="M343.698 247.309L250.977 300.705L251.55 301.698L344.271 248.303L343.698 247.309Z" fill="#B28B31"/>
<path d="M346.896 248.91L254.184 302.322L254.757 303.315L347.469 249.903L346.896 248.91Z" fill="#B28B31"/>
<path d="M349.716 250.733L257.004 304.145L257.577 305.138L350.289 251.726L349.716 250.733Z" fill="#B28B31"/>
</g>
<mask id="mask2_5697_15419" style="mask-type:luminance" maskUnits="userSpaceOnUse" x="175" y="222" width="78" height="52">
<path d="M251.526 246.38L205.998 272.63C203.917 273.834 200.28 273.679 197.888 272.299L182.933 263.42L182.524 254.677L175.406 245.156L212.844 223.551C214.925 222.346 218.561 222.502 220.953 223.881L250.923 241.698C253.315 243.077 253.587 245.176 251.506 246.38H251.526Z" fill="white"/>
</mask>
<g mask="url(#mask2_5697_15419)">
<path d="M263.382 220.522L170.66 273.918L171.233 274.911L263.955 221.515L263.382 220.522Z" fill="#B28B31"/>
<path d="M266.519 222.146L173.816 275.574L174.39 276.567L267.092 223.139L266.519 222.146Z" fill="#B28B31"/>
<path d="M269.346 223.962L176.625 277.357L177.198 278.351L269.919 224.955L269.346 223.962Z" fill="#B28B31"/>
<path d="M272.548 225.586L179.836 278.998L180.409 279.991L273.121 226.579L272.548 225.586Z" fill="#B28B31"/>
<path d="M275.173 227.408L182.461 280.82L183.034 281.813L275.746 228.402L275.173 227.408Z" fill="#B28B31"/>
<path d="M278.333 229.092L185.621 282.504L186.194 283.497L278.906 230.085L278.333 229.092Z" fill="#B28B31"/>
<path d="M281.165 230.858L188.453 284.27L189.026 285.263L281.738 231.851L281.165 230.858Z" fill="#B28B31"/>
<path d="M284.37 232.54L191.648 285.936L192.221 286.929L284.943 233.533L284.37 232.54Z" fill="#B28B31"/>
<path d="M287.216 234.28L194.504 287.691L195.077 288.684L287.789 235.273L287.216 234.28Z" fill="#B28B31"/>
<path d="M290.413 235.962L197.691 289.357L198.264 290.351L290.986 236.955L290.413 235.962Z" fill="#B28B31"/>
<path d="M293.255 237.744L200.543 291.156L201.116 292.149L293.828 238.737L293.255 237.744Z" fill="#B28B31"/>
<path d="M296.444 239.393L203.723 292.789L204.296 293.782L297.017 240.387L296.444 239.393Z" fill="#B28B31"/>
<path d="M299.075 241.209L206.363 294.621L206.936 295.614L299.648 242.202L299.075 241.209Z" fill="#B28B31"/>
<path d="M302.21 242.884L209.488 296.279L210.061 297.272L302.783 243.877L302.21 242.884Z" fill="#B28B31"/>
<path d="M305.06 244.645L212.348 298.057L212.921 299.05L305.633 245.638L305.06 244.645Z" fill="#B28B31"/>
<path d="M308.257 246.307L215.535 299.703L216.108 300.696L308.83 247.301L308.257 246.307Z" fill="#B28B31"/>
<path d="M311.12 248.089L218.398 301.484L218.971 302.478L311.693 249.082L311.12 248.089Z" fill="#B28B31"/>
<path d="M221.453 196.457L128.75 249.885L129.323 250.878L222.026 197.45L221.453 196.457Z" fill="#B28B31"/>
<path d="M224.668 198.091L131.965 251.52L132.538 252.512L225.241 199.084L224.668 198.091Z" fill="#B28B31"/>
<path d="M227.282 199.963L134.57 253.375L135.144 254.368L227.856 200.956L227.282 199.963Z" fill="#B28B31"/>
<path d="M230.439 201.608L137.727 255.02L138.3 256.013L231.012 202.601L230.439 201.608Z" fill="#B28B31"/>
<path d="M233.263 203.408L140.551 256.82L141.124 257.813L233.836 204.402L233.263 203.408Z" fill="#B28B31"/>
<path d="M236.462 205.039L143.75 258.451L144.323 259.444L237.035 206.032L236.462 205.039Z" fill="#B28B31"/>
<path d="M239.31 206.795L146.598 260.207L147.171 261.2L239.883 207.788L239.31 206.795Z" fill="#B28B31"/>
<path d="M242.503 208.457L149.801 261.885L150.374 262.878L243.077 209.45L242.503 208.457Z" fill="#B28B31"/>
<path d="M245.354 210.29L152.633 263.686L153.206 264.679L245.927 211.283L245.354 210.29Z" fill="#B28B31"/>
<path d="M248.538 211.919L155.816 265.314L156.389 266.308L249.111 212.912L248.538 211.919Z" fill="#B28B31"/>
<path d="M251.189 213.705L158.477 267.117L159.05 268.11L251.762 214.698L251.189 213.705Z" fill="#B28B31"/>
<path d="M254.321 215.397L161.609 268.809L162.183 269.802L254.895 216.39L254.321 215.397Z" fill="#B28B31"/>
<path d="M257.155 217.212L164.434 270.607L165.007 271.601L257.728 218.205L257.155 217.212Z" fill="#B28B31"/>
<path d="M260.366 218.833L167.645 272.229L168.218 273.222L260.939 219.826L260.366 218.833Z" fill="#B28B31"/>
<path d="M263.192 220.582L170.48 273.994L171.054 274.987L263.766 221.575L263.192 220.582Z" fill="#B28B31"/>
</g>
<path d="M92.8797 64.8117L131.212 41.3408C131.212 41.3408 131.231 41.3408 131.251 41.3408L154.16 54.5529C154.16 54.5529 154.18 54.5918 154.16 54.6112L115.828 78.1015C115.828 78.1015 115.809 78.1015 115.789 78.1015L92.8797 64.8894C92.8797 64.8894 92.8603 64.8506 92.8797 64.8311V64.8117Z" fill="white"/>
<path d="M115.83 79.4225L115.208 79.0922L91.7342 65.5498L91.6953 64.2092L92.2788 63.84L131.194 40L131.817 40.3303L155.31 53.8727V54.5722V55.2133L154.726 55.5825L115.83 79.4225ZM95.0793 64.8115L115.791 76.7607L151.965 54.611L131.253 42.6618L95.0793 64.8115Z" fill="#B28B31"/>
<path d="M115.84 214.03L154.172 190.54C154.172 190.54 154.172 190.54 154.172 190.52V162.425C154.172 162.425 154.152 162.386 154.113 162.406L115.781 185.896C115.781 185.896 115.781 185.896 115.781 185.916V214.011C115.781 214.011 115.801 214.05 115.84 214.03Z" fill="#B28B31"/>
<path d="M115.854 215.352L114.648 214.692V213.992V185.217L115.251 184.848L154.128 161.027L155.334 161.669V162.368V191.085L154.809 191.454L115.854 215.313V215.352ZM116.943 186.519V211.991L153.039 189.88V164.408L116.943 186.519Z" fill="#B28B31"/>
<path d="M130.043 194.037L168.375 170.547C168.375 170.547 168.375 170.547 168.375 170.528V148.281C168.375 148.281 168.355 148.242 168.316 148.261L129.984 171.752C129.984 171.752 129.984 171.752 129.984 171.771V194.018C129.984 194.018 130.004 194.057 130.043 194.037Z" fill="#B28B31"/>
<path d="M130.038 195.358L128.832 194.697V193.998V171.149L129.357 170.779L168.292 146.92L169.498 147.561V148.261V171.168L168.895 171.537L129.999 195.358H130.038ZM131.127 172.392V192.016L167.222 169.905V150.281L131.127 172.392Z" fill="#B28B31"/>
<path d="M63.082 133.145L101.472 109.636L129.847 125.995L91.4566 149.525L63.082 133.145Z" fill="white"/>
<path d="M91.4703 150.846L60.8203 133.165L101.447 108.275L132.097 125.956L91.4703 150.846ZM65.3128 133.126L91.412 148.184L127.585 126.034L101.486 110.976L65.3128 133.126Z" fill="#B28B31"/>
<path d="M63.0954 133.145L101.486 109.635L91.859 97.2002L72.6444 102.174L59.8281 125.995L63.0954 133.145Z" fill="#B28B31"/>
<path d="M62.5921 134.816L58.5469 125.956L71.8882 101.203L92.328 95.918L103.199 109.946L62.5921 134.816ZM61.114 126.034L63.6034 131.493L99.7961 109.324L91.414 98.5215L73.4246 103.165L61.114 126.034Z" fill="#B28B31"/>
<path d="M129.929 194.038L115.848 185.916C115.848 185.916 115.79 185.916 115.79 185.955V213.895C115.79 213.895 115.693 214.031 115.634 213.992L91.4605 200.061C91.4605 200.061 91.4605 200.061 91.4605 200.041V171.907V171.888L41.168 142.841C41.168 142.841 41.168 142.841 41.168 142.821V122.867C41.168 122.867 41.168 122.867 41.168 122.848L92.8024 64.8701C92.8024 64.8701 92.8218 64.8701 92.8413 64.8701L115.77 78.1016C115.77 78.1016 115.77 78.1016 115.77 78.1405V163.553V163.572L129.929 171.733C129.929 171.733 129.929 171.733 129.929 171.752V193.999C129.929 193.999 129.909 194.038 129.87 194.038H129.929ZM91.4021 149.486C91.4021 149.486 91.4605 149.486 91.4605 149.447V126.442C91.4605 122.595 91.5966 117.097 91.8689 109.927C92.1411 102.758 92.3551 98.6387 92.5107 97.5506L91.8689 97.1814C89.8852 101.126 87.4931 104.701 84.6926 107.926L63.1247 133.087C63.1247 133.087 63.1247 133.126 63.1247 133.146L91.4216 149.466L91.4021 149.486Z" fill="#F7F3EB"/>
<path d="M115.692 215.119C115.478 215.119 115.244 215.061 115.05 214.944L90.312 200.683V199.983V172.491L40 143.502V142.802V122.362L40.3501 122.013L92.5485 63.4131L93.4042 63.86L116.936 77.4218V78.1212V162.892L131.114 171.072V171.772V194.66L129.986 195.359L129.344 195.029L116.936 187.879V214.555L116.294 214.983C116.1 215.099 115.886 215.138 115.672 215.138L115.692 215.119ZM92.6068 199.342L114.641 212.049V185.256L115.808 184.556L116.411 184.887L128.838 192.056V172.393L114.661 164.214V163.514V78.743L93.0736 66.2887L42.2949 123.275V142.161L92.5874 171.169V171.869V199.362L92.6068 199.342ZM91.4399 150.807L90.8176 150.477L62.0346 133.884L61.8595 132.757L62.2485 132.33L83.7774 107.207C86.5001 104.06 88.8534 100.524 90.7982 96.6959L91.3427 95.6078L93.7154 96.9679L93.5987 97.7451C93.5014 98.464 93.2875 101.184 92.9569 109.986C92.6846 117.116 92.5485 122.654 92.5485 126.443V150.108L91.3816 150.807H91.4399ZM64.8545 132.854L90.2925 147.524V126.462C90.2925 122.634 90.4286 117.077 90.7009 109.908C90.8371 106.061 90.9732 103.108 91.0899 101.009C89.4562 103.768 87.6087 106.352 85.5472 108.723L64.8545 132.874V132.854Z" fill="#B28B31"/>
<path d="M116.19 163.32L154.074 140.121C154.074 140.121 154.191 139.985 154.191 139.907V55.0391C154.191 54.8448 153.977 54.7088 153.802 54.8254L115.917 78.0242C115.917 78.0242 115.801 78.1602 115.801 78.238V163.087C115.801 163.281 116.015 163.417 116.19 163.3V163.32Z" fill="#B28B31"/>
<path d="M116.049 164.504C115.815 164.504 115.582 164.446 115.368 164.329C114.921 164.077 114.648 163.61 114.648 163.105V78.237C114.648 77.7512 114.901 77.3043 115.31 77.0323L153.194 53.8335C153.622 53.5614 154.186 53.5614 154.614 53.814C155.061 54.0666 155.334 54.5329 155.334 55.0381V139.887C155.334 140.373 155.081 140.839 154.653 141.092L116.788 164.29C116.554 164.426 116.302 164.504 116.049 164.504ZM116.943 78.7421V161.512L153.039 139.401V56.6313L116.943 78.7421Z" fill="#B28B31"/>
<path d="M115.848 163.533L154.18 140.043C154.18 140.043 154.2 140.043 154.219 140.043L168.339 148.184C168.339 148.184 168.358 148.223 168.339 148.242L130.007 171.733C130.007 171.733 129.987 171.733 129.968 171.733L115.848 163.592C115.848 163.592 115.829 163.553 115.848 163.533Z" fill="white"/>
<path d="M130.012 173.073L129.39 172.743L114.707 164.272L114.648 162.95L115.232 162.562L154.147 138.722L154.77 139.052L169.453 147.523L169.492 148.864L168.908 149.233L129.993 173.073H130.012ZM118.032 163.533L129.954 170.411L166.127 148.262L154.206 141.384L118.032 163.533Z" fill="#B28B31"/>
<path d="M150.191 180.337L132.91 190.912L134.109 192.867L151.389 182.292L150.191 180.337Z" fill="#F7F3EB"/>
<path d="M150.943 125.012L117.695 145.366L118.894 147.321L152.142 126.966L150.943 125.012Z" fill="#F7F3EB"/>
<path d="M128.026 119.831L117.695 126.155L118.894 128.11L129.225 121.785L128.026 119.831Z" fill="#F7F3EB"/>
<path d="M259.313 183.274C259.313 160.327 255.832 140.917 248.869 124.985C241.907 109.072 231.638 97.1813 218.044 89.3512C206.512 82.6868 197.468 81.4239 190.875 85.3875L152.582 108.742C152.582 108.742 152.485 108.839 152.485 108.897L149.898 141.403C149.898 141.403 149.898 141.422 149.898 141.442L158.514 220.034C158.514 220.034 158.533 220.131 158.572 220.151L177.806 240.63C177.806 240.63 177.884 240.688 177.942 240.688L200.385 243.389C200.385 243.389 200.522 243.447 200.56 243.525L206.22 257.009C206.278 257.125 206.414 257.183 206.531 257.106L245.019 233.441C246.535 232.586 247.955 231.536 249.219 230.138C255.968 222.618 259.332 206.997 259.332 183.254L259.313 183.274Z" fill="white"/>
<path d="M206.394 258.31C206.258 258.31 206.122 258.29 205.985 258.252C205.616 258.135 205.305 257.844 205.149 257.494L199.704 244.495L177.397 241.814L176.988 241.445L157.482 220.694L157.385 220.209L148.75 141.461V141.286L151.356 108.819C151.375 108.392 151.628 107.984 152.017 107.77L190.31 84.4155C197.292 80.2187 206.822 81.5399 218.646 88.3597C232.396 96.287 242.937 108.469 249.957 124.538C256.939 140.528 260.498 160.288 260.498 183.273C260.498 207.54 257.095 223.123 250.093 230.934C248.888 232.274 247.429 233.44 245.62 234.47L207.152 258.116C206.938 258.252 206.686 258.31 206.433 258.31H206.394ZM178.408 239.619L200.521 242.28C201.007 242.339 201.415 242.65 201.61 243.097L206.861 255.59L244.415 232.488C246.068 231.555 247.293 230.584 248.363 229.399C254.878 222.132 258.184 206.608 258.184 183.273C258.184 159.938 254.703 141.15 247.838 125.451C241.011 109.829 230.801 98.0356 217.479 90.3415C206.452 83.9686 197.701 82.6474 191.497 86.3779L153.612 109.48L151.064 141.422L159.621 219.606L178.408 239.599V239.619Z" fill="#B28B31"/>
<path d="M190.78 85.3873L152.487 108.742C152.487 108.742 152.39 108.839 152.39 108.897L151.281 122.77L162.542 123.974L168.843 121.449L174.813 110.354L213.437 86.9611C204.024 82.4534 196.478 81.9483 190.78 85.3679V85.3873Z" fill="#F7F3EB"/>
<path d="M162.711 125.179L150.051 123.819L151.237 108.82C151.257 108.392 151.509 107.984 151.898 107.77L190.191 84.4161C196.24 80.7828 204.233 81.288 213.937 85.951L215.843 86.8642L175.664 111.209L169.635 122.401L162.673 125.179H162.711ZM152.521 121.76L162.381 122.828L168.04 120.574L173.972 109.577L211.001 87.1362C202.93 83.6584 196.337 83.4058 191.397 86.3785L153.513 109.48L152.54 121.76H152.521Z" fill="#B28B31"/>
<path d="M245.138 117.407L206.242 139.945L201.185 148.961L206.222 183.662L198.657 240.785L197.879 243L200.368 243.291C200.368 243.291 200.504 243.349 200.543 243.427L206.203 256.911C206.261 257.028 206.397 257.086 206.514 257.008L245.001 233.343C246.518 232.488 247.938 231.439 249.202 230.04C255.951 222.521 259.315 206.9 259.315 183.157C259.315 159.414 255.834 140.8 248.872 124.868C247.724 122.265 246.46 119.797 245.138 117.388V117.407Z" fill="#F7F3EB"/>
<path d="M206.402 258.194C206.266 258.194 206.13 258.175 205.994 258.136C205.605 258.019 205.313 257.728 205.158 257.378L199.712 244.38L196.348 243.972L197.553 240.533L205.08 183.682L200.004 148.748L205.41 139.11L245.59 115.814L246.154 116.844C247.69 119.642 248.896 122.051 249.927 124.402C256.909 140.393 260.468 160.153 260.468 183.138C260.468 207.405 257.064 222.988 250.063 230.798C248.857 232.139 247.379 233.305 245.59 234.335L207.122 257.98C206.908 258.116 206.655 258.175 206.402 258.175V258.194ZM199.459 242.029L200.529 242.165C201.015 242.223 201.424 242.534 201.618 242.981L206.869 255.474L244.423 232.372C246.057 231.44 247.301 230.468 248.371 229.283C254.886 222.016 258.192 206.492 258.192 183.157C258.192 159.822 254.711 141.034 247.846 125.335C246.971 123.334 245.979 121.294 244.734 118.981L207.141 140.781L202.415 149.175L207.433 183.662L199.79 241.174L199.498 242.029H199.459Z" fill="#B28B31"/>
<path d="M254.03 140.179L215.348 162.62L207.199 172.568L210.991 196.932L198.02 243.136L200.295 243.408C200.295 243.408 200.431 243.466 200.47 243.544L206.129 257.028C206.188 257.145 206.324 257.203 206.441 257.125L244.928 233.46C246.445 232.605 247.865 231.556 249.129 230.157C255.877 222.638 259.242 207.016 259.242 183.273C259.242 167.166 257.491 152.827 254.049 140.179H254.03Z" fill="#B28B31"/>
<path d="M206.306 258.311C206.17 258.311 206.034 258.292 205.897 258.253C205.508 258.136 205.217 257.845 205.061 257.476L199.616 244.497L196.543 244.127L209.806 196.855L205.975 172.238L214.766 161.63L254.751 138.45L255.14 139.888C258.601 152.673 260.371 167.264 260.371 183.274C260.371 207.542 256.968 223.124 249.967 230.935C248.761 232.275 247.283 233.441 245.494 234.471L207.025 258.117C206.812 258.253 206.559 258.311 206.306 258.311ZM199.46 242.165L200.413 242.282C200.899 242.34 201.308 242.651 201.502 243.098L206.753 255.571L244.307 232.47C245.941 231.537 247.186 230.566 248.255 229.38C254.77 222.114 258.076 206.59 258.076 183.255C258.076 168.041 256.482 154.149 253.312 141.909L216.108 163.475L208.406 172.86L212.14 196.953L199.46 242.107V242.165Z" fill="#B28B31"/>
<path d="M167.312 216.77L206.15 193.668C206.15 193.668 205.1 186.499 204.672 183.682C204.244 180.864 199.421 157.763 198.779 156.286C198.157 154.809 192.206 130.658 179.312 128.346L166.418 126.034L155.916 147.038C155.916 147.038 158.016 150.613 154.865 171.402C151.715 192.192 151.715 190.307 151.715 190.307C151.715 190.307 154.651 210.183 155.916 210.533C157.18 210.883 167.332 216.77 167.332 216.77H167.312Z" fill="#F7F3EB"/>
<path d="M167.303 218.091L166.72 217.742C161.838 214.924 156.335 211.854 155.576 211.621C154.798 211.408 153.631 211.077 150.695 191.415H150.559V190.288L151.453 190.229L150.675 189.899C150.773 189.588 151.298 187.334 153.729 171.227C156.685 151.681 154.973 147.718 154.896 147.562L154.662 147.057L154.896 146.513L165.786 124.732L179.536 127.2C187.626 128.657 194.355 137.906 199.509 154.712C199.684 155.276 199.801 155.664 199.859 155.82C200.618 157.588 205.499 181.272 205.83 183.487C206.258 186.305 207.308 193.474 207.308 193.474L207.425 194.232L167.342 218.072L167.303 218.091ZM156.568 209.562C158.435 210.358 164.6 213.875 167.284 215.43L204.877 193.066C204.605 191.143 203.846 186.091 203.515 183.837C203.068 180.884 198.284 158.151 197.701 156.733C197.623 156.558 197.487 156.092 197.273 155.412C191.185 135.594 184.029 130.367 179.089 129.493L167.031 127.336L157.132 147.135C157.657 148.903 158.532 154.712 155.965 171.596C154.137 183.604 153.417 188.403 152.834 190.307C154.079 198.681 155.771 207.91 156.568 209.581V209.562Z" fill="#B28B31"/>
<path d="M163.316 199.75L202.154 176.648C202.154 176.648 201.103 169.478 200.676 166.661C200.248 163.844 195.425 140.742 194.783 139.265C194.161 137.789 188.209 113.638 175.315 111.326L162.421 109.014L151.92 130.017C151.92 130.017 154.02 133.592 150.869 154.382C147.719 175.171 147.719 173.287 147.719 173.287C147.719 173.287 150.655 193.163 151.92 193.513C153.184 193.862 163.335 199.75 163.335 199.75H163.316Z" fill="#B28B31"/>
<path d="M163.319 201.09L162.736 200.76C157.854 197.943 152.35 194.873 151.592 194.64C150.814 194.426 149.647 194.096 146.71 174.433H146.574V173.306L147.469 173.248L146.691 172.918C146.788 172.607 147.313 170.353 149.744 154.246C152.7 134.7 150.989 130.736 150.911 130.581L150.678 130.076L150.911 129.531L161.802 107.751L175.552 110.219C183.642 111.676 190.371 120.924 195.525 137.731C195.7 138.294 195.817 138.683 195.875 138.838C196.633 140.626 201.515 164.31 201.845 166.506C202.273 169.323 203.323 176.493 203.323 176.493L203.44 177.25L163.358 201.09H163.319ZM152.584 192.541C154.451 193.338 160.616 196.855 163.299 198.409L200.892 176.046C200.62 174.122 199.862 169.071 199.531 166.817C199.084 163.863 194.3 141.15 193.716 139.713C193.638 139.538 193.502 139.071 193.288 138.391C187.201 118.573 180.044 113.347 175.104 112.472L163.047 110.316L153.148 130.114C153.673 131.882 154.548 137.692 151.981 154.576C150.153 166.584 149.433 171.383 148.85 173.287C150.094 181.661 151.786 190.89 152.584 192.561V192.541Z" fill="#B28B31"/>
<path d="M220.905 206.803C220.905 230.546 217.541 246.187 210.792 253.686C204.044 261.206 193.658 260.914 179.636 252.831C166.042 244.982 155.793 233.188 148.889 217.431C141.985 201.674 138.523 182.283 138.523 159.298C138.523 136.313 141.888 119.564 148.597 112.064C155.307 104.565 165.653 104.837 179.636 112.9C193.231 120.749 203.519 132.621 210.462 148.534C217.424 164.447 220.905 183.876 220.905 206.822V206.803ZM163.281 173.559C163.281 190.23 164.525 202.898 167.034 211.563C169.524 220.229 173.744 226.271 179.656 229.671C185.451 233.013 189.652 231.77 192.239 225.96C194.825 220.151 196.109 208.979 196.109 192.483C196.109 175.988 194.806 163.067 192.2 154.285C189.594 145.503 185.413 139.441 179.656 136.138C173.802 132.757 169.601 133.981 167.073 139.81C164.545 145.639 163.281 156.888 163.281 173.559Z" fill="#F7F3EB"/>
<path d="M198.547 260.253C193.004 260.253 186.508 258.116 179.06 253.822C165.31 245.895 154.808 233.81 147.826 217.878C140.883 202.043 137.363 182.322 137.363 159.278C137.363 134.758 140.747 119.059 147.729 111.268C154.828 103.34 165.757 103.535 180.188 111.87C193.937 119.797 204.478 131.98 211.499 148.048C218.481 164.038 222.04 183.798 222.04 206.783C222.04 231.051 218.636 246.633 211.635 254.444C208.173 258.31 203.778 260.253 198.527 260.253H198.547ZM160.876 107.732C156.286 107.732 152.494 109.422 149.46 112.803C142.964 120.05 139.678 135.691 139.678 159.278C139.678 182.866 143.139 201.421 149.946 216.964C156.714 232.43 166.905 244.146 180.227 251.84C193.84 259.69 203.564 260.059 209.943 252.928C216.458 245.662 219.764 230.138 219.764 206.803C219.764 183.468 216.283 164.68 209.418 148.98C202.592 133.359 192.382 121.565 179.06 113.871C171.961 109.772 165.913 107.732 160.876 107.732ZM185.361 232.663C183.455 232.663 181.355 232.003 179.06 230.682C172.914 227.126 168.48 220.811 165.913 211.893C163.404 203.169 162.121 190.268 162.121 173.559C162.121 156.849 163.385 145.367 166.01 139.343C167.372 136.215 169.239 134.253 171.553 133.476C174.003 132.66 176.92 133.223 180.227 135.127C186.217 138.586 190.612 144.92 193.296 153.954C195.921 162.814 197.263 175.774 197.263 192.483C197.263 209.193 195.96 220.384 193.296 226.427C191.915 229.574 190.009 231.537 187.675 232.314C186.956 232.547 186.197 232.663 185.38 232.663H185.361ZM173.867 135.419C173.303 135.419 172.778 135.496 172.272 135.671C170.6 136.215 169.2 137.77 168.13 140.257C165.68 145.911 164.435 157.121 164.435 173.559C164.435 189.996 165.68 202.742 168.13 211.252C170.542 219.587 174.606 225.455 180.207 228.68C182.872 230.215 185.128 230.701 186.917 230.118C188.609 229.574 190.028 228.02 191.137 225.494C193.646 219.84 194.91 208.726 194.91 192.483C194.91 176.24 193.607 163.261 191.04 154.615C188.531 146.163 184.486 140.276 179.04 137.128C177.076 136.002 175.326 135.419 173.828 135.419H173.867Z" fill="#B28B31"/>
<path d="M253.028 160.188L222.707 177.551L223.848 179.54L254.169 162.178L253.028 160.188Z" fill="#F7F3EB"/>
<path d="M179.126 162.606L166.391 170.402L167.59 172.357L180.325 164.561L179.126 162.606Z" fill="#F7F3EB"/>
<path d="M254.559 174.699L241.824 182.496L243.023 184.451L255.758 176.654L254.559 174.699Z" fill="#F7F3EB"/>
<path d="M229.34 110.824L199.02 128.187L200.161 130.176L230.481 112.813L229.34 110.824Z" fill="#B28B31"/>
<path d="M289.652 151.37L295.37 145.308L293.581 144.181C295.059 139.168 294.884 132.99 292.783 125.975C289.321 114.454 287.163 98.4827 277.089 89.2731C267.617 80.6269 250.464 78.4508 239.457 75.8667C232.3 74.1763 226.115 74.4095 221.195 76.1776L219.97 74.4678L213.922 80.8601C208.69 86.4364 207.134 95.4517 210.479 106.624C217.208 128.948 241.09 151.389 263.806 156.732C275.397 159.453 284.44 157.199 289.633 151.389L289.652 151.37ZM260.694 146.299C252.254 144.317 248.481 133.106 241.324 126.383C234.167 119.661 223.626 117.388 221.117 109.111C216.119 92.5372 225.746 82.3173 242.607 86.2809C259.469 90.2446 277.186 106.896 282.184 123.469C287.182 140.042 277.555 150.262 260.694 146.299Z" fill="#B28B31"/>
<path d="M273.156 158.89C270.18 158.89 266.971 158.501 263.607 157.705C240.619 152.303 216.367 129.512 209.561 106.916C206.216 95.802 207.48 86.3399 213.158 80.2584L213.236 80.1613L220.082 72.9141L221.579 75.0125C226.675 73.3609 232.918 73.3221 239.686 74.9153C241.591 75.3622 243.672 75.7896 245.87 76.2559C256.489 78.4709 269.733 81.2299 277.745 88.5548C285.991 96.0935 289.025 107.868 291.709 118.263C292.39 120.905 293.031 123.392 293.731 125.704C295.735 132.349 296.085 138.566 294.743 143.754L296.921 145.134L290.153 152.323C290.153 152.323 290.036 152.459 289.959 152.517L289.745 152.75C285.738 156.811 280.021 158.89 273.156 158.89ZM214.714 81.4825L214.656 81.5408C209.444 87.0782 208.296 95.8798 211.447 106.333C218.079 128.327 241.669 150.496 264.054 155.762C274.906 158.307 283.735 156.519 288.908 150.71L289.55 149.991H289.57L293.809 145.503L292.409 144.609L292.623 143.89C294.082 138.936 293.809 132.835 291.826 126.248C291.106 123.878 290.464 121.371 289.784 118.729C287.178 108.606 284.221 97.1427 276.403 89.9926C268.78 83.0368 255.847 80.3361 245.462 78.1795C243.245 77.7132 241.144 77.2857 239.219 76.8194C232.509 75.2456 226.383 75.3428 221.521 77.0914L220.802 77.344L219.849 76.0034L214.695 81.4631L214.714 81.4825ZM267.593 148.145C265.357 148.145 262.965 147.854 260.437 147.251C254.758 145.911 251.199 140.879 247.426 135.535C245.325 132.563 243.167 129.512 240.6 127.084C237.994 124.635 234.901 122.77 231.906 120.983C226.714 117.874 221.813 114.921 220.14 109.364C217.612 100.99 218.604 93.8591 222.921 89.2737C227.239 84.6884 234.298 83.27 242.817 85.2712C259.97 89.3126 278.037 106.294 283.113 123.139C285.641 131.514 284.649 138.644 280.332 143.23C277.298 146.455 272.903 148.106 267.574 148.106L267.593 148.145ZM235.679 86.4176C230.934 86.4176 227.025 87.8554 224.38 90.6727C220.568 94.714 219.751 101.165 222.066 108.82C223.524 113.638 227.881 116.261 232.957 119.292C236.049 121.138 239.238 123.062 242 125.646C244.723 128.211 246.94 131.358 249.098 134.389C252.638 139.402 255.983 144.143 260.923 145.309C268.721 147.135 275.1 145.93 278.912 141.889C282.724 137.848 283.541 131.397 281.226 123.742C276.326 107.499 258.9 91.1195 242.369 87.2336C239.997 86.6702 237.76 86.3982 235.679 86.3982V86.4176Z" fill="#B28B31"/>
<path d="M299.159 119.195C292.43 96.8704 268.548 74.4293 245.833 69.0861C223.117 63.743 210.146 77.5186 216.875 99.8431C223.604 122.168 247.486 144.609 270.201 149.952C292.916 155.295 305.888 141.519 299.159 119.195ZM267.07 139.518C250.208 135.555 232.491 118.903 227.493 102.33C222.495 85.7567 232.122 75.5367 248.983 79.5004C265.845 83.464 283.562 100.115 288.56 116.689C293.558 133.262 283.931 143.482 267.07 139.518Z" fill="white"/>
<path d="M279.543 152.108C276.568 152.108 273.359 151.72 269.994 150.923C247.007 145.522 222.755 122.731 215.948 100.134C212.584 88.9818 213.887 79.4808 219.604 73.3993C225.322 67.3179 234.735 65.4526 246.093 68.1145C269.08 73.5159 293.332 96.3067 300.138 118.903C303.503 130.056 302.2 139.557 296.482 145.638C292.457 149.913 286.622 152.108 279.563 152.108H279.543ZM236.524 68.9111C230.028 68.9111 224.68 70.8929 221.043 74.7594C215.831 80.2968 214.684 89.0984 217.835 99.5515C224.466 121.546 248.057 143.715 270.441 148.98C281.06 151.487 289.792 149.816 295.004 144.259C300.216 138.721 301.364 129.92 298.213 119.467C291.581 97.4725 267.991 75.3034 245.606 70.038C242.397 69.2803 239.344 68.9111 236.524 68.9111ZM274 141.364C271.764 141.364 269.372 141.072 266.863 140.47C249.71 136.429 231.643 119.447 226.567 102.602C224.038 94.2278 225.03 87.0971 229.348 82.5118C233.665 77.9264 240.725 76.508 249.243 78.5093C266.396 82.5506 284.463 99.532 289.539 116.377C292.068 124.752 291.076 131.882 286.758 136.468C283.724 139.693 279.329 141.344 274 141.344V141.364ZM267.31 138.547C275.109 140.373 281.488 139.168 285.3 135.127C289.111 131.086 289.928 124.635 287.614 116.98C282.713 100.737 265.288 84.3576 248.757 80.4717C240.958 78.6453 234.579 79.8499 230.767 83.8913C226.956 87.9326 226.139 94.3832 228.453 102.038C233.354 118.282 250.779 134.661 267.31 138.547Z" fill="#B28B31"/>
<path d="M253.891 143.17L247.617 149.838L249.077 151.209L255.351 144.541L253.891 143.17Z" fill="#F7F3EB"/>
<path d="M214.404 92.5033L208.129 99.1699L209.588 100.541L215.863 93.8742L214.404 92.5033Z" fill="#F7F3EB"/>
<path d="M218.889 106.105L212.602 112.787L214.061 114.158L220.348 107.476L218.889 106.105Z" fill="#F7F3EB"/>
<path d="M285.36 109.793L279.086 116.461L280.545 117.832L286.819 111.164L285.36 109.793Z" fill="#F7F3EB"/>
<path d="M256.436 81.5378L250.148 88.2197L251.608 89.5904L257.895 82.9085L256.436 81.5378Z" fill="#F7F3EB"/>
<path d="M295.391 226.387C295.702 226.29 295.897 225.96 295.799 225.649L272.948 150.903C272.948 150.903 272.715 150.573 272.462 150.515L265.811 148.941C265.188 148.785 264.255 149.116 263.749 149.66L259.315 154.362C259.101 154.595 259.004 154.828 259.004 155.042L281.855 229.787C281.953 230.098 282.283 230.273 282.594 230.176L295.391 226.387Z" fill="white"/>
<path d="M282.438 231.188C281.758 231.188 281.116 230.741 280.902 230.061L258.012 155.179V155.043C258.012 154.693 258.109 154.188 258.595 153.683L263.029 148.981C263.788 148.185 265.071 147.757 266.044 147.971L272.695 149.545C273.298 149.681 273.667 150.186 273.784 150.341L273.92 150.613L296.772 225.359C296.888 225.767 296.849 226.194 296.655 226.583C296.46 226.952 296.11 227.243 295.702 227.36L282.905 231.149C282.75 231.188 282.613 231.207 282.458 231.207L282.438 231.188ZM260.054 155.024L282.691 229.089L294.73 225.534L272.073 151.429L265.577 149.894C265.363 149.836 264.78 149.991 264.468 150.322L260.034 155.024H260.054Z" fill="#B28B31"/>
<path d="M289.209 232.489L282.558 230.915C281.935 230.759 281.838 230.215 282.344 229.671L286.778 224.969C287.283 224.425 288.217 224.115 288.839 224.251L295.49 225.824C296.113 225.98 296.21 226.524 295.704 227.068L291.27 231.77C290.765 232.314 289.831 232.625 289.209 232.489Z" fill="#F7F3EB"/>
<path d="M289.522 233.519C289.327 233.519 289.152 233.499 288.977 233.46L282.326 231.887C281.704 231.731 281.256 231.343 281.081 230.799C280.906 230.196 281.081 229.536 281.606 228.992L286.041 224.29C286.799 223.493 288.083 223.066 289.055 223.279L295.706 224.853C296.328 225.009 296.795 225.397 296.951 225.961C297.126 226.563 296.951 227.224 296.406 227.768L291.972 232.47C291.35 233.13 290.377 233.538 289.502 233.538L289.522 233.519ZM283.318 230.08L289.424 231.517C289.658 231.576 290.222 231.42 290.533 231.09L294.714 226.66L288.608 225.222C288.374 225.164 287.81 225.319 287.499 225.65L283.318 230.08Z" fill="#B28B31"/>
<path d="M262.304 151.156L259.309 154.362L282.335 229.671L285.272 226.543L262.304 151.156Z" fill="#B28B31"/>
<path d="M268.322 154.236L266.406 154.82L278.282 193.676L280.198 193.092L268.322 154.236Z" fill="#B28B31"/>
<path d="M282.314 200.638L280.398 201.223L284.334 214.1L286.25 213.516L282.314 200.638Z" fill="#B28B31"/>
<path d="M256.433 155.47C248.965 152.4 242.761 148.436 242.703 148.378L243.792 146.707C243.792 146.707 249.899 150.612 257.192 153.624L256.433 155.47Z" fill="#F7F3EB"/>
<path d="M281.329 172.996L319.661 149.506C319.661 149.506 319.68 149.506 319.7 149.506L342.61 162.718C342.61 162.718 342.629 162.757 342.61 162.776L304.278 186.267C304.278 186.267 304.258 186.267 304.239 186.267L281.329 173.054C281.329 173.054 281.31 173.016 281.329 172.996Z" fill="white"/>
<path d="M304.252 187.625L303.61 187.237L280.195 173.733L280.137 172.412L280.72 172.024L319.674 148.164L320.316 148.553L343.732 162.056L343.79 163.377L343.226 163.766L304.252 187.645V187.625ZM283.54 172.995L304.252 184.944L340.425 162.795L319.713 150.845L283.54 172.995Z" fill="#B28B31"/>
<path d="M304.347 322.174L342.621 298.723C342.621 298.723 342.66 298.684 342.66 298.665V270.628C342.66 270.628 342.601 270.55 342.563 270.57L304.289 294.021C304.289 294.021 304.25 294.06 304.25 294.079V322.116C304.25 322.116 304.308 322.194 304.347 322.174Z" fill="#B28B31"/>
<path d="M304.401 323.517L303.156 322.856L303.117 322.118V293.479L303.662 293.09L342.558 269.27L343.802 269.911L343.841 270.649V299.346L343.238 299.735L304.42 323.517H304.401ZM305.412 294.703V320.175L341.508 298.064V272.592L305.412 294.703Z" fill="#B28B31"/>
<path d="M318.535 302.182L356.808 278.73C356.808 278.73 356.847 278.691 356.847 278.672V256.503C356.847 256.503 356.789 256.425 356.75 256.445L318.476 279.896C318.476 279.896 318.438 279.935 318.438 279.954V302.123C318.438 302.123 318.496 302.201 318.535 302.182Z" fill="#B28B31"/>
<path d="M318.58 303.522L317.336 302.862L317.297 302.143V279.313L317.9 278.924L356.737 255.143L357.963 255.803L358.001 256.522V279.313L357.457 279.702L318.561 303.522H318.58ZM319.611 280.576V300.2L355.707 278.089V258.465L319.611 280.576Z" fill="#B28B31"/>
<path d="M251.535 241.328L289.945 217.818L318.32 234.178L279.91 257.707L251.535 241.328Z" fill="white"/>
<path d="M279.935 259.049L249.285 241.368L289.912 216.479L320.562 234.159L279.935 259.049ZM253.797 241.309L279.896 256.367L316.07 234.218L289.97 219.16L253.797 241.309Z" fill="#B28B31"/>
<path d="M251.545 241.33L289.954 217.82L280.328 205.404L261.113 210.359L248.297 234.179L251.545 241.33Z" fill="#B28B31"/>
<path d="M251.03 243L246.984 234.14L260.326 209.386L280.766 204.102L291.637 218.13L251.03 243ZM249.571 234.217L252.06 239.677L288.253 217.508L279.871 206.705L261.882 211.349L249.571 234.217Z" fill="#B28B31"/>
<path d="M318.358 302.202L304.356 294.119C304.356 294.119 304.258 294.119 304.258 294.177V322.137C304.258 322.137 304.2 322.214 304.161 322.195L279.949 308.225C279.949 308.225 279.91 308.186 279.91 308.167V280.052C279.91 280.052 279.91 280.013 279.871 279.994L229.637 251.024C229.637 251.024 229.598 250.986 229.598 250.966V231.031V230.993L281.213 173.073C281.213 173.073 281.271 173.054 281.29 173.073L304.181 186.285C304.181 186.285 304.22 186.324 304.22 186.343V271.736C304.22 271.736 304.22 271.775 304.258 271.795L318.378 279.936C318.378 279.936 318.417 279.974 318.417 279.994V302.163C318.417 302.163 318.358 302.241 318.319 302.221L318.358 302.202ZM279.832 257.65C279.832 257.65 279.929 257.65 279.929 257.592V234.645C279.929 230.798 280.065 225.3 280.337 218.13C280.61 210.961 280.824 206.842 280.979 205.754L280.337 205.384C278.354 209.329 275.962 212.904 273.161 216.129L251.613 241.271C251.613 241.271 251.613 241.348 251.613 241.368L279.832 257.65Z" fill="#F7F3EB"/>
<path d="M304.25 323.515L303.608 323.204L278.773 308.885L278.734 308.166V280.693L228.461 251.704L228.422 250.985V230.623L228.714 230.254L280.97 171.615L281.846 172.062L305.339 185.605L305.378 186.323V271.075L319.536 279.235L319.575 279.954V302.803L318.388 303.522L317.766 303.192L305.397 296.061V322.796L304.25 323.515ZM281.068 307.525L303.102 320.232V293.477L304.288 292.758L304.93 293.089L317.28 300.219V280.557L303.122 272.396L303.083 271.677V186.926L281.495 174.471L230.736 231.419V250.305L281.009 279.294L281.048 280.013V307.486L281.068 307.525ZM279.881 258.97L279.239 258.64L250.554 242.106L250.32 240.998L250.69 240.532L272.238 215.39C274.961 212.242 277.314 208.706 279.259 204.879L279.803 203.791L282.176 205.17L282.059 205.947C281.904 206.977 281.69 211.096 281.418 218.188C281.145 225.28 281.009 230.817 281.009 234.645V258.271L279.842 258.99L279.881 258.97ZM253.315 241.037L278.773 255.726V234.664C278.773 230.798 278.909 225.221 279.181 218.11C279.317 214.263 279.453 211.31 279.57 209.211C277.936 211.97 276.089 214.555 274.027 216.925L253.335 241.076L253.315 241.037Z" fill="#B28B31"/>
<path d="M304.561 271.56L342.563 248.284C342.563 248.284 342.66 248.187 342.66 248.109V163.124C342.66 162.969 342.485 162.872 342.349 162.949L304.347 186.226C304.347 186.226 304.25 186.323 304.25 186.401V271.385C304.25 271.541 304.425 271.638 304.561 271.56Z" fill="#B28B31"/>
<path d="M304.451 272.747C304.218 272.747 304.004 272.688 303.79 272.572C303.362 272.338 303.09 271.872 303.09 271.386V186.402C303.09 185.935 303.343 185.488 303.732 185.255L341.733 161.979C342.141 161.726 342.667 161.707 343.094 161.959C343.522 162.192 343.794 162.639 343.794 163.145V248.129C343.794 248.596 343.542 249.042 343.133 249.276L305.151 272.552C304.937 272.688 304.685 272.747 304.451 272.747ZM305.404 186.926V269.696L341.5 247.585V164.815L305.404 186.926Z" fill="#B28B31"/>
<path d="M304.357 271.698L342.631 248.246C342.631 248.246 342.67 248.246 342.689 248.246L356.75 256.368C356.75 256.368 356.789 256.445 356.75 256.465L318.476 279.916C318.476 279.916 318.437 279.916 318.418 279.916L304.357 271.795C304.357 271.795 304.318 271.717 304.357 271.698Z" fill="white"/>
<path d="M318.512 281.236L317.871 280.925L303.207 272.474L303.148 271.114L303.751 270.705L342.589 246.904L343.231 247.215L357.895 255.667L357.953 257.027L357.369 257.435L318.512 281.236ZM306.513 271.716L318.435 278.594L354.608 256.444L342.686 249.566L306.513 271.716Z" fill="#B28B31"/>
<path d="M338.63 288.52L321.348 299.092L322.546 301.047L339.828 290.475L338.63 288.52Z" fill="#F7F3EB"/>
<path d="M339.411 226.733L306.156 247.076L307.355 249.031L340.609 228.688L339.411 226.733Z" fill="#F7F3EB"/>
<path d="M316.489 221.558L306.156 227.879L307.355 229.834L317.688 223.513L316.489 221.558Z" fill="#F7F3EB"/>
</svg>
