<svg width="20" height="20" viewBox="0 0 20 20" fill="none" xmlns="http://www.w3.org/2000/svg">
<path fill-rule="evenodd" clip-rule="evenodd" d="M6.25 0H13.75C17.2013 0 20 2.79875 20 6.25V13.75C20 17.2013 17.2013 20 13.75 20H6.25C2.79875 20 0 17.2013 0 13.75V6.25C0 2.79875 2.79875 0 6.25 0ZM13.7508 18.125C16.1633 18.125 18.1258 16.1625 18.1258 13.7501V6.25005C18.1258 3.83755 16.1633 1.87505 13.7508 1.87505H6.25081C3.83831 1.87505 1.87581 3.83755 1.87581 6.25005V13.7501C1.87581 16.1625 3.83831 18.125 6.25081 18.125H13.7508ZM5.00041 10.0001C5.00041 7.23885 7.23916 5.0001 10.0004 5.0001C12.7617 5.0001 15.0004 7.23885 15.0004 10.0001C15.0004 12.7614 12.7617 15.0001 10.0004 15.0001C7.23916 15.0001 5.00041 12.7614 5.00041 10.0001ZM6.87655 10.0002C6.87655 11.7227 8.27905 13.1252 10.0015 13.1252C11.724 13.1252 13.1265 11.7227 13.1265 10.0002C13.1265 8.27644 11.724 6.87519 10.0015 6.87519C8.27905 6.87519 6.87655 8.27644 6.87655 10.0002ZM16.0403 4.62509C16.0403 4.99305 15.7421 5.29134 15.3741 5.29134C15.0061 5.29134 14.7078 4.99305 14.7078 4.62509C14.7078 4.25713 15.0061 3.95884 15.3741 3.95884C15.7421 3.95884 16.0403 4.25713 16.0403 4.62509Z" fill="white"/>
</svg>
