<svg width="20" height="20" viewBox="0 0 20 20" fill="none" xmlns="http://www.w3.org/2000/svg">
<path fill-rule="evenodd" clip-rule="evenodd" d="M4.375 2.18754C4.375 3.39569 3.39562 4.37509 2.1875 4.37509C0.979377 4.37509 0 3.39569 0 2.18754C0 0.979397 0.979377 0 2.1875 0C3.39562 0 4.375 0.979397 4.375 2.18754ZM0 6.24969H4.4725V20H0V6.24969ZM16.655 6.41095C16.6392 6.40595 16.6236 6.40081 16.6081 6.39567C16.5769 6.38539 16.5458 6.37511 16.5125 6.36595C16.4525 6.3522 16.3925 6.34095 16.3312 6.33095C16.0938 6.28345 15.8337 6.24969 15.5287 6.24969C12.9212 6.24969 11.2675 8.14598 10.7225 8.8785V6.24969H6.25V20H10.7225V12.4998C10.7225 12.4998 14.1025 7.79223 15.5287 11.2498V20H20V10.721C20 8.64349 18.5763 6.91221 16.655 6.41095Z" fill="white"/>
</svg>
