<svg width="20" height="20" viewBox="0 0 20 20" fill="none" xmlns="http://www.w3.org/2000/svg">
<g clip-path="url(#clip0_3234_12648)">
<path d="M16.5822 0H3.41778C1.53024 0 0 1.53024 0 3.41778V16.5822C0 18.4698 1.53024 20 3.41778 20H10.6326V12.321H8.04803V9.32787H10.6326V7.1211C10.6326 4.55996 12.1965 3.16591 14.4809 3.16591C15.5762 3.16591 16.5163 3.24791 16.7902 3.28306V5.95988H15.2057C13.9625 5.95988 13.7224 6.55147 13.7224 7.4169V9.32787H16.6862L16.2996 12.321H13.7224V20H16.5822C18.4698 20 20 18.4698 20 16.5822V3.41778C20 1.53024 18.4698 0 16.5822 0Z" fill="white"/>
</g>
<defs>
<clipPath id="clip0_3234_12648">
<rect width="20" height="20" fill="white"/>
</clipPath>
</defs>
</svg>
