<svg width="28" height="28" viewBox="0 0 28 28" fill="none" xmlns="http://www.w3.org/2000/svg">
<rect x="0.5" y="0.5" width="27" height="27" fill="#B28B31"/>
<rect x="0.5" y="0.5" width="27" height="27" stroke="url(#paint0_linear_6043_5103)"/>
<path d="M19.3015 20L17.2839 18.0046C16.7909 18.4253 16.2239 18.7509 15.583 18.9815C14.9421 19.2121 14.298 19.3274 13.6507 19.3274C12.0714 19.3274 10.7348 18.7795 9.64091 17.6837C8.54697 16.5878 8 15.2489 8 13.6668C8 12.0847 8.54667 10.7447 9.64 9.64685C10.7333 8.54895 12.0692 8 13.6477 8C15.2261 8 16.563 8.54822 17.6584 9.64465C18.7538 10.7411 19.3015 12.0808 19.3015 13.6637C19.3015 14.3504 19.1801 15.015 18.9374 15.6574C18.6947 16.2998 18.3761 16.8491 17.9817 17.3052L20 19.3L19.3015 20ZM13.6507 18.3391C14.9591 18.3391 16.0637 17.8877 16.9644 16.985C17.8651 16.0822 18.3154 14.9751 18.3154 13.6637C18.3154 12.3523 17.8651 11.2452 16.9644 10.3425C16.0637 9.43969 14.9591 8.9883 13.6507 8.9883C12.3424 8.9883 11.2378 9.43969 10.3371 10.3425C9.43641 11.2452 8.98606 12.3523 8.98606 13.6637C8.98606 14.9751 9.43641 16.0822 10.3371 16.985C11.2378 17.8877 12.3424 18.3391 13.6507 18.3391Z" fill="white" stroke="white"/>
<defs>
<linearGradient id="paint0_linear_6043_5103" x1="-0.310778" y1="14" x2="28.3122" y2="14" gradientUnits="userSpaceOnUse">
<stop offset="0.248667" stop-color="#B28B31"/>
<stop offset="1" stop-color="#D9C59A"/>
</linearGradient>
</defs>
</svg>
