<svg width="72" height="72" viewBox="0 0 72 72" fill="none" xmlns="http://www.w3.org/2000/svg">
<rect x="1" y="1" width="70" height="70" fill="white"/>
<rect x="1" y="1" width="70" height="70" stroke="url(#paint0_linear_3062_4814)" stroke-width="2"/>
<path opacity="0.2" d="M47.25 31C47.25 33.225 46.5902 35.4001 45.354 37.2502C44.1179 39.1002 42.3609 40.5422 40.3052 41.3936C38.2495 42.2451 35.9875 42.4679 33.8052 42.0338C31.623 41.5998 29.6184 40.5283 28.0451 38.955C26.4717 37.3816 25.4003 35.3771 24.9662 33.1948C24.5321 31.0125 24.7549 28.7505 25.6064 26.6948C26.4578 24.6391 27.8998 22.8821 29.7498 21.646C31.5999 20.4098 33.775 19.75 36 19.75C38.9837 19.75 41.8452 20.9353 43.955 23.045C46.0647 25.1548 47.25 28.0163 47.25 31Z" fill="url(#paint1_linear_3062_4814)"/>
<path d="M36.0002 43.5C38.4725 43.5 40.8892 42.7669 42.9449 41.3934C45.0005 40.0198 46.6026 38.0676 47.5487 35.7835C48.4948 33.4995 48.7424 30.9861 48.2601 28.5614C47.7777 26.1366 46.5872 23.9093 44.8391 22.1612C43.0909 20.413 40.8636 19.2225 38.4389 18.7402C36.0141 18.2579 33.5008 18.5054 31.2167 19.4515C28.9326 20.3976 26.9804 21.9998 25.6069 24.0554C24.2333 26.111 23.5002 28.5277 23.5002 31C23.504 34.3141 24.8221 37.4913 27.1655 39.8347C29.5089 42.1781 32.6862 43.4963 36.0002 43.5ZM36.0002 21C37.978 21 39.9114 21.5865 41.5559 22.6853C43.2004 23.7841 44.4822 25.3459 45.239 27.1732C45.9959 29.0004 46.1939 31.0111 45.8081 32.9509C45.4222 34.8907 44.4698 36.6725 43.0713 38.0711C41.6728 39.4696 39.8909 40.422 37.9511 40.8078C36.0113 41.1937 34.0007 40.9957 32.1734 40.2388C30.3461 39.4819 28.7844 38.2002 27.6855 36.5557C26.5867 34.9112 26.0002 32.9778 26.0002 31C26.0031 28.3487 27.0576 25.8069 28.9324 23.9321C30.8071 22.0574 33.349 21.0029 36.0002 21ZM48.1518 41.8594C48.2657 41.9778 48.3551 42.1175 48.415 42.2706C48.4748 42.4236 48.5039 42.5869 48.5005 42.7512C48.4972 42.9155 48.4615 43.0775 48.3955 43.228C48.3295 43.3784 48.2345 43.5144 48.1159 43.6281C45.1744 46.4651 41.3272 48.1746 37.2502 48.4562V51H41.0002C41.3318 51 41.6497 51.1317 41.8841 51.3661C42.1185 51.6005 42.2502 51.9185 42.2502 52.25C42.2502 52.5815 42.1185 52.8995 41.8841 53.1339C41.6497 53.3683 41.3318 53.5 41.0002 53.5H31.0002C30.6687 53.5 30.3508 53.3683 30.1164 53.1339C29.8819 52.8995 29.7502 52.5815 29.7502 52.25C29.7502 51.9185 29.8819 51.6005 30.1164 51.3661C30.3508 51.1317 30.6687 51 31.0002 51H34.7502V48.4547C31.4349 48.2172 28.2558 47.0405 25.5848 45.0623C22.9138 43.084 20.8615 40.386 19.6679 37.2839C18.4742 34.1818 18.1887 30.804 18.8447 27.5455C19.5007 24.2871 21.0711 21.2829 23.3721 18.8844C23.4851 18.763 23.621 18.6653 23.7721 18.597C23.9231 18.5287 24.0863 18.4911 24.252 18.4865C24.4177 18.4818 24.5827 18.5101 24.7374 18.5699C24.8921 18.6296 25.0333 18.7195 25.1529 18.8343C25.2725 18.9491 25.368 19.0866 25.434 19.2387C25.4999 19.3908 25.535 19.5545 25.537 19.7203C25.5391 19.886 25.5082 20.0506 25.4461 20.2043C25.384 20.358 25.2919 20.4978 25.1752 20.6156C22.4504 23.446 20.9448 27.2326 20.9821 31.1613C21.0194 35.09 22.5967 38.8473 25.3748 41.6254C28.153 44.4036 31.9102 45.9808 35.8389 46.0181C39.7677 46.0554 43.5542 44.5499 46.3846 41.825C46.6235 41.5953 46.9439 41.4698 47.2753 41.4763C47.6067 41.4827 47.922 41.6205 48.1518 41.8594Z" fill="url(#paint2_linear_3062_4814)"/>
<defs>
<linearGradient id="paint0_linear_3062_4814" x1="-0.799145" y1="36" x2="72.8028" y2="36" gradientUnits="userSpaceOnUse">
<stop stop-color="#D9C59A"/>
<stop offset="0.8" stop-color="#B28B31"/>
</linearGradient>
<linearGradient id="paint1_linear_3062_4814" x1="24.5003" y1="31" x2="47.5009" y2="31" gradientUnits="userSpaceOnUse">
<stop stop-color="#D9C59A"/>
<stop offset="0.8" stop-color="#B28B31"/>
</linearGradient>
<linearGradient id="paint2_linear_3062_4814" x1="18.1675" y1="35.993" x2="48.8353" y2="35.993" gradientUnits="userSpaceOnUse">
<stop stop-color="#D9C59A"/>
<stop offset="0.8" stop-color="#B28B31"/>
</linearGradient>
</defs>
</svg>
