<svg width="72" height="72" viewBox="0 0 72 72" fill="none" xmlns="http://www.w3.org/2000/svg">
<rect x="1" y="1" width="70" height="70" fill="white"/>
<rect x="1" y="1" width="70" height="70" stroke="url(#paint0_linear_3062_6742)" stroke-width="2"/>
<path opacity="0.2" d="M49.7501 23.5V48.5C49.7502 48.6642 49.718 48.8268 49.6553 48.9786C49.5925 49.1303 49.5005 49.2682 49.3845 49.3844L22.6157 22.6156C22.7319 22.4996 22.8698 22.4076 23.0215 22.3448C23.1733 22.2821 23.3359 22.2499 23.5001 22.25H48.5001C48.8316 22.25 49.1496 22.3817 49.384 22.6161C49.6184 22.8505 49.7501 23.1685 49.7501 23.5Z" fill="url(#paint1_linear_3062_6742)"/>
<path d="M39.75 49.75C39.75 50.0815 39.6183 50.3995 39.3839 50.6339C39.1495 50.8683 38.8315 51 38.5 51H33.5C33.1685 51 32.8505 50.8683 32.6161 50.6339C32.3817 50.3995 32.25 50.0815 32.25 49.75C32.25 49.4185 32.3817 49.1005 32.6161 48.8661C32.8505 48.6317 33.1685 48.5 33.5 48.5H38.5C38.8315 48.5 39.1495 48.6317 39.3839 48.8661C39.6183 49.1005 39.75 49.4185 39.75 49.75ZM22.25 39.75C22.5815 39.75 22.8995 39.6183 23.1339 39.3839C23.3683 39.1495 23.5 38.8315 23.5 38.5V33.5C23.5 33.1685 23.3683 32.8505 23.1339 32.6161C22.8995 32.3817 22.5815 32.25 22.25 32.25C21.9185 32.25 21.6005 32.3817 21.3661 32.6161C21.1317 32.8505 21 33.1685 21 33.5V38.5C21 38.8315 21.1317 39.1495 21.3661 39.3839C21.6005 39.6183 21.9185 39.75 22.25 39.75ZM27.25 48.5H23.5V44.75C23.5 44.4185 23.3683 44.1005 23.1339 43.8661C22.8995 43.6317 22.5815 43.5 22.25 43.5C21.9185 43.5 21.6005 43.6317 21.3661 43.8661C21.1317 44.1005 21 44.4185 21 44.75V48.5C21 49.163 21.2634 49.7989 21.7322 50.2678C22.2011 50.7366 22.837 51 23.5 51H27.25C27.5815 51 27.8995 50.8683 28.1339 50.6339C28.3683 50.3995 28.5 50.0815 28.5 49.75C28.5 49.4185 28.3683 49.1005 28.1339 48.8661C27.8995 48.6317 27.5815 48.5 27.25 48.5ZM51 23.5V48.5C51 49.163 50.7366 49.7989 50.2678 50.2678C49.7989 50.7366 49.163 51 48.5 51H44.75C44.4185 51 44.1005 50.8683 43.8661 50.6339C43.6317 50.3995 43.5 50.0815 43.5 49.75C43.5 49.4185 43.6317 49.1005 43.8661 48.8661C44.1005 48.6317 44.4185 48.5 44.75 48.5H46.7328L23.5 25.2672V27.25C23.5 27.5815 23.3683 27.8995 23.1339 28.1339C22.8995 28.3683 22.5815 28.5 22.25 28.5C21.9185 28.5 21.6005 28.3683 21.3661 28.1339C21.1317 27.8995 21 27.5815 21 27.25V23.5C21 22.837 21.2634 22.2011 21.7322 21.7322C22.2011 21.2634 22.837 21 23.5 21H48.5C49.163 21 49.7989 21.2634 50.2678 21.7322C50.7366 22.2011 51 22.837 51 23.5ZM48.5 23.5H25.2672L48.5 46.7328V23.5Z" fill="url(#paint2_linear_3062_6742)"/>
<defs>
<linearGradient id="paint0_linear_3062_6742" x1="-0.799145" y1="36" x2="72.8028" y2="36" gradientUnits="userSpaceOnUse">
<stop stop-color="#D9C59A"/>
<stop offset="0.8" stop-color="#B28B31"/>
</linearGradient>
<linearGradient id="paint1_linear_3062_6742" x1="22.3146" y1="35.8172" x2="50.0526" y2="35.8172" gradientUnits="userSpaceOnUse">
<stop stop-color="#D9C59A"/>
<stop offset="0.8" stop-color="#B28B31"/>
</linearGradient>
<linearGradient id="paint2_linear_3062_6742" x1="20.667" y1="36" x2="51.3345" y2="36" gradientUnits="userSpaceOnUse">
<stop stop-color="#D9C59A"/>
<stop offset="0.8" stop-color="#B28B31"/>
</linearGradient>
</defs>
</svg>
