<svg width="72" height="72" viewBox="0 0 72 72" fill="none" xmlns="http://www.w3.org/2000/svg">
<rect x="1" y="1" width="70" height="70" fill="white"/>
<rect x="1" y="1" width="70" height="70" stroke="url(#paint0_linear_3062_6749)" stroke-width="2"/>
<path opacity="0.2" d="M51 36.2141C50.8875 44.2922 44.2938 50.8859 36.2157 50.9984H36V42.25C37.5704 42.2524 39.0841 41.6635 40.24 40.6005C41.3959 39.5376 42.1093 38.0784 42.2383 36.5134C42.3673 34.9483 41.9025 33.3921 40.9362 32.1542C39.9699 30.9163 38.573 30.0876 37.0235 29.8328C36.7352 29.7822 36.4742 29.631 36.2868 29.4062C36.0995 29.1813 35.9978 28.8974 36 28.6047V22.25C35.9994 22.0767 36.0349 21.9051 36.1041 21.7462C36.1734 21.5873 36.275 21.4445 36.4024 21.3269C36.5297 21.2094 36.6802 21.1196 36.8442 21.0633C37.0081 21.007 37.182 20.9855 37.3547 21C45.0735 21.6969 51.1094 28.2891 51 36.2141Z" fill="url(#paint1_linear_3062_6749)"/>
<path d="M37.4672 19.7594C37.1219 19.7293 36.7741 19.7713 36.4459 19.8828C36.1177 19.9943 35.8163 20.1728 35.5608 20.407C35.3052 20.6412 35.1012 20.926 34.9616 21.2433C34.8221 21.5605 34.75 21.9034 34.75 22.25V28.6047C34.7457 29.1943 34.9518 29.7662 35.3312 30.2176C35.7107 30.6689 36.2387 30.9702 36.8203 31.0672C37.7496 31.2231 38.616 31.6385 39.3195 32.2654C40.023 32.8923 40.535 33.7052 40.7966 34.6105C41.0581 35.5158 41.0585 36.4765 40.7977 37.382C40.5369 38.2875 40.0256 39.1009 39.3226 39.7284C38.6196 40.3559 37.7536 40.772 36.8244 40.9287C35.8953 41.0854 34.9407 40.9763 34.0708 40.614C33.2009 40.2518 32.4511 39.6511 31.9078 38.8812C31.3645 38.1113 31.0498 37.2035 31 36.2625C30.936 34.9781 31.1985 33.9188 31.7813 33.0969C32.1238 32.6191 32.2853 32.035 32.2369 31.4491C32.1886 30.8632 31.9335 30.3136 31.5172 29.8984L27.2016 25.4813C26.9556 25.2352 26.661 25.0433 26.3365 24.9177C26.0121 24.792 25.665 24.7355 25.3175 24.7517C24.97 24.7679 24.6297 24.8564 24.3183 25.0116C24.007 25.1668 23.7315 25.3853 23.5094 25.6531C20.9047 28.775 19.5701 32.7627 19.771 36.8235C19.9719 40.8843 21.6936 44.7208 24.5938 47.5703C27.6263 50.5789 31.7283 52.2619 36 52.25H36.2328C40.4587 52.1781 44.4913 50.4672 47.4797 47.4786C50.4681 44.4899 52.1785 40.4571 52.25 36.2313C52.3672 27.7469 45.8735 20.5125 37.4672 19.7594ZM25.425 27.2406L29.7391 31.6453V31.6547C29.0987 32.5736 28.6966 33.6372 28.5688 34.75H22.3063C22.5566 31.9876 23.6447 29.3676 25.425 27.2406ZM22.3078 37.25H28.6047C28.8639 38.7859 29.5949 40.2029 30.6961 41.3044C31.7974 42.4059 33.2142 43.1373 34.75 43.3969V49.6937C31.5485 49.4013 28.5507 47.9962 26.2776 45.7229C24.0046 43.4495 22.5999 40.4515 22.3078 37.25ZM45.7094 45.7094C43.4452 47.9893 40.45 49.3984 37.25 49.6891V43.3969C38.6985 43.1554 40.043 42.4905 41.1141 41.4859C42.1378 40.5321 42.8744 39.311 43.2404 37.9605C43.6064 36.61 43.5874 35.184 43.1854 33.8438C42.7834 32.5035 42.0145 31.3025 40.9656 30.3764C39.9167 29.4503 38.6297 28.836 37.25 28.6031V22.25C44.3625 22.8875 49.8547 29.0125 49.75 36.1953C49.7009 39.7734 48.2501 43.1895 45.7094 45.7094Z" fill="url(#paint2_linear_3062_6749)"/>
<defs>
<linearGradient id="paint0_linear_3062_6749" x1="-0.799145" y1="36" x2="72.8028" y2="36" gradientUnits="userSpaceOnUse">
<stop stop-color="#D9C59A"/>
<stop offset="0.8" stop-color="#B28B31"/>
</linearGradient>
<linearGradient id="paint1_linear_3062_6749" x1="35.8335" y1="35.997" x2="51.1688" y2="35.997" gradientUnits="userSpaceOnUse">
<stop stop-color="#D9C59A"/>
<stop offset="0.8" stop-color="#B28B31"/>
</linearGradient>
<linearGradient id="paint2_linear_3062_6749" x1="19.3905" y1="36" x2="52.614" y2="36" gradientUnits="userSpaceOnUse">
<stop stop-color="#D9C59A"/>
<stop offset="0.8" stop-color="#B28B31"/>
</linearGradient>
</defs>
</svg>
