<svg width="72" height="72" viewBox="0 0 72 72" fill="none" xmlns="http://www.w3.org/2000/svg">
<rect x="1" y="1" width="70" height="70" fill="white"/>
<rect x="1" y="1" width="70" height="70" stroke="url(#paint0_linear_3062_4807)" stroke-width="2"/>
<path opacity="0.2" d="M41 27.25V49.75L31 44.75V22.25L41 27.25Z" fill="url(#paint1_linear_3062_4807)"/>
<path d="M51.7687 23.7641C51.619 23.6474 51.4447 23.5664 51.259 23.5271C51.0732 23.4879 50.881 23.4915 50.6969 23.5376L41.1453 25.9251L31.5594 21.1313C31.2923 20.9981 30.9863 20.9648 30.6969 21.0376L20.6969 23.5376C20.4265 23.6051 20.1864 23.7612 20.0148 23.9809C19.8433 24.2006 19.75 24.4713 19.75 24.7501V47.2501C19.75 47.44 19.7933 47.6274 19.8767 47.7981C19.96 47.9688 20.0811 48.1183 20.2308 48.2352C20.3805 48.352 20.5549 48.4333 20.7407 48.4727C20.9265 48.5121 21.1189 48.5086 21.3031 48.4626L30.8547 46.0751L40.4406 50.8688C40.6146 50.9546 40.806 50.9995 41 51.0001C41.1022 51 41.204 50.9874 41.3031 50.9626L51.3031 48.4626C51.5735 48.395 51.8136 48.2389 51.9852 48.0192C52.1567 47.7995 52.25 47.5288 52.25 47.2501V24.7501C52.25 24.5599 52.2067 24.3723 52.1233 24.2015C52.0399 24.0306 51.9187 23.881 51.7687 23.7641ZM32.25 24.2719L39.75 28.0219V47.7282L32.25 43.9782V24.2719ZM22.25 25.7266L29.75 23.8516V43.7735L22.25 45.6485V25.7266ZM49.75 46.2735L42.25 48.1485V28.2266L49.75 26.3516V46.2735Z" fill="url(#paint2_linear_3062_4807)"/>
<defs>
<linearGradient id="paint0_linear_3062_4807" x1="-0.799145" y1="36" x2="72.8028" y2="36" gradientUnits="userSpaceOnUse">
<stop stop-color="#D9C59A"/>
<stop offset="0.8" stop-color="#B28B31"/>
</linearGradient>
<linearGradient id="paint1_linear_3062_4807" x1="30.889" y1="36" x2="41.1115" y2="36" gradientUnits="userSpaceOnUse">
<stop stop-color="#D9C59A"/>
<stop offset="0.8" stop-color="#B28B31"/>
</linearGradient>
<linearGradient id="paint2_linear_3062_4807" x1="19.3893" y1="36" x2="52.6124" y2="36" gradientUnits="userSpaceOnUse">
<stop stop-color="#D9C59A"/>
<stop offset="0.8" stop-color="#B28B31"/>
</linearGradient>
</defs>
</svg>
