<svg width="72" height="72" viewBox="0 0 72 72" fill="none" xmlns="http://www.w3.org/2000/svg">
<rect x="1" y="1" width="70" height="70" fill="white"/>
<rect x="1" y="1" width="70" height="70" stroke="url(#paint0_linear_3062_4821)" stroke-width="2"/>
<path d="M35.0002 19.9107C35.619 19.5535 36.3814 19.5535 37.0002 19.9107L49.4339 27.0894C50.0527 27.4466 50.4339 28.1069 50.4339 28.8214V43.1787C50.4339 43.8932 50.0527 44.5535 49.4339 44.9107L37.0002 52.0894C36.3814 52.4466 35.619 52.4466 35.0002 52.0894L22.5664 44.9107C21.9476 44.5535 21.5664 43.8932 21.5664 43.1787V28.8214C21.5664 28.1069 21.9476 27.4466 22.5664 27.0894L35.0002 19.9107Z" fill="url(#paint1_linear_3062_4821)" fill-opacity="0.2" stroke="url(#paint2_linear_3062_4821)" stroke-width="2" stroke-linecap="round" stroke-linejoin="round"/>
<path d="M49.9788 27.9291L35.9998 36L22.0151 27.9163" stroke="#B28B31" stroke-width="2" stroke-linecap="round" stroke-linejoin="round"/>
<path d="M36 36V51" stroke="#B28B31" stroke-width="2" stroke-linecap="round" stroke-linejoin="round"/>
<defs>
<linearGradient id="paint0_linear_3062_4821" x1="-0.799145" y1="36" x2="72.8028" y2="36" gradientUnits="userSpaceOnUse">
<stop stop-color="#D9C59A"/>
<stop offset="0.8" stop-color="#B28B31"/>
</linearGradient>
<linearGradient id="paint1_linear_3062_4821" x1="18.9635" y1="36" x2="53.0385" y2="36" gradientUnits="userSpaceOnUse">
<stop stop-color="#D9C59A"/>
<stop offset="0.8" stop-color="#B28B31"/>
</linearGradient>
<linearGradient id="paint2_linear_3062_4821" x1="18.9635" y1="36" x2="53.0385" y2="36" gradientUnits="userSpaceOnUse">
<stop stop-color="#D9C59A"/>
<stop offset="0.8" stop-color="#B28B31"/>
</linearGradient>
</defs>
</svg>
