<svg width="72" height="72" viewBox="0 0 72 72" fill="none" xmlns="http://www.w3.org/2000/svg">
<rect x="1" y="1" width="70" height="70" fill="white"/>
<rect x="1" y="1" width="70" height="70" stroke="url(#paint0_linear_3062_6720)" stroke-width="2"/>
<path opacity="0.2" d="M41 33.5C41 34.4889 40.7068 35.4556 40.1574 36.2779C39.6079 37.1001 38.827 37.741 37.9134 38.1194C36.9998 38.4978 35.9945 38.5969 35.0246 38.4039C34.0546 38.211 33.1637 37.7348 32.4645 37.0355C31.7652 36.3363 31.289 35.4454 31.0961 34.4755C30.9031 33.5055 31.0022 32.5002 31.3806 31.5866C31.759 30.673 32.3999 29.8921 33.2222 29.3427C34.0444 28.7932 35.0111 28.5 36 28.5C37.3261 28.5 38.5979 29.0268 39.5355 29.9645C40.4732 30.9021 41 32.1739 41 33.5Z" fill="url(#paint1_linear_3062_6720)"/>
<path d="M51 23.5V27.875C51 28.2065 50.8683 28.5245 50.6339 28.7589C50.3995 28.9933 50.0815 29.125 49.75 29.125C49.4185 29.125 49.1005 28.9933 48.8661 28.7589C48.6317 28.5245 48.5 28.2065 48.5 27.875V23.5H44.125C43.7935 23.5 43.4755 23.3683 43.2411 23.1339C43.0067 22.8995 42.875 22.5815 42.875 22.25C42.875 21.9185 43.0067 21.6005 43.2411 21.3661C43.4755 21.1317 43.7935 21 44.125 21H48.5C49.163 21 49.7989 21.2634 50.2678 21.7322C50.7366 22.2011 51 22.837 51 23.5ZM49.75 42.875C49.4185 42.875 49.1005 43.0067 48.8661 43.2411C48.6317 43.4755 48.5 43.7935 48.5 44.125V48.5H44.125C43.7935 48.5 43.4755 48.6317 43.2411 48.8661C43.0067 49.1005 42.875 49.4185 42.875 49.75C42.875 50.0815 43.0067 50.3995 43.2411 50.6339C43.4755 50.8683 43.7935 51 44.125 51H48.5C49.163 51 49.7989 50.7366 50.2678 50.2678C50.7366 49.7989 51 49.163 51 48.5V44.125C51 43.7935 50.8683 43.4755 50.6339 43.2411C50.3995 43.0067 50.0815 42.875 49.75 42.875ZM27.875 48.5H23.5V44.125C23.5 43.7935 23.3683 43.4755 23.1339 43.2411C22.8995 43.0067 22.5815 42.875 22.25 42.875C21.9185 42.875 21.6005 43.0067 21.3661 43.2411C21.1317 43.4755 21 43.7935 21 44.125V48.5C21 49.163 21.2634 49.7989 21.7322 50.2678C22.2011 50.7366 22.837 51 23.5 51H27.875C28.2065 51 28.5245 50.8683 28.7589 50.6339C28.9933 50.3995 29.125 50.0815 29.125 49.75C29.125 49.4185 28.9933 49.1005 28.7589 48.8661C28.5245 48.6317 28.2065 48.5 27.875 48.5ZM22.25 29.125C22.5815 29.125 22.8995 28.9933 23.1339 28.7589C23.3683 28.5245 23.5 28.2065 23.5 27.875V23.5H27.875C28.2065 23.5 28.5245 23.3683 28.7589 23.1339C28.9933 22.8995 29.125 22.5815 29.125 22.25C29.125 21.9185 28.9933 21.6005 28.7589 21.3661C28.5245 21.1317 28.2065 21 27.875 21H23.5C22.837 21 22.2011 21.2634 21.7322 21.7322C21.2634 22.2011 21 22.837 21 23.5V27.875C21 28.2065 21.1317 28.5245 21.3661 28.7589C21.6005 28.9933 21.9185 29.125 22.25 29.125ZM43.5 43.5C43.3058 43.5004 43.1142 43.4556 42.9403 43.3691C42.7665 43.2826 42.6152 43.1567 42.4984 43.0016C41.7416 41.9925 40.7602 41.1734 39.632 40.6093C38.5038 40.0452 37.2598 39.7516 35.9984 39.7516C34.7371 39.7516 33.493 40.0452 32.3648 40.6093C31.2366 41.1734 30.2553 41.9925 29.4984 43.0016C29.2991 43.2668 29.0026 43.4419 28.6741 43.4885C28.3456 43.5351 28.0121 43.4493 27.7469 43.25C27.4817 43.0507 27.3065 42.7542 27.2599 42.4257C27.2133 42.0972 27.2991 41.7637 27.4984 41.4984C28.6062 40.0151 30.0827 38.8473 31.7812 38.1109C30.8505 37.2612 30.1984 36.1498 29.9105 34.9228C29.6227 33.6958 29.7125 32.4104 30.1682 31.2353C30.6239 30.0603 31.4243 29.0505 32.4642 28.3384C33.5041 27.6263 34.735 27.2453 35.9953 27.2453C37.2556 27.2453 38.4865 27.6263 39.5264 28.3384C40.5664 29.0505 41.3667 30.0603 41.8224 31.2353C42.2781 32.4104 42.368 33.6958 42.0801 34.9228C41.7922 36.1498 41.1401 37.2612 40.2094 38.1109C41.9091 38.8469 43.3867 40.0147 44.4953 41.4984C44.6348 41.6838 44.72 41.9044 44.7412 42.1354C44.7625 42.3664 44.719 42.5988 44.6157 42.8066C44.5124 43.0143 44.3534 43.1892 44.1563 43.3117C43.9593 43.4341 43.732 43.4993 43.5 43.5ZM36 37.25C36.7417 37.25 37.4667 37.0301 38.0834 36.618C38.7001 36.206 39.1807 35.6203 39.4645 34.9351C39.7484 34.2498 39.8226 33.4958 39.6779 32.7684C39.5333 32.041 39.1761 31.3728 38.6517 30.8483C38.1272 30.3239 37.459 29.9667 36.7316 29.8221C36.0042 29.6774 35.2502 29.7516 34.5649 30.0355C33.8797 30.3193 33.294 30.7999 32.882 31.4166C32.4699 32.0333 32.25 32.7583 32.25 33.5C32.25 34.4946 32.6451 35.4484 33.3483 36.1517C34.0516 36.8549 35.0054 37.25 36 37.25Z" fill="url(#paint2_linear_3062_6720)"/>
<defs>
<linearGradient id="paint0_linear_3062_6720" x1="-0.799145" y1="36" x2="72.8028" y2="36" gradientUnits="userSpaceOnUse">
<stop stop-color="#D9C59A"/>
<stop offset="0.8" stop-color="#B28B31"/>
</linearGradient>
<linearGradient id="paint1_linear_3062_6720" x1="30.889" y1="33.5" x2="41.1115" y2="33.5" gradientUnits="userSpaceOnUse">
<stop stop-color="#D9C59A"/>
<stop offset="0.8" stop-color="#B28B31"/>
</linearGradient>
<linearGradient id="paint2_linear_3062_6720" x1="20.667" y1="36" x2="51.3345" y2="36" gradientUnits="userSpaceOnUse">
<stop stop-color="#D9C59A"/>
<stop offset="0.8" stop-color="#B28B31"/>
</linearGradient>
</defs>
</svg>
