<svg width="72" height="72" viewBox="0 0 72 72" fill="none" xmlns="http://www.w3.org/2000/svg">
<rect x="1" y="1" width="70" height="70" fill="white"/>
<rect x="1" y="1" width="70" height="70" stroke="url(#paint0_linear_3062_4792)" stroke-width="2"/>
<path opacity="0.2" d="M36 19.75C32.6848 19.75 29.5054 21.067 27.1612 23.4112C24.817 25.7554 23.5 28.9348 23.5 32.25C23.5 43.5 36 52.25 36 52.25C36 52.25 48.5 43.5 48.5 32.25C48.5 28.9348 47.183 25.7554 44.8388 23.4112C42.4946 21.067 39.3152 19.75 36 19.75ZM36 37.25C35.0111 37.25 34.0444 36.9568 33.2221 36.4073C32.3999 35.8579 31.759 35.077 31.3806 34.1634C31.0022 33.2498 30.9031 32.2445 31.0961 31.2745C31.289 30.3046 31.7652 29.4137 32.4645 28.7145C33.1637 28.0152 34.0546 27.539 35.0245 27.3461C35.9945 27.1531 36.9998 27.2522 37.9134 27.6306C38.827 28.009 39.6079 28.6499 40.1573 29.4721C40.7068 30.2944 41 31.2611 41 32.25C41 33.5761 40.4732 34.8479 39.5355 35.7855C38.5979 36.7232 37.3261 37.25 36 37.25Z" fill="url(#paint1_linear_3062_4792)"/>
<path d="M47.25 51H39.5219C40.8201 49.8408 42.0444 48.6014 43.1875 47.2891C47.4766 42.3563 49.75 37.1562 49.75 32.25C49.75 28.6033 48.3013 25.1059 45.7227 22.5273C43.1441 19.9487 39.6467 18.5 36 18.5C32.3533 18.5 28.8559 19.9487 26.2773 22.5273C23.6987 25.1059 22.25 28.6033 22.25 32.25C22.25 37.1562 24.5172 42.3563 28.8125 47.2891C29.9556 48.6014 31.1799 49.8408 32.4781 51H24.75C24.4185 51 24.1005 51.1317 23.8661 51.3661C23.6317 51.6005 23.5 51.9185 23.5 52.25C23.5 52.5815 23.6317 52.8995 23.8661 53.1339C24.1005 53.3683 24.4185 53.5 24.75 53.5H47.25C47.5815 53.5 47.8995 53.3683 48.1339 53.1339C48.3683 52.8995 48.5 52.5815 48.5 52.25C48.5 51.9185 48.3683 51.6005 48.1339 51.3661C47.8995 51.1317 47.5815 51 47.25 51ZM24.75 32.25C24.75 29.2663 25.9353 26.4048 28.045 24.295C30.1548 22.1853 33.0163 21 36 21C38.9837 21 41.8452 22.1853 43.955 24.295C46.0647 26.4048 47.25 29.2663 47.25 32.25C47.25 41.1922 38.5828 48.6562 36 50.6875C33.4172 48.6562 24.75 41.1922 24.75 32.25ZM42.25 32.25C42.25 31.0139 41.8834 29.8055 41.1967 28.7777C40.5099 27.7499 39.5338 26.9488 38.3918 26.4758C37.2497 26.0027 35.9931 25.8789 34.7807 26.1201C33.5683 26.3612 32.4547 26.9565 31.5806 27.8306C30.7065 28.7047 30.1112 29.8183 29.8701 31.0307C29.6289 32.2431 29.7527 33.4997 30.2258 34.6418C30.6988 35.7838 31.4999 36.7599 32.5277 37.4467C33.5555 38.1334 34.7639 38.5 36 38.5C37.6576 38.5 39.2473 37.8415 40.4194 36.6694C41.5915 35.4973 42.25 33.9076 42.25 32.25ZM32.25 32.25C32.25 31.5083 32.4699 30.7833 32.882 30.1666C33.294 29.5499 33.8797 29.0693 34.5649 28.7855C35.2502 28.5016 36.0042 28.4274 36.7316 28.5721C37.459 28.7167 38.1272 29.0739 38.6517 29.5983C39.1761 30.1228 39.5333 30.791 39.6779 31.5184C39.8226 32.2458 39.7484 32.9998 39.4645 33.6851C39.1807 34.3703 38.7001 34.956 38.0834 35.368C37.4667 35.7801 36.7417 36 36 36C35.0054 36 34.0516 35.6049 33.3483 34.9017C32.6451 34.1984 32.25 33.2446 32.25 32.25Z" fill="url(#paint2_linear_3062_4792)"/>
<defs>
<linearGradient id="paint0_linear_3062_4792" x1="-0.799145" y1="36" x2="72.8028" y2="36" gradientUnits="userSpaceOnUse">
<stop stop-color="#D9C59A"/>
<stop offset="0.8" stop-color="#B28B31"/>
</linearGradient>
<linearGradient id="paint1_linear_3062_4792" x1="23.2225" y1="36" x2="48.7788" y2="36" gradientUnits="userSpaceOnUse">
<stop stop-color="#D9C59A"/>
<stop offset="0.8" stop-color="#B28B31"/>
</linearGradient>
<linearGradient id="paint2_linear_3062_4792" x1="21.9448" y1="36" x2="50.0566" y2="36" gradientUnits="userSpaceOnUse">
<stop stop-color="#D9C59A"/>
<stop offset="0.8" stop-color="#B28B31"/>
</linearGradient>
</defs>
</svg>
