<svg width="72" height="72" viewBox="0 0 72 72" fill="none" xmlns="http://www.w3.org/2000/svg">
<rect x="1" y="1" width="70" height="70" fill="white"/>
<rect x="1" y="1" width="70" height="70" stroke="url(#paint0_linear_3062_6814)" stroke-width="2"/>
<path opacity="0.2" d="M48.5 22.25H23.5C23.1685 22.25 22.8505 22.3817 22.6161 22.6161C22.3817 22.8505 22.25 23.1685 22.25 23.5V48.5C22.25 48.8315 22.3817 49.1495 22.6161 49.3839C22.8505 49.6183 23.1685 49.75 23.5 49.75H48.5C48.8315 49.75 49.1495 49.6183 49.3839 49.3839C49.6183 49.1495 49.75 48.8315 49.75 48.5V23.5C49.75 23.1685 49.6183 22.8505 49.3839 22.6161C49.1495 22.3817 48.8315 22.25 48.5 22.25ZM29.75 44.75C29.2555 44.75 28.7722 44.6034 28.3611 44.3287C27.95 44.054 27.6295 43.6635 27.4403 43.2067C27.2511 42.7499 27.2016 42.2472 27.298 41.7623C27.3945 41.2773 27.6326 40.8319 27.9822 40.4822C28.3319 40.1326 28.7773 39.8945 29.2623 39.798C29.7472 39.7016 30.2499 39.7511 30.7067 39.9403C31.1635 40.1295 31.554 40.45 31.8287 40.8611C32.1034 41.2722 32.25 41.7555 32.25 42.25C32.25 42.913 31.9866 43.5489 31.5178 44.0178C31.0489 44.4866 30.413 44.75 29.75 44.75ZM42.25 34.75C41.7555 34.75 41.2722 34.6034 40.8611 34.3287C40.45 34.054 40.1295 33.6635 39.9403 33.2067C39.7511 32.7499 39.7016 32.2472 39.798 31.7623C39.8945 31.2773 40.1326 30.8319 40.4822 30.4822C40.8319 30.1326 41.2773 29.8945 41.7623 29.798C42.2472 29.7016 42.7499 29.7511 43.2067 29.9403C43.6635 30.1295 44.054 30.45 44.3287 30.8611C44.6034 31.2722 44.75 31.7555 44.75 32.25C44.75 32.913 44.4866 33.5489 44.0178 34.0178C43.5489 34.4866 42.913 34.75 42.25 34.75Z" fill="url(#paint1_linear_3062_6814)"/>
<path d="M48.5 21H23.5C22.837 21 22.2011 21.2634 21.7322 21.7322C21.2634 22.2011 21 22.837 21 23.5V48.5C21 49.163 21.2634 49.7989 21.7322 50.2678C22.2011 50.7366 22.837 51 23.5 51H48.5C49.163 51 49.7989 50.7366 50.2678 50.2678C50.7366 49.7989 51 49.163 51 48.5V23.5C51 22.837 50.7366 22.2011 50.2678 21.7322C49.7989 21.2634 49.163 21 48.5 21ZM29.75 41C29.9972 41 30.2389 41.0733 30.4445 41.2107C30.65 41.348 30.8102 41.5432 30.9048 41.7716C30.9995 42.0001 31.0242 42.2514 30.976 42.4939C30.9278 42.7363 30.8087 42.9591 30.6339 43.1339C30.4591 43.3087 30.2363 43.4278 29.9939 43.476C29.7514 43.5242 29.5001 43.4995 29.2716 43.4048C29.0432 43.3102 28.848 43.15 28.7107 42.9445C28.5733 42.7389 28.5 42.4972 28.5 42.25C28.5 41.9185 28.6317 41.6005 28.8661 41.3661C29.1005 41.1317 29.4185 41 29.75 41ZM23.5 23.5H28.5V38.7156C27.666 39.0105 26.9631 39.5907 26.5155 40.3537C26.0679 41.1167 25.9044 42.0134 26.054 42.8853C26.2036 43.7572 26.6566 44.5481 27.3329 45.1183C28.0093 45.6884 28.8654 46.0012 29.75 46.0012C30.6346 46.0012 31.4907 45.6884 32.1671 45.1183C32.8434 44.5481 33.2964 43.7572 33.446 42.8853C33.5956 42.0134 33.4321 41.1167 32.9845 40.3537C32.5369 39.5907 31.834 39.0105 31 38.7156V34.0172L38.5 41.5172V48.5H23.5V23.5ZM48.5 48.5H41V41C41.0001 40.8358 40.9679 40.6732 40.9052 40.5214C40.8424 40.3697 40.7504 40.2318 40.6344 40.1156L31 30.4828V23.5H36V27.25C35.9999 27.4142 36.0321 27.5768 36.0948 27.7286C36.1576 27.8803 36.2496 28.0182 36.3656 28.1344L38.8656 30.6344C38.6235 31.1385 38.4985 31.6908 38.5 32.25C38.5 32.9917 38.7199 33.7167 39.132 34.3334C39.544 34.9501 40.1297 35.4307 40.8149 35.7145C41.5002 35.9984 42.2542 36.0726 42.9816 35.9279C43.709 35.7833 44.3772 35.4261 44.9017 34.9017C45.4261 34.3772 45.7833 33.709 45.9279 32.9816C46.0726 32.2542 45.9984 31.5002 45.7145 30.8149C45.4307 30.1297 44.9501 29.544 44.3334 29.132C43.7167 28.7199 42.9917 28.5 42.25 28.5C41.6907 28.499 41.1383 28.6245 40.6344 28.8672L38.5 26.7328V23.5H48.5V48.5ZM42.25 31C42.4972 31 42.7389 31.0733 42.9445 31.2107C43.15 31.348 43.3102 31.5432 43.4048 31.7716C43.4995 32.0001 43.5242 32.2514 43.476 32.4939C43.4278 32.7363 43.3087 32.9591 43.1339 33.1339C42.9591 33.3087 42.7363 33.4278 42.4939 33.476C42.2514 33.5242 42.0001 33.4995 41.7716 33.4048C41.5432 33.3102 41.348 33.15 41.2107 32.9445C41.0733 32.7389 41 32.4972 41 32.25C41 31.9185 41.1317 31.6005 41.3661 31.3661C41.6005 31.1317 41.9185 31 42.25 31Z" fill="url(#paint2_linear_3062_6814)"/>
<defs>
<linearGradient id="paint0_linear_3062_6814" x1="-0.799145" y1="36" x2="72.8028" y2="36" gradientUnits="userSpaceOnUse">
<stop stop-color="#D9C59A"/>
<stop offset="0.8" stop-color="#B28B31"/>
</linearGradient>
<linearGradient id="paint1_linear_3062_6814" x1="21.9448" y1="36" x2="50.0566" y2="36" gradientUnits="userSpaceOnUse">
<stop stop-color="#D9C59A"/>
<stop offset="0.8" stop-color="#B28B31"/>
</linearGradient>
<linearGradient id="paint2_linear_3062_6814" x1="20.667" y1="36" x2="51.3345" y2="36" gradientUnits="userSpaceOnUse">
<stop stop-color="#D9C59A"/>
<stop offset="0.8" stop-color="#B28B31"/>
</linearGradient>
</defs>
</svg>
