<svg width="72" height="72" viewBox="0 0 72 72" fill="none" xmlns="http://www.w3.org/2000/svg">
<rect x="1" y="1" width="70" height="70" fill="white"/>
<rect x="1" y="1" width="70" height="70" stroke="url(#paint0_linear_3062_6727)" stroke-width="2"/>
<path opacity="0.2" d="M49.75 23.5V28.5C49.75 28.8315 49.6183 29.1495 49.3839 29.3839C49.1495 29.6183 48.8315 29.75 48.5 29.75H43.5C43.1685 29.75 42.8505 29.6183 42.6161 29.3839C42.3817 29.1495 42.25 28.8315 42.25 28.5V23.5C42.25 23.1685 42.3817 22.8505 42.6161 22.6161C42.8505 22.3817 43.1685 22.25 43.5 22.25H48.5C48.8315 22.25 49.1495 22.3817 49.3839 22.6161C49.6183 22.8505 49.75 23.1685 49.75 23.5ZM28.5 22.25H23.5C23.1685 22.25 22.8505 22.3817 22.6161 22.6161C22.3817 22.8505 22.25 23.1685 22.25 23.5V28.5C22.25 28.8315 22.3817 29.1495 22.6161 29.3839C22.8505 29.6183 23.1685 29.75 23.5 29.75H28.5C28.8315 29.75 29.1495 29.6183 29.3839 29.3839C29.6183 29.1495 29.75 28.8315 29.75 28.5V23.5C29.75 23.1685 29.6183 22.8505 29.3839 22.6161C29.1495 22.3817 28.8315 22.25 28.5 22.25ZM48.5 42.25H43.5C43.1685 42.25 42.8505 42.3817 42.6161 42.6161C42.3817 42.8505 42.25 43.1685 42.25 43.5V48.5C42.25 48.8315 42.3817 49.1495 42.6161 49.3839C42.8505 49.6183 43.1685 49.75 43.5 49.75H48.5C48.8315 49.75 49.1495 49.6183 49.3839 49.3839C49.6183 49.1495 49.75 48.8315 49.75 48.5V43.5C49.75 43.1685 49.6183 42.8505 49.3839 42.6161C49.1495 42.3817 48.8315 42.25 48.5 42.25ZM28.5 42.25H23.5C23.1685 42.25 22.8505 42.3817 22.6161 42.6161C22.3817 42.8505 22.25 43.1685 22.25 43.5V48.5C22.25 48.8315 22.3817 49.1495 22.6161 49.3839C22.8505 49.6183 23.1685 49.75 23.5 49.75H28.5C28.8315 49.75 29.1495 49.6183 29.3839 49.3839C29.6183 49.1495 29.75 48.8315 29.75 48.5V43.5C29.75 43.1685 29.6183 42.8505 29.3839 42.6161C29.1495 42.3817 28.8315 42.25 28.5 42.25Z" fill="url(#paint1_linear_3062_6727)"/>
<path d="M48.5 31C49.163 31 49.7989 30.7366 50.2678 30.2678C50.7366 29.7989 51 29.163 51 28.5V23.5C51 22.837 50.7366 22.2011 50.2678 21.7322C49.7989 21.2634 49.163 21 48.5 21H43.5C42.837 21 42.2011 21.2634 41.7322 21.7322C41.2634 22.2011 41 22.837 41 23.5V24.75H31V23.5C31 22.837 30.7366 22.2011 30.2678 21.7322C29.7989 21.2634 29.163 21 28.5 21H23.5C22.837 21 22.2011 21.2634 21.7322 21.7322C21.2634 22.2011 21 22.837 21 23.5V28.5C21 29.163 21.2634 29.7989 21.7322 30.2678C22.2011 30.7366 22.837 31 23.5 31H24.75V41H23.5C22.837 41 22.2011 41.2634 21.7322 41.7322C21.2634 42.2011 21 42.837 21 43.5V48.5C21 49.163 21.2634 49.7989 21.7322 50.2678C22.2011 50.7366 22.837 51 23.5 51H28.5C29.163 51 29.7989 50.7366 30.2678 50.2678C30.7366 49.7989 31 49.163 31 48.5V47.25H41V48.5C41 49.163 41.2634 49.7989 41.7322 50.2678C42.2011 50.7366 42.837 51 43.5 51H48.5C49.163 51 49.7989 50.7366 50.2678 50.2678C50.7366 49.7989 51 49.163 51 48.5V43.5C51 42.837 50.7366 42.2011 50.2678 41.7322C49.7989 41.2634 49.163 41 48.5 41H47.25V31H48.5ZM43.5 23.5H48.5V28.5H43.5V23.5ZM23.5 23.5H28.5V25.9844C28.4979 25.9947 28.4979 26.0053 28.5 26.0156V28.5H23.5V23.5ZM28.5 48.5H23.5V43.5H28.5V45.9844C28.4979 45.9947 28.4979 46.0053 28.5 46.0156V48.5ZM48.5 48.5H43.5V43.5H48.5V48.5ZM44.75 41H43.5C42.837 41 42.2011 41.2634 41.7322 41.7322C41.2634 42.2011 41 42.837 41 43.5V44.75H31V43.5C31 42.837 30.7366 42.2011 30.2678 41.7322C29.7989 41.2634 29.163 41 28.5 41H27.25V31H28.5C29.163 31 29.7989 30.7366 30.2678 30.2678C30.7366 29.7989 31 29.163 31 28.5V27.25H41V28.5C41 29.163 41.2634 29.7989 41.7322 30.2678C42.2011 30.7366 42.837 31 43.5 31H44.75V41Z" fill="url(#paint2_linear_3062_6727)"/>
<defs>
<linearGradient id="paint0_linear_3062_6727" x1="-0.799145" y1="36" x2="72.8028" y2="36" gradientUnits="userSpaceOnUse">
<stop stop-color="#D9C59A"/>
<stop offset="0.8" stop-color="#B28B31"/>
</linearGradient>
<linearGradient id="paint1_linear_3062_6727" x1="21.9448" y1="36" x2="50.0566" y2="36" gradientUnits="userSpaceOnUse">
<stop stop-color="#D9C59A"/>
<stop offset="0.8" stop-color="#B28B31"/>
</linearGradient>
<linearGradient id="paint2_linear_3062_6727" x1="20.667" y1="36" x2="51.3345" y2="36" gradientUnits="userSpaceOnUse">
<stop stop-color="#D9C59A"/>
<stop offset="0.8" stop-color="#B28B31"/>
</linearGradient>
</defs>
</svg>
