<svg width="72" height="72" viewBox="0 0 72 72" fill="none" xmlns="http://www.w3.org/2000/svg">
<rect x="1" y="1" width="70" height="70" fill="white"/>
<rect x="1" y="1" width="70" height="70" stroke="url(#paint0_linear_3062_6734)" stroke-width="2"/>
<path opacity="0.2" d="M40.25 31.75C36.6562 28.1563 31.5672 27.4328 28.875 30.125C28.3579 30.6444 27.9532 31.2645 27.6859 31.9469C27.4964 32.403 27.1778 32.7939 26.7692 33.0715C26.3606 33.349 25.8798 33.5012 25.3859 33.5094C23.5 33.5687 21.7812 34.2203 20.5 35.5C17.1875 38.8125 18.0828 45.0813 22.5 49.5C26.9172 53.9188 33.1859 54.8125 36.5 51.5C37.7797 50.2188 38.4312 48.5 38.5 46.6141C38.5081 46.1202 38.6603 45.6394 38.9379 45.2308C39.2155 44.8222 39.6063 44.5036 40.0625 44.3141C40.7449 44.0468 41.365 43.6421 41.8844 43.125C44.5672 40.4328 43.8391 35.3406 40.25 31.75ZM33.5 42.25C32.7583 42.25 32.0333 42.0301 31.4166 41.618C30.7999 41.206 30.3193 40.6203 30.0354 39.9351C29.7516 39.2498 29.6774 38.4958 29.822 37.7684C29.9667 37.041 30.3239 36.3728 30.8483 35.8483C31.3728 35.3239 32.041 34.9667 32.7684 34.8221C33.4958 34.6774 34.2498 34.7516 34.9351 35.0355C35.6203 35.3193 36.2059 35.7999 36.618 36.4166C37.0301 37.0333 37.25 37.7583 37.25 38.5C37.25 39.4946 36.8549 40.4484 36.1516 41.1517C35.4484 41.8549 34.4946 42.25 33.5 42.25Z" fill="url(#paint1_linear_3062_6734)"/>
<path d="M54.3844 22.6156L49.3844 17.6156C49.1726 17.4041 48.8919 17.2756 48.5934 17.2535C48.2949 17.2314 47.9984 17.3172 47.7577 17.4952C47.5171 17.6732 47.3483 17.9317 47.2821 18.2236C47.2159 18.5155 47.2566 18.8215 47.3969 19.0859L37.9563 28.525C34.3953 26.6719 30.4078 26.8266 27.9922 29.2406C27.3547 29.8808 26.8554 30.645 26.525 31.4859C26.4236 31.7139 26.2581 31.9075 26.0486 32.0431C25.8392 32.1788 25.5949 32.2507 25.3453 32.25C23.0656 32.3266 21.086 33.1438 19.6188 34.6109C17.7313 36.5031 16.9375 39.2188 17.3656 42.2609C17.7813 45.1719 19.2922 48.0547 21.625 50.375C23.9578 52.6953 26.8344 54.2125 29.75 54.6281C30.2725 54.7062 30.7999 54.7469 31.3281 54.75C33.7219 54.75 35.8328 53.9328 37.3844 52.3813C38.8516 50.9141 39.6688 48.9344 39.7453 46.6547C39.7451 46.4046 39.8176 46.1599 39.9542 45.9504C40.0907 45.741 40.2852 45.5757 40.5141 45.475C41.3551 45.1449 42.1193 44.6455 42.7594 44.0078C45.1735 41.5922 45.3281 37.6016 43.475 34.0438L52.9141 24.6031C53.1785 24.7434 53.4845 24.7841 53.7764 24.7179C54.0683 24.6517 54.3268 24.483 54.5048 24.2423C54.6828 24.0017 54.7686 23.7051 54.7465 23.4066C54.7244 23.1081 54.5959 22.8274 54.3844 22.6156ZM47.25 26.7312L45.2688 24.75L49.125 20.8922L51.1078 22.875L47.25 26.7312ZM41 42.2391C40.6016 42.6358 40.1255 42.9459 39.6016 43.15C38.9207 43.4305 38.3364 43.9035 37.9201 44.511C37.5038 45.1184 37.2737 45.8341 37.2578 46.5703C37.2016 48.2047 36.6328 49.6031 35.6281 50.6141C34.3094 51.9313 32.3469 52.4813 30.1031 52.1594C27.7188 51.8203 25.3328 50.5609 23.386 48.6141C21.4391 46.6672 20.1797 44.2812 19.8406 41.9078C19.5281 39.6625 20.0688 37.7016 21.386 36.3828C22.3969 35.375 23.7953 34.8094 25.4297 34.75C26.166 34.7345 26.8819 34.5045 27.4894 34.0882C28.097 33.6719 28.5698 33.0874 28.85 32.4063C29.0531 31.8795 29.3633 31.4007 29.761 31C30.6188 30.1422 31.7922 29.7297 33.1016 29.7297C34.1317 29.7462 35.148 29.9688 36.0906 30.3844L32.9531 33.5297C32.0166 33.6328 31.1282 33.9985 30.3904 34.5846C29.6526 35.1707 29.0954 35.9533 28.783 36.8423C28.4707 37.7313 28.4159 38.6904 28.625 39.6092C28.8341 40.5279 29.2986 41.3689 29.9648 42.0352C30.6311 42.7015 31.4721 43.1659 32.3909 43.375C33.3096 43.5841 34.2688 43.5293 35.1577 43.217C36.0467 42.9046 36.8294 42.3475 37.4154 41.6097C38.0015 40.8719 38.3672 39.9835 38.4703 39.0469L41.6078 35.9094C42.6266 38.2984 42.4797 40.7516 41 42.2391ZM39.375 32.6328C39.7053 32.965 40.0147 33.3172 40.3016 33.6875L37.8922 36.0969C37.4326 35.2623 36.7456 34.5753 35.911 34.1156L38.3203 31.7047C38.688 31.9924 39.0376 32.3023 39.3672 32.6328H39.375ZM33.5 36C34.1631 36 34.7989 36.2634 35.2678 36.7322C35.7366 37.2011 36 37.837 36 38.5C36 38.9945 35.8534 39.4778 35.5787 39.8889C35.304 40.3 34.9135 40.6205 34.4567 40.8097C33.9999 40.9989 33.4972 41.0484 33.0123 40.952C32.5273 40.8555 32.0819 40.6174 31.7323 40.2678C31.3826 39.9181 31.1445 39.4727 31.0481 38.9877C30.9516 38.5028 31.0011 38.0001 31.1903 37.5433C31.3795 37.0865 31.7 36.696 32.1111 36.4213C32.5222 36.1466 33.0056 36 33.5 36ZM41.1328 30.8672C40.8013 30.5369 40.4529 30.224 40.0891 29.9297L43.5 26.5172L45.4828 28.5L42.0719 31.9094C41.7776 31.5455 41.4647 31.1972 41.1344 30.8656L41.1328 30.8672ZM30.6328 46.3656C30.8674 46.6 30.9992 46.9179 30.9994 47.2494C30.9995 47.581 30.868 47.899 30.6336 48.1336C30.3993 48.3681 30.0813 48.5 29.7498 48.5001C29.4182 48.5003 29.1002 48.3687 28.8656 48.1344L23.8656 43.1344C23.6313 42.8998 23.4997 42.5818 23.4999 42.2502C23.5 41.9187 23.6319 41.6008 23.8664 41.3664C24.101 41.1321 24.419 41.0005 24.7506 41.0006C25.0821 41.0008 25.4001 41.1326 25.6344 41.3672L30.6328 46.3656Z" fill="url(#paint2_linear_3062_6734)"/>
<defs>
<linearGradient id="paint0_linear_3062_6734" x1="-0.799145" y1="36" x2="72.8028" y2="36" gradientUnits="userSpaceOnUse">
<stop stop-color="#D9C59A"/>
<stop offset="0.8" stop-color="#B28B31"/>
</linearGradient>
<linearGradient id="paint1_linear_3062_6734" x1="18.2227" y1="40.9993" x2="43.7809" y2="40.9993" gradientUnits="userSpaceOnUse">
<stop stop-color="#D9C59A"/>
<stop offset="0.8" stop-color="#B28B31"/>
</linearGradient>
<linearGradient id="paint2_linear_3062_6734" x1="16.8362" y1="36.0001" x2="55.168" y2="36.0001" gradientUnits="userSpaceOnUse">
<stop stop-color="#D9C59A"/>
<stop offset="0.8" stop-color="#B28B31"/>
</linearGradient>
</defs>
</svg>
