<svg width="72" height="72" viewBox="0 0 72 72" fill="none" xmlns="http://www.w3.org/2000/svg">
<rect x="1" y="1" width="70" height="70" fill="white"/>
<rect x="1" y="1" width="70" height="70" stroke="url(#paint0_linear_3062_4785)" stroke-width="2"/>
<path opacity="0.2" d="M52.2499 35.9719C52.2547 37.7845 51.7669 39.5643 50.8384 41.121C49.9099 42.6777 48.5758 43.9529 46.9787 44.81C45.3816 45.6671 43.5815 46.074 41.771 45.9872C39.9605 45.9004 38.2077 45.3232 36.6999 44.3172C36.4925 44.1761 36.2475 44.1007 35.9968 44.1007C35.746 44.1007 35.501 44.1761 35.2936 44.3172C34.1462 45.0869 32.8517 45.6105 31.4918 45.855C30.1319 46.0994 28.7361 46.0594 27.3925 45.7374C26.0488 45.4155 24.7865 44.8186 23.685 43.9844C22.5836 43.1501 21.667 42.0967 20.993 40.8906C20.319 39.6844 19.9023 38.3516 19.7692 36.9764C19.636 35.6011 19.7893 34.2132 20.2194 32.9001C20.6495 31.5871 21.347 30.3774 22.2679 29.3474C23.1889 28.3174 24.3133 27.4894 25.5702 26.9156C25.8524 26.7839 26.0753 26.5515 26.1952 26.2641C27.0043 24.3324 28.3662 22.683 30.1098 21.523C31.8534 20.3629 33.9009 19.744 35.9952 19.744C38.0894 19.744 40.137 20.3629 41.8806 21.523C43.6242 22.683 44.9861 24.3324 45.7952 26.2641C45.9151 26.5515 46.138 26.7839 46.4202 26.9156C48.1548 27.7115 49.6254 28.9871 50.6584 30.5919C51.6914 32.1966 52.2436 34.0634 52.2499 35.9719Z" fill="url(#paint1_linear_3062_4785)"/>
<path d="M46.9532 25.7812C46.0489 23.6222 44.5268 21.7786 42.578 20.482C40.6292 19.1854 38.3407 18.4937 36 18.4937C33.6593 18.4937 31.3708 19.1854 29.4221 20.482C27.4733 21.7786 25.9512 23.6222 25.0469 25.7812C23.1012 26.6827 21.4522 28.1194 20.2929 29.9235C19.1335 31.7275 18.5117 33.8243 18.5 35.9687C18.4829 42.0343 23.4 47.0937 29.4594 47.25C31.2924 47.2978 33.1091 46.8948 34.75 46.0765V52.25C34.75 52.5815 34.8817 52.8994 35.1162 53.1338C35.3506 53.3683 35.6685 53.5 36 53.5C36.3316 53.5 36.6495 53.3683 36.8839 53.1338C37.1184 52.8994 37.25 52.5815 37.25 52.25V46.0765C38.8029 46.8509 40.5148 47.2527 42.25 47.25H42.5407C48.6 47.0937 53.5172 42.0375 53.5 35.9718C53.4896 33.8268 52.8682 31.7291 51.7088 29.9243C50.5493 28.1196 48.8998 26.6824 46.9532 25.7812ZM42.4766 44.75C40.6715 44.7994 38.8957 44.2861 37.3954 43.2812C37.3464 43.25 37.298 43.2203 37.25 43.1921V36.7718L44.0594 33.3687C44.2063 33.2952 44.3373 33.1936 44.445 33.0695C44.5526 32.9454 44.6347 32.8013 44.6867 32.6455C44.7386 32.4897 44.7593 32.3251 44.7477 32.1613C44.7361 31.9974 44.6923 31.8375 44.6188 31.6906C44.5453 31.5437 44.4437 31.4127 44.3196 31.305C44.1955 31.1974 44.0514 31.1153 43.8956 31.0633C43.7398 31.0114 43.5752 30.9907 43.4114 31.0023C43.2475 31.0139 43.0876 31.0577 42.9407 31.1312L37.25 33.9781V29.75C37.25 29.4184 37.1184 29.1005 36.8839 28.8661C36.6495 28.6317 36.3316 28.5 36 28.5C35.6685 28.5 35.3506 28.6317 35.1162 28.8661C34.8817 29.1005 34.75 29.4184 34.75 29.75V37.7281L29.0594 34.8812C28.7627 34.7328 28.4192 34.7084 28.1045 34.8133C27.7898 34.9182 27.5296 35.1439 27.3813 35.4406C27.2329 35.7373 27.2085 36.0808 27.3134 36.3955C27.4183 36.7102 27.644 36.9704 27.9407 37.1187L34.75 40.5218V43.1875C34.7016 43.2156 34.6532 43.2453 34.6063 43.2765C33.1059 44.2831 31.3296 44.798 29.5235 44.75C27.5473 44.7006 25.646 43.9835 24.1294 42.7155C22.6129 41.4475 21.5703 39.7033 21.1717 37.7671C20.7731 35.8309 21.0419 33.8167 21.9342 32.0528C22.8266 30.2888 24.29 28.8791 26.086 28.0531C26.654 27.7928 27.1031 27.3281 27.3438 26.7515C28.0573 25.0463 29.259 23.5901 30.7978 22.5659C32.3365 21.5417 34.1438 20.9952 35.9922 20.9952C37.8407 20.9952 39.6479 21.5417 41.1867 22.5659C42.7255 23.5901 43.9272 25.0463 44.6407 26.7515C44.8814 27.3281 45.3305 27.7928 45.8985 28.0531C47.6945 28.8791 49.1579 30.2888 50.0502 32.0528C50.9426 33.8167 51.2114 35.8309 50.8127 37.7671C50.4141 39.7033 49.3716 41.4475 47.855 42.7155C46.3384 43.9835 44.4372 44.7006 42.461 44.75H42.4766Z" fill="url(#paint2_linear_3062_4785)"/>
<defs>
<linearGradient id="paint0_linear_3062_4785" x1="-0.799145" y1="36" x2="72.8028" y2="36" gradientUnits="userSpaceOnUse">
<stop stop-color="#D9C59A"/>
<stop offset="0.8" stop-color="#B28B31"/>
</linearGradient>
<linearGradient id="paint1_linear_3062_4785" x1="19.3616" y1="32.8784" x2="52.6126" y2="32.8784" gradientUnits="userSpaceOnUse">
<stop stop-color="#D9C59A"/>
<stop offset="0.8" stop-color="#B28B31"/>
</linearGradient>
<linearGradient id="paint2_linear_3062_4785" x1="18.1115" y1="35.9968" x2="53.8903" y2="35.9968" gradientUnits="userSpaceOnUse">
<stop stop-color="#D9C59A"/>
<stop offset="0.8" stop-color="#B28B31"/>
</linearGradient>
</defs>
</svg>
