<svg width="72" height="72" viewBox="0 0 72 72" fill="none" xmlns="http://www.w3.org/2000/svg">
<rect x="1" y="1" width="70" height="70" fill="white"/>
<rect x="1" y="1" width="70" height="70" stroke="url(#paint0_linear_3062_6756)" stroke-width="2"/>
<path opacity="0.2" d="M51 31V33.5C51 34.8261 50.4732 36.0979 49.5355 37.0355C48.5979 37.9732 47.3261 38.5 46 38.5C44.6739 38.5 43.4021 37.9732 42.4645 37.0355C41.5268 36.0979 41 34.8261 41 33.5V31H31V33.5C31 34.8261 30.4732 36.0979 29.5355 37.0355C28.5979 37.9732 27.3261 38.5 26 38.5C24.6739 38.5 23.4021 37.9732 22.4645 37.0355C21.5268 36.0979 21 34.8261 21 33.5V31L23.2406 23.1562C23.3151 22.896 23.472 22.6669 23.6879 22.5034C23.9037 22.34 24.1668 22.2511 24.4375 22.25H47.5625C47.834 22.2501 48.0982 22.3385 48.315 22.502C48.5317 22.6655 48.6894 22.8952 48.7641 23.1562L51 31Z" fill="url(#paint1_linear_3062_6756)"/>
<path d="M52.25 31C52.2507 30.8838 52.2349 30.7681 52.2031 30.6563L49.9609 22.8125C49.8102 22.2921 49.4952 21.8343 49.0629 21.5076C48.6307 21.181 48.1043 21.0029 47.5625 21H24.4375C23.8957 21.0029 23.3693 21.181 22.9371 21.5076C22.5048 21.8343 22.1898 22.2921 22.0391 22.8125L19.7984 30.6563C19.7662 30.768 19.7499 30.8837 19.75 31V33.5C19.75 34.4703 19.9759 35.4272 20.4098 36.2951C20.8438 37.1629 21.4738 37.9178 22.25 38.5V48.5C22.25 49.163 22.5134 49.7989 22.9822 50.2678C23.4511 50.7366 24.087 51 24.75 51H47.25C47.913 51 48.5489 50.7366 49.0178 50.2678C49.4866 49.7989 49.75 49.163 49.75 48.5V38.5C50.5262 37.9178 51.1562 37.1629 51.5902 36.2951C52.0241 35.4272 52.25 34.4703 52.25 33.5V31ZM24.4375 23.5H47.5625L49.3469 29.75H22.6578L24.4375 23.5ZM32.25 32.25H39.75V33.5C39.75 34.4946 39.3549 35.4484 38.6517 36.1517C37.9484 36.8549 36.9946 37.25 36 37.25C35.0054 37.25 34.0516 36.8549 33.3483 36.1517C32.6451 35.4484 32.25 34.4946 32.25 33.5V32.25ZM29.75 32.25V33.5C29.75 34.4946 29.3549 35.4484 28.6517 36.1517C27.9484 36.8549 26.9946 37.25 26 37.25C25.0054 37.25 24.0516 36.8549 23.3484 36.1517C22.6451 35.4484 22.25 34.4946 22.25 33.5V32.25H29.75ZM47.25 48.5H24.75V39.625C25.1615 39.708 25.5802 39.7498 26 39.75C26.9703 39.75 27.9272 39.5241 28.7951 39.0902C29.6629 38.6562 30.4178 38.0262 31 37.25C31.5822 38.0262 32.3371 38.6562 33.2049 39.0902C34.0728 39.5241 35.0297 39.75 36 39.75C36.9703 39.75 37.9272 39.5241 38.7951 39.0902C39.6629 38.6562 40.4178 38.0262 41 37.25C41.5822 38.0262 42.3371 38.6562 43.2049 39.0902C44.0728 39.5241 45.0297 39.75 46 39.75C46.4198 39.7498 46.8385 39.708 47.25 39.625V48.5ZM46 37.25C45.0054 37.25 44.0516 36.8549 43.3483 36.1517C42.6451 35.4484 42.25 34.4946 42.25 33.5V32.25H49.75V33.5C49.75 34.4946 49.3549 35.4484 48.6516 36.1517C47.9484 36.8549 46.9946 37.25 46 37.25Z" fill="url(#paint2_linear_3062_6756)"/>
<defs>
<linearGradient id="paint0_linear_3062_6756" x1="-0.799145" y1="36" x2="72.8028" y2="36" gradientUnits="userSpaceOnUse">
<stop stop-color="#D9C59A"/>
<stop offset="0.8" stop-color="#B28B31"/>
</linearGradient>
<linearGradient id="paint1_linear_3062_6756" x1="20.667" y1="30.375" x2="51.3345" y2="30.375" gradientUnits="userSpaceOnUse">
<stop stop-color="#D9C59A"/>
<stop offset="0.8" stop-color="#B28B31"/>
</linearGradient>
<linearGradient id="paint2_linear_3062_6756" x1="19.3893" y1="36" x2="52.6124" y2="36" gradientUnits="userSpaceOnUse">
<stop stop-color="#D9C59A"/>
<stop offset="0.8" stop-color="#B28B31"/>
</linearGradient>
</defs>
</svg>
