<svg width="736" height="535" viewBox="0 0 736 535" fill="none" xmlns="http://www.w3.org/2000/svg">
<mask id="mask0_725_35160" style="mask-type:alpha" maskUnits="userSpaceOnUse" x="0" y="0" width="736" height="535">
<rect width="736" height="535" fill="#D9D9D9"/>
</mask>
<g mask="url(#mask0_725_35160)">
<path d="M798.47 740.928L545.506 282.813L292.545 282.813L166.064 511.872L292.545 740.928L798.473 740.928L798.47 740.928ZM1057.36 411.111L616.35 411.111L478.371 660.991L1195.34 660.991L1057.36 411.111ZM587.988 359.752L9.00066 359.752L146.98 109.872L725.965 109.872L587.986 359.752L587.988 359.752ZM210.514 -233.639L469.228 234.888L727.938 -233.639L210.514 -233.639ZM871.136 -289.248L650.751 109.866L760.942 309.422L981.327 309.422L1091.52 109.866L871.136 -289.248Z" stroke="#D9C59A" stroke-opacity="0.65" stroke-miterlimit="10"/>
</g>
</svg>
