<svg width="72" height="76" viewBox="0 0 72 76" fill="none" xmlns="http://www.w3.org/2000/svg">
<rect x="0.5" y="0.5" width="71" height="71" fill="white"/>
<g filter="url(#filter0_d_1133_9491)">
<path d="M24.7205 57L24.9572 55.8056L29.9265 30.7279L28.0233 31.5197V37.0853V38.0853H27.0233H23.8916H22.8916V37.0853V28.8062V28.1435L23.5019 27.8853L32.5829 24.0421C32.5837 24.0418 32.5844 24.0415 32.5851 24.0412C33.1186 23.8128 33.6795 23.6741 34.2632 23.6238L34.2633 23.6238C34.8474 23.5736 35.4229 23.6168 35.985 23.7562C36.5846 23.8947 37.1375 24.1249 37.6323 24.4548C38.1361 24.7907 38.553 25.2175 38.8762 25.7289L24.7205 57ZM24.7205 57H25.9381H29.1629H29.959L30.1375 56.2241L33.3306 42.341L36.38 44.9838V56V57H37.38H40.4807H41.4807V56V42.2636V41.8241L41.1569 41.5269L37.4338 38.1093L38.4148 33.9618C39.4595 35.0307 40.6115 35.9039 41.8723 36.5732C43.7043 37.5457 45.7849 38.0412 48.0896 38.0851L49.1086 38.1045V37.0853V33.9845V32.9845H48.1086C46.6008 32.9845 45.2253 32.6077 43.962 31.8543L43.9619 31.8543C42.6781 31.0887 41.6253 30.0635 40.7977 28.7662C40.7974 28.7657 40.7971 28.7652 40.7968 28.7647L38.8766 25.7296L24.7205 57ZM34.9131 22.6838L34.9132 22.6839C35.7857 23.5563 36.8634 24.0077 38.0931 24.0077C39.3229 24.0077 40.4006 23.5563 41.2731 22.6839L41.2731 22.6838C42.1456 21.8113 42.597 20.7336 42.597 19.5039C42.597 18.2741 42.1456 17.1964 41.2731 16.3239C40.4006 15.4514 39.3229 15 38.0931 15C36.8633 15 35.7857 15.4514 34.9131 16.3239C34.0407 17.1964 33.5893 18.2741 33.5893 19.5039C33.5893 20.7336 34.0407 21.8113 34.9131 22.6838Z" stroke="url(#paint0_linear_1133_9491)" stroke-width="2" shape-rendering="crispEdges"/>
</g>
<rect x="0.5" y="0.5" width="71" height="71" stroke="url(#paint1_linear_1133_9491)"/>
<defs>
<filter id="filter0_d_1133_9491" x="7.8916" y="4" width="56.2168" height="72" filterUnits="userSpaceOnUse" color-interpolation-filters="sRGB">
<feFlood flood-opacity="0" result="BackgroundImageFix"/>
<feColorMatrix in="SourceAlpha" type="matrix" values="0 0 0 0 0 0 0 0 0 0 0 0 0 0 0 0 0 0 127 0" result="hardAlpha"/>
<feOffset dy="4"/>
<feGaussianBlur stdDeviation="7"/>
<feComposite in2="hardAlpha" operator="out"/>
<feColorMatrix type="matrix" values="0 0 0 0 0 0 0 0 0 0 0 0 0 0 0 0 0 0 0.15 0"/>
<feBlend mode="normal" in2="BackgroundImageFix" result="effect1_dropShadow_1133_9491"/>
<feBlend mode="normal" in="SourceGraphic" in2="effect1_dropShadow_1133_9491" result="shape"/>
</filter>
<linearGradient id="paint0_linear_1133_9491" x1="23.6228" y1="36" x2="48.3786" y2="36" gradientUnits="userSpaceOnUse">
<stop stop-color="#D9C59A"/>
<stop offset="0.8" stop-color="#B28B31"/>
</linearGradient>
<linearGradient id="paint1_linear_1133_9491" x1="-0.799145" y1="36" x2="72.8028" y2="36" gradientUnits="userSpaceOnUse">
<stop stop-color="#D9C59A"/>
<stop offset="0.8" stop-color="#B28B31"/>
</linearGradient>
</defs>
</svg>
