<svg width="72" height="72" viewBox="0 0 72 72" fill="none" xmlns="http://www.w3.org/2000/svg">
<rect x="1" y="1" width="70" height="70" fill="white"/>
<rect x="1" y="1" width="70" height="70" stroke="url(#paint0_linear_3062_6807)" stroke-width="2"/>
<path opacity="0.2" d="M43.5 23.5C43.5 24.2417 43.2801 24.9667 42.868 25.5834C42.456 26.2001 41.8703 26.6807 41.1851 26.9645C40.4998 27.2484 39.7458 27.3226 39.0184 27.1779C38.291 27.0333 37.6228 26.6761 37.0984 26.1517C36.5739 25.6272 36.2168 24.959 36.0721 24.2316C35.9274 23.5042 36.0016 22.7502 36.2855 22.0649C36.5693 21.3797 37.0499 20.794 37.6666 20.382C38.2833 19.9699 39.0083 19.75 39.75 19.75C40.7446 19.75 41.6984 20.1451 42.4017 20.8483C43.1049 21.5516 43.5 22.5054 43.5 23.5Z" fill="url(#paint1_linear_3062_6807)"/>
<path d="M39.7501 28.5C40.739 28.5 41.7057 28.2068 42.5279 27.6574C43.3502 27.1079 43.991 26.3271 44.3695 25.4134C44.7479 24.4998 44.8469 23.4945 44.654 22.5246C44.4611 21.5546 43.9849 20.6637 43.2856 19.9645C42.5864 19.2652 41.6954 18.789 40.7255 18.5961C39.7556 18.4031 38.7503 18.5022 37.8367 18.8806C36.923 19.259 36.1421 19.8999 35.5927 20.7222C35.0433 21.5444 34.7501 22.5111 34.7501 23.5C34.7501 24.8261 35.2769 26.0979 36.2145 27.0355C37.1522 27.9732 38.424 28.5 39.7501 28.5ZM39.7501 21C40.2445 21 40.7279 21.1466 41.139 21.4213C41.5501 21.696 41.8706 22.0865 42.0598 22.5433C42.249 23.0001 42.2985 23.5028 42.202 23.9877C42.1056 24.4727 41.8675 24.9181 41.5178 25.2678C41.1682 25.6174 40.7228 25.8555 40.2378 25.952C39.7529 26.0484 39.2502 25.9989 38.7934 25.8097C38.3366 25.6205 37.9461 25.3001 37.6714 24.8889C37.3967 24.4778 37.2501 23.9945 37.2501 23.5C37.2501 22.837 37.5135 22.2011 37.9823 21.7322C38.4512 21.2634 39.087 21 39.7501 21ZM49.7501 38.5C49.7501 38.8315 49.6184 39.1495 49.384 39.3839C49.1495 39.6183 48.8316 39.75 48.5001 39.75C42.9829 39.75 40.2266 36.9672 38.0126 34.7313C37.5845 34.2984 37.1751 33.8875 36.7626 33.5063L34.6641 38.3313L40.4766 42.4828C40.6385 42.5985 40.7705 42.7511 40.8616 42.928C40.9526 43.1049 41.0001 43.301 41.0001 43.5V52.25C41.0001 52.5815 40.8684 52.8995 40.634 53.1339C40.3995 53.3683 40.0816 53.5 39.7501 53.5C39.4186 53.5 39.1006 53.3683 38.8662 53.1339C38.6318 52.8995 38.5001 52.5815 38.5001 52.25V44.1438L33.6454 40.675L28.397 52.7484C28.2998 52.9718 28.1395 53.162 27.9358 53.2955C27.732 53.429 27.4937 53.5001 27.2501 53.5C27.0784 53.5004 26.9086 53.4647 26.7516 53.3953C26.4478 53.2632 26.2088 53.0159 26.0872 52.7077C25.9656 52.3994 25.9714 52.0555 26.1032 51.7516L34.5532 32.3188C33.0985 32.0609 31.2845 32.5063 29.1313 33.6594C27.4141 34.6066 25.8114 35.7479 24.3548 37.0609C24.1116 37.2787 23.7929 37.3928 23.4668 37.3787C23.1407 37.3646 22.833 37.2235 22.6096 36.9856C22.3861 36.7476 22.2646 36.4317 22.271 36.1053C22.2774 35.779 22.4112 35.4681 22.6438 35.2391C23.0345 34.8719 32.2829 26.2984 38.0688 31.3203C38.6673 31.8391 39.2376 32.4141 39.7876 32.9734C41.9673 35.1719 44.0251 37.25 48.5001 37.25C48.8316 37.25 49.1495 37.3817 49.384 37.6161C49.6184 37.8505 49.7501 38.1685 49.7501 38.5Z" fill="url(#paint2_linear_3062_6807)"/>
<defs>
<linearGradient id="paint0_linear_3062_6807" x1="-0.799145" y1="36" x2="72.8028" y2="36" gradientUnits="userSpaceOnUse">
<stop stop-color="#D9C59A"/>
<stop offset="0.8" stop-color="#B28B31"/>
</linearGradient>
<linearGradient id="paint1_linear_3062_6807" x1="35.9168" y1="23.5" x2="43.5836" y2="23.5" gradientUnits="userSpaceOnUse">
<stop stop-color="#D9C59A"/>
<stop offset="0.8" stop-color="#B28B31"/>
</linearGradient>
<linearGradient id="paint2_linear_3062_6807" x1="21.9658" y1="36" x2="50.0565" y2="36" gradientUnits="userSpaceOnUse">
<stop stop-color="#D9C59A"/>
<stop offset="0.8" stop-color="#B28B31"/>
</linearGradient>
</defs>
</svg>
