<svg width="69" height="58" viewBox="0 0 69 58" fill="none" xmlns="http://www.w3.org/2000/svg">
<path d="M37.5843 0L15.957 2.49615V26.3708L27.7484 37.1415L52.2874 31.008L52.2911 5.15532L37.5843 0ZM27.4653 36.1778L16.2919 25.9704V3.06131L27.4968 9.36871L27.4653 36.176V36.1778ZM16.5897 2.66823L37.4234 0.268091L51.3588 5.168L27.7502 8.81079L16.5897 2.66823ZM51.7269 30.5262L28.0795 36.3499V9.41943L51.7473 5.70781L51.7269 30.5262ZM50.3247 7.61162L44.6047 8.50828L48.1677 11.9174V11.0225L45.9903 8.93034L49.7715 8.32714L49.7623 18.9204L44.0461 13.5821L46.9449 13.0695L42.4811 8.84158L32.3435 10.432L50.308 26.6697L50.3117 22.6102L39.0606 12.2507L42.0759 11.7435L41.4858 11.1928L37.5954 11.8359L49.7586 22.9906V25.2803L33.8697 10.8613L42.2369 9.52811L45.5704 12.6728L42.6383 13.1836L50.3136 20.3224L50.3247 7.60981V7.61162ZM30.0071 10.7979L29.5483 10.8704V34.5095L47.8846 29.9936L31.7201 15.7486V29.423L38.0339 27.9775L34.482 24.9397V22.5052L41.6393 28.6912L34.1676 30.4465L34.7928 30.9664L43.0582 29.0028L33.8568 21.0144V25.3491L36.5595 27.6496L32.3583 28.6006V17.2575L46.525 29.6875L30.1995 33.6654V11.9246L49.9195 29.4882L50.3099 29.3922V28.9484L30.0108 10.7925L30.0071 10.7979ZM48.2787 4.8655L44.6861 3.59025L43.6317 4.84195L44.3735 4.73145L45.008 3.95435L47.2982 4.77674L38.2947 6.15886L40.435 4.02862L42.1074 4.67348L43.4819 3.16456L38.4871 1.39118L31.0283 7.50293L35.0241 6.89248L39.5212 2.80047L41.0844 3.38194L41.2712 3.19717L39.2937 2.47079L34.482 6.74576L32.2547 7.08812L38.6961 1.69187L42.8566 3.18449L41.8243 4.28765L40.1835 3.66271L37.194 6.5628L48.2824 4.86912L48.2787 4.8655ZM37.5159 1.00897L37.0016 0.818765L19.1278 2.93995L26.9363 7.21492L34.5135 1.73897L23.9616 3.01965L26.4331 4.24599L27.9778 3.35114L29.9886 3.11566L26.6181 5.22597L23.5324 3.64097L23.1957 3.83479L26.6699 5.64622L31.0098 2.76967L27.5874 3.1863L26.3887 3.86921L24.8274 3.14102L33.5404 2.08314L26.8771 6.74214L20.0823 3.0595L36.8351 1.07599L28.0147 7.80725L28.2293 7.925L28.69 7.85435L37.5177 1.00897H37.5159ZM26.5589 10.6276L17.2612 25.4886L17.0947 25.3383V24.9198L26.0261 10.5226L17.252 5.45421L17.2187 21.7208L23.5139 11.287L19.1019 8.61153V12.4844L20.1193 10.6965L21.8323 11.7761L17.8125 18.616L17.831 10.3288L18.1621 9.74729L18.1473 17.2158L21.1812 11.9953L20.2248 11.383L18.7578 13.9408L18.7781 7.80907L24.2132 11.0497L16.8783 23.0106L16.919 4.72783L26.557 10.1422V10.624L26.5589 10.6276ZM24.1003 27.8706V24.534L21.3255 28.5608L26.1463 32.9155V28.4412L25.0234 29.961L24.5998 29.5915L26.557 26.9178V28.05H26.5607V33.131V33.9697L20.6836 28.6115L24.4777 23.054V26.4088L26.1852 23.9887V14.6508L18.7226 26.2132L19.6347 27.0374L25.4804 18.1867L25.4896 22.5215L25.1048 23.0722V19.7156L19.7382 27.7529L18.1288 26.2856L26.5589 13.122V13.9516V24.3547L24.1003 27.8743V27.8706Z" fill="url(#paint0_radial_1005_6636)"/>
<path d="M1.47993 53.3668V57.4411H0.425163V51.895L0 51.2286V51.1455H1.2574L4.43798 55.6189V51.1455H5.49275V57.4429H4.43798L1.47993 53.3687V53.3668Z" fill="#111111"/>
<path d="M7.39844 57.441V51.1436H10.8757V52.1531H8.4532V53.764H10.6912V54.7735H8.4532V56.4314H10.8757V57.441H7.39844Z" fill="#111111"/>
<path d="M11.9785 51.1436H13.1617L14.401 56.0973L15.8991 51.8659L15.6856 51.1436H16.7494L18.2293 56.0973L19.4686 51.1436H20.6518L18.8951 57.441H17.7209L16.4165 53.2927L14.9185 57.441H13.7353L11.9785 51.1436Z" fill="#111111"/>
<path d="M27.4763 57.441L25.7286 53.0796V57.441H24.6738V51.1436H25.9493L27.9376 56.0973L29.935 51.1436H31.2014V57.441H30.1467V53.0796L28.399 57.441H27.4745H27.4763Z" fill="#111111"/>
<path d="M37.7431 51.1436V55.1347C37.7431 56.6247 36.8366 57.5421 35.4038 57.5421C33.9709 57.5421 33.0645 56.6247 33.0645 55.1347V51.1436H34.1192V55.2088C34.1192 55.9872 34.6276 56.5145 35.4128 56.5145C36.198 56.5145 36.6883 55.9872 36.6883 55.2088V51.1436H37.7431Z" fill="#111111"/>
<path d="M39.5975 51.1436H41.613C42.8052 51.1436 43.6375 51.81 43.6375 52.9405C43.6375 53.8489 43.0911 54.3672 42.4163 54.5514C43.1924 54.9307 43.7478 56.0142 43.9324 57.441H42.8414C42.5917 55.9691 41.926 54.9505 41.1317 54.9505H40.6505V57.441H39.5957V51.1436H39.5975ZM41.6039 52.1531H40.6523V53.941H41.6039C42.1503 53.941 42.5465 53.6268 42.5465 53.0525C42.5465 52.4782 42.1485 52.1549 41.6039 52.1549V52.1531Z" fill="#111111"/>
<path d="M49.0071 55.886H46.6117L46.0472 57.441H44.873L47.2214 51.1436H48.3956L50.7439 57.441H49.5697L49.0053 55.886H49.0071ZM46.9536 54.8765H48.6633L47.813 52.5251L46.9536 54.8765Z" fill="#111111"/>
<path d="M51.9082 51.1436H53.9237C55.0327 51.1436 55.8468 51.7919 55.8468 52.8014C55.8468 53.4967 55.523 53.9591 55.0237 54.1993C55.6243 54.4485 56.0314 54.9487 56.0314 55.7181C56.0314 56.7746 55.172 57.441 53.9978 57.441H51.9082V51.1436ZM53.9237 52.1531H52.9612V53.699H53.9237C54.3868 53.699 54.7649 53.4678 54.7649 52.9297C54.7649 52.3915 54.385 52.1513 53.9237 52.1513V52.1531ZM53.9978 54.7176H52.963V56.4314H53.9978C54.5243 56.4314 54.9495 56.1623 54.9495 55.579C54.9495 54.9957 54.5243 54.7176 53.9978 54.7176Z" fill="#111111"/>
<path d="M57.5234 51.1436H59.5389C60.6479 51.1436 61.4621 51.7919 61.4621 52.8014C61.4621 53.4967 61.1382 53.9591 60.6389 54.1993C61.2395 54.4485 61.6466 54.9487 61.6466 55.7181C61.6466 56.7746 60.7872 57.441 59.6131 57.441H57.5234V51.1436ZM59.5389 52.1531H58.5764V53.699H59.5389C60.002 53.699 60.3802 53.4678 60.3802 52.9297C60.3802 52.3915 60.0002 52.1513 59.5389 52.1513V52.1531ZM59.6131 54.7176H58.5782V56.4314H59.6131C60.1395 56.4314 60.5647 56.1623 60.5647 55.579C60.5647 54.9957 60.1395 54.7176 59.6131 54.7176Z" fill="#111111"/>
<path d="M66.5188 55.886H64.1234L63.5589 57.441H62.3848L64.7331 51.1436H65.9073L68.2556 57.441H67.0815L66.517 55.886H66.5188ZM64.4654 54.8765H66.1751L65.3247 52.5251L64.4654 54.8765Z" fill="#111111"/>
<defs>
<radialGradient id="paint0_radial_1005_6636" cx="0" cy="0" r="1" gradientUnits="userSpaceOnUse" gradientTransform="translate(34.125 18.5708) scale(18.5713 18.1849)">
<stop stop-color="#D9C59A"/>
<stop offset="0.8" stop-color="#B28B31"/>
</radialGradient>
</defs>
</svg>
