<svg width="72" height="72" viewBox="0 0 72 72" fill="none" xmlns="http://www.w3.org/2000/svg">
<rect x="1" y="1" width="70" height="70" fill="white"/>
<rect x="1" y="1" width="70" height="70" stroke="url(#paint0_linear_3038_6260)" stroke-width="2"/>
<path opacity="0.2" d="M51 36.2141C50.8875 44.2922 44.2938 50.8859 36.2157 50.9984H36V42.25C37.5704 42.2524 39.0841 41.6635 40.24 40.6005C41.3959 39.5376 42.1093 38.0784 42.2383 36.5134C42.3673 34.9483 41.9025 33.3921 40.9362 32.1542C39.9699 30.9163 38.573 30.0876 37.0235 29.8328C36.7352 29.7822 36.4742 29.631 36.2868 29.4062C36.0995 29.1813 35.9978 28.8974 36 28.6047V22.25C35.9994 22.0767 36.0349 21.9051 36.1041 21.7462C36.1734 21.5873 36.275 21.4445 36.4024 21.3269C36.5297 21.2094 36.6802 21.1196 36.8442 21.0633C37.0081 21.007 37.182 20.9855 37.3547 21C45.0735 21.6969 51.1094 28.2891 51 36.2141Z" fill="url(#paint1_linear_3038_6260)"/>
<path d="M37.467 19.7594C37.1217 19.7293 36.7739 19.7713 36.4457 19.8828C36.1175 19.9943 35.816 20.1728 35.5605 20.407C35.305 20.6412 35.101 20.926 34.9614 21.2433C34.8218 21.5606 34.7498 21.9034 34.7498 22.25V28.6047C34.7455 29.1944 34.9515 29.7662 35.331 30.2176C35.7105 30.6689 36.2384 30.9702 36.8201 31.0672C37.7494 31.2231 38.6157 31.6385 39.3192 32.2654C40.0228 32.8923 40.5348 33.7052 40.7963 34.6105C41.0579 35.5158 41.0583 36.4766 40.7975 37.3821C40.5367 38.2875 40.0253 39.1009 39.3224 39.7284C38.6194 40.3559 37.7534 40.772 36.8242 40.9287C35.895 41.0854 34.9405 40.9763 34.0706 40.614C33.2007 40.2518 32.4509 39.6511 31.9076 38.8812C31.3643 38.1113 31.0496 37.2035 30.9998 36.2625C30.9357 34.9781 31.1982 33.9188 31.781 33.0969C32.1236 32.6191 32.2851 32.0351 32.2367 31.4492C32.1883 30.8632 31.9332 30.3136 31.517 29.8985L27.2013 25.4813C26.9553 25.2353 26.6607 25.0433 26.3363 24.9177C26.0119 24.7921 25.6648 24.7355 25.3173 24.7517C24.9698 24.7679 24.6294 24.8564 24.3181 25.0116C24.0067 25.1669 23.7312 25.3853 23.5091 25.6531C20.9044 28.775 19.5699 32.7627 19.7708 36.8235C19.9717 40.8843 21.6934 44.7208 24.5935 47.5703C27.626 50.5789 31.728 52.2619 35.9998 52.25H36.2326C40.4584 52.1781 44.491 50.4673 47.4794 47.4786C50.4678 44.4899 52.1783 40.4571 52.2498 36.2313C52.367 27.7469 45.8732 20.5125 37.467 19.7594ZM25.4248 27.2406L29.7388 31.6453V31.6547C29.0985 32.5737 28.6963 33.6373 28.5685 34.75H22.306C22.5564 31.9876 23.6445 29.3676 25.4248 27.2406ZM22.3076 37.25H28.6045C28.8637 38.7859 29.5947 40.2029 30.6959 41.3044C31.7971 42.4059 33.214 43.1373 34.7498 43.3969V49.6938C31.5483 49.4013 28.5505 47.9963 26.2774 45.7229C24.0043 43.4495 22.5997 40.4515 22.3076 37.25ZM45.7091 45.7094C43.445 47.9893 40.4498 49.3984 37.2498 49.6891V43.3969C38.6982 43.1554 40.0428 42.4905 41.1138 41.486C42.1376 40.5321 42.8741 39.311 43.2401 37.9605C43.6062 36.61 43.5871 35.184 43.1851 33.8438C42.7831 32.5036 42.0143 31.3025 40.9654 30.3764C39.9165 29.4503 38.6295 28.8361 37.2498 28.6031V22.25C44.3623 22.8875 49.8545 29.0125 49.7498 36.1953C49.7007 39.7734 48.2499 43.1895 45.7091 45.7094Z" fill="url(#paint2_linear_3038_6260)"/>
<defs>
<linearGradient id="paint0_linear_3038_6260" x1="-0.799145" y1="36" x2="72.8028" y2="36" gradientUnits="userSpaceOnUse">
<stop stop-color="#D9C59A"/>
<stop offset="0.8" stop-color="#B28B31"/>
</linearGradient>
<linearGradient id="paint1_linear_3038_6260" x1="35.8335" y1="35.997" x2="51.1688" y2="35.997" gradientUnits="userSpaceOnUse">
<stop stop-color="#D9C59A"/>
<stop offset="0.8" stop-color="#B28B31"/>
</linearGradient>
<linearGradient id="paint2_linear_3038_6260" x1="19.3902" y1="36" x2="52.6137" y2="36" gradientUnits="userSpaceOnUse">
<stop stop-color="#D9C59A"/>
<stop offset="0.8" stop-color="#B28B31"/>
</linearGradient>
</defs>
</svg>
