<svg width="72" height="72" viewBox="0 0 72 72" fill="none" xmlns="http://www.w3.org/2000/svg">
<rect x="1" y="1" width="70" height="70" fill="white"/>
<rect x="1" y="1" width="70" height="70" stroke="url(#paint0_linear_3679_743)" stroke-width="2"/>
<path opacity="0.2" d="M49.75 34.0531V49.75H39.75V41C39.75 40.6685 39.6183 40.3505 39.3839 40.1161C39.1495 39.8817 38.8315 39.75 38.5 39.75H33.5C33.1685 39.75 32.8505 39.8817 32.6161 40.1161C32.3817 40.3505 32.25 40.6685 32.25 41V49.75H22.25V34.0531C22.25 33.8789 22.2864 33.7067 22.3569 33.5474C22.4274 33.3881 22.5305 33.2453 22.6594 33.1281L35.1594 21.325C35.3895 21.1155 35.6896 20.9994 36.0008 20.9994C36.312 20.9994 36.612 21.1155 36.8422 21.325L49.3422 33.1281C49.4708 33.2454 49.5735 33.3883 49.6438 33.5476C49.714 33.7068 49.7502 33.879 49.75 34.0531Z" fill="url(#paint1_linear_3679_743)"/>
<path d="M53.5 48.5H51V34.0547C51.0001 33.7087 50.9283 33.3664 50.7892 33.0496C50.6502 32.7328 50.4469 32.4483 50.1922 32.2141L37.6922 20.4203C37.6861 20.415 37.6803 20.4092 37.675 20.4031C37.2148 19.9846 36.615 19.7527 35.993 19.7527C35.3709 19.7527 34.7712 19.9846 34.3109 20.4031L34.2938 20.4203L21.8078 32.2141C21.5531 32.4483 21.3498 32.7328 21.2108 33.0496C21.0717 33.3664 20.9999 33.7087 21 34.0547V48.5H18.5C18.1685 48.5 17.8505 48.6317 17.6161 48.8661C17.3817 49.1005 17.25 49.4185 17.25 49.75C17.25 50.0815 17.3817 50.3995 17.6161 50.6339C17.8505 50.8683 18.1685 51 18.5 51H53.5C53.8315 51 54.1495 50.8683 54.3839 50.6339C54.6183 50.3995 54.75 50.0815 54.75 49.75C54.75 49.4185 54.6183 49.1005 54.3839 48.8661C54.1495 48.6317 53.8315 48.5 53.5 48.5ZM23.5 34.0547L23.5172 34.0391L36 22.25L48.4844 34.0359L48.5016 34.0516V48.5H41V41C41 40.337 40.7366 39.7011 40.2678 39.2322C39.7989 38.7634 39.163 38.5 38.5 38.5H33.5C32.837 38.5 32.2011 38.7634 31.7322 39.2322C31.2634 39.7011 31 40.337 31 41V48.5H23.5V34.0547ZM38.5 48.5H33.5V41H38.5V48.5Z" fill="url(#paint2_linear_3679_743)"/>
<defs>
<linearGradient id="paint0_linear_3679_743" x1="-0.799145" y1="36" x2="72.8028" y2="36" gradientUnits="userSpaceOnUse">
<stop stop-color="#D9C59A"/>
<stop offset="0.8" stop-color="#B28B31"/>
</linearGradient>
<linearGradient id="paint1_linear_3679_743" x1="21.9448" y1="35.3747" x2="50.0566" y2="35.3747" gradientUnits="userSpaceOnUse">
<stop stop-color="#D9C59A"/>
<stop offset="0.8" stop-color="#B28B31"/>
</linearGradient>
<linearGradient id="paint2_linear_3679_743" x1="16.8338" y1="35.3763" x2="55.1681" y2="35.3763" gradientUnits="userSpaceOnUse">
<stop stop-color="#D9C59A"/>
<stop offset="0.8" stop-color="#B28B31"/>
</linearGradient>
</defs>
</svg>
