<svg width="72" height="72" viewBox="0 0 72 72" fill="none" xmlns="http://www.w3.org/2000/svg">
<rect x="1" y="1" width="70" height="70" fill="white"/>
<rect x="1" y="1" width="70" height="70" stroke="url(#paint0_linear_3679_751)" stroke-width="2"/>
<path opacity="0.2" d="M44.75 32.25V49.75H27.25V32.25H44.75Z" fill="url(#paint1_linear_3679_751)"/>
<path d="M48.5 21H23.5C22.837 21 22.2011 21.2634 21.7322 21.7322C21.2634 22.2011 21 22.837 21 23.5V48.5C21 49.163 21.2634 49.7989 21.7322 50.2678C22.2011 50.7366 22.837 51 23.5 51H48.5C49.163 51 49.7989 50.7366 50.2678 50.2678C50.7366 49.7989 51 49.163 51 48.5V23.5C51 22.837 50.7366 22.2011 50.2678 21.7322C49.7989 21.2634 49.163 21 48.5 21ZM43.5 33.5V48.5H37.25V33.5H43.5ZM34.75 48.5H28.5V33.5H34.75V48.5ZM48.5 48.5H46V32.25C46 31.9185 45.8683 31.6005 45.6339 31.3661C45.3995 31.1317 45.0815 31 44.75 31H27.25C26.9185 31 26.6005 31.1317 26.3661 31.3661C26.1317 31.6005 26 31.9185 26 32.25V48.5H23.5V23.5H48.5V48.5ZM39.75 27.25C39.75 27.5815 39.6183 27.8995 39.3839 28.1339C39.1495 28.3683 38.8315 28.5 38.5 28.5H33.5C33.1685 28.5 32.8505 28.3683 32.6161 28.1339C32.3817 27.8995 32.25 27.5815 32.25 27.25C32.25 26.9185 32.3817 26.6005 32.6161 26.3661C32.8505 26.1317 33.1685 26 33.5 26H38.5C38.8315 26 39.1495 26.1317 39.3839 26.3661C39.6183 26.6005 39.75 26.9185 39.75 27.25Z" fill="url(#paint2_linear_3679_751)"/>
<defs>
<linearGradient id="paint0_linear_3679_751" x1="-0.799145" y1="36" x2="72.8028" y2="36" gradientUnits="userSpaceOnUse">
<stop stop-color="#D9C59A"/>
<stop offset="0.8" stop-color="#B28B31"/>
</linearGradient>
<linearGradient id="paint1_linear_3679_751" x1="27.0558" y1="41" x2="44.9451" y2="41" gradientUnits="userSpaceOnUse">
<stop stop-color="#D9C59A"/>
<stop offset="0.8" stop-color="#B28B31"/>
</linearGradient>
<linearGradient id="paint2_linear_3679_751" x1="20.667" y1="36" x2="51.3345" y2="36" gradientUnits="userSpaceOnUse">
<stop stop-color="#D9C59A"/>
<stop offset="0.8" stop-color="#B28B31"/>
</linearGradient>
</defs>
</svg>
