<svg width="72" height="72" viewBox="0 0 72 72" fill="none" xmlns="http://www.w3.org/2000/svg">
<rect x="1" y="1" width="70" height="70" fill="white"/>
<rect x="1" y="1" width="70" height="70" stroke="url(#paint0_linear_3679_730)" stroke-width="2"/>
<path opacity="0.2" d="M46 28.5V42.25H34.75V47.25H26V28.5H46Z" fill="url(#paint1_linear_3679_730)"/>
<path d="M53.5 46H52.25V24.75C52.25 24.087 51.9866 23.4511 51.5178 22.9822C51.0489 22.5134 50.413 22.25 49.75 22.25H22.25C21.587 22.25 20.9511 22.5134 20.4822 22.9822C20.0134 23.4511 19.75 24.087 19.75 24.75V46H18.5C18.1685 46 17.8505 46.1317 17.6161 46.3661C17.3817 46.6005 17.25 46.9185 17.25 47.25C17.25 47.5815 17.3817 47.8995 17.6161 48.1339C17.8505 48.3683 18.1685 48.5 18.5 48.5H53.5C53.8315 48.5 54.1495 48.3683 54.3839 48.1339C54.6183 47.8995 54.75 47.5815 54.75 47.25C54.75 46.9185 54.6183 46.6005 54.3839 46.3661C54.1495 46.1317 53.8315 46 53.5 46ZM22.25 24.75H49.75V46H47.25V42.25C47.25 41.9185 47.1183 41.6005 46.8839 41.3661C46.6495 41.1317 46.3315 41 46 41H34.75C34.4185 41 34.1005 41.1317 33.8661 41.3661C33.6317 41.6005 33.5 41.9185 33.5 42.25V46H27.25V29.75H44.75V37.25C44.75 37.5815 44.8817 37.8995 45.1161 38.1339C45.3505 38.3683 45.6685 38.5 46 38.5C46.3315 38.5 46.6495 38.3683 46.8839 38.1339C47.1183 37.8995 47.25 37.5815 47.25 37.25V28.5C47.25 28.1685 47.1183 27.8505 46.8839 27.6161C46.6495 27.3817 46.3315 27.25 46 27.25H26C25.6685 27.25 25.3505 27.3817 25.1161 27.6161C24.8817 27.8505 24.75 28.1685 24.75 28.5V46H22.25V24.75ZM44.75 46H36V43.5H44.75V46Z" fill="url(#paint2_linear_3679_730)"/>
<defs>
<linearGradient id="paint0_linear_3679_730" x1="-0.799145" y1="36" x2="72.8028" y2="36" gradientUnits="userSpaceOnUse">
<stop stop-color="#D9C59A"/>
<stop offset="0.8" stop-color="#B28B31"/>
</linearGradient>
<linearGradient id="paint1_linear_3679_730" x1="25.778" y1="37.875" x2="46.223" y2="37.875" gradientUnits="userSpaceOnUse">
<stop stop-color="#D9C59A"/>
<stop offset="0.8" stop-color="#B28B31"/>
</linearGradient>
<linearGradient id="paint2_linear_3679_730" x1="16.8338" y1="35.375" x2="55.1681" y2="35.375" gradientUnits="userSpaceOnUse">
<stop stop-color="#D9C59A"/>
<stop offset="0.8" stop-color="#B28B31"/>
</linearGradient>
</defs>
</svg>
