<svg width="72" height="72" viewBox="0 0 72 72" fill="none" xmlns="http://www.w3.org/2000/svg">
<rect x="1" y="1" width="70" height="70" fill="white"/>
<rect x="1" y="1" width="70" height="70" stroke="url(#paint0_linear_3038_6318)" stroke-width="2"/>
<path opacity="0.2" d="M21 46L29.75 34.75H23.5L36 18.5L48.5 34.75H42.25L51 46H21Z" fill="url(#paint1_linear_3038_6318)"/>
<path d="M51.986 45.2328L44.8063 36H48.5C48.7335 36 48.9623 35.9346 49.1606 35.8113C49.3588 35.6879 49.5185 35.5115 49.6217 35.302C49.7248 35.0925 49.7672 34.8584 49.744 34.626C49.7208 34.3937 49.6331 34.1725 49.4907 33.9875L36.9907 17.7375C36.8739 17.5858 36.7239 17.4629 36.5521 17.3783C36.3804 17.2938 36.1915 17.2498 36 17.2498C35.8086 17.2498 35.6197 17.2938 35.448 17.3783C35.2762 17.4629 35.1262 17.5858 35.0094 17.7375L22.5094 33.9875C22.367 34.1725 22.2792 34.3937 22.2561 34.626C22.2329 34.8584 22.2753 35.0925 22.3784 35.302C22.4815 35.5115 22.6413 35.6879 22.8395 35.8113C23.0377 35.9346 23.2666 36 23.5 36H27.1938L20.0141 45.2328C19.8705 45.4175 19.7817 45.6387 19.7576 45.8713C19.7335 46.104 19.7752 46.3387 19.8779 46.5489C19.9807 46.759 20.1403 46.9361 20.3386 47.0601C20.537 47.184 20.7661 47.2498 21 47.25H34.75V53.5C34.75 53.8315 34.8817 54.1494 35.1162 54.3839C35.3506 54.6183 35.6685 54.75 36 54.75C36.3316 54.75 36.6495 54.6183 36.8839 54.3839C37.1183 54.1494 37.25 53.8315 37.25 53.5V47.25H51C51.2339 47.2498 51.4631 47.184 51.6615 47.0601C51.8598 46.9361 52.0194 46.759 52.1221 46.5489C52.2248 46.3387 52.2665 46.104 52.2425 45.8713C52.2184 45.6387 52.1295 45.4175 51.986 45.2328ZM23.5563 44.75L30.7438 35.5172C30.8878 35.332 30.9767 35.11 31.0005 34.8767C31.0243 34.6433 30.9819 34.408 30.8782 34.1976C30.7746 33.9871 30.6138 33.8101 30.4143 33.6868C30.2148 33.5634 29.9846 33.4987 29.75 33.5H26.0391L36 20.55L45.961 33.5H42.25C42.0161 33.5002 41.787 33.5659 41.5886 33.6899C41.3903 33.8138 41.2307 33.9909 41.1279 34.2011C41.0252 34.4112 40.9835 34.646 41.0076 34.8786C41.0317 35.1113 41.1205 35.3325 41.2641 35.5172L48.4438 44.75H23.5563Z" fill="url(#paint2_linear_3038_6318)"/>
<defs>
<linearGradient id="paint0_linear_3038_6318" x1="-0.799145" y1="36" x2="72.8028" y2="36" gradientUnits="userSpaceOnUse">
<stop stop-color="#D9C59A"/>
<stop offset="0.8" stop-color="#B28B31"/>
</linearGradient>
<linearGradient id="paint1_linear_3038_6318" x1="20.667" y1="32.25" x2="51.3345" y2="32.25" gradientUnits="userSpaceOnUse">
<stop stop-color="#D9C59A"/>
<stop offset="0.8" stop-color="#B28B31"/>
</linearGradient>
<linearGradient id="paint2_linear_3038_6318" x1="19.3903" y1="35.9999" x2="52.6115" y2="35.9999" gradientUnits="userSpaceOnUse">
<stop stop-color="#D9C59A"/>
<stop offset="0.8" stop-color="#B28B31"/>
</linearGradient>
</defs>
</svg>
