<svg width="72" height="72" viewBox="0 0 72 72" fill="none" xmlns="http://www.w3.org/2000/svg">
<rect x="1" y="1" width="70" height="70" fill="white"/>
<rect x="1" y="1" width="70" height="70" stroke="url(#paint0_linear_3038_6333)" stroke-width="2"/>
<path opacity="0.2" d="M51 41H41L46 21L51 41Z" fill="url(#paint1_linear_3038_6333)"/>
<path d="M52.25 46H47.25V42.25H51C51.1899 42.2499 51.3774 42.2066 51.5481 42.1233C51.7188 42.04 51.8682 41.9189 51.9851 41.7692C52.102 41.6195 52.1832 41.4451 52.2226 41.2593C52.262 41.0735 52.2586 40.8811 52.2125 40.6969L47.2125 20.6969C47.1448 20.4266 46.9887 20.1867 46.769 20.0153C46.5493 19.8438 46.2786 19.7507 46 19.7507C45.7214 19.7507 45.4507 19.8438 45.231 20.0153C45.0113 20.1867 44.8552 20.4266 44.7875 20.6969L39.7875 40.6969C39.7414 40.8811 39.738 41.0735 39.7774 41.2593C39.8168 41.4451 39.898 41.6195 40.0149 41.7692C40.1318 41.9189 40.2812 42.04 40.4519 42.1233C40.6226 42.2066 40.8101 42.2499 41 42.25H44.75V46H34.75V43.5H36C36.3315 43.5 36.6495 43.3683 36.8839 43.1339C37.1183 42.8994 37.25 42.5815 37.25 42.25C37.25 41.9185 37.1183 41.6005 36.8839 41.3661C36.6495 41.1317 36.3315 41 36 41H34.75V38.5H36C36.3315 38.5 36.6495 38.3683 36.8839 38.1339C37.1183 37.8994 37.25 37.5815 37.25 37.25C37.25 36.9185 37.1183 36.6005 36.8839 36.3661C36.6495 36.1317 36.3315 36 36 36H22.25C21.9185 36 21.6005 36.1317 21.3661 36.3661C21.1317 36.6005 21 36.9185 21 37.25C21 37.5815 21.1317 37.8994 21.3661 38.1339C21.6005 38.3683 21.9185 38.5 22.25 38.5H23.5V41H22.25C21.9185 41 21.6005 41.1317 21.3661 41.3661C21.1317 41.6005 21 41.9185 21 42.25C21 42.5815 21.1317 42.8994 21.3661 43.1339C21.6005 43.3683 21.9185 43.5 22.25 43.5H23.5V46H19.75C19.4185 46 19.1005 46.1317 18.8661 46.3661C18.6317 46.6005 18.5 46.9185 18.5 47.25C18.5 47.5815 18.6317 47.8994 18.8661 48.1339C19.1005 48.3683 19.4185 48.5 19.75 48.5H52.25C52.5815 48.5 52.8995 48.3683 53.1339 48.1339C53.3683 47.8994 53.5 47.5815 53.5 47.25C53.5 46.9185 53.3683 46.6005 53.1339 46.3661C52.8995 46.1317 52.5815 46 52.25 46ZM46 26.1562L49.3984 39.75H42.6016L46 26.1562ZM26 38.5H32.25V41H26V38.5ZM26 43.5H32.25V46H26V43.5ZM34.125 31C34.9903 31 35.8362 30.7434 36.5556 30.2627C37.2751 29.7819 37.8358 29.0986 38.167 28.2992C38.4981 27.4998 38.5847 26.6201 38.4159 25.7715C38.2471 24.9228 37.8304 24.1432 37.2186 23.5314C36.6067 22.9195 35.8272 22.5029 34.9785 22.334C34.1299 22.1652 33.2502 22.2519 32.4508 22.583C31.6513 22.9141 30.9681 23.4749 30.4873 24.1944C30.0066 24.9138 29.75 25.7597 29.75 26.625C29.75 27.7853 30.2109 28.8981 31.0314 29.7186C31.8519 30.539 32.9647 31 34.125 31ZM34.125 24.75C34.4958 24.75 34.8584 24.8599 35.1667 25.066C35.475 25.272 35.7154 25.5648 35.8573 25.9074C35.9992 26.2501 36.0363 26.6271 35.964 26.9908C35.8916 27.3545 35.713 27.6886 35.4508 27.9508C35.1886 28.213 34.8545 28.3916 34.4908 28.4639C34.1271 28.5363 33.7501 28.4992 33.4075 28.3573C33.0649 28.2153 32.772 27.975 32.566 27.6667C32.36 27.3583 32.25 26.9958 32.25 26.625C32.25 26.1277 32.4475 25.6508 32.7992 25.2992C33.1508 24.9475 33.6277 24.75 34.125 24.75Z" fill="url(#paint2_linear_3038_6333)"/>
<defs>
<linearGradient id="paint0_linear_3038_6333" x1="-0.799145" y1="36" x2="72.8028" y2="36" gradientUnits="userSpaceOnUse">
<stop stop-color="#D9C59A"/>
<stop offset="0.8" stop-color="#B28B31"/>
</linearGradient>
<linearGradient id="paint1_linear_3038_6333" x1="40.889" y1="31" x2="51.1115" y2="31" gradientUnits="userSpaceOnUse">
<stop stop-color="#D9C59A"/>
<stop offset="0.8" stop-color="#B28B31"/>
</linearGradient>
<linearGradient id="paint2_linear_3038_6333" x1="18.1115" y1="34.1254" x2="53.8903" y2="34.1254" gradientUnits="userSpaceOnUse">
<stop stop-color="#D9C59A"/>
<stop offset="0.8" stop-color="#B28B31"/>
</linearGradient>
</defs>
</svg>
