<svg width="72" height="72" viewBox="0 0 72 72" fill="none" xmlns="http://www.w3.org/2000/svg">
<rect x="1" y="1" width="70" height="70" fill="white"/>
<rect x="1" y="1" width="70" height="70" stroke="url(#paint0_linear_3038_6311)" stroke-width="2"/>
<path opacity="0.2" d="M39.7503 46H48.5003V47.875C48.5003 49.0353 48.0394 50.1481 47.2189 50.9686C46.3984 51.7891 45.2856 52.25 44.1253 52.25C42.965 52.25 41.8522 51.7891 41.0317 50.9686C40.2112 50.1481 39.7503 49.0353 39.7503 47.875V46ZM23.5003 44.125C23.5003 45.2853 23.9612 46.3981 24.7817 47.2186C25.6022 48.0391 26.715 48.5 27.8753 48.5C29.0356 48.5 30.1484 48.0391 30.9689 47.2186C31.7894 46.3981 32.2503 45.2853 32.2503 44.125V42.25H23.5003V44.125ZM27.8753 19.75C24.044 19.75 19.8347 32.25 23.9284 37.25H31.8222C35.9159 32.25 31.7065 19.75 27.8753 19.75ZM48.0722 41C52.1659 36 47.9565 23.5 44.1253 23.5C40.294 23.5 36.0847 36 40.1784 41H48.0722Z" fill="url(#paint1_linear_3038_6311)"/>
<path d="M48.5095 44.75H39.7501C39.4186 44.75 39.1007 44.8817 38.8663 45.1161C38.6318 45.3505 38.5001 45.6685 38.5001 46V47.875C38.5001 49.3679 39.0932 50.7996 40.1488 51.8552C41.2044 52.9109 42.6362 53.5039 44.129 53.5039C45.6219 53.5039 47.0537 52.9109 48.1093 51.8552C49.1649 50.7996 49.7579 49.3679 49.7579 47.875V46C49.7579 45.6687 49.6265 45.351 49.3924 45.1167C49.1583 44.8823 48.8408 44.7504 48.5095 44.75ZM47.2595 47.875C47.2595 48.7038 46.9303 49.4987 46.3442 50.0847C45.7582 50.6708 44.9633 51 44.1345 51C43.3057 51 42.5109 50.6708 41.9248 50.0847C41.3388 49.4987 41.0095 48.7038 41.0095 47.875V47.25H47.2595V47.875ZM32.2501 41H23.5001C23.1686 41 22.8507 41.1317 22.6163 41.3661C22.3818 41.6005 22.2501 41.9185 22.2501 42.25V44.125C22.2501 45.6168 22.8428 47.0476 23.8977 48.1025C24.9526 49.1574 26.3833 49.75 27.8751 49.75C29.367 49.75 30.7977 49.1574 31.8526 48.1025C32.9075 47.0476 33.5001 45.6168 33.5001 44.125V42.25C33.5001 41.9185 33.3684 41.6005 33.134 41.3661C32.8996 41.1317 32.5817 41 32.2501 41ZM31.0001 44.125C31.0001 44.9538 30.6709 45.7487 30.0848 46.3347C29.4988 46.9208 28.7039 47.25 27.8751 47.25C27.0463 47.25 26.2515 46.9208 25.6654 46.3347C25.0794 45.7487 24.7501 44.9538 24.7501 44.125V43.5H31.0001V44.125ZM27.8751 18.5C26.0564 18.5 24.2923 20.1109 22.9064 23.0312C20.7298 27.6219 20.0064 34.4375 22.9517 38.0312C23.0691 38.1746 23.217 38.29 23.3845 38.3692C23.5521 38.4484 23.7351 38.4893 23.9204 38.4891H31.8189C32.0042 38.4893 32.1873 38.4484 32.3548 38.3692C32.5223 38.29 32.6702 38.1746 32.7876 38.0312C35.7329 34.4375 35.0095 27.6172 32.8329 23.0312C31.4454 20.1109 29.6829 18.5 27.8751 18.5ZM31.1798 36H24.5595C22.7783 33.1719 23.4329 27.7656 25.1673 24.1078C26.1783 21.9719 27.2767 21 27.8751 21C28.4736 21 29.5658 21.9719 30.5783 24.1078C32.3064 27.7656 32.9611 33.1719 31.1798 36ZM40.1814 42.25H48.0798C48.2651 42.2503 48.4482 42.2093 48.6157 42.1302C48.7833 42.051 48.9311 41.9355 49.0486 41.7922C51.9939 38.1984 51.2704 31.3781 49.0939 26.7922C47.7079 23.8609 45.9439 22.25 44.1251 22.25C42.3064 22.25 40.5486 23.8609 39.1611 26.7812C36.9845 31.3719 36.2611 38.1875 39.2064 41.7812C39.3234 41.9274 39.4718 42.0454 39.6405 42.1266C39.8093 42.2077 39.9941 42.2499 40.1814 42.25ZM41.4314 27.8578C42.4408 25.7219 43.5392 24.75 44.1251 24.75C44.7111 24.75 45.8142 25.7219 46.8267 27.8578C48.5611 31.5156 49.2158 36.9203 47.4345 39.75H40.8204C39.0392 36.9219 39.6939 31.5156 41.4283 27.8578H41.4314Z" fill="url(#paint2_linear_3038_6311)"/>
<defs>
<linearGradient id="paint0_linear_3038_6311" x1="-0.799145" y1="36" x2="72.8028" y2="36" gradientUnits="userSpaceOnUse">
<stop stop-color="#D9C59A"/>
<stop offset="0.8" stop-color="#B28B31"/>
</linearGradient>
<linearGradient id="paint1_linear_3038_6311" x1="21.9448" y1="36" x2="50.0572" y2="36" gradientUnits="userSpaceOnUse">
<stop stop-color="#D9C59A"/>
<stop offset="0.8" stop-color="#B28B31"/>
</linearGradient>
<linearGradient id="paint2_linear_3038_6311" x1="20.667" y1="36.002" x2="51.3348" y2="36.002" gradientUnits="userSpaceOnUse">
<stop stop-color="#D9C59A"/>
<stop offset="0.8" stop-color="#B28B31"/>
</linearGradient>
</defs>
</svg>
