<svg width="72" height="72" viewBox="0 0 72 72" fill="none" xmlns="http://www.w3.org/2000/svg">
<rect x="1" y="1" width="70" height="70" fill="white"/>
<rect x="1" y="1" width="70" height="70" stroke="url(#paint0_linear_3038_6340)" stroke-width="2"/>
<path opacity="0.2" d="M42.25 38.5C42.25 39.7361 41.8834 40.9445 41.1967 41.9723C40.5099 43.0001 39.5338 43.8012 38.3918 44.2742C37.2497 44.7473 35.9931 44.8711 34.7807 44.6299C33.5683 44.3888 32.4547 43.7935 31.5806 42.9194C30.7065 42.0453 30.1113 40.9317 29.8701 39.7193C29.6289 38.5069 29.7527 37.2503 30.2258 36.1082C30.6988 34.9662 31.4999 33.9901 32.5277 33.3033C33.5555 32.6166 34.7639 32.25 36 32.25C37.6576 32.25 39.2473 32.9085 40.4194 34.0806C41.5915 35.2527 42.25 36.8424 42.25 38.5ZM26 24.75C25.0111 24.75 24.0444 25.0432 23.2222 25.5927C22.3999 26.1421 21.759 26.923 21.3806 27.8366C21.0022 28.7502 20.9031 29.7555 21.0961 30.7255C21.289 31.6954 21.7652 32.5863 22.4645 33.2855C23.1637 33.9848 24.0546 34.461 25.0246 34.6539C25.9945 34.8469 26.9998 34.7478 27.9134 34.3694C28.8271 33.991 29.6079 33.3501 30.1574 32.5279C30.7068 31.7056 31 30.7389 31 29.75C31 28.4239 30.4732 27.1521 29.5355 26.2145C28.5979 25.2768 27.3261 24.75 26 24.75ZM46 24.75C45.0111 24.75 44.0444 25.0432 43.2222 25.5927C42.3999 26.1421 41.759 26.923 41.3806 27.8366C41.0022 28.7502 40.9031 29.7555 41.0961 30.7255C41.289 31.6954 41.7652 32.5863 42.4645 33.2855C43.1637 33.9848 44.0546 34.461 45.0246 34.6539C45.9945 34.8469 46.9998 34.7478 47.9134 34.3694C48.827 33.991 49.6079 33.3501 50.1574 32.5279C50.7068 31.7056 51 30.7389 51 29.75C51 28.4239 50.4732 27.1521 49.5355 26.2145C48.5979 25.2768 47.3261 24.75 46 24.75Z" fill="url(#paint1_linear_3038_6340)"/>
<path d="M54.2505 39.5C54.1191 39.5985 53.9697 39.6701 53.8107 39.7109C53.6517 39.7516 53.4862 39.7606 53.3237 39.7374C53.1612 39.7142 53.0049 39.6592 52.8636 39.5756C52.7224 39.492 52.599 39.3813 52.5005 39.25C51.7471 38.2373 50.7664 37.4156 49.6374 36.8511C48.5084 36.2866 47.2627 35.9951 46.0005 36C45.669 36 45.351 35.8683 45.1166 35.6339C44.8822 35.3995 44.7505 35.0815 44.7505 34.75C44.7505 34.4185 44.8822 34.1005 45.1166 33.8661C45.351 33.6317 45.669 33.5 46.0005 33.5C46.7018 33.4999 47.3891 33.3032 47.9843 32.9321C48.5794 32.561 49.0586 32.0304 49.3673 31.4007C49.676 30.7709 49.802 30.0672 49.7308 29.3695C49.6596 28.6717 49.3942 28.0079 48.9647 27.4535C48.5352 26.899 47.9588 26.4761 47.3009 26.2328C46.6431 25.9895 45.9303 25.9356 45.2433 26.0772C44.5564 26.2187 43.9229 26.5501 43.4149 27.0336C42.9068 27.5171 42.5446 28.1334 42.3692 28.8125C42.3282 28.9715 42.2562 29.1209 42.1575 29.2521C42.0587 29.3833 41.935 29.4938 41.7936 29.5772C41.6521 29.6607 41.4956 29.7154 41.333 29.7383C41.1704 29.7613 41.0048 29.752 40.8458 29.7109C40.6868 29.6699 40.5374 29.5979 40.4062 29.4992C40.275 29.4004 40.1645 29.2767 40.0811 29.1353C39.9976 28.9938 39.9429 28.8373 39.9199 28.6747C39.897 28.5121 39.9063 28.3465 39.9473 28.1875C40.1907 27.2458 40.6505 26.3739 41.2901 25.6412C41.9298 24.9084 42.7316 24.3351 43.6318 23.9668C44.532 23.5985 45.5057 23.4453 46.4755 23.5196C47.4453 23.5938 48.3844 23.8934 49.2181 24.3944C50.0517 24.8954 50.757 25.5841 51.2776 26.4056C51.7983 27.2272 52.12 28.1589 52.2172 29.1267C52.3144 30.0944 52.1845 31.0715 51.8376 31.9802C51.4907 32.8889 50.9366 33.7041 50.2192 34.3609C51.9189 35.0969 53.3965 36.2647 54.5052 37.7484C54.6036 37.8801 54.6752 38.0299 54.7157 38.1892C54.7562 38.3486 54.7649 38.5143 54.7412 38.6771C54.7176 38.8398 54.662 38.9962 54.5778 39.1374C54.4936 39.2786 54.3824 39.4018 54.2505 39.5ZM45.8317 49.125C45.919 49.2673 45.9769 49.4256 46.002 49.5906C46.027 49.7557 46.0188 49.9241 45.9778 50.0859C45.9367 50.2476 45.8637 50.3996 45.763 50.5327C45.6623 50.6658 45.5359 50.7774 45.3914 50.8609C45.2468 50.9444 45.087 50.9981 44.9214 51.0188C44.7558 51.0395 44.5877 51.0269 44.427 50.9816C44.2663 50.9363 44.1164 50.8593 43.986 50.7551C43.8555 50.6509 43.7473 50.5217 43.6677 50.375C42.8801 49.042 41.7587 47.9374 40.4141 47.17C39.0694 46.4026 37.5479 45.999 35.9997 45.999C34.4515 45.999 32.93 46.4026 31.5853 47.17C30.2407 47.9374 29.1192 49.042 28.3317 50.375C28.2536 50.5244 28.146 50.6564 28.0155 50.7631C27.885 50.8699 27.7343 50.9491 27.5724 50.9961C27.4105 51.0431 27.2407 51.0568 27.0734 51.0365C26.906 51.0161 26.7445 50.9622 26.5986 50.8778C26.4526 50.7934 26.3252 50.6804 26.2241 50.5455C26.1229 50.4107 26.0501 50.2567 26.01 50.093C25.9699 49.9292 25.9633 49.7591 25.9907 49.5927C26.0181 49.4264 26.0788 49.2673 26.1692 49.125C27.3811 47.0428 29.2289 45.4042 31.4411 44.45C30.1963 43.4969 29.2815 42.1777 28.8252 40.6779C28.3689 39.178 28.3941 37.5728 28.8972 36.088C29.4004 34.6031 30.3562 33.3133 31.6303 32.3998C32.9044 31.4863 34.4327 30.995 36.0005 30.995C37.5682 30.995 39.0966 31.4863 40.3707 32.3998C41.6448 33.3133 42.6006 34.6031 43.1037 36.088C43.6069 37.5728 43.6321 39.178 43.1758 40.6779C42.7195 42.1777 41.8046 43.4969 40.5598 44.45C42.772 45.4042 44.6198 47.0428 45.8317 49.125ZM36.0005 43.5C36.9894 43.5 37.9561 43.2067 38.7783 42.6573C39.6006 42.1079 40.2414 41.327 40.6199 40.4134C40.9983 39.4998 41.0973 38.4944 40.9044 37.5245C40.7115 36.5546 40.2353 35.6637 39.536 34.9645C38.8367 34.2652 37.9458 33.789 36.9759 33.5961C36.006 33.4031 35.0007 33.5022 34.0871 33.8806C33.1734 34.259 32.3925 34.8999 31.8431 35.7221C31.2937 36.5444 31.0005 37.5111 31.0005 38.5C31.0005 39.8261 31.5273 41.0978 32.4649 42.0355C33.4026 42.9732 34.6744 43.5 36.0005 43.5ZM27.2505 34.75C27.2505 34.4185 27.1188 34.1005 26.8844 33.8661C26.6499 33.6317 26.332 33.5 26.0005 33.5C25.2991 33.4999 24.6118 33.3032 24.0167 32.9321C23.4215 32.561 22.9424 32.0304 22.6336 31.4007C22.3249 30.7709 22.199 30.0672 22.2702 29.3695C22.3413 28.6717 22.6067 28.0079 23.0363 27.4535C23.4658 26.899 24.0422 26.4761 24.7 26.2328C25.3578 25.9895 26.0707 25.9356 26.7576 26.0772C27.4445 26.2187 28.078 26.5501 28.5861 27.0336C29.0941 27.5171 29.4564 28.1334 29.6317 28.8125C29.7146 29.1337 29.9217 29.4087 30.2074 29.5772C30.4931 29.7457 30.834 29.7938 31.1552 29.7109C31.4763 29.6281 31.7514 29.421 31.9199 29.1353C32.0884 28.8496 32.1365 28.5087 32.0536 28.1875C31.8102 27.2458 31.3504 26.3739 30.7108 25.6412C30.0712 24.9084 29.2694 24.3351 28.3692 23.9668C27.4689 23.5985 26.4952 23.4453 25.5254 23.5196C24.5556 23.5938 23.6165 23.8934 22.7829 24.3944C21.9492 24.8954 21.244 25.5841 20.7233 26.4056C20.2027 27.2272 19.8809 28.1589 19.7837 29.1267C19.6865 30.0944 19.8165 31.0715 20.1634 31.9802C20.5102 32.8889 21.0644 33.7041 21.7817 34.3609C20.0837 35.0976 18.6078 36.2653 17.5005 37.7484C17.3014 38.0136 17.2157 38.3471 17.2625 38.6754C17.3092 39.0038 17.4845 39.3001 17.7497 39.4992C18.0149 39.6983 18.3484 39.7839 18.6767 39.7372C19.005 39.6905 19.3014 39.5152 19.5005 39.25C20.2539 38.2373 21.2346 37.4156 22.3635 36.8511C23.4925 36.2866 24.7382 35.9951 26.0005 36C26.332 36 26.6499 35.8683 26.8844 35.6339C27.1188 35.3995 27.2505 35.0815 27.2505 34.75Z" fill="url(#paint2_linear_3038_6340)"/>
<defs>
<linearGradient id="paint0_linear_3038_6340" x1="-0.799145" y1="36" x2="72.8028" y2="36" gradientUnits="userSpaceOnUse">
<stop stop-color="#D9C59A"/>
<stop offset="0.8" stop-color="#B28B31"/>
</linearGradient>
<linearGradient id="paint1_linear_3038_6340" x1="20.667" y1="34.75" x2="51.3345" y2="34.75" gradientUnits="userSpaceOnUse">
<stop stop-color="#D9C59A"/>
<stop offset="0.8" stop-color="#B28B31"/>
</linearGradient>
<linearGradient id="paint2_linear_3038_6340" x1="16.8337" y1="37.2735" x2="55.1724" y2="37.2735" gradientUnits="userSpaceOnUse">
<stop stop-color="#D9C59A"/>
<stop offset="0.8" stop-color="#B28B31"/>
</linearGradient>
</defs>
</svg>
