<svg width="72" height="72" viewBox="0 0 72 72" fill="none" xmlns="http://www.w3.org/2000/svg">
<rect x="1" y="1" width="70" height="70" fill="white"/>
<rect x="1" y="1" width="70" height="70" stroke="url(#paint0_linear_3038_6326)" stroke-width="2"/>
<path opacity="0.2" d="M27.25 42.875C27.25 43.7403 26.9934 44.5862 26.5127 45.3056C26.032 46.0251 25.3487 46.5858 24.5492 46.917C23.7498 47.2481 22.8701 47.3347 22.0215 47.1659C21.1728 46.9971 20.3933 46.5804 19.7814 45.9686C19.1696 45.3567 18.7529 44.5772 18.5841 43.7285C18.4153 42.8799 18.5019 42.0002 18.833 41.2008C19.1642 40.4013 19.7249 39.7181 20.4444 39.2373C21.1638 38.7566 22.0097 38.5 22.875 38.5C24.0353 38.5 25.1481 38.9609 25.9686 39.7814C26.7891 40.6019 27.25 41.7147 27.25 42.875ZM49.125 38.5C48.2597 38.5 47.4138 38.7566 46.6944 39.2373C45.9749 39.7181 45.4142 40.4013 45.083 41.2008C44.7519 42.0002 44.6653 42.8799 44.8341 43.7285C45.0029 44.5772 45.4196 45.3567 46.0314 45.9686C46.6433 46.5804 47.4228 46.9971 48.2715 47.1659C49.1201 47.3347 49.9998 47.2481 50.7992 46.917C51.5987 46.5858 52.2819 46.0251 52.7627 45.3056C53.2434 44.5862 53.5 43.7403 53.5 42.875C53.5 41.7147 53.0391 40.6019 52.2186 39.7814C51.3981 38.9609 50.2853 38.5 49.125 38.5Z" fill="url(#paint1_linear_3038_6326)"/>
<path d="M49.1249 37.25C48.9405 37.25 48.7577 37.2594 48.5765 37.2766L46.8968 32.2375L43.4359 21.8547C43.3529 21.6058 43.1937 21.3893 42.9809 21.2359C42.768 21.0825 42.5123 21 42.2499 21H37.2499C36.9184 21 36.6005 21.1317 36.366 21.3661C36.1316 21.6005 35.9999 21.9185 35.9999 22.25C35.9999 22.5815 36.1316 22.8995 36.366 23.1339C36.6005 23.3683 36.9184 23.5 37.2499 23.5H41.3484L44.3171 32.3859L36.639 42.25H28.464C28.3099 40.8764 27.6555 39.6076 26.6256 38.6857C25.5957 37.7639 24.2624 37.2535 22.8802 37.252C21.498 37.2505 20.1636 37.758 19.1317 38.6776C18.0997 39.5972 17.4425 40.8645 17.2855 42.2378C17.1284 43.6111 17.4825 44.9941 18.2801 46.123C19.0777 47.2518 20.263 48.0475 21.6099 48.3581C22.9568 48.6687 24.3709 48.4726 25.5823 47.8071C26.7938 47.1416 27.7178 46.0533 28.178 44.75H37.2499C37.4402 44.7499 37.6279 44.7063 37.7987 44.6226C37.9696 44.539 38.1191 44.4174 38.2359 44.2672L45.2671 35.2359L46.2046 38.0688C45.0432 38.7749 44.1768 39.8778 43.7656 41.1734C43.3544 42.469 43.4262 43.8696 43.9679 45.1163C44.5095 46.363 45.4842 47.3714 46.7118 47.9551C47.9393 48.5387 49.3367 48.6581 50.6455 48.2912C51.9543 47.9242 53.086 47.0958 53.8312 45.959C54.5765 44.8223 54.8849 43.4541 54.6994 42.1076C54.514 40.761 53.8472 39.5272 52.8224 38.6342C51.7977 37.7412 50.4842 37.2495 49.1249 37.25ZM22.8749 46C22.2569 46 21.6527 45.8167 21.1388 45.4733C20.6249 45.13 20.2243 44.6419 19.9878 44.0709C19.7513 43.4999 19.6894 42.8715 19.81 42.2653C19.9305 41.6592 20.2282 41.1023 20.6652 40.6653C21.1023 40.2283 21.6591 39.9306 22.2653 39.81C22.8715 39.6895 23.4998 39.7514 24.0708 39.9879C24.6418 40.2244 25.1299 40.6249 25.4733 41.1388C25.8166 41.6527 25.9999 42.2569 25.9999 42.875C25.9999 43.2854 25.9191 43.6917 25.762 44.0709C25.605 44.45 25.3748 44.7945 25.0846 45.0847C24.7944 45.3749 24.4499 45.6051 24.0708 45.7621C23.6917 45.9192 23.2853 46 22.8749 46ZM49.1249 46C48.5069 46 47.9027 45.8167 47.3888 45.4733C46.8749 45.13 46.4743 44.6419 46.2378 44.0709C46.0013 43.4999 45.9394 42.8715 46.06 42.2653C46.1805 41.6592 46.4782 41.1023 46.9152 40.6653C47.3523 40.2283 47.9091 39.9306 48.5153 39.81C49.1215 39.6895 49.7498 39.7514 50.3208 39.9879C50.8918 40.2244 51.3799 40.6249 51.7233 41.1388C52.0666 41.6527 52.2499 42.2569 52.2499 42.875C52.2499 43.2854 52.1691 43.6917 52.012 44.0709C51.855 44.45 51.6248 44.7945 51.3346 45.0847C51.0444 45.3749 50.6999 45.6051 50.3208 45.7621C49.9417 45.9192 49.5353 46 49.1249 46Z" fill="url(#paint2_linear_3038_6326)"/>
<defs>
<linearGradient id="paint0_linear_3038_6326" x1="-0.799145" y1="36" x2="72.8028" y2="36" gradientUnits="userSpaceOnUse">
<stop stop-color="#D9C59A"/>
<stop offset="0.8" stop-color="#B28B31"/>
</linearGradient>
<linearGradient id="paint1_linear_3038_6326" x1="18.1115" y1="42.875" x2="53.8903" y2="42.875" gradientUnits="userSpaceOnUse">
<stop stop-color="#D9C59A"/>
<stop offset="0.8" stop-color="#B28B31"/>
</linearGradient>
<linearGradient id="paint2_linear_3038_6326" x1="16.8328" y1="34.751" x2="55.1702" y2="34.751" gradientUnits="userSpaceOnUse">
<stop stop-color="#D9C59A"/>
<stop offset="0.8" stop-color="#B28B31"/>
</linearGradient>
</defs>
</svg>
