<svg width="72" height="72" viewBox="0 0 72 72" fill="none" xmlns="http://www.w3.org/2000/svg">
<rect x="1" y="1" width="70" height="70" fill="white"/>
<rect x="1" y="1" width="70" height="70" stroke="url(#paint0_linear_3038_6253)" stroke-width="2"/>
<path opacity="0.2" d="M37.25 32.875C37.25 34.482 36.7735 36.0529 35.8807 37.389C34.9879 38.7252 33.719 39.7666 32.2343 40.3815C30.7497 40.9965 29.116 41.1574 27.5399 40.8439C25.9638 40.5304 24.5161 39.7565 23.3798 38.6202C22.2435 37.4839 21.4696 36.0362 21.1561 34.4601C20.8426 32.884 21.0035 31.2503 21.6185 29.7657C22.2334 28.281 23.2748 27.0121 24.611 26.1193C25.9471 25.2265 27.518 24.75 29.125 24.75C31.2799 24.75 33.3465 25.606 34.8702 27.1298C36.394 28.6535 37.25 30.7201 37.25 32.875Z" fill="url(#paint1_linear_3038_6253)"/>
<path d="M34.3205 40.675C35.9958 39.5597 37.2677 37.9348 37.9482 36.0407C38.6286 34.1466 38.6814 32.0838 38.0988 30.1574C37.5162 28.2309 36.3291 26.5431 34.7131 25.3435C33.097 24.1439 31.1378 23.4962 29.1252 23.4962C27.1126 23.4962 25.1534 24.1439 23.5373 25.3435C21.9213 26.5431 20.7342 28.2309 20.1516 30.1574C19.569 32.0838 19.6218 34.1466 20.3022 36.0407C20.9827 37.9348 22.2546 39.5597 23.9299 40.675C20.8994 41.792 18.3113 43.8588 16.5518 46.5672C16.4593 46.7047 16.3951 46.8591 16.3628 47.0216C16.3305 47.1841 16.3309 47.3513 16.3639 47.5137C16.3968 47.676 16.4617 47.8302 16.5548 47.9673C16.6479 48.1043 16.7672 48.2215 16.906 48.312C17.0447 48.4025 17.2001 48.4645 17.363 48.4944C17.526 48.5244 17.6932 48.5216 17.8551 48.4863C18.0169 48.451 18.1702 48.3839 18.3059 48.2889C18.4416 48.1939 18.557 48.0729 18.6455 47.9328C19.7805 46.1872 21.3336 44.7527 23.1637 43.7597C24.9938 42.7666 27.043 42.2465 29.1252 42.2465C31.2074 42.2465 33.2566 42.7666 35.0867 43.7597C36.9168 44.7527 38.4699 46.1872 39.6049 47.9328C39.7882 48.2053 40.0714 48.3947 40.3933 48.4601C40.7151 48.5254 41.0498 48.4614 41.3249 48.282C41.6 48.1026 41.7934 47.8221 41.8633 47.5012C41.9333 47.1804 41.8741 46.8448 41.6986 46.5672C39.9391 43.8588 37.351 41.792 34.3205 40.675ZM22.2502 32.875C22.2502 31.5153 22.6534 30.1861 23.4088 29.0555C24.1643 27.9249 25.238 27.0437 26.4943 26.5233C27.7505 26.003 29.1328 25.8668 30.4664 26.1321C31.8001 26.3974 33.0251 27.0522 33.9866 28.0137C34.948 28.9751 35.6028 30.2002 35.8681 31.5338C36.1334 32.8674 35.9972 34.2497 35.4769 35.506C34.9565 36.7622 34.0753 37.8359 32.9447 38.5914C31.8142 39.3468 30.4849 39.75 29.1252 39.75C27.3025 39.748 25.555 39.023 24.2661 37.7341C22.9773 36.4452 22.2523 34.6977 22.2502 32.875ZM55.0846 48.2969C54.8069 48.4779 54.4687 48.5413 54.1443 48.473C53.82 48.4048 53.536 48.2105 53.3549 47.9328C52.2213 46.1861 50.6684 44.751 48.8379 43.7584C47.0074 42.7658 44.9575 42.2472 42.8752 42.25C42.5437 42.25 42.2257 42.1183 41.9913 41.8839C41.7569 41.6495 41.6252 41.3315 41.6252 41C41.6252 40.6685 41.7569 40.3506 41.9913 40.1161C42.2257 39.8817 42.5437 39.75 42.8752 39.75C43.8877 39.7491 44.8874 39.5245 45.803 39.0924C46.7186 38.6603 47.5275 38.0313 48.1718 37.2503C48.8161 36.4693 49.28 35.5557 49.5303 34.5747C49.7806 33.5936 49.8111 32.5694 49.6197 31.5753C49.4283 30.5811 49.0197 29.6414 48.423 28.8235C47.8264 28.0055 47.0564 27.3294 46.1682 26.8435C45.2799 26.3576 44.2954 26.0739 43.2848 26.0126C42.2742 25.9514 41.2625 26.114 40.3221 26.4891C40.1687 26.5554 40.0037 26.5902 39.8366 26.5917C39.6696 26.5931 39.504 26.561 39.3495 26.4973C39.1951 26.4336 39.055 26.3396 38.9375 26.2209C38.82 26.1021 38.7275 25.961 38.6655 25.8059C38.6034 25.6508 38.5731 25.4849 38.5763 25.3179C38.5795 25.1508 38.6161 24.9862 38.684 24.8335C38.7519 24.6809 38.8497 24.5435 38.9717 24.4293C39.0936 24.3151 39.2372 24.2265 39.394 24.1688C41.5462 23.3104 43.9401 23.2795 46.1139 24.0821C48.2876 24.8846 50.0871 26.4637 51.1652 28.5147C52.2433 30.5658 52.5237 32.9434 51.9522 35.189C51.3808 37.4345 49.9979 39.3889 48.0705 40.675C51.101 41.792 53.6891 43.8588 55.4486 46.5672C55.6297 46.8449 55.6931 47.1831 55.6248 47.5074C55.5565 47.8318 55.3622 48.1158 55.0846 48.2969Z" fill="url(#paint2_linear_3038_6253)"/>
<defs>
<linearGradient id="paint0_linear_3038_6253" x1="-0.799145" y1="36" x2="72.8028" y2="36" gradientUnits="userSpaceOnUse">
<stop stop-color="#D9C59A"/>
<stop offset="0.8" stop-color="#B28B31"/>
</linearGradient>
<linearGradient id="paint1_linear_3038_6253" x1="20.8196" y1="32.875" x2="37.4312" y2="32.875" gradientUnits="userSpaceOnUse">
<stop stop-color="#D9C59A"/>
<stop offset="0.8" stop-color="#B28B31"/>
</linearGradient>
<linearGradient id="paint2_linear_3038_6253" x1="15.9025" y1="36.0056" x2="56.0899" y2="36.0056" gradientUnits="userSpaceOnUse">
<stop stop-color="#D9C59A"/>
<stop offset="0.8" stop-color="#B28B31"/>
</linearGradient>
</defs>
</svg>
