<svg width="72" height="72" viewBox="0 0 72 72" fill="none" xmlns="http://www.w3.org/2000/svg">
<rect x="1" y="1" width="70" height="70" fill="white"/>
<rect x="1" y="1" width="70" height="70" stroke="url(#paint0_linear_3038_6304)" stroke-width="2"/>
<path opacity="0.2" d="M42.442 26.3125C40.4894 27.3943 38.8621 28.9792 37.7292 30.9027C36.5963 32.8261 35.9992 35.0178 35.9998 37.25C36.0004 35.0178 35.4033 32.8261 34.2704 30.9027C33.1375 28.9792 31.5102 27.3943 29.5576 26.3125C31.6248 21.9375 35.9998 19.75 35.9998 19.75C35.9998 19.75 40.3748 21.9375 42.442 26.3125Z" fill="url(#paint1_linear_3038_6304)"/>
<path d="M48.5 23.5C46.5976 23.4983 44.7158 23.8937 42.975 24.6609C40.6156 20.6969 36.7375 18.7234 36.5594 18.6312C36.3857 18.5443 36.1942 18.4991 36 18.4991C35.8058 18.4991 35.6143 18.5443 35.4406 18.6312C35.2625 18.7219 31.3781 20.6969 29.025 24.6609C27.2842 23.8937 25.4024 23.4983 23.5 23.5C23.1685 23.5 22.8505 23.6317 22.6161 23.8661C22.3817 24.1005 22.25 24.4185 22.25 24.75V31C22.2541 34.429 23.5378 37.7331 25.8497 40.2656C28.1617 42.798 31.3355 44.3765 34.75 44.6922V50.2281L29.0594 47.3812C28.9125 47.3078 28.7525 47.264 28.5887 47.2523C28.4248 47.2407 28.2603 47.2614 28.1045 47.3134C27.9486 47.3653 27.8046 47.4474 27.6805 47.5551C27.5564 47.6627 27.4547 47.7937 27.3812 47.9406C27.3078 48.0875 27.264 48.2475 27.2523 48.4113C27.2407 48.5752 27.2614 48.7397 27.3134 48.8955C27.3653 49.0513 27.4475 49.1954 27.5551 49.3195C27.6627 49.4436 27.7937 49.5453 27.9406 49.6187L35.4406 53.3687C35.6143 53.4556 35.8058 53.5009 36 53.5009C36.1942 53.5009 36.3857 53.4556 36.5594 53.3687L44.0594 49.6187C44.3561 49.4704 44.5817 49.2102 44.6866 48.8955C44.7915 48.5808 44.7671 48.2373 44.6188 47.9406C44.4704 47.6439 44.2102 47.4183 43.8955 47.3134C43.5808 47.2085 43.2373 47.2329 42.9406 47.3812L37.25 50.2281V44.6922C40.6645 44.3765 43.8383 42.798 46.1503 40.2656C48.4622 37.7331 49.7459 34.429 49.75 31V24.75C49.75 24.4185 49.6183 24.1005 49.3839 23.8661C49.1495 23.6317 48.8315 23.5 48.5 23.5ZM36 21.189C37.0391 21.8265 39.2937 23.4062 40.7875 25.8765C38.7077 27.2889 37.0524 29.2418 36 31.525C34.9484 29.2404 33.2931 27.2863 31.2125 25.8734C32.7078 23.4062 34.9609 21.8265 36 21.189ZM24.75 31V26.0687C27.4989 26.3795 30.0374 27.6909 31.8816 29.753C33.7258 31.815 34.7468 34.4835 34.75 37.25V42.1812C32.0011 41.8704 29.4626 40.5591 27.6184 38.497C25.7742 36.4349 24.7532 33.7664 24.75 31ZM47.25 31C47.2468 33.7664 46.2258 36.4349 44.3816 38.497C42.5374 40.5591 39.9989 41.8704 37.25 42.1812V37.25C37.2532 34.4835 38.2742 31.815 40.1184 29.753C41.9626 27.6909 44.5011 26.3795 47.25 26.0687V31Z" fill="url(#paint2_linear_3038_6304)"/>
<defs>
<linearGradient id="paint0_linear_3038_6304" x1="-0.799145" y1="36" x2="72.8028" y2="36" gradientUnits="userSpaceOnUse">
<stop stop-color="#D9C59A"/>
<stop offset="0.8" stop-color="#B28B31"/>
</linearGradient>
<linearGradient id="paint1_linear_3038_6304" x1="29.4146" y1="28.5" x2="42.5857" y2="28.5" gradientUnits="userSpaceOnUse">
<stop stop-color="#D9C59A"/>
<stop offset="0.8" stop-color="#B28B31"/>
</linearGradient>
<linearGradient id="paint2_linear_3038_6304" x1="21.9448" y1="36" x2="50.0566" y2="36" gradientUnits="userSpaceOnUse">
<stop stop-color="#D9C59A"/>
<stop offset="0.8" stop-color="#B28B31"/>
</linearGradient>
</defs>
</svg>
