<svg width="72" height="72" viewBox="0 0 72 72" fill="none" xmlns="http://www.w3.org/2000/svg">
<rect x="1" y="1" width="70" height="70" fill="white"/>
<rect x="1" y="1" width="70" height="70" stroke="url(#paint0_linear_3038_6246)" stroke-width="2"/>
<path opacity="0.2" d="M49.295 42.95C48.0831 45.2683 46.2859 47.2293 44.082 48.6384C41.878 50.0475 39.3438 50.8557 36.731 50.9828L37.2263 48.4141C37.2631 48.2212 37.254 48.0224 37.1998 47.8338C37.1455 47.6451 37.0475 47.4719 36.9138 47.3281L33.8294 44.1516C33.6632 43.9721 33.5532 43.7478 33.5132 43.5064C33.4732 43.2651 33.5049 43.0173 33.6044 42.7938L35.745 37.9906C35.8551 37.7438 36.0422 37.5393 36.2782 37.4078C36.5143 37.2762 36.7866 37.2247 37.0544 37.261L40.62 37.7422C40.7927 37.7659 40.9587 37.8249 41.1075 37.9156L49.295 42.95ZM34.2357 30.8438L36.156 29.7875C36.2407 29.7417 36.3194 29.6855 36.3904 29.6203L40.595 25.8188C40.8043 25.6284 40.9428 25.3727 40.988 25.0934C41.0331 24.8142 40.9822 24.5278 40.8435 24.2813L39.2029 21.3422C38.1504 21.1142 37.0766 20.9995 35.9997 21C32.5758 20.9948 29.254 22.1659 26.5904 24.3172L24.7497 28.6688C24.6254 28.9634 24.6187 29.2944 24.731 29.5938L26.5279 34.386C26.6017 34.5818 26.7235 34.7559 26.8821 34.8924C27.0407 35.0289 27.2311 35.1234 27.4357 35.1672L27.856 35.2578L29.9372 31.625C30.0471 31.4347 30.2052 31.2768 30.3956 31.167C30.5859 31.0573 30.8019 30.9997 31.0216 31H33.6325C33.8436 31.0004 34.0513 30.9466 34.2357 30.8438Z" fill="url(#paint1_linear_3038_6246)"/>
<path d="M36 19.75C32.7861 19.75 29.6443 20.703 26.972 22.4886C24.2997 24.2742 22.2169 26.8121 20.987 29.7814C19.757 32.7507 19.4352 36.018 20.0622 39.1702C20.6893 42.3224 22.2369 45.2179 24.5095 47.4905C26.7821 49.7631 29.6776 51.3108 32.8298 51.9378C35.982 52.5648 39.2493 52.243 42.2186 51.013C45.1879 49.7831 47.7258 47.7003 49.5114 45.028C51.297 42.3557 52.25 39.2139 52.25 36C52.2455 31.6916 50.5319 27.561 47.4855 24.5145C44.439 21.4681 40.3084 19.7545 36 19.75ZM49.75 36C49.7514 37.764 49.4118 39.5117 48.75 41.1469L41.7656 36.8516C41.4687 36.6683 41.1365 36.5496 40.7906 36.5031L37.225 36.0219C36.7337 35.9578 36.2344 36.0402 35.7897 36.2586C35.3449 36.4771 34.9746 36.822 34.725 37.25H33.3625L32.7688 36.0219C32.6046 35.6799 32.3644 35.38 32.0665 35.1452C31.7686 34.9104 31.4209 34.7469 31.05 34.6672L29.8 34.3969L31.0219 32.25H33.6328C34.0553 32.2492 34.4708 32.1417 34.8406 31.9375L36.7547 30.8812C36.9229 30.7875 37.0801 30.6754 37.2234 30.5469L41.4281 26.7438C41.8497 26.366 42.1299 25.8558 42.2225 25.2973C42.3151 24.7388 42.2146 24.1655 41.9375 23.6719L41.8813 23.5703C44.2341 24.6859 46.2222 26.4459 47.615 28.646C49.0078 30.8461 49.7481 33.3961 49.75 36ZM38.3922 22.4594L39.75 24.8906L35.5453 28.6937L33.6328 29.75H31.0219C30.5824 29.7494 30.1505 29.8646 29.7698 30.084C29.389 30.3035 29.0729 30.6194 28.8531 31L27.4891 33.3797L25.9031 29.1547L27.6125 25.1125C29.1255 23.9434 30.8661 23.1033 32.7226 22.6459C34.5792 22.1885 36.5108 22.1239 38.3938 22.4562L38.3922 22.4594ZM22.25 36C22.2479 33.9563 22.7039 31.9381 23.5844 30.0937L25.3563 34.8234C25.5039 35.215 25.7475 35.5633 26.0647 35.8363C26.382 36.1093 26.7626 36.2983 27.1719 36.3859L30.5203 37.1063L31.1156 38.3438C31.3222 38.7646 31.6424 39.1194 32.04 39.3679C32.4376 39.6164 32.8968 39.7487 33.3656 39.75H33.5969L32.4672 42.2859C32.2681 42.7325 32.2044 43.2276 32.2838 43.71C32.3632 44.1923 32.5824 44.6409 32.9141 45L32.9359 45.0219L36 48.1781L35.6969 49.7406C32.106 49.6571 28.6899 48.1734 26.1777 45.6063C23.6655 43.0392 22.256 39.5919 22.25 36ZM38.2781 49.5594L38.4547 48.6516C38.5273 48.2659 38.5085 47.8686 38.4 47.4914C38.2915 47.1143 38.0962 46.7678 37.8297 46.4797C37.822 46.4728 37.8147 46.4655 37.8078 46.4578L34.75 43.3031L36.8906 38.5L40.4563 38.9813L47.6 43.375C46.565 45.0004 45.2006 46.3906 43.595 47.4558C41.9893 48.5211 40.178 49.2377 38.2781 49.5594Z" fill="url(#paint2_linear_3038_6246)"/>
<defs>
<linearGradient id="paint0_linear_3038_6246" x1="-0.799145" y1="36" x2="72.8028" y2="36" gradientUnits="userSpaceOnUse">
<stop stop-color="#D9C59A"/>
<stop offset="0.8" stop-color="#B28B31"/>
</linearGradient>
<linearGradient id="paint1_linear_3038_6246" x1="24.3778" y1="35.9914" x2="49.5698" y2="35.9914" gradientUnits="userSpaceOnUse">
<stop stop-color="#D9C59A"/>
<stop offset="0.8" stop-color="#B28B31"/>
</linearGradient>
<linearGradient id="paint2_linear_3038_6246" x1="19.3893" y1="36" x2="52.6124" y2="36" gradientUnits="userSpaceOnUse">
<stop stop-color="#D9C59A"/>
<stop offset="0.8" stop-color="#B28B31"/>
</linearGradient>
</defs>
</svg>
