<svg width="72" height="72" viewBox="0 0 72 72" fill="none" xmlns="http://www.w3.org/2000/svg">
<rect x="1" y="1" width="70" height="70" fill="white"/>
<rect x="1" y="1" width="70" height="70" stroke="url(#paint0_linear_3679_764)" stroke-width="2"/>
<path opacity="0.2" d="M40.2497 31.75C36.656 28.1563 31.5669 27.4328 28.8747 30.125C28.3577 30.6444 27.953 31.2645 27.6857 31.9469C27.4961 32.403 27.1775 32.7939 26.7689 33.0715C26.3603 33.349 25.8796 33.5012 25.3857 33.5094C23.4997 33.5687 21.781 34.2203 20.4997 35.5C17.1872 38.8125 18.0826 45.0813 22.4997 49.5C26.9169 53.9188 33.1857 54.8125 36.4997 51.5C37.7794 50.2188 38.431 48.5 38.4997 46.6141C38.5079 46.1202 38.6601 45.6394 38.9377 45.2308C39.2152 44.8222 39.6061 44.5036 40.0622 44.3141C40.7446 44.0468 41.3648 43.6421 41.8841 43.125C44.5669 40.4328 43.8388 35.3406 40.2497 31.75ZM33.4997 42.25C32.7581 42.25 32.033 42.0301 31.4164 41.618C30.7997 41.206 30.319 40.6203 30.0352 39.9351C29.7514 39.2498 29.6771 38.4958 29.8218 37.7684C29.9665 37.041 30.3237 36.3728 30.8481 35.8483C31.3725 35.3239 32.0407 34.9667 32.7682 34.8221C33.4956 34.6774 34.2496 34.7516 34.9348 35.0355C35.62 35.3193 36.2057 35.7999 36.6178 36.4166C37.0298 37.0333 37.2497 37.7583 37.2497 38.5C37.2497 39.4946 36.8547 40.4484 36.1514 41.1517C35.4481 41.8549 34.4943 42.25 33.4997 42.25Z" fill="url(#paint1_linear_3679_764)"/>
<path d="M54.3839 22.6156L49.3839 17.6156C49.1721 17.4041 48.8914 17.2756 48.5929 17.2535C48.2944 17.2314 47.9979 17.3172 47.7572 17.4952C47.5166 17.6732 47.3478 17.9317 47.2816 18.2236C47.2154 18.5155 47.2561 18.8215 47.3964 19.0859L37.9558 28.525C34.3948 26.6719 30.4073 26.8266 27.9917 29.2406C27.3542 29.8808 26.8549 30.645 26.5245 31.4859C26.4231 31.7139 26.2576 31.9075 26.0481 32.0431C25.8387 32.1788 25.5944 32.2507 25.3448 32.25C23.0652 32.3266 21.0855 33.1438 19.6183 34.6109C17.7308 36.5031 16.937 39.2188 17.3652 42.2609C17.7808 45.1719 19.2917 48.0547 21.6245 50.375C23.9573 52.6953 26.8339 54.2125 29.7495 54.6281C30.272 54.7062 30.7994 54.7469 31.3277 54.75C33.7214 54.75 35.8323 53.9328 37.3839 52.3813C38.8511 50.9141 39.6683 48.9344 39.7448 46.6547C39.7446 46.4046 39.8171 46.1599 39.9537 45.9504C40.0902 45.741 40.2847 45.5757 40.5136 45.475C41.3546 45.1449 42.1188 44.6455 42.7589 44.0078C45.173 41.5922 45.3277 37.6016 43.4745 34.0438L52.9136 24.6031C53.178 24.7434 53.484 24.7841 53.7759 24.7179C54.0678 24.6517 54.3263 24.483 54.5043 24.2423C54.6823 24.0017 54.7681 23.7051 54.746 23.4066C54.7239 23.1081 54.5954 22.8274 54.3839 22.6156ZM47.2495 26.7312L45.2683 24.75L49.1245 20.8922L51.1073 22.875L47.2495 26.7312ZM40.9995 42.2391C40.6011 42.6358 40.125 42.9459 39.6011 43.15C38.9202 43.4305 38.3359 43.9035 37.9196 44.511C37.5034 45.1184 37.2732 45.8341 37.2573 46.5703C37.2011 48.2047 36.6323 49.6031 35.6277 50.6141C34.3089 51.9313 32.3464 52.4813 30.1027 52.1594C27.7183 51.8203 25.3323 50.5609 23.3855 48.6141C21.4386 46.6672 20.1792 44.2812 19.8402 41.9078C19.5277 39.6625 20.0683 37.7016 21.3855 36.3828C22.3964 35.375 23.7948 34.8094 25.4292 34.75C26.1656 34.7345 26.8814 34.5045 27.4889 34.0882C28.0965 33.6719 28.5693 33.0874 28.8495 32.4062C29.0527 31.8795 29.3628 31.4007 29.7605 31C30.6183 30.1422 31.7917 29.7297 33.1011 29.7297C34.1312 29.7462 35.1475 29.9688 36.0902 30.3844L32.9527 33.5297C32.0161 33.6328 31.1277 33.9985 30.3899 34.5846C29.6521 35.1707 29.0949 35.9533 28.7826 36.8423C28.4702 37.7313 28.4154 38.6904 28.6245 39.6092C28.8336 40.5279 29.2981 41.3689 29.9643 42.0352C30.6306 42.7015 31.4716 43.1659 32.3904 43.375C33.3091 43.5841 34.2683 43.5293 35.1573 43.217C36.0462 42.9046 36.8289 42.3475 37.415 41.6097C38.001 40.8719 38.3667 39.9835 38.4698 39.0469L41.6073 35.9094C42.6261 38.2984 42.4792 40.7516 40.9995 42.2391ZM39.3745 32.6328C39.7048 32.965 40.0142 33.3172 40.3011 33.6875L37.8917 36.0969C37.4321 35.2623 36.7451 34.5753 35.9105 34.1156L38.3198 31.7047C38.6875 31.9924 39.0371 32.3023 39.3667 32.6328H39.3745ZM33.4995 36C34.1626 36 34.7985 36.2634 35.2673 36.7322C35.7361 37.2011 35.9995 37.837 35.9995 38.5C35.9995 38.9945 35.8529 39.4778 35.5782 39.8889C35.3035 40.3 34.9131 40.6205 34.4562 40.8097C33.9994 40.9989 33.4968 41.0484 33.0118 40.952C32.5269 40.8555 32.0814 40.6174 31.7318 40.2678C31.3821 39.9181 31.144 39.4727 31.0476 38.9877C30.9511 38.5028 31.0006 38.0001 31.1898 37.5433C31.3791 37.0865 31.6995 36.696 32.1106 36.4213C32.5217 36.1466 33.0051 36 33.4995 36ZM41.1323 30.8672C40.8008 30.5369 40.4524 30.224 40.0886 29.9297L43.4995 26.5172L45.4823 28.5L42.0714 31.9094C41.7771 31.5455 41.4642 31.1972 41.1339 30.8656L41.1323 30.8672ZM30.6323 46.3656C30.8669 46.6 30.9987 46.9179 30.9989 47.2494C30.999 47.581 30.8675 47.899 30.6331 48.1336C30.3988 48.3681 30.0809 48.5 29.7493 48.5001C29.4177 48.5003 29.0997 48.3687 28.8652 48.1344L23.8652 43.1344C23.6308 42.8998 23.4992 42.5818 23.4994 42.2502C23.4995 41.9187 23.6314 41.6007 23.8659 41.3664C24.1005 41.1321 24.4185 41.0005 24.7501 41.0006C25.0816 41.0008 25.3996 41.1326 25.6339 41.3672L30.6323 46.3656Z" fill="url(#paint2_linear_3679_764)"/>
<defs>
<linearGradient id="paint0_linear_3679_764" x1="-0.799145" y1="36" x2="72.8028" y2="36" gradientUnits="userSpaceOnUse">
<stop stop-color="#D9C59A"/>
<stop offset="0.8" stop-color="#B28B31"/>
</linearGradient>
<linearGradient id="paint1_linear_3679_764" x1="18.2225" y1="40.9993" x2="43.7806" y2="40.9993" gradientUnits="userSpaceOnUse">
<stop stop-color="#D9C59A"/>
<stop offset="0.8" stop-color="#B28B31"/>
</linearGradient>
<linearGradient id="paint2_linear_3679_764" x1="16.8358" y1="36.0001" x2="55.1675" y2="36.0001" gradientUnits="userSpaceOnUse">
<stop stop-color="#D9C59A"/>
<stop offset="0.8" stop-color="#B28B31"/>
</linearGradient>
</defs>
</svg>
