<svg width="694" height="810" viewBox="0 0 694 810" fill="none" xmlns="http://www.w3.org/2000/svg">
<mask id="mask0_2459_47577" style="mask-type:alpha" maskUnits="userSpaceOnUse" x="0" y="0" width="695" height="797">
<rect width="695" height="797" fill="#D9D9D9"/>
</mask>
<g mask="url(#mask0_2459_47577)">
<path d="M701.432 619L481.804 220.998L262.178 220.998L152.365 420L262.178 619L701.435 619L701.432 619ZM926.204 332.461L543.312 332.461L423.516 549.552L1046 549.552L926.204 332.461ZM518.688 287.841L16 287.841L135.796 70.7491L638.482 70.7491L518.685 287.841L518.688 287.841ZM190.958 -227.688L415.578 179.361L640.195 -227.688L190.958 -227.688ZM764.522 -276L573.18 70.7438L668.85 244.114L860.192 244.114L955.862 70.7438L764.522 -276Z" stroke="#D9C59A" stroke-opacity="0.65" stroke-miterlimit="10"/>
</g>
</svg>
