<svg width="793" height="1056" viewBox="0 0 793 1056" fill="none" xmlns="http://www.w3.org/2000/svg">
<mask id="mask0_1740_41392" style="mask-type:alpha" maskUnits="userSpaceOnUse" x="-92" y="0" width="885" height="1056">
<rect x="-92" width="885" height="1056" fill="#D9D9D9"/>
</mask>
<g mask="url(#mask0_1740_41392)">
<path d="M908.044 1050L619.329 527.038L330.617 527.038L186.261 788.521L330.617 1050L908.047 1050L908.044 1050ZM1203.52 673.497L700.185 673.497L542.706 958.748L1361 958.748L1203.52 673.497ZM667.815 614.868L6.99999 614.868L164.48 329.617L825.291 329.617L667.812 614.868L667.815 614.868ZM236.993 -62.519L532.27 472.329L827.544 -62.5191L236.993 -62.519ZM990.98 -126L739.448 329.61L865.212 557.413L1116.74 557.413L1242.51 329.61L990.98 -126Z" stroke="#D9C59A" stroke-opacity="0.65" stroke-miterlimit="10"/>
</g>
</svg>
