<svg width="24" height="24" viewBox="0 0 24 24" fill="none" xmlns="http://www.w3.org/2000/svg">
<path d="M8.01136 4.43182C8.11364 4.43182 8.31818 4.43182 8.31818 4.53409C8.42045 4.63636 8.42045 4.73863 8.42045 4.73863C8.625 5.86363 8.82955 6.98863 9.13636 8.11363C9.13636 8.21591 9.13636 8.31818 9.13636 8.42045C9.03409 8.52272 9.03409 8.52272 8.93182 8.625C8.42045 9.13636 7.80682 9.64772 7.29545 10.1591C7.09091 10.3636 6.88636 10.5682 6.98864 10.7727C6.98864 10.875 7.09091 11.0795 7.19318 11.1818C8.72727 13.3295 10.6705 15.2727 12.8182 16.8068C13.0227 16.9091 13.2273 17.1136 13.4318 17.1136C13.7386 17.1136 14.0455 16.9091 14.25 16.7045C14.7614 16.1932 15.2727 15.6818 15.7841 15.1705C15.8864 15.0682 15.8864 15.0682 15.9886 15.0682H16.0909C16.1932 15.0682 16.1932 15.0682 16.2955 15.0682C17.4205 15.2727 18.5455 15.4773 19.6705 15.6818C19.7727 15.6818 19.875 15.6818 19.875 15.7841C19.9773 15.8864 19.9773 15.9886 19.9773 16.0909C19.9773 17.1136 19.9773 18.0341 19.9773 19.0568C19.9773 19.1591 19.9773 19.2614 19.9773 19.2614C19.9773 19.3636 19.9773 19.3636 19.875 19.3636C19.7727 19.4659 19.6705 19.4659 19.5682 19.4659C19.0568 19.4659 18.6477 19.4659 18.1364 19.3636C15.375 19.1591 12.7159 18.5455 10.3636 17.0114C8.01136 15.5795 6.27273 13.3295 5.25 10.6705C4.43182 8.82954 4.125 6.78409 4.02273 4.73863C4.02273 4.63636 4.02273 4.53409 4.02273 4.53409C4.125 4.43182 4.22727 4.43182 4.32955 4.43182C5.55682 4.43182 6.78409 4.43182 8.01136 4.43182ZM8.01136 3.40909H6.17045H4.32955C3.92045 3.40909 3.61364 3.51136 3.30682 3.81818C3 4.22727 3 4.63636 3 4.73863C3.10227 7.09091 3.51136 9.23863 4.22727 11.1818C5.35227 14.1477 7.19318 16.5 9.75 18.0341C12 19.4659 14.7614 20.2841 18.0341 20.4886C18.5455 20.4886 19.0568 20.5909 19.5682 20.5909C19.7727 20.5909 20.1818 20.5909 20.4886 20.2841C20.6932 20.0795 20.7955 19.875 20.8977 19.6705C21 19.4659 21 19.2614 21 19.1591V16.1932C21 15.9886 21 15.4773 20.5909 15.1705C20.2841 14.8636 19.9773 14.8636 19.875 14.8636L16.5 14.25C16.3977 14.25 16.2955 14.25 16.1932 14.25C16.0909 14.25 15.8864 14.25 15.7841 14.3523C15.4773 14.4545 15.2727 14.6591 15.1705 14.7614L14.4545 15.4773L13.6364 16.1932L13.5341 16.2955C11.5909 14.8636 9.75 13.125 8.31818 11.0795L8.82955 10.1591L9.64773 9.34091C9.75 9.23863 9.95455 9.03409 10.0568 8.72727C10.1591 8.42045 10.0568 8.11363 10.0568 8.01136L9.75 6.27272L9.44318 4.53409C9.44318 4.43182 9.34091 4.02272 9.03409 3.71591C8.625 3.40909 8.11364 3.40909 8.01136 3.40909Z" fill="white"/>
</svg>
