<svg width="72" height="72" viewBox="0 0 72 72" fill="none" xmlns="http://www.w3.org/2000/svg">
<rect x="1" y="1" width="70" height="70" fill="white"/>
<rect x="1" y="1" width="70" height="70" stroke="url(#paint0_linear_3679_1973)" stroke-width="2"/>
<path opacity="0.2" d="M49.75 22.25V49.75H22.25V22.25H49.75Z" fill="url(#paint1_linear_3679_1973)"/>
<path d="M23.5 23.5V48.5H28.5C28.8315 48.5 29.1495 48.6317 29.3839 48.8661C29.6183 49.1005 29.75 49.4185 29.75 49.75C29.75 50.0815 29.6183 50.3995 29.3839 50.6339C29.1495 50.8683 28.8315 51 28.5 51H22.25C21.9185 51 21.6005 50.8683 21.3661 50.6339C21.1317 50.3995 21 50.0815 21 49.75V22.25C21 21.9185 21.1317 21.6005 21.3661 21.3661C21.6005 21.1317 21.9185 21 22.25 21H28.5C28.8315 21 29.1495 21.1317 29.3839 21.3661C29.6183 21.6005 29.75 21.9185 29.75 22.25C29.75 22.5815 29.6183 22.8995 29.3839 23.1339C29.1495 23.3683 28.8315 23.5 28.5 23.5H23.5ZM49.75 21H43.5C43.1685 21 42.8505 21.1317 42.6161 21.3661C42.3817 21.6005 42.25 21.9185 42.25 22.25C42.25 22.5815 42.3817 22.8995 42.6161 23.1339C42.8505 23.3683 43.1685 23.5 43.5 23.5H48.5V48.5H43.5C43.1685 48.5 42.8505 48.6317 42.6161 48.8661C42.3817 49.1005 42.25 49.4185 42.25 49.75C42.25 50.0815 42.3817 50.3995 42.6161 50.6339C42.8505 50.8683 43.1685 51 43.5 51H49.75C50.0815 51 50.3995 50.8683 50.6339 50.6339C50.8683 50.3995 51 50.0815 51 49.75V22.25C51 21.9185 50.8683 21.6005 50.6339 21.3661C50.3995 21.1317 50.0815 21 49.75 21Z" fill="url(#paint2_linear_3679_1973)"/>
<defs>
<linearGradient id="paint0_linear_3679_1973" x1="-0.799145" y1="36" x2="72.8028" y2="36" gradientUnits="userSpaceOnUse">
<stop stop-color="#D9C59A"/>
<stop offset="0.8" stop-color="#B28B31"/>
</linearGradient>
<linearGradient id="paint1_linear_3679_1973" x1="21.9448" y1="36" x2="50.0566" y2="36" gradientUnits="userSpaceOnUse">
<stop stop-color="#D9C59A"/>
<stop offset="0.8" stop-color="#B28B31"/>
</linearGradient>
<linearGradient id="paint2_linear_3679_1973" x1="20.667" y1="36" x2="51.3345" y2="36" gradientUnits="userSpaceOnUse">
<stop stop-color="#D9C59A"/>
<stop offset="0.8" stop-color="#B28B31"/>
</linearGradient>
</defs>
</svg>
