<svg width="72" height="72" viewBox="0 0 72 72" fill="none" xmlns="http://www.w3.org/2000/svg">
<rect x="1" y="1" width="70" height="70" fill="white"/>
<rect x="1" y="1" width="70" height="70" stroke="url(#paint0_linear_3679_3684)" stroke-width="2"/>
<path opacity="0.2" d="M21.625 33.875V48.75C21.625 49.3023 22.0727 49.75 22.625 49.75H48.75C49.3023 49.75 49.75 49.3023 49.75 48.75V29.5C49.75 28.9477 49.3023 28.5 48.75 28.5H35.75C35.1977 28.5 34.75 28.0523 34.75 27.5V23.25C34.75 22.6977 34.3023 22.25 33.75 22.25H28.875C28.3227 22.25 27.875 22.6977 27.875 23.25V31.875C27.875 32.4273 27.4273 32.875 26.875 32.875H22.625C22.0727 32.875 21.625 33.3227 21.625 33.875Z" fill="url(#paint1_linear_3679_3684)"/>
<path d="M21.625 48.5V32.625C21.625 32.0727 22.0727 31.625 22.625 31.625H26.875C27.4273 31.625 27.875 31.1773 27.875 30.625V22C27.875 21.4477 28.3227 21 28.875 21H33.75C34.3023 21 34.75 21.4477 34.75 22V26.25C34.75 26.8023 35.1977 27.25 35.75 27.25H48.75C49.3023 27.25 49.75 27.6977 49.75 28.25V48.5" stroke="url(#paint2_linear_3679_3684)" stroke-width="2"/>
<path d="M18.5 48.75C17.9477 48.75 17.5 49.1977 17.5 49.75C17.5 50.3023 17.9477 50.75 18.5 50.75V48.75ZM53.5 48.75H18.5V50.75H53.5V48.75Z" fill="url(#paint3_linear_3679_3684)"/>
<rect x="28.5" y="34.75" width="2.5" height="3.75" rx="1" fill="url(#paint4_linear_3679_3684)"/>
<rect x="28.5" y="41" width="2.5" height="3.75" rx="1" fill="url(#paint5_linear_3679_3684)"/>
<rect x="34.75" y="34.75" width="2.5" height="3.75" rx="1" fill="url(#paint6_linear_3679_3684)"/>
<rect x="34.75" y="41" width="2.5" height="3.75" rx="1" fill="url(#paint7_linear_3679_3684)"/>
<rect x="41" y="34.75" width="2.5" height="3.75" rx="1" fill="url(#paint8_linear_3679_3684)"/>
<rect x="41" y="41" width="2.5" height="3.75" rx="1" fill="url(#paint9_linear_3679_3684)"/>
<rect x="22.25" y="21" width="2.5" height="6.25" rx="1" fill="url(#paint10_linear_3679_3684)"/>
<defs>
<linearGradient id="paint0_linear_3679_3684" x1="-0.799145" y1="36" x2="72.8028" y2="36" gradientUnits="userSpaceOnUse">
<stop stop-color="#D9C59A"/>
<stop offset="0.8" stop-color="#B28B31"/>
</linearGradient>
<linearGradient id="paint1_linear_3679_3684" x1="21.3128" y1="36" x2="50.0636" y2="36" gradientUnits="userSpaceOnUse">
<stop stop-color="#D9C59A"/>
<stop offset="0.8" stop-color="#B28B31"/>
</linearGradient>
<linearGradient id="paint2_linear_3679_3684" x1="21.3128" y1="34.75" x2="50.0636" y2="34.75" gradientUnits="userSpaceOnUse">
<stop stop-color="#D9C59A"/>
<stop offset="0.8" stop-color="#B28B31"/>
</linearGradient>
<linearGradient id="paint3_linear_3679_3684" x1="18.1115" y1="50.25" x2="53.8903" y2="50.25" gradientUnits="userSpaceOnUse">
<stop stop-color="#D9C59A"/>
<stop offset="0.8" stop-color="#B28B31"/>
</linearGradient>
<linearGradient id="paint4_linear_3679_3684" x1="28.4723" y1="36.625" x2="31.0279" y2="36.625" gradientUnits="userSpaceOnUse">
<stop stop-color="#D9C59A"/>
<stop offset="0.8" stop-color="#B28B31"/>
</linearGradient>
<linearGradient id="paint5_linear_3679_3684" x1="28.4723" y1="42.875" x2="31.0279" y2="42.875" gradientUnits="userSpaceOnUse">
<stop stop-color="#D9C59A"/>
<stop offset="0.8" stop-color="#B28B31"/>
</linearGradient>
<linearGradient id="paint6_linear_3679_3684" x1="34.7223" y1="36.625" x2="37.2779" y2="36.625" gradientUnits="userSpaceOnUse">
<stop stop-color="#D9C59A"/>
<stop offset="0.8" stop-color="#B28B31"/>
</linearGradient>
<linearGradient id="paint7_linear_3679_3684" x1="34.7223" y1="42.875" x2="37.2779" y2="42.875" gradientUnits="userSpaceOnUse">
<stop stop-color="#D9C59A"/>
<stop offset="0.8" stop-color="#B28B31"/>
</linearGradient>
<linearGradient id="paint8_linear_3679_3684" x1="40.9723" y1="36.625" x2="43.5279" y2="36.625" gradientUnits="userSpaceOnUse">
<stop stop-color="#D9C59A"/>
<stop offset="0.8" stop-color="#B28B31"/>
</linearGradient>
<linearGradient id="paint9_linear_3679_3684" x1="40.9723" y1="42.875" x2="43.5279" y2="42.875" gradientUnits="userSpaceOnUse">
<stop stop-color="#D9C59A"/>
<stop offset="0.8" stop-color="#B28B31"/>
</linearGradient>
<linearGradient id="paint10_linear_3679_3684" x1="22.2223" y1="24.125" x2="24.7779" y2="24.125" gradientUnits="userSpaceOnUse">
<stop stop-color="#D9C59A"/>
<stop offset="0.8" stop-color="#B28B31"/>
</linearGradient>
</defs>
</svg>
