<svg width="72" height="72" viewBox="0 0 72 72" fill="none" xmlns="http://www.w3.org/2000/svg">
<rect x="1" y="1" width="70" height="70" fill="white"/>
<rect x="1" y="1" width="70" height="70" stroke="url(#paint0_linear_3679_3671)" stroke-width="2"/>
<path opacity="0.2" d="M53.5 32.25L36 42.25L18.5 32.25L36 22.25L53.5 32.25Z" fill="url(#paint1_linear_3679_3671)"/>
<path d="M17.8755 33.3438L35.3755 43.3438C35.5644 43.4518 35.7782 43.5086 35.9958 43.5086C36.2134 43.5086 36.4272 43.4518 36.6161 43.3438L54.1161 33.3438C54.3077 33.2346 54.467 33.0766 54.5779 32.8858C54.6887 32.6951 54.747 32.4785 54.747 32.2579C54.747 32.0373 54.6887 31.8207 54.5779 31.6299C54.467 31.4392 54.3077 31.2812 54.1161 31.1719L36.6161 21.1719C36.4272 21.064 36.2134 21.0072 35.9958 21.0072C35.7782 21.0072 35.5644 21.064 35.3755 21.1719L17.8755 31.1719C17.6838 31.2812 17.5245 31.4392 17.4137 31.6299C17.3029 31.8207 17.2445 32.0373 17.2445 32.2579C17.2445 32.4785 17.3029 32.6951 17.4137 32.8858C17.5245 33.0766 17.6838 33.2346 17.8755 33.3438ZM36.0005 23.6891L50.9802 32.2501L36.0005 40.811L21.0208 32.2501L36.0005 23.6891ZM54.5942 37.8751C54.6776 38.0184 54.7316 38.1768 54.7532 38.3412C54.7747 38.5056 54.7634 38.6726 54.7198 38.8326C54.6761 38.9926 54.6011 39.1422 54.4991 39.2729C54.3971 39.4036 54.2701 39.5127 54.1255 39.5938L36.6255 49.5938C36.4366 49.7018 36.2228 49.7586 36.0052 49.7586C35.7876 49.7586 35.5738 49.7018 35.3849 49.5938L17.8755 39.5938C17.7324 39.5117 17.6068 39.4023 17.506 39.2717C17.4052 39.1411 17.3311 38.9919 17.2879 38.8327C17.2447 38.6734 17.2334 38.5073 17.2544 38.3436C17.2755 38.18 17.3286 38.0221 17.4106 37.879C17.4927 37.7359 17.6022 37.6103 17.7328 37.5095C17.8634 37.4087 18.0125 37.3346 18.1718 37.2914C18.4934 37.2042 18.8364 37.2484 19.1255 37.4141L36.0005 47.061L52.8755 37.4141C53.0183 37.3304 53.1764 37.2759 53.3404 37.2538C53.5045 37.2317 53.6713 37.2424 53.8312 37.2853C53.9911 37.3282 54.1409 37.4024 54.2719 37.5036C54.4029 37.6049 54.5124 37.7311 54.5942 37.8751Z" fill="url(#paint2_linear_3679_3671)"/>
<defs>
<linearGradient id="paint0_linear_3679_3671" x1="-0.799145" y1="36" x2="72.8028" y2="36" gradientUnits="userSpaceOnUse">
<stop stop-color="#D9C59A"/>
<stop offset="0.8" stop-color="#B28B31"/>
</linearGradient>
<linearGradient id="paint1_linear_3679_3671" x1="18.1115" y1="32.25" x2="53.8903" y2="32.25" gradientUnits="userSpaceOnUse">
<stop stop-color="#D9C59A"/>
<stop offset="0.8" stop-color="#B28B31"/>
</linearGradient>
<linearGradient id="paint2_linear_3679_3671" x1="16.8277" y1="35.3829" x2="55.1822" y2="35.3829" gradientUnits="userSpaceOnUse">
<stop stop-color="#D9C59A"/>
<stop offset="0.8" stop-color="#B28B31"/>
</linearGradient>
</defs>
</svg>
