<svg width="72" height="72" viewBox="0 0 72 72" fill="none" xmlns="http://www.w3.org/2000/svg">
<rect x="1" y="1" width="70" height="70" fill="white"/>
<rect x="1" y="1" width="70" height="70" stroke="url(#paint0_linear_3679_3700)" stroke-width="2"/>
<path opacity="0.2" d="M53.5 33.5C53.5 37.6422 45.6656 41 36 41C26.3344 41 18.5 37.6422 18.5 33.5C18.5 30.5312 22.5406 27.9547 28.3984 26.7422C27.6439 28.0813 27.2483 29.5927 27.25 31.1297V31.6094C27.2503 32.1719 27.441 32.7178 27.7911 33.1582C28.1412 33.5985 28.6301 33.9073 29.1781 34.0344C31.4181 34.5278 33.7064 34.7678 36 34.75C38.2926 34.7678 40.5798 34.5278 42.8188 34.0344C43.3665 33.9064 43.8552 33.5974 44.2056 33.1574C44.5561 32.7173 44.7479 32.1719 44.75 31.6094V31C44.7539 29.5142 44.3774 28.0522 43.6562 26.7531C49.4828 27.9703 53.5 30.5312 53.5 33.5Z" fill="url(#paint1_linear_3679_3700)"/>
<path d="M44.6859 49.3548C44.7908 49.6693 44.7664 50.0126 44.6181 50.3091C44.4698 50.6057 44.2098 50.8312 43.8953 50.936C43.5808 51.0409 43.2375 51.0165 42.9409 50.8682C42.6444 50.7199 42.4189 50.4599 42.3141 50.1454L41.0641 46.3954C41.0121 46.2396 40.9914 46.0752 41.0031 45.9115C41.0147 45.7477 41.0585 45.5878 41.1319 45.441C41.2053 45.2942 41.3069 45.1632 41.4309 45.0557C41.555 44.9481 41.6989 44.866 41.8547 44.8141C42.0104 44.7622 42.1749 44.7415 42.3386 44.7531C42.5024 44.7648 42.6622 44.8085 42.8091 44.882C42.9559 44.9554 43.0868 45.057 43.1944 45.181C43.3019 45.305 43.384 45.449 43.4359 45.6048L44.6859 49.3548ZM36 44.7501C35.6685 44.7501 35.3505 44.8818 35.1161 45.1162C34.8817 45.3506 34.75 45.6686 34.75 46.0001V51.0001C34.75 51.3316 34.8817 51.6495 35.1161 51.884C35.3505 52.1184 35.6685 52.2501 36 52.2501C36.3315 52.2501 36.6495 52.1184 36.8839 51.884C37.1183 51.6495 37.25 51.3316 37.25 51.0001V46.0001C37.25 45.6686 37.1183 45.3506 36.8839 45.1162C36.6495 44.8818 36.3315 44.7501 36 44.7501ZM30.1453 44.8141C29.9896 44.7622 29.8251 44.7415 29.6614 44.7531C29.4976 44.7647 29.3378 44.8085 29.1909 44.8819C29.0441 44.9553 28.9132 45.057 28.8056 45.181C28.698 45.305 28.616 45.449 28.5641 45.6048L27.3141 49.3548C27.2092 49.6693 27.2336 50.0126 27.3819 50.3091C27.5302 50.6057 27.7902 50.8312 28.1047 50.936C28.4192 51.0409 28.7625 51.0165 29.0591 50.8682C29.3556 50.7199 29.5811 50.4599 29.6859 50.1454L30.9359 46.3954C30.9879 46.2396 31.0086 46.0752 30.997 45.9114C30.9853 45.7477 30.9416 45.5878 30.8681 45.441C30.7947 45.2942 30.6931 45.1632 30.5691 45.0557C30.4451 44.9481 30.3011 44.866 30.1453 44.8141ZM54.75 33.5001C54.75 36.0344 52.6609 38.3266 48.8672 39.9516C45.4094 41.4344 40.8438 42.2501 36 42.2501C31.1562 42.2501 26.5906 41.4344 23.1328 39.9516C19.3391 38.3266 17.25 36.0344 17.25 33.5001C17.25 32.1923 17.8234 30.2516 20.5578 28.4219C22.3344 27.2329 24.7672 26.2719 27.6172 25.6329C28.4119 24.3737 29.4794 23.309 30.7406 22.5175C32.0019 21.7261 33.4248 21.2279 34.9044 21.06C36.3839 20.892 37.8823 21.0584 39.2889 21.547C40.6955 22.0356 41.9744 22.8339 43.0312 23.8829C43.5703 24.4163 44.0478 25.0085 44.4547 25.6485C50.9109 27.1079 54.75 30.0219 54.75 33.5001ZM28.5 31.1298V31.5985C28.4984 31.8793 28.5924 32.1523 28.7664 32.3726C28.9405 32.593 29.1843 32.7476 29.4578 32.811C31.6059 33.2846 33.8004 33.5157 36 33.5001C38.1984 33.5178 40.3918 33.2887 42.5391 32.8173C42.813 32.7542 43.0574 32.5998 43.232 32.3794C43.4066 32.1591 43.5011 31.8859 43.5 31.6048V31.0001C43.5001 30.0067 43.3028 29.0232 42.9197 28.1067C42.5365 27.1901 41.9751 26.3589 41.2681 25.6611C40.561 24.9633 39.7224 24.413 38.8008 24.042C37.8793 23.671 36.8933 23.4868 35.9 23.5001C31.8203 23.5532 28.5 26.9766 28.5 31.1298ZM52.25 33.5001C52.25 31.6719 49.6516 29.7673 45.7031 28.5641C45.9007 29.361 46.0004 30.179 46 31.0001V31.6126C46.0013 32.4584 45.7149 33.2795 45.1879 33.941C44.661 34.6026 43.9247 35.0653 43.1 35.2532C40.7688 35.7672 38.3872 36.0177 36 36.0001C33.6128 36.0176 31.2313 35.767 28.9 35.2532C28.0753 35.0653 27.339 34.6026 26.8121 33.941C26.2851 33.2795 25.9987 32.4584 26 31.6126V31.1344C26.0003 30.2633 26.1121 29.3959 26.3328 28.5532C22.3625 29.7501 19.75 31.6641 19.75 33.5001C19.75 36.4563 26.4234 39.7501 36 39.7501C45.5766 39.7501 52.25 36.4563 52.25 33.5001Z" fill="url(#paint2_linear_3679_3700)"/>
<defs>
<linearGradient id="paint0_linear_3679_3700" x1="-0.799145" y1="36" x2="72.8028" y2="36" gradientUnits="userSpaceOnUse">
<stop stop-color="#D9C59A"/>
<stop offset="0.8" stop-color="#B28B31"/>
</linearGradient>
<linearGradient id="paint1_linear_3679_3700" x1="18.1115" y1="33.8711" x2="53.8903" y2="33.8711" gradientUnits="userSpaceOnUse">
<stop stop-color="#D9C59A"/>
<stop offset="0.8" stop-color="#B28B31"/>
</linearGradient>
<linearGradient id="paint2_linear_3679_3700" x1="16.8338" y1="36.6233" x2="55.1681" y2="36.6233" gradientUnits="userSpaceOnUse">
<stop stop-color="#D9C59A"/>
<stop offset="0.8" stop-color="#B28B31"/>
</linearGradient>
</defs>
</svg>
