<svg width="72" height="72" viewBox="0 0 72 72" fill="none" xmlns="http://www.w3.org/2000/svg">
<rect x="1" y="1" width="70" height="70" fill="white"/>
<rect x="1" y="1" width="70" height="70" stroke="url(#paint0_linear_3679_3706)" stroke-width="2"/>
<path opacity="0.2" d="M41 24.75H31L36 19.75L41 24.75ZM36 52.25L41 47.25H31L36 52.25Z" fill="url(#paint1_linear_3679_3706)"/>
<path d="M41 46.0001H37.25V26.0001H41C41.2474 26.0003 41.4892 25.9271 41.695 25.7897C41.9007 25.6524 42.0611 25.4571 42.1558 25.2286C42.2505 25 42.2752 24.7485 42.2269 24.5059C42.1786 24.2633 42.0594 24.0405 41.8844 23.8657L36.8844 18.8657C36.7683 18.7495 36.6304 18.6573 36.4787 18.5944C36.3269 18.5315 36.1643 18.4991 36 18.4991C35.8357 18.4991 35.6731 18.5315 35.5213 18.5944C35.3696 18.6573 35.2317 18.7495 35.1156 18.8657L30.1156 23.8657C29.9406 24.0405 29.8214 24.2633 29.7731 24.5059C29.7248 24.7485 29.7495 25 29.8442 25.2286C29.9389 25.4571 30.0993 25.6524 30.305 25.7897C30.5108 25.9271 30.7526 26.0003 31 26.0001H34.75V46.0001H31C30.7526 45.9999 30.5108 46.0731 30.305 46.2104C30.0993 46.3478 29.9389 46.5431 29.8442 46.7716C29.7495 47.0001 29.7248 47.2516 29.7731 47.4942C29.8214 47.7368 29.9406 47.9596 30.1156 48.1344L35.1156 53.1344C35.2317 53.2507 35.3696 53.3429 35.5213 53.4058C35.6731 53.4687 35.8357 53.501 36 53.501C36.1643 53.501 36.3269 53.4687 36.4787 53.4058C36.6304 53.3429 36.7683 53.2507 36.8844 53.1344L41.8844 48.1344C42.0594 47.9596 42.1786 47.7368 42.2269 47.4942C42.2752 47.2516 42.2505 47.0001 42.1558 46.7716C42.0611 46.5431 41.9007 46.3478 41.695 46.2104C41.4892 46.0731 41.2474 45.9999 41 46.0001ZM36 21.5173L37.9828 23.5001H34.0172L36 21.5173ZM36 50.4829L34.0172 48.5001H37.9828L36 50.4829Z" fill="url(#paint2_linear_3679_3706)"/>
<defs>
<linearGradient id="paint0_linear_3679_3706" x1="-0.799145" y1="36" x2="72.8028" y2="36" gradientUnits="userSpaceOnUse">
<stop stop-color="#D9C59A"/>
<stop offset="0.8" stop-color="#B28B31"/>
</linearGradient>
<linearGradient id="paint1_linear_3679_3706" x1="30.889" y1="36" x2="41.1115" y2="36" gradientUnits="userSpaceOnUse">
<stop stop-color="#D9C59A"/>
<stop offset="0.8" stop-color="#B28B31"/>
</linearGradient>
<linearGradient id="paint2_linear_3679_3706" x1="29.6103" y1="36.0001" x2="42.3904" y2="36.0001" gradientUnits="userSpaceOnUse">
<stop stop-color="#D9C59A"/>
<stop offset="0.8" stop-color="#B28B31"/>
</linearGradient>
</defs>
</svg>
