<svg xmlns="http://www.w3.org/2000/svg" width="138" height="106" viewBox="0 0 138 106" fill="none">
  <path d="M28.8263 66.5418L29.0723 66.5868L29.2558 66.417L45.2251 51.6471C50.1636 53.4295 54.6935 56.6109 58.8036 61.2041L58.8037 61.2042C62.9529 65.84 65.0339 71.7956 65.0339 79.1145C65.0339 86.381 62.1432 92.5913 56.3323 97.7505C50.533 102.9 42.8809 105.5 33.3365 105.5C23.8243 105.5 15.993 102.28 9.7941 95.8568C3.61691 89.4362 0.5 80.5536 0.5 69.1245C0.5 44.4035 17.1419 21.5773 50.7269 0.684129L53.6582 5.23663C30.0129 20.7806 18.0084 36.4357 18.0084 52.2289C18.0084 56.2641 18.8896 59.52 20.7096 61.9388C22.5353 64.365 25.2606 65.8892 28.8263 66.5418ZM101.292 66.5418L101.538 66.5868L101.722 66.417L117.691 51.6471C122.63 53.4295 127.16 56.6109 131.27 61.2041L131.642 60.8707L131.27 61.2042C135.419 65.84 137.5 71.7956 137.5 79.1145C137.5 86.381 134.609 92.5913 128.798 97.7505C122.999 102.9 115.347 105.5 105.803 105.5C96.2903 105.5 88.459 102.28 82.2602 95.8568C76.0735 89.4461 72.9563 80.5542 72.9563 69.1245C72.9563 44.4018 89.6005 21.5741 123.2 0.679755L126.134 5.23667C102.479 20.7901 90.4745 36.4452 90.4745 52.2289C90.4745 56.2641 91.3557 59.52 93.1757 61.9388C95.0014 64.365 97.7267 65.8892 101.292 66.5418Z" stroke="#B28B31"/>
</svg>