<?xml version="1.0" standalone="no"?>
<!DOCTYPE svg PUBLIC "-//W3C//DTD SVG 1.1//EN" "http://www.w3.org/Graphics/SVG/1.1/DTD/svg11.dtd" >
<svg xmlns="http://www.w3.org/2000/svg" xmlns:xlink="http://www.w3.org/1999/xlink" version="1.1">
<metadata>
Created by FontForge 20170731 at Thu Nov  2 11:36:52 2023
 By Aleksey,,,
Copyright supertype 2018, 2022, 2023, Juergen Huber. All rights reserved.
</metadata>
<defs>
<font id="NewMurabbaCyB15-Light" horiz-adv-x="1148" >
  <font-face 
    font-family="New Murabba Cy B15 Light"
    font-weight="300"
    font-stretch="normal"
    units-per-em="2048"
    panose-1="2 0 0 0 0 0 0 0 0 0"
    ascent="1577"
    descent="-471"
    x-height="1044"
    cap-height="1536"
    bbox="-350 -586 2433 2103"
    underline-thickness="59"
    underline-position="-365"
    unicode-range="U+0020-FB02"
  />
<missing-glyph horiz-adv-x="1202" 
d="M182 1536h838v-1536h-838v1536zM954 1477h-706v-1418h706v1418z" />
    <glyph glyph-name=".notdef" horiz-adv-x="1202" 
d="M182 1536h838v-1536h-838v1536zM954 1477h-706v-1418h706v1418z" />
    <glyph glyph-name=".null" horiz-adv-x="0" 
 />
    <glyph glyph-name="nonmarkingreturn" horiz-adv-x="682" 
 />
    <glyph glyph-name="space" unicode=" " horiz-adv-x="559" 
 />
    <glyph glyph-name="exclam" unicode="!" horiz-adv-x="477" 
d="M207 444v1092h65v-1092h-65zM236 -12q-22 0 -38 15t-16 38t16 38t38 15q23 0 38 -15t15 -38t-15 -38t-38 -15z" />
    <glyph glyph-name="quotedbl" unicode="&#x22;" horiz-adv-x="657" 
d="M156 952l-9 584h70l-6 -584h-55zM446 952l-6 584h70l-6 -584h-58z" />
    <glyph glyph-name="numbersign" unicode="#" horiz-adv-x="1380" 
d="M293 0l43 412h-260v57h266l68 616h-267v58h273l41 393h63l-41 -393h504l41 393h61l-41 -393h261v-58h-267l-67 -616h266v-57h-272l-43 -412h-62l43 412h-504l-43 -412h-63zM406 469h503l68 616h-504z" />
    <glyph glyph-name="dollar" unicode="$" horiz-adv-x="1073" 
d="M209 1118q0 -87 55 -153.5t174 -116.5l297 -119q136 -55 193 -136.5t57 -186.5q0 -160 -116 -246.5t-296 -91.5v-238h-61v240q-98 6 -178 40t-133 88.5t-85 122t-42 144.5l61 18q11 -146 124.5 -249t295.5 -103q74 0 138 16t114 48t79 85.5t29 122.5q0 86 -47 154
t-168 117l-290 117q-136 54 -202.5 134.5t-66.5 192.5q0 142 107.5 227.5t263.5 90.5v233h61v-235q155 -10 256.5 -94.5t137.5 -225.5l-60 -18q-33 127 -132 202.5t-247 75.5q-134 0 -226.5 -67t-92.5 -189z" />
    <glyph glyph-name="percent" unicode="%" horiz-adv-x="1656" 
d="M381 733q-131 0 -212 77.5t-89 201.5q-3 133 0 266q8 124 89 201t212 77q130 0 211.5 -77.5t87.5 -200.5q6 -133 0 -266q-6 -123 -87.5 -201t-211.5 -78zM319 0l943 1536h65l-942 -1536h-66zM381 1501q-106 0 -170.5 -61t-69.5 -158q-3 -137 0 -274q5 -98 69.5 -159
t170.5 -61q103 0 167 61t70 159q3 137 0 274q-6 97 -70 158t-167 61zM1280 -23q-131 0 -212 77.5t-89 201.5q-3 133 0 266q8 124 89 201.5t212 77.5q130 0 211.5 -78t87.5 -201q6 -133 0 -266q-6 -123 -87.5 -201t-211.5 -78zM1280 745q-106 0 -170.5 -61t-69.5 -158
q-3 -137 0 -274q5 -98 69.5 -158.5t170.5 -60.5q103 0 167.5 60.5t70.5 158.5q3 137 0 274q-6 97 -70.5 158t-167.5 61z" />
    <glyph glyph-name="ampersand" unicode="&#x26;" horiz-adv-x="1478" 
d="M1458 25l-45 -45l-375 374l-268 -270q-117 -117 -276 -117q-179 0 -290.5 112.5t-111.5 270.5q0 147 131 281l246 241q-124 22 -202.5 117.5t-78.5 229.5q0 152 99 251t250 99q153 0 252.5 -98.5t99.5 -251.5q0 -133 -79 -228.5t-204 -118.5l432 -430l326 326l43 -43
l-324 -326zM537 924q125 0 205.5 83.5t80.5 211.5q0 126 -80 208t-206 82q-124 0 -204.5 -82t-80.5 -208q0 -128 80.5 -211.5t204.5 -83.5zM158 354q0 -135 95.5 -230t242.5 -95q136 0 231 100l266 268l-456 455l-267 -260q-112 -112 -112 -238z" />
    <glyph glyph-name="quotesingle" unicode="'" horiz-adv-x="366" 
d="M156 952l-9 584h72l-6 -584h-57z" />
    <glyph glyph-name="parenleft" unicode="(" horiz-adv-x="454" 
d="M330 -246q-217 465 -217 1020q0 564 217 1008l51 -23q-209 -425 -209 -985q0 -549 209 -997z" />
    <glyph glyph-name="parenright" unicode=")" horiz-adv-x="452" 
d="M125 -246l-51 23q209 448 209 997q0 560 -209 985l51 23q217 -444 217 -1008q0 -555 -217 -1020z" />
    <glyph glyph-name="asterisk" unicode="*" horiz-adv-x="1136" 
d="M891 643l-51 -37l-271 379l-272 -379l-51 37l278 373l-446 141l20 62l443 -150l-2 467h61l-4 -467l442 150l21 -62l-447 -139z" />
    <glyph glyph-name="plus" unicode="+" horiz-adv-x="1105" 
d="M997 735h-415v-428h-62v428h-411v60h411v430h62v-430h415v-60z" />
    <glyph glyph-name="comma" unicode="," horiz-adv-x="342" 
d="M223 33q0 -14 -2 -27.5t-8 -34t-9 -30.5t-14 -40.5t-14 -39.5l-63 -172l-35 12l59 172q23 69 31 113q-21 3 -34 17.5t-13 35.5q0 24 13 39.5t36 15.5q24 0 38.5 -15.5t14.5 -45.5z" />
    <glyph glyph-name="hyphen" unicode="-" horiz-adv-x="999" 
d="M141 741v60h717v-60h-717z" />
    <glyph glyph-name="period" unicode="." horiz-adv-x="323" 
d="M162 -10q-22 0 -36.5 14.5t-14.5 36.5q0 23 14.5 38t36.5 15t36.5 -15t14.5 -38q0 -22 -14.5 -36.5t-36.5 -14.5z" />
    <glyph glyph-name="slash" unicode="/" horiz-adv-x="825" 
d="M78 -205l614 1946h60l-615 -1946h-59z" />
    <glyph glyph-name="zero" unicode="0" horiz-adv-x="1318" 
d="M659 -33q-221 0 -360 149t-147 380q-9 271 0 544q8 231 147 380t360 149q146 0 260 -69t178 -189t70 -271q9 -273 0 -544q-6 -151 -70 -271t-178 -189t-260 -69zM659 1507q-193 0 -313 -129.5t-129 -333.5q-9 -276 0 -550q9 -205 129 -335t313 -130q192 0 312 130
t129 335q9 274 0 550q-9 203 -129 333t-312 130z" />
    <glyph glyph-name="one" unicode="1" horiz-adv-x="1091" 
d="M100 61h484v1414h-434v61h499v-1475h426v-61h-975v61z" />
    <glyph glyph-name="two" unicode="2" horiz-adv-x="1089" 
d="M102 27l514 630q50 61 76.5 95t69 94.5t64.5 105.5t39.5 102t17.5 109q0 152 -93.5 248t-248.5 96q-149 0 -251.5 -97t-133.5 -265l-60 16q33 192 154 300t291 108q186 0 298.5 -111t112.5 -291q0 -57 -18.5 -118.5t-42 -110t-68 -113t-74 -102t-83.5 -102.5l-455 -551
v-9h778v-61h-887v27z" />
    <glyph glyph-name="three" unicode="3" horiz-adv-x="1091" 
d="M987 420q0 -201 -127 -327t-330 -126q-162 0 -282 80.5t-172 226.5l49 33q54 -134 157.5 -206t245.5 -72q174 0 283 108.5t109 282.5q0 171 -110.5 274t-281.5 103q-71 0 -120 -9t-109 -34l-29 53l586 668h-704v61h788v-61l-578 -648v-2q77 31 181 31q195 0 319.5 -121.5
t124.5 -314.5z" />
    <glyph glyph-name="four" unicode="4" horiz-adv-x="1171" 
d="M801 0v436h-713l197 1100h63l-184 -1038h637v628h67v-628h267v-62h-267v-436h-67z" />
    <glyph glyph-name="five" unicode="5" horiz-adv-x="1159" 
d="M119 211l47 41q58 -105 164.5 -164t230.5 -59q183 0 306.5 120.5t123.5 299.5q0 182 -121.5 299.5t-306.5 117.5q-103 0 -190.5 -45.5t-143.5 -122.5l-43 25l-10 -2v815h815v-61h-749v-682q138 135 331 135q211 0 348.5 -135t137.5 -344q0 -205 -142.5 -343.5
t-355.5 -138.5q-140 0 -257.5 64.5t-184.5 179.5z" />
    <glyph glyph-name="six" unicode="6" horiz-adv-x="1191" 
d="M1106 487q0 -228 -136.5 -374t-359.5 -146q-150 0 -264.5 69.5t-173.5 185.5t-59 259q0 89 16.5 166t50.5 144t64 112.5t78 106.5l464 587l52 -41l-447 -557q-97 -123 -121 -165l9 -5q127 152 348 152q209 0 344 -139.5t135 -354.5zM610 29q192 0 310 129.5t118 326.5
q0 192 -119 313.5t-309 121.5t-310 -121.5t-120 -313.5q0 -198 119 -327t311 -129z" />
    <glyph glyph-name="seven" unicode="7" horiz-adv-x="1054" 
d="M43 1475v61h975l-705 -1536h-71l678 1475h-877z" />
    <glyph glyph-name="eight" unicode="8" horiz-adv-x="1183" 
d="M1055 397q0 -192 -128.5 -311t-334.5 -119t-334.5 119t-128.5 311q0 152 91 259t239 135v4q-133 30 -212 130.5t-79 248.5q0 174 117.5 284.5t306.5 110.5q190 0 308 -110.5t118 -284.5q0 -149 -80 -249t-215 -130v-4q151 -30 241.5 -136t90.5 -258zM592 819
q162 0 261 95t99 253q0 150 -100 245t-260 95q-159 0 -259 -95t-100 -245q0 -157 99 -252.5t260 -95.5zM592 29q177 0 286 102.5t109 269.5q0 160 -109 259.5t-286 99.5q-175 0 -285 -99.5t-110 -259.5q0 -167 110 -269.5t285 -102.5z" />
    <glyph glyph-name="nine" unicode="9" horiz-adv-x="1179" 
d="M1087 1067q0 -88 -16 -164t-49 -142.5t-62.5 -111.5t-78.5 -108l-451 -582l-51 39l432 553q89 112 119 166l-8 4q-126 -152 -342 -152q-206 0 -341 138.5t-135 353.5q0 223 134.5 365.5t355.5 142.5q225 0 359 -143t134 -359zM172 1063q0 -191 117.5 -311.5t304.5 -120.5
q189 0 308.5 120.5t119.5 311.5q0 192 -118.5 318t-309.5 126q-189 0 -305.5 -126.5t-116.5 -317.5z" />
    <glyph glyph-name="colon" unicode=":" horiz-adv-x="387" 
d="M195 950q-22 0 -37 14.5t-15 36.5q0 23 15 38.5t37 15.5t36.5 -15.5t14.5 -38.5q0 -22 -14.5 -36.5t-36.5 -14.5zM195 -10q-22 0 -37 14.5t-15 36.5q0 23 15 38t37 15t36.5 -15t14.5 -38q0 -22 -14.5 -36.5t-36.5 -14.5z" />
    <glyph glyph-name="semicolon" unicode=";" horiz-adv-x="428" 
d="M221 950q-22 0 -36.5 14.5t-14.5 36.5q0 23 14.5 38.5t36.5 15.5t36.5 -15.5t14.5 -38.5q0 -22 -14.5 -36.5t-36.5 -14.5zM274 33q0 -14 -2 -27.5t-8 -34t-9 -30.5t-14 -40.5t-14 -39.5l-63 -172l-35 12l59 172q23 69 31 113q-21 3 -34 17.5t-13 35.5q0 24 13 39.5
t36 15.5q24 0 38.5 -15.5t14.5 -45.5z" />
    <glyph glyph-name="less" unicode="&#x3c;" horiz-adv-x="1105" 
d="M973 305l-889 430v60l889 436v-68l-809 -397l809 -393v-68z" />
    <glyph glyph-name="equal" unicode="=" horiz-adv-x="1105" 
d="M109 961v61h888v-61h-888zM109 512v59h888v-59h-888z" />
    <glyph glyph-name="greater" unicode="&#x3e;" horiz-adv-x="1105" 
d="M133 1233l889 -430v-60l-889 -436v68l809 397l-809 393v68z" />
    <glyph glyph-name="question" unicode="?" horiz-adv-x="931" 
d="M440 444v355q151 62 242.5 167t91.5 230q0 137 -82 225t-223 88q-149 0 -241 -97t-93 -263l-59 10q3 184 111 297t284 113q169 0 270 -104t101 -267q0 -138 -91.5 -250.5t-244.5 -179.5v-324h-66zM475 -12q-22 0 -37.5 15t-15.5 38t15.5 38t37.5 15q23 0 38 -15t15 -38
t-15 -38t-38 -15z" />
    <glyph glyph-name="at" unicode="@" horiz-adv-x="1746" 
d="M618 121v442h517v80q0 120 -65.5 189t-182.5 69q-160 0 -248 -113l-41 46q105 127 293 127q141 0 223 -85t82 -233v-463q170 0 272.5 132t102.5 354q0 129 -48.5 240.5t-135 192.5t-212 127t-272.5 46q-219 0 -387.5 -95t-260 -264.5t-91.5 -386.5q0 -159 53 -295
t147.5 -233t231 -152t297.5 -55q232 0 391 98l27 -53q-160 -106 -418 -106q-231 0 -412 101t-282 282.5t-101 412.5q0 175 59.5 325t165 255.5t255.5 165t325 59.5q162 0 300 -50.5t233 -138.5t148.5 -211t53.5 -265q0 -250 -123 -397.5t-339 -147.5h-558zM678 180h457v326
h-457v-326z" />
    <glyph glyph-name="A" unicode="A" horiz-adv-x="1327" 
d="M51 0l565 1536h93l565 -1536h-70l-178 489h-727l-180 -489h-68zM659 1470l-337 -919h682l-336 919h-9z" />
    <glyph glyph-name="B" unicode="B" horiz-adv-x="1271" 
d="M1159 399q0 -168 -120 -283.5t-308 -115.5h-526v1536h497q183 0 299.5 -111t116.5 -276q0 -128 -78.5 -229t-201.5 -132q148 -27 234.5 -135t86.5 -254zM270 1475v-662h447q139 0 236.5 97t97.5 233q0 140 -98.5 236t-254.5 96h-428zM727 61q161 0 262 100t101 245
t-101 246.5t-244 101.5h-475v-693h457z" />
    <glyph glyph-name="C" unicode="C" horiz-adv-x="1550" 
d="M1495 1262l-49 -39q-96 132 -243.5 208t-321.5 76q-198 0 -362 -97t-258.5 -266.5t-94.5 -375.5t94.5 -375.5t258.5 -266.5t362 -97q171 0 317.5 75t243.5 205l45 -39q-102 -141 -260 -222t-346 -81q-164 0 -309.5 62t-249 168.5t-164 255t-60.5 315.5q0 223 103.5 407
t283 289t396.5 105q189 0 349 -82t265 -225z" />
    <glyph glyph-name="D" unicode="D" horiz-adv-x="1572" 
d="M684 0h-479v1536h479q361 0 572.5 -206t211.5 -560q0 -357 -211 -563.5t-573 -206.5zM684 61q331 0 524 190.5t193 518.5t-193 516.5t-524 188.5h-414v-1414h414z" />
    <glyph glyph-name="E" unicode="E" 
d="M205 0v1536h837v-61h-772v-666h731v-59h-731v-689h783v-61h-848z" />
    <glyph glyph-name="F" unicode="F" horiz-adv-x="1089" 
d="M205 0v1536h837v-61h-772v-709h715v-61h-715v-705h-65z" />
    <glyph glyph-name="G" unicode="G" horiz-adv-x="1693" 
d="M803 672v61h817v-26q-2 -334 -204.5 -537t-536.5 -203q-223 0 -402 105.5t-278 288.5t-99 407q0 167 59.5 315.5t162 255t246.5 168.5t306 62q193 0 354.5 -82t266.5 -227l-45 -39q-98 134 -248.5 210t-327.5 76q-148 0 -279 -57t-224.5 -155.5t-148 -235.5t-54.5 -291
q0 -155 53.5 -291.5t146.5 -235t225.5 -155.5t285.5 -57q296 0 478.5 175.5t194.5 467.5h-749z" />
    <glyph glyph-name="H" unicode="H" horiz-adv-x="1480" 
d="M205 0v1536h65v-735h940v735h68v-1536h-68v739h-940v-739h-65z" />
    <glyph glyph-name="I" unicode="I" horiz-adv-x="903" 
d="M39 0v61h379v1414h-361v61h787v-61h-359v-1414h377v-61h-823z" />
    <glyph glyph-name="J" unicode="J" horiz-adv-x="1185" 
d="M29 254l55 31q53 -120 159 -188t244 -68q198 0 321.5 127.5t123.5 332.5v986h-797v61h864v-1042q0 -234 -143 -380.5t-369 -146.5q-157 0 -277 76t-181 211z" />
    <glyph glyph-name="K" unicode="K" horiz-adv-x="1159" 
d="M1141 1536l-600 -780l604 -756h-82l-580 725h-213v-725h-65v1536h65v-752h215l578 752h78z" />
    <glyph glyph-name="L" unicode="L" horiz-adv-x="1040" 
d="M205 0v1536h65v-1475h750v-61h-815z" />
    <glyph glyph-name="M" unicode="M" horiz-adv-x="1845" 
d="M961 406h-72l-610 1030h-9v-1436h-65v1536h94l623 -1057h8l618 1057h92v-1536h-65v1436h-8z" />
    <glyph glyph-name="N" unicode="N" horiz-adv-x="1521" 
d="M1317 0h-86l-952 1432h-9v-1432h-65v1536h86l952 -1432h8v1432h66v-1536z" />
    <glyph glyph-name="O" unicode="O" horiz-adv-x="1755" 
d="M877 -33q-164 0 -308.5 62t-247 168.5t-162 255t-59.5 315.5t59.5 315.5t162.5 255t247.5 168.5t307.5 62q164 0 308.5 -62t247.5 -168.5t162.5 -255t59.5 -315.5t-59.5 -315.5t-162.5 -255t-247.5 -168.5t-308.5 -62zM877 29q150 0 282 57t225.5 155.5t148 235.5
t54.5 291t-54.5 291t-148 235.5t-225.5 155.5t-282 57q-198 0 -361 -97t-255.5 -266.5t-92.5 -375.5t92.5 -375.5t255.5 -266.5t361 -97z" />
    <glyph glyph-name="P" unicode="P" horiz-adv-x="1271" 
d="M727 1536q216 0 350.5 -128.5t134.5 -330.5q0 -204 -134.5 -333.5t-350.5 -129.5h-457v-614h-65v1536h522zM721 676q187 0 305.5 112t118.5 287q0 177 -118 288.5t-306 111.5h-451v-799h451z" />
    <glyph glyph-name="Q" unicode="Q" horiz-adv-x="1755" 
d="M877 -33q-164 0 -308.5 62t-247 168.5t-162 255t-59.5 315.5t59.5 315.5t162.5 255t247.5 168.5t307.5 62q164 0 308.5 -62t247.5 -168.5t162.5 -255t59.5 -315.5q0 -233 -111 -422t-299 -289l217 -360l-57 -33l-215 367q-150 -64 -313 -64zM877 29q145 0 280 55
l-242 414l60 32l237 -417q173 92 274 266t101 389q0 154 -54.5 291t-148 235.5t-225.5 155.5t-282 57q-198 0 -361 -97t-255.5 -266.5t-92.5 -375.5t92.5 -375.5t255.5 -266.5t361 -97z" />
    <glyph glyph-name="R" unicode="R" horiz-adv-x="1296" 
d="M1120 0l-418 670h-432v-670h-65v1536h516q213 0 345 -123t132 -309q0 -172 -116 -293.5t-308 -138.5l426 -672h-80zM713 731q190 0 303.5 108t113.5 265q0 159 -113 265t-304 106h-443v-744h443z" />
    <glyph glyph-name="S" unicode="S" horiz-adv-x="1112" 
d="M221 1221q0 -113 67.5 -191.5t217.5 -161.5l194 -112q156 -89 228.5 -185t72.5 -213q0 -178 -118.5 -284.5t-321.5 -106.5q-108 0 -195.5 34t-146 94t-92 140t-39.5 175l62 14q6 -112 54.5 -200.5t141.5 -141.5t217 -53q173 0 272 89t99 240q0 96 -64 180t-204 162
l-191 109q-83 47 -137.5 87t-98 89t-63.5 106t-20 128q0 153 108.5 251.5t290.5 98.5q177 0 286.5 -92.5t145.5 -262.5l-61 -16q-31 149 -126.5 229t-246.5 80t-241.5 -79.5t-90.5 -206.5z" />
    <glyph glyph-name="T" unicode="T" horiz-adv-x="1042" 
d="M487 0v1475h-464v61h999v-61h-467v-1475h-68z" />
    <glyph glyph-name="U" unicode="U" horiz-adv-x="1452" 
d="M205 1536h65v-1475h910v1475h67v-1536h-1042v1536z" />
    <glyph glyph-name="V" unicode="V" horiz-adv-x="1325" 
d="M1274 1536l-565 -1536h-93l-565 1536h70l536 -1470h9l540 1470h68z" />
    <glyph glyph-name="W" unicode="W" horiz-adv-x="1906" 
d="M1354 0l-406 1421h-8l-387 -1421h-92l-389 1536h71l361 -1438h8l391 1438h82l410 -1438h8l360 1438h72l-389 -1536h-92z" />
    <glyph glyph-name="X" unicode="X" horiz-adv-x="1114" 
d="M553 721l-453 -721h-73l489 770l-473 766h74l436 -717h4l440 717h74l-477 -764l491 -772h-73l-455 721h-4z" />
    <glyph glyph-name="Y" unicode="Y" horiz-adv-x="1265" 
d="M598 0v602l-535 934h76l490 -860h8l493 860h76l-540 -930v-606h-68z" />
    <glyph glyph-name="Z" unicode="Z" horiz-adv-x="1001" 
d="M63 1475v61h902l-830 -1475h815v-61h-919l827 1475h-795z" />
    <glyph glyph-name="bracketleft" unicode="[" horiz-adv-x="552" 
d="M205 -205v1946h319v-53h-260v-1840h260v-53h-319z" />
    <glyph glyph-name="backslash" unicode="\" horiz-adv-x="825" 
d="M748 -205h-60l-614 1946h59z" />
    <glyph glyph-name="bracketright" unicode="]" horiz-adv-x="552" 
d="M348 -205h-319v53h260v1840h-260v53h319v-1946z" />
    <glyph glyph-name="asciicircum" unicode="^" horiz-adv-x="1105" 
d="M178 840h-72l410 696h68l417 -696h-71l-381 630z" />
    <glyph glyph-name="underscore" unicode="_" horiz-adv-x="2306" 
d="M385 0v59h1536v-59h-1536z" />
    <glyph glyph-name="grave" unicode="`" horiz-adv-x="645" 
d="M459 1274h-70l-260 354h86z" />
    <glyph glyph-name="a" unicode="a" horiz-adv-x="1060" 
d="M94 281q0 142 104 226.5t279 84.5q132 0 224 -46.5t126 -129.5h9q-7 119 -7 250q0 163 -88.5 256.5t-246.5 93.5q-206 0 -330 -148l-39 43q132 166 375 166q184 0 289.5 -109t105.5 -298v-670h-66v74q0 29 7 80h-9q-29 -84 -124.5 -134.5t-225.5 -50.5q-175 0 -279 85
t-104 227zM487 31q154 0 247 68t93 184q0 115 -93 182t-247 67q-151 0 -238 -67t-87 -182q0 -117 87 -184.5t238 -67.5z" />
    <glyph glyph-name="b" unicode="b" horiz-adv-x="1366" 
d="M1272 522q0 -156 -70 -283t-194 -199.5t-277 -72.5q-175 0 -310 94t-177 256h-4q6 -61 6 -129v-188h-62v1536h66v-678q0 -70 -6 -129h4q42 158 177 253t304 95q154 0 278.5 -72.5t194.5 -199.5t70 -283zM725 29q101 0 190.5 38t153 103t100.5 156.5t37 195.5
q0 211 -138 352.5t-343 141.5q-208 0 -343.5 -141t-135.5 -353t135.5 -352.5t343.5 -140.5z" />
    <glyph glyph-name="c" unicode="c" 
d="M1073 854l-43 -41q-66 95 -167.5 149t-223.5 54q-204 0 -341.5 -141.5t-137.5 -352.5t137.5 -352t341.5 -141q128 0 232 59.5t173 161.5l41 -41q-74 -112 -190.5 -177t-255.5 -65q-153 0 -278 73t-196 200.5t-71 281.5q0 235 157 395t388 160q132 0 245.5 -59.5
t188.5 -163.5z" />
    <glyph glyph-name="d" unicode="d" horiz-adv-x="1366" 
d="M94 522q0 156 70 283t194.5 199.5t278.5 72.5q170 0 305.5 -93.5t177.5 -252.5h4q-6 61 -6 131v674h66v-1536h-64v195q0 65 6 127h-4q-42 -165 -177 -260t-308 -95q-154 0 -278.5 72.5t-194.5 199.5t-70 283zM641 29q209 0 344 140.5t135 352.5t-135 353t-344 141
q-204 0 -341.5 -141.5t-137.5 -352.5t137.5 -352t341.5 -141z" />
    <glyph glyph-name="e" unicode="e" horiz-adv-x="1232" 
d="M1069 182q-76 -102 -187.5 -158.5t-242.5 -56.5q-231 0 -388 160t-157 395q0 154 71 281.5t196 200.5t276 73q112 0 208.5 -43t163.5 -117t105.5 -176.5t38.5 -218.5q0 -25 -2 -33h-991q12 -200 147 -330t332 -130q120 0 220 50.5t169 141.5zM637 1016q-198 0 -333 -132
t-144 -335h927q-6 202 -131.5 334.5t-318.5 132.5z" />
    <glyph glyph-name="f" unicode="f" horiz-adv-x="608" 
d="M66 983v61h139v170q0 162 83.5 248t235.5 86q75 0 117 -12v-61q-46 14 -109 14q-125 0 -193.5 -72.5t-68.5 -212.5v-160h332v-61h-332v-983h-65v983h-139z" />
    <glyph glyph-name="g" unicode="g" horiz-adv-x="1343" 
d="M94 535q0 152 69 276.5t190.5 195t269.5 70.5q174 0 306.5 -94t168.5 -250h6q-6 61 -6 127v184h61v-1515h-790v61h725v623q0 67 6 129h-4q-36 -159 -167.5 -253.5t-305.5 -94.5q-224 0 -376.5 155.5t-152.5 385.5zM629 1016q-200 0 -334.5 -137.5t-134.5 -341.5
q0 -205 134.5 -343.5t334.5 -138.5q203 0 336 138t133 344q0 205 -133 342t-336 137z" />
    <glyph glyph-name="h" unicode="h" horiz-adv-x="1204" 
d="M250 0h-66v1536h66v-492h770v-1044h-66v983h-704v-983z" />
    <glyph glyph-name="i" unicode="i" horiz-adv-x="432" 
d="M217 1288q-23 0 -37 14.5t-14 36.5t14 36t37 14q22 0 36.5 -14t14.5 -36t-14.5 -36.5t-36.5 -14.5zM250 0h-66v1044h66v-1044z" />
    <glyph glyph-name="j" unicode="j" horiz-adv-x="448" 
d="M233 1288q-23 0 -37 14.5t-14 36.5t14 36t37 14q22 0 37 -14t15 -36t-15 -36.5t-37 -14.5zM266 -471h-383v61h318v1454h65v-1515z" />
    <glyph glyph-name="k" unicode="k" horiz-adv-x="1003" 
d="M887 0l-395 498h-242v-498h-66v1536h66v-979h244l385 487h82l-412 -516l422 -528h-84z" />
    <glyph glyph-name="l" unicode="l" horiz-adv-x="622" 
d="M184 0v1536h66v-1475h366v-61h-432z" />
    <glyph glyph-name="m" unicode="m" horiz-adv-x="1863" 
d="M184 0v1044h1497v-1044h-65v983h-651v-983h-66v983h-649v-983h-66z" />
    <glyph glyph-name="n" unicode="n" horiz-adv-x="1204" 
d="M184 1044h836v-1044h-66v983h-704v-983h-66v1044z" />
    <glyph glyph-name="o" unicode="o" horiz-adv-x="1275" 
d="M639 -33q-153 0 -278 73t-196 200.5t-71 281.5q0 235 157 395t388 160t388 -160t157 -395t-157 -395t-388 -160zM639 29q204 0 340.5 141t136.5 352t-136.5 352.5t-340.5 141.5t-341.5 -141.5t-137.5 -352.5t137.5 -352t341.5 -141z" />
    <glyph glyph-name="p" unicode="p" horiz-adv-x="1368" 
d="M1274 522q0 -155 -71 -282.5t-195.5 -200t-276.5 -72.5q-174 0 -309 94t-174 252h-4q6 -59 6 -129v-655h-66v1515h62v-190q0 -66 -6 -127h4q42 159 178 254.5t311 95.5q152 0 276 -72.5t194.5 -200t70.5 -282.5zM727 1016q-208 0 -344.5 -141t-136.5 -353t136.5 -352.5
t344.5 -140.5q204 0 341.5 141t137.5 352t-137.5 352.5t-341.5 141.5z" />
    <glyph glyph-name="q" unicode="q" horiz-adv-x="1366" 
d="M94 522q0 236 155.5 395.5t385.5 159.5q176 0 309.5 -94.5t177.5 -257.5h4q-6 62 -6 127v192h64v-1515h-66v664q0 67 6 129h-6q-39 -163 -174 -259t-309 -96q-152 0 -276 72.5t-194.5 200t-70.5 282.5zM641 1016q-204 0 -342.5 -142t-138.5 -352t138.5 -351.5
t342.5 -141.5q209 0 344 140.5t135 352.5t-135 353t-344 141z" />
    <glyph glyph-name="r" unicode="r" horiz-adv-x="641" 
d="M184 1044h434v-61h-368v-983h-66v1044z" />
    <glyph glyph-name="s" unicode="s" horiz-adv-x="847" 
d="M193 813q0 -75 46 -127.5t140 -91.5l141 -62q230 -99 230 -286q0 -123 -90 -201t-234 -78q-139 0 -236 79t-116 198l55 24q18 -104 100 -172.5t201 -68.5q112 0 183 60t71 159q0 148 -199 233l-141 62q-109 46 -163 111t-54 161q0 112 83.5 188t213.5 76
q124 0 210.5 -68.5t113.5 -177.5l-54 -22q-22 92 -95.5 150.5t-176.5 58.5q-100 0 -164.5 -59t-64.5 -146z" />
    <glyph glyph-name="t" unicode="t" horiz-adv-x="718" 
d="M549 -23q-165 0 -257.5 94t-92.5 259v653h-142v61h142v287h65v-287h434v-61h-434v-645q0 -144 77 -222.5t216 -78.5q69 0 121 24v-61q-58 -23 -129 -23z" />
    <glyph glyph-name="u" unicode="u" horiz-adv-x="1191" 
d="M1010 0h-826v1044h66v-983h694v983h66v-1044z" />
    <glyph glyph-name="v" unicode="v" horiz-adv-x="1062" 
d="M575 0h-88l-440 1044h72l409 -983h9l407 983h72z" />
    <glyph glyph-name="w" unicode="w" horiz-adv-x="1603" 
d="M1546 1044l-313 -1044h-105l-323 983h-8l-324 -983h-100l-318 1044h70l295 -983h8l322 983h104l322 -983h8l295 983h67z" />
    <glyph glyph-name="x" unicode="x" horiz-adv-x="970" 
d="M440 532l-395 512h80l356 -466h8l359 466h78l-396 -512l396 -532h-78l-361 487h-8l-358 -487h-78z" />
    <glyph glyph-name="y" unicode="y" horiz-adv-x="1077" 
d="M414 -471h-244v61h203l168 414h-29l-477 1040h69l449 -981h10l398 981h67z" />
    <glyph glyph-name="z" unicode="z" horiz-adv-x="894" 
d="M76 983v61h776l-694 -983h661v-61h-776l694 983h-661z" />
    <glyph glyph-name="braceleft" unicode="{" horiz-adv-x="481" 
d="M385 1741v-53h-92q-109 0 -88 -111l108 -614q27 -151 -65 -175l-19 -4v-10l19 -4q92 -24 65 -174l-104 -635q-21 -113 84 -113h92v-53h-94q-168 0 -141 174l108 637q25 146 -100 146h-72v55h72q125 0 100 145l-111 615q-17 83 22 128.5t122 45.5h94z" />
    <glyph glyph-name="bar" unicode="|" horiz-adv-x="468" 
d="M205 -205v1946h59v-1946h-59z" />
    <glyph glyph-name="braceright" unicode="}" horiz-adv-x="481" 
d="M96 1741h94q83 0 122 -45.5t22 -128.5l-111 -615q-25 -145 101 -145h71v-55h-71q-126 0 -101 -146l109 -637q27 -174 -142 -174h-94v53h92q105 0 84 113l-104 635q-27 150 65 174l19 4v10l-19 4q-92 24 -65 175l108 614q21 111 -88 111h-92v53z" />
    <glyph glyph-name="asciitilde" unicode="~" horiz-adv-x="1306" 
d="M1192 1536q17 -216 -50 -327t-196 -111q-76 0 -129 32t-110 105l-119 145q-47 59 -91 89t-104 30q-105 0 -153.5 -95t-36.5 -282h-60q-18 215 50 327t198 112q74 0 125.5 -32t110.5 -106l118 -145q47 -59 91.5 -89t105.5 -30q105 0 153 95.5t35 281.5h62z" />
    <glyph glyph-name="uni00A0" unicode="&#xa0;" horiz-adv-x="559" 
 />
    <glyph glyph-name="exclamdown" unicode="&#xa1;" horiz-adv-x="397" 
d="M203 1077q22 0 37.5 -15t15.5 -38t-15.5 -38t-37.5 -15q-23 0 -38 15t-15 38t15 38t38 15zM231 621v-1092h-65v1092h65z" />
    <glyph glyph-name="cent" unicode="&#xa2;" horiz-adv-x="1161" 
d="M1073 1069l-43 -41q-66 95 -167.5 149t-223.5 54q-204 0 -341.5 -141.5t-137.5 -352.5t137.5 -352t341.5 -141q128 0 232 59.5t173 161.5l41 -41q-71 -106 -179 -170.5t-238 -71.5v-266h-62v266q-221 12 -366.5 170t-145.5 385t146.5 385t367.5 170v260h62v-260
q123 -7 227.5 -66.5t175.5 -156.5z" />
    <glyph glyph-name="sterling" unicode="&#xa3;" horiz-adv-x="1075" 
d="M106 61q83 94 144 232t61 289q0 19 -4 55h-211v61h201q-13 58 -47.5 154.5t-58 181.5t-23.5 156q0 167 102 273t289 106q291 0 426 -307l-51 -33q-120 278 -371 278q-164 0 -245.5 -89.5t-81.5 -233.5q0 -65 24 -148.5t58.5 -181t48.5 -156.5h534v-61h-524q2 -14 2 -45
q0 -153 -56 -290.5t-141 -240.5h791v-61h-867v61z" />
    <glyph glyph-name="currency" unicode="&#xa4;" horiz-adv-x="1294" 
d="M135 262l178 178q-102 123 -102 291t102 291l-178 178l45 45l178 -178q123 102 291 102t291 -102l174 176l45 -45l-174 -178q102 -117 102 -289q0 -168 -102 -291l174 -174l-45 -45l-174 174q-123 -102 -291 -102t-291 102l-178 -178zM276 731q0 -161 106.5 -269
t266.5 -108t266.5 108t106.5 269q0 162 -106.5 269.5t-266.5 107.5q-157 0 -263.5 -107.5t-109.5 -269.5z" />
    <glyph glyph-name="yen" unicode="&#xa5;" horiz-adv-x="1275" 
d="M193 254v57h411v269h-411v57h391l-514 899h75l490 -860h8l494 860h75l-522 -899h391v-57h-409v-269h409v-57h-409v-254h-68v254h-411z" />
    <glyph glyph-name="brokenbar" unicode="&#xa6;" horiz-adv-x="468" 
d="M264 946h-59v795h59v-795zM205 -205v823h59v-823h-59z" />
    <glyph glyph-name="section" unicode="&#xa7;" horiz-adv-x="1091" 
d="M881 33q0 -127 -89 -201t-241 -74q-166 0 -281 90.5t-133 268.5l60 20q13 -155 112.5 -236t241.5 -81q113 0 187.5 52.5t74.5 158.5q0 54 -37.5 105.5t-74.5 79t-114 76.5q-4 3 -6.5 4.5t-6.5 4t-7 4.5l-315 205q-45 30 -71.5 51t-51.5 53.5t-36 73.5t-11 96
q0 120 88 198t231 60q-4 3 -27.5 19t-33.5 24.5t-31.5 27t-32.5 36t-24 41.5t-19 53t-6 62q0 116 86.5 190t221.5 74q153 0 261 -87t152 -251l-57 -21q-43 149 -133 223t-219 74q-110 0 -176 -55t-66 -147q0 -21 4 -40.5t8.5 -35.5t16 -33t19 -28.5t25 -27t27.5 -24
t32.5 -24.5t33 -22.5t37 -23.5t37.5 -24l311 -197q83 -55 124.5 -117t41.5 -151q0 -122 -92 -200t-230 -60q37 -24 59.5 -41.5t57.5 -52t53.5 -77.5t18.5 -93zM285 569l295 -192q51 -33 115.5 -36.5t119 19t92 73.5t37.5 118q0 71 -30.5 121.5t-100.5 95.5l-285 184
q-61 39 -129 44.5t-122 -17.5t-89.5 -73.5t-35.5 -117.5q0 -80 28 -124t105 -95z" />
    <glyph glyph-name="dieresis" unicode="&#xa8;" horiz-adv-x="1003" 
d="M264 1262q-22 0 -36.5 15t-14.5 38q0 22 14.5 36.5t36.5 14.5q23 0 38 -14.5t15 -36.5q0 -23 -15 -38t-38 -15zM737 1262q-22 0 -37.5 15t-15.5 38q0 22 15.5 36.5t37.5 14.5t36.5 -14.5t14.5 -36.5q0 -23 -14.5 -38t-36.5 -15z" />
    <glyph glyph-name="copyright" unicode="&#xa9;" horiz-adv-x="1804" 
d="M901 -33q-172 0 -321 60t-254.5 166t-165.5 255t-60 322q0 171 60 319.5t165.5 254t254.5 165.5t321 60q173 0 322.5 -60t255 -165.5t165.5 -254t60 -319.5q0 -173 -60 -322t-166 -255t-255 -166t-322 -60zM901 31q211 0 379.5 95t263 264t94.5 380q0 210 -94.5 378
t-263 262.5t-379.5 94.5t-379 -94.5t-262 -262.5t-94 -378q0 -211 94 -380t262 -264t379 -95zM1282 1040l-47 -39q-57 79 -142 124.5t-186 45.5q-167 0 -280 -115.5t-113 -285.5t112.5 -283.5t280.5 -113.5q107 0 194 48.5t142 133.5l47 -39q-63 -96 -163 -151.5t-220 -55.5
q-197 0 -329 132.5t-132 326.5q0 198 132.5 331.5t328.5 133.5q115 0 213.5 -52t161.5 -141z" />
    <glyph glyph-name="ordfeminine" unicode="&#xaa;" horiz-adv-x="849" 
d="M111 1008q0 99 75 159t203 60q194 0 250 -115h8q-6 59 -6 166q0 108 -63.5 170.5t-178.5 62.5q-148 0 -233 -102l-35 41q94 119 272 119q138 0 217.5 -78t79.5 -213v-471h-59v39q0 13 4 63h-8q-20 -57 -87 -90t-163 -33q-128 0 -202 60t-74 162zM403 840q106 0 171 45.5
t65 122.5q0 76 -65.5 122t-170.5 46t-167 -45t-62 -123t62 -123t167 -45z" />
    <glyph glyph-name="guillemetleft" unicode="&#xab;" horiz-adv-x="1071" 
d="M102 614l338 492l47 -31l-317 -461l317 -460l-47 -31zM573 614l338 492l47 -31l-317 -461l317 -460l-47 -31z" />
    <glyph glyph-name="logicalnot" unicode="&#xac;" horiz-adv-x="1105" 
d="M985 354h-59v447h-830v59h889v-506z" />
    <glyph glyph-name="hyphensoft" unicode="&#xad;" horiz-adv-x="999" 
d="M141 741v60h717v-60h-717z" />
    <glyph glyph-name="registered" unicode="&#xae;" horiz-adv-x="1042" 
d="M520 719q-185 0 -301.5 119.5t-116.5 306.5q0 185 117 304.5t301 119.5q186 0 304 -119t118 -305t-118 -306t-304 -120zM520 770q162 0 265.5 105t103.5 270q0 163 -104 268t-265 105t-262.5 -105t-101.5 -268q0 -165 101 -270t263 -105zM639 934l-115 180h-104v-180h-51
v430h188q61 0 100 -34.5t39 -88.5q0 -51 -31.5 -85t-84.5 -40l118 -182h-59zM547 1157q44 0 71 23t27 61q0 34 -27 56t-71 22h-127v-162h127z" />
    <glyph glyph-name="macron" unicode="&#xaf;" horiz-adv-x="751" 
d="M86 1274v59h580v-59h-580z" />
    <glyph glyph-name="degree" unicode="&#xb0;" horiz-adv-x="1032" 
d="M514 719q-185 0 -302.5 119.5t-117.5 306.5q0 185 118 304.5t302 119.5q186 0 305 -119t119 -305t-119 -306t-305 -120zM514 776q159 0 261 103.5t102 265.5q0 160 -102 263t-261 103q-158 0 -258 -103t-100 -263q0 -162 99.5 -265.5t258.5 -103.5z" />
    <glyph glyph-name="plusminus" unicode="&#xb1;" horiz-adv-x="1105" 
d="M997 850h-415v-424h-62v424h-411v59h411v424h62v-424h415v-59zM109 174v59h888v-59h-888z" />
    <glyph glyph-name="two.superior" unicode="&#xb2;" horiz-adv-x="686" 
d="M82 760l303 315q65 67 104 126.5t39 117.5q0 76 -51 127t-135 51q-82 0 -139 -47.5t-72 -130.5l-57 12q21 106 94 163.5t176 57.5q112 0 180 -65t68 -164q0 -67 -42.5 -133t-115.5 -141l-244 -248v-6h424v-56h-532v21z" />
    <glyph glyph-name="three.superior" unicode="&#xb3;" horiz-adv-x="684" 
d="M610 958q0 -103 -77 -169t-199 -66q-98 0 -168.5 41t-102.5 115l46 30q61 -131 223 -131q97 0 157 50.5t60 132.5t-61 131t-158 49q-70 0 -129 -21l-29 51l330 310h-396v55h474v-55l-324 -301v-4q49 14 100 14q108 0 181 -65t73 -167z" />
    <glyph glyph-name="acute" unicode="&#xb4;" horiz-adv-x="645" 
d="M156 1274l243 354h86l-260 -354h-69z" />
    <glyph glyph-name="mu.math" unicode="&#xb5;" horiz-adv-x="1187" 
d="M250 90v-561h-66v1515h66v-647q0 -164 99 -264t261 -100q155 0 250.5 100t95.5 264v647h66v-653q0 -184 -111 -302t-290 -118q-67 0 -126 16t-101 41.5t-74 58.5t-49 67t-23 67h-4q6 -61 6 -131z" />
    <glyph glyph-name="paragraph" unicode="&#xb6;" horiz-adv-x="1232" 
d="M70 1020q0 105 41 200.5t111.5 164.5t169 110t208.5 41h553v-61h-182v-1680h-66v1680h-243v-1680h-68v709q-106 0 -203 41t-167.5 110t-112 164.5t-41.5 200.5zM139 1020q0 -187 132 -320t323 -133v908q-191 0 -323 -132.5t-132 -322.5z" />
    <glyph glyph-name="periodcentered" unicode="&#xb7;" horiz-adv-x="385" 
d="M193 719q-22 0 -37 14.5t-15 36.5q0 23 15 38t37 15t36.5 -15t14.5 -38q0 -22 -14.5 -36.5t-36.5 -14.5z" />
    <glyph glyph-name="cedilla" unicode="&#xb8;" horiz-adv-x="626" 
d="M162 -236l-25 37l164 248h59l-137 -211q58 15 107 15q59 0 110.5 -18.5t88 -61.5t36.5 -103q0 -92 -75 -145t-193 -53q-170 0 -250 94l31 41q70 -82 217 -82q97 0 155 38.5t58 106.5q0 48 -32.5 80t-73 43.5t-85.5 11.5q-77 0 -135 -28q-2 -1 -20 -13z" />
    <glyph glyph-name="one.superior" unicode="&#xb9;" horiz-adv-x="649" 
d="M74 739v56h260v686h-252v55h313v-741h228v-56h-549z" />
    <glyph glyph-name="ordmasculine" unicode="&#xba;" horiz-adv-x="944" 
d="M473 786q-172 0 -272.5 107t-100.5 289q0 177 101 282t272 105q170 0 271.5 -105t101.5 -282q0 -181 -101.5 -288.5t-271.5 -107.5zM473 1511q-143 0 -227 -88.5t-84 -240.5q0 -155 84 -246.5t227 -91.5q141 0 225 91.5t84 246.5q0 152 -84 240.5t-225 88.5z" />
    <glyph glyph-name="guillemetright" unicode="&#xbb;" horiz-adv-x="1071" 
d="M969 614l-338 -491l-47 31l317 460l-317 461l47 31zM498 614l-338 -491l-47 31l317 460l-317 461l47 31z" />
    <glyph glyph-name="onequarter" unicode="&#xbc;" horiz-adv-x="1773" 
d="M98 745v54h258v682h-250v55h312v-737h225v-54h-545zM391 0l942 1536h66l-942 -1536h-66zM1204 791h60l-105 -519h342v310h60v-310h151v-55h-151v-217h-60v217h-414z" />
    <glyph glyph-name="onehalf" unicode="&#xbd;" horiz-adv-x="1720" 
d="M82 745v54h258v682h-250v55h311v-737h226v-54h-545zM377 0l942 1536h65l-942 -1536h-65zM1116 18l301 316q67 69 105.5 126t38.5 115q0 76 -51.5 127.5t-135.5 51.5q-80 0 -137 -48t-72 -131l-57 13q21 106 94 163.5t174 57.5q112 0 180 -65t68 -164q0 -67 -42.5 -132.5
t-115.5 -140.5l-241 -248v-6h422v-55h-531v20z" />
    <glyph glyph-name="threequarters" unicode="&#xbe;" horiz-adv-x="1722" 
d="M340 0l942 1536h66l-942 -1536h-66zM629 961q0 -102 -76.5 -168t-198.5 -66q-97 0 -166 40.5t-102 113.5l45 30q61 -129 221 -129q96 0 155.5 50.5t59.5 130.5q0 82 -60.5 131t-156.5 49q-70 0 -129 -21l-26 52l327 307h-393v55h469v-55l-322 -299v-4q49 14 101 14
q108 0 180 -64.5t72 -166.5zM1151 791h59l-104 -519h342v310h59v-310h152v-55h-152v-217h-59v217h-414z" />
    <glyph glyph-name="questiondown" unicode="&#xbf;" horiz-adv-x="919" 
d="M451 1077q22 0 37.5 -15t15.5 -38t-15.5 -38t-37.5 -15q-23 0 -38.5 15t-15.5 38t15.5 38t38.5 15zM485 621v-355q-151 -62 -242 -166.5t-91 -230.5q0 -137 82 -225t223 -88q149 0 241 97t93 263l59 -10q-3 -184 -111 -297t-284 -113q-169 0 -270 104t-101 267
q0 138 91.5 250.5t244.5 179.5v324h65z" />
    <glyph glyph-name="Agrave" unicode="&#xc0;" horiz-adv-x="1327" 
d="M774 1653h-72l-260 293h88zM51 0l565 1536h93l565 -1536h-70l-178 489h-727l-180 -489h-68zM659 1470l-337 -919h682l-336 919h-9z" />
    <glyph glyph-name="Aacute" unicode="&#xc1;" horiz-adv-x="1327" 
d="M571 1653l244 293h90l-262 -293h-72zM51 0l565 1536h93l565 -1536h-70l-178 489h-727l-180 -489h-68zM659 1470l-337 -919h682l-336 919h-9z" />
    <glyph glyph-name="Acircumflex" unicode="&#xc2;" horiz-adv-x="1327" 
d="M352 1653l260 293h97l260 -293h-70l-237 254l-238 -254h-72zM51 0l565 1536h93l565 -1536h-70l-178 489h-727l-180 -489h-68zM659 1470l-337 -919h682l-336 919h-9z" />
    <glyph glyph-name="Atilde" unicode="&#xc3;" horiz-adv-x="1327" 
d="M997 1903q10 -135 -33.5 -202t-119.5 -67q-82 0 -158 76l-94 86q-25 24 -37.5 34t-36 21t-49.5 11q-57 0 -84 -56t-18 -153h-56q-11 134 34 201t124 67q33 0 61 -10.5t44.5 -23t43.5 -36.5l97 -90q71 -67 129 -67q52 0 78 56t18 153h57zM51 0l565 1536h93l565 -1536h-70
l-178 489h-727l-180 -489h-68zM659 1470l-337 -919h682l-336 919h-9z" />
    <glyph glyph-name="Adieresis" unicode="&#xc4;" horiz-adv-x="1327" 
d="M426 1640q-22 0 -36.5 15.5t-14.5 38.5q0 22 14.5 36.5t36.5 14.5q23 0 38 -14.5t15 -36.5q0 -23 -15 -38.5t-38 -15.5zM899 1640q-22 0 -37.5 15.5t-15.5 38.5q0 22 15.5 36.5t37.5 14.5t36.5 -14.5t14.5 -36.5q0 -23 -14.5 -38.5t-36.5 -15.5zM51 0l565 1536h93
l565 -1536h-70l-178 489h-727l-180 -489h-68zM659 1470l-337 -919h682l-336 919h-9z" />
    <glyph glyph-name="Aring" unicode="&#xc5;" horiz-adv-x="1327" 
d="M664 1614q-134 0 -213.5 51t-79.5 135q0 86 79.5 138.5t213.5 52.5q133 0 212.5 -53t79.5 -138q0 -84 -79.5 -135t-212.5 -51zM664 1665q108 0 172.5 37.5t64.5 97.5q0 62 -65 102t-172 40t-172.5 -40t-65.5 -102q0 -60 65 -97.5t173 -37.5zM51 0l565 1536h93l565 -1536
h-70l-178 489h-727l-180 -489h-68zM659 1470l-337 -919h682l-336 919h-9z" />
    <glyph glyph-name="AE" unicode="&#xc6;" horiz-adv-x="2035" 
d="M1098 0v551h-844v-551h-66v1063q0 241 131.5 373.5t358.5 132.5q116 0 201 -33h1050v-61h-938q174 -132 174 -412v-254h723v-59h-723v-689h774v-61h-841zM254 1059v-447h844v447q0 216 -111.5 332t-308.5 116q-199 0 -311.5 -116t-112.5 -332z" />
    <glyph glyph-name="Ccedilla" unicode="&#xc7;" horiz-adv-x="1550" 
d="M715 -293l-25 37l148 225q-208 10 -377.5 117t-266 286.5t-96.5 395.5q0 223 103.5 407t283 289t396.5 105q189 0 349 -82t265 -225l-49 -39q-96 132 -243.5 208t-321.5 76q-198 0 -362 -97t-258.5 -266.5t-94.5 -375.5t94.5 -375.5t258.5 -266.5t362 -97q171 0 317.5 75
t243.5 205l45 -39q-100 -138 -253 -218.5t-337 -84.5l-121 -186q54 14 107 14q59 0 110.5 -18t88 -61t36.5 -103q0 -92 -75 -145.5t-193 -53.5q-170 0 -250 94l31 41q69 -81 217 -81q97 0 155 38.5t58 106.5q0 48 -32.5 80t-73 43.5t-85.5 11.5q-75 0 -135 -29
q-8 -4 -20 -12z" />
    <glyph glyph-name="Egrave" unicode="&#xc8;" 
d="M766 1653h-72l-260 293h88zM205 0v1536h837v-61h-772v-666h731v-59h-731v-689h783v-61h-848z" />
    <glyph glyph-name="Eacute" unicode="&#xc9;" 
d="M563 1653l244 293h90l-262 -293h-72zM205 0v1536h837v-61h-772v-666h731v-59h-731v-689h783v-61h-848z" />
    <glyph glyph-name="Ecircumflex" unicode="&#xca;" 
d="M344 1653l260 293h96l261 -293h-70l-238 254l-237 -254h-72zM205 0v1536h837v-61h-772v-666h731v-59h-731v-689h783v-61h-848z" />
    <glyph glyph-name="Edieresis" unicode="&#xcb;" 
d="M418 1640q-22 0 -36.5 15.5t-14.5 38.5q0 22 14.5 36.5t36.5 14.5q23 0 38 -14.5t15 -36.5q0 -23 -15 -38.5t-38 -15.5zM891 1640q-22 0 -37.5 15.5t-15.5 38.5q0 22 15.5 36.5t37.5 14.5t36.5 -14.5t14.5 -36.5q0 -23 -14.5 -38.5t-36.5 -15.5zM205 0v1536h837v-61h-772
v-666h731v-59h-731v-689h783v-61h-848z" />
    <glyph glyph-name="Igrave" unicode="&#xcc;" horiz-adv-x="903" 
d="M565 1653h-71l-261 293h89zM39 0v61h379v1414h-361v61h787v-61h-359v-1414h377v-61h-823z" />
    <glyph glyph-name="Iacute" unicode="&#xcd;" horiz-adv-x="903" 
d="M362 1653l244 293h90l-262 -293h-72zM39 0v61h379v1414h-361v61h787v-61h-359v-1414h377v-61h-823z" />
    <glyph glyph-name="Icircumflex" unicode="&#xce;" horiz-adv-x="903" 
d="M143 1653l260 293h97l260 -293h-70l-237 254l-238 -254h-72zM39 0v61h379v1414h-361v61h787v-61h-359v-1414h377v-61h-823z" />
    <glyph glyph-name="Idieresis" unicode="&#xcf;" horiz-adv-x="903" 
d="M217 1640q-22 0 -36.5 15.5t-14.5 38.5q0 22 14.5 36.5t36.5 14.5q23 0 38 -14.5t15 -36.5q0 -23 -15 -38.5t-38 -15.5zM690 1640q-22 0 -37.5 15.5t-15.5 38.5q0 22 15.5 36.5t37.5 14.5t36.5 -14.5t14.5 -36.5q0 -23 -14.5 -38.5t-36.5 -15.5zM39 0v61h379v1414h-361
v61h787v-61h-359v-1414h377v-61h-823z" />
    <glyph glyph-name="Eth" unicode="&#xd0;" horiz-adv-x="1593" 
d="M705 0h-480v723h-196v59h196v754h480q361 0 572.5 -206t211.5 -560q0 -357 -211 -563.5t-573 -206.5zM705 61q330 0 523 190.5t193 518.5t-192.5 516.5t-523.5 188.5h-414v-693h567v-59h-567v-662h414z" />
    <glyph glyph-name="Ntilde" unicode="&#xd1;" horiz-adv-x="1521" 
d="M1098 1903q10 -135 -34 -202t-120 -67q-82 0 -158 76l-94 86q-25 24 -37.5 34t-36 21t-49.5 11q-57 0 -84 -56t-18 -153h-55q-11 134 33.5 201t123.5 67q33 0 61.5 -10.5t45.5 -23t43 -36.5l96 -90q71 -67 129 -67q52 0 78 56t18 153h58zM1317 0h-86l-952 1432h-9v-1432
h-65v1536h86l952 -1432h8v1432h66v-1536z" />
    <glyph glyph-name="Ograve" unicode="&#xd2;" horiz-adv-x="1755" 
d="M989 1686h-71l-261 292h88zM877 -33q-164 0 -308.5 62t-247 168.5t-162 255t-59.5 315.5t59.5 315.5t162.5 255t247.5 168.5t307.5 62q164 0 308.5 -62t247.5 -168.5t162.5 -255t59.5 -315.5t-59.5 -315.5t-162.5 -255t-247.5 -168.5t-308.5 -62zM877 29q150 0 282 57
t225.5 155.5t148 235.5t54.5 291t-54.5 291t-148 235.5t-225.5 155.5t-282 57q-198 0 -361 -97t-255.5 -266.5t-92.5 -375.5t92.5 -375.5t255.5 -266.5t361 -97z" />
    <glyph glyph-name="Oacute" unicode="&#xd3;" horiz-adv-x="1755" 
d="M786 1686l244 292h90l-262 -292h-72zM877 -33q-164 0 -308.5 62t-247 168.5t-162 255t-59.5 315.5t59.5 315.5t162.5 255t247.5 168.5t307.5 62q164 0 308.5 -62t247.5 -168.5t162.5 -255t59.5 -315.5t-59.5 -315.5t-162.5 -255t-247.5 -168.5t-308.5 -62zM877 29
q150 0 282 57t225.5 155.5t148 235.5t54.5 291t-54.5 291t-148 235.5t-225.5 155.5t-282 57q-198 0 -361 -97t-255.5 -266.5t-92.5 -375.5t92.5 -375.5t255.5 -266.5t361 -97z" />
    <glyph glyph-name="Ocircumflex" unicode="&#xd4;" horiz-adv-x="1755" 
d="M567 1686l260 292h97l260 -292h-70l-237 253l-238 -253h-72zM877 -33q-164 0 -308.5 62t-247 168.5t-162 255t-59.5 315.5t59.5 315.5t162.5 255t247.5 168.5t307.5 62q164 0 308.5 -62t247.5 -168.5t162.5 -255t59.5 -315.5t-59.5 -315.5t-162.5 -255t-247.5 -168.5
t-308.5 -62zM877 29q150 0 282 57t225.5 155.5t148 235.5t54.5 291t-54.5 291t-148 235.5t-225.5 155.5t-282 57q-198 0 -361 -97t-255.5 -266.5t-92.5 -375.5t92.5 -375.5t255.5 -266.5t361 -97z" />
    <glyph glyph-name="Otilde" unicode="&#xd5;" horiz-adv-x="1755" 
d="M1212 1935q10 -135 -33.5 -201.5t-119.5 -66.5q-82 0 -158 76l-94 86q-24 23 -37 33.5t-36.5 21t-49.5 10.5q-57 0 -84 -55.5t-18 -152.5h-56q-11 134 34 201t124 67q33 0 61.5 -10.5t45.5 -23t43 -36.5l96 -90q72 -68 129 -68q52 0 78 56t18 153h57zM877 -33
q-164 0 -308.5 62t-247 168.5t-162 255t-59.5 315.5t59.5 315.5t162.5 255t247.5 168.5t307.5 62q164 0 308.5 -62t247.5 -168.5t162.5 -255t59.5 -315.5t-59.5 -315.5t-162.5 -255t-247.5 -168.5t-308.5 -62zM877 29q150 0 282 57t225.5 155.5t148 235.5t54.5 291
t-54.5 291t-148 235.5t-225.5 155.5t-282 57q-198 0 -361 -97t-255.5 -266.5t-92.5 -375.5t92.5 -375.5t255.5 -266.5t361 -97z" />
    <glyph glyph-name="Odieresis" unicode="&#xd6;" horiz-adv-x="1755" 
d="M641 1673q-22 0 -36.5 15t-14.5 38q0 22 14.5 37t36.5 15q23 0 38 -15t15 -37q0 -23 -15 -38t-38 -15zM1114 1673q-22 0 -37.5 15t-15.5 38q0 22 15.5 37t37.5 15t36.5 -15t14.5 -37q0 -23 -14.5 -38t-36.5 -15zM877 -33q-164 0 -308.5 62t-247 168.5t-162 255
t-59.5 315.5t59.5 315.5t162.5 255t247.5 168.5t307.5 62q164 0 308.5 -62t247.5 -168.5t162.5 -255t59.5 -315.5t-59.5 -315.5t-162.5 -255t-247.5 -168.5t-308.5 -62zM877 29q150 0 282 57t225.5 155.5t148 235.5t54.5 291t-54.5 291t-148 235.5t-225.5 155.5t-282 57
q-198 0 -361 -97t-255.5 -266.5t-92.5 -375.5t92.5 -375.5t255.5 -266.5t361 -97z" />
    <glyph glyph-name="multiply" unicode="&#xd7;" horiz-adv-x="1105" 
d="M930 346l-377 377l-375 -377l-43 45l375 375l-377 377l43 43l377 -377l377 377l43 -43l-377 -377l377 -375z" />
    <glyph glyph-name="Oslash" unicode="&#xd8;" horiz-adv-x="1755" 
d="M309 -6l-37 29l99 129q-128 110 -199.5 270t-71.5 346q0 167 59.5 315.5t162.5 255t247.5 168.5t307.5 62q253 0 450 -142l94 125l37 -28l-92 -125q135 -109 212 -274t77 -357q0 -167 -59.5 -315.5t-162.5 -255t-247.5 -168.5t-308.5 -62q-266 0 -471 156zM168 768
q0 -169 64 -315.5t178 -247.5l880 1171q-182 131 -413 131q-198 0 -361 -97t-255.5 -266.5t-92.5 -375.5zM877 29q150 0 282 57t225.5 155.5t148 235.5t54.5 291q0 177 -69 327.5t-191 252.5l-883 -1174q188 -145 433 -145z" />
    <glyph glyph-name="Ugrave" unicode="&#xd9;" horiz-adv-x="1452" 
d="M838 1653h-72l-260 293h88zM205 1536h65v-1475h910v1475h67v-1536h-1042v1536z" />
    <glyph glyph-name="Uacute" unicode="&#xda;" horiz-adv-x="1452" 
d="M635 1653l244 293h90l-262 -293h-72zM205 1536h65v-1475h910v1475h67v-1536h-1042v1536z" />
    <glyph glyph-name="Ucircumflex" unicode="&#xdb;" horiz-adv-x="1452" 
d="M416 1653l260 293h96l260 -293h-69l-238 254l-238 -254h-71zM205 1536h65v-1475h910v1475h67v-1536h-1042v1536z" />
    <glyph glyph-name="Udieresis" unicode="&#xdc;" horiz-adv-x="1452" 
d="M489 1640q-22 0 -36.5 15.5t-14.5 38.5q0 22 14.5 36.5t36.5 14.5q23 0 38.5 -14.5t15.5 -36.5q0 -23 -15.5 -38.5t-38.5 -15.5zM963 1640q-22 0 -38 15.5t-16 38.5q0 21 16 36t38 15t36.5 -14.5t14.5 -36.5q0 -23 -14.5 -38.5t-36.5 -15.5zM205 1536h65v-1475h910v1475
h67v-1536h-1042v1536z" />
    <glyph glyph-name="Yacute" unicode="&#xdd;" horiz-adv-x="1265" 
d="M545 1653l243 293h91l-263 -293h-71zM598 0v602l-535 934h76l490 -860h8l493 860h76l-540 -930v-606h-68z" />
    <glyph glyph-name="Thorn" unicode="&#xde;" horiz-adv-x="1300" 
d="M270 0h-65v1536h67v-293h455q216 0 350.5 -129t134.5 -332q0 -202 -134.5 -331t-350.5 -129h-457v-322zM721 383q187 0 305.5 112t118.5 287t-118.5 287.5t-305.5 112.5h-451v-799h451z" />
    <glyph glyph-name="germandbls" unicode="&#xdf;" horiz-adv-x="1349" 
d="M733 1569q117 0 225.5 -32.5t184.5 -90.5l-338 -645q36 4 57 4q175 -6 286.5 -115.5t111.5 -279.5q-2 -200 -123 -317.5t-326 -117.5q-163 0 -299 72l20 59q118 -69 273 -69q180 0 283.5 99.5t103.5 271.5q0 152 -100 244.5t-254 92.5q-59 0 -95 -10l-20 37l338 647
q-53 39 -145 64.5t-181 25.5q-231 0 -358 -130.5t-127 -350.5v-1028h-66v1026q0 246 143.5 394.5t405.5 148.5z" />
    <glyph glyph-name="agrave" unicode="&#xe0;" horiz-adv-x="1060" 
d="M586 1298h-70l-260 355h86zM94 281q0 142 104 226.5t279 84.5q132 0 224 -46.5t126 -129.5h9q-7 119 -7 250q0 163 -88.5 256.5t-246.5 93.5q-206 0 -330 -148l-39 43q132 166 375 166q184 0 289.5 -109t105.5 -298v-670h-66v74q0 29 7 80h-9q-29 -84 -124.5 -134.5
t-225.5 -50.5q-175 0 -279 85t-104 227zM487 31q154 0 247 68t93 184q0 115 -93 182t-247 67q-151 0 -238 -67t-87 -182q0 -117 87 -184.5t238 -67.5z" />
    <glyph glyph-name="aacute" unicode="&#xe1;" horiz-adv-x="1060" 
d="M406 1298l243 355h86l-260 -355h-69zM94 281q0 142 104 226.5t279 84.5q132 0 224 -46.5t126 -129.5h9q-7 119 -7 250q0 163 -88.5 256.5t-246.5 93.5q-206 0 -330 -148l-39 43q132 166 375 166q184 0 289.5 -109t105.5 -298v-670h-66v74q0 29 7 80h-9
q-29 -84 -124.5 -134.5t-225.5 -50.5q-175 0 -279 85t-104 227zM487 31q154 0 247 68t93 184q0 115 -93 182t-247 67q-151 0 -238 -67t-87 -182q0 -117 87 -184.5t238 -67.5z" />
    <glyph glyph-name="acircumflex" unicode="&#xe2;" horiz-adv-x="1060" 
d="M188 1298l261 355h94l260 -355h-70l-237 308l-238 -308h-70zM94 281q0 142 104 226.5t279 84.5q132 0 224 -46.5t126 -129.5h9q-7 119 -7 250q0 163 -88.5 256.5t-246.5 93.5q-206 0 -330 -148l-39 43q132 166 375 166q184 0 289.5 -109t105.5 -298v-670h-66v74
q0 29 7 80h-9q-29 -84 -124.5 -134.5t-225.5 -50.5q-175 0 -279 85t-104 227zM487 31q154 0 247 68t93 184q0 115 -93 182t-247 67q-151 0 -238 -67t-87 -182q0 -117 87 -184.5t238 -67.5z" />
    <glyph glyph-name="atilde" unicode="&#xe3;" horiz-adv-x="1060" 
d="M831 1559q10 -141 -33.5 -211t-119.5 -70q-78 0 -156 78l-96 92q-27 25 -37 34t-35 21.5t-51 12.5q-58 0 -85.5 -58.5t-18.5 -161.5h-54q-11 140 34 210.5t124 70.5q47 0 78.5 -18t69.5 -56l96 -94q74 -70 131 -70q54 0 81 59.5t19 160.5h53zM94 281q0 142 104 226.5
t279 84.5q132 0 224 -46.5t126 -129.5h9q-7 119 -7 250q0 163 -88.5 256.5t-246.5 93.5q-206 0 -330 -148l-39 43q132 166 375 166q184 0 289.5 -109t105.5 -298v-670h-66v74q0 29 7 80h-9q-29 -84 -124.5 -134.5t-225.5 -50.5q-175 0 -279 85t-104 227zM487 31
q154 0 247 68t93 184q0 115 -93 182t-247 67q-151 0 -238 -67t-87 -182q0 -117 87 -184.5t238 -67.5z" />
    <glyph glyph-name="adieresis" unicode="&#xe4;" horiz-adv-x="1060" 
d="M260 1286q-22 0 -36.5 15t-14.5 38q0 22 14.5 37t36.5 15q23 0 38 -15t15 -37q0 -23 -15 -38t-38 -15zM733 1286q-22 0 -37.5 15t-15.5 38q0 22 15.5 37t37.5 15t36.5 -15t14.5 -37q0 -23 -14.5 -38t-36.5 -15zM94 281q0 142 104 226.5t279 84.5q132 0 224 -46.5
t126 -129.5h9q-7 119 -7 250q0 163 -88.5 256.5t-246.5 93.5q-206 0 -330 -148l-39 43q132 166 375 166q184 0 289.5 -109t105.5 -298v-670h-66v74q0 29 7 80h-9q-29 -84 -124.5 -134.5t-225.5 -50.5q-175 0 -279 85t-104 227zM487 31q154 0 247 68t93 184q0 115 -93 182
t-247 67q-151 0 -238 -67t-87 -182q0 -117 87 -184.5t238 -67.5z" />
    <glyph glyph-name="aring" unicode="&#xe5;" horiz-adv-x="1060" 
d="M496 1260q-131 0 -212 59.5t-81 155.5q0 99 81 161t212 62t211.5 -62t80.5 -161q0 -96 -80.5 -155.5t-211.5 -59.5zM496 1311q108 0 172.5 45.5t64.5 118.5q0 77 -64.5 124.5t-172.5 47.5t-173 -47.5t-65 -124.5q0 -73 65 -118.5t173 -45.5zM94 281q0 142 104 226.5
t279 84.5q132 0 224 -46.5t126 -129.5h9q-7 119 -7 250q0 163 -88.5 256.5t-246.5 93.5q-206 0 -330 -148l-39 43q132 166 375 166q184 0 289.5 -109t105.5 -298v-670h-66v74q0 29 7 80h-9q-29 -84 -124.5 -134.5t-225.5 -50.5q-175 0 -279 85t-104 227zM487 31
q154 0 247 68t93 184q0 115 -93 182t-247 67q-151 0 -238 -67t-87 -182q0 -117 87 -184.5t238 -67.5z" />
    <glyph glyph-name="ae" unicode="&#xe6;" horiz-adv-x="1726" 
d="M1587 61v-61h-758v76q0 31 7 78h-9q-29 -85 -125 -135t-229 -50q-173 0 -276 86.5t-103 227.5q0 140 103.5 224.5t279.5 84.5q133 0 226 -47.5t124 -130.5h9q-7 79 -7 245q0 163 -89 260t-246 97q-209 0 -328 -146l-43 43q133 164 371 164q147 0 243.5 -76t122.5 -210
q29 132 130.5 209t244.5 77q174 0 285.5 -114t111.5 -293v-183h-741v-426h696zM1227 1016q-148 0 -242 -98t-94 -256v-115h676v117q0 156 -96.5 254t-243.5 98zM485 31q154 0 248 68t94 184q0 114 -94 181.5t-248 67.5q-151 0 -237 -66.5t-86 -182.5t86.5 -184t236.5 -68z
" />
    <glyph glyph-name="ccedilla" unicode="&#xe7;" 
d="M469 -293l-25 37l150 225q-143 11 -257 86t-178.5 197.5t-64.5 269.5q0 235 157 395t388 160q132 0 245.5 -59.5t188.5 -163.5l-43 -41q-66 95 -167.5 149t-223.5 54q-204 0 -341.5 -141.5t-137.5 -352.5t137.5 -352t341.5 -141q128 0 232 59.5t173 161.5l41 -41
q-72 -109 -185.5 -174t-248.5 -68l-121 -186q54 14 107 14q59 0 110.5 -18t88 -61t36.5 -103q0 -92 -75 -145.5t-193 -53.5q-170 0 -250 94l31 41q69 -81 217 -81q97 0 155 38.5t58 106.5q0 48 -32 80t-72.5 43.5t-85.5 11.5q-76 0 -136 -29q-8 -4 -20 -12z" />
    <glyph glyph-name="egrave" unicode="&#xe8;" horiz-adv-x="1232" 
d="M727 1298h-70l-260 355h86zM1069 182q-76 -102 -187.5 -158.5t-242.5 -56.5q-231 0 -388 160t-157 395q0 154 71 281.5t196 200.5t276 73q112 0 208.5 -43t163.5 -117t105.5 -176.5t38.5 -218.5q0 -25 -2 -33h-991q12 -200 147 -330t332 -130q120 0 220 50.5t169 141.5z
M637 1016q-198 0 -333 -132t-144 -335h927q-6 202 -131.5 334.5t-318.5 132.5z" />
    <glyph glyph-name="eacute" unicode="&#xe9;" horiz-adv-x="1232" 
d="M545 1298l243 355h86l-260 -355h-69zM1069 182q-76 -102 -187.5 -158.5t-242.5 -56.5q-231 0 -388 160t-157 395q0 154 71 281.5t196 200.5t276 73q112 0 208.5 -43t163.5 -117t105.5 -176.5t38.5 -218.5q0 -25 -2 -33h-991q12 -200 147 -330t332 -130q120 0 220 50.5
t169 141.5zM637 1016q-198 0 -333 -132t-144 -335h927q-6 202 -131.5 334.5t-318.5 132.5z" />
    <glyph glyph-name="ecircumflex" unicode="&#xea;" horiz-adv-x="1232" 
d="M328 1298l260 355h94l260 -355h-70l-237 308l-238 -308h-69zM1069 182q-76 -102 -187.5 -158.5t-242.5 -56.5q-231 0 -388 160t-157 395q0 154 71 281.5t196 200.5t276 73q112 0 208.5 -43t163.5 -117t105.5 -176.5t38.5 -218.5q0 -25 -2 -33h-991q12 -200 147 -330
t332 -130q120 0 220 50.5t169 141.5zM637 1016q-198 0 -333 -132t-144 -335h927q-6 202 -131.5 334.5t-318.5 132.5z" />
    <glyph glyph-name="edieresis" unicode="&#xeb;" horiz-adv-x="1232" 
d="M399 1286q-22 0 -36.5 15t-14.5 38q0 22 14.5 37t36.5 15q23 0 38.5 -15t15.5 -37q0 -23 -15.5 -38t-38.5 -15zM872 1286q-22 0 -37.5 15t-15.5 38q0 22 15.5 37t37.5 15t37 -15t15 -37q0 -23 -15 -38t-37 -15zM1069 182q-76 -102 -187.5 -158.5t-242.5 -56.5
q-231 0 -388 160t-157 395q0 154 71 281.5t196 200.5t276 73q112 0 208.5 -43t163.5 -117t105.5 -176.5t38.5 -218.5q0 -25 -2 -33h-991q12 -200 147 -330t332 -130q120 0 220 50.5t169 141.5zM637 1016q-198 0 -333 -132t-144 -335h927q-6 202 -131.5 334.5t-318.5 132.5z
" />
    <glyph glyph-name="igrave" unicode="&#xec;" horiz-adv-x="432" 
d="M307 1298h-69l-261 355h86zM250 0h-66v1044h66v-1044z" />
    <glyph glyph-name="iacute" unicode="&#xed;" horiz-adv-x="432" 
d="M125 1298l244 355h86l-260 -355h-70zM250 0h-66v1044h66v-1044z" />
    <glyph glyph-name="icircumflex" unicode="&#xee;" horiz-adv-x="432" 
d="M-92 1298l260 355h94l260 -355h-69l-238 308l-238 -308h-69zM250 0h-66v1044h66v-1044z" />
    <glyph glyph-name="idieresis" unicode="&#xef;" horiz-adv-x="432" 
d="M-20 1286q-22 0 -37 15t-15 38q0 22 15 37t37 15q23 0 38 -15t15 -37q0 -23 -15 -38t-38 -15zM453 1286q-22 0 -38 15t-16 38q0 22 16 37t38 15t36.5 -15t14.5 -37q0 -23 -14.5 -38t-36.5 -15zM250 0h-66v1044h66v-1044z" />
    <glyph glyph-name="eth" unicode="&#xf0;" horiz-adv-x="1247" 
d="M365 1159l-23 41l311 162q-115 90 -288 184l38 51q185 -103 310 -202l280 145l23 -41l-262 -137q202 -173 296.5 -381t94.5 -471q0 -149 -67 -273t-188.5 -197t-271.5 -73q-223 0 -373.5 153.5t-150.5 381.5q0 146 68.5 267t187.5 190t262 69q292 0 432 -254l13 6
q-86 318 -365 551zM618 29q196 0 327.5 135t131.5 336q0 200 -130.5 334.5t-325.5 134.5q-196 0 -328.5 -134.5t-132.5 -334.5t131.5 -335.5t326.5 -135.5z" />
    <glyph glyph-name="ntilde" unicode="&#xf1;" horiz-adv-x="1204" 
d="M938 1559q10 -141 -34 -211t-120 -70q-77 0 -155 78l-97 92q-1 1 -11 10.5t-12.5 11.5t-11.5 10t-12.5 10t-12 8t-14.5 8t-14.5 5t-16.5 4t-17 1q-58 0 -86 -58.5t-19 -161.5h-53q-11 140 34 210.5t124 70.5q46 0 77.5 -18t69.5 -56l96 -94q74 -70 131 -70
q54 0 81.5 59.5t19.5 160.5h53zM184 1044h836v-1044h-66v983h-704v-983h-66v1044z" />
    <glyph glyph-name="ograve" unicode="&#xf2;" horiz-adv-x="1275" 
d="M729 1298h-70l-260 355h86zM639 -33q-153 0 -278 73t-196 200.5t-71 281.5q0 235 157 395t388 160t388 -160t157 -395t-157 -395t-388 -160zM639 29q204 0 340.5 141t136.5 352t-136.5 352.5t-340.5 141.5t-341.5 -141.5t-137.5 -352.5t137.5 -352t341.5 -141z" />
    <glyph glyph-name="oacute" unicode="&#xf3;" horiz-adv-x="1275" 
d="M547 1298l244 355h86l-261 -355h-69zM639 -33q-153 0 -278 73t-196 200.5t-71 281.5q0 235 157 395t388 160t388 -160t157 -395t-157 -395t-388 -160zM639 29q204 0 340.5 141t136.5 352t-136.5 352.5t-340.5 141.5t-341.5 -141.5t-137.5 -352.5t137.5 -352t341.5 -141z
" />
    <glyph glyph-name="ocircumflex" unicode="&#xf4;" horiz-adv-x="1275" 
d="M330 1298l260 355h94l260 -355h-70l-237 308l-238 -308h-69zM639 -33q-153 0 -278 73t-196 200.5t-71 281.5q0 235 157 395t388 160t388 -160t157 -395t-157 -395t-388 -160zM639 29q204 0 340.5 141t136.5 352t-136.5 352.5t-340.5 141.5t-341.5 -141.5t-137.5 -352.5
t137.5 -352t341.5 -141z" />
    <glyph glyph-name="otilde" unicode="&#xf5;" horiz-adv-x="1275" 
d="M973 1559q10 -141 -34 -211t-120 -70q-77 0 -155 78l-97 92q-27 25 -37 34t-35 21.5t-51 12.5q-58 0 -85.5 -58.5t-18.5 -161.5h-53q-11 140 33.5 210.5t123.5 70.5q47 0 78.5 -18t69.5 -56l96 -94q74 -70 131 -70q54 0 81.5 59.5t19.5 160.5h53zM639 -33q-153 0 -278 73
t-196 200.5t-71 281.5q0 235 157 395t388 160t388 -160t157 -395t-157 -395t-388 -160zM639 29q204 0 340.5 141t136.5 352t-136.5 352.5t-340.5 141.5t-341.5 -141.5t-137.5 -352.5t137.5 -352t341.5 -141z" />
    <glyph glyph-name="odieresis" unicode="&#xf6;" horiz-adv-x="1275" 
d="M401 1286q-22 0 -36.5 15t-14.5 38q0 22 14.5 37t36.5 15q23 0 38.5 -15t15.5 -37q0 -23 -15.5 -38t-38.5 -15zM874 1286q-22 0 -37.5 15t-15.5 38q0 22 15.5 37t37.5 15t37 -15t15 -37q0 -23 -15 -38t-37 -15zM639 -33q-153 0 -278 73t-196 200.5t-71 281.5
q0 235 157 395t388 160t388 -160t157 -395t-157 -395t-388 -160zM639 29q204 0 340.5 141t136.5 352t-136.5 352.5t-340.5 141.5t-341.5 -141.5t-137.5 -352.5t137.5 -352t341.5 -141z" />
    <glyph glyph-name="divide" unicode="&#xf7;" horiz-adv-x="1105" 
d="M551 1135q-20 0 -33.5 14.5t-13.5 34.5q0 22 13.5 35.5t33.5 13.5q21 0 35 -14t14 -35q0 -20 -14.5 -34.5t-34.5 -14.5zM109 735v60h888v-60h-888zM553 293q-20 0 -33.5 14.5t-13.5 34.5q0 22 13.5 35.5t33.5 13.5q21 0 35 -14t14 -35q0 -20 -14.5 -34.5t-34.5 -14.5z
" />
    <glyph glyph-name="oslash" unicode="&#xf8;" horiz-adv-x="1275" 
d="M223 -53l-37 26l95 125q-88 76 -137.5 186.5t-49.5 237.5q0 235 157 395t388 160q179 0 319 -100l95 123l37 -29l-97 -123q90 -76 140.5 -186.5t50.5 -239.5q0 -235 -157 -395t-388 -160q-182 0 -322 103zM160 522q0 -112 42 -209t117 -166l601 779q-123 90 -281 90
q-204 0 -341.5 -141.5t-137.5 -352.5zM639 29q204 0 340.5 141t136.5 352q0 114 -43 211t-119 164l-598 -778q123 -90 283 -90z" />
    <glyph glyph-name="ugrave" unicode="&#xf9;" horiz-adv-x="1191" 
d="M692 1298h-69l-261 355h87zM1010 0h-826v1044h66v-983h694v983h66v-1044z" />
    <glyph glyph-name="uacute" unicode="&#xfa;" horiz-adv-x="1191" 
d="M510 1298l244 355h86l-260 -355h-70zM1010 0h-826v1044h66v-983h694v983h66v-1044z" />
    <glyph glyph-name="ucircumflex" unicode="&#xfb;" horiz-adv-x="1191" 
d="M293 1298l260 355h94l260 -355h-69l-238 308l-238 -308h-69zM1010 0h-826v1044h66v-983h694v983h66v-1044z" />
    <glyph glyph-name="udieresis" unicode="&#xfc;" horiz-adv-x="1191" 
d="M365 1286q-22 0 -37 15t-15 38q0 22 15 37t37 15q23 0 38 -15t15 -37q0 -23 -15 -38t-38 -15zM838 1286q-22 0 -38 15t-16 38q0 22 16 37t38 15t36.5 -15t14.5 -37q0 -23 -14.5 -38t-36.5 -15zM1010 0h-826v1044h66v-983h694v983h66v-1044z" />
    <glyph glyph-name="yacute" unicode="&#xfd;" horiz-adv-x="1077" 
d="M455 1298l243 355h86l-260 -355h-69zM414 -471h-244v61h203l168 414h-29l-477 1040h69l449 -981h10l398 981h67z" />
    <glyph glyph-name="thorn" unicode="&#xfe;" horiz-adv-x="1366" 
d="M1272 522q0 -155 -70.5 -282.5t-195 -200t-277.5 -72.5q-173 0 -307.5 94t-173.5 252h-4q6 -59 6 -127v-657h-66v2007h66v-678q0 -66 -6 -131h4q42 159 176.5 254.5t308.5 95.5q230 0 384.5 -159.5t154.5 -395.5zM727 29q204 0 341.5 141t137.5 352t-137.5 352.5
t-341.5 141.5q-209 0 -345 -141t-136 -353t135.5 -352.5t345.5 -140.5z" />
    <glyph glyph-name="ydieresis" unicode="&#xff;" horiz-adv-x="1077" 
d="M309 1286q-22 0 -36.5 15t-14.5 38q0 22 14.5 37t36.5 15q23 0 38 -15t15 -37q0 -23 -15 -38t-38 -15zM782 1286q-22 0 -37.5 15t-15.5 38q0 22 15.5 37t37.5 15t37 -15t15 -37q0 -23 -15 -38t-37 -15zM414 -471h-244v61h203l168 414h-29l-477 1040h69l449 -981h10
l398 981h67z" />
    <glyph glyph-name="Amacron" unicode="&#x100;" horiz-adv-x="1327" 
d="M375 1653v59h579v-59h-579zM51 0l565 1536h93l565 -1536h-70l-178 489h-727l-180 -489h-68zM659 1470l-337 -919h682l-336 919h-9z" />
    <glyph glyph-name="amacron" unicode="&#x101;" horiz-adv-x="1060" 
d="M207 1298v60h579v-60h-579zM94 281q0 142 104 226.5t279 84.5q132 0 224 -46.5t126 -129.5h9q-7 119 -7 250q0 163 -88.5 256.5t-246.5 93.5q-206 0 -330 -148l-39 43q132 166 375 166q184 0 289.5 -109t105.5 -298v-670h-66v74q0 29 7 80h-9q-29 -84 -124.5 -134.5
t-225.5 -50.5q-175 0 -279 85t-104 227zM487 31q154 0 247 68t93 184q0 115 -93 182t-247 67q-151 0 -238 -67t-87 -182q0 -117 87 -184.5t238 -67.5z" />
    <glyph glyph-name="Abreve" unicode="&#x102;" horiz-adv-x="1327" 
d="M340 1917h61q0 -106 69.5 -167.5t193.5 -61.5q122 0 191 61.5t69 167.5h61q0 -131 -85 -208t-236 -77q-154 0 -239 77t-85 208zM51 0l565 1536h93l565 -1536h-70l-178 489h-727l-180 -489h-68zM659 1470l-337 -919h682l-336 919h-9z" />
    <glyph glyph-name="abreve" unicode="&#x103;" horiz-adv-x="1060" 
d="M172 1624h59q0 -135 70 -213t195 -78q123 0 192.5 78t69.5 213h59q0 -159 -85.5 -253.5t-235.5 -94.5q-154 0 -239 94t-85 254zM94 281q0 142 104 226.5t279 84.5q132 0 224 -46.5t126 -129.5h9q-7 119 -7 250q0 163 -88.5 256.5t-246.5 93.5q-206 0 -330 -148l-39 43
q132 166 375 166q184 0 289.5 -109t105.5 -298v-670h-66v74q0 29 7 80h-9q-29 -84 -124.5 -134.5t-225.5 -50.5q-175 0 -279 85t-104 227zM487 31q154 0 247 68t93 184q0 115 -93 182t-247 67q-151 0 -238 -67t-87 -182q0 -117 87 -184.5t238 -67.5z" />
    <glyph glyph-name="Aogonek" unicode="&#x104;" horiz-adv-x="1327" 
d="M51 0l565 1536h93l565 -1536h-6q-98 0 -174 -66t-76 -159q0 -73 43 -116.5t108 -43.5q103 0 177 82l30 -43q-92 -96 -213 -96q-90 0 -146 56.5t-56 152.5q0 91 65.5 163t167.5 97l-168 462h-727l-180 -489h-68zM659 1470l-337 -919h682l-336 919h-9z" />
    <glyph glyph-name="aogonek" unicode="&#x105;" horiz-adv-x="1060" 
d="M94 281q0 142 104 226.5t279 84.5q132 0 224 -46.5t126 -129.5h9q-7 119 -7 250q0 163 -88.5 256.5t-246.5 93.5q-206 0 -330 -148l-39 43q132 166 375 166q184 0 289.5 -109t105.5 -298v-670q-98 0 -174 -66t-76 -159q0 -73 43.5 -116.5t108.5 -43.5q102 0 176 82
l31 -43q-92 -96 -213 -96q-90 0 -146.5 56.5t-56.5 152.5q0 94 67.5 166t173.5 96v45q0 29 7 80h-9q-29 -84 -124.5 -134.5t-225.5 -50.5q-175 0 -279 85t-104 227zM487 31q154 0 247 68t93 184q0 115 -93 182t-247 67q-151 0 -238 -67t-87 -182q0 -117 87 -184.5t238 -67.5
z" />
    <glyph glyph-name="Cacute" unicode="&#x106;" horiz-adv-x="1550" 
d="M788 1686l244 292h90l-262 -292h-72zM1495 1262l-49 -39q-96 132 -243.5 208t-321.5 76q-198 0 -362 -97t-258.5 -266.5t-94.5 -375.5t94.5 -375.5t258.5 -266.5t362 -97q171 0 317.5 75t243.5 205l45 -39q-102 -141 -260 -222t-346 -81q-164 0 -309.5 62t-249 168.5
t-164 255t-60.5 315.5q0 223 103.5 407t283 289t396.5 105q189 0 349 -82t265 -225z" />
    <glyph glyph-name="cacute" unicode="&#x107;" 
d="M563 1298l244 355h86l-260 -355h-70zM1073 854l-43 -41q-66 95 -167.5 149t-223.5 54q-204 0 -341.5 -141.5t-137.5 -352.5t137.5 -352t341.5 -141q128 0 232 59.5t173 161.5l41 -41q-74 -112 -190.5 -177t-255.5 -65q-153 0 -278 73t-196 200.5t-71 281.5q0 235 157 395
t388 160q132 0 245.5 -59.5t188.5 -163.5z" />
    <glyph glyph-name="Ccircumflex" unicode="&#x108;" horiz-adv-x="1550" 
d="M571 1686l260 292h97l260 -292h-70l-237 253l-238 -253h-72zM1495 1262l-49 -39q-96 132 -243.5 208t-321.5 76q-198 0 -362 -97t-258.5 -266.5t-94.5 -375.5t94.5 -375.5t258.5 -266.5t362 -97q171 0 317.5 75t243.5 205l45 -39q-102 -141 -260 -222t-346 -81
q-164 0 -309.5 62t-249 168.5t-164 255t-60.5 315.5q0 223 103.5 407t283 289t396.5 105q189 0 349 -82t265 -225z" />
    <glyph glyph-name="ccircumflex" unicode="&#x109;" 
d="M346 1298l260 355h94l261 -355h-70l-238 308l-237 -308h-70zM1073 854l-43 -41q-66 95 -167.5 149t-223.5 54q-204 0 -341.5 -141.5t-137.5 -352.5t137.5 -352t341.5 -141q128 0 232 59.5t173 161.5l41 -41q-74 -112 -190.5 -177t-255.5 -65q-153 0 -278 73t-196 200.5
t-71 281.5q0 235 157 395t388 160q132 0 245.5 -59.5t188.5 -163.5z" />
    <glyph glyph-name="Cdotaccent" unicode="&#x10a;" horiz-adv-x="1550" 
d="M881 1669q-25 0 -42.5 16.5t-17.5 40.5q0 25 17.5 41.5t42.5 16.5q23 0 40 -17t17 -41t-16.5 -40.5t-40.5 -16.5zM1495 1262l-49 -39q-96 132 -243.5 208t-321.5 76q-198 0 -362 -97t-258.5 -266.5t-94.5 -375.5t94.5 -375.5t258.5 -266.5t362 -97q171 0 317.5 75
t243.5 205l45 -39q-102 -141 -260 -222t-346 -81q-164 0 -309.5 62t-249 168.5t-164 255t-60.5 315.5q0 223 103.5 407t283 289t396.5 105q189 0 349 -82t265 -225z" />
    <glyph glyph-name="cdotaccent" unicode="&#x10b;" 
d="M655 1280q-25 0 -42 17t-17 42t17 41.5t42 16.5q24 0 41 -17t17 -41q0 -25 -17.5 -42t-40.5 -17zM1073 854l-43 -41q-66 95 -167.5 149t-223.5 54q-204 0 -341.5 -141.5t-137.5 -352.5t137.5 -352t341.5 -141q128 0 232 59.5t173 161.5l41 -41q-74 -112 -190.5 -177
t-255.5 -65q-153 0 -278 73t-196 200.5t-71 281.5q0 235 157 395t388 160q132 0 245.5 -59.5t188.5 -163.5z" />
    <glyph glyph-name="Ccaron" unicode="&#x10c;" horiz-adv-x="1550" 
d="M573 1978h70l238 -254l237 254h72l-260 -292h-96zM1495 1262l-49 -39q-96 132 -243.5 208t-321.5 76q-198 0 -362 -97t-258.5 -266.5t-94.5 -375.5t94.5 -375.5t258.5 -266.5t362 -97q171 0 317.5 75t243.5 205l45 -39q-102 -141 -260 -222t-346 -81q-164 0 -309.5 62
t-249 168.5t-164 255t-60.5 315.5q0 223 103.5 407t283 289t396.5 105q189 0 349 -82t265 -225z" />
    <glyph glyph-name="ccaron" unicode="&#x10d;" 
d="M348 1653h68l237 -307l238 307h70l-261 -355h-92zM1073 854l-43 -41q-66 95 -167.5 149t-223.5 54q-204 0 -341.5 -141.5t-137.5 -352.5t137.5 -352t341.5 -141q128 0 232 59.5t173 161.5l41 -41q-74 -112 -190.5 -177t-255.5 -65q-153 0 -278 73t-196 200.5t-71 281.5
q0 235 157 395t388 160q132 0 245.5 -59.5t188.5 -163.5z" />
    <glyph glyph-name="Dcaron" unicode="&#x10e;" horiz-adv-x="1572" 
d="M416 1946h69l238 -254l238 254h71l-260 -293h-96zM684 0h-479v1536h479q361 0 572.5 -206t211.5 -560q0 -357 -211 -563.5t-573 -206.5zM684 61q331 0 524 190.5t193 518.5t-193 516.5t-524 188.5h-414v-1414h414z" />
    <glyph glyph-name="dcaron" unicode="&#x10f;" horiz-adv-x="1411" 
d="M94 522q0 156 70 283t194.5 199.5t278.5 72.5q170 0 305.5 -93.5t177.5 -252.5h4q-6 61 -6 131v674h66v-1536h-64v195q0 65 6 127h-4q-42 -165 -177 -260t-308 -95q-154 0 -278.5 72.5t-194.5 199.5t-70 283zM1528 1536l-78 -387h-51l57 387h72zM641 29q209 0 344 140.5
t135 352.5t-135 353t-344 141q-204 0 -341.5 -141.5t-137.5 -352.5t137.5 -352t341.5 -141z" />
    <glyph glyph-name="Dcroat" unicode="&#x110;" horiz-adv-x="1593" 
d="M705 0h-480v723h-196v59h196v754h480q361 0 572.5 -206t211.5 -560q0 -357 -211 -563.5t-573 -206.5zM705 61q330 0 523 190.5t193 518.5t-192.5 516.5t-523.5 188.5h-414v-693h567v-59h-567v-662h414z" />
    <glyph glyph-name="dcroat" unicode="&#x111;" horiz-adv-x="1366" 
d="M94 522q0 156 70 283t194.5 199.5t278.5 72.5q170 0 305.5 -93.5t177.5 -252.5h4q-6 61 -6 131v418h-684v45h684v211h66v-211h196v-45h-196v-1280h-64v195q0 65 6 127h-4q-42 -165 -177 -260t-308 -95q-154 0 -278.5 72.5t-194.5 199.5t-70 283zM641 29q209 0 344 140.5
t135 352.5t-135 353t-344 141q-204 0 -341.5 -141.5t-137.5 -352.5t137.5 -352t341.5 -141z" />
    <glyph glyph-name="Emacron" unicode="&#x112;" 
d="M367 1653v59h579v-59h-579zM205 0v1536h837v-61h-772v-666h731v-59h-731v-689h783v-61h-848z" />
    <glyph glyph-name="emacron" unicode="&#x113;" horiz-adv-x="1232" 
d="M348 1298v60h580v-60h-580zM1069 182q-76 -102 -187.5 -158.5t-242.5 -56.5q-231 0 -388 160t-157 395q0 154 71 281.5t196 200.5t276 73q112 0 208.5 -43t163.5 -117t105.5 -176.5t38.5 -218.5q0 -25 -2 -33h-991q12 -200 147 -330t332 -130q120 0 220 50.5t169 141.5z
M637 1016q-198 0 -333 -132t-144 -335h927q-6 202 -131.5 334.5t-318.5 132.5z" />
    <glyph glyph-name="Ebreve" unicode="&#x114;" 
d="M332 1917h61q0 -106 69 -167.5t193 -61.5q122 0 191 61.5t69 167.5h62q0 -130 -85.5 -207.5t-236.5 -77.5q-154 0 -238.5 77t-84.5 208zM205 0v1536h837v-61h-772v-666h731v-59h-731v-689h783v-61h-848z" />
    <glyph glyph-name="ebreve" unicode="&#x115;" horiz-adv-x="1232" 
d="M313 1624h60q0 -135 69.5 -213t194.5 -78q123 0 192.5 78t69.5 213h59q0 -159 -85.5 -253.5t-235.5 -94.5q-154 0 -239 94t-85 254zM1069 182q-76 -102 -187.5 -158.5t-242.5 -56.5q-231 0 -388 160t-157 395q0 154 71 281.5t196 200.5t276 73q112 0 208.5 -43
t163.5 -117t105.5 -176.5t38.5 -218.5q0 -25 -2 -33h-991q12 -200 147 -330t332 -130q120 0 220 50.5t169 141.5zM637 1016q-198 0 -333 -132t-144 -335h927q-6 202 -131.5 334.5t-318.5 132.5z" />
    <glyph glyph-name="Edotaccent" unicode="&#x116;" 
d="M655 1636q-25 0 -42 16.5t-17 41.5t17 41t42 16q24 0 41 -16.5t17 -40.5t-17 -41t-41 -17zM205 0v1536h837v-61h-772v-666h731v-59h-731v-689h783v-61h-848z" />
    <glyph glyph-name="edotaccent" unicode="&#x117;" horiz-adv-x="1232" 
d="M637 1280q-25 0 -42 17t-17 42t17 41.5t42 16.5q23 0 40 -16.5t17 -41.5t-17 -42t-40 -17zM1069 182q-76 -102 -187.5 -158.5t-242.5 -56.5q-231 0 -388 160t-157 395q0 154 71 281.5t196 200.5t276 73q112 0 208.5 -43t163.5 -117t105.5 -176.5t38.5 -218.5
q0 -25 -2 -33h-991q12 -200 147 -330t332 -130q120 0 220 50.5t169 141.5zM637 1016q-198 0 -333 -132t-144 -335h927q-6 202 -131.5 334.5t-318.5 132.5z" />
    <glyph glyph-name="Eogonek" unicode="&#x118;" 
d="M205 0v1536h837v-61h-772v-666h731v-59h-731v-689h783v-61h-111q-98 0 -174 -66t-76 -159q0 -73 43.5 -116.5t108.5 -43.5q102 0 176 82l31 -43q-92 -96 -213 -96q-90 0 -146.5 56.5t-56.5 152.5q0 72 43 134.5t115 98.5h-588z" />
    <glyph glyph-name="eogonek" unicode="&#x119;" horiz-adv-x="1232" 
d="M1081 -340q-86 -102 -223 -102q-99 0 -161 57.5t-62 153.5q0 119 115 208q-58 -10 -111 -10q-231 0 -388 160t-157 395q0 154 71 281.5t196 200.5t276 73q112 0 208.5 -43t163.5 -117t105.5 -176.5t38.5 -218.5q0 -25 -2 -33h-991q12 -200 147 -330t332 -130
q120 0 220 50.5t169 141.5l41 -39q-84 -110 -205 -166q-87 -55 -129.5 -112.5t-42.5 -126.5q0 -74 48.5 -118t121.5 -44q113 0 189 88zM637 1016q-198 0 -333 -132t-144 -335h927q-6 202 -131.5 334.5t-318.5 132.5z" />
    <glyph glyph-name="Ecaron" unicode="&#x11a;" 
d="M346 1946h70l237 -254l238 254h72l-261 -293h-96zM205 0v1536h837v-61h-772v-666h731v-59h-731v-689h783v-61h-848z" />
    <glyph glyph-name="ecaron" unicode="&#x11b;" horiz-adv-x="1232" 
d="M330 1653h67l238 -307l237 307h70l-260 -355h-92zM1069 182q-76 -102 -187.5 -158.5t-242.5 -56.5q-231 0 -388 160t-157 395q0 154 71 281.5t196 200.5t276 73q112 0 208.5 -43t163.5 -117t105.5 -176.5t38.5 -218.5q0 -25 -2 -33h-991q12 -200 147 -330t332 -130
q120 0 220 50.5t169 141.5zM637 1016q-198 0 -333 -132t-144 -335h927q-6 202 -131.5 334.5t-318.5 132.5z" />
    <glyph glyph-name="Gcircumflex" unicode="&#x11c;" horiz-adv-x="1693" 
d="M563 1686l260 292h97l260 -292h-70l-238 253l-237 -253h-72zM803 672v61h817v-26q-2 -334 -204.5 -537t-536.5 -203q-223 0 -402 105.5t-278 288.5t-99 407q0 167 59.5 315.5t162 255t246.5 168.5t306 62q193 0 354.5 -82t266.5 -227l-45 -39q-98 134 -248.5 210
t-327.5 76q-148 0 -279 -57t-224.5 -155.5t-148 -235.5t-54.5 -291q0 -155 53.5 -291.5t146.5 -235t225.5 -155.5t285.5 -57q296 0 478.5 175.5t194.5 467.5h-749z" />
    <glyph glyph-name="gcircumflex" unicode="&#x11d;" horiz-adv-x="1343" 
d="M332 1298l260 355h94l260 -355h-69l-238 308l-238 -308h-69zM94 535q0 152 69 276.5t190.5 195t269.5 70.5q174 0 306.5 -94t168.5 -250h6q-6 61 -6 127v184h61v-1515h-790v61h725v623q0 67 6 129h-4q-36 -159 -167.5 -253.5t-305.5 -94.5q-224 0 -376.5 155.5
t-152.5 385.5zM629 1016q-200 0 -334.5 -137.5t-134.5 -341.5q0 -205 134.5 -343.5t334.5 -138.5q203 0 336 138t133 344q0 205 -133 342t-336 137z" />
    <glyph glyph-name="Gbreve" unicode="&#x11e;" horiz-adv-x="1693" 
d="M551 1950h61q0 -107 69 -168.5t193 -61.5q122 0 191.5 62t69.5 168h61q0 -130 -85.5 -207.5t-236.5 -77.5q-154 0 -238.5 77t-84.5 208zM803 672v61h817v-26q-2 -334 -204.5 -537t-536.5 -203q-223 0 -402 105.5t-278 288.5t-99 407q0 167 59.5 315.5t162 255
t246.5 168.5t306 62q193 0 354.5 -82t266.5 -227l-45 -39q-98 134 -248.5 210t-327.5 76q-148 0 -279 -57t-224.5 -155.5t-148 -235.5t-54.5 -291q0 -155 53.5 -291.5t146.5 -235t225.5 -155.5t285.5 -57q296 0 478.5 175.5t194.5 467.5h-749z" />
    <glyph glyph-name="gbreve" unicode="&#x11f;" horiz-adv-x="1343" 
d="M317 1624h60q0 -135 69.5 -213t194.5 -78q123 0 192.5 78t69.5 213h60q0 -159 -85.5 -253.5t-236.5 -94.5q-154 0 -239 94t-85 254zM94 535q0 152 69 276.5t190.5 195t269.5 70.5q174 0 306.5 -94t168.5 -250h6q-6 61 -6 127v184h61v-1515h-790v61h725v623q0 67 6 129h-4
q-36 -159 -167.5 -253.5t-305.5 -94.5q-224 0 -376.5 155.5t-152.5 385.5zM629 1016q-200 0 -334.5 -137.5t-134.5 -341.5q0 -205 134.5 -343.5t334.5 -138.5q203 0 336 138t133 344q0 205 -133 342t-336 137z" />
    <glyph glyph-name="Gdotaccent" unicode="&#x120;" horiz-adv-x="1693" 
d="M874 1669q-25 0 -42 16t-17 41t17 41.5t42 16.5q24 0 41 -17t17 -41t-17 -40.5t-41 -16.5zM803 672v61h817v-26q-2 -334 -204.5 -537t-536.5 -203q-223 0 -402 105.5t-278 288.5t-99 407q0 167 59.5 315.5t162 255t246.5 168.5t306 62q193 0 354.5 -82t266.5 -227
l-45 -39q-98 134 -248.5 210t-327.5 76q-148 0 -279 -57t-224.5 -155.5t-148 -235.5t-54.5 -291q0 -155 53.5 -291.5t146.5 -235t225.5 -155.5t285.5 -57q296 0 478.5 175.5t194.5 467.5h-749z" />
    <glyph glyph-name="gdotaccent" unicode="&#x121;" horiz-adv-x="1343" 
d="M641 1280q-25 0 -42 17t-17 42t17 41.5t42 16.5q23 0 40 -16.5t17 -41.5t-17 -42t-40 -17zM94 535q0 152 69 276.5t190.5 195t269.5 70.5q174 0 306.5 -94t168.5 -250h6q-6 61 -6 127v184h61v-1515h-790v61h725v623q0 67 6 129h-4q-36 -159 -167.5 -253.5t-305.5 -94.5
q-224 0 -376.5 155.5t-152.5 385.5zM629 1016q-200 0 -334.5 -137.5t-134.5 -341.5q0 -205 134.5 -343.5t334.5 -138.5q203 0 336 138t133 344q0 205 -133 342t-336 137z" />
    <glyph glyph-name="Gcommaaccent" unicode="&#x122;" horiz-adv-x="1693" 
d="M803 672v61h817v-26q-2 -334 -204.5 -537t-536.5 -203q-223 0 -402 105.5t-278 288.5t-99 407q0 167 59.5 315.5t162 255t246.5 168.5t306 62q193 0 354.5 -82t266.5 -227l-45 -39q-98 134 -248.5 210t-327.5 76q-148 0 -279 -57t-224.5 -155.5t-148 -235.5t-54.5 -291
q0 -155 53.5 -291.5t146.5 -235t225.5 -155.5t285.5 -57q296 0 478.5 175.5t194.5 467.5h-749zM928 -186q0 -45 -37 -140l-57 -151l-37 12l55 154q9 27 22 80q-22 3 -36.5 17.5t-14.5 35.5q0 22 14 35.5t37 13.5q24 0 39 -15t15 -42z" />
    <glyph glyph-name="gcommaaccent" unicode="&#x123;" horiz-adv-x="1343" 
d="M594 1325q0 44 37 139l57 152l37 -12l-55 -154q-13 -36 -23 -80q22 -3 36.5 -17.5t14.5 -35.5q0 -22 -14 -35.5t-37 -13.5q-24 0 -38.5 15t-14.5 42zM94 535q0 152 69 276.5t190.5 195t269.5 70.5q174 0 306.5 -94t168.5 -250h6q-6 61 -6 127v184h61v-1515h-790v61h725
v623q0 67 6 129h-4q-36 -159 -167.5 -253.5t-305.5 -94.5q-224 0 -376.5 155.5t-152.5 385.5zM629 1016q-200 0 -334.5 -137.5t-134.5 -341.5q0 -205 134.5 -343.5t334.5 -138.5q203 0 336 138t133 344q0 205 -133 342t-336 137z" />
    <glyph glyph-name="Hcircumflex" unicode="&#x124;" horiz-adv-x="1480" 
d="M430 1653l260 293h96l261 -293h-70l-238 254l-237 -254h-72zM205 0v1536h65v-735h940v735h68v-1536h-68v739h-940v-739h-65z" />
    <glyph glyph-name="hcircumflex" unicode="&#x125;" horiz-adv-x="1204" 
d="M-90 1688l260 354h94l260 -354h-69l-238 307l-237 -307h-70zM250 0h-66v1536h66v-492h770v-1044h-66v983h-704v-983z" />
    <glyph glyph-name="Hbar" unicode="&#x126;" horiz-adv-x="1507" 
d="M219 0v1194h-199v45h199v297h66v-297h940v297h67v-297h195v-45h-195v-1194h-67v739h-940v-739h-66zM285 801h940v393h-940v-393z" />
    <glyph glyph-name="hbar" unicode="&#x127;" horiz-adv-x="1204" 
d="M250 0h-66v1280h-198v45h198v211h66v-211h682v-45h-682v-236h770v-1044h-66v983h-704v-983z" />
    <glyph glyph-name="Itilde" unicode="&#x128;" horiz-adv-x="903" 
d="M788 1903q10 -135 -33.5 -202t-119.5 -67q-82 0 -158 76l-94 86q-25 24 -37.5 34t-36 21t-49.5 11q-57 0 -84 -56t-18 -153h-56q-11 134 34 201t124 67q33 0 61.5 -10.5t45.5 -23t43 -36.5l96 -90q71 -67 129 -67q52 0 78 56t18 153h57zM39 0v61h379v1414h-361v61h787
v-61h-359v-1414h377v-61h-823z" />
    <glyph glyph-name="itilde" unicode="&#x129;" horiz-adv-x="432" 
d="M551 1559q10 -141 -34 -211t-120 -70q-77 0 -155 78l-97 92q-1 1 -11 10.5t-12.5 11.5t-11.5 10t-12.5 10t-12 8t-14.5 8t-14.5 5t-16.5 4t-17 1q-58 0 -86 -58.5t-19 -161.5h-53q-11 140 34 210.5t124 70.5q46 0 77.5 -18t69.5 -56l96 -94q74 -70 131 -70
q54 0 81.5 59.5t19.5 160.5h53zM250 0h-66v1044h66v-1044z" />
    <glyph glyph-name="Imacron" unicode="&#x12a;" horiz-adv-x="903" 
d="M164 1653v59h579v-59h-579zM39 0v61h379v1414h-361v61h787v-61h-359v-1414h377v-61h-823z" />
    <glyph glyph-name="imacron" unicode="&#x12b;" horiz-adv-x="432" 
d="M-72 1298v60h580v-60h-580zM250 0h-66v1044h66v-1044z" />
    <glyph glyph-name="Ibreve" unicode="&#x12c;" horiz-adv-x="903" 
d="M131 1917h62q0 -106 69 -167.5t193 -61.5q122 0 191 61.5t69 167.5h61q0 -131 -85 -208t-236 -77q-154 0 -239 77t-85 208zM39 0v61h379v1414h-361v61h787v-61h-359v-1414h377v-61h-823z" />
    <glyph glyph-name="ibreve" unicode="&#x12d;" horiz-adv-x="432" 
d="M-106 1624h59q0 -135 69.5 -213t194.5 -78q123 0 192.5 78t69.5 213h60q0 -159 -85.5 -253.5t-236.5 -94.5q-154 0 -238.5 94t-84.5 254zM250 0h-66v1044h66v-1044z" />
    <glyph glyph-name="Iogonek" unicode="&#x12e;" horiz-adv-x="903" 
d="M39 0v61h379v1414h-361v61h787v-61h-359v-1414h377v-61h-96q-98 0 -174 -66t-76 -159q0 -73 43.5 -116.5t108.5 -43.5q102 0 176 82l30 -43q-92 -96 -212 -96q-90 0 -146.5 56.5t-56.5 152.5q0 73 42.5 135t114.5 98h-577z" />
    <glyph glyph-name="iogonek" unicode="&#x12f;" horiz-adv-x="432" 
d="M217 1288q-23 0 -37 14.5t-14 36.5t14 36t37 14q22 0 36.5 -14t14.5 -36t-14.5 -36.5t-36.5 -14.5zM250 0q-98 0 -174 -66t-76 -159q0 -73 43.5 -116.5t108.5 -43.5q102 0 176 82l30 -43q-92 -96 -213 -96q-90 0 -146 56.5t-56 152.5q0 94 67.5 166t173.5 96v1015h66
v-1044z" />
    <glyph glyph-name="Idotaccent" unicode="&#x130;" horiz-adv-x="903" 
d="M455 1636q-25 0 -42.5 16.5t-17.5 41.5q0 24 17.5 40.5t42.5 16.5q24 0 40.5 -16.5t16.5 -40.5t-17 -41t-40 -17zM39 0v61h379v1414h-361v61h787v-61h-359v-1414h377v-61h-823z" />
    <glyph glyph-name="dotlessi" unicode="&#x131;" horiz-adv-x="432" 
d="M250 0h-66v1044h66v-1044z" />
    <glyph glyph-name="IJ" unicode="&#x132;" horiz-adv-x="1417" 
d="M254 815h-66v721h66v-721zM1231 1536v-1034q0 -236 -146.5 -385.5t-375.5 -149.5q-228 0 -374.5 149.5t-146.5 383.5v49h66v-51q0 -208 127.5 -338.5t327.5 -130.5t327 130t127 339v1038h68z" />
    <glyph glyph-name="ij" unicode="&#x133;" horiz-adv-x="909" 
d="M217 1288q-23 0 -37 14.5t-14 36.5t14 36t37 14q22 0 36.5 -14t14.5 -36t-14.5 -36.5t-36.5 -14.5zM694 1288q-23 0 -37 14.5t-14 36.5t14 36t37 14q22 0 36.5 -14t14.5 -36t-14.5 -36.5t-36.5 -14.5zM250 0h-66v1044h66v-1044zM727 -471h-383v61h318v1454h65v-1515z" />
    <glyph glyph-name="Jcircumflex" unicode="&#x134;" horiz-adv-x="1185" 
d="M219 1653l260 293h96l261 -293h-70l-238 254l-237 -254h-72zM29 254l55 31q53 -120 159 -188t244 -68q198 0 321.5 127.5t123.5 332.5v986h-797v61h864v-1042q0 -234 -143 -380.5t-369 -146.5q-157 0 -277 76t-181 211z" />
    <glyph glyph-name="jcircumflex" unicode="&#x135;" horiz-adv-x="448" 
d="M-76 1298l260 355h95l260 -355h-70l-238 308l-237 -308h-70zM266 -471h-383v61h318v1454h65v-1515z" />
    <glyph glyph-name="Kcommaaccent" unicode="&#x136;" horiz-adv-x="1159" 
d="M1141 1536l-600 -780l604 -756h-82l-580 725h-213v-725h-65v1536h65v-752h215l578 752h78zM655 -129q0 -44 -37 -139l-57 -152l-37 12l56 154q9 27 22 80q-22 3 -36.5 17.5t-14.5 35.5q0 22 14 35.5t37 13.5q24 0 38.5 -15t14.5 -42z" />
    <glyph glyph-name="kcommaaccent" unicode="&#x137;" horiz-adv-x="1003" 
d="M887 0l-395 498h-242v-498h-66v1536h66v-979h244l385 487h82l-412 -516l422 -528h-84zM567 -129q0 -44 -37 -139l-57 -152l-37 12l56 154q9 27 22 80q-22 3 -36.5 17.5t-14.5 35.5q0 22 14 35.5t37 13.5q24 0 38.5 -15t14.5 -42z" />
    <glyph glyph-name="kra" unicode="&#x138;" horiz-adv-x="1003" 
d="M961 1044l-412 -516l422 -528h-84l-395 498h-242v-498h-66v1044h66v-487h244l385 487h82z" />
    <glyph glyph-name="Lacute" unicode="&#x139;" horiz-adv-x="1040" 
d="M145 1653l244 293h90l-262 -293h-72zM205 0v1536h65v-1475h750v-61h-815z" />
    <glyph glyph-name="lacute" unicode="&#x13a;" horiz-adv-x="622" 
d="M129 1688l244 354h86l-260 -354h-70zM184 0v1536h66v-1475h366v-61h-432z" />
    <glyph glyph-name="Lcommaaccent" unicode="&#x13b;" horiz-adv-x="1040" 
d="M205 0v1536h65v-1475h750v-61h-815zM674 -129q0 -44 -37 -139l-57 -152l-37 12l55 154q12 36 23 80q-22 3 -37 17.5t-15 35.5q0 22 14.5 35.5t37.5 13.5q24 0 38.5 -15t14.5 -42z" />
    <glyph glyph-name="lcommaaccent" unicode="&#x13c;" horiz-adv-x="622" 
d="M184 0v1536h66v-1475h366v-61h-432zM453 -129q0 -44 -37 -139l-58 -152l-36 12l55 154q9 27 22 80q-22 3 -36.5 17.5t-14.5 35.5q0 22 14 35.5t37 13.5q24 0 39 -15t15 -42z" />
    <glyph glyph-name="Lcaron" unicode="&#x13d;" horiz-adv-x="1048" 
d="M205 0v1536h65v-1475h750v-61h-815zM973 1536l-78 -387h-51l57 387h72z" />
    <glyph glyph-name="lcaron" unicode="&#x13e;" horiz-adv-x="622" 
d="M184 0v1536h66v-1475h366v-61h-432zM614 1536l-77 -387h-52l58 387h71z" />
    <glyph glyph-name="Ldot" unicode="&#x13f;" horiz-adv-x="1046" 
d="M205 0v1536h65v-1475h750v-61h-815zM774 745q-25 0 -42 17.5t-17 42.5t17 41t42 16q24 0 40.5 -16.5t16.5 -40.5q0 -25 -17 -42.5t-40 -17.5z" />
    <glyph glyph-name="ldot" unicode="&#x140;" horiz-adv-x="679" 
d="M184 0v1536h66v-1475h366v-61h-432zM555 743q-25 0 -42 17.5t-17 42.5t17 41t42 16q24 0 40.5 -16.5t16.5 -40.5q0 -25 -17 -42.5t-40 -17.5z" />
    <glyph glyph-name="Lslash" unicode="&#x141;" horiz-adv-x="1069" 
d="M223 0v670l-149 -56l-17 45l166 62v815h66v-793l592 218l16 -46l-608 -223v-631h749v-61h-815z" />
    <glyph glyph-name="lslash" unicode="&#x142;" horiz-adv-x="768" 
d="M258 0v688l-211 -78l-16 43l227 84v799h66v-776l346 127l14 -43l-360 -133v-650h366v-61h-432z" />
    <glyph glyph-name="Nacute" unicode="&#x143;" horiz-adv-x="1521" 
d="M670 1653l243 293h91l-263 -293h-71zM1317 0h-86l-952 1432h-9v-1432h-65v1536h86l952 -1432h8v1432h66v-1536z" />
    <glyph glyph-name="nacute" unicode="&#x144;" horiz-adv-x="1204" 
d="M512 1298l244 355h86l-260 -355h-70zM184 1044h836v-1044h-66v983h-704v-983h-66v1044z" />
    <glyph glyph-name="Ncommaaccent" unicode="&#x145;" horiz-adv-x="1521" 
d="M1317 0h-86l-952 1432h-9v-1432h-65v1536h86l952 -1432h8v1432h66v-1536zM813 -129q0 -44 -37 -139l-57 -152l-37 12l55 154q13 36 23 80q-22 3 -36.5 17.5t-14.5 35.5q0 22 14 35.5t37 13.5q24 0 38.5 -15t14.5 -42z" />
    <glyph glyph-name="ncommaaccent" unicode="&#x146;" horiz-adv-x="1204" 
d="M184 1044h836v-1044h-66v983h-704v-983h-66v1044zM649 -129q0 -44 -37 -139l-57 -152l-37 12l55 154q12 36 23 80q-22 3 -36.5 17.5t-14.5 35.5q0 22 14 35.5t37 13.5q24 0 38.5 -15t14.5 -42z" />
    <glyph glyph-name="Ncaron" unicode="&#x147;" horiz-adv-x="1521" 
d="M455 1946h69l238 -254l237 254h72l-260 -293h-96zM1317 0h-86l-952 1432h-9v-1432h-65v1536h86l952 -1432h8v1432h66v-1536z" />
    <glyph glyph-name="ncaron" unicode="&#x148;" horiz-adv-x="1204" 
d="M297 1653h68l237 -307l238 307h69l-260 -355h-92zM184 1044h836v-1044h-66v983h-704v-983h-66v1044z" />
    <glyph glyph-name="napostrophe" unicode="&#x149;" horiz-adv-x="1282" 
d="M178 1374q0 -44 -37 -139l-57 -152l-37 13l55 153q13 36 23 80q-22 3 -36.5 17.5t-14.5 35.5q0 22 14 36t37 14q24 0 38.5 -15.5t14.5 -42.5zM262 1044h836v-1044h-66v983h-704v-983h-66v1044z" />
    <glyph glyph-name="Eng" unicode="&#x14a;" horiz-adv-x="1521" 
d="M1251 1536h66v-2007h-383v61h317v379l-972 1463h-9v-1432h-65v1536h86l952 -1432h8v1432z" />
    <glyph glyph-name="eng" unicode="&#x14b;" horiz-adv-x="1204" 
d="M184 1044h836v-1515h-381v61h315v1393h-704v-983h-66v1044z" />
    <glyph glyph-name="Omacron" unicode="&#x14c;" horiz-adv-x="1755" 
d="M590 1686v59h579v-59h-579zM877 -33q-164 0 -308.5 62t-247 168.5t-162 255t-59.5 315.5t59.5 315.5t162.5 255t247.5 168.5t307.5 62q164 0 308.5 -62t247.5 -168.5t162.5 -255t59.5 -315.5t-59.5 -315.5t-162.5 -255t-247.5 -168.5t-308.5 -62zM877 29q150 0 282 57
t225.5 155.5t148 235.5t54.5 291t-54.5 291t-148 235.5t-225.5 155.5t-282 57q-198 0 -361 -97t-255.5 -266.5t-92.5 -375.5t92.5 -375.5t255.5 -266.5t361 -97z" />
    <glyph glyph-name="omacron" unicode="&#x14d;" horiz-adv-x="1275" 
d="M350 1298v60h580v-60h-580zM639 -33q-153 0 -278 73t-196 200.5t-71 281.5q0 235 157 395t388 160t388 -160t157 -395t-157 -395t-388 -160zM639 29q204 0 340.5 141t136.5 352t-136.5 352.5t-340.5 141.5t-341.5 -141.5t-137.5 -352.5t137.5 -352t341.5 -141z" />
    <glyph glyph-name="Obreve" unicode="&#x14e;" horiz-adv-x="1755" 
d="M555 1950h61q0 -107 69.5 -168.5t193.5 -61.5q122 0 191 62t69 168h61q0 -131 -85 -208t-236 -77q-154 0 -239 77t-85 208zM877 -33q-164 0 -308.5 62t-247 168.5t-162 255t-59.5 315.5t59.5 315.5t162.5 255t247.5 168.5t307.5 62q164 0 308.5 -62t247.5 -168.5
t162.5 -255t59.5 -315.5t-59.5 -315.5t-162.5 -255t-247.5 -168.5t-308.5 -62zM877 29q150 0 282 57t225.5 155.5t148 235.5t54.5 291t-54.5 291t-148 235.5t-225.5 155.5t-282 57q-198 0 -361 -97t-255.5 -266.5t-92.5 -375.5t92.5 -375.5t255.5 -266.5t361 -97z" />
    <glyph glyph-name="obreve" unicode="&#x14f;" horiz-adv-x="1275" 
d="M315 1624h60q0 -135 69.5 -213t194.5 -78q123 0 192.5 78t69.5 213h60q0 -159 -85.5 -253.5t-236.5 -94.5q-154 0 -239 94t-85 254zM639 -33q-153 0 -278 73t-196 200.5t-71 281.5q0 235 157 395t388 160t388 -160t157 -395t-157 -395t-388 -160zM639 29q204 0 340.5 141
t136.5 352t-136.5 352.5t-340.5 141.5t-341.5 -141.5t-137.5 -352.5t137.5 -352t341.5 -141z" />
    <glyph glyph-name="Ohungarumlaut" unicode="&#x150;" horiz-adv-x="1755" 
d="M653 1686l242 292h78l-258 -292h-62zM979 1686l244 292h77l-258 -292h-63zM877 -33q-164 0 -308.5 62t-247 168.5t-162 255t-59.5 315.5t59.5 315.5t162.5 255t247.5 168.5t307.5 62q164 0 308.5 -62t247.5 -168.5t162.5 -255t59.5 -315.5t-59.5 -315.5t-162.5 -255
t-247.5 -168.5t-308.5 -62zM877 29q150 0 282 57t225.5 155.5t148 235.5t54.5 291t-54.5 291t-148 235.5t-225.5 155.5t-282 57q-198 0 -361 -97t-255.5 -266.5t-92.5 -375.5t92.5 -375.5t255.5 -266.5t361 -97z" />
    <glyph glyph-name="ohungarumlaut" unicode="&#x151;" horiz-adv-x="1275" 
d="M416 1298l243 355h76l-258 -355h-61zM741 1298l244 355h76l-258 -355h-62zM639 -33q-153 0 -278 73t-196 200.5t-71 281.5q0 235 157 395t388 160t388 -160t157 -395t-157 -395t-388 -160zM639 29q204 0 340.5 141t136.5 352t-136.5 352.5t-340.5 141.5t-341.5 -141.5
t-137.5 -352.5t137.5 -352t341.5 -141z" />
    <glyph glyph-name="OE" unicode="&#x152;" horiz-adv-x="2529" 
d="M877 1569q263 0 462 -154t250 -401h10q-12 105 -12 168v354h836v-61h-770v-666h729v-59h-729v-689h780v-61h-846v362q0 33 10 168h-8q-33 -168 -136 -296.5t-253 -197.5t-323 -69q-163 0 -307.5 62t-247.5 168.5t-162.5 255t-59.5 315.5t59.5 315.5t162.5 255
t247.5 168.5t307.5 62zM877 29q150 0 282 57t225.5 155.5t148 235.5t54.5 291t-54.5 291t-148 235.5t-225.5 155.5t-282 57q-198 0 -361 -97t-255.5 -266.5t-92.5 -375.5t92.5 -375.5t255.5 -266.5t361 -97z" />
    <glyph glyph-name="oe" unicode="&#x153;" horiz-adv-x="2244" 
d="M639 -33q-231 0 -388 160t-157 395t157 395t388 160q180 0 317 -106t189 -277q50 171 187.5 277t318.5 106q112 0 208.5 -43t163.5 -117t105.5 -176.5t38.5 -218.5q0 -5 -1 -17t-1 -16h-991q12 -200 146 -330t333 -130q119 0 218.5 50.5t168.5 141.5l43 -39
q-76 -102 -187.5 -158.5t-244.5 -56.5q-181 0 -318.5 106t-187.5 277q-52 -171 -189 -277t-317 -106zM639 29q204 0 341.5 141t137.5 352t-137.5 352.5t-341.5 141.5t-341.5 -141.5t-137.5 -352.5t137.5 -352t341.5 -141zM1651 1016q-199 0 -333.5 -132t-143.5 -335h927
q-6 202 -131.5 334.5t-318.5 132.5z" />
    <glyph glyph-name="Racute" unicode="&#x154;" horiz-adv-x="1296" 
d="M565 1653l244 293h90l-262 -293h-72zM1120 0l-418 670h-432v-670h-65v1536h516q213 0 345 -123t132 -309q0 -172 -116 -293.5t-308 -138.5l426 -672h-80zM713 731q190 0 303.5 108t113.5 265q0 159 -113 265t-304 106h-443v-744h443z" />
    <glyph glyph-name="racute" unicode="&#x155;" horiz-adv-x="641" 
d="M301 1298l244 355h86l-260 -355h-70zM184 1044h434v-61h-368v-983h-66v1044z" />
    <glyph glyph-name="Rcommaaccent" unicode="&#x156;" horiz-adv-x="1296" 
d="M1120 0l-418 670h-432v-670h-65v1536h516q213 0 345 -123t132 -309q0 -172 -116 -293.5t-308 -138.5l426 -672h-80zM713 731q190 0 303.5 108t113.5 265q0 159 -113 265t-304 106h-443v-744h443zM715 -129q0 -44 -37 -139l-57 -152l-37 12l55 154q13 36 23 80
q-22 3 -37 17.5t-15 35.5q0 22 14.5 35.5t37.5 13.5q24 0 38.5 -15t14.5 -42z" />
    <glyph glyph-name="rcommaaccent" unicode="&#x157;" horiz-adv-x="641" 
d="M184 1044h434v-61h-368v-983h-66v1044zM270 -129q0 -44 -37 -139l-57 -152l-37 12l56 154q9 27 22 80q-22 3 -36.5 17.5t-14.5 35.5q0 22 14 35.5t37 13.5q24 0 38.5 -15t14.5 -42z" />
    <glyph glyph-name="Rcaron" unicode="&#x158;" horiz-adv-x="1296" 
d="M348 1946h70l237 -254l238 254h72l-260 -293h-97zM1120 0l-418 670h-432v-670h-65v1536h516q213 0 345 -123t132 -309q0 -172 -116 -293.5t-308 -138.5l426 -672h-80zM713 731q190 0 303.5 108t113.5 265q0 159 -113 265t-304 106h-443v-744h443z" />
    <glyph glyph-name="rcaron" unicode="&#x159;" horiz-adv-x="641" 
d="M86 1653h68l237 -307l238 307h69l-260 -355h-92zM184 1044h434v-61h-368v-983h-66v1044z" />
    <glyph glyph-name="Sacute" unicode="&#x15a;" horiz-adv-x="1112" 
d="M465 1686l244 292h90l-262 -292h-72zM221 1221q0 -113 67.5 -191.5t217.5 -161.5l194 -112q156 -89 228.5 -185t72.5 -213q0 -178 -118.5 -284.5t-321.5 -106.5q-108 0 -195.5 34t-146 94t-92 140t-39.5 175l62 14q6 -112 54.5 -200.5t141.5 -141.5t217 -53q173 0 272 89
t99 240q0 96 -64 180t-204 162l-191 109q-83 47 -137.5 87t-98 89t-63.5 106t-20 128q0 153 108.5 251.5t290.5 98.5q177 0 286.5 -92.5t145.5 -262.5l-61 -16q-31 149 -126.5 229t-246.5 80t-241.5 -79.5t-90.5 -206.5z" />
    <glyph glyph-name="sacute" unicode="&#x15b;" horiz-adv-x="847" 
d="M336 1298l244 355h86l-260 -355h-70zM193 813q0 -75 46 -127.5t140 -91.5l141 -62q230 -99 230 -286q0 -123 -90 -201t-234 -78q-139 0 -236 79t-116 198l55 24q18 -104 100 -172.5t201 -68.5q112 0 183 60t71 159q0 148 -199 233l-141 62q-109 46 -163 111t-54 161
q0 112 83.5 188t213.5 76q124 0 210.5 -68.5t113.5 -177.5l-54 -22q-22 92 -95.5 150.5t-176.5 58.5q-100 0 -164.5 -59t-64.5 -146z" />
    <glyph glyph-name="Scircumflex" unicode="&#x15c;" horiz-adv-x="1112" 
d="M246 1686l260 292h96l260 -292h-69l-238 253l-238 -253h-71zM221 1221q0 -113 67.5 -191.5t217.5 -161.5l194 -112q156 -89 228.5 -185t72.5 -213q0 -178 -118.5 -284.5t-321.5 -106.5q-108 0 -195.5 34t-146 94t-92 140t-39.5 175l62 14q6 -112 54.5 -200.5
t141.5 -141.5t217 -53q173 0 272 89t99 240q0 96 -64 180t-204 162l-191 109q-83 47 -137.5 87t-98 89t-63.5 106t-20 128q0 153 108.5 251.5t290.5 98.5q177 0 286.5 -92.5t145.5 -262.5l-61 -16q-31 149 -126.5 229t-246.5 80t-241.5 -79.5t-90.5 -206.5z" />
    <glyph glyph-name="scircumflex" unicode="&#x15d;" horiz-adv-x="847" 
d="M119 1298l260 355h94l260 -355h-69l-238 308l-238 -308h-69zM193 813q0 -75 46 -127.5t140 -91.5l141 -62q230 -99 230 -286q0 -123 -90 -201t-234 -78q-139 0 -236 79t-116 198l55 24q18 -104 100 -172.5t201 -68.5q112 0 183 60t71 159q0 148 -199 233l-141 62
q-109 46 -163 111t-54 161q0 112 83.5 188t213.5 76q124 0 210.5 -68.5t113.5 -177.5l-54 -22q-22 92 -95.5 150.5t-176.5 58.5q-100 0 -164.5 -59t-64.5 -146z" />
    <glyph glyph-name="Scedilla" unicode="&#x15e;" horiz-adv-x="1112" 
d="M414 -293l-25 37l148 223q-202 7 -319.5 130t-129.5 313l62 14q6 -112 54.5 -200.5t141.5 -141.5t217 -53q173 0 272 89t99 240q0 96 -64 180t-204 162l-191 109q-83 47 -137.5 87t-98 89t-63.5 106t-20 128q0 153 108.5 251.5t290.5 98.5q177 0 286.5 -92.5
t145.5 -262.5l-61 -16q-31 149 -126.5 229t-246.5 80t-241.5 -79.5t-90.5 -206.5q0 -113 67.5 -191.5t217.5 -161.5l194 -112q156 -89 228.5 -185t72.5 -213q0 -170 -108.5 -275.5t-296.5 -115.5l-121 -186q54 14 107 14q59 0 110.5 -18t88 -61t36.5 -103q0 -92 -75 -145.5
t-193 -53.5q-170 0 -250 94l31 41q69 -81 217 -81q97 0 155 38.5t58 106.5q0 48 -32.5 80t-73 43.5t-85.5 11.5q-75 0 -135 -29q-8 -4 -20 -12z" />
    <glyph glyph-name="scedilla" unicode="&#x15f;" horiz-adv-x="847" 
d="M276 -293l-24 37l147 223q-130 9 -218.5 87t-106.5 190l55 24q18 -104 100 -172.5t201 -68.5q112 0 183 60t71 159q0 148 -199 233l-141 62q-109 46 -163 111t-54 161q0 112 83.5 188t213.5 76q124 0 210.5 -68.5t113.5 -177.5l-54 -22q-22 92 -95.5 150.5t-176.5 58.5
q-100 0 -164.5 -59t-64.5 -146q0 -75 46 -127.5t140 -91.5l141 -62q230 -99 230 -286q0 -115 -80 -191.5t-209 -85.5l-123 -188q54 14 106 14q94 0 165 -47t71 -135q0 -92 -75 -145.5t-193 -53.5q-170 0 -250 94l31 41q69 -81 217 -81q97 0 155 38.5t58 106.5q0 48 -32.5 80
t-73 43.5t-85.5 11.5q-75 0 -135 -29q-12 -6 -21 -12z" />
    <glyph glyph-name="Scaron" unicode="&#x160;" horiz-adv-x="1112" 
d="M248 1978h69l238 -254l238 254h71l-260 -292h-96zM221 1221q0 -113 67.5 -191.5t217.5 -161.5l194 -112q156 -89 228.5 -185t72.5 -213q0 -178 -118.5 -284.5t-321.5 -106.5q-108 0 -195.5 34t-146 94t-92 140t-39.5 175l62 14q6 -112 54.5 -200.5t141.5 -141.5t217 -53
q173 0 272 89t99 240q0 96 -64 180t-204 162l-191 109q-83 47 -137.5 87t-98 89t-63.5 106t-20 128q0 153 108.5 251.5t290.5 98.5q177 0 286.5 -92.5t145.5 -262.5l-61 -16q-31 149 -126.5 229t-246.5 80t-241.5 -79.5t-90.5 -206.5z" />
    <glyph glyph-name="scaron" unicode="&#x161;" horiz-adv-x="847" 
d="M121 1653h67l238 -307l238 307h69l-260 -355h-92zM193 813q0 -75 46 -127.5t140 -91.5l141 -62q230 -99 230 -286q0 -123 -90 -201t-234 -78q-139 0 -236 79t-116 198l55 24q18 -104 100 -172.5t201 -68.5q112 0 183 60t71 159q0 148 -199 233l-141 62q-109 46 -163 111
t-54 161q0 112 83.5 188t213.5 76q124 0 210.5 -68.5t113.5 -177.5l-54 -22q-22 92 -95.5 150.5t-176.5 58.5q-100 0 -164.5 -59t-64.5 -146z" />
    <glyph glyph-name="Tcedilla" unicode="&#x162;" horiz-adv-x="1042" 
d="M487 0v1475h-464v61h999v-61h-467v-1475h-68zM571 -129q0 -47 -36 -139l-58 -152l-37 12l56 154q9 27 22 80q-22 3 -36.5 17.5t-14.5 35.5q0 22 14 35.5t37 13.5q24 0 38.5 -15t14.5 -42z" />
    <glyph glyph-name="tcedilla" unicode="&#x163;" horiz-adv-x="718" 
d="M338 -287l-25 37l156 234q-129 22 -199.5 112.5t-70.5 233.5v653h-142v61h142v287h65v-287h434v-61h-434v-645q0 -144 77 -222.5t216 -78.5q69 0 121 24v-61q-58 -23 -129 -23h-25l-125 -190q54 14 107 14q59 0 110.5 -18t88 -61t36.5 -103q0 -92 -75 -145.5t-193 -53.5
q-169 0 -250 95l31 41q70 -82 217 -82q97 0 155 38.5t58 106.5q0 48 -32 80t-72.5 43.5t-85.5 11.5q-78 0 -136 -28q-2 -1 -20 -13z" />
    <glyph glyph-name="Tcaron" unicode="&#x164;" horiz-adv-x="1042" 
d="M213 1946h70l237 -254l238 254h71l-260 -293h-96zM487 0v1475h-464v61h999v-61h-467v-1475h-68z" />
    <glyph glyph-name="tcaron" unicode="&#x165;" horiz-adv-x="718" 
d="M649 1536l-78 -387h-51l58 387h71zM549 -23q-165 0 -257.5 94t-92.5 259v653h-142v61h142v287h65v-287h434v-61h-434v-645q0 -144 77 -222.5t216 -78.5q69 0 121 24v-61q-58 -23 -129 -23z" />
    <glyph glyph-name="Tbar" unicode="&#x166;" horiz-adv-x="1144" 
d="M539 0v741h-394v45h394v689h-465v61h999v-61h-467v-689h395v-45h-395v-741h-67z" />
    <glyph glyph-name="tbar" unicode="&#x167;" horiz-adv-x="741" 
d="M551 -23q-165 0 -257.5 94t-92.5 259v260h-140v45h140v348h-142v61h142v287h65v-287h434v-61h-434v-348h439v-45h-439v-252q0 -144 77 -222.5t216 -78.5q69 0 121 24v-61q-58 -23 -129 -23z" />
    <glyph glyph-name="Utilde" unicode="&#x168;" horiz-adv-x="1452" 
d="M1061 1903q10 -135 -34 -202t-120 -67q-81 0 -157 76l-95 86q-25 24 -37.5 34t-36 21t-49.5 11q-57 0 -84 -56t-18 -153h-55q-11 134 33.5 201t123.5 67q33 0 61.5 -10.5t45.5 -23t43 -36.5l96 -90q71 -67 129 -67q52 0 78.5 56t18.5 153h57zM205 1536h65v-1475h910v1475
h67v-1536h-1042v1536z" />
    <glyph glyph-name="utilde" unicode="&#x169;" horiz-adv-x="1191" 
d="M936 1559q10 -141 -34 -211t-120 -70q-77 0 -155 78l-97 92q-1 1 -11 10.5t-12.5 11.5t-11.5 10t-12.5 10t-12 8t-14.5 8t-14.5 5t-16.5 4t-17 1q-58 0 -86 -58.5t-19 -161.5h-53q-11 140 34 210.5t124 70.5q46 0 77.5 -18t69.5 -56l96 -94q74 -70 131 -70
q54 0 81.5 59.5t19.5 160.5h53zM1010 0h-826v1044h66v-983h694v983h66v-1044z" />
    <glyph glyph-name="Umacron" unicode="&#x16a;" horiz-adv-x="1452" 
d="M438 1653v59h580v-59h-580zM205 1536h65v-1475h910v1475h67v-1536h-1042v1536z" />
    <glyph glyph-name="umacron" unicode="&#x16b;" horiz-adv-x="1191" 
d="M311 1298v60h580v-60h-580zM1010 0h-826v1044h66v-983h694v983h66v-1044z" />
    <glyph glyph-name="Ubreve" unicode="&#x16c;" horiz-adv-x="1452" 
d="M403 1917h62q0 -106 69 -167.5t193 -61.5q122 0 191 61.5t69 167.5h62q0 -130 -85.5 -207.5t-236.5 -77.5q-154 0 -239 77t-85 208zM205 1536h65v-1475h910v1475h67v-1536h-1042v1536z" />
    <glyph glyph-name="ubreve" unicode="&#x16d;" horiz-adv-x="1191" 
d="M279 1624h59q0 -135 69.5 -213t194.5 -78q123 0 192.5 78t69.5 213h60q0 -159 -85.5 -253.5t-236.5 -94.5q-154 0 -238.5 94t-84.5 254zM1010 0h-826v1044h66v-983h694v983h66v-1044z" />
    <glyph glyph-name="Uring" unicode="&#x16e;" horiz-adv-x="1452" 
d="M727 1614q-134 0 -213.5 51t-79.5 135q0 86 79.5 138.5t213.5 52.5q133 0 213 -53t80 -138q0 -84 -80 -135t-213 -51zM727 1665q108 0 173 37.5t65 97.5q0 62 -65.5 102t-172.5 40t-172.5 -40t-65.5 -102q0 -60 65 -97.5t173 -37.5zM205 1536h65v-1475h910v1475h67v-1536
h-1042v1536z" />
    <glyph glyph-name="uring" unicode="&#x16f;" horiz-adv-x="1191" 
d="M602 1260q-131 0 -212 59.5t-81 155.5q0 99 81 161t212 62t212 -62t81 -161q0 -96 -81 -155.5t-212 -59.5zM602 1311q108 0 173 45.5t65 118.5q0 77 -65 124.5t-173 47.5t-172.5 -47.5t-64.5 -124.5q0 -73 64.5 -118.5t172.5 -45.5zM1010 0h-826v1044h66v-983h694v983h66
v-1044z" />
    <glyph glyph-name="Uhungarumlaut" unicode="&#x170;" horiz-adv-x="1452" 
d="M502 1653l241 293h78l-258 -293h-61zM827 1653l244 293h78l-258 -293h-64zM205 1536h65v-1475h910v1475h67v-1536h-1042v1536z" />
    <glyph glyph-name="uhungarumlaut" unicode="&#x171;" horiz-adv-x="1191" 
d="M377 1298l244 355h75l-258 -355h-61zM702 1298l244 355h76l-258 -355h-62zM1010 0h-826v1044h66v-983h694v983h66v-1044z" />
    <glyph glyph-name="Uogonek" unicode="&#x172;" horiz-adv-x="1452" 
d="M1106 0q-98 0 -174 -66t-76 -159q0 -73 43.5 -116.5t108.5 -43.5q102 0 176 82l30 -43q-92 -96 -213 -96q-90 0 -146 56.5t-56 152.5q0 73 42.5 135t114.5 98h-751v1536h65v-1475h910v1475h67v-1536h-141z" />
    <glyph glyph-name="uogonek" unicode="&#x173;" horiz-adv-x="1191" 
d="M883 0q-98 0 -174 -66t-76 -159q0 -73 43 -116.5t108 -43.5q103 0 177 82l30 -43q-92 -96 -213 -96q-90 0 -146.5 56.5t-56.5 152.5q0 72 43 134.5t115 98.5h-549v1044h66v-983h694v983h66v-1044h-127z" />
    <glyph glyph-name="Wcircumflex" unicode="&#x174;" horiz-adv-x="1906" 
d="M637 1653l260 293h96l260 -293h-69l-238 254l-237 -254h-72zM1354 0l-406 1421h-8l-387 -1421h-92l-389 1536h71l361 -1438h8l391 1438h82l410 -1438h8l360 1438h72l-389 -1536h-92z" />
    <glyph glyph-name="wcircumflex" unicode="&#x175;" horiz-adv-x="1603" 
d="M494 1298l260 355h94l260 -355h-70l-237 308l-238 -308h-69zM1546 1044l-313 -1044h-105l-323 983h-8l-324 -983h-100l-318 1044h70l295 -983h8l322 983h104l322 -983h8l295 983h67z" />
    <glyph glyph-name="Ycircumflex" unicode="&#x176;" horiz-adv-x="1265" 
d="M326 1653l260 293h96l260 -293h-70l-237 254l-238 -254h-71zM598 0v602l-535 934h76l490 -860h8l493 860h76l-540 -930v-606h-68z" />
    <glyph glyph-name="ycircumflex" unicode="&#x177;" horiz-adv-x="1077" 
d="M238 1298l260 355h94l260 -355h-70l-237 308l-238 -308h-69zM414 -471h-244v61h203l168 414h-29l-477 1040h69l449 -981h10l398 981h67z" />
    <glyph glyph-name="Ydieresis" unicode="&#x178;" horiz-adv-x="1265" 
d="M399 1640q-22 0 -36.5 15.5t-14.5 38.5q0 22 14.5 36.5t36.5 14.5q23 0 38.5 -14.5t15.5 -36.5q0 -23 -15.5 -38.5t-38.5 -15.5zM872 1640q-22 0 -37.5 15.5t-15.5 38.5q0 22 15.5 36.5t37.5 14.5t37 -14.5t15 -36.5q0 -23 -15 -38.5t-37 -15.5zM598 0v602l-535 934h76
l490 -860h8l493 860h76l-540 -930v-606h-68z" />
    <glyph glyph-name="Zacute" unicode="&#x179;" horiz-adv-x="1001" 
d="M424 1653l244 293h90l-262 -293h-72zM63 1475v61h902l-830 -1475h815v-61h-919l827 1475h-795z" />
    <glyph glyph-name="zacute" unicode="&#x17a;" horiz-adv-x="894" 
d="M358 1298l244 355h86l-260 -355h-70zM76 983v61h776l-694 -983h661v-61h-776l694 983h-661z" />
    <glyph glyph-name="Zdotaccent" unicode="&#x17b;" horiz-adv-x="1001" 
d="M516 1636q-25 0 -42 16.5t-17 41.5t17 41t42 16q24 0 40.5 -16.5t16.5 -40.5t-16.5 -41t-40.5 -17zM63 1475v61h902l-830 -1475h815v-61h-919l827 1475h-795z" />
    <glyph glyph-name="zdotaccent" unicode="&#x17c;" horiz-adv-x="894" 
d="M449 1280q-25 0 -42.5 17t-17.5 42t17.5 41.5t42.5 16.5q23 0 40 -16.5t17 -41.5t-17 -42t-40 -17zM76 983v61h776l-694 -983h661v-61h-776l694 983h-661z" />
    <glyph glyph-name="Zcaron" unicode="&#x17d;" horiz-adv-x="1001" 
d="M209 1946h70l237 -254l238 254h71l-260 -293h-96zM63 1475v61h902l-830 -1475h815v-61h-919l827 1475h-795z" />
    <glyph glyph-name="zcaron" unicode="&#x17e;" horiz-adv-x="894" 
d="M143 1653h68l238 -307l237 307h70l-260 -355h-93zM76 983v61h776l-694 -983h661v-61h-776l694 983h-661z" />
    <glyph glyph-name="Schwa" unicode="&#x18f;" horiz-adv-x="1701" 
d="M829 1507q-178 0 -327 -75.5t-248 -210.5l-47 39q105 145 266 227t356 82q162 0 305.5 -62t246.5 -168.5t163 -255t60 -315.5q0 -224 -99.5 -407t-278 -288.5t-401.5 -105.5q-335 0 -537.5 204.5t-205.5 537.5q0 58 6 88h1446q-7 199 -100.5 361.5t-253 255.5t-351.5 93z
M150 702q3 -303 187 -488t488 -185q148 0 278 54t222 148t147.5 224.5t61.5 279.5h-1384v-33z" />
    <glyph glyph-name="fhook" unicode="&#x192;" horiz-adv-x="843" 
d="M121 702v60h182l29 452q19 334 321 334q75 0 117 -12v-63q-41 14 -111 14q-242 0 -260 -283l-28 -442h311v-60h-315l-76 -1173h-68l76 1173h-178z" />
    <glyph glyph-name="Zstroke" unicode="&#x1b5;" horiz-adv-x="1064" 
d="M115 741v45h387l387 689h-795v61h901l-422 -750h388v-45h-412l-383 -680h815v-61h-920l416 741h-362z" />
    <glyph glyph-name="zstroke" unicode="&#x1b6;" horiz-adv-x="940" 
d="M115 514v45h344l299 424h-662v61h776l-342 -485h304v-45h-336l-320 -453h662v-61h-777l363 514h-311z" />
    <glyph glyph-name="Aringacute" unicode="&#x1fa;" horiz-adv-x="1327" 
d="M375 1958l563 145l18 -59l-571 -131zM664 1599q-139 0 -216 42.5t-77 113.5q0 68 78 111t215 43q138 0 216 -43t78 -111q0 -70 -78 -113t-216 -43zM664 1651q107 0 172 28.5t65 75.5q0 45 -65.5 74t-171.5 29q-108 0 -173 -29t-65 -74q0 -47 64 -75.5t174 -28.5zM51 0
l565 1536h93l565 -1536h-70l-178 489h-727l-180 -489h-68zM659 1470l-337 -919h682l-336 919h-9z" />
    <glyph glyph-name="aringacute" unicode="&#x1fb;" horiz-adv-x="1060" 
d="M207 1614l563 145l18 -59l-571 -131zM496 1178q-132 0 -212.5 51t-80.5 133t80.5 133t212.5 51t213.5 -51t81.5 -133t-81.5 -133t-213.5 -51zM496 1229q108 0 172.5 36.5t64.5 96.5t-64.5 96.5t-172.5 36.5q-107 0 -172.5 -36.5t-65.5 -96.5t65.5 -96.5t172.5 -36.5z
M94 281q0 142 104 226.5t279 84.5q132 0 224 -46.5t126 -129.5h9q-7 119 -7 250q0 163 -88.5 256.5t-246.5 93.5q-206 0 -330 -148l-39 43q132 166 375 166q184 0 289.5 -109t105.5 -298v-670h-66v74q0 29 7 80h-9q-29 -84 -124.5 -134.5t-225.5 -50.5q-175 0 -279 85
t-104 227zM487 31q154 0 247 68t93 184q0 115 -93 182t-247 67q-151 0 -238 -67t-87 -182q0 -117 87 -184.5t238 -67.5z" />
    <glyph glyph-name="AEacute" unicode="&#x1fc;" horiz-adv-x="2035" 
d="M877 1653l243 293h90l-262 -293h-71zM1098 0v551h-844v-551h-66v1063q0 241 131.5 373.5t358.5 132.5q116 0 201 -33h1050v-61h-938q174 -132 174 -412v-254h723v-59h-723v-689h774v-61h-841zM254 1059v-447h844v447q0 216 -111.5 332t-308.5 116q-199 0 -311.5 -116
t-112.5 -332z" />
    <glyph glyph-name="aeacute" unicode="&#x1fd;" horiz-adv-x="1726" 
d="M762 1298l244 355h86l-261 -355h-69zM1587 61v-61h-758v76q0 31 7 78h-9q-29 -85 -125 -135t-229 -50q-173 0 -276 86.5t-103 227.5q0 140 103.5 224.5t279.5 84.5q133 0 226 -47.5t124 -130.5h9q-7 79 -7 245q0 163 -89 260t-246 97q-209 0 -328 -146l-43 43
q133 164 371 164q147 0 243.5 -76t122.5 -210q29 132 130.5 209t244.5 77q174 0 285.5 -114t111.5 -293v-183h-741v-426h696zM1227 1016q-148 0 -242 -98t-94 -256v-115h676v117q0 156 -96.5 254t-243.5 98zM485 31q154 0 248 68t94 184q0 114 -94 181.5t-248 67.5
q-151 0 -237 -66.5t-86 -182.5t86.5 -184t236.5 -68z" />
    <glyph glyph-name="Oslashacute" unicode="&#x1fe;" horiz-adv-x="1755" 
d="M786 1686l244 292h90l-262 -292h-72zM309 -6l-37 29l99 129q-128 110 -199.5 270t-71.5 346q0 167 59.5 315.5t162.5 255t247.5 168.5t307.5 62q253 0 450 -142l94 125l37 -28l-92 -125q135 -109 212 -274t77 -357q0 -167 -59.5 -315.5t-162.5 -255t-247.5 -168.5
t-308.5 -62q-266 0 -471 156zM168 768q0 -169 64 -315.5t178 -247.5l880 1171q-182 131 -413 131q-198 0 -361 -97t-255.5 -266.5t-92.5 -375.5zM877 29q150 0 282 57t225.5 155.5t148 235.5t54.5 291q0 177 -69 327.5t-191 252.5l-883 -1174q188 -145 433 -145z" />
    <glyph glyph-name="oslashacute" unicode="&#x1ff;" horiz-adv-x="1275" 
d="M549 1298l244 355h86l-261 -355h-69zM223 -53l-37 26l95 125q-88 76 -137.5 186.5t-49.5 237.5q0 235 157 395t388 160q179 0 319 -100l95 123l37 -29l-97 -123q90 -76 140.5 -186.5t50.5 -239.5q0 -235 -157 -395t-388 -160q-182 0 -322 103zM160 522q0 -112 42 -209
t117 -166l601 779q-123 90 -281 90q-204 0 -341.5 -141.5t-137.5 -352.5zM639 29q204 0 340.5 141t136.5 352q0 114 -43 211t-119 164l-598 -778q123 -90 283 -90z" />
    <glyph glyph-name="Scommaaccent" unicode="&#x218;" horiz-adv-x="1112" 
d="M221 1221q0 -113 67.5 -191.5t217.5 -161.5l194 -112q156 -89 228.5 -185t72.5 -213q0 -178 -118.5 -284.5t-321.5 -106.5q-108 0 -195.5 34t-146 94t-92 140t-39.5 175l62 14q6 -112 54.5 -200.5t141.5 -141.5t217 -53q173 0 272 89t99 240q0 96 -64 180t-204 162
l-191 109q-83 47 -137.5 87t-98 89t-63.5 106t-20 128q0 153 108.5 251.5t290.5 98.5q177 0 286.5 -92.5t145.5 -262.5l-61 -16q-31 149 -126.5 229t-246.5 80t-241.5 -79.5t-90.5 -206.5zM602 -186q0 -45 -37 -140l-57 -151l-37 12l55 154q12 36 23 80q-22 3 -36.5 17.5
t-14.5 35.5q0 22 14 35.5t37 13.5q24 0 38.5 -15t14.5 -42z" />
    <glyph glyph-name="scommaaccent" unicode="&#x219;" horiz-adv-x="847" 
d="M193 813q0 -75 46 -127.5t140 -91.5l141 -62q230 -99 230 -286q0 -123 -90 -201t-234 -78q-139 0 -236 79t-116 198l55 24q18 -104 100 -172.5t201 -68.5q112 0 183 60t71 159q0 148 -199 233l-141 62q-109 46 -163 111t-54 161q0 112 83.5 188t213.5 76
q124 0 210.5 -68.5t113.5 -177.5l-54 -22q-22 92 -95.5 150.5t-176.5 58.5q-100 0 -164.5 -59t-64.5 -146zM465 -186q0 -45 -37 -140l-57 -151l-37 12l55 154q13 36 23 80q-22 3 -37 17.5t-15 35.5q0 22 14.5 35.5t37.5 13.5q24 0 38.5 -15t14.5 -42z" />
    <glyph glyph-name="Tcommaaccent" unicode="&#x21a;" horiz-adv-x="1042" 
d="M487 0v1475h-464v61h999v-61h-467v-1475h-68zM571 -129q0 -47 -36 -139l-58 -152l-37 12l56 154q9 27 22 80q-22 3 -36.5 17.5t-14.5 35.5q0 22 14 35.5t37 13.5q24 0 38.5 -15t14.5 -42z" />
    <glyph glyph-name="tcommaaccent" unicode="&#x21b;" horiz-adv-x="718" 
d="M549 -23q-165 0 -257.5 94t-92.5 259v653h-142v61h142v287h65v-287h434v-61h-434v-645q0 -144 77 -222.5t216 -78.5q69 0 121 24v-61q-58 -23 -129 -23zM526 -178q0 -44 -37 -139l-57 -152l-37 12l56 154q9 27 22 80q-22 3 -36.5 17.5t-14.5 35.5q0 22 14 35.5t37 13.5
q24 0 38.5 -15t14.5 -42z" />
    <glyph glyph-name="dotlessj" unicode="&#x237;" horiz-adv-x="448" 
d="M266 -471h-383v61h318v1454h65v-1515z" />
    <glyph glyph-name="schwa" unicode="&#x259;" horiz-adv-x="1230" 
d="M1139 522q0 -235 -157 -395t-388 -160q-112 0 -208.5 43t-163.5 117t-105.5 176.5t-38.5 218.5q0 4 1 15t1 14h991q-11 202 -145.5 333.5t-333.5 131.5q-118 0 -218 -51t-169 -142l-43 39q76 102 187.5 158.5t244.5 56.5q231 0 388 -160t157 -395zM594 29q198 0 332 131
t145 332h-928q6 -200 132 -331.5t319 -131.5z" />
    <glyph glyph-name="commaturnedmod" unicode="&#x2bb;" horiz-adv-x="358" 
d="M121 1233q0 9 0.5 17.5t3 19t4 18t5.5 21t6 19.5t8 23.5t8 24.5l61 174l35 -12l-55 -174q-19 -68 -21 -82q51 -7 51 -55q0 -23 -14 -38t-37 -15q-25 0 -40 16t-15 43z" />
    <glyph glyph-name="circumflex" unicode="&#x2c6;" horiz-adv-x="886" 
d="M135 1274l260 354h94l261 -354h-70l-238 307l-237 -307h-70z" />
    <glyph glyph-name="caron" unicode="&#x2c7;" horiz-adv-x="886" 
d="M137 1628h68l237 -307l238 307h70l-261 -354h-92z" />
    <glyph glyph-name="breve" unicode="&#x2d8;" horiz-adv-x="876" 
d="M117 1599h59q0 -135 69.5 -212.5t194.5 -77.5q124 0 193 77.5t69 212.5h60q0 -159 -85.5 -253.5t-236.5 -94.5q-154 0 -238.5 94t-84.5 254z" />
    <glyph glyph-name="dotaccent" unicode="&#x2d9;" horiz-adv-x="499" 
d="M250 1255q-25 0 -42.5 17.5t-17.5 42.5q0 24 17.5 40.5t42.5 16.5q24 0 40.5 -16.5t16.5 -40.5q0 -25 -17 -42.5t-40 -17.5z" />
    <glyph glyph-name="ring" unicode="&#x2da;" horiz-adv-x="772" 
d="M387 1235q-131 0 -212 59.5t-81 155.5q0 99 81 161t212 62t212 -62t81 -161q0 -96 -81 -155.5t-212 -59.5zM387 1286q108 0 173 45.5t65 118.5q0 77 -65 124.5t-173 47.5t-172.5 -47.5t-64.5 -124.5q0 -73 64.5 -118.5t172.5 -45.5z" />
    <glyph glyph-name="ogonek" unicode="&#x2db;" horiz-adv-x="624" 
d="M385 -16q-98 0 -174 -66.5t-76 -159.5q0 -73 43.5 -116t108.5 -43q102 0 176 82l31 -43q-93 -97 -213 -97q-90 0 -146.5 56.5t-56.5 152.5q0 101 78 177t194 91z" />
    <glyph glyph-name="tilde" unicode="&#x2dc;" horiz-adv-x="983" 
d="M827 1534q10 -141 -33.5 -211t-119.5 -70q-78 0 -156 78l-96 92q-27 25 -37 34t-35 21.5t-51 12.5q-58 0 -85.5 -58t-18.5 -161h-54q-11 140 34 210t124 70q47 0 78 -17.5t69 -55.5l97 -95q73 -69 131 -69q54 0 81 59t19 160h53z" />
    <glyph glyph-name="hungarumlaut" unicode="&#x2dd;" horiz-adv-x="919" 
d="M139 1274l244 354h76l-258 -354h-62zM465 1274l244 354h75l-258 -354h-61z" />
    <glyph glyph-name="Delta" unicode="&#x394;" horiz-adv-x="1413" 
d="M57 0v55l609 1481h77l613 -1481v-55h-1299zM705 1473l-576 -1412h1155z" />
    <glyph glyph-name="Omega" unicode="&#x3a9;" horiz-adv-x="1544" 
d="M618 0h-477v61h412v246q-206 55 -331.5 218.5t-125.5 389.5q0 186 88.5 335.5t243.5 234t346 84.5q190 0 344.5 -84.5t242 -234t87.5 -335.5q0 -222 -126 -386t-329 -222v-246h412v-61h-477v350q198 39 325 194t127 371q0 167 -78.5 303t-217.5 213.5t-310 77.5
q-172 0 -312 -77.5t-219 -213.5t-79 -303q0 -218 127.5 -373.5t326.5 -191.5v-350z" />
    <glyph glyph-name="mu" unicode="&#x3bc;" horiz-adv-x="1187" 
d="M250 90v-561h-66v1515h66v-647q0 -164 99 -264t261 -100q155 0 250.5 100t95.5 264v647h66v-653q0 -184 -111 -302t-290 -118q-67 0 -126 16t-101 41.5t-74 58.5t-49 67t-23 67h-4q6 -61 6 -131z" />
    <glyph glyph-name="pi" unicode="&#x3c0;" horiz-adv-x="1153" 
d="M240 0v983h-224v61h1119v-61h-222v-983h-65v983h-543v-983h-65z" />
    <glyph glyph-name="Wgrave" unicode="&#x1e80;" horiz-adv-x="1906" 
d="M1059 1653h-72l-260 293h88zM1354 0l-406 1421h-8l-387 -1421h-92l-389 1536h71l361 -1438h8l391 1438h82l410 -1438h8l360 1438h72l-389 -1536h-92z" />
    <glyph glyph-name="wgrave" unicode="&#x1e81;" horiz-adv-x="1603" 
d="M893 1298h-70l-260 355h86zM1546 1044l-313 -1044h-105l-323 983h-8l-324 -983h-100l-318 1044h70l295 -983h8l322 983h104l322 -983h8l295 983h67z" />
    <glyph glyph-name="Wacute" unicode="&#x1e82;" horiz-adv-x="1906" 
d="M854 1653l244 293h90l-262 -293h-72zM1354 0l-406 1421h-8l-387 -1421h-92l-389 1536h71l361 -1438h8l391 1438h82l410 -1438h8l360 1438h72l-389 -1536h-92z" />
    <glyph glyph-name="wacute" unicode="&#x1e83;" horiz-adv-x="1603" 
d="M711 1298l243 355h86l-260 -355h-69zM1546 1044l-313 -1044h-105l-323 983h-8l-324 -983h-100l-318 1044h70l295 -983h8l322 983h104l322 -983h8l295 983h67z" />
    <glyph glyph-name="Wdieresis" unicode="&#x1e84;" horiz-adv-x="1906" 
d="M711 1640q-22 0 -37 15.5t-15 38.5q0 22 15 36.5t37 14.5q23 0 38 -14.5t15 -36.5q0 -23 -15 -38.5t-38 -15.5zM1184 1640q-22 0 -38 15.5t-16 38.5q0 21 16 36t38 15t36.5 -14.5t14.5 -36.5q0 -23 -14.5 -38.5t-36.5 -15.5zM1354 0l-406 1421h-8l-387 -1421h-92
l-389 1536h71l361 -1438h8l391 1438h82l410 -1438h8l360 1438h72l-389 -1536h-92z" />
    <glyph glyph-name="wdieresis" unicode="&#x1e85;" horiz-adv-x="1603" 
d="M565 1286q-22 0 -36.5 15t-14.5 38q0 22 14.5 37t36.5 15q23 0 38 -15t15 -37q0 -23 -15 -38t-38 -15zM1038 1286q-22 0 -37.5 15t-15.5 38q0 22 15.5 37t37.5 15t37 -15t15 -37q0 -23 -15 -38t-37 -15zM1546 1044l-313 -1044h-105l-323 983h-8l-324 -983h-100l-318 1044
h70l295 -983h8l322 983h104l322 -983h8l295 983h67z" />
    <glyph glyph-name="Xdot" unicode="&#x1e8a;" horiz-adv-x="1114" 
d="M557 1636q-25 0 -42 16.5t-17 41.5t17 41t42 16q24 0 40.5 -16.5t16.5 -40.5t-17 -41t-40 -17zM553 721l-453 -721h-73l489 770l-473 766h74l436 -717h4l440 717h74l-477 -764l491 -772h-73l-455 721h-4z" />
    <glyph glyph-name="xdot" unicode="&#x1e8b;" horiz-adv-x="970" 
d="M487 1280q-25 0 -42 17t-17 42t17 41.5t42 16.5q24 0 41 -17t17 -41q0 -25 -17.5 -42t-40.5 -17zM440 532l-395 512h80l356 -466h8l359 466h78l-396 -512l396 -532h-78l-361 487h-8l-358 -487h-78z" />
    <glyph glyph-name="Germandbls" unicode="&#x1e9e;" horiz-adv-x="1456" 
d="M186 0v979q0 267 158 428.5t428 161.5q349 0 528 -215l-432 -523q45 9 74 9q190 0 313 -121t123 -307q0 -191 -131 -318t-336 -127q-112 0 -208.5 34.5t-151.5 92.5l33 51q52 -53 138.5 -84.5t186.5 -31.5q178 0 290 109t112 274q0 161 -109 265.5t-280 104.5
q-71 0 -121 -18l-21 49l434 533q-68 77 -182 119t-260 42q-242 0 -381 -143.5t-139 -384.5v-979h-66z" />
    <glyph glyph-name="Ygrave" unicode="&#x1ef2;" horiz-adv-x="1265" 
d="M748 1653h-72l-260 293h88zM598 0v602l-535 934h76l490 -860h8l493 860h76l-540 -930v-606h-68z" />
    <glyph glyph-name="ygrave" unicode="&#x1ef3;" horiz-adv-x="1077" 
d="M635 1298h-70l-260 355h86zM414 -471h-244v61h203l168 414h-29l-477 1040h69l449 -981h10l398 981h67z" />
    <glyph glyph-name="figurespace" unicode="&#x2007;" horiz-adv-x="1290" 
 />
    <glyph glyph-name="punctuationspace" unicode="&#x2008;" horiz-adv-x="323" 
 />
    <glyph glyph-name="endash" unicode="&#x2013;" horiz-adv-x="1183" 
d="M141 741v60h901v-60h-901z" />
    <glyph glyph-name="emdash" unicode="&#x2014;" horiz-adv-x="1552" 
d="M141 741v60h1270v-60h-1270z" />
    <glyph glyph-name="quoteleft" unicode="&#x2018;" horiz-adv-x="358" 
d="M121 1233q0 9 0.5 17.5t3 19t4 18t5.5 21t6 19.5t8 23.5t8 24.5l61 174l35 -12l-55 -174q-19 -68 -21 -82q51 -7 51 -55q0 -23 -14 -38t-37 -15q-25 0 -40 16t-15 43z" />
    <glyph glyph-name="quoteright" unicode="&#x2019;" horiz-adv-x="350" 
d="M246 1489q0 -9 -0.5 -17.5t-3 -19t-4 -18t-5.5 -21t-6 -19.5t-8 -23.5t-8 -24.5l-61 -175l-35 13l55 174q16 59 20 82q-51 7 -51 55q0 23 14 38t37 15q25 0 40.5 -16t15.5 -43z" />
    <glyph glyph-name="quotesinglbase" unicode="&#x201a;" horiz-adv-x="350" 
d="M229 49q0 -39 -34 -143l-62 -174l-35 12l56 174q16 59 20 82q-51 7 -51 55q0 24 14 39t37 15q25 0 40 -16t15 -44z" />
    <glyph glyph-name="quotedblleft" unicode="&#x201c;" horiz-adv-x="626" 
d="M389 1233q0 9 0.5 17.5t3 19t4 18t5.5 21t6 19.5t8 23.5t8 24.5l61 174l35 -12l-55 -174q-19 -68 -21 -82q24 -3 38 -17.5t14 -37.5t-14.5 -38t-37.5 -15q-25 0 -40 16t-15 43zM121 1233q0 9 0.5 17.5t3 19t4 18t5.5 21t6 19.5t8 23.5t8 24.5l61 174l35 -12l-55 -174
q-19 -68 -21 -82q51 -7 51 -55q0 -23 -14 -38t-37 -15q-25 0 -40 16t-15 43z" />
    <glyph glyph-name="quotedblright" unicode="&#x201d;" horiz-adv-x="618" 
d="M246 1489q0 -9 -0.5 -17.5t-3 -19t-4 -18t-5.5 -21t-6 -19.5t-8 -23.5t-8 -24.5l-61 -175l-35 13l55 174q16 59 20 82q-51 7 -51 55q0 23 14 38t37 15q25 0 40.5 -16t15.5 -43zM514 1489q0 -9 -0.5 -17.5t-3 -19t-4 -18t-5.5 -21t-6 -19.5t-8 -23.5t-8 -24.5l-61 -175
l-35 13l55 174q19 68 21 82q-51 7 -51 55q0 23 14 38t37 15q25 0 40 -16t15 -43z" />
    <glyph glyph-name="quotedblbase" unicode="&#x201e;" horiz-adv-x="620" 
d="M229 49q0 -39 -34 -143l-62 -174l-35 12l56 174q16 59 20 82q-51 7 -51 55q0 24 14 39t37 15q25 0 40 -16t15 -44zM498 49q0 -9 -0.5 -17.5t-3 -19t-4 -18t-5.5 -21t-6 -19.5t-8 -23.5t-8 -24.5l-62 -174l-34 12l55 174q16 59 20 82q-51 7 -51 55q0 24 14 39t37 15
q25 0 40.5 -16.5t15.5 -43.5z" />
    <glyph glyph-name="dagger" unicode="&#x2020;" horiz-adv-x="868" 
d="M403 594v565h-319v60h319v317h64v-317h317v-60h-317v-565h-64z" />
    <glyph glyph-name="daggerdbl" unicode="&#x2021;" horiz-adv-x="931" 
d="M815 717v-60h-317v-317h-64v317h-319v60h319v442h-319v60h319v317h64v-317h317v-60h-317v-442h317z" />
    <glyph glyph-name="bullet" unicode="&#x2022;" horiz-adv-x="563" 
d="M281 682q-37 0 -61.5 25.5t-24.5 62.5q0 40 24.5 66t61.5 26t62.5 -26.5t25.5 -65.5q0 -37 -25.5 -62.5t-62.5 -25.5z" />
    <glyph glyph-name="ellipsis" unicode="&#x2026;" horiz-adv-x="1357" 
d="M162 -10q-22 0 -36.5 14.5t-14.5 36.5q0 23 14.5 38t36.5 15t36.5 -15t14.5 -38q0 -22 -14.5 -36.5t-36.5 -14.5zM680 -10q-22 0 -36.5 14.5t-14.5 36.5q0 23 14.5 38t36.5 15t36.5 -15t14.5 -38q0 -22 -14.5 -36.5t-36.5 -14.5zM1196 -10q-22 0 -36.5 14.5t-14.5 36.5
q0 23 14.5 38t36.5 15t36.5 -15t14.5 -38q0 -22 -14.5 -36.5t-36.5 -14.5z" />
    <glyph glyph-name="perthousand" unicode="&#x2030;" horiz-adv-x="2203" 
d="M381 733q-131 0 -212 77.5t-89 201.5q-3 133 0 266q8 124 89 201t212 77q130 0 211.5 -77.5t87.5 -200.5q6 -133 0 -266q-6 -123 -87.5 -201t-211.5 -78zM319 0l943 1536h65l-942 -1536h-66zM381 1501q-106 0 -170.5 -61t-69.5 -158q-3 -137 0 -274q5 -98 69.5 -159
t170.5 -61q103 0 167 61t70 159q3 137 0 274q-6 97 -70 158t-167 61zM1284 -25q-129 0 -210 78t-89 201q-3 134 0 266q8 125 88.5 203t210.5 78q101 0 171.5 -50.5t100.5 -138.5q30 88 101 138.5t172 50.5q130 0 211 -78t86 -203q6 -132 0 -266q-5 -122 -86 -200.5
t-211 -78.5q-100 0 -171.5 51t-101.5 138q-30 -87 -101 -138t-171 -51zM1286 745q-105 0 -168.5 -61t-68.5 -158q-6 -138 0 -274q5 -99 68.5 -160t168.5 -61q104 0 168.5 61.5t69.5 159.5q6 136 0 274q-5 97 -69.5 158t-168.5 61zM1827 745q-104 0 -168.5 -61t-69.5 -158
q-6 -138 0 -274q5 -98 69.5 -159.5t168.5 -61.5q105 0 169 61t70 160q3 136 0 274q-6 97 -70 158t-169 61z" />
    <glyph glyph-name="guilsinglleft" unicode="&#x2039;" horiz-adv-x="600" 
d="M102 614l338 492l47 -31l-317 -461l317 -460l-47 -31z" />
    <glyph glyph-name="guilsinglright" unicode="&#x203a;" horiz-adv-x="600" 
d="M498 614l-338 -491l-47 31l317 460l-317 461l47 31z" />
    <glyph glyph-name="fraction" unicode="&#x2044;" horiz-adv-x="311" 
d="M-350 0l942 1536h65l-942 -1536h-65z" />
    <glyph glyph-name="zero.superior" unicode="&#x2070;" horiz-adv-x="798" 
d="M399 723q-131 0 -213 78.5t-90 202.5q-3 134 0 268q8 125 89.5 202.5t213.5 77.5t213.5 -77.5t87.5 -202.5q6 -134 0 -268q-6 -124 -88 -202.5t-213 -78.5zM399 1497q-105 0 -169.5 -62t-69.5 -159q-6 -138 0 -277q5 -98 69 -159.5t170 -61.5q104 0 169 61.5t71 159.5
q3 139 0 277q-6 97 -71 159t-169 62z" />
    <glyph glyph-name="four.superior" unicode="&#x2074;" horiz-adv-x="737" 
d="M479 739v219h-418l119 578h60l-107 -522h346v311h60v-311h151v-56h-151v-219h-60z" />
    <glyph glyph-name="five.superior" unicode="&#x2075;" horiz-adv-x="698" 
d="M78 848l41 39q35 -52 94.5 -80.5t128.5 -28.5q94 0 156.5 54t62.5 143t-62 144t-157 55q-111 0 -180 -76l-41 18l-6 -2v422h469v-55h-410v-318q84 64 178 64q119 0 196 -69t77 -183t-80.5 -183t-204.5 -69q-84 0 -153 33.5t-109 91.5z" />
    <glyph glyph-name="six.superior" unicode="&#x2076;" horiz-adv-x="768" 
d="M668 739h-545v525q0 133 80 210.5t211 77.5q187 0 256 -157l-54 -27q-54 129 -204 129q-100 0 -164 -60t-64 -165v-92h484v-441zM184 795h422v333h-422v-333z" />
    <glyph glyph-name="seven.superior" unicode="&#x2077;" horiz-adv-x="645" 
d="M45 1481v55h586l-408 -797h-71l387 742h-494z" />
    <glyph glyph-name="eight.superior" unicode="&#x2078;" horiz-adv-x="727" 
d="M643 948q0 -101 -76.5 -163t-201.5 -62q-126 0 -203.5 62t-77.5 163q0 77 50 133t134 68v4q-74 12 -119 64.5t-45 125.5q0 94 72 151.5t189 57.5q114 0 186 -58t72 -151q0 -73 -45 -125.5t-119 -64.5v-4q84 -12 134 -68t50 -133zM365 1174q88 0 142 45t54 120
q0 70 -54.5 115t-141.5 45q-88 0 -143.5 -45t-55.5 -115q0 -74 55 -119.5t144 -45.5zM365 778q96 0 156.5 47.5t60.5 126.5q0 75 -60.5 121.5t-156.5 46.5q-98 0 -158 -46.5t-60 -121.5q0 -79 59.5 -126.5t158.5 -47.5z" />
    <glyph glyph-name="nine.superior" unicode="&#x2079;" horiz-adv-x="737" 
d="M340 1552q120 0 197 -72.5t77 -185.5v-555h-462v56h401v381q-29 -59 -90 -93t-135 -34q-114 0 -190.5 72t-76.5 179q0 108 79 180t200 72zM340 1497q-92 0 -153.5 -56t-61.5 -141t61.5 -140.5t153.5 -55.5q91 0 152 56t61 140q0 85 -61 141t-152 56z" />
    <glyph glyph-name="Euro" unicode="&#x20ac;" horiz-adv-x="1310" 
d="M76 551v59h227q-4 202 -2 303h-225v60h227q0 11 1 33t1 34q9 231 149 380t361 149q134 0 239 -57t171 -160l-51 -33q-58 88 -150.5 138t-208.5 50q-193 0 -313 -129.5t-129 -333.5q0 -12 -1 -35t-1 -36h594v-60h-596q-2 -101 2 -303h594v-59h-594q0 -9 1 -28.5t1 -28.5
q9 -205 129 -335t313 -130q241 0 365 200l51 -34q-67 -108 -174 -168t-242 -60q-221 0 -361 149t-149 380q0 9 -1 27.5t-1 27.5h-227z" />
    <glyph glyph-name="turkishlira" unicode="&#x20ba;" horiz-adv-x="1282" 
d="M96 446v58l201 47v317l-201 -47v60l201 47v608h68v-594l620 143v-59l-620 -143v-318l620 144v-58l-620 -143v-447h350q193 0 310.5 143.5t119.5 377.5h67q0 -260 -136.5 -421t-360.5 -161h-418v494z" />
    <glyph glyph-name="trademark" unicode="&#x2122;" horiz-adv-x="1804" 
d="M340 752v731h-272v53h600v-53h-271v-731h-57zM1286 752h-199l-176 733h-106v-733h-57v784h215l170 -731h104l174 731h209v-784h-55v733h-105z" />
    <glyph glyph-name="ohm" unicode="&#x2126;" horiz-adv-x="1544" 
d="M618 0h-477v61h412v246q-206 55 -331.5 218.5t-125.5 389.5q0 186 88.5 335.5t243.5 234t346 84.5q190 0 344.5 -84.5t242 -234t87.5 -335.5q0 -222 -126 -386t-329 -222v-246h412v-61h-477v350q198 39 325 194t127 371q0 167 -78.5 303t-217.5 213.5t-310 77.5
q-172 0 -312 -77.5t-219 -213.5t-79 -303q0 -218 127.5 -373.5t326.5 -191.5v-350z" />
    <glyph glyph-name="partialdiff" unicode="&#x2202;" horiz-adv-x="1210" 
d="M1102 858q0 -255 -67 -455t-198.5 -316t-308.5 -116q-204 0 -336.5 134.5t-132.5 343.5q0 194 130.5 318t334.5 124q185 0 307 -106.5t134 -268.5q4 -53 -19 -158l8 -2q4 12 8 28.5t9 37.5t8 31q57 189 57 409q0 307 -143.5 477t-403.5 170q-143 0 -235 -34v63
q109 31 242 31q128 0 235 -40.5t191.5 -123.5t132 -222.5t47.5 -324.5zM528 33q176 0 287 117.5t111 298.5q0 161 -112 271.5t-286 110.5q-177 0 -289 -111.5t-112 -270.5q0 -182 110.5 -299t290.5 -117z" />
    <glyph glyph-name="increment" unicode="&#x2206;" horiz-adv-x="1413" 
d="M57 0v55l609 1481h77l613 -1481v-55h-1299zM705 1473l-576 -1412h1155z" />
    <glyph glyph-name="product" unicode="&#x220f;" horiz-adv-x="1366" 
d="M305 -205v1682h-246v59h1246v-59h-244v-1682h-66v1682h-624v-1682h-66z" />
    <glyph glyph-name="summation" unicode="&#x2211;" horiz-adv-x="1034" 
d="M68 -205v53l587 816l-571 819v53h860v-59h-780l567 -813l-584 -807h816v-62h-895z" />
    <glyph glyph-name="minus" unicode="&#x2212;" horiz-adv-x="1105" 
d="M109 735v60h888v-60h-888z" />
    <glyph glyph-name="bulletoperator" unicode="&#x2219;" horiz-adv-x="563" 
d="M281 682q-37 0 -61.5 25.5t-24.5 62.5q0 40 24.5 66t61.5 26t62.5 -26.5t25.5 -65.5q0 -37 -25.5 -62.5t-62.5 -25.5z" />
    <glyph glyph-name="radical" unicode="&#x221a;" horiz-adv-x="1196" 
d="M684 -205h-72l-317 877h-297v59h346l242 -676q46 -129 55 -176h8q4 32 47 187l437 1470h69z" />
    <glyph glyph-name="infinity" unicode="&#x221e;" horiz-adv-x="2230" 
d="M1114 737l225 232q75 77 158.5 120.5t196.5 43.5q184 0 306 -123.5t122 -317.5q0 -195 -121.5 -318.5t-304.5 -123.5q-114 0 -199.5 46t-163.5 128l-217 229l-219 -227q-78 -83 -163 -129.5t-199 -46.5q-183 0 -304.5 123.5t-121.5 318.5q0 194 122 317.5t304 123.5
q113 0 197 -43.5t159 -120.5zM537 311q100 0 176.5 44.5t150.5 121.5l209 217l-213 217q-73 77 -146.5 118.5t-176.5 41.5q-158 0 -260.5 -108t-102.5 -271q0 -166 102.5 -273.5t260.5 -107.5zM1694 311q158 0 260 107.5t102 273.5q0 163 -102 271t-260 108
q-101 0 -176.5 -42t-149.5 -118l-209 -215l207 -219q74 -78 150 -122t178 -44z" />
    <glyph glyph-name="integral" unicode="&#x222b;" horiz-adv-x="643" 
d="M143 -242q-102 0 -166 58l27 51q53 -47 133 -47q68 0 108 43.5t40 116.5v1353q0 109 58.5 172.5t156.5 63.5q99 0 172 -64l-27 -51q-61 55 -139 55q-70 0 -113 -48t-43 -128v-1353q0 -104 -56.5 -163t-150.5 -59z" />
    <glyph glyph-name="congruent" unicode="&#x2245;" horiz-adv-x="1105" 
d="M782 1208q156 0 215 80v-67q-59 -74 -215 -74q-55 0 -117 19t-109 41.5t-110 41.5t-120 19q-145 0 -217 -72v66q74 67 217 67q61 0 126 -19t112 -41.5t106.5 -41.5t111.5 -19zM109 778v62h888v-62h-888zM109 344v59h888v-59h-888z" />
    <glyph glyph-name="approxequal" unicode="&#x2248;" horiz-adv-x="1105" 
d="M786 961q156 0 215 79v-65q-56 -76 -215 -76q-56 0 -118 19t-109 41.5t-109.5 41.5t-119.5 19q-145 0 -217 -72v66q77 67 217 67q60 0 125 -18.5t112 -41.5t107 -41.5t112 -18.5zM786 524q154 0 215 78v-67q-58 -70 -215 -70q-56 0 -118 18.5t-109 41t-109.5 41
t-119.5 18.5q-143 0 -217 -74v65q71 68 217 68q60 0 125 -18.5t112 -41t107 -41t112 -18.5z" />
    <glyph glyph-name="notequal" unicode="&#x2260;" horiz-adv-x="1105" 
d="M997 512h-555l-163 -291h-60l162 291h-272v59h303l217 390h-520v61h548l164 293h62l-164 -293h278v-61h-307l-219 -390h526v-59z" />
    <glyph glyph-name="lessequal" unicode="&#x2264;" horiz-adv-x="1105" 
d="M989 500l-889 401v57l889 398v-66l-811 -358l811 -367v-65zM100 186v60h889v-60h-889z" />
    <glyph glyph-name="greaterequal" unicode="&#x2265;" horiz-adv-x="1105" 
d="M117 500v65l811 367l-811 358v66l889 -398v-57zM1006 186h-889v60h889v-60z" />
    <glyph glyph-name="dotmath" unicode="&#x22c5;" horiz-adv-x="587" 
d="M293 719q-22 0 -36.5 14.5t-14.5 36.5q0 23 14.5 38t36.5 15t36.5 -15t14.5 -38q0 -22 -14.5 -36.5t-36.5 -14.5z" />
    <glyph glyph-name="lozenge" unicode="&#x25ca;" horiz-adv-x="1243" 
d="M1169 666l-514 -871h-71l-512 871l512 870h73zM1096 666l-478 807l-471 -807l474 -807z" />
    <glyph glyph-name="commaaccent" unicode="&#xf6c3;" horiz-adv-x="438" 
d="M266 12q0 -44 -37 -139l-57 -152l-37 13l55 153q13 36 23 80q-22 3 -36.5 17.5t-14.5 35.5q0 22 14 36t37 14q24 0 38.5 -15.5t14.5 -42.5z" />
    <glyph glyph-name="fi" unicode="&#xfb01;" horiz-adv-x="1056" 
d="M872 0h-65v983h-526v-983h-66v983h-158v61h158v140q0 167 91.5 265.5t254.5 98.5q180 2 297 -102l-33 -51q-50 44 -110 69t-152 25q-133 0 -207.5 -83t-74.5 -226v-136h591v-1044z" />
    <glyph glyph-name="fl" unicode="&#xfb02;" horiz-adv-x="1140" 
d="M57 983v61h158v146q0 163 86.5 260.5t243.5 97.5t242 -96.5t85 -261.5v-1129h254v-61h-319v1186q0 140 -68 221.5t-194 81.5q-128 0 -196 -81.5t-68 -221.5v-142h378v-61h-378v-983h-66v983h-158z" />
    <glyph glyph-name="S_S" horiz-adv-x="2181" 
d="M221 1221q0 -113 67.5 -191.5t217.5 -161.5l194 -112q156 -89 228.5 -185t72.5 -213q0 -178 -118.5 -284.5t-321.5 -106.5q-108 0 -195.5 34t-146 94t-92 140t-39.5 175l62 14q6 -112 54.5 -200.5t141.5 -141.5t217 -53q173 0 272 89t99 240q0 96 -64 180t-204 162
l-191 109q-83 47 -137.5 87t-98 89t-63.5 106t-20 128q0 153 108.5 251.5t290.5 98.5q177 0 286.5 -92.5t145.5 -262.5l-61 -16q-31 149 -126.5 229t-246.5 80t-241.5 -79.5t-90.5 -206.5zM2048 0h-836v61h768v715h-378q-177 0 -285.5 101.5t-108.5 277.5q0 177 109 279
t287 102h424v-61h-422q-151 0 -241.5 -85t-90.5 -235q0 -149 90.5 -233t241.5 -84h442v-838z" />
    <glyph glyph-name="acute.uc" horiz-adv-x="645" 
d="M154 1239l243 293h90l-262 -293h-71z" />
    <glyph glyph-name="breve.uc" horiz-adv-x="876" 
d="M117 1503h61q0 -106 69 -167.5t193 -61.5q122 0 191 61.5t69 167.5h62q0 -130 -85.5 -207t-236.5 -77q-154 0 -238.5 76.5t-84.5 207.5z" />
    <glyph glyph-name="caron.uc" horiz-adv-x="886" 
d="M135 1532h70l237 -254l238 254h72l-260 -293h-97z" />
    <glyph glyph-name="circumflex.uc" horiz-adv-x="886" 
d="M133 1239l260 293h96l261 -293h-70l-238 254l-237 -254h-72z" />
    <glyph glyph-name="dieresis.uc" horiz-adv-x="1003" 
d="M264 1227q-22 0 -36.5 15t-14.5 38q0 22 14.5 36.5t36.5 14.5q23 0 38 -14.5t15 -36.5q0 -23 -15 -38t-38 -15zM737 1227q-22 0 -37.5 15t-15.5 38q0 22 15.5 36.5t37.5 14.5t36.5 -14.5t14.5 -36.5q0 -23 -14.5 -38t-36.5 -15z" />
    <glyph glyph-name="dotaccent.uc" horiz-adv-x="499" 
d="M250 1223q-25 0 -42.5 16.5t-17.5 40.5t17.5 40.5t42.5 16.5q24 0 40.5 -16.5t16.5 -40.5t-16.5 -40.5t-40.5 -16.5z" />
    <glyph glyph-name="grave.uc" horiz-adv-x="645" 
d="M471 1239h-72l-260 293h88z" />
    <glyph glyph-name="hungarumlaut.uc" horiz-adv-x="919" 
d="M139 1239l242 293h78l-258 -293h-62zM465 1239l244 293h77l-258 -293h-63z" />
    <glyph glyph-name="macron.uc" horiz-adv-x="751" 
d="M86 1239v59h580v-59h-580z" />
    <glyph glyph-name="ring.uc" horiz-adv-x="772" 
d="M387 1200q-134 0 -213.5 51t-79.5 135q0 86 79.5 138.5t213.5 52.5q133 0 213 -53t80 -138q0 -84 -80 -135t-213 -51zM387 1251q108 0 173 37.5t65 97.5q0 62 -65.5 102t-172.5 40t-172 -40t-65 -102q0 -60 64.5 -97.5t172.5 -37.5z" />
    <glyph glyph-name="ringacute.uc" horiz-adv-x="827" 
d="M127 1477l563 145l19 -59l-572 -131zM416 1118q-139 0 -216 42.5t-77 113.5q0 68 77.5 110.5t215.5 42.5t216.5 -42.5t78.5 -110.5q0 -70 -78 -113t-217 -43zM416 1169q107 0 172 29t65 76q0 45 -65.5 73.5t-171.5 28.5q-109 0 -173.5 -28.5t-64.5 -73.5q0 -48 64 -76.5
t174 -28.5z" />
    <glyph glyph-name="tilde.uc" horiz-adv-x="983" 
d="M827 1489q10 -135 -33.5 -201.5t-119.5 -66.5q-83 0 -158 75l-94 86q-25 24 -37.5 34t-36 21t-49.5 11q-57 0 -84 -56t-18 -153h-56q-11 134 34 201t124 67q48 0 79.5 -16.5t70.5 -52.5l96 -90q72 -68 129 -68q52 0 78 56t18 153h57z" />
    <glyph glyph-name="i.dot" horiz-adv-x="432" 
d="M217 1288q-23 0 -37 14.5t-14 36.5t14 36t37 14q22 0 36.5 -14t14.5 -36t-14.5 -36.5t-36.5 -14.5zM250 0h-66v1044h66v-1044z" />
    <glyph glyph-name="caron.alt" horiz-adv-x="327" 
d="M231 1536l-77 -387h-52l58 387h71z" />
    <glyph glyph-name="commaturn" horiz-adv-x="438" 
d="M168 1300q0 45 37 140l57 151l37 -12l-55 -154q-13 -39 -23 -79q22 -3 36.5 -18t14.5 -36q0 -22 -14 -35.5t-37 -13.5q-24 0 -38.5 15t-14.5 42z" />
    <glyph glyph-name="ogonek.alt" horiz-adv-x="624" 
d="M336 6q-94 -57 -140 -116.5t-46 -131.5q0 -74 48 -117.5t121 -43.5q113 0 189 88l31 -43q-87 -103 -224 -103q-99 0 -161 57.5t-62 153.5q0 81 47.5 142.5t149.5 123.5z" />
    <glyph glyph-name="ringacute" horiz-adv-x="827" 
d="M127 1589l563 146l19 -60l-572 -131zM416 1153q-132 0 -212.5 51t-80.5 133t81 133.5t212 51.5q132 0 213.5 -51.5t81.5 -133.5t-81.5 -133t-213.5 -51zM416 1204q108 0 172.5 36.5t64.5 96.5t-64.5 96.5t-172.5 36.5q-107 0 -172.5 -36.5t-65.5 -96.5t65.5 -96.5
t172.5 -36.5z" />
    <glyph glyph-name="zero.osf" horiz-adv-x="1376" 
d="M688 -33q-253 0 -414 167.5t-161 428.5q0 263 161 429.5t414 166.5q254 0 415 -167t161 -429q0 -261 -161.5 -428.5t-414.5 -167.5zM688 1100q-224 0 -367 -150.5t-143 -386.5q0 -235 143 -384.5t367 -149.5t366 149.5t142 384.5q0 236 -142 386.5t-366 150.5z" />
    <glyph glyph-name="one.osf" horiz-adv-x="747" 
d="M477 0v1067h-434v59h500v-1126h-66z" />
    <glyph glyph-name="two.osf" horiz-adv-x="1091" 
d="M997 61v-61h-886v41l413 321q183 143 237 196q95 93 115 188q7 35 7 77q0 126 -100 201.5t-244 75.5q-269 0 -406 -205l-43 39q154 225 451 225q113 0 205 -38.5t148 -115.5t56 -178q0 -49 -7.5 -89t-28.5 -79.5t-43.5 -70t-69 -73t-88 -76.5t-115.5 -91l-360 -278v-9
h759z" />
    <glyph glyph-name="three.osf" horiz-adv-x="1083" 
d="M975 -8q0 -193 -127.5 -313.5t-333.5 -120.5q-159 0 -277.5 80.5t-170.5 226.5l53 31q51 -134 152 -205.5t243 -71.5q177 0 285 104t108 273q0 162 -111 259t-284 97h-201v60h199q161 0 258.5 101.5t97.5 258.5q0 147 -97 237.5t-251 90.5q-121 0 -212.5 -60t-141.5 -166
l-47 33q53 117 158.5 184.5t244.5 67.5q181 0 296.5 -106t115.5 -275q0 -147 -74.5 -249.5t-208.5 -137.5v-8q149 -23 237.5 -128.5t88.5 -262.5z" />
    <glyph glyph-name="four.osf" horiz-adv-x="1212" 
d="M836 -410v451h-736l238 1085h65l-227 -1024h660v615h65v-615h287v-61h-287v-451h-65z" />
    <glyph glyph-name="five.osf" horiz-adv-x="1120" 
d="M98 -199l47 41q58 -105 164.5 -164t231.5 -59q183 0 306.5 120.5t123.5 299.5q0 182 -121.5 300t-306.5 118q-103 0 -190.5 -45.5t-143.5 -122.5l-43 24l-10 -2v815h815v-61h-750v-682q138 135 332 135q211 0 348 -135t137 -344q0 -205 -142 -343t-355 -138
q-140 0 -258 64t-185 179z" />
    <glyph glyph-name="six.osf" 
d="M1073 487q0 -228 -136 -374t-359 -146q-150 0 -265 69.5t-174 185.5t-59 259q0 89 16.5 166t50.5 144t64 112.5t78 106.5l465 587l51 -41l-447 -557q-94 -118 -120 -165l8 -5q127 152 348 152q209 0 344 -139.5t135 -354.5zM578 29q192 0 310 129.5t118 326.5
q0 192 -119 313.5t-309 121.5t-310.5 -121.5t-120.5 -313.5q0 -198 119 -327t312 -129z" />
    <glyph glyph-name="seven.osf" horiz-adv-x="1038" 
d="M27 1067v59h981l-691 -1562l-67 18l661 1485h-884z" />
    <glyph glyph-name="eight.osf" horiz-adv-x="1171" 
d="M1049 397q0 -192 -128.5 -311t-334.5 -119t-334.5 119t-128.5 311q0 152 91 259t239 135v4q-133 30 -212 130.5t-79 248.5q0 174 117.5 284.5t306.5 110.5q190 0 308 -110.5t118 -284.5q0 -149 -80 -249t-215 -130v-4q151 -30 241.5 -136t90.5 -258zM586 819
q162 0 261 95t99 253q0 150 -100 245t-260 95q-159 0 -259 -95t-100 -245q0 -157 99 -252.5t260 -95.5zM586 29q177 0 286 102.5t109 269.5q0 160 -109 259.5t-286 99.5q-175 0 -285.5 -100t-110.5 -259q0 -167 110 -269.5t286 -102.5z" />
    <glyph glyph-name="nine.osf" horiz-adv-x="1118" 
d="M1049 657q0 -88 -16 -164t-49.5 -142.5t-63 -111.5t-78.5 -108l-451 -582l-51 39l432 553q89 112 119 166l-8 4q-125 -151 -342 -151q-206 0 -340.5 138t-134.5 353q0 223 134 365.5t355 142.5q225 0 359.5 -143t134.5 -359zM133 653q0 -191 117.5 -311.5t304.5 -120.5
q189 0 308.5 120.5t119.5 311.5q0 192 -118.5 318.5t-309.5 126.5q-189 0 -305.5 -127t-116.5 -318z" />
    <glyph glyph-name="zero.tf" horiz-adv-x="1290" 
d="M645 -33q-215 0 -352 148t-146 377q-9 276 0 552q9 229 146 377t352 148t352 -148t146 -377q9 -276 0 -552q-9 -229 -146 -377t-352 -148zM645 1507q-188 0 -304.5 -128t-125.5 -330q-9 -281 0 -562q9 -201 125.5 -329.5t304.5 -128.5q187 0 304 128.5t126 329.5
q9 281 0 562q-9 202 -126 330t-304 128z" />
    <glyph glyph-name="one.tf" horiz-adv-x="1290" 
d="M180 61h484v1414h-435v61h500v-1475h426v-61h-975v61z" />
    <glyph glyph-name="two.tf" horiz-adv-x="1290" 
d="M174 27l565 628q59 64 99 113.5t85 115.5t68 131.5t23 127.5q0 158 -104 261t-265 103q-164 0 -275.5 -97t-142.5 -265l-59 16q35 193 163.5 300.5t315.5 107.5q190 0 312 -118.5t122 -303.5q0 -68 -24 -138.5t-70.5 -141t-91 -125.5t-107.5 -124l-501 -548v-9h833v-61
h-946v27z" />
    <glyph glyph-name="three.tf" horiz-adv-x="1290" 
d="M1114 420q0 -201 -134 -327t-349 -126q-172 0 -300.5 80.5t-180.5 226.5l49 33q54 -135 165.5 -206.5t266.5 -71.5q186 0 301 108.5t115 282.5q0 171 -117.5 274t-300.5 103q-81 0 -136.5 -9t-119.5 -34l-29 53l639 668h-758v61h842v-61l-631 -648v-2q84 31 207 31
q206 0 338.5 -121.5t132.5 -314.5z" />
    <glyph glyph-name="four.tf" horiz-adv-x="1290" 
d="M879 0v436h-752l195 1100h65l-184 -1038h676v628h65v-628h273v-62h-273v-436h-65z" />
    <glyph glyph-name="five.tf" horiz-adv-x="1290" 
d="M182 211l47 41q58 -104 166 -163.5t234 -59.5q183 0 306.5 120.5t123.5 299.5q0 183 -121 300t-309 117q-103 0 -191 -45.5t-145 -122.5l-43 25l-10 -2v815h821v-61h-756v-682q138 135 334 135q212 0 349.5 -135t137.5 -344q0 -205 -142 -343.5t-355 -138.5
q-142 0 -261 64.5t-186 179.5z" />
    <glyph glyph-name="six.tf" horiz-adv-x="1290" 
d="M666 -33q-196 0 -326.5 127.5t-142.5 319.5q-13 250 2 630q9 239 142 382t343 143q154 0 264.5 -80t167.5 -232l-57 -28q-49 135 -146 206.5t-231 71.5q-179 0 -294 -125.5t-122 -341.5q-10 -293 -10 -430q42 141 158.5 221t261.5 80q197 0 329 -135t132 -336
q0 -202 -135 -337.5t-336 -135.5zM666 29q172 0 287.5 118t115.5 291q0 177 -116 294.5t-287 117.5q-172 0 -287 -117t-115 -295q0 -174 115.5 -291.5t286.5 -117.5z" />
    <glyph glyph-name="seven.tf" horiz-adv-x="1290" 
d="M123 1475v61h1044v-27l-786 -1509h-72l768 1475h-954z" />
    <glyph glyph-name="eight.tf" horiz-adv-x="1290" 
d="M1124 397q0 -192 -132.5 -311t-346.5 -119t-346.5 119t-132.5 311q0 152 92.5 259t243.5 135v4q-136 30 -216.5 130.5t-80.5 248.5q0 174 122 284.5t318 110.5t319 -110.5t123 -284.5q0 -148 -82 -248.5t-219 -130.5v-4q153 -30 245.5 -136t92.5 -258zM645 819
q168 0 272.5 95.5t104.5 252.5q0 150 -105 245t-272 95t-271 -95t-104 -245q0 -158 103.5 -253t271.5 -95zM645 29q183 0 296.5 103t113.5 269q0 161 -113.5 260t-296.5 99t-296 -99t-113 -260q0 -166 113 -269t296 -103z" />
    <glyph glyph-name="nine.tf" horiz-adv-x="1290" 
d="M586 1569q203 0 336 -131.5t141 -329.5v-1108h-805v61h739v828q-48 -133 -164 -208t-258 -75q-201 0 -337 137.5t-136 341.5q0 206 138.5 345t345.5 139zM586 1507q-177 0 -296.5 -121t-119.5 -301q0 -178 119.5 -297.5t296.5 -119.5t294 119t117 298q0 180 -117 301
t-294 121z" />
    <glyph glyph-name="zero.dnom" horiz-adv-x="798" 
d="M399 -16q-131 0 -213 78t-90 202q-3 134 0 268q8 125 89.5 203t213.5 78t213.5 -78t87.5 -203q6 -134 0 -268q-6 -124 -88 -202t-213 -78zM399 758q-105 0 -169.5 -62t-69.5 -159q-6 -139 0 -277q5 -98 69 -159.5t170 -61.5q104 0 169 61.5t71 159.5q3 138 0 277
q-6 97 -71 159t-169 62z" />
    <glyph glyph-name="one.dnom" horiz-adv-x="649" 
d="M74 0v55h260v686h-252v56h313v-742h228v-55h-549z" />
    <glyph glyph-name="two.dnom" horiz-adv-x="686" 
d="M82 20l303 316q65 67 104 126.5t39 117.5q0 76 -51 127t-135 51q-82 0 -139 -47.5t-72 -130.5l-57 12q21 106 94 163.5t176 57.5q112 0 180 -65t68 -164q0 -67 -42.5 -134t-115.5 -141l-244 -248v-6h424v-55h-532v20z" />
    <glyph glyph-name="three.dnom" horiz-adv-x="684" 
d="M610 219q0 -103 -77 -169t-199 -66q-98 0 -168.5 40.5t-102.5 114.5l46 31q61 -131 223 -131q97 0 157 50t60 132t-61 131t-158 49q-73 0 -129 -20l-29 51l330 309h-396v56h474v-56l-324 -301v-4q52 15 100 15q108 0 181 -65t73 -167z" />
    <glyph glyph-name="four.dnom" horiz-adv-x="737" 
d="M479 0v219h-418l119 578h60l-107 -523h346v312h60v-312h151v-55h-151v-219h-60z" />
    <glyph glyph-name="five.dnom" horiz-adv-x="698" 
d="M78 109l41 38q35 -52 94.5 -80t128.5 -28q94 0 156.5 54t62.5 143t-62 143.5t-157 54.5q-111 0 -180 -76l-41 19l-6 -2v422h469v-56h-410v-317q82 63 178 63q119 0 196 -68.5t77 -182.5t-80.5 -183t-204.5 -69q-84 0 -153 33.5t-109 91.5z" />
    <glyph glyph-name="six.dnom" horiz-adv-x="768" 
d="M668 0h-545v524q0 133 80 211t211 78q186 0 256 -158l-54 -26q-54 129 -204 129q-100 0 -164 -60.5t-64 -165.5v-92h484v-440zM184 55h422v334h-422v-334z" />
    <glyph glyph-name="seven.dnom" horiz-adv-x="645" 
d="M41 741v56h586l-408 -797h-72l388 741h-494z" />
    <glyph glyph-name="eight.dnom" horiz-adv-x="727" 
d="M643 209q0 -101 -76.5 -163t-201.5 -62q-126 0 -203.5 62t-77.5 163q0 77 50 133t134 68v4q-74 12 -119 64.5t-45 125.5q0 94 72 151.5t189 57.5q114 0 186 -58t72 -151q0 -73 -45 -125.5t-119 -64.5v-4q84 -12 134 -68t50 -133zM365 434q88 0 142 45.5t54 120.5
q0 70 -54.5 115t-141.5 45q-88 0 -143.5 -45t-55.5 -115q0 -74 55 -120t144 -46zM365 39q96 0 156.5 47.5t60.5 126.5q0 75 -60.5 121.5t-156.5 46.5q-98 0 -158 -46.5t-60 -121.5q0 -79 59.5 -126.5t158.5 -47.5z" />
    <glyph glyph-name="nine.dnom" horiz-adv-x="737" 
d="M340 813q120 0 197 -72.5t77 -185.5v-555h-462v55h401v381q-29 -59 -90 -93t-135 -34q-114 0 -190.5 72.5t-76.5 179.5q0 108 79 180t200 72zM340 758q-92 0 -153.5 -56t-61.5 -141t61.5 -140.5t153.5 -55.5q91 0 152 56t61 140q0 85 -61 141t-152 56z" />
    </font>
</defs>
</svg>
