<?xml version="1.0" standalone="no"?>
<!DOCTYPE svg PUBLIC "-//W3C//DTD SVG 1.1//EN" "http://www.w3.org/Graphics/SVG/1.1/DTD/svg11.dtd" >
<svg xmlns="http://www.w3.org/2000/svg" xmlns:xlink="http://www.w3.org/1999/xlink" version="1.1">
<metadata>
Created by FontForge 20170731 at Thu Nov  2 11:36:52 2023
 By Aleksey,,,
Copyright supertype 2018, 2022, 2023, Juergen Huber. All rights reserved.
</metadata>
<defs>
<font id="NewMurabbaCyB15-Regular" horiz-adv-x="1105" >
  <font-face 
    font-family="New Murabba Cy B15"
    font-weight="400"
    font-stretch="normal"
    units-per-em="2048"
    panose-1="2 0 0 0 0 0 0 0 0 0"
    ascent="1577"
    descent="-471"
    x-height="1051"
    cap-height="1536"
    bbox="-375 -563 2347 2204"
    underline-thickness="143"
    underline-position="-449"
    unicode-range="U+0020-FB02"
  />
<missing-glyph horiz-adv-x="1185" 
d="M160 1536h866v-1536h-866v1536zM860 1395h-534v-1254h534v1254z" />
    <glyph glyph-name=".notdef" horiz-adv-x="1185" 
d="M160 1536h866v-1536h-866v1536zM860 1395h-534v-1254h534v1254z" />
    <glyph glyph-name=".null" horiz-adv-x="0" 
 />
    <glyph glyph-name="nonmarkingreturn" horiz-adv-x="682" 
 />
    <glyph glyph-name="space" unicode=" " horiz-adv-x="528" 
 />
    <glyph glyph-name="exclam" unicode="!" horiz-adv-x="532" 
d="M186 475v1061h164v-1061h-164zM264 -20q-46 0 -79 32.5t-33 79.5q0 46 33 78.5t79 32.5q45 0 78 -33t33 -78q0 -47 -33 -79.5t-78 -32.5z" />
    <glyph glyph-name="quotedbl" unicode="&#x22;" horiz-adv-x="757" 
d="M143 952l-14 584h166l-12 -584h-140zM475 952l-12 584h164l-13 -584h-139z" />
    <glyph glyph-name="numbersign" unicode="#" horiz-adv-x="1374" 
d="M266 0l41 387h-235v135h250l55 510h-238v135h252l39 369h148l-39 -369h376l39 369h150l-39 -369h235v-135h-249l-56 -510h238v-135h-252l-41 -387h-149l40 387h-376l-41 -387h-148zM469 522h377l55 510h-377z" />
    <glyph glyph-name="dollar" unicode="$" horiz-adv-x="1095" 
d="M287 1102q0 -71 43 -122t135 -89l299 -119q252 -103 252 -346q0 -160 -107.5 -257t-281.5 -112v-227h-150v227q-167 17 -265.5 104t-143.5 238l147 60q27 -116 116 -184t230 -68q126 0 204.5 54t78.5 161q0 68 -36.5 120.5t-133.5 90.5l-285 110q-270 105 -270 359
q0 139 99.5 233t258.5 111v223h150v-223q284 -36 368 -291l-147 -57q-30 99 -112.5 149.5t-196.5 50.5q-108 0 -180 -51t-72 -145z" />
    <glyph glyph-name="percent" unicode="%" horiz-adv-x="1783" 
d="M410 715q-149 0 -240.5 85.5t-97.5 223.5q-3 118 0 233q6 138 97.5 223t240.5 85q148 0 238.5 -85t96.5 -223q6 -115 0 -233q-6 -138 -96.5 -223.5t-238.5 -85.5zM348 0l942 1536h152l-942 -1536h-152zM410 1444q-85 0 -135.5 -48t-55.5 -126q-6 -130 0 -256
q5 -79 55.5 -126.5t135.5 -47.5q84 0 134.5 47.5t53.5 126.5q6 126 0 256q-3 78 -53.5 126t-134.5 48zM1376 -27q-149 0 -240.5 86t-97.5 224q-3 118 0 233q6 138 97.5 222.5t240.5 84.5q148 0 239 -84.5t97 -222.5q6 -115 0 -233q-6 -138 -97 -224t-239 -86zM1376 702
q-85 0 -135 -48t-55 -126q-6 -130 0 -256q5 -79 55 -126.5t135 -47.5q84 0 135 47.5t54 126.5q6 126 0 256q-3 78 -54 126t-135 48z" />
    <glyph glyph-name="ampersand" unicode="&#x26;" horiz-adv-x="1531" 
d="M1509 88l-104 -108l-379 376l-274 -276q-113 -113 -275 -113q-178 0 -287.5 110.5t-109.5 266.5q0 77 33 152t90 131l237 231q-107 41 -172 132.5t-65 213.5q0 159 108 262t273 103t273 -102.5t108 -262.5q0 -119 -63.5 -210t-168.5 -132l297 -297l326 326l102 -100
l-325 -328zM584 971q97 0 160 65.5t63 167.5q0 95 -63 157t-160 62q-99 0 -161.5 -61.5t-62.5 -157.5q0 -103 62 -168t162 -65zM242 354q0 -95 70 -164t173 -69q102 0 168 69l271 269l-340 338l-271 -267q-71 -74 -71 -176z" />
    <glyph glyph-name="quotesingle" unicode="'" horiz-adv-x="430" 
d="M143 952l-14 584h172l-12 -584h-146z" />
    <glyph glyph-name="parenleft" unicode="(" horiz-adv-x="509" 
d="M324 -246q-222 484 -222 1020q0 544 222 1008l118 -45q-196 -419 -196 -963q0 -535 196 -975z" />
    <glyph glyph-name="parenright" unicode=")" horiz-adv-x="507" 
d="M186 -246l-118 45q196 440 196 975q0 544 -196 963l118 45q222 -464 222 -1008q0 -536 -222 -1020z" />
    <glyph glyph-name="asterisk" unicode="*" horiz-adv-x="1122" 
d="M911 692l-120 -88l-226 328l-231 -326l-123 86l244 316l-383 118l47 142l377 -129l-7 397h150l-8 -397l375 129l49 -144l-385 -110z" />
    <glyph glyph-name="plus" unicode="+" 
d="M997 692h-372v-385h-148v385h-368v146h368v387h148v-387h372v-146z" />
    <glyph glyph-name="comma" unicode="," horiz-adv-x="432" 
d="M309 84q0 -15 -1.5 -29.5t-5 -30.5t-6.5 -26.5t-10 -28.5t-10 -25.5t-12 -29t-12 -27.5l-88 -200l-74 26l78 197q18 43 27 67q-40 6 -64.5 36t-24.5 73q0 44 28 74t71 30q50 0 77 -29t27 -77z" />
    <glyph glyph-name="hyphen" unicode="-" horiz-adv-x="980" 
d="M133 698v146h717v-146h-717z" />
    <glyph glyph-name="period" unicode="." horiz-adv-x="419" 
d="M209 -14q-42 0 -72.5 30t-30.5 72t30.5 72t72.5 30t72 -30t30 -72t-30 -72t-72 -30z" />
    <glyph glyph-name="slash" unicode="/" horiz-adv-x="872" 
d="M59 -205l615 1946h143l-614 -1946h-144z" />
    <glyph glyph-name="zero" unicode="0" horiz-adv-x="1347" 
d="M674 -33q-234 0 -383.5 155t-157.5 396q-6 251 0 502q8 241 157.5 395t383.5 154t382.5 -153.5t157.5 -395.5q6 -251 0 -502q-9 -242 -157.5 -396.5t-382.5 -154.5zM674 1419q-164 0 -263.5 -107.5t-107.5 -277.5q-9 -265 0 -528q8 -171 107.5 -278t263.5 -107
q161 0 260.5 107.5t107.5 277.5q12 264 0 528q-8 169 -107.5 277t-260.5 108z" />
    <glyph glyph-name="one" unicode="1" horiz-adv-x="1107" 
d="M92 150h451v1239h-393v147h561v-1386h374v-150h-993v150z" />
    <glyph glyph-name="two" unicode="2" horiz-adv-x="1124" 
d="M98 49l531 676q47 59 74 96.5t61 94.5t50.5 111.5t16.5 109.5q0 126 -76 205t-204 79q-123 0 -209 -89t-111 -238l-149 39q38 213 168 324.5t309 111.5q201 0 323 -115.5t122 -304.5q0 -67 -20 -135t-58.5 -135t-76.5 -119t-93 -119l-391 -483v-8h655v-150h-922v49z" />
    <glyph glyph-name="three" unicode="3" horiz-adv-x="1118" 
d="M1024 430q0 -203 -137 -333t-355 -130q-166 0 -284 77.5t-178 217.5l123 86q95 -227 337 -227q144 0 233 87.5t89 227.5q0 138 -89 221.5t-235 83.5q-65 0 -109 -9.5t-95 -33.5l-76 117l512 574h-619v147h822v-147l-488 -525q57 13 105 13q200 0 322 -126t122 -321z" />
    <glyph glyph-name="four" unicode="4" horiz-adv-x="1200" 
d="M762 0v406h-688l209 1130h159l-180 -983h500v573h166v-573h233v-147h-233v-406h-166z" />
    <glyph glyph-name="five" unicode="5" horiz-adv-x="1165" 
d="M96 215l117 98q52 -91 140.5 -142.5t199.5 -51.5q151 0 249.5 96t98.5 244t-97.5 242t-246.5 94q-167 0 -272 -127l-117 51v817h833v-147h-673v-521q115 76 264 76q213 0 347 -135.5t134 -349.5q0 -212 -146 -352t-374 -140q-153 0 -270.5 65.5t-186.5 182.5z" />
    <glyph glyph-name="six" unicode="6" horiz-adv-x="1198" 
d="M1126 489q0 -232 -142.5 -377t-375.5 -145q-122 0 -222.5 43t-164 114.5t-97.5 161t-34 185.5q0 91 16 169.5t49.5 147.5t68 121.5t87.5 118.5l455 569l121 -96l-387 -479q-46 -58 -119 -135l6 -6q97 102 275 102q196 0 330 -139.5t134 -354.5zM608 115q156 0 253 104.5
t97 263.5q0 158 -98 256.5t-252 98.5q-156 0 -254 -98.5t-98 -256.5q0 -160 97.5 -264t254.5 -104z" />
    <glyph glyph-name="seven" unicode="7" horiz-adv-x="1095" 
d="M49 1389v147h1018l-678 -1536h-184l622 1389h-778z" />
    <glyph glyph-name="eight" unicode="8" horiz-adv-x="1224" 
d="M1108 408q0 -195 -137.5 -318t-358.5 -123t-359 123t-138 318q0 144 78.5 247t201.5 136v6q-109 38 -175 133t-66 231q0 182 127 295t331 113t331.5 -113.5t127.5 -294.5q0 -135 -66.5 -229.5t-177.5 -134.5v-6q127 -34 204 -136t77 -247zM612 860q132 0 213.5 78
t81.5 207q0 122 -81.5 198t-213.5 76t-213.5 -76t-81.5 -198q0 -129 81.5 -207t213.5 -78zM612 119q145 0 234.5 83t89.5 218q0 133 -89.5 214t-234.5 81q-146 0 -235.5 -81t-89.5 -214q0 -135 89.5 -218t235.5 -83z" />
    <glyph glyph-name="nine" unicode="9" horiz-adv-x="1187" 
d="M1124 1069q0 -92 -16.5 -171t-50 -149t-67.5 -122t-87 -119l-454 -569l-123 96l389 479q68 81 116 135l-6 6q-99 -102 -272 -102q-196 0 -330.5 139.5t-134.5 354.5q0 232 142.5 377t375.5 145q123 0 223 -41.5t163.5 -111.5t97.5 -159t34 -188zM256 1053
q0 -158 97.5 -256.5t252.5 -98.5t252.5 98.5t97.5 256.5q0 160 -97 264t-253 104q-157 0 -253.5 -104.5t-96.5 -263.5z" />
    <glyph glyph-name="colon" unicode=":" horiz-adv-x="460" 
d="M231 862q-41 0 -71.5 30t-30.5 73q0 42 30 72t72 30t72.5 -30t30.5 -72t-30.5 -72.5t-72.5 -30.5zM231 -14q-42 0 -72 30t-30 72t30 72t72 30t72.5 -30t30.5 -72t-30.5 -72t-72.5 -30z" />
    <glyph glyph-name="semicolon" unicode=";" horiz-adv-x="456" 
d="M227 862q-41 0 -71.5 30t-30.5 73q0 42 30 72t72 30t72.5 -30t30.5 -72t-30.5 -72.5t-72.5 -30.5zM328 84q0 -18 -2.5 -36.5t-5.5 -31.5t-10.5 -33.5t-11 -29.5t-14.5 -34t-14 -32l-88 -200l-73 26l77 197q18 43 27 67q-40 6 -64 36t-24 73q0 45 27.5 74.5t70.5 29.5
q50 0 77.5 -29t27.5 -77z" />
    <glyph glyph-name="less" unicode="&#x3c;" 
d="M975 305l-889 393v138l889 395v-154l-696 -309l696 -305v-158z" />
    <glyph glyph-name="equal" unicode="=" 
d="M109 909v144h888v-144h-888zM109 473v143h888v-143h-888z" />
    <glyph glyph-name="greater" unicode="&#x3e;" 
d="M131 1233l889 -393v-138l-889 -395v154l696 309l-696 305v158z" />
    <glyph glyph-name="question" unicode="?" horiz-adv-x="972" 
d="M412 475v350q134 52 221.5 146.5t87.5 206.5q0 109 -64 177t-178 68q-116 0 -190.5 -75.5t-81.5 -210.5l-144 30q14 182 128.5 292t293.5 110q185 0 294.5 -107t109.5 -278q0 -142 -88.5 -252t-225.5 -178v-279h-163zM494 -20q-46 0 -79.5 32.5t-33.5 79.5
q0 46 33.5 78.5t79.5 32.5q44 0 77 -32.5t33 -78.5q0 -47 -32.5 -79.5t-77.5 -32.5z" />
    <glyph glyph-name="at" unicode="@" horiz-adv-x="1722" 
d="M600 121v457h461v59q0 86 -51 135t-142 49q-121 0 -194 -92l-94 102q117 130 305 130q148 0 233.5 -86.5t85.5 -237.5v-377q115 2 187.5 114.5t72.5 303.5q0 221 -158.5 365.5t-416.5 144.5q-199 0 -345 -85t-220 -233.5t-74 -341.5q0 -187 74 -334t219 -233t340 -86
q211 0 360 90l57 -129q-160 -106 -417 -106q-231 0 -412 101t-282 283t-101 414q0 233 100.5 416t283.5 285t417 102q165 0 304 -49t234 -135.5t148 -206t53 -258.5q0 -260 -126 -410.5t-365 -150.5h-537zM743 258h318v191h-318v-191z" />
    <glyph glyph-name="A" unicode="A" horiz-adv-x="1357" 
d="M37 0l534 1536h213l535 -1536h-180l-142 422h-645l-141 -422h-174zM674 1372l-271 -803h545l-266 803h-8z" />
    <glyph glyph-name="B" unicode="B" horiz-adv-x="1284" 
d="M1186 406q0 -171 -125.5 -288.5t-321.5 -117.5h-561v1536h533q193 0 314.5 -111.5t121.5 -283.5q0 -120 -69 -216.5t-187 -131.5q142 -36 218.5 -142t76.5 -245zM346 1389v-537h359q117 0 194.5 78t77.5 188q0 116 -78 193.5t-207 77.5h-346zM721 147q131 0 212 80.5
t81 200.5q0 116 -80.5 197.5t-200.5 81.5h-387v-560h375z" />
    <glyph glyph-name="C" unicode="C" horiz-adv-x="1536" 
d="M1493 1257l-117 -96q-84 120 -215.5 188t-286.5 68q-174 0 -314 -84t-219 -232.5t-79 -332.5t79 -332t219 -231.5t314 -83.5q154 0 283.5 67.5t214.5 186.5l113 -101q-102 -144 -260 -225.5t-351 -81.5q-226 0 -405.5 104t-279 287t-99.5 410q0 170 59.5 318.5t163 254.5
t249 167t312.5 61q194 0 354.5 -83t264.5 -229z" />
    <glyph glyph-name="D" unicode="D" horiz-adv-x="1558" 
d="M678 0h-500v1536h500q177 0 323 -54t248.5 -152t158.5 -241.5t56 -318.5q0 -235 -97 -409.5t-275 -267.5t-414 -93zM678 150q283 0 448.5 165.5t165.5 454.5t-165.5 454t-448.5 165h-332v-1239h332z" />
    <glyph glyph-name="E" unicode="E" horiz-adv-x="1157" 
d="M178 0v1536h866v-147h-698v-537h658v-147h-658v-555h709v-150h-877z" />
    <glyph glyph-name="F" unicode="F" horiz-adv-x="1101" 
d="M178 0v1536h866v-147h-698v-590h647v-146h-647v-653h-168z" />
    <glyph glyph-name="G" unicode="G" horiz-adv-x="1687" 
d="M801 629v149h811q6 -15 6 -69q-1 -219 -92 -387t-260.5 -261.5t-393.5 -93.5q-170 0 -316 61t-248 167t-160 254.5t-58 318.5t59 318.5t162 254.5t248 167t311 61q197 0 358.5 -83t264.5 -231l-115 -94q-86 122 -218 190t-290 68q-173 0 -312.5 -84.5t-217.5 -233.5
t-78 -333t77 -331.5t216.5 -231.5t316.5 -84q244 0 397 138t175 370h-643z" />
    <glyph glyph-name="H" unicode="H" horiz-adv-x="1478" 
d="M178 0v1536h168v-690h787v690h167v-1536h-167v696h-787v-696h-168z" />
    <glyph glyph-name="I" unicode="I" horiz-adv-x="944" 
d="M59 0v150h330v1239h-317v147h798v-147h-313v-1239h328v-150h-826z" />
    <glyph glyph-name="J" unicode="J" horiz-adv-x="1200" 
d="M25 256l133 82q43 -102 133 -159.5t207 -57.5q165 0 266.5 103.5t101.5 271.5v893h-727v147h895v-1026q0 -244 -148 -393.5t-388 -149.5q-166 0 -287.5 76t-185.5 213z" />
    <glyph glyph-name="K" unicode="K" horiz-adv-x="1226" 
d="M1214 1536l-550 -774l555 -762h-197l-498 688h-178v-688h-168v1536h168v-702h180l496 702h192z" />
    <glyph glyph-name="L" unicode="L" horiz-adv-x="1034" 
d="M178 0v1536h168v-1386h662v-150h-830z" />
    <glyph glyph-name="M" unicode="M" horiz-adv-x="1830" 
d="M991 389h-149l-488 864h-8v-1253h-168v1536h211l529 -948h8l524 948h203v-1536h-168v1253h-8z" />
    <glyph glyph-name="N" unicode="N" horiz-adv-x="1523" 
d="M1343 0h-180l-809 1241h-8v-1241h-168v1536h184l807 -1241h9v1241h165v-1536z" />
    <glyph glyph-name="O" unicode="O" horiz-adv-x="1738" 
d="M870 -33q-224 0 -402.5 104t-278 287t-99.5 410q0 170 59 318.5t161.5 254.5t247.5 167t312 61q221 0 400 -104t280 -287.5t101 -409.5t-101 -409.5t-280 -287.5t-400 -104zM870 121q175 0 314 83.5t217 231.5t78 332t-78 332.5t-217.5 232.5t-313.5 84t-313.5 -84
t-217 -232.5t-77.5 -332.5t77.5 -332t217 -231.5t313.5 -83.5z" />
    <glyph glyph-name="P" unicode="P" horiz-adv-x="1294" 
d="M739 1536q220 0 361 -134.5t141 -342.5q0 -207 -141 -342t-361 -135h-393v-582h-168v1536h561zM723 727q154 0 250 93.5t96 236.5q0 147 -95.5 239.5t-250.5 92.5h-377v-662h377z" />
    <glyph glyph-name="Q" unicode="Q" horiz-adv-x="1738" 
d="M870 -33q-224 0 -402.5 104t-278 287t-99.5 410q0 170 59 318.5t161.5 254.5t247.5 167t312 61q221 0 400 -104t280 -287.5t101 -409.5q0 -224 -99 -405.5t-272 -284.5l199 -334l-146 -78l-194 346q-127 -45 -269 -45zM870 121q96 0 191 29l-205 348l150 80l196 -363
q130 86 203.5 230t73.5 323q0 184 -78 332.5t-217.5 232.5t-313.5 84t-313.5 -84t-217 -232.5t-77.5 -332.5t77.5 -332t217 -231.5t313.5 -83.5z" />
    <glyph glyph-name="R" unicode="R" horiz-adv-x="1323" 
d="M1036 0l-383 633h-307v-633h-168v1536h549q219 0 358.5 -129t139.5 -322q0 -168 -106.5 -289.5t-282.5 -152.5l399 -643h-199zM711 780q155 0 248.5 88.5t93.5 214.5q0 131 -93 218.5t-249 87.5h-365v-609h365z" />
    <glyph glyph-name="S" unicode="S" horiz-adv-x="1136" 
d="M305 1198q0 -90 49.5 -149.5t161.5 -122.5l236 -140q142 -83 213 -179.5t71 -225.5q0 -188 -127 -301t-340 -113q-109 0 -197.5 34t-148 95t-95.5 141.5t-48 176.5l149 43q9 -66 34.5 -124.5t67 -107t105.5 -76.5t142 -28q134 0 210 70t76 186q0 159 -202 274l-220 129
q-60 35 -100 62t-82.5 65t-67 76.5t-40 91.5t-15.5 115q0 162 116.5 270.5t311.5 108.5q187 0 302.5 -93.5t152.5 -265.5l-146 -43q-30 125 -111 188.5t-204 63.5q-117 0 -185.5 -61.5t-68.5 -159.5z" />
    <glyph glyph-name="T" unicode="T" horiz-adv-x="1079" 
d="M457 0v1389h-432v147h1028v-147h-428v-1389h-168z" />
    <glyph glyph-name="U" unicode="U" horiz-adv-x="1445" 
d="M178 1536h168v-1386h754v1386h168v-1536h-1090v1536z" />
    <glyph glyph-name="V" unicode="V" horiz-adv-x="1355" 
d="M1319 1536l-535 -1536h-213l-534 1536h180l457 -1372h8l463 1372h174z" />
    <glyph glyph-name="W" unicode="W" horiz-adv-x="1929" 
d="M1305 0l-342 1206h-9l-325 -1206h-193l-379 1536h183l295 -1260h8l336 1260h159l351 -1260h8l295 1260h178l-377 -1536h-188z" />
    <glyph glyph-name="X" unicode="X" horiz-adv-x="1179" 
d="M584 653l-381 -653h-185l474 768l-459 768h184l367 -651h8l373 651h184l-461 -760l473 -776h-184l-385 653h-8z" />
    <glyph glyph-name="Y" unicode="Y" horiz-adv-x="1308" 
d="M569 0v594l-528 942h190l420 -774h8l424 774h187l-533 -942v-594h-168z" />
    <glyph glyph-name="Z" unicode="Z" horiz-adv-x="1067" 
d="M68 1389v147h958l-737 -1386h717v-150h-971l739 1389h-706z" />
    <glyph glyph-name="bracketleft" unicode="[" horiz-adv-x="610" 
d="M182 -205v1946h387v-123h-250v-1700h250v-123h-387z" />
    <glyph glyph-name="backslash" unicode="\" horiz-adv-x="872" 
d="M813 -205h-143l-615 1946h144z" />
    <glyph glyph-name="bracketright" unicode="]" horiz-adv-x="610" 
d="M428 -205h-387v123h250v1700h-250v123h387v-1946z" />
    <glyph glyph-name="asciicircum" unicode="^" 
d="M274 840h-165l360 696h164l366 -696h-170l-280 540z" />
    <glyph glyph-name="underscore" unicode="_" horiz-adv-x="2306" 
d="M385 0v96h1536v-96h-1536z" />
    <glyph glyph-name="grave" unicode="`" horiz-adv-x="628" 
d="M518 1266h-166l-258 338h203z" />
    <glyph glyph-name="a" unicode="a" horiz-adv-x="1083" 
d="M82 283q0 148 106.5 236.5t280.5 88.5q198 0 301 -112h8q-6 66 -6 163q0 129 -76.5 204t-208.5 75q-174 0 -288 -127l-93 107q140 165 400 165q198 0 313 -112t115 -305v-666h-162v27q0 23 4 77h-8q-32 -59 -115.5 -98t-187.5 -39q-171 0 -277 86t-106 230zM504 113
q121 0 191.5 48t70.5 130t-70 129t-192 47q-119 0 -187.5 -47t-68.5 -129t69 -130t187 -48z" />
    <glyph glyph-name="b" unicode="b" horiz-adv-x="1357" 
d="M1274 526q0 -245 -149.5 -402t-393.5 -157q-140 0 -253 58t-163 159h-6q6 -49 6 -114v-70h-153v1536h164v-547q0 -64 -7 -115h7q51 92 163.5 150.5t239.5 58.5q161 0 286 -72t192 -198.5t67 -286.5zM713 115q169 0 281 117t112 294q0 179 -112 295.5t-281 116.5
q-172 0 -283 -116t-111 -296q0 -178 111.5 -294.5t282.5 -116.5z" />
    <glyph glyph-name="c" unicode="c" horiz-adv-x="1126" 
d="M1071 868l-102 -102q-55 80 -139 126t-189 46q-170 0 -280.5 -116t-110.5 -296q0 -177 110.5 -294t280.5 -117q109 0 194.5 50t141.5 134l100 -98q-68 -106 -183 -170t-253 -64q-162 0 -290 73t-198.5 200.5t-70.5 285.5q0 239 160 398t399 159q134 0 245 -56.5
t185 -158.5z" />
    <glyph glyph-name="d" unicode="d" horiz-adv-x="1359" 
d="M86 526q0 160 67 286.5t192 198.5t286 72q130 0 241 -53t160 -143h6q-4 58 -4 112v537h162v-1536h-152v86q0 59 7 113h-7q-53 -112 -163.5 -172t-251.5 -60q-244 0 -393.5 157t-149.5 402zM647 117q171 0 282 116t111 293q0 179 -111 295.5t-282 116.5q-169 0 -281 -117
t-112 -295q0 -177 112 -293t281 -116z" />
    <glyph glyph-name="e" unicode="e" horiz-adv-x="1226" 
d="M1069 178q-77 -103 -187 -157t-245 -54q-157 0 -284.5 73t-199 201t-71.5 285t71.5 284.5t198.5 200t283 72.5q228 0 373 -158.5t145 -398.5q0 -39 -4 -71h-895q22 -153 126.5 -246.5t258.5 -93.5q205 0 334 161zM633 938q-152 0 -255.5 -94.5t-123.5 -249.5h735
q-9 151 -107 247.5t-249 96.5z" />
    <glyph glyph-name="f" unicode="f" horiz-adv-x="663" 
d="M76 907v144h125v137q0 178 91.5 269t262.5 91q77 0 121 -12v-145q-30 12 -94 12q-104 0 -160.5 -57t-56.5 -172v-123h280v-144h-280v-907h-164v907h-125z" />
    <glyph glyph-name="g" unicode="g" horiz-adv-x="1337" 
d="M84 541q0 236 147.5 389t376.5 153q152 0 263 -62.5t151 -158.5h6q-4 66 -4 111v78h152v-1522h-789v145h625v435q0 59 6 112h-6q-36 -94 -144 -158.5t-254 -64.5q-229 0 -379.5 154t-150.5 389zM635 938q-165 0 -274 -112t-109 -283t109 -283.5t274 -112.5
q167 0 276 112.5t109 283.5q0 172 -109 283.5t-276 111.5z" />
    <glyph glyph-name="h" unicode="h" horiz-adv-x="1187" 
d="M326 0h-164v1536h164v-485h700v-1051h-164v907h-536v-907z" />
    <glyph glyph-name="i" unicode="i" horiz-adv-x="489" 
d="M244 1247q-44 0 -74.5 30.5t-30.5 76.5q0 43 30.5 72.5t74.5 29.5q43 0 73.5 -29.5t30.5 -72.5q0 -45 -30.5 -76t-73.5 -31zM326 0h-164v1051h164v-1051z" />
    <glyph glyph-name="j" unicode="j" horiz-adv-x="505" 
d="M260 1247q-44 0 -74 30.5t-30 76.5q0 43 30 72.5t74 29.5q43 0 74 -30t31 -72q0 -45 -31 -76t-74 -31zM342 -471h-436v145h272v1377h164v-1522z" />
    <glyph glyph-name="k" unicode="k" horiz-adv-x="1048" 
d="M829 0l-325 459h-178v-459h-164v1536h164v-934h180l303 449h195l-355 -521l383 -530h-203z" />
    <glyph glyph-name="l" unicode="l" horiz-adv-x="647" 
d="M162 0v1536h164v-1391h303v-145h-467z" />
    <glyph glyph-name="m" unicode="m" horiz-adv-x="1808" 
d="M162 0v1051h1483v-1051h-164v907h-496v-907h-164v907h-495v-907h-164z" />
    <glyph glyph-name="n" unicode="n" horiz-adv-x="1187" 
d="M162 1051h864v-1051h-164v907h-536v-907h-164v1051z" />
    <glyph glyph-name="o" unicode="o" horiz-adv-x="1273" 
d="M637 -33q-158 0 -285.5 73t-198.5 200.5t-71 285.5q0 239 158.5 398t396.5 159t396.5 -159t158.5 -398q0 -157 -71.5 -285t-199 -201t-284.5 -73zM637 115q168 0 278.5 117t110.5 294q0 179 -110 295.5t-279 116.5q-168 0 -277.5 -116.5t-109.5 -295.5
q0 -178 109.5 -294.5t277.5 -116.5z" />
    <glyph glyph-name="p" unicode="p" horiz-adv-x="1357" 
d="M1274 526q0 -160 -69 -287.5t-194 -199.5t-282 -72q-140 0 -250 56t-153 149h-7q7 -47 7 -111v-532h-164v1522h153v-72q0 -65 -6 -111h6q56 94 167 154.5t255 60.5q234 0 385.5 -157.5t151.5 -399.5zM715 938q-172 0 -284 -116.5t-112 -295.5q0 -178 112 -294.5
t284 -116.5q168 0 279.5 116.5t111.5 294.5t-111.5 295t-279.5 117z" />
    <glyph glyph-name="q" unicode="q" horiz-adv-x="1357" 
d="M84 526q0 242 152.5 399.5t388.5 157.5q147 0 255 -57.5t162 -163.5h7q-7 58 -7 111v78h152v-1522h-162v557q0 78 4 113h-6q-43 -107 -152 -169.5t-251 -62.5q-237 0 -390 158t-153 401zM645 938q-169 0 -281 -117t-112 -295t112 -294.5t281 -116.5q171 0 282 116
t111 295t-111 295.5t-282 116.5z" />
    <glyph glyph-name="r" unicode="r" horiz-adv-x="661" 
d="M162 1051h471v-146h-307v-905h-164v1051z" />
    <glyph glyph-name="s" unicode="s" horiz-adv-x="876" 
d="M268 799q0 -56 36.5 -93.5t119.5 -76.5l139 -64q111 -50 169.5 -119t58.5 -178q0 -133 -98 -217t-261 -84q-150 0 -246 78.5t-123 196.5l130 69q16 -82 83 -141t166 -59q84 0 134.5 41t50.5 116q0 54 -38 94t-122 78l-129 60q-112 51 -170.5 118.5t-58.5 178.5
q0 123 92.5 204.5t234.5 81.5q134 0 225 -65.5t130 -171.5l-123 -68q-26 74 -85.5 120t-142.5 46q-76 0 -124 -41t-48 -104z" />
    <glyph glyph-name="t" unicode="t" horiz-adv-x="737" 
d="M557 -20q-179 0 -276 96t-97 276v555h-127v144h127v280h164v-280h352v-144h-352v-538q0 -118 61.5 -179t172.5 -61q56 0 94 14v-143q-52 -20 -119 -20z" />
    <glyph glyph-name="u" unicode="u" horiz-adv-x="1175" 
d="M1014 0h-852v1051h164v-906h524v906h164v-1051z" />
    <glyph glyph-name="v" unicode="v" horiz-adv-x="1079" 
d="M647 0h-213l-397 1051h182l318 -906h8l319 906h178z" />
    <glyph glyph-name="w" unicode="w" horiz-adv-x="1634" 
d="M1585 1051l-276 -1051h-240l-250 907h-8l-250 -907h-229l-285 1051h174l223 -906h9l241 906h248l242 -906h8l223 906h170z" />
    <glyph glyph-name="x" unicode="x" horiz-adv-x="1030" 
d="M410 532l-377 519h196l283 -412h8l285 412h190l-374 -519l378 -532h-192l-293 426h-8l-287 -426h-190z" />
    <glyph glyph-name="y" unicode="y" horiz-adv-x="1087" 
d="M520 -471h-321v145h211l114 338h-71l-430 1039h178l356 -891h10l234 671l73 220h173z" />
    <glyph glyph-name="z" unicode="z" horiz-adv-x="944" 
d="M78 907v144h821l-582 -906h549v-145h-821l586 907h-553z" />
    <glyph glyph-name="braceleft" unicode="{" horiz-adv-x="546" 
d="M455 1741v-123h-111q-93 0 -78 -78l117 -551q34 -161 -74 -194l-26 -9v-10l26 -8q104 -32 74 -199l-104 -569q-15 -82 65 -82h111v-123h-119q-111 0 -162 57.5t-29 165.5l107 570q23 131 -94 131h-74v123h74q63 0 84.5 36.5t9.5 94.5l-117 543q-22 103 33 164t168 61h119
z" />
    <glyph glyph-name="bar" unicode="|" horiz-adv-x="501" 
d="M182 -205v1946h137v-1946h-137z" />
    <glyph glyph-name="braceright" unicode="}" horiz-adv-x="546" 
d="M92 1741h119q113 0 168 -61t33 -164l-117 -543q-12 -58 9.5 -94.5t84.5 -36.5h74v-123h-74q-117 0 -94 -131l106 -570q22 -108 -28.5 -165.5t-161.5 -57.5h-119v123h111q80 0 65 82l-104 569q-30 167 74 199l26 8v10l-26 9q-108 33 -74 194l117 551q15 78 -78 78h-111
v123z" />
    <glyph glyph-name="asciitilde" unicode="~" horiz-adv-x="1267" 
d="M1169 1536q17 -220 -53 -332t-201 -112q-38 0 -68 7t-60 24.5t-48 31t-53 43.5l-147 123l-28 24.5t-30.5 25.5t-27.5 19.5t-33.5 16t-34.5 4.5q-134 0 -119 -295h-141q-18 218 54 331.5t206 113.5q35 0 64 -7t58.5 -25t47 -31.5t53.5 -43.5l146 -125q7 -6 26.5 -23.5
t30 -25t28 -19t34.5 -16t36 -4.5q138 0 117 295h143z" />
    <glyph glyph-name="uni00A0" unicode="&#xa0;" horiz-adv-x="528" 
 />
    <glyph glyph-name="exclamdown" unicode="&#xa1;" horiz-adv-x="483" 
d="M246 1085q46 0 79 -32.5t33 -79.5q0 -46 -33 -78.5t-79 -32.5q-45 0 -78 33t-33 78q0 47 33 79.5t78 32.5zM324 590v-1061h-164v1061h164z" />
    <glyph glyph-name="cent" unicode="&#xa2;" horiz-adv-x="1153" 
d="M1075 1106l-102 -102q-55 80 -139 126t-189 46q-170 0 -280.5 -116t-110.5 -296q0 -178 110.5 -295t280.5 -117q109 0 194.5 50.5t141.5 134.5l100 -99q-60 -95 -158 -156t-218 -73v-209h-148v211q-212 29 -341.5 181.5t-129.5 371.5q0 217 132.5 369.5t340.5 181.5v221
h148v-219q114 -10 208 -65t160 -146z" />
    <glyph glyph-name="sterling" unicode="&#xa3;" 
d="M111 147q78 76 133 191t55 242v26h-193v142h164q-11 38 -43 131t-48.5 163t-16.5 134q0 170 115.5 281.5t312.5 111.5q159 0 266.5 -79t169.5 -206l-127 -80q-42 91 -115 152t-182 61q-135 0 -202.5 -72.5t-65.5 -191.5q0 -51 19 -118t51 -154t45 -133h477v-142h-455
q-3 -247 -174 -459h707v-147h-893v147z" />
    <glyph glyph-name="currency" unicode="&#xa4;" horiz-adv-x="1296" 
d="M111 299l170 170q-82 119 -82 262t82 262l-170 170l106 107l170 -170q116 80 262 80t262 -80l166 168l105 -107l-164 -168q80 -116 80 -262t-82 -262l166 -166l-105 -108l-166 167q-115 -79 -262 -79t-262 79l-170 -169zM365 731q0 -128 80.5 -212.5t203.5 -84.5
q121 0 202 84.5t81 212.5q0 129 -80.5 214t-202.5 85q-120 0 -200.5 -85t-83.5 -214z" />
    <glyph glyph-name="yen" unicode="&#xa5;" horiz-adv-x="1343" 
d="M223 242v133h365v174h-365v135h314l-478 852h191l420 -774h8l424 774h186l-481 -852h305v-135h-356v-174h356v-133h-356v-242h-168v242h-365z" />
    <glyph glyph-name="brokenbar" unicode="&#xa6;" horiz-adv-x="501" 
d="M319 946h-137v795h137v-795zM182 -205v823h137v-823h-137z" />
    <glyph glyph-name="section" unicode="&#xa7;" horiz-adv-x="1120" 
d="M922 70q0 -140 -104 -226t-265 -86q-164 0 -279 93t-145 260l143 55q23 -127 97 -192.5t186 -65.5q86 0 142.5 41.5t56.5 116.5q0 31 -11 56.5t-38.5 50.5t-48 39.5t-64.5 43.5l-316 197q-46 29 -74.5 51t-58.5 57t-44.5 82.5t-14.5 108.5q0 108 67.5 188.5t186.5 93.5
q-2 1 -18 15t-19 16.5t-17.5 15.5t-18 18t-14.5 19t-14.5 23t-11 24t-9.5 29t-4.5 32t-2.5 38q0 130 93 217.5t247 87.5q141 0 250 -81t159 -251l-133 -53q-51 134 -116.5 185.5t-159.5 51.5q-83 0 -127.5 -40.5t-44.5 -112.5q0 -35 11 -62.5t37.5 -52.5t49 -40.5
t64.5 -41.5l325 -199q86 -53 134.5 -120t48.5 -164q0 -116 -69.5 -194t-186.5 -85q30 -24 48 -42t40 -47.5t32.5 -67t10.5 -82.5zM354 600l246 -158q39 -26 88 -28.5t91 14.5t71 55.5t29 89.5q0 55 -24 92.5t-79 71.5l-237 152q-70 38 -133.5 34.5t-108.5 -48t-45 -111.5
q0 -62 22 -95.5t80 -68.5z" />
    <glyph glyph-name="dieresis" unicode="&#xa8;" horiz-adv-x="897" 
d="M236 1251q-45 0 -78 33t-33 78q0 43 33.5 74.5t77.5 31.5t75 -31.5t31 -74.5q0 -46 -31 -78.5t-75 -32.5zM664 1251q-43 0 -76 33t-33 78q0 42 33 74t76 32q44 0 76 -31.5t32 -74.5q0 -46 -32 -78.5t-76 -32.5z" />
    <glyph glyph-name="copyright" unicode="&#xa9;" horiz-adv-x="1775" 
d="M887 -33q-172 0 -320.5 60t-253 165.5t-164 255t-59.5 322.5q0 172 59.5 320.5t164 253.5t253 165t320.5 60q173 0 321.5 -60t253.5 -165t164.5 -253.5t59.5 -320.5q0 -174 -59.5 -323t-164.5 -254.5t-253.5 -165.5t-321.5 -60zM887 117q184 0 330.5 83.5t228.5 233
t82 336.5q0 186 -82 334.5t-228.5 231.5t-330.5 83t-330.5 -83t-228.5 -231.5t-82 -334.5q0 -187 82 -336.5t228.5 -233t330.5 -83.5zM1257 1024l-112 -88q-89 139 -252 139q-122 0 -202.5 -85.5t-80.5 -217.5q0 -131 80.5 -215t202.5 -84q83 0 148 37.5t106 103.5l113 -90
q-59 -96 -153 -148t-214 -52q-197 0 -320.5 125.5t-123.5 320.5q0 196 126 323.5t318 127.5q117 0 213 -51.5t151 -145.5z" />
    <glyph glyph-name="ordfeminine" unicode="&#xaa;" horiz-adv-x="849" 
d="M100 1014q0 102 71.5 164.5t190.5 62.5q80 0 123.5 -15t79.5 -48h8q-2 33 -2 90q0 79 -48.5 124.5t-135.5 45.5q-124 0 -201 -86l-69 98q103 119 289 119q141 0 225 -81t84 -216v-463h-144v12q0 7 2 22t2 27h-8q-54 -84 -211 -84q-118 0 -187 62.5t-69 165.5zM410 905
q70 0 114.5 30.5t44.5 80.5q0 51 -44 80.5t-115 29.5q-73 0 -116.5 -29t-43.5 -81q0 -51 44 -81t116 -30z" />
    <glyph glyph-name="guillemetleft" unicode="&#xab;" horiz-adv-x="1110" 
d="M86 614l338 492l113 -68l-291 -422l291 -423l-113 -70zM557 614l338 492l113 -68l-291 -422l291 -423l-113 -70z" />
    <glyph glyph-name="logicalnot" unicode="&#xac;" 
d="M985 354h-145v379h-744v146h889v-525z" />
    <glyph glyph-name="hyphensoft" unicode="&#xad;" horiz-adv-x="980" 
d="M133 698v146h717v-146h-717z" />
    <glyph glyph-name="registered" unicode="&#xae;" horiz-adv-x="1024" 
d="M512 719q-186 0 -304 119t-118 305q0 188 118 307t304 119q187 0 305.5 -119t118.5 -307q0 -186 -118.5 -305t-305.5 -119zM512 829q134 0 219.5 88.5t85.5 227.5q0 137 -86 226t-219 89q-134 0 -219.5 -89t-85.5 -226q0 -140 85 -228t220 -88zM588 934l-99 160h-36v-160
h-107v430h205q62 0 103.5 -39.5t41.5 -99.5q0 -44 -26 -77.5t-68 -45.5l105 -168h-119zM524 1176q28 0 45 13.5t17 35.5q0 20 -17 33.5t-45 13.5h-71v-96h71z" />
    <glyph glyph-name="macron" unicode="&#xaf;" horiz-adv-x="724" 
d="M86 1266v137h553v-137h-553z" />
    <glyph glyph-name="degree" unicode="&#xb0;" horiz-adv-x="1015" 
d="M508 719q-186 0 -306 120t-120 306q0 184 120.5 304t305.5 120q186 0 307 -119t121 -305t-121 -306t-307 -120zM508 852q123 0 201.5 82.5t78.5 210.5q0 126 -78.5 208.5t-201.5 82.5q-124 0 -202.5 -82t-78.5 -209q0 -128 78 -210.5t203 -82.5z" />
    <glyph glyph-name="plusminus" unicode="&#xb1;" 
d="M997 831h-372v-366h-148v366h-368v146h368v369h148v-369h372v-146zM109 174v143h888v-143h-888z" />
    <glyph glyph-name="two.superior" unicode="&#xb2;" horiz-adv-x="739" 
d="M78 739l321 363q103 99 103 184q0 62 -39.5 101.5t-104.5 39.5t-109 -44.5t-56 -120.5l-132 32q23 131 106 194.5t198 63.5q130 0 208 -70.5t78 -181.5q0 -67 -35.5 -127.5t-99.5 -130.5l-197 -211v-6h351v-127h-592v41z" />
    <glyph glyph-name="three.superior" unicode="&#xb3;" horiz-adv-x="722" 
d="M657 936q0 -111 -87.5 -183.5t-229.5 -72.5q-203 0 -287 154l105 73q58 -98 180 -98q78 0 125 36t47 97q0 63 -48 100t-126 37q-69 0 -113 -24l-71 108l282 246h-340v127h520v-127l-266 -225v-8q24 8 58 8q105 0 178 -72.5t73 -175.5z" />
    <glyph glyph-name="acute" unicode="&#xb4;" horiz-adv-x="628" 
d="M102 1266l222 338h202l-260 -338h-164z" />
    <glyph glyph-name="mu.math" unicode="&#xb5;" horiz-adv-x="1181" 
d="M326 -4v-467h-164v1522h164v-654q0 -125 77 -201.5t199 -76.5q120 0 194 76t74 202v654h164v-658q0 -184 -110.5 -303t-284.5 -119q-131 0 -210.5 43.5t-102.5 98.5h-7q7 -54 7 -117z" />
    <glyph glyph-name="paragraph" unicode="&#xb6;" horiz-adv-x="1331" 
d="M63 1020q0 106 40.5 200.5t112 164.5t175.5 110.5t225 40.5h623v-145h-131v-1596h-164v1596h-184v-1596h-164v709q-109 0 -208 41t-170 110t-113 164.5t-42 200.5zM229 1022q0 -157 103 -265t264 -108v742q-162 0 -264.5 -105t-102.5 -264z" />
    <glyph glyph-name="periodcentered" unicode="&#xb7;" horiz-adv-x="458" 
d="M229 670q-42 0 -72 30t-30 72t30 72t72 30t72.5 -30t30.5 -72t-30.5 -72t-72.5 -30z" />
    <glyph glyph-name="cedilla" unicode="&#xb8;" horiz-adv-x="612" 
d="M150 -254l-48 76l162 229h131l-116 -168q10 2 34 2q99 0 166.5 -52t67.5 -138q0 -97 -76.5 -153t-196.5 -56q-158 0 -229 84l66 94q55 -59 159 -59q148 0 148 90q0 88 -142 88q-66 0 -126 -37z" />
    <glyph glyph-name="one.superior" unicode="&#xb9;" horiz-adv-x="708" 
d="M78 698v125h237v586h-233v127h383v-713h209v-125h-596z" />
    <glyph glyph-name="ordmasculine" unicode="&#xba;" horiz-adv-x="919" 
d="M461 786q-169 0 -271 108t-102 288q0 175 102 281t271 106q168 0 270.5 -106.5t102.5 -280.5q0 -179 -102.5 -287.5t-270.5 -108.5zM461 1438q-101 0 -162 -69t-61 -187q0 -120 61 -191t162 -71q100 0 160.5 70.5t60.5 191.5q0 118 -60.5 187t-160.5 69z" />
    <glyph glyph-name="guillemetright" unicode="&#xbb;" horiz-adv-x="1110" 
d="M1024 614l-338 -491l-113 70l291 423l-291 422l113 68zM553 614l-338 -491l-113 70l291 423l-291 422l113 68z" />
    <glyph glyph-name="onequarter" unicode="&#xbc;" horiz-adv-x="1789" 
d="M92 721v121h232v571h-228v123h373v-694h205v-121h-582zM360 0l943 1536h151l-942 -1536h-152zM1186 817h133l-105 -495h244v278h144v-278h127v-123h-127v-197h-144v197h-405z" />
    <glyph glyph-name="onehalf" unicode="&#xbd;" horiz-adv-x="1730" 
d="M78 721v121h231v571h-227v123h373v-694h204v-121h-581zM348 0l942 1536h152l-942 -1536h-152zM1079 41l316 356q102 98 102 183q0 61 -38.5 99t-102.5 38t-108 -44t-56 -118l-129 31q23 129 104 191.5t195 62.5q127 0 203.5 -69.5t76.5 -178.5q0 -66 -35 -125.5
t-98 -126.5l-192 -207v-6h344v-125h-582v39z" />
    <glyph glyph-name="threequarters" unicode="&#xbe;" horiz-adv-x="1738" 
d="M309 0l942 1536h152l-942 -1536h-152zM668 948q0 -107 -86.5 -178.5t-225.5 -71.5q-196 0 -280 152l102 72q58 -97 176 -97q77 0 122.5 34.5t45.5 94.5q0 61 -46.5 98.5t-123.5 37.5q-64 0 -110 -25l-70 106l277 240h-332v125h508v-125l-260 -219v-8q24 8 55 8
q104 0 176 -71t72 -173zM1135 817h133l-105 -495h244v278h143v-278h127v-123h-127v-197h-143v197h-406z" />
    <glyph glyph-name="questiondown" unicode="&#xbf;" horiz-adv-x="954" 
d="M469 1085q46 0 79.5 -32.5t33.5 -79.5q0 -46 -33.5 -78.5t-79.5 -32.5q-45 0 -78 33t-33 78q0 47 33 79.5t78 32.5zM551 590v-350q-134 -52 -221.5 -146.5t-87.5 -206.5q0 -109 63.5 -177t177.5 -68q117 0 191.5 75.5t81.5 210.5l143 -30q-14 -182 -128.5 -292
t-293.5 -110q-185 0 -294 107t-109 278q0 142 88 252t225 178v279h164z" />
    <glyph glyph-name="Agrave" unicode="&#xc0;" horiz-adv-x="1357" 
d="M854 1628h-174l-258 275h211zM37 0l534 1536h213l535 -1536h-180l-142 422h-645l-141 -422h-174zM674 1372l-271 -803h545l-266 803h-8z" />
    <glyph glyph-name="Aacute" unicode="&#xc1;" horiz-adv-x="1357" 
d="M535 1628l221 275h211l-258 -275h-174zM37 0l534 1536h213l535 -1536h-180l-142 422h-645l-141 -422h-174zM674 1372l-271 -803h545l-266 803h-8z" />
    <glyph glyph-name="Acircumflex" unicode="&#xc2;" horiz-adv-x="1357" 
d="M334 1628l229 275h234l227 -275h-168l-176 193l-178 -193h-168zM37 0l534 1536h213l535 -1536h-180l-142 422h-645l-141 -422h-174zM674 1372l-271 -803h545l-266 803h-8z" />
    <glyph glyph-name="Atilde" unicode="&#xc3;" horiz-adv-x="1357" 
d="M1044 1892q11 -142 -38.5 -212t-141.5 -70q-33 0 -64 8.5t-47.5 17t-45.5 25.5l-109 68q-61 38 -100 38q-74 0 -64 -139h-127q-11 142 40.5 212.5t144.5 70.5q78 0 155 -47l111 -70q6 -3 21.5 -12t25.5 -14t25 -10t28 -5q67 0 60 139h126zM37 0l534 1536h213l535 -1536
h-180l-142 422h-645l-141 -422h-174zM674 1372l-271 -803h545l-266 803h-8z" />
    <glyph glyph-name="Adieresis" unicode="&#xc4;" horiz-adv-x="1357" 
d="M465 1614q-45 0 -78 31.5t-33 76.5q0 44 33 75.5t78 31.5q44 0 75 -31.5t31 -75.5q0 -46 -31 -77t-75 -31zM893 1614q-44 0 -76.5 31.5t-32.5 76.5q0 44 33 75.5t76 31.5q44 0 76 -31.5t32 -75.5q0 -45 -31.5 -76.5t-76.5 -31.5zM37 0l534 1536h213l535 -1536h-180
l-142 422h-645l-141 -422h-174zM674 1372l-271 -803h545l-266 803h-8z" />
    <glyph glyph-name="Aring" unicode="&#xc5;" horiz-adv-x="1357" 
d="M680 1599q-141 0 -219 56t-78 145q0 91 78.5 149t218.5 58q139 0 218 -58t79 -149q0 -89 -79 -145t-218 -56zM680 1710q81 0 125.5 25t44.5 65q0 42 -44.5 68t-125.5 26t-126.5 -26t-45.5 -68q0 -40 45.5 -65t126.5 -25zM37 0l534 1536h213l535 -1536h-180l-142 422h-645
l-141 -422h-174zM674 1372l-271 -803h545l-266 803h-8z" />
    <glyph glyph-name="AE" unicode="&#xc6;" horiz-adv-x="1978" 
d="M1026 0v498h-692v-498h-168v1049q0 127 39.5 227.5t109.5 163.5t162.5 96t202.5 33q117 0 205 -33h983v-147h-776q102 -130 102 -340v-197h633v-147h-633v-555h684v-150h-852zM334 1032v-387h692v387q0 194 -93 289.5t-253 95.5q-157 0 -251.5 -96t-94.5 -289z" />
    <glyph glyph-name="Ccedilla" unicode="&#xc7;" horiz-adv-x="1536" 
d="M713 -303l-47 76l139 196q-156 12 -289.5 78t-227 171t-146 247t-52.5 303q0 170 59.5 318.5t163 254.5t249 167t312.5 61q194 0 354.5 -83t264.5 -229l-117 -96q-84 120 -215.5 188t-286.5 68q-174 0 -314 -84t-219 -232.5t-79 -332.5t79 -332t219 -231.5t314 -83.5
q154 0 283.5 67.5t214.5 186.5l113 -101q-94 -133 -235.5 -213t-313.5 -92l-94 -135q10 2 35 2q99 0 166 -52t67 -138q0 -97 -76 -153t-196 -56q-159 0 -230 84l66 94q55 -59 160 -59q147 0 147 90q0 88 -141 88q-67 0 -127 -37z" />
    <glyph glyph-name="Egrave" unicode="&#xc8;" horiz-adv-x="1157" 
d="M817 1628h-174l-258 275h211zM178 0v1536h866v-147h-698v-537h658v-147h-658v-555h709v-150h-877z" />
    <glyph glyph-name="Eacute" unicode="&#xc9;" horiz-adv-x="1157" 
d="M498 1628l221 275h211l-258 -275h-174zM178 0v1536h866v-147h-698v-537h658v-147h-658v-555h709v-150h-877z" />
    <glyph glyph-name="Ecircumflex" unicode="&#xca;" horiz-adv-x="1157" 
d="M297 1628l229 275h234l227 -275h-168l-176 193l-178 -193h-168zM178 0v1536h866v-147h-698v-537h658v-147h-658v-555h709v-150h-877z" />
    <glyph glyph-name="Edieresis" unicode="&#xcb;" horiz-adv-x="1157" 
d="M430 1614q-45 0 -78 31.5t-33 76.5q0 44 33 75.5t78 31.5q44 0 75.5 -31.5t31.5 -75.5q0 -46 -31.5 -77t-75.5 -31zM858 1614q-43 0 -75.5 31.5t-32.5 76.5q0 44 32.5 75.5t75.5 31.5q44 0 76.5 -31.5t32.5 -75.5q0 -45 -32 -76.5t-77 -31.5zM178 0v1536h866v-147h-698
v-537h658v-147h-658v-555h709v-150h-877z" />
    <glyph glyph-name="Igrave" unicode="&#xcc;" horiz-adv-x="944" 
d="M653 1628h-174l-258 275h211zM59 0v150h330v1239h-317v147h798v-147h-313v-1239h328v-150h-826z" />
    <glyph glyph-name="Iacute" unicode="&#xcd;" horiz-adv-x="944" 
d="M332 1628l221 275h211l-258 -275h-174zM59 0v150h330v1239h-317v147h798v-147h-313v-1239h328v-150h-826z" />
    <glyph glyph-name="Icircumflex" unicode="&#xce;" horiz-adv-x="944" 
d="M133 1628l229 275h234l227 -275h-168l-176 193l-178 -193h-168zM59 0v150h330v1239h-317v147h798v-147h-313v-1239h328v-150h-826z" />
    <glyph glyph-name="Idieresis" unicode="&#xcf;" horiz-adv-x="944" 
d="M264 1614q-45 0 -77.5 31.5t-32.5 76.5q0 44 32.5 75.5t77.5 31.5q44 0 75.5 -31.5t31.5 -75.5q0 -46 -31.5 -77t-75.5 -31zM692 1614q-43 0 -75.5 31.5t-32.5 76.5q0 44 32.5 75.5t75.5 31.5q44 0 76.5 -31.5t32.5 -75.5q0 -45 -32 -76.5t-77 -31.5zM59 0v150h330v1239
h-317v147h798v-147h-313v-1239h328v-150h-826z" />
    <glyph glyph-name="Eth" unicode="&#xd0;" horiz-adv-x="1587" 
d="M31 686v143h176v707h500q177 0 323 -54t248.5 -152t158.5 -241.5t56 -318.5q0 -235 -97 -409.5t-275 -267.5t-414 -93h-500v686h-176zM707 150q283 0 448.5 165.5t165.5 454.5t-165.5 454t-448.5 165h-332v-560h477v-143h-477v-536h332z" />
    <glyph glyph-name="Ntilde" unicode="&#xd1;" horiz-adv-x="1523" 
d="M1128 1892q11 -142 -38.5 -212t-141.5 -70q-33 0 -64 8.5t-47.5 17t-45.5 25.5l-109 68q-61 38 -100 38q-74 0 -64 -139h-127q-11 142 40 212.5t144 70.5q79 0 156 -47l111 -70q6 -3 21.5 -12t25.5 -14t25 -10t28 -5q66 0 59 139h127zM1343 0h-180l-809 1241h-8v-1241
h-168v1536h184l807 -1241h9v1241h165v-1536z" />
    <glyph glyph-name="Ograve" unicode="&#xd2;" horiz-adv-x="1738" 
d="M1044 1661h-174l-258 274h211zM870 -33q-224 0 -402.5 104t-278 287t-99.5 410q0 170 59 318.5t161.5 254.5t247.5 167t312 61q221 0 400 -104t280 -287.5t101 -409.5t-101 -409.5t-280 -287.5t-400 -104zM870 121q175 0 314 83.5t217 231.5t78 332t-78 332.5
t-217.5 232.5t-313.5 84t-313.5 -84t-217 -232.5t-77.5 -332.5t77.5 -332t217 -231.5t313.5 -83.5z" />
    <glyph glyph-name="Oacute" unicode="&#xd3;" horiz-adv-x="1738" 
d="M725 1661l221 274h211l-258 -274h-174zM870 -33q-224 0 -402.5 104t-278 287t-99.5 410q0 170 59 318.5t161.5 254.5t247.5 167t312 61q221 0 400 -104t280 -287.5t101 -409.5t-101 -409.5t-280 -287.5t-400 -104zM870 121q175 0 314 83.5t217 231.5t78 332t-78 332.5
t-217.5 232.5t-313.5 84t-313.5 -84t-217 -232.5t-77.5 -332.5t77.5 -332t217 -231.5t313.5 -83.5z" />
    <glyph glyph-name="Ocircumflex" unicode="&#xd4;" horiz-adv-x="1738" 
d="M524 1661l230 274h233l227 -274h-167l-177 192l-178 -192h-168zM870 -33q-224 0 -402.5 104t-278 287t-99.5 410q0 170 59 318.5t161.5 254.5t247.5 167t312 61q221 0 400 -104t280 -287.5t101 -409.5t-101 -409.5t-280 -287.5t-400 -104zM870 121q175 0 314 83.5
t217 231.5t78 332t-78 332.5t-217.5 232.5t-313.5 84t-313.5 -84t-217 -232.5t-77.5 -332.5t77.5 -332t217 -231.5t313.5 -83.5z" />
    <glyph glyph-name="Otilde" unicode="&#xd5;" horiz-adv-x="1738" 
d="M1235 1925q11 -143 -38.5 -213t-141.5 -70q-33 0 -64.5 9t-47.5 17.5t-46 25.5l-109 67q-63 39 -100 39q-73 0 -63 -139h-127q-11 142 40 212.5t144 70.5q77 0 156 -48l110 -69q5 -3 21 -12t26 -14t25.5 -10t28.5 -5q66 0 59 139h127zM870 -33q-224 0 -402.5 104
t-278 287t-99.5 410q0 170 59 318.5t161.5 254.5t247.5 167t312 61q221 0 400 -104t280 -287.5t101 -409.5t-101 -409.5t-280 -287.5t-400 -104zM870 121q175 0 314 83.5t217 231.5t78 332t-78 332.5t-217.5 232.5t-313.5 84t-313.5 -84t-217 -232.5t-77.5 -332.5t77.5 -332
t217 -231.5t313.5 -83.5z" />
    <glyph glyph-name="Odieresis" unicode="&#xd6;" horiz-adv-x="1738" 
d="M657 1647q-45 0 -77.5 31.5t-32.5 76.5q0 44 32.5 75.5t77.5 31.5q44 0 75.5 -31.5t31.5 -75.5q0 -45 -31 -76.5t-76 -31.5zM1085 1647q-43 0 -75.5 31.5t-32.5 76.5q0 44 32.5 75.5t75.5 31.5q44 0 76.5 -31.5t32.5 -75.5q0 -45 -32 -76.5t-77 -31.5zM870 -33
q-224 0 -402.5 104t-278 287t-99.5 410q0 170 59 318.5t161.5 254.5t247.5 167t312 61q221 0 400 -104t280 -287.5t101 -409.5t-101 -409.5t-280 -287.5t-400 -104zM870 121q175 0 314 83.5t217 231.5t78 332t-78 332.5t-217.5 232.5t-313.5 84t-313.5 -84t-217 -232.5
t-77.5 -332.5t77.5 -332t217 -231.5t313.5 -83.5z" />
    <glyph glyph-name="multiply" unicode="&#xd7;" 
d="M874 344l-321 322l-320 -322l-98 102l320 320l-326 321l102 101l322 -322l321 322l103 -101l-326 -319l324 -322z" />
    <glyph glyph-name="Oslash" unicode="&#xd8;" horiz-adv-x="1738" 
d="M328 -25l-82 62l96 127q-120 110 -186 266t-66 338q0 170 59 318.5t161.5 254.5t247.5 167t312 61q244 0 433 -125l92 123l82 -62l-93 -123q126 -109 196.5 -268t70.5 -346q0 -226 -101 -409.5t-280 -287.5t-400 -104q-250 0 -448 133zM262 768q0 -141 46.5 -262.5
t131.5 -208.5l768 1020q-149 100 -338 100q-174 0 -313.5 -84t-217 -232.5t-77.5 -332.5zM870 121q175 0 314 83.5t217 231.5t78 332q0 147 -50 271.5t-141 213.5l-770 -1024q151 -108 352 -108z" />
    <glyph glyph-name="Ugrave" unicode="&#xd9;" horiz-adv-x="1445" 
d="M899 1628h-174l-258 275h211zM178 1536h168v-1386h754v1386h168v-1536h-1090v1536z" />
    <glyph glyph-name="Uacute" unicode="&#xda;" horiz-adv-x="1445" 
d="M578 1628l221 275h211l-258 -275h-174zM178 1536h168v-1386h754v1386h168v-1536h-1090v1536z" />
    <glyph glyph-name="Ucircumflex" unicode="&#xdb;" horiz-adv-x="1445" 
d="M379 1628l229 275h234l227 -275h-168l-176 193l-178 -193h-168zM178 1536h168v-1386h754v1386h168v-1536h-1090v1536z" />
    <glyph glyph-name="Udieresis" unicode="&#xdc;" horiz-adv-x="1445" 
d="M510 1614q-45 0 -78 31.5t-33 76.5q0 44 33 75.5t78 31.5q44 0 75 -31.5t31 -75.5q0 -46 -31 -77t-75 -31zM938 1614q-44 0 -76.5 31.5t-32.5 76.5q0 44 33 75.5t76 31.5q44 0 76.5 -31.5t32.5 -75.5q0 -45 -32 -76.5t-77 -31.5zM178 1536h168v-1386h754v1386h168v-1536
h-1090v1536z" />
    <glyph glyph-name="Yacute" unicode="&#xdd;" horiz-adv-x="1308" 
d="M512 1628l221 275h211l-258 -275h-174zM569 0v594l-528 942h190l420 -774h8l424 774h187l-533 -942v-594h-168z" />
    <glyph glyph-name="Thorn" unicode="&#xde;" horiz-adv-x="1318" 
d="M346 0h-168v1536h170v-274h391q220 0 361 -135.5t141 -342.5t-141 -343t-361 -136h-393v-305zM723 455q154 0 250 91.5t96 235.5t-96 237t-250 93h-377v-657h377z" />
    <glyph glyph-name="germandbls" unicode="&#xdf;" horiz-adv-x="1366" 
d="M717 1569q281 0 463 -146l-301 -594q20 0 30 -2q174 -18 275.5 -135.5t101.5 -283.5q-2 -196 -125.5 -314.5t-331.5 -118.5q-156 0 -292 68l47 141q103 -61 223 -61q145 0 227 75.5t84 209.5q-1 126 -82 204t-207 78q-58 0 -94 -10l-51 86l297 594q-48 30 -118.5 46.5
t-141.5 16.5q-191 0 -293 -107.5t-102 -287.5v-1028h-164v1020q0 247 144.5 398t410.5 151z" />
    <glyph glyph-name="agrave" unicode="&#xe0;" horiz-adv-x="1083" 
d="M643 1262h-166l-258 337h203zM82 283q0 148 106.5 236.5t280.5 88.5q198 0 301 -112h8q-6 66 -6 163q0 129 -76.5 204t-208.5 75q-174 0 -288 -127l-93 107q140 165 400 165q198 0 313 -112t115 -305v-666h-162v27q0 23 4 77h-8q-32 -59 -115.5 -98t-187.5 -39
q-171 0 -277 86t-106 230zM504 113q121 0 191.5 48t70.5 130t-70 129t-192 47q-119 0 -187.5 -47t-68.5 -129t69 -130t187 -48z" />
    <glyph glyph-name="aacute" unicode="&#xe1;" horiz-adv-x="1083" 
d="M358 1262l222 337h202l-260 -337h-164zM82 283q0 148 106.5 236.5t280.5 88.5q198 0 301 -112h8q-6 66 -6 163q0 129 -76.5 204t-208.5 75q-174 0 -288 -127l-93 107q140 165 400 165q198 0 313 -112t115 -305v-666h-162v27q0 23 4 77h-8q-32 -59 -115.5 -98t-187.5 -39
q-171 0 -277 86t-106 230zM504 113q121 0 191.5 48t70.5 130t-70 129t-192 47q-119 0 -187.5 -47t-68.5 -129t69 -130t187 -48z" />
    <glyph glyph-name="acircumflex" unicode="&#xe2;" horiz-adv-x="1083" 
d="M160 1262l229 337h225l228 -337h-164l-176 237l-178 -237h-164zM82 283q0 148 106.5 236.5t280.5 88.5q198 0 301 -112h8q-6 66 -6 163q0 129 -76.5 204t-208.5 75q-174 0 -288 -127l-93 107q140 165 400 165q198 0 313 -112t115 -305v-666h-162v27q0 23 4 77h-8
q-32 -59 -115.5 -98t-187.5 -39q-171 0 -277 86t-106 230zM504 113q121 0 191.5 48t70.5 130t-70 129t-192 47q-119 0 -187.5 -47t-68.5 -129t69 -130t187 -48z" />
    <glyph glyph-name="atilde" unicode="&#xe3;" horiz-adv-x="1083" 
d="M866 1561q13 -158 -37.5 -238t-142.5 -80q-32 0 -61.5 10t-45.5 19.5t-44 30.5l-115 79q-3 2 -15.5 11.5t-20 15t-19.5 12t-23.5 10t-22.5 3.5q-82 0 -69 -172h-121q-13 158 39 237.5t145 79.5q80 0 150 -53l110 -84q1 0 15 -10l17.5 -12.5t16.5 -10t20 -10t18 -5.5
t20 -3q78 0 68 170h118zM82 283q0 148 106.5 236.5t280.5 88.5q198 0 301 -112h8q-6 66 -6 163q0 129 -76.5 204t-208.5 75q-174 0 -288 -127l-93 107q140 165 400 165q198 0 313 -112t115 -305v-666h-162v27q0 23 4 77h-8q-32 -59 -115.5 -98t-187.5 -39q-171 0 -277 86
t-106 230zM504 113q121 0 191.5 48t70.5 130t-70 129t-192 47q-119 0 -187.5 -47t-68.5 -129t69 -130t187 -48z" />
    <glyph glyph-name="adieresis" unicode="&#xe4;" horiz-adv-x="1083" 
d="M287 1247q-45 0 -78 33t-33 78q0 43 33.5 74.5t77.5 31.5t75 -31.5t31 -74.5q0 -46 -31 -78.5t-75 -32.5zM715 1247q-43 0 -76 33t-33 78q0 42 33 74t76 32q44 0 76 -31.5t32 -74.5q0 -46 -32 -78.5t-76 -32.5zM82 283q0 148 106.5 236.5t280.5 88.5q198 0 301 -112h8
q-6 66 -6 163q0 129 -76.5 204t-208.5 75q-174 0 -288 -127l-93 107q140 165 400 165q198 0 313 -112t115 -305v-666h-162v27q0 23 4 77h-8q-32 -59 -115.5 -98t-187.5 -39q-171 0 -277 86t-106 230zM504 113q121 0 191.5 48t70.5 130t-70 129t-192 47q-119 0 -187.5 -47
t-68.5 -129t69 -130t187 -48z" />
    <glyph glyph-name="aring" unicode="&#xe5;" horiz-adv-x="1083" 
d="M502 1233q-134 0 -215.5 65.5t-81.5 165.5q0 104 81 171t216 67q133 0 215 -67t82 -171q0 -100 -82 -165.5t-215 -65.5zM502 1346q80 0 125 33t45 85q0 57 -45 92t-125 35t-126 -35t-46 -92q0 -52 46 -85t126 -33zM82 283q0 148 106.5 236.5t280.5 88.5q198 0 301 -112h8
q-6 66 -6 163q0 129 -76.5 204t-208.5 75q-174 0 -288 -127l-93 107q140 165 400 165q198 0 313 -112t115 -305v-666h-162v27q0 23 4 77h-8q-32 -59 -115.5 -98t-187.5 -39q-171 0 -277 86t-106 230zM504 113q121 0 191.5 48t70.5 130t-70 129t-192 47q-119 0 -187.5 -47
t-68.5 -129t69 -130t187 -48z" />
    <glyph glyph-name="ae" unicode="&#xe6;" horiz-adv-x="1687" 
d="M1550 145v-145h-780v31q0 23 4 73h-8q-32 -60 -115.5 -98.5t-195.5 -38.5q-169 0 -271 91.5t-102 232.5q0 138 104.5 226.5t276.5 88.5q113 0 191 -31t114 -86h8q-6 49 -6 168q0 130 -76 205.5t-207 75.5q-179 0 -286 -123l-97 107q138 161 388 161q132 0 222 -52.5
t132 -151.5q36 93 125 148.5t209 55.5q186 0 300.5 -107t114.5 -282v-243h-675v-306h630zM1176 938q-114 0 -185 -73t-71 -195v-80h514v82q0 119 -72.5 192.5t-185.5 73.5zM496 113q124 0 196 48.5t72 131.5q0 80 -72 126t-196 46q-114 0 -181 -46.5t-67 -125.5
q0 -83 67 -131.5t181 -48.5z" />
    <glyph glyph-name="ccedilla" unicode="&#xe7;" horiz-adv-x="1126" 
d="M469 -303l-47 76l141 198q-216 26 -348.5 180t-132.5 375q0 239 160 398t399 159q134 0 245 -56.5t185 -158.5l-102 -102q-55 80 -139 126t-189 46q-170 0 -280.5 -116t-110.5 -296q0 -177 110.5 -294t280.5 -117q109 0 194.5 50t141.5 134l100 -98q-62 -96 -162 -158
t-223 -74l-94 -135q10 2 35 2q99 0 166 -52t67 -138q0 -97 -76 -153t-196 -56q-158 0 -229 84l65 94q55 -59 160 -59q147 0 147 90q0 88 -141 88q-67 0 -127 -37z" />
    <glyph glyph-name="egrave" unicode="&#xe8;" horiz-adv-x="1226" 
d="M776 1262h-166l-258 337h203zM1069 178q-77 -103 -187 -157t-245 -54q-157 0 -284.5 73t-199 201t-71.5 285t71.5 284.5t198.5 200t283 72.5q228 0 373 -158.5t145 -398.5q0 -39 -4 -71h-895q22 -153 126.5 -246.5t258.5 -93.5q205 0 334 161zM633 938
q-152 0 -255.5 -94.5t-123.5 -249.5h735q-9 151 -107 247.5t-249 96.5z" />
    <glyph glyph-name="eacute" unicode="&#xe9;" horiz-adv-x="1226" 
d="M494 1262l221 337h203l-261 -337h-163zM1069 178q-77 -103 -187 -157t-245 -54q-157 0 -284.5 73t-199 201t-71.5 285t71.5 284.5t198.5 200t283 72.5q228 0 373 -158.5t145 -398.5q0 -39 -4 -71h-895q22 -153 126.5 -246.5t258.5 -93.5q205 0 334 161zM633 938
q-152 0 -255.5 -94.5t-123.5 -249.5h735q-9 151 -107 247.5t-249 96.5z" />
    <glyph glyph-name="ecircumflex" unicode="&#xea;" horiz-adv-x="1226" 
d="M293 1262l229 337h226l227 -337h-164l-176 237l-178 -237h-164zM1069 178q-77 -103 -187 -157t-245 -54q-157 0 -284.5 73t-199 201t-71.5 285t71.5 284.5t198.5 200t283 72.5q228 0 373 -158.5t145 -398.5q0 -39 -4 -71h-895q22 -153 126.5 -246.5t258.5 -93.5
q205 0 334 161zM633 938q-152 0 -255.5 -94.5t-123.5 -249.5h735q-9 151 -107 247.5t-249 96.5z" />
    <glyph glyph-name="edieresis" unicode="&#xeb;" horiz-adv-x="1226" 
d="M422 1247q-45 0 -78 33t-33 78q0 43 33.5 74.5t77.5 31.5t75 -31.5t31 -74.5q0 -46 -31 -78.5t-75 -32.5zM850 1247q-43 0 -76 33t-33 78q0 42 33 74t76 32q44 0 76 -31.5t32 -74.5q0 -46 -32 -78.5t-76 -32.5zM1069 178q-77 -103 -187 -157t-245 -54q-157 0 -284.5 73
t-199 201t-71.5 285t71.5 284.5t198.5 200t283 72.5q228 0 373 -158.5t145 -398.5q0 -39 -4 -71h-895q22 -153 126.5 -246.5t258.5 -93.5q205 0 334 161zM633 938q-152 0 -255.5 -94.5t-123.5 -249.5h735q-9 151 -107 247.5t-249 96.5z" />
    <glyph glyph-name="igrave" unicode="&#xec;" horiz-adv-x="489" 
d="M387 1262h-166l-258 337h203zM326 0h-164v1051h164v-1051z" />
    <glyph glyph-name="iacute" unicode="&#xed;" horiz-adv-x="489" 
d="M102 1262l222 337h202l-260 -337h-164zM326 0h-164v1051h164v-1051z" />
    <glyph glyph-name="icircumflex" unicode="&#xee;" horiz-adv-x="489" 
d="M-96 1262l229 337h225l228 -337h-164l-176 237l-178 -237h-164zM326 0h-164v1051h164v-1051z" />
    <glyph glyph-name="idieresis" unicode="&#xef;" horiz-adv-x="489" 
d="M31 1247q-45 0 -78 33t-33 78q0 43 33.5 74.5t77.5 31.5t75 -31.5t31 -74.5q0 -46 -31 -78.5t-75 -32.5zM459 1247q-43 0 -76 33t-33 78q0 42 33 74t76 32q44 0 76 -31.5t32 -74.5q0 -46 -32 -78.5t-76 -32.5zM326 0h-164v1051h164v-1051z" />
    <glyph glyph-name="eth" unicode="&#xf0;" horiz-adv-x="1247" 
d="M346 1120l-45 84l256 133q-116 84 -235 142l92 118q146 -79 286 -184l252 131l45 -84l-217 -114q377 -333 377 -809q0 -115 -37 -218.5t-104.5 -181.5t-169.5 -124t-225 -46q-232 0 -384.5 151.5t-152.5 385.5q0 145 69 264t187 185.5t258 66.5q120 0 197 -35.5
t141 -105.5l10 6q-81 208 -305 389zM621 115q159 0 264.5 110t105.5 275q0 162 -105 268t-263 106q-159 0 -265 -106t-106 -268q0 -164 105.5 -274.5t263.5 -110.5z" />
    <glyph glyph-name="ntilde" unicode="&#xf1;" horiz-adv-x="1187" 
d="M961 1561q13 -158 -38 -238t-143 -80q-32 0 -61.5 10t-45.5 19.5t-44 30.5l-115 79q-1 1 -19.5 15t-26.5 19t-24 11.5t-30 6.5q-83 0 -70 -172h-121q-13 158 39 237.5t146 79.5q79 0 149 -53l111 -84q3 -2 15 -10.5t17 -12t16.5 -10t19.5 -10t18.5 -6t19.5 -2.5
q78 0 68 170h119zM162 1051h864v-1051h-164v907h-536v-907h-164v1051z" />
    <glyph glyph-name="ograve" unicode="&#xf2;" horiz-adv-x="1273" 
d="M778 1262h-166l-258 337h203zM637 -33q-158 0 -285.5 73t-198.5 200.5t-71 285.5q0 239 158.5 398t396.5 159t396.5 -159t158.5 -398q0 -157 -71.5 -285t-199 -201t-284.5 -73zM637 115q168 0 278.5 117t110.5 294q0 179 -110 295.5t-279 116.5q-168 0 -277.5 -116.5
t-109.5 -295.5q0 -178 109.5 -294.5t277.5 -116.5z" />
    <glyph glyph-name="oacute" unicode="&#xf3;" horiz-adv-x="1273" 
d="M496 1262l221 337h203l-261 -337h-163zM637 -33q-158 0 -285.5 73t-198.5 200.5t-71 285.5q0 239 158.5 398t396.5 159t396.5 -159t158.5 -398q0 -157 -71.5 -285t-199 -201t-284.5 -73zM637 115q168 0 278.5 117t110.5 294q0 179 -110 295.5t-279 116.5
q-168 0 -277.5 -116.5t-109.5 -295.5q0 -178 109.5 -294.5t277.5 -116.5z" />
    <glyph glyph-name="ocircumflex" unicode="&#xf4;" horiz-adv-x="1273" 
d="M295 1262l229 337h226l227 -337h-164l-176 237l-178 -237h-164zM637 -33q-158 0 -285.5 73t-198.5 200.5t-71 285.5q0 239 158.5 398t396.5 159t396.5 -159t158.5 -398q0 -157 -71.5 -285t-199 -201t-284.5 -73zM637 115q168 0 278.5 117t110.5 294q0 179 -110 295.5
t-279 116.5q-168 0 -277.5 -116.5t-109.5 -295.5q0 -178 109.5 -294.5t277.5 -116.5z" />
    <glyph glyph-name="otilde" unicode="&#xf5;" horiz-adv-x="1273" 
d="M1001 1561q13 -158 -37.5 -238t-142.5 -80q-32 0 -61.5 10t-45.5 19.5t-44 30.5l-115 79q-1 1 -19.5 15t-26.5 19t-24 11.5t-30 6.5q-83 0 -70 -172h-121q-13 158 39 237.5t146 79.5q79 0 149 -53l111 -84q3 -2 15 -10.5t17 -12t16.5 -10t19.5 -10t18.5 -6t19.5 -2.5
q78 0 68 170h118zM637 -33q-158 0 -285.5 73t-198.5 200.5t-71 285.5q0 239 158.5 398t396.5 159t396.5 -159t158.5 -398q0 -157 -71.5 -285t-199 -201t-284.5 -73zM637 115q168 0 278.5 117t110.5 294q0 179 -110 295.5t-279 116.5q-168 0 -277.5 -116.5t-109.5 -295.5
q0 -178 109.5 -294.5t277.5 -116.5z" />
    <glyph glyph-name="odieresis" unicode="&#xf6;" horiz-adv-x="1273" 
d="M424 1247q-45 0 -78 33t-33 78q0 43 33.5 74.5t77.5 31.5t75 -31.5t31 -74.5q0 -46 -31 -78.5t-75 -32.5zM852 1247q-43 0 -76 33t-33 78q0 42 33 74t76 32q44 0 76.5 -31.5t32.5 -74.5q0 -46 -32.5 -78.5t-76.5 -32.5zM637 -33q-158 0 -285.5 73t-198.5 200.5t-71 285.5
q0 239 158.5 398t396.5 159t396.5 -159t158.5 -398q0 -157 -71.5 -285t-199 -201t-284.5 -73zM637 115q168 0 278.5 117t110.5 294q0 179 -110 295.5t-279 116.5q-168 0 -277.5 -116.5t-109.5 -295.5q0 -178 109.5 -294.5t277.5 -116.5z" />
    <glyph glyph-name="divide" unicode="&#xf7;" 
d="M551 1085q-42 0 -72 30.5t-30 74.5q0 42 30 72t72 30q43 0 73.5 -29.5t30.5 -72.5q0 -44 -30.5 -74.5t-73.5 -30.5zM109 692v146h888v-146h-888zM553 246q-42 0 -72 30t-30 74q0 42 30.5 72.5t71.5 30.5q43 0 73.5 -30t30.5 -73q0 -44 -30.5 -74t-73.5 -30z" />
    <glyph glyph-name="oslash" unicode="&#xf8;" horiz-adv-x="1273" 
d="M240 -70l-80 62l92 121q-81 76 -125.5 182.5t-44.5 230.5q0 239 158.5 398t396.5 159q166 0 299 -82l96 125l80 -57l-96 -127q83 -76 129.5 -183.5t46.5 -232.5q0 -157 -71.5 -285t-199 -201t-284.5 -73q-169 0 -305 84zM250 526q0 -170 100 -284l494 639q-91 57 -207 57
q-168 0 -277.5 -116.5t-109.5 -295.5zM637 115q168 0 278.5 117t110.5 294q0 176 -106 291l-492 -643q91 -59 209 -59z" />
    <glyph glyph-name="ugrave" unicode="&#xf9;" horiz-adv-x="1175" 
d="M743 1262h-165l-259 337h203zM1014 0h-852v1051h164v-906h524v906h164v-1051z" />
    <glyph glyph-name="uacute" unicode="&#xfa;" horiz-adv-x="1175" 
d="M461 1262l221 337h203l-260 -337h-164zM1014 0h-852v1051h164v-906h524v906h164v-1051z" />
    <glyph glyph-name="ucircumflex" unicode="&#xfb;" horiz-adv-x="1175" 
d="M260 1262l229 337h226l227 -337h-164l-176 237l-178 -237h-164zM1014 0h-852v1051h164v-906h524v906h164v-1051z" />
    <glyph glyph-name="udieresis" unicode="&#xfc;" horiz-adv-x="1175" 
d="M387 1247q-45 0 -78 33t-33 78q0 43 33.5 74.5t77.5 31.5t75.5 -31.5t31.5 -74.5q0 -46 -31.5 -78.5t-75.5 -32.5zM815 1247q-43 0 -75.5 33t-32.5 78q0 43 32.5 74.5t75.5 31.5q44 0 76.5 -31.5t32.5 -74.5q0 -46 -32.5 -78.5t-76.5 -32.5zM1014 0h-852v1051h164v-906
h524v906h164v-1051z" />
    <glyph glyph-name="yacute" unicode="&#xfd;" horiz-adv-x="1087" 
d="M403 1262l222 337h202l-260 -337h-164zM520 -471h-321v145h211l114 338h-71l-430 1039h178l356 -891h10l234 671l73 220h173z" />
    <glyph glyph-name="thorn" unicode="&#xfe;" horiz-adv-x="1357" 
d="M1274 526q0 -160 -69 -287.5t-194 -199.5t-282 -72q-141 0 -250.5 56.5t-152.5 150.5h-7q7 -51 7 -113v-532h-164v2007h164v-547q0 -74 -7 -117h7q54 94 161.5 152.5t249.5 58.5q234 0 385.5 -157.5t151.5 -399.5zM715 115q168 0 279.5 116.5t111.5 294.5
q0 179 -111.5 295.5t-279.5 116.5q-172 0 -284 -116t-112 -296q0 -178 112 -294.5t284 -116.5z" />
    <glyph glyph-name="ydieresis" unicode="&#xff;" horiz-adv-x="1087" 
d="M332 1247q-45 0 -78 33t-33 78q0 43 33.5 74.5t77.5 31.5t75 -31.5t31 -74.5q0 -46 -31 -78.5t-75 -32.5zM760 1247q-43 0 -76 33t-33 78q0 42 33 74t76 32q44 0 76 -31.5t32 -74.5q0 -46 -32 -78.5t-76 -32.5zM520 -471h-321v145h211l114 338h-71l-430 1039h178
l356 -891h10l234 671l73 220h173z" />
    <glyph glyph-name="Amacron" unicode="&#x100;" horiz-adv-x="1357" 
d="M403 1628v137h553v-137h-553zM37 0l534 1536h213l535 -1536h-180l-142 422h-645l-141 -422h-174zM674 1372l-271 -803h545l-266 803h-8z" />
    <glyph glyph-name="amacron" unicode="&#x101;" horiz-adv-x="1083" 
d="M225 1262v137h553v-137h-553zM82 283q0 148 106.5 236.5t280.5 88.5q198 0 301 -112h8q-6 66 -6 163q0 129 -76.5 204t-208.5 75q-174 0 -288 -127l-93 107q140 165 400 165q198 0 313 -112t115 -305v-666h-162v27q0 23 4 77h-8q-32 -59 -115.5 -98t-187.5 -39
q-171 0 -277 86t-106 230zM504 113q121 0 191.5 48t70.5 130t-70 129t-192 47q-119 0 -187.5 -47t-68.5 -129t69 -130t187 -48z" />
    <glyph glyph-name="Abreve" unicode="&#x102;" horiz-adv-x="1357" 
d="M340 1892h149q0 -71 49.5 -112t141.5 -41q90 0 139 41t49 112h148q0 -129 -90 -206.5t-246 -77.5q-161 0 -250.5 77t-89.5 207zM37 0l534 1536h213l535 -1536h-180l-142 422h-645l-141 -422h-174zM674 1372l-271 -803h545l-266 803h-8z" />
    <glyph glyph-name="abreve" unicode="&#x103;" horiz-adv-x="1083" 
d="M162 1587h139q0 -97 52.5 -155t148.5 -58q93 0 144.5 58t51.5 155h140q0 -156 -90 -251t-246 -95q-161 0 -250.5 94.5t-89.5 251.5zM82 283q0 148 106.5 236.5t280.5 88.5q198 0 301 -112h8q-6 66 -6 163q0 129 -76.5 204t-208.5 75q-174 0 -288 -127l-93 107
q140 165 400 165q198 0 313 -112t115 -305v-666h-162v27q0 23 4 77h-8q-32 -59 -115.5 -98t-187.5 -39q-171 0 -277 86t-106 230zM504 113q121 0 191.5 48t70.5 130t-70 129t-192 47q-119 0 -187.5 -47t-68.5 -129t69 -130t187 -48z" />
    <glyph glyph-name="Aogonek" unicode="&#x104;" horiz-adv-x="1357" 
d="M37 0l534 1536h213l535 -1536h-62q-79 -9 -132.5 -58.5t-53.5 -121.5q0 -55 30 -86t75 -31q65 0 120 68l70 -95q-83 -102 -209 -102q-97 0 -159 59t-62 160q0 81 50 144t140 100l-129 385h-645l-141 -422h-174zM674 1372l-271 -803h545l-266 803h-8z" />
    <glyph glyph-name="aogonek" unicode="&#x105;" horiz-adv-x="1083" 
d="M82 283q0 148 106.5 236.5t280.5 88.5q198 0 301 -112h8q-6 66 -6 163q0 129 -76.5 204t-208.5 75q-174 0 -288 -127l-93 107q140 165 400 165q198 0 313 -112t115 -305v-666h-33q-79 -9 -132.5 -58.5t-53.5 -121.5q0 -55 29.5 -86t74.5 -31q66 0 121 68l70 -95
q-83 -102 -209 -102q-97 0 -159 59t-62 160q0 81 50.5 145t141.5 99q0 21 4 67h-8q-32 -59 -115.5 -98t-187.5 -39q-171 0 -277 86t-106 230zM504 113q121 0 191.5 48t70.5 130t-70 129t-192 47q-119 0 -187.5 -47t-68.5 -129t69 -130t187 -48z" />
    <glyph glyph-name="Cacute" unicode="&#x106;" horiz-adv-x="1536" 
d="M727 1661l221 274h211l-258 -274h-174zM1493 1257l-117 -96q-84 120 -215.5 188t-286.5 68q-174 0 -314 -84t-219 -232.5t-79 -332.5t79 -332t219 -231.5t314 -83.5q154 0 283.5 67.5t214.5 186.5l113 -101q-102 -144 -260 -225.5t-351 -81.5q-226 0 -405.5 104t-279 287
t-99.5 410q0 170 59.5 318.5t163 254.5t249 167t312.5 61q194 0 354.5 -83t264.5 -229z" />
    <glyph glyph-name="cacute" unicode="&#x107;" horiz-adv-x="1126" 
d="M506 1262l221 337h203l-260 -337h-164zM1071 868l-102 -102q-55 80 -139 126t-189 46q-170 0 -280.5 -116t-110.5 -296q0 -177 110.5 -294t280.5 -117q109 0 194.5 50t141.5 134l100 -98q-68 -106 -183 -170t-253 -64q-162 0 -290 73t-198.5 200.5t-70.5 285.5
q0 239 160 398t399 159q134 0 245 -56.5t185 -158.5z" />
    <glyph glyph-name="Ccircumflex" unicode="&#x108;" horiz-adv-x="1536" 
d="M526 1661l230 274h233l228 -274h-168l-177 192l-178 -192h-168zM1493 1257l-117 -96q-84 120 -215.5 188t-286.5 68q-174 0 -314 -84t-219 -232.5t-79 -332.5t79 -332t219 -231.5t314 -83.5q154 0 283.5 67.5t214.5 186.5l113 -101q-102 -144 -260 -225.5t-351 -81.5
q-226 0 -405.5 104t-279 287t-99.5 410q0 170 59.5 318.5t163 254.5t249 167t312.5 61q194 0 354.5 -83t264.5 -229z" />
    <glyph glyph-name="ccircumflex" unicode="&#x109;" horiz-adv-x="1126" 
d="M305 1262l230 337h225l227 -337h-164l-176 237l-178 -237h-164zM1071 868l-102 -102q-55 80 -139 126t-189 46q-170 0 -280.5 -116t-110.5 -296q0 -177 110.5 -294t280.5 -117q109 0 194.5 50t141.5 134l100 -98q-68 -106 -183 -170t-253 -64q-162 0 -290 73
t-198.5 200.5t-70.5 285.5q0 239 160 398t399 159q134 0 245 -56.5t185 -158.5z" />
    <glyph glyph-name="Cdotaccent" unicode="&#x10a;" horiz-adv-x="1536" 
d="M872 1645q-51 0 -86.5 34.5t-35.5 85.5t35.5 86t86.5 35t87 -35t36 -86t-36 -85.5t-87 -34.5zM1493 1257l-117 -96q-84 120 -215.5 188t-286.5 68q-174 0 -314 -84t-219 -232.5t-79 -332.5t79 -332t219 -231.5t314 -83.5q154 0 283.5 67.5t214.5 186.5l113 -101
q-102 -144 -260 -225.5t-351 -81.5q-226 0 -405.5 104t-279 287t-99.5 410q0 170 59.5 318.5t163 254.5t249 167t312.5 61q194 0 354.5 -83t264.5 -229z" />
    <glyph glyph-name="cdotaccent" unicode="&#x10b;" horiz-adv-x="1126" 
d="M647 1245q-51 0 -87 36t-36 87q0 52 35.5 86.5t87.5 34.5t87.5 -34.5t35.5 -86.5q0 -51 -36 -87t-87 -36zM1071 868l-102 -102q-55 80 -139 126t-189 46q-170 0 -280.5 -116t-110.5 -296q0 -177 110.5 -294t280.5 -117q109 0 194.5 50t141.5 134l100 -98
q-68 -106 -183 -170t-253 -64q-162 0 -290 73t-198.5 200.5t-70.5 285.5q0 239 160 398t399 159q134 0 245 -56.5t185 -158.5z" />
    <glyph glyph-name="Ccaron" unicode="&#x10c;" horiz-adv-x="1536" 
d="M528 1935h164l180 -192l177 192h168l-228 -274h-233zM1493 1257l-117 -96q-84 120 -215.5 188t-286.5 68q-174 0 -314 -84t-219 -232.5t-79 -332.5t79 -332t219 -231.5t314 -83.5q154 0 283.5 67.5t214.5 186.5l113 -101q-102 -144 -260 -225.5t-351 -81.5
q-226 0 -405.5 104t-279 287t-99.5 410q0 170 59.5 318.5t163 254.5t249 167t312.5 61q194 0 354.5 -83t264.5 -229z" />
    <glyph glyph-name="ccaron" unicode="&#x10d;" horiz-adv-x="1126" 
d="M307 1599h160l180 -237l176 237h164l-227 -337h-225zM1071 868l-102 -102q-55 80 -139 126t-189 46q-170 0 -280.5 -116t-110.5 -296q0 -177 110.5 -294t280.5 -117q109 0 194.5 50t141.5 134l100 -98q-68 -106 -183 -170t-253 -64q-162 0 -290 73t-198.5 200.5
t-70.5 285.5q0 239 160 398t399 159q134 0 245 -56.5t185 -158.5z" />
    <glyph glyph-name="Dcaron" unicode="&#x10e;" horiz-adv-x="1558" 
d="M375 1903h164l180 -193l176 193h168l-227 -275h-234zM678 0h-500v1536h500q177 0 323 -54t248.5 -152t158.5 -241.5t56 -318.5q0 -235 -97 -409.5t-275 -267.5t-414 -93zM678 150q283 0 448.5 165.5t165.5 454.5t-165.5 454t-448.5 165h-332v-1239h332z" />
    <glyph glyph-name="dcaron" unicode="&#x10f;" horiz-adv-x="1390" 
d="M86 526q0 160 67 286.5t192 198.5t286 72q130 0 241 -53t160 -143h6q-4 58 -4 112v537h162v-1536h-152v86q0 59 7 113h-7q-53 -112 -163.5 -172t-251.5 -60q-244 0 -393.5 157t-149.5 402zM1581 1536l-119 -387h-116l59 387h176zM647 117q171 0 282 116t111 293
q0 179 -111 295.5t-282 116.5q-169 0 -281 -117t-112 -295q0 -177 112 -293t281 -116z" />
    <glyph glyph-name="Dcroat" unicode="&#x110;" horiz-adv-x="1587" 
d="M31 686v143h176v707h500q177 0 323 -54t248.5 -152t158.5 -241.5t56 -318.5q0 -235 -97 -409.5t-275 -267.5t-414 -93h-500v686h-176zM707 150q283 0 448.5 165.5t165.5 454.5t-165.5 454t-448.5 165h-332v-560h477v-143h-477v-536h332z" />
    <glyph glyph-name="dcroat" unicode="&#x111;" horiz-adv-x="1359" 
d="M86 526q0 160 67 286.5t192 198.5t286 72q130 0 241 -53t160 -143h6q-4 58 -4 112v254h-606v95h606v188h162v-188h178v-95h-178v-1253h-152v86q0 59 7 113h-7q-53 -112 -163.5 -172t-251.5 -60q-244 0 -393.5 157t-149.5 402zM647 117q171 0 282 116t111 293
q0 179 -111 295.5t-282 116.5q-169 0 -281 -117t-112 -295q0 -177 112 -293t281 -116z" />
    <glyph glyph-name="Emacron" unicode="&#x112;" horiz-adv-x="1157" 
d="M367 1628v137h553v-137h-553zM178 0v1536h866v-147h-698v-537h658v-147h-658v-555h709v-150h-877z" />
    <glyph glyph-name="emacron" unicode="&#x113;" horiz-adv-x="1226" 
d="M360 1262v137h553v-137h-553zM1069 178q-77 -103 -187 -157t-245 -54q-157 0 -284.5 73t-199 201t-71.5 285t71.5 284.5t198.5 200t283 72.5q228 0 373 -158.5t145 -398.5q0 -39 -4 -71h-895q22 -153 126.5 -246.5t258.5 -93.5q205 0 334 161zM633 938
q-152 0 -255.5 -94.5t-123.5 -249.5h735q-9 151 -107 247.5t-249 96.5z" />
    <glyph glyph-name="Ebreve" unicode="&#x114;" horiz-adv-x="1157" 
d="M303 1892h150q0 -71 49 -112t141 -41q90 0 139 41t49 112h148q0 -129 -90 -206.5t-246 -77.5q-161 0 -250.5 77t-89.5 207zM178 0v1536h866v-147h-698v-537h658v-147h-658v-555h709v-150h-877z" />
    <glyph glyph-name="ebreve" unicode="&#x115;" horiz-adv-x="1226" 
d="M295 1587h139q0 -97 52.5 -155t148.5 -58q93 0 144.5 58t51.5 155h140q0 -156 -90 -251t-246 -95q-161 0 -250.5 94.5t-89.5 251.5zM1069 178q-77 -103 -187 -157t-245 -54q-157 0 -284.5 73t-199 201t-71.5 285t71.5 284.5t198.5 200t283 72.5q228 0 373 -158.5
t145 -398.5q0 -39 -4 -71h-895q22 -153 126.5 -246.5t258.5 -93.5q205 0 334 161zM633 938q-152 0 -255.5 -94.5t-123.5 -249.5h735q-9 151 -107 247.5t-249 96.5z" />
    <glyph glyph-name="Edotaccent" unicode="&#x116;" horiz-adv-x="1157" 
d="M643 1612q-51 0 -87 35t-36 86t36 85.5t87 34.5t87 -34.5t36 -85.5t-36 -86t-87 -35zM178 0v1536h866v-147h-698v-537h658v-147h-658v-555h709v-150h-877z" />
    <glyph glyph-name="edotaccent" unicode="&#x117;" horiz-adv-x="1226" 
d="M635 1245q-51 0 -87 36t-36 87q0 52 35.5 86.5t87.5 34.5t87.5 -34.5t35.5 -86.5q0 -51 -36 -87t-87 -36zM1069 178q-77 -103 -187 -157t-245 -54q-157 0 -284.5 73t-199 201t-71.5 285t71.5 284.5t198.5 200t283 72.5q228 0 373 -158.5t145 -398.5q0 -39 -4 -71h-895
q22 -153 126.5 -246.5t258.5 -93.5q205 0 334 161zM633 938q-152 0 -255.5 -94.5t-123.5 -249.5h735q-9 151 -107 247.5t-249 96.5z" />
    <glyph glyph-name="Eogonek" unicode="&#x118;" horiz-adv-x="1157" 
d="M178 0v1536h866v-147h-698v-537h658v-147h-658v-555h709v-150h-115q-79 -9 -132.5 -58.5t-53.5 -121.5q0 -55 29.5 -86t74.5 -31q66 0 121 68l70 -95q-83 -102 -209 -102q-97 0 -159.5 59t-62.5 160q0 131 121 207h-561z" />
    <glyph glyph-name="eogonek" unicode="&#x119;" horiz-adv-x="1226" 
d="M1067 -324q-82 -104 -223 -104q-106 0 -173 59t-67 160q0 105 88 178q-18 -2 -55 -2q-157 0 -284.5 73t-199 201t-71.5 285t71.5 284.5t198.5 200t283 72.5q228 0 373 -158.5t145 -398.5q0 -39 -4 -71h-895q22 -153 126.5 -246.5t258.5 -93.5q205 0 334 161l96 -98
q-71 -98 -180 -153q-156 -103 -156 -207q0 -55 36 -85t91 -30q81 0 137 68zM633 938q-152 0 -255.5 -94.5t-123.5 -249.5h735q-9 151 -107 247.5t-249 96.5z" />
    <glyph glyph-name="Ecaron" unicode="&#x11a;" horiz-adv-x="1157" 
d="M299 1903h164l180 -193l176 193h168l-227 -275h-234zM178 0v1536h866v-147h-698v-537h658v-147h-658v-555h709v-150h-877z" />
    <glyph glyph-name="ecaron" unicode="&#x11b;" horiz-adv-x="1226" 
d="M295 1599h160l180 -237l176 237h164l-227 -337h-226zM1069 178q-77 -103 -187 -157t-245 -54q-157 0 -284.5 73t-199 201t-71.5 285t71.5 284.5t198.5 200t283 72.5q228 0 373 -158.5t145 -398.5q0 -39 -4 -71h-895q22 -153 126.5 -246.5t258.5 -93.5q205 0 334 161z
M633 938q-152 0 -255.5 -94.5t-123.5 -249.5h735q-9 151 -107 247.5t-249 96.5z" />
    <glyph glyph-name="Gcircumflex" unicode="&#x11c;" horiz-adv-x="1687" 
d="M522 1661l230 274h233l227 -274h-168l-176 192l-178 -192h-168zM801 629v149h811q6 -15 6 -69q-1 -219 -92 -387t-260.5 -261.5t-393.5 -93.5q-170 0 -316 61t-248 167t-160 254.5t-58 318.5t59 318.5t162 254.5t248 167t311 61q197 0 358.5 -83t264.5 -231l-115 -94
q-86 122 -218 190t-290 68q-173 0 -312.5 -84.5t-217.5 -233.5t-78 -333t77 -331.5t216.5 -231.5t316.5 -84q244 0 397 138t175 370h-643z" />
    <glyph glyph-name="gcircumflex" unicode="&#x11d;" horiz-adv-x="1337" 
d="M315 1262l230 337h225l227 -337h-163l-177 237l-178 -237h-164zM84 541q0 236 147.5 389t376.5 153q152 0 263 -62.5t151 -158.5h6q-4 66 -4 111v78h152v-1522h-789v145h625v435q0 59 6 112h-6q-36 -94 -144 -158.5t-254 -64.5q-229 0 -379.5 154t-150.5 389zM635 938
q-165 0 -274 -112t-109 -283t109 -283.5t274 -112.5q167 0 276 112.5t109 283.5q0 172 -109 283.5t-276 111.5z" />
    <glyph glyph-name="Gbreve" unicode="&#x11e;" horiz-adv-x="1687" 
d="M528 1925h150q0 -71 49 -112t141 -41q91 0 140 41.5t49 111.5h147q0 -129 -90 -207t-246 -78q-161 0 -250.5 77.5t-89.5 207.5zM801 629v149h811q6 -15 6 -69q-1 -219 -92 -387t-260.5 -261.5t-393.5 -93.5q-170 0 -316 61t-248 167t-160 254.5t-58 318.5t59 318.5
t162 254.5t248 167t311 61q197 0 358.5 -83t264.5 -231l-115 -94q-86 122 -218 190t-290 68q-173 0 -312.5 -84.5t-217.5 -233.5t-78 -333t77 -331.5t216.5 -231.5t316.5 -84q244 0 397 138t175 370h-643z" />
    <glyph glyph-name="gbreve" unicode="&#x11f;" horiz-adv-x="1337" 
d="M317 1587h140q0 -98 52 -155.5t148 -57.5q94 0 145.5 58t51.5 155h139q0 -156 -90 -251t-246 -95q-161 0 -250.5 94.5t-89.5 251.5zM84 541q0 236 147.5 389t376.5 153q152 0 263 -62.5t151 -158.5h6q-4 66 -4 111v78h152v-1522h-789v145h625v435q0 59 6 112h-6
q-36 -94 -144 -158.5t-254 -64.5q-229 0 -379.5 154t-150.5 389zM635 938q-165 0 -274 -112t-109 -283t109 -283.5t274 -112.5q167 0 276 112.5t109 283.5q0 172 -109 283.5t-276 111.5z" />
    <glyph glyph-name="Gdotaccent" unicode="&#x120;" horiz-adv-x="1687" 
d="M868 1645q-51 0 -87 34.5t-36 85.5t36 86t87 35t87 -35t36 -86t-36 -85.5t-87 -34.5zM801 629v149h811q6 -15 6 -69q-1 -219 -92 -387t-260.5 -261.5t-393.5 -93.5q-170 0 -316 61t-248 167t-160 254.5t-58 318.5t59 318.5t162 254.5t248 167t311 61q197 0 358.5 -83
t264.5 -231l-115 -94q-86 122 -218 190t-290 68q-173 0 -312.5 -84.5t-217.5 -233.5t-78 -333t77 -331.5t216.5 -231.5t316.5 -84q244 0 397 138t175 370h-643z" />
    <glyph glyph-name="gdotaccent" unicode="&#x121;" horiz-adv-x="1337" 
d="M657 1245q-51 0 -86.5 36t-35.5 87q0 52 35.5 86.5t86.5 34.5q52 0 87.5 -34.5t35.5 -86.5q0 -51 -36 -87t-87 -36zM84 541q0 236 147.5 389t376.5 153q152 0 263 -62.5t151 -158.5h6q-4 66 -4 111v78h152v-1522h-789v145h625v435q0 59 6 112h-6q-36 -94 -144 -158.5
t-254 -64.5q-229 0 -379.5 154t-150.5 389zM635 938q-165 0 -274 -112t-109 -283t109 -283.5t274 -112.5q167 0 276 112.5t109 283.5q0 172 -109 283.5t-276 111.5z" />
    <glyph glyph-name="Gcommaaccent" unicode="&#x122;" horiz-adv-x="1687" 
d="M801 629v149h811q6 -15 6 -69q-1 -219 -92 -387t-260.5 -261.5t-393.5 -93.5q-170 0 -316 61t-248 167t-160 254.5t-58 318.5t59 318.5t162 254.5t248 167t311 61q197 0 358.5 -83t264.5 -231l-115 -94q-86 122 -218 190t-290 68q-173 0 -312.5 -84.5t-217.5 -233.5
t-78 -333t77 -331.5t216.5 -231.5t316.5 -84q244 0 397 138t175 370h-643zM973 -213q0 -73 -66 -184l-73 -125l-74 26l67 129q21 42 29 60q-39 6 -62.5 33.5t-23.5 66.5q0 41 28.5 69.5t69.5 28.5q47 0 76 -29.5t29 -74.5z" />
    <glyph glyph-name="gcommaaccent" unicode="&#x123;" horiz-adv-x="1337" 
d="M565 1343q0 74 66 185l74 125l73 -27l-67 -129q-25 -50 -29 -59q38 -6 62 -33.5t24 -67.5q0 -41 -28.5 -69.5t-69.5 -28.5q-47 0 -76 29.5t-29 74.5zM84 541q0 236 147.5 389t376.5 153q152 0 263 -62.5t151 -158.5h6q-4 66 -4 111v78h152v-1522h-789v145h625v435
q0 59 6 112h-6q-36 -94 -144 -158.5t-254 -64.5q-229 0 -379.5 154t-150.5 389zM635 938q-165 0 -274 -112t-109 -283t109 -283.5t274 -112.5q167 0 276 112.5t109 283.5q0 172 -109 283.5t-276 111.5z" />
    <glyph glyph-name="Hcircumflex" unicode="&#x124;" horiz-adv-x="1478" 
d="M395 1628l230 275h233l227 -275h-167l-177 193l-178 -193h-168zM178 0v1536h168v-690h787v690h167v-1536h-167v696h-787v-696h-168z" />
    <glyph glyph-name="hcircumflex" unicode="&#x125;" horiz-adv-x="1187" 
d="M-94 1647l229 338h225l228 -338h-164l-176 237l-178 -237h-164zM326 0h-164v1536h164v-485h700v-1051h-164v907h-536v-907z" />
    <glyph glyph-name="Hbar" unicode="&#x126;" horiz-adv-x="1529" 
d="M203 0v1163h-176v94h176v279h168v-279h786v279h168v-279h178v-94h-178v-1163h-168v696h-786v-696h-168zM371 846h786v317h-786v-317z" />
    <glyph glyph-name="hbar" unicode="&#x127;" horiz-adv-x="1187" 
d="M326 0h-164v1253h-178v95h178v188h164v-188h604v-95h-604v-202h700v-1051h-164v907h-536v-907z" />
    <glyph glyph-name="Itilde" unicode="&#x128;" horiz-adv-x="944" 
d="M844 1892q11 -142 -38.5 -212t-141.5 -70q-33 0 -64 8.5t-48 17t-46 25.5l-109 68q-61 38 -100 38q-74 0 -64 -139h-127q-11 142 40.5 212.5t144.5 70.5q78 0 155 -47l111 -70q6 -3 21.5 -12t25.5 -14t25 -10t28 -5q67 0 60 139h127zM59 0v150h330v1239h-317v147h798
v-147h-313v-1239h328v-150h-826z" />
    <glyph glyph-name="itilde" unicode="&#x129;" horiz-adv-x="489" 
d="M608 1561q13 -158 -37.5 -238t-142.5 -80q-32 0 -61.5 9.5t-46 20t-44.5 30.5l-114 79q-3 2 -15.5 11.5t-20 15t-19.5 12t-23.5 10t-22.5 3.5q-82 0 -69 -172h-121q-13 158 39 237.5t145 79.5q80 0 150 -53l110 -84q1 0 15 -10l17.5 -12.5t16.5 -10t20 -10t18 -5.5t20 -3
q77 0 67 170h119zM326 0h-164v1051h164v-1051z" />
    <glyph glyph-name="Imacron" unicode="&#x12a;" horiz-adv-x="944" 
d="M203 1628v137h553v-137h-553zM59 0v150h330v1239h-317v147h798v-147h-313v-1239h328v-150h-826z" />
    <glyph glyph-name="imacron" unicode="&#x12b;" horiz-adv-x="489" 
d="M-31 1262v137h553v-137h-553zM326 0h-164v1051h164v-1051z" />
    <glyph glyph-name="Ibreve" unicode="&#x12c;" horiz-adv-x="944" 
d="M139 1892h150q0 -71 49 -112t141 -41q91 0 140 41.5t49 111.5h147q0 -129 -90 -206.5t-246 -77.5q-161 0 -250.5 77t-89.5 207zM59 0v150h330v1239h-317v147h798v-147h-313v-1239h328v-150h-826z" />
    <glyph glyph-name="ibreve" unicode="&#x12d;" horiz-adv-x="489" 
d="M-94 1587h139q0 -97 52.5 -155t148.5 -58q93 0 144.5 58t51.5 155h140q0 -156 -90 -251t-246 -95q-161 0 -250.5 94.5t-89.5 251.5zM326 0h-164v1051h164v-1051z" />
    <glyph glyph-name="Iogonek" unicode="&#x12e;" horiz-adv-x="944" 
d="M59 0v150h330v1239h-317v147h798v-147h-313v-1239h328v-150h-90q-79 -9 -133 -59t-54 -121q0 -55 30 -86t75 -31q66 0 121 68l69 -95q-83 -102 -209 -102q-97 0 -159 59t-62 160q0 131 121 207h-535z" />
    <glyph glyph-name="iogonek" unicode="&#x12f;" horiz-adv-x="489" 
d="M244 1247q-44 0 -74.5 30.5t-30.5 76.5q0 43 30.5 72.5t74.5 29.5q43 0 73.5 -29.5t30.5 -72.5q0 -45 -30.5 -76t-73.5 -31zM326 0h-33q-79 -9 -133 -59t-54 -121q0 -55 30 -86t75 -31q66 0 121 68l69 -95q-83 -102 -208 -102q-97 0 -159.5 59t-62.5 160q0 81 50 144
t141 100v1014h164v-1051z" />
    <glyph glyph-name="Idotaccent" unicode="&#x130;" horiz-adv-x="944" 
d="M477 1612q-51 0 -87 35t-36 86t36 85.5t87 34.5t87 -34.5t36 -85.5t-36 -86t-87 -35zM59 0v150h330v1239h-317v147h798v-147h-313v-1239h328v-150h-826z" />
    <glyph glyph-name="dotlessi" unicode="&#x131;" horiz-adv-x="489" 
d="M326 0h-164v1051h164v-1051z" />
    <glyph glyph-name="IJ" unicode="&#x132;" horiz-adv-x="1417" 
d="M334 815h-168v721h168v-721zM1251 1536v-1020q0 -244 -149.5 -396.5t-390.5 -152.5t-393 151t-152 390v41h168v-47q0 -170 105.5 -275.5t271.5 -105.5q165 0 268.5 105.5t103.5 275.5v1034h168z" />
    <glyph glyph-name="ij" unicode="&#x133;" horiz-adv-x="1075" 
d="M244 1247q-44 0 -74.5 30.5t-30.5 76.5q0 43 30.5 72.5t74.5 29.5q43 0 73.5 -29.5t30.5 -72.5q0 -45 -30.5 -76t-73.5 -31zM831 1247q-44 0 -74 30.5t-30 76.5q0 43 30 72.5t74 29.5q43 0 74 -30t31 -72q0 -45 -31 -76t-74 -31zM326 0h-164v1051h164v-1051zM913 -471
h-436v145h273v1377h163v-1522z" />
    <glyph glyph-name="Jcircumflex" unicode="&#x134;" horiz-adv-x="1200" 
d="M215 1628l229 275h234l227 -275h-168l-176 193l-178 -193h-168zM25 256l133 82q43 -102 133 -159.5t207 -57.5q165 0 266.5 103.5t101.5 271.5v893h-727v147h895v-1026q0 -244 -148 -393.5t-388 -149.5q-166 0 -287.5 76t-185.5 213z" />
    <glyph glyph-name="jcircumflex" unicode="&#x135;" horiz-adv-x="505" 
d="M-80 1262l230 337h225l227 -337h-164l-176 237l-178 -237h-164zM342 -471h-436v145h272v1377h164v-1522z" />
    <glyph glyph-name="Kcommaaccent" unicode="&#x136;" horiz-adv-x="1226" 
d="M1214 1536l-550 -774l555 -762h-197l-498 688h-178v-688h-168v1536h168v-702h180l496 702h192zM727 -166q0 -74 -65 -184l-74 -125l-74 26l68 130q16 32 28 59q-39 6 -62.5 33.5t-23.5 66.5q0 41 29 70t70 29q46 0 75 -30t29 -75z" />
    <glyph glyph-name="kcommaaccent" unicode="&#x137;" horiz-adv-x="1048" 
d="M829 0l-325 459h-178v-459h-164v1536h164v-934h180l303 449h195l-355 -521l383 -530h-203zM649 -166q0 -74 -65 -184l-74 -125l-74 26l68 130q16 32 28 59q-39 6 -62.5 33.5t-23.5 66.5q0 41 29 70t70 29q46 0 75 -30t29 -75z" />
    <glyph glyph-name="kra" unicode="&#x138;" horiz-adv-x="1048" 
d="M1004 1051l-355 -521l383 -530h-203l-325 459h-178v-459h-164v1051h164v-449h180l303 449h195z" />
    <glyph glyph-name="Lacute" unicode="&#x139;" horiz-adv-x="1034" 
d="M117 1628l221 275h211l-258 -275h-174zM178 0v1536h168v-1386h662v-150h-830z" />
    <glyph glyph-name="lacute" unicode="&#x13a;" horiz-adv-x="647" 
d="M106 1647l222 338h202l-260 -338h-164zM162 0v1536h164v-1391h303v-145h-467z" />
    <glyph glyph-name="Lcommaaccent" unicode="&#x13b;" horiz-adv-x="1034" 
d="M178 0v1536h168v-1386h662v-150h-830zM702 -166q0 -74 -65 -184l-74 -125l-74 26l68 130q25 50 29 59q-39 6 -62.5 33.5t-23.5 66.5q0 41 28.5 70t69.5 29q46 0 75 -30t29 -75z" />
    <glyph glyph-name="lcommaaccent" unicode="&#x13c;" horiz-adv-x="647" 
d="M162 0v1536h164v-1391h303v-145h-467zM498 -166q0 -73 -66 -184l-74 -125l-73 26l67 130q25 50 29 59q-39 6 -62.5 33.5t-23.5 66.5q0 41 28.5 70t69.5 29q47 0 76 -30t29 -75z" />
    <glyph glyph-name="Lcaron" unicode="&#x13d;" horiz-adv-x="1044" 
d="M178 0v1536h168v-1386h662v-150h-830zM967 1536l-119 -387h-117l60 387h176z" />
    <glyph glyph-name="lcaron" unicode="&#x13e;" horiz-adv-x="647" 
d="M162 0v1536h164v-1391h303v-145h-467zM717 1536l-119 -387h-117l60 387h176z" />
    <glyph glyph-name="Ldot" unicode="&#x13f;" horiz-adv-x="1044" 
d="M178 0v1536h168v-1386h662v-150h-830zM760 739q-51 0 -87 36t-36 87q0 52 35.5 86.5t87.5 34.5t87.5 -34.5t35.5 -86.5q0 -51 -36 -87t-87 -36z" />
    <glyph glyph-name="ldot" unicode="&#x140;" horiz-adv-x="712" 
d="M162 0v1536h164v-1391h303v-145h-467zM602 723q-51 0 -87 36t-36 87q0 52 35.5 86.5t87.5 34.5t87.5 -34.5t35.5 -86.5q0 -51 -36 -87t-87 -36z" />
    <glyph glyph-name="Lslash" unicode="&#x141;" horiz-adv-x="1091" 
d="M227 0v645l-143 -53l-33 90l176 63v791h168v-729l479 176l33 -90l-512 -186v-557h662v-150h-830z" />
    <glyph glyph-name="lslash" unicode="&#x142;" horiz-adv-x="788" 
d="M238 0v653l-181 -65l-32 90l213 78v780h163v-721l281 103l33 -91l-314 -114v-568h304v-145h-467z" />
    <glyph glyph-name="Nacute" unicode="&#x143;" horiz-adv-x="1523" 
d="M616 1628l222 275h211l-258 -275h-175zM1343 0h-180l-809 1241h-8v-1241h-168v1536h184l807 -1241h9v1241h165v-1536z" />
    <glyph glyph-name="nacute" unicode="&#x144;" horiz-adv-x="1187" 
d="M455 1262l221 337h203l-261 -337h-163zM162 1051h864v-1051h-164v907h-536v-907h-164v1051z" />
    <glyph glyph-name="Ncommaaccent" unicode="&#x145;" horiz-adv-x="1523" 
d="M1343 0h-180l-809 1241h-8v-1241h-168v1536h184l807 -1241h9v1241h165v-1536zM864 -166q0 -74 -65 -184l-74 -125l-74 26l68 130q25 50 29 59q-39 6 -62.5 33.5t-23.5 66.5q0 41 28.5 70t69.5 29q46 0 75 -30t29 -75z" />
    <glyph glyph-name="ncommaaccent" unicode="&#x146;" horiz-adv-x="1187" 
d="M162 1051h864v-1051h-164v907h-536v-907h-164v1051zM698 -166q0 -74 -65 -184l-74 -125l-74 26l68 130q25 50 29 59q-39 6 -62.5 33.5t-23.5 66.5q0 41 28.5 70t69.5 29q46 0 75 -30t29 -75z" />
    <glyph glyph-name="Ncaron" unicode="&#x147;" horiz-adv-x="1523" 
d="M420 1903h164l180 -193l176 193h168l-227 -275h-234zM1343 0h-180l-809 1241h-8v-1241h-168v1536h184l807 -1241h9v1241h165v-1536z" />
    <glyph glyph-name="ncaron" unicode="&#x148;" horiz-adv-x="1187" 
d="M256 1599h160l180 -237l176 237h164l-227 -337h-226zM162 1051h864v-1051h-164v907h-536v-907h-164v1051z" />
    <glyph glyph-name="napostrophe" unicode="&#x149;" horiz-adv-x="1292" 
d="M258 1350q0 -75 -65 -185l-74 -125l-74 27l68 129q16 32 28 59q-38 6 -62 33.5t-24 67.5q0 41 29 69.5t70 28.5q47 0 75.5 -29.5t28.5 -74.5zM266 1051h864v-1051h-163v907h-537v-907h-164v1051z" />
    <glyph glyph-name="Eng" unicode="&#x14a;" horiz-adv-x="1523" 
d="M1178 1536h165v-2007h-436v145h271v306l-824 1261h-8v-1241h-168v1536h184l807 -1241h9v1241z" />
    <glyph glyph-name="eng" unicode="&#x14b;" horiz-adv-x="1187" 
d="M162 1051h864v-1522h-434v145h270v1233h-536v-907h-164v1051z" />
    <glyph glyph-name="Omacron" unicode="&#x14c;" horiz-adv-x="1738" 
d="M594 1661v137h553v-137h-553zM870 -33q-224 0 -402.5 104t-278 287t-99.5 410q0 170 59 318.5t161.5 254.5t247.5 167t312 61q221 0 400 -104t280 -287.5t101 -409.5t-101 -409.5t-280 -287.5t-400 -104zM870 121q175 0 314 83.5t217 231.5t78 332t-78 332.5
t-217.5 232.5t-313.5 84t-313.5 -84t-217 -232.5t-77.5 -332.5t77.5 -332t217 -231.5t313.5 -83.5z" />
    <glyph glyph-name="omacron" unicode="&#x14d;" horiz-adv-x="1273" 
d="M362 1262v137h553v-137h-553zM637 -33q-158 0 -285.5 73t-198.5 200.5t-71 285.5q0 239 158.5 398t396.5 159t396.5 -159t158.5 -398q0 -157 -71.5 -285t-199 -201t-284.5 -73zM637 115q168 0 278.5 117t110.5 294q0 179 -110 295.5t-279 116.5q-168 0 -277.5 -116.5
t-109.5 -295.5q0 -178 109.5 -294.5t277.5 -116.5z" />
    <glyph glyph-name="Obreve" unicode="&#x14e;" horiz-adv-x="1738" 
d="M530 1925h150q0 -71 49 -112t141 -41q91 0 140 41.5t49 111.5h147q0 -129 -90 -207t-246 -78q-161 0 -250.5 77.5t-89.5 207.5zM870 -33q-224 0 -402.5 104t-278 287t-99.5 410q0 170 59 318.5t161.5 254.5t247.5 167t312 61q221 0 400 -104t280 -287.5t101 -409.5
t-101 -409.5t-280 -287.5t-400 -104zM870 121q175 0 314 83.5t217 231.5t78 332t-78 332.5t-217.5 232.5t-313.5 84t-313.5 -84t-217 -232.5t-77.5 -332.5t77.5 -332t217 -231.5t313.5 -83.5z" />
    <glyph glyph-name="obreve" unicode="&#x14f;" horiz-adv-x="1273" 
d="M297 1587h139q0 -97 52.5 -155t148.5 -58q94 0 145.5 58t51.5 155h139q0 -156 -90 -251t-246 -95q-161 0 -250.5 94.5t-89.5 251.5zM637 -33q-158 0 -285.5 73t-198.5 200.5t-71 285.5q0 239 158.5 398t396.5 159t396.5 -159t158.5 -398q0 -157 -71.5 -285t-199 -201
t-284.5 -73zM637 115q168 0 278.5 117t110.5 294q0 179 -110 295.5t-279 116.5q-168 0 -277.5 -116.5t-109.5 -295.5q0 -178 109.5 -294.5t277.5 -116.5z" />
    <glyph glyph-name="Ohungarumlaut" unicode="&#x150;" horiz-adv-x="1738" 
d="M598 1661l219 274h172l-248 -274h-143zM928 1661l221 274h172l-248 -274h-145zM870 -33q-224 0 -402.5 104t-278 287t-99.5 410q0 170 59 318.5t161.5 254.5t247.5 167t312 61q221 0 400 -104t280 -287.5t101 -409.5t-101 -409.5t-280 -287.5t-400 -104zM870 121
q175 0 314 83.5t217 231.5t78 332t-78 332.5t-217.5 232.5t-313.5 84t-313.5 -84t-217 -232.5t-77.5 -332.5t77.5 -332t217 -231.5t313.5 -83.5z" />
    <glyph glyph-name="ohungarumlaut" unicode="&#x151;" horiz-adv-x="1273" 
d="M371 1262l219 337h168l-248 -337h-139zM696 1262l222 337h165l-245 -337h-142zM637 -33q-158 0 -285.5 73t-198.5 200.5t-71 285.5q0 239 158.5 398t396.5 159t396.5 -159t158.5 -398q0 -157 -71.5 -285t-199 -201t-284.5 -73zM637 115q168 0 278.5 117t110.5 294
q0 179 -110 295.5t-279 116.5q-168 0 -277.5 -116.5t-109.5 -295.5q0 -178 109.5 -294.5t277.5 -116.5z" />
    <glyph glyph-name="OE" unicode="&#x152;" horiz-adv-x="2449" 
d="M862 1569q214 0 377 -89.5t240 -240.5h10q-8 86 -8 150v147h856v-147h-697v-537h656v-147h-656v-555h707v-150h-866v174q0 59 8 145h-10q-77 -167 -238.5 -259.5t-378.5 -92.5q-220 0 -396.5 104t-276 287t-99.5 410q0 170 59 318.5t161 254.5t245.5 167t306.5 61z
M870 121q175 0 314.5 83.5t218 231.5t78.5 332t-78.5 332.5t-218.5 232.5t-314 84t-313.5 -84t-217 -232.5t-77.5 -332.5t77.5 -332t217 -231.5t313.5 -83.5z" />
    <glyph glyph-name="oe" unicode="&#x153;" horiz-adv-x="2144" 
d="M639 -33q-239 0 -398 160t-159 399q0 117 42.5 220.5t116 177.5t177 116.5t221.5 42.5q150 0 271 -74.5t188 -203.5q64 129 183 203.5t271 74.5q228 0 373.5 -158.5t145.5 -398.5q0 -31 -5 -71h-895q22 -153 126.5 -246.5t258.5 -93.5q208 0 334 161l97 -98
q-77 -103 -187.5 -157t-245.5 -54q-153 0 -272.5 74.5t-183.5 204.5q-67 -129 -188 -204t-271 -75zM639 115q169 0 280 117t111 294q0 178 -111 295t-280 117t-279 -116.5t-110 -295.5q0 -177 110.5 -294t278.5 -117zM1550 938q-152 0 -255.5 -94.5t-123.5 -249.5h738
q-11 151 -109.5 247.5t-249.5 96.5z" />
    <glyph glyph-name="Racute" unicode="&#x154;" horiz-adv-x="1323" 
d="M508 1628l221 275h211l-258 -275h-174zM1036 0l-383 633h-307v-633h-168v1536h549q219 0 358.5 -129t139.5 -322q0 -168 -106.5 -289.5t-282.5 -152.5l399 -643h-199zM711 780q155 0 248.5 88.5t93.5 214.5q0 131 -93 218.5t-249 87.5h-365v-609h365z" />
    <glyph glyph-name="racute" unicode="&#x155;" horiz-adv-x="661" 
d="M254 1262l221 337h203l-260 -337h-164zM162 1051h471v-146h-307v-905h-164v1051z" />
    <glyph glyph-name="Rcommaaccent" unicode="&#x156;" horiz-adv-x="1323" 
d="M1036 0l-383 633h-307v-633h-168v1536h549q219 0 358.5 -129t139.5 -322q0 -168 -106.5 -289.5t-282.5 -152.5l399 -643h-199zM711 780q155 0 248.5 88.5t93.5 214.5q0 131 -93 218.5t-249 87.5h-365v-609h365zM764 -166q0 -73 -66 -184l-73 -125l-74 26l67 130
q25 50 29 59q-39 6 -62.5 33.5t-23.5 66.5q0 41 28.5 70t69.5 29q47 0 76 -30t29 -75z" />
    <glyph glyph-name="rcommaaccent" unicode="&#x157;" horiz-adv-x="661" 
d="M162 1051h471v-146h-307v-905h-164v1051zM352 -166q0 -74 -65 -184l-74 -125l-74 26l68 130q25 50 29 59q-39 6 -62.5 33.5t-23.5 66.5q0 41 28.5 70t69.5 29q46 0 75 -30t29 -75z" />
    <glyph glyph-name="Rcaron" unicode="&#x158;" horiz-adv-x="1323" 
d="M309 1903h164l180 -193l176 193h168l-227 -275h-233zM1036 0l-383 633h-307v-633h-168v1536h549q219 0 358.5 -129t139.5 -322q0 -168 -106.5 -289.5t-282.5 -152.5l399 -643h-199zM711 780q155 0 248.5 88.5t93.5 214.5q0 131 -93 218.5t-249 87.5h-365v-609h365z" />
    <glyph glyph-name="rcaron" unicode="&#x159;" horiz-adv-x="661" 
d="M57 1599h160l180 -237l176 237h164l-227 -337h-225zM162 1051h471v-146h-307v-905h-164v1051z" />
    <glyph glyph-name="Sacute" unicode="&#x15a;" horiz-adv-x="1136" 
d="M420 1661l221 274h211l-258 -274h-174zM305 1198q0 -90 49.5 -149.5t161.5 -122.5l236 -140q142 -83 213 -179.5t71 -225.5q0 -188 -127 -301t-340 -113q-109 0 -197.5 34t-148 95t-95.5 141.5t-48 176.5l149 43q9 -66 34.5 -124.5t67 -107t105.5 -76.5t142 -28
q134 0 210 70t76 186q0 159 -202 274l-220 129q-60 35 -100 62t-82.5 65t-67 76.5t-40 91.5t-15.5 115q0 162 116.5 270.5t311.5 108.5q187 0 302.5 -93.5t152.5 -265.5l-146 -43q-30 125 -111 188.5t-204 63.5q-117 0 -185.5 -61.5t-68.5 -159.5z" />
    <glyph glyph-name="sacute" unicode="&#x15b;" horiz-adv-x="876" 
d="M299 1262l221 337h203l-260 -337h-164zM268 799q0 -56 36.5 -93.5t119.5 -76.5l139 -64q111 -50 169.5 -119t58.5 -178q0 -133 -98 -217t-261 -84q-150 0 -246 78.5t-123 196.5l130 69q16 -82 83 -141t166 -59q84 0 134.5 41t50.5 116q0 54 -38 94t-122 78l-129 60
q-112 51 -170.5 118.5t-58.5 178.5q0 123 92.5 204.5t234.5 81.5q134 0 225 -65.5t130 -171.5l-123 -68q-26 74 -85.5 120t-142.5 46q-76 0 -124 -41t-48 -104z" />
    <glyph glyph-name="Scircumflex" unicode="&#x15c;" horiz-adv-x="1136" 
d="M221 1661l230 274h233l227 -274h-168l-176 192l-178 -192h-168zM305 1198q0 -90 49.5 -149.5t161.5 -122.5l236 -140q142 -83 213 -179.5t71 -225.5q0 -188 -127 -301t-340 -113q-109 0 -197.5 34t-148 95t-95.5 141.5t-48 176.5l149 43q9 -66 34.5 -124.5t67 -107
t105.5 -76.5t142 -28q134 0 210 70t76 186q0 159 -202 274l-220 129q-60 35 -100 62t-82.5 65t-67 76.5t-40 91.5t-15.5 115q0 162 116.5 270.5t311.5 108.5q187 0 302.5 -93.5t152.5 -265.5l-146 -43q-30 125 -111 188.5t-204 63.5q-117 0 -185.5 -61.5t-68.5 -159.5z" />
    <glyph glyph-name="scircumflex" unicode="&#x15d;" horiz-adv-x="876" 
d="M100 1262l230 337h225l227 -337h-164l-176 237l-178 -237h-164zM268 799q0 -56 36.5 -93.5t119.5 -76.5l139 -64q111 -50 169.5 -119t58.5 -178q0 -133 -98 -217t-261 -84q-150 0 -246 78.5t-123 196.5l130 69q16 -82 83 -141t166 -59q84 0 134.5 41t50.5 116
q0 54 -38 94t-122 78l-129 60q-112 51 -170.5 118.5t-58.5 178.5q0 123 92.5 204.5t234.5 81.5q134 0 225 -65.5t130 -171.5l-123 -68q-26 74 -85.5 120t-142.5 46q-76 0 -124 -41t-48 -104z" />
    <glyph glyph-name="Scedilla" unicode="&#x15e;" horiz-adv-x="1136" 
d="M426 -303l-47 76l139 196q-129 10 -224.5 71.5t-147 156.5t-66.5 217l149 43q9 -66 34.5 -124.5t67 -107t105.5 -76.5t142 -28q134 0 210 70t76 186q0 159 -202 274l-220 129q-60 35 -100 62t-82.5 65t-67 76.5t-40 91.5t-15.5 115q0 162 116.5 270.5t311.5 108.5
q187 0 302.5 -93.5t152.5 -265.5l-146 -43q-30 125 -111 188.5t-204 63.5q-117 0 -185.5 -61.5t-68.5 -159.5q0 -90 49.5 -149.5t161.5 -122.5l236 -140q142 -83 213 -179.5t71 -225.5q0 -169 -103 -278.5t-282 -131.5l-96 -137q10 2 35 2q99 0 166 -52t67 -138
q0 -97 -76 -153t-196 -56q-158 0 -229 84l65 94q55 -59 160 -59q147 0 147 90q0 88 -141 88q-67 0 -127 -37z" />
    <glyph glyph-name="scedilla" unicode="&#x15f;" horiz-adv-x="876" 
d="M289 -303l-47 76l139 196q-129 13 -211 89t-107 184l130 69q16 -82 83 -141t166 -59q84 0 134.5 41t50.5 116q0 54 -38 94t-122 78l-129 60q-112 51 -170.5 118.5t-58.5 178.5q0 123 92.5 204.5t234.5 81.5q134 0 225 -65.5t130 -171.5l-123 -68q-26 74 -85.5 120
t-142.5 46q-76 0 -124 -41t-48 -104q0 -56 36.5 -93.5t119.5 -76.5l139 -64q111 -50 169.5 -119t58.5 -178q0 -116 -74 -194.5t-203 -100.5l-96 -139q10 2 35 2q99 0 166 -52t67 -138q0 -97 -76 -153t-196 -56q-159 0 -230 84l66 94q55 -59 160 -59q147 0 147 90
q0 88 -141 88q-67 0 -127 -37z" />
    <glyph glyph-name="Scaron" unicode="&#x160;" horiz-adv-x="1136" 
d="M223 1935h164l180 -192l176 192h168l-227 -274h-233zM305 1198q0 -90 49.5 -149.5t161.5 -122.5l236 -140q142 -83 213 -179.5t71 -225.5q0 -188 -127 -301t-340 -113q-109 0 -197.5 34t-148 95t-95.5 141.5t-48 176.5l149 43q9 -66 34.5 -124.5t67 -107t105.5 -76.5
t142 -28q134 0 210 70t76 186q0 159 -202 274l-220 129q-60 35 -100 62t-82.5 65t-67 76.5t-40 91.5t-15.5 115q0 162 116.5 270.5t311.5 108.5q187 0 302.5 -93.5t152.5 -265.5l-146 -43q-30 125 -111 188.5t-204 63.5q-117 0 -185.5 -61.5t-68.5 -159.5z" />
    <glyph glyph-name="scaron" unicode="&#x161;" horiz-adv-x="876" 
d="M102 1599h160l180 -237l176 237h164l-227 -337h-225zM268 799q0 -56 36.5 -93.5t119.5 -76.5l139 -64q111 -50 169.5 -119t58.5 -178q0 -133 -98 -217t-261 -84q-150 0 -246 78.5t-123 196.5l130 69q16 -82 83 -141t166 -59q84 0 134.5 41t50.5 116q0 54 -38 94t-122 78
l-129 60q-112 51 -170.5 118.5t-58.5 178.5q0 123 92.5 204.5t234.5 81.5q134 0 225 -65.5t130 -171.5l-123 -68q-26 74 -85.5 120t-142.5 46q-76 0 -124 -41t-48 -104z" />
    <glyph glyph-name="Tcedilla" unicode="&#x162;" horiz-adv-x="1079" 
d="M457 0v1389h-432v147h1028v-147h-428v-1389h-168zM643 -166q0 -74 -65 -184l-74 -125l-74 26l68 130q16 32 28 59q-39 6 -62.5 33.5t-23.5 66.5q0 41 29 70t70 29q46 0 75 -30t29 -75z" />
    <glyph glyph-name="tcedilla" unicode="&#x163;" horiz-adv-x="737" 
d="M319 -299l-47 76l154 219q-118 31 -180 121.5t-62 234.5v555h-127v144h127v280h164v-280h352v-144h-352v-538q0 -118 61.5 -179t172.5 -61q56 0 94 14v-143q-52 -20 -119 -20h-10l-98 -142q10 2 34 2q99 0 166.5 -52t67.5 -138q0 -97 -76.5 -153t-196.5 -56
q-158 0 -229 84l66 94q55 -59 159 -59q148 0 148 90q0 88 -142 88q-67 0 -127 -37z" />
    <glyph glyph-name="Tcaron" unicode="&#x164;" horiz-adv-x="1079" 
d="M197 1903h163l181 -193l176 193h168l-228 -275h-233zM457 0v1389h-432v147h1028v-147h-428v-1389h-168z" />
    <glyph glyph-name="tcaron" unicode="&#x165;" horiz-adv-x="737" 
d="M729 1538l-119 -387h-116l59 387h176zM557 -20q-179 0 -276 96t-97 276v555h-127v144h127v280h164v-280h352v-144h-352v-538q0 -118 61.5 -179t172.5 -61q56 0 94 14v-143q-52 -20 -119 -20z" />
    <glyph glyph-name="Tbar" unicode="&#x166;" horiz-adv-x="1167" 
d="M502 0v700h-350v95h350v594h-432v147h1028v-147h-428v-594h346v-95h-346v-700h-168z" />
    <glyph glyph-name="tbar" unicode="&#x167;" horiz-adv-x="751" 
d="M59 553v96h127v258h-127v144h127v280h164v-280h352v-144h-352v-258h352v-96h-352v-184q0 -118 61.5 -179t172.5 -61q56 0 94 14v-143q-52 -20 -119 -20q-179 0 -276 96t-97 276v201h-127z" />
    <glyph glyph-name="Utilde" unicode="&#x168;" horiz-adv-x="1445" 
d="M1087 1892q11 -142 -38.5 -212t-141.5 -70q-33 0 -64 8.5t-47.5 17t-45.5 25.5l-109 68q-61 38 -100 38q-74 0 -64 -139h-127q-11 142 40.5 212.5t144.5 70.5q78 0 155 -47l111 -70q6 -3 21.5 -12t25.5 -14t25 -10t28 -5q67 0 60 139h126zM178 1536h168v-1386h754v1386
h168v-1536h-1090v1536z" />
    <glyph glyph-name="utilde" unicode="&#x169;" horiz-adv-x="1175" 
d="M967 1561q13 -158 -38 -238t-143 -80q-32 0 -61.5 10t-45.5 19.5t-44 30.5l-115 79q-1 1 -19.5 15t-26.5 19t-24 11.5t-30 6.5q-83 0 -70 -172h-121q-13 158 39 237.5t146 79.5q79 0 149 -53l111 -84q3 -2 15 -10.5t17 -12t16.5 -10t19.5 -10t18.5 -6t19.5 -2.5
q78 0 68 170h119zM1014 0h-852v1051h164v-906h524v906h164v-1051z" />
    <glyph glyph-name="Umacron" unicode="&#x16a;" horiz-adv-x="1445" 
d="M449 1628v137h552v-137h-552zM178 1536h168v-1386h754v1386h168v-1536h-1090v1536z" />
    <glyph glyph-name="umacron" unicode="&#x16b;" horiz-adv-x="1175" 
d="M326 1262v137h553v-137h-553zM1014 0h-852v1051h164v-906h524v906h164v-1051z" />
    <glyph glyph-name="Ubreve" unicode="&#x16c;" horiz-adv-x="1445" 
d="M385 1892h150q0 -71 49 -112t141 -41q90 0 139 41t49 112h148q0 -129 -90 -206.5t-246 -77.5q-161 0 -250.5 77t-89.5 207zM178 1536h168v-1386h754v1386h168v-1536h-1090v1536z" />
    <glyph glyph-name="ubreve" unicode="&#x16d;" horiz-adv-x="1175" 
d="M262 1587h139q0 -97 52.5 -155t148.5 -58q94 0 145.5 58t51.5 155h139q0 -156 -90 -251t-246 -95q-161 0 -250.5 94.5t-89.5 251.5zM1014 0h-852v1051h164v-906h524v906h164v-1051z" />
    <glyph glyph-name="Uring" unicode="&#x16e;" horiz-adv-x="1445" 
d="M725 1599q-141 0 -219 56t-78 145q0 91 78.5 149t218.5 58q139 0 218 -58t79 -149q0 -89 -79 -145t-218 -56zM725 1710q81 0 125.5 25t44.5 65q0 42 -44.5 68t-125.5 26t-126.5 -26t-45.5 -68q0 -40 45.5 -65t126.5 -25zM178 1536h168v-1386h754v1386h168v-1536h-1090
v1536z" />
    <glyph glyph-name="uring" unicode="&#x16f;" horiz-adv-x="1175" 
d="M602 1233q-134 0 -215.5 65.5t-81.5 165.5q0 104 81 171t216 67q133 0 215 -67t82 -171q0 -100 -82 -165.5t-215 -65.5zM602 1346q80 0 125 33t45 85q0 57 -45 92t-125 35t-126 -35t-46 -92q0 -52 46 -85t126 -33zM1014 0h-852v1051h164v-906h524v906h164v-1051z" />
    <glyph glyph-name="Uhungarumlaut" unicode="&#x170;" horiz-adv-x="1445" 
d="M453 1628l219 275h172l-248 -275h-143zM782 1628l222 275h172l-248 -275h-146zM178 1536h168v-1386h754v1386h168v-1536h-1090v1536z" />
    <glyph glyph-name="uhungarumlaut" unicode="&#x171;" horiz-adv-x="1175" 
d="M334 1262l219 337h168l-248 -337h-139zM659 1262l222 337h166l-246 -337h-142zM1014 0h-852v1051h164v-906h524v906h164v-1051z" />
    <glyph glyph-name="Uogonek" unicode="&#x172;" horiz-adv-x="1445" 
d="M178 1536h168v-1386h754v1386h168v-1536h-152q-79 -9 -132.5 -58.5t-53.5 -121.5q0 -55 29.5 -86t74.5 -31q66 0 121 68l70 -95q-83 -102 -209 -102q-97 0 -159 59t-62 160q0 132 120 207h-737v1536z" />
    <glyph glyph-name="uogonek" unicode="&#x173;" horiz-adv-x="1175" 
d="M1014 0h-129q-79 -9 -133 -59t-54 -121q0 -55 30 -86t75 -31q66 0 121 68l69 -95q-83 -102 -209 -102q-97 0 -159 59t-62 160q0 131 121 207h-522v1051h164v-906h524v906h164v-1051z" />
    <glyph glyph-name="Wcircumflex" unicode="&#x174;" horiz-adv-x="1929" 
d="M616 1628l230 275h233l228 -275h-168l-176 193l-179 -193h-168zM1305 0l-342 1206h-9l-325 -1206h-193l-379 1536h183l295 -1260h8l336 1260h159l351 -1260h8l295 1260h178l-377 -1536h-188z" />
    <glyph glyph-name="wcircumflex" unicode="&#x175;" horiz-adv-x="1634" 
d="M477 1262l230 337h225l227 -337h-164l-176 237l-178 -237h-164zM1585 1051l-276 -1051h-240l-250 907h-8l-250 -907h-229l-285 1051h174l223 -906h9l241 906h248l242 -906h8l223 906h170z" />
    <glyph glyph-name="Ycircumflex" unicode="&#x176;" horiz-adv-x="1308" 
d="M311 1628l230 275h233l227 -275h-167l-177 193l-178 -193h-168zM569 0v594l-528 942h190l420 -774h8l424 774h187l-533 -942v-594h-168z" />
    <glyph glyph-name="ycircumflex" unicode="&#x177;" horiz-adv-x="1087" 
d="M203 1262l229 337h225l228 -337h-164l-176 237l-178 -237h-164zM520 -471h-321v145h211l114 338h-71l-430 1039h178l356 -891h10l234 671l73 220h173z" />
    <glyph glyph-name="Ydieresis" unicode="&#x178;" horiz-adv-x="1308" 
d="M444 1614q-45 0 -77.5 31.5t-32.5 76.5q0 44 32.5 75.5t77.5 31.5q44 0 75.5 -31.5t31.5 -75.5q0 -46 -31.5 -77t-75.5 -31zM872 1614q-43 0 -75.5 31.5t-32.5 76.5q0 44 32.5 75.5t75.5 31.5q44 0 76.5 -31.5t32.5 -75.5q0 -45 -32 -76.5t-77 -31.5zM569 0v594l-528 942
h190l420 -774h8l424 774h187l-533 -942v-594h-168z" />
    <glyph glyph-name="Zacute" unicode="&#x179;" horiz-adv-x="1067" 
d="M399 1628l222 275h210l-258 -275h-174zM68 1389v147h958l-737 -1386h717v-150h-971l739 1389h-706z" />
    <glyph glyph-name="zacute" unicode="&#x17a;" horiz-adv-x="944" 
d="M332 1262l221 337h203l-260 -337h-164zM78 907v144h821l-582 -906h549v-145h-821l586 907h-553z" />
    <glyph glyph-name="Zdotaccent" unicode="&#x17b;" horiz-adv-x="1067" 
d="M545 1612q-51 0 -87 35t-36 86t36 85.5t87 34.5t87 -34.5t36 -85.5t-36 -86t-87 -35zM68 1389v147h958l-737 -1386h717v-150h-971l739 1389h-706z" />
    <glyph glyph-name="zdotaccent" unicode="&#x17c;" horiz-adv-x="944" 
d="M473 1245q-51 0 -87 36t-36 87q0 52 35.5 86.5t87.5 34.5t87.5 -34.5t35.5 -86.5q0 -51 -36 -87t-87 -36zM78 907v144h821l-582 -906h549v-145h-821l586 907h-553z" />
    <glyph glyph-name="Zcaron" unicode="&#x17d;" horiz-adv-x="1067" 
d="M203 1903h164l180 -193l176 193h168l-227 -275h-234zM68 1389v147h958l-737 -1386h717v-150h-971l739 1389h-706z" />
    <glyph glyph-name="zcaron" unicode="&#x17e;" horiz-adv-x="944" 
d="M133 1599h160l180 -237l176 237h164l-227 -337h-226zM78 907v144h821l-582 -906h549v-145h-821l586 907h-553z" />
    <glyph glyph-name="Schwa" unicode="&#x18f;" horiz-adv-x="1693" 
d="M827 1419q-158 0 -292 -68.5t-220 -189.5l-112 94q101 148 262.5 231t361.5 83q219 0 397.5 -104t280 -287.5t101.5 -409.5q0 -170 -58 -318.5t-160.5 -254.5t-248 -167t-314.5 -61q-225 0 -395.5 97t-260.5 266t-91 385q0 64 8 114h1346q-10 127 -59 236t-127.5 187
t-186.5 122.5t-232 44.5zM825 121q245 0 411 156.5t194 404.5h-1180q6 -250 162 -405.5t413 -155.5z" />
    <glyph glyph-name="fhook" unicode="&#x192;" horiz-adv-x="845" 
d="M100 639v141h172l27 408q18 360 356 360q86 0 123 -12v-150q-38 13 -96 13q-201 0 -213 -225l-25 -394h254v-141h-264l-72 -1110h-169l71 1110h-164z" />
    <glyph glyph-name="Zstroke" unicode="&#x1b5;" horiz-adv-x="1114" 
d="M119 702v95h364l316 592h-707v147h959l-394 -739h334v-95h-383l-295 -552h717v-150h-971l375 702h-315z" />
    <glyph glyph-name="zstroke" unicode="&#x1b6;" horiz-adv-x="974" 
d="M115 494v94h323l207 319h-553v144h821l-297 -463h258v-94h-319l-223 -349h549v-145h-822l320 494h-264z" />
    <glyph glyph-name="Aringacute" unicode="&#x1fa;" horiz-adv-x="1357" 
d="M385 2042l543 162l41 -133l-561 -121zM680 1593q-146 0 -221.5 49.5t-75.5 129.5q0 79 76 128.5t221 49.5t221 -49.5t76 -128.5q0 -80 -76 -129.5t-221 -49.5zM680 1704q73 0 121.5 19.5t48.5 48.5t-48 48t-122 19q-86 0 -130 -18t-44 -49t44 -49.5t130 -18.5zM37 0
l534 1536h213l535 -1536h-180l-142 422h-645l-141 -422h-174zM674 1372l-271 -803h545l-266 803h-8z" />
    <glyph glyph-name="aringacute" unicode="&#x1fb;" horiz-adv-x="1083" 
d="M207 1683l543 162l41 -133l-562 -121zM502 1163q-135 0 -216 59t-81 148q0 92 81.5 151.5t215.5 59.5q133 0 215 -59.5t82 -151.5q0 -88 -82.5 -147.5t-214.5 -59.5zM502 1278q79 0 124.5 26t45.5 66q0 45 -45 72.5t-125 27.5q-81 0 -127.5 -27.5t-46.5 -72.5
q0 -39 47 -65.5t127 -26.5zM82 283q0 148 106.5 236.5t280.5 88.5q198 0 301 -112h8q-6 66 -6 163q0 129 -76.5 204t-208.5 75q-174 0 -288 -127l-93 107q140 165 400 165q198 0 313 -112t115 -305v-666h-162v27q0 23 4 77h-8q-32 -59 -115.5 -98t-187.5 -39q-171 0 -277 86
t-106 230zM504 113q121 0 191.5 48t70.5 130t-70 129t-192 47q-119 0 -187.5 -47t-68.5 -129t69 -130t187 -48z" />
    <glyph glyph-name="AEacute" unicode="&#x1fc;" horiz-adv-x="1978" 
d="M840 1628l221 275h211l-258 -275h-174zM1026 0v498h-692v-498h-168v1049q0 127 39.5 227.5t109.5 163.5t162.5 96t202.5 33q117 0 205 -33h983v-147h-776q102 -130 102 -340v-197h633v-147h-633v-555h684v-150h-852zM334 1032v-387h692v387q0 194 -93 289.5t-253 95.5
q-157 0 -251.5 -96t-94.5 -289z" />
    <glyph glyph-name="aeacute" unicode="&#x1fd;" horiz-adv-x="1687" 
d="M694 1262l221 337h203l-260 -337h-164zM1550 145v-145h-780v31q0 23 4 73h-8q-32 -60 -115.5 -98.5t-195.5 -38.5q-169 0 -271 91.5t-102 232.5q0 138 104.5 226.5t276.5 88.5q113 0 191 -31t114 -86h8q-6 49 -6 168q0 130 -76 205.5t-207 75.5q-179 0 -286 -123l-97 107
q138 161 388 161q132 0 222 -52.5t132 -151.5q36 93 125 148.5t209 55.5q186 0 300.5 -107t114.5 -282v-243h-675v-306h630zM1176 938q-114 0 -185 -73t-71 -195v-80h514v82q0 119 -72.5 192.5t-185.5 73.5zM496 113q124 0 196 48.5t72 131.5q0 80 -72 126t-196 46
q-114 0 -181 -46.5t-67 -125.5q0 -83 67 -131.5t181 -48.5z" />
    <glyph glyph-name="Oslashacute" unicode="&#x1fe;" horiz-adv-x="1738" 
d="M725 1661l221 274h211l-258 -274h-174zM328 -25l-82 62l96 127q-120 110 -186 266t-66 338q0 170 59 318.5t161.5 254.5t247.5 167t312 61q244 0 433 -125l92 123l82 -62l-93 -123q126 -109 196.5 -268t70.5 -346q0 -226 -101 -409.5t-280 -287.5t-400 -104
q-250 0 -448 133zM262 768q0 -141 46.5 -262.5t131.5 -208.5l768 1020q-149 100 -338 100q-174 0 -313.5 -84t-217 -232.5t-77.5 -332.5zM870 121q175 0 314 83.5t217 231.5t78 332q0 147 -50 271.5t-141 213.5l-770 -1024q151 -108 352 -108z" />
    <glyph glyph-name="oslashacute" unicode="&#x1ff;" horiz-adv-x="1273" 
d="M498 1262l221 337h203l-260 -337h-164zM240 -70l-80 62l92 121q-81 76 -125.5 182.5t-44.5 230.5q0 239 158.5 398t396.5 159q166 0 299 -82l96 125l80 -57l-96 -127q83 -76 129.5 -183.5t46.5 -232.5q0 -157 -71.5 -285t-199 -201t-284.5 -73q-169 0 -305 84zM250 526
q0 -170 100 -284l494 639q-91 57 -207 57q-168 0 -277.5 -116.5t-109.5 -295.5zM637 115q168 0 278.5 117t110.5 294q0 176 -106 291l-492 -643q91 -59 209 -59z" />
    <glyph glyph-name="Scommaaccent" unicode="&#x218;" horiz-adv-x="1136" 
d="M305 1198q0 -90 49.5 -149.5t161.5 -122.5l236 -140q142 -83 213 -179.5t71 -225.5q0 -188 -127 -301t-340 -113q-109 0 -197.5 34t-148 95t-95.5 141.5t-48 176.5l149 43q9 -66 34.5 -124.5t67 -107t105.5 -76.5t142 -28q134 0 210 70t76 186q0 159 -202 274l-220 129
q-60 35 -100 62t-82.5 65t-67 76.5t-40 91.5t-15.5 115q0 162 116.5 270.5t311.5 108.5q187 0 302.5 -93.5t152.5 -265.5l-146 -43q-30 125 -111 188.5t-204 63.5q-117 0 -185.5 -61.5t-68.5 -159.5zM674 -213q0 -73 -66 -184l-73 -125l-74 26l67 129q21 42 29 60
q-39 6 -62.5 33.5t-23.5 66.5q0 41 28.5 69.5t69.5 28.5q47 0 76 -29.5t29 -74.5z" />
    <glyph glyph-name="scommaaccent" unicode="&#x219;" horiz-adv-x="876" 
d="M268 799q0 -56 36.5 -93.5t119.5 -76.5l139 -64q111 -50 169.5 -119t58.5 -178q0 -133 -98 -217t-261 -84q-150 0 -246 78.5t-123 196.5l130 69q16 -82 83 -141t166 -59q84 0 134.5 41t50.5 116q0 54 -38 94t-122 78l-129 60q-112 51 -170.5 118.5t-58.5 178.5
q0 123 92.5 204.5t234.5 81.5q134 0 225 -65.5t130 -171.5l-123 -68q-26 74 -85.5 120t-142.5 46q-76 0 -124 -41t-48 -104zM537 -213q0 -73 -66 -184l-74 -125l-73 26l67 129q21 42 29 60q-39 6 -62.5 33.5t-23.5 66.5q0 41 28.5 69.5t69.5 28.5q47 0 76 -29.5t29 -74.5z
" />
    <glyph glyph-name="Tcommaaccent" unicode="&#x21a;" horiz-adv-x="1079" 
d="M457 0v1389h-432v147h1028v-147h-428v-1389h-168zM643 -166q0 -74 -65 -184l-74 -125l-74 26l68 130q16 32 28 59q-39 6 -62.5 33.5t-23.5 66.5q0 41 29 70t70 29q46 0 75 -30t29 -75z" />
    <glyph glyph-name="tcommaaccent" unicode="&#x21b;" horiz-adv-x="737" 
d="M557 -20q-179 0 -276 96t-97 276v555h-127v144h127v280h164v-280h352v-144h-352v-538q0 -118 61.5 -179t172.5 -61q56 0 94 14v-143q-52 -20 -119 -20zM565 -209q0 -74 -65 -184l-74 -125l-74 26l68 130q25 50 29 59q-39 6 -63 33.5t-24 66.5q0 41 29 70t70 29
q46 0 75 -30t29 -75z" />
    <glyph glyph-name="dotlessj" unicode="&#x237;" horiz-adv-x="505" 
d="M342 -471h-436v145h272v1377h164v-1522z" />
    <glyph glyph-name="schwa" unicode="&#x259;" horiz-adv-x="1224" 
d="M1143 526q0 -241 -157.5 -400t-395.5 -159q-228 0 -373 159t-145 400q0 36 4 64h895q-19 158 -123.5 253t-261.5 95q-206 0 -334 -162l-96 98q156 209 432 209q239 0 397 -159t158 -398zM592 115q149 0 251.5 91.5t125.5 242.5h-733q8 -146 106.5 -240t249.5 -94z" />
    <glyph glyph-name="commaturnedmod" unicode="&#x2bb;" horiz-adv-x="419" 
d="M102 1174q0 21 2.5 40t10.5 44t11 33t18 42t16 37l84 193l75 -27l-77 -190q-7 -16 -25 -68q41 -5 67.5 -34.5t26.5 -72.5q0 -44 -29.5 -74t-72.5 -30q-49 0 -78 29.5t-29 77.5z" />
    <glyph glyph-name="circumflex" unicode="&#x2c6;" horiz-adv-x="845" 
d="M82 1266l229 338h226l227 -338h-164l-176 237l-178 -237h-164z" />
    <glyph glyph-name="caron" unicode="&#x2c7;" horiz-adv-x="845" 
d="M84 1604h160l180 -238l176 238h164l-227 -338h-226z" />
    <glyph glyph-name="breve" unicode="&#x2d8;" horiz-adv-x="837" 
d="M82 1591h139q0 -97 52.5 -155t148.5 -58q93 0 144.5 58t51.5 155h140q0 -156 -90 -251t-246 -95q-161 0 -250.5 94.5t-89.5 251.5z" />
    <glyph glyph-name="dotaccent" unicode="&#x2d9;" horiz-adv-x="497" 
d="M248 1249q-51 0 -87 36t-36 87q0 52 35.5 86.5t87.5 34.5t87.5 -34.5t35.5 -86.5q0 -51 -36 -87t-87 -36z" />
    <glyph glyph-name="ring" unicode="&#x2da;" horiz-adv-x="743" 
d="M373 1237q-134 0 -215.5 65.5t-81.5 165.5q0 104 81 171t216 67q133 0 215 -67t82 -171q0 -100 -82 -165.5t-215 -65.5zM373 1350q80 0 125 33t45 85q0 57 -45 92t-125 35t-126 -35t-46 -92q0 -52 46 -85t126 -33z" />
    <glyph glyph-name="ogonek" unicode="&#x2db;" horiz-adv-x="610" 
d="M438 -6q-90 0 -154.5 -51t-64.5 -131q0 -55 30 -86t75 -31q66 0 120 67l70 -94q-83 -102 -209 -102q-97 0 -159 59t-62 160q0 98 73 169t201 99z" />
    <glyph glyph-name="tilde" unicode="&#x2dc;" horiz-adv-x="935" 
d="M834 1565q13 -158 -38 -238t-143 -80q-32 0 -61.5 10t-45.5 19.5t-44 30.5l-115 79q-1 1 -19.5 15t-26.5 19t-24 11.5t-30 6.5q-83 0 -70 -172h-121q-13 158 39 237.5t146 79.5q79 0 149 -53l111 -84q3 -2 15 -10.5t17 -12t16.5 -10t19.5 -10t18.5 -6t19.5 -2.5
q78 0 68 170h119z" />
    <glyph glyph-name="hungarumlaut" unicode="&#x2dd;" horiz-adv-x="876" 
d="M84 1266l219 338h168l-248 -338h-139zM410 1266l221 338h166l-246 -338h-141z" />
    <glyph glyph-name="Delta" unicode="&#x394;" horiz-adv-x="1423" 
d="M57 0v127l555 1409h197l557 -1409v-127h-1309zM709 1376l-476 -1229h955z" />
    <glyph glyph-name="Omega" unicode="&#x3a9;" horiz-adv-x="1581" 
d="M655 0h-516v145h355v174q-183 70 -289.5 224t-106.5 364q0 190 90.5 342t248.5 236t354 84q146 0 274.5 -49.5t220 -136t144.5 -210t53 -266.5q0 -207 -106.5 -360t-289.5 -225v-177h355v-145h-516v410q174 41 281.5 173t107.5 320q0 225 -148 372.5t-376 147.5
t-376.5 -147.5t-148.5 -372.5q0 -190 107.5 -322.5t281.5 -168.5v-412z" />
    <glyph glyph-name="mu" unicode="&#x3bc;" horiz-adv-x="1181" 
d="M326 -4v-467h-164v1522h164v-654q0 -125 77 -201.5t199 -76.5q120 0 194 76t74 202v654h164v-658q0 -184 -110.5 -303t-284.5 -119q-131 0 -210.5 43.5t-102.5 98.5h-7q7 -54 7 -117z" />
    <glyph glyph-name="pi" unicode="&#x3c0;" horiz-adv-x="1187" 
d="M219 0v907h-184v144h1118v-144h-182v-907h-164v907h-424v-907h-164z" />
    <glyph glyph-name="Wgrave" unicode="&#x1e80;" horiz-adv-x="1929" 
d="M1137 1628h-174l-258 275h210zM1305 0l-342 1206h-9l-325 -1206h-193l-379 1536h183l295 -1260h8l336 1260h159l351 -1260h8l295 1260h178l-377 -1536h-188z" />
    <glyph glyph-name="wgrave" unicode="&#x1e81;" horiz-adv-x="1634" 
d="M961 1262h-166l-258 337h202zM1585 1051l-276 -1051h-240l-250 907h-8l-250 -907h-229l-285 1051h174l223 -906h9l241 906h248l242 -906h8l223 906h170z" />
    <glyph glyph-name="Wacute" unicode="&#x1e82;" horiz-adv-x="1929" 
d="M817 1628l221 275h211l-258 -275h-174zM1305 0l-342 1206h-9l-325 -1206h-193l-379 1536h183l295 -1260h8l336 1260h159l351 -1260h8l295 1260h178l-377 -1536h-188z" />
    <glyph glyph-name="wacute" unicode="&#x1e83;" horiz-adv-x="1634" 
d="M676 1262l221 337h203l-260 -337h-164zM1585 1051l-276 -1051h-240l-250 907h-8l-250 -907h-229l-285 1051h174l223 -906h9l241 906h248l242 -906h8l223 906h170z" />
    <glyph glyph-name="Wdieresis" unicode="&#x1e84;" horiz-adv-x="1929" 
d="M748 1614q-45 0 -78 31.5t-33 76.5q0 44 33 75.5t78 31.5q44 0 75 -31.5t31 -75.5q0 -46 -31 -77t-75 -31zM1176 1614q-44 0 -76.5 31.5t-32.5 76.5q0 44 33 75.5t76 31.5q44 0 76 -31.5t32 -75.5q0 -45 -31.5 -76.5t-76.5 -31.5zM1305 0l-342 1206h-9l-325 -1206h-193
l-379 1536h183l295 -1260h8l336 1260h159l351 -1260h8l295 1260h178l-377 -1536h-188z" />
    <glyph glyph-name="wdieresis" unicode="&#x1e85;" horiz-adv-x="1634" 
d="M604 1247q-44 0 -77 32.5t-33 78.5q0 43 33 74.5t77 31.5t75.5 -31.5t31.5 -74.5q0 -46 -31.5 -78.5t-75.5 -32.5zM1032 1247q-43 0 -75.5 33t-32.5 78q0 43 32.5 74.5t75.5 31.5q44 0 76.5 -31.5t32.5 -74.5q0 -46 -32.5 -78.5t-76.5 -32.5zM1585 1051l-276 -1051h-240
l-250 907h-8l-250 -907h-229l-285 1051h174l223 -906h9l241 906h248l242 -906h8l223 906h170z" />
    <glyph glyph-name="Xdot" unicode="&#x1e8a;" horiz-adv-x="1179" 
d="M586 1612q-51 0 -87 35t-36 86t36 85.5t87 34.5t87 -34.5t36 -85.5t-36 -86t-87 -35zM584 653l-381 -653h-185l474 768l-459 768h184l367 -651h8l373 651h184l-461 -760l473 -776h-184l-385 653h-8z" />
    <glyph glyph-name="xdot" unicode="&#x1e8b;" horiz-adv-x="1028" 
d="M510 1245q-51 0 -87 36t-36 87q0 52 35.5 86.5t87.5 34.5t87.5 -34.5t35.5 -86.5q0 -51 -36 -87t-87 -36zM410 532l-377 519h196l283 -412h8l285 412h190l-374 -519l378 -532h-192l-293 426h-8l-287 -426h-190z" />
    <glyph glyph-name="Germandbls" unicode="&#x1e9e;" horiz-adv-x="1482" 
d="M164 0v979q0 265 165 427.5t439 162.5q360 0 559 -217l-379 -508q10 2 37 2q186 0 308 -120t122 -304q0 -197 -137 -326t-352 -129q-119 0 -215 34t-152 95l76 129q101 -106 283 -106q147 0 236 84.5t89 216.5q0 129 -89.5 212t-238.5 83q-65 0 -133 -19l-32 115l366 506
q-114 100 -350 100q-204 0 -319 -118.5t-115 -319.5v-979h-168z" />
    <glyph glyph-name="Ygrave" unicode="&#x1ef2;" horiz-adv-x="1308" 
d="M831 1628h-174l-258 275h211zM569 0v594l-528 942h190l420 -774h8l424 774h187l-533 -942v-594h-168z" />
    <glyph glyph-name="ygrave" unicode="&#x1ef3;" horiz-adv-x="1087" 
d="M686 1262h-166l-258 337h203zM520 -471h-321v145h211l114 338h-71l-430 1039h178l356 -891h10l234 671l73 220h173z" />
    <glyph glyph-name="figurespace" unicode="&#x2007;" horiz-adv-x="1290" 
 />
    <glyph glyph-name="punctuationspace" unicode="&#x2008;" horiz-adv-x="419" 
 />
    <glyph glyph-name="endash" unicode="&#x2013;" horiz-adv-x="1165" 
d="M133 698v146h901v-146h-901z" />
    <glyph glyph-name="emdash" unicode="&#x2014;" horiz-adv-x="1533" 
d="M133 698v146h1270v-146h-1270z" />
    <glyph glyph-name="quoteleft" unicode="&#x2018;" horiz-adv-x="419" 
d="M102 1174q0 21 2.5 40t10.5 44t11 33t18 42t16 37l84 193l75 -27l-77 -190q-7 -16 -25 -68q41 -5 67.5 -34.5t26.5 -72.5q0 -44 -29.5 -74t-72.5 -30q-49 0 -78 29.5t-29 77.5z" />
    <glyph glyph-name="quoteright" unicode="&#x2019;" horiz-adv-x="409" 
d="M319 1448q0 -15 -1.5 -29.5t-5 -30.5t-6.5 -26.5t-10 -28.5t-10 -25.5t-12 -29t-12 -27.5l-84 -192l-76 26l78 191q8 19 25 67q-41 5 -67.5 34.5t-26.5 72.5q0 44 29.5 74t72.5 30q49 0 77.5 -29t28.5 -77z" />
    <glyph glyph-name="quotesinglbase" unicode="&#x201a;" horiz-adv-x="444" 
d="M326 104q0 -21 -2.5 -40t-10.5 -44t-11 -33t-18 -42t-16 -37l-84 -193l-75 27l77 190q7 16 25 68q-41 5 -67.5 34t-26.5 72q0 44 29.5 74.5t72.5 30.5q49 0 78 -29.5t29 -77.5z" />
    <glyph glyph-name="quotedblleft" unicode="&#x201c;" horiz-adv-x="745" 
d="M428 1174q0 18 2.5 36.5t5 30.5t10.5 34t10.5 29t14.5 34t14 32l84 193l76 -27l-78 -190q-2 -4 -24 -68q41 -5 67.5 -34.5t26.5 -72.5q0 -44 -29.5 -74t-72.5 -30q-49 0 -78 29.5t-29 77.5zM102 1174q0 21 2.5 40t10.5 44t11 33t18 42t16 37l84 193l75 -27l-77 -190
q-7 -16 -25 -68q41 -5 67.5 -34.5t26.5 -72.5q0 -44 -29.5 -74t-72.5 -30q-49 0 -78 29.5t-29 77.5z" />
    <glyph glyph-name="quotedblright" unicode="&#x201d;" horiz-adv-x="733" 
d="M319 1448q0 -15 -1.5 -29.5t-5 -30.5t-6.5 -26.5t-10 -28.5t-10 -25.5t-12 -29t-12 -27.5l-84 -192l-76 26l78 191q8 19 25 67q-41 5 -67.5 34.5t-26.5 72.5q0 44 29.5 74t72.5 30q49 0 77.5 -29t28.5 -77zM643 1448q0 -15 -1.5 -29.5t-5 -30.5t-6.5 -26.5t-10 -28.5
t-10 -25.5t-12 -29t-12 -27.5l-84 -192l-76 26l78 191q3 8 24 67q-41 5 -67.5 34.5t-26.5 72.5q0 44 30 74t73 30q49 0 77.5 -29t28.5 -77z" />
    <glyph glyph-name="quotedblbase" unicode="&#x201e;" horiz-adv-x="770" 
d="M326 104q0 -21 -2.5 -40t-10.5 -44t-11 -33t-18 -42t-16 -37l-84 -193l-75 27l77 190q7 16 25 68q-41 5 -67.5 34t-26.5 72q0 44 29.5 74.5t72.5 30.5q49 0 78 -29.5t29 -77.5zM649 104q0 -18 -2.5 -36.5t-5 -30.5t-10.5 -34t-10.5 -29t-14.5 -34t-14 -32l-84 -193
l-76 27l78 190q7 15 25 68q-42 5 -68.5 34.5t-26.5 71.5q0 44 30 74.5t73 30.5q49 0 77.5 -29.5t28.5 -77.5z" />
    <glyph glyph-name="dagger" unicode="&#x2020;" horiz-adv-x="843" 
d="M346 594v516h-274v139h274v287h152v-287h274v-139h-274v-516h-152z" />
    <glyph glyph-name="daggerdbl" unicode="&#x2021;" horiz-adv-x="917" 
d="M809 766v-139h-274v-287h-152v287h-274v139h274v344h-274v139h274v287h152v-287h274v-139h-274v-344h274z" />
    <glyph glyph-name="bullet" unicode="&#x2022;" horiz-adv-x="663" 
d="M332 604q-70 0 -121 50.5t-51 121.5t51 120.5t121 49.5t121 -49.5t51 -120.5t-51 -121.5t-121 -50.5z" />
    <glyph glyph-name="ellipsis" unicode="&#x2026;" horiz-adv-x="1568" 
d="M209 -14q-42 0 -72.5 30t-30.5 72t30.5 72t72.5 30t72 -30t30 -72t-30 -72t-72 -30zM784 -14q-42 0 -72 30t-30 72t30 72t72 30t72.5 -30t30.5 -72t-30.5 -72t-72.5 -30zM1360 -14q-42 0 -72.5 30t-30.5 72t30.5 72t72.5 30t72 -30t30 -72t-30 -72t-72 -30z" />
    <glyph glyph-name="perthousand" unicode="&#x2030;" horiz-adv-x="2330" 
d="M410 715q-149 0 -240.5 85.5t-97.5 223.5q-3 118 0 233q6 138 97.5 223t240.5 85q148 0 238.5 -85t96.5 -223q6 -115 0 -233q-6 -138 -96.5 -223.5t-238.5 -85.5zM348 0l942 1536h152l-942 -1536h-152zM410 1444q-85 0 -135.5 -48t-55.5 -126q-6 -130 0 -256
q5 -79 55.5 -126.5t135.5 -47.5q84 0 134.5 47.5t53.5 126.5q6 126 0 256q-3 78 -53.5 126t-134.5 48zM1389 -31q-144 0 -235 86.5t-97 223.5q-3 119 0 233q6 138 96.5 223.5t235.5 85.5q96 0 165 -40.5t105 -114.5q79 155 272 155q145 0 233.5 -85.5t94.5 -223.5
q6 -114 0 -233q-6 -137 -95 -223.5t-233 -86.5q-96 0 -165 42t-107 116q-36 -74 -105 -116t-165 -42zM1395 698q-84 0 -134 -48t-55 -126q-6 -126 0 -256q5 -78 54.5 -125t134.5 -47q86 0 135.5 47t54.5 125q6 130 0 256q-5 79 -54.5 126.5t-135.5 47.5zM1925 698
q-85 0 -135 -48t-55 -126q-6 -126 0 -256q5 -78 55 -125t135 -47t134.5 47t54.5 125q6 130 0 256q-5 78 -55 126t-134 48z" />
    <glyph glyph-name="guilsinglleft" unicode="&#x2039;" horiz-adv-x="638" 
d="M86 614l338 492l113 -68l-291 -422l291 -423l-113 -70z" />
    <glyph glyph-name="guilsinglright" unicode="&#x203a;" horiz-adv-x="638" 
d="M553 614l-338 -491l-113 70l291 423l-291 422l113 68z" />
    <glyph glyph-name="fraction" unicode="&#x2044;" horiz-adv-x="348" 
d="M-375 0l942 1536h152l-942 -1536h-152z" />
    <glyph glyph-name="zero.superior" unicode="&#x2070;" horiz-adv-x="860" 
d="M430 680q-152 0 -246 88t-100 229q-3 121 0 240q6 141 100 228t246 87t245 -87t99 -228q6 -119 0 -240q-6 -141 -99 -229t-245 -88zM430 1427q-86 0 -137.5 -49t-56.5 -129q-6 -133 0 -262q5 -81 56.5 -129.5t137.5 -48.5q87 0 138.5 48.5t56.5 129.5q6 129 0 262
q-5 80 -57 129t-138 49z" />
    <glyph glyph-name="four.superior" unicode="&#x2074;" horiz-adv-x="788" 
d="M467 698v203h-416l135 635h138l-107 -510h250v287h145v-287h131v-125h-131v-203h-145z" />
    <glyph glyph-name="five.superior" unicode="&#x2075;" horiz-adv-x="733" 
d="M61 817l99 82q70 -92 188 -92q73 0 120.5 39t47.5 104t-47 105.5t-121 40.5q-73 0 -137 -49l-98 40q2 1 2 3l-4 -3v449h514v-127h-375v-227q62 32 133 32q127 0 205 -71.5t78 -190.5q0 -121 -88.5 -196.5t-231.5 -75.5q-191 0 -285 137z" />
    <glyph glyph-name="six.superior" unicode="&#x2076;" horiz-adv-x="817" 
d="M721 698h-610v521q0 158 89 245.5t246 87.5q204 0 287 -163l-119 -68q-56 106 -174 106q-82 0 -130 -47.5t-48 -138.5v-57h459v-486zM262 823h313v248h-313v-248z" />
    <glyph glyph-name="seven.superior" unicode="&#x2077;" horiz-adv-x="710" 
d="M47 1409v127h651l-405 -838h-166l358 711h-438z" />
    <glyph glyph-name="eight.superior" unicode="&#x2078;" horiz-adv-x="792" 
d="M717 926q0 -109 -90 -177.5t-232 -68.5t-230.5 68.5t-88.5 177.5q0 74 42.5 128.5t114.5 71.5v9q-60 19 -97.5 70.5t-37.5 117.5q0 104 82 166.5t215 62.5t215 -62.5t82 -166.5q0 -66 -37.5 -116.5t-97.5 -69.5v-11q71 -17 115.5 -72t44.5 -128zM395 1184
q69 0 111.5 35.5t42.5 93.5q0 53 -42.5 86t-111.5 33t-111 -33t-42 -86q0 -58 42 -93.5t111 -35.5zM395 805q76 0 124 36t48 97q0 58 -48 92.5t-124 34.5t-123 -34.5t-47 -92.5q0 -61 47 -97t123 -36z" />
    <glyph glyph-name="nine.superior" unicode="&#x2079;" horiz-adv-x="790" 
d="M367 1552q140 0 225.5 -77.5t85.5 -210.5v-566h-528v127h376v267q-66 -82 -192 -82q-120 0 -199.5 76.5t-79.5 191.5q0 121 87 197.5t225 76.5zM367 1427q-71 0 -116.5 -41.5t-45.5 -105.5t46 -103.5t116 -39.5t114.5 39.5t44.5 103.5q0 65 -44.5 106t-114.5 41z" />
    <glyph glyph-name="Euro" unicode="&#x20ac;" horiz-adv-x="1323" 
d="M72 528v136h194v196h-194v135h198v25q9 242 158.5 395.5t384.5 153.5q149 0 262 -63.5t176 -180.5l-129 -82q-47 83 -126 129.5t-183 46.5q-163 0 -264 -108t-109 -277q0 -27 -2 -39h523v-135h-525v-196h525v-136h-521v-22q8 -170 109 -277.5t264 -107.5q214 0 311 182
l129 -86q-68 -121 -180 -185.5t-260 -64.5q-235 0 -384.5 154.5t-158.5 396.5v10h-198z" />
    <glyph glyph-name="turkishlira" unicode="&#x20ba;" horiz-adv-x="1312" 
d="M106 459v133l177 41v209l-177 -41v135l177 41v559h168v-520l544 125v-135l-544 -125v-209l544 125v-133l-544 -125v-389h264q168 0 266 127t98 339h168q0 -282 -141.5 -449t-390.5 -167h-432v500z" />
    <glyph glyph-name="trademark" unicode="&#x2122;" horiz-adv-x="1814" 
d="M299 752v665h-231v119h600v-119h-230v-665h-139zM1343 752h-286l-113 667h-65v-667h-131v784h313l104 -664h66l108 664h310v-784h-129v667h-64z" />
    <glyph glyph-name="ohm" unicode="&#x2126;" horiz-adv-x="1581" 
d="M655 0h-516v145h355v174q-183 70 -289.5 224t-106.5 364q0 190 90.5 342t248.5 236t354 84q146 0 274.5 -49.5t220 -136t144.5 -210t53 -266.5q0 -207 -106.5 -360t-289.5 -225v-177h355v-145h-516v410q174 41 281.5 173t107.5 320q0 225 -148 372.5t-376 147.5
t-376.5 -147.5t-148.5 -372.5q0 -190 107.5 -322.5t281.5 -168.5v-412z" />
    <glyph glyph-name="partialdiff" unicode="&#x2202;" horiz-adv-x="1228" 
d="M1128 858q0 -258 -69 -457.5t-203.5 -314.5t-316.5 -115q-216 0 -351 134t-135 346q0 204 130.5 331t344.5 127q146 0 252.5 -65t145.5 -170q22 -66 24 -121h8q0 20 1.5 55.5t1.5 57.5q0 20 3 90.5t3 113.5q0 261 -124 407t-347 146q-138 0 -234 -34v147q110 33 252 33
q128 0 236 -40.5t194 -123.5t135 -223t49 -324zM539 119q141 0 229 94t88 238q0 132 -88.5 221.5t-228.5 89.5q-141 0 -229.5 -90.5t-88.5 -220.5q0 -145 87.5 -238.5t230.5 -93.5z" />
    <glyph glyph-name="increment" unicode="&#x2206;" horiz-adv-x="1423" 
d="M57 0v127l555 1409h197l557 -1409v-127h-1309zM709 1376l-476 -1229h955z" />
    <glyph glyph-name="product" unicode="&#x220f;" horiz-adv-x="1370" 
d="M274 -205v1598h-213v143h1246v-143h-211v-1598h-164v1598h-494v-1598h-164z" />
    <glyph glyph-name="summation" unicode="&#x2211;" horiz-adv-x="1036" 
d="M68 -205v123l518 748l-502 747v123h860v-143h-659l481 -729l-504 -723h701v-146h-895z" />
    <glyph glyph-name="minus" unicode="&#x2212;" 
d="M109 692v146h888v-146h-888z" />
    <glyph glyph-name="bulletoperator" unicode="&#x2219;" horiz-adv-x="663" 
d="M332 604q-70 0 -121 50.5t-51 121.5t51 120.5t121 49.5t121 -49.5t51 -120.5t-51 -121.5t-121 -50.5z" />
    <glyph glyph-name="radical" unicode="&#x221a;" horiz-adv-x="1232" 
d="M735 -205h-166l-301 819h-266v144h391l174 -496q65 -192 72 -242h8q10 77 68 275l360 1241h170z" />
    <glyph glyph-name="infinity" unicode="&#x221e;" horiz-adv-x="2125" 
d="M1063 793l180 184q149 156 346 156q188 0 312 -123t124 -318q0 -196 -123.5 -319t-310.5 -123q-110 0 -194 42t-158 118l-174 184l-176 -180q-76 -79 -160.5 -121.5t-196.5 -42.5q-186 0 -309 123t-123 319q0 194 123.5 317.5t308.5 123.5q112 0 195 -40.5t158 -115.5z
M543 397q77 0 133.5 32.5t114.5 90.5l165 174l-170 172q-55 57 -110.5 88t-132.5 31q-122 0 -201.5 -84t-79.5 -209q0 -128 79 -211.5t202 -83.5zM1583 397q122 0 200.5 83.5t78.5 211.5q0 126 -78.5 209.5t-200.5 83.5q-77 0 -134.5 -31t-111.5 -88l-170 -170l170 -176
q56 -58 112.5 -90.5t133.5 -32.5z" />
    <glyph glyph-name="integral" unicode="&#x222b;" horiz-adv-x="712" 
d="M174 -242q-113 0 -192 66l53 127q53 -45 121 -45q52 0 83 34t31 91v1255q0 137 71 210t189 73q117 0 203 -70l-53 -125q-32 28 -59 38.5t-64 10.5q-56 0 -89.5 -37t-33.5 -98v-1257q0 -132 -72.5 -202.5t-187.5 -70.5z" />
    <glyph glyph-name="congruent" unicode="&#x2245;" 
d="M780 1243q156 0 215 80v-154q-59 -71 -215 -71q-56 0 -118 18.5t-109 41t-109.5 41t-119.5 18.5q-144 0 -218 -74v151q73 70 218 70q61 0 126 -19t112 -41.5t106.5 -41.5t111.5 -19zM106 733v144h889v-144h-889zM106 305v144h889v-144h-889z" />
    <glyph glyph-name="approxequal" unicode="&#x2248;" 
d="M784 1001q156 0 215 80v-151q-56 -76 -215 -76q-56 0 -118 19t-109 41.5t-109.5 41.5t-119.5 19q-145 0 -217 -72v150q76 69 217 69q61 0 126 -19t112 -41.5t106.5 -41.5t111.5 -19zM784 567q154 0 215 78v-153q-57 -72 -215 -72q-56 0 -118 18.5t-109 41t-109.5 41
t-119.5 18.5q-143 0 -217 -74v151q70 70 217 70q61 0 126 -18.5t112 -41t106.5 -41t111.5 -18.5z" />
    <glyph glyph-name="notequal" unicode="&#x2260;" 
d="M997 473h-528l-150 -252h-137l148 252h-221v143h292l166 293h-458v144h526l149 262h136l-148 -262h225v-144h-295l-165 -293h460v-143z" />
    <glyph glyph-name="lessequal" unicode="&#x2264;" 
d="M989 500l-889 364v131l889 361v-154l-692 -266l692 -281v-155zM100 186v144h889v-144h-889z" />
    <glyph glyph-name="greaterequal" unicode="&#x2265;" 
d="M117 500v155l692 281l-692 266v154l889 -361v-131zM1006 186h-889v144h889v-144z" />
    <glyph glyph-name="dotmath" unicode="&#x22c5;" horiz-adv-x="647" 
d="M324 670q-42 0 -72.5 30t-30.5 72t30.5 72t72.5 30t72 -30t30 -72t-30 -72t-72 -30z" />
    <glyph glyph-name="lozenge" unicode="&#x25ca;" horiz-adv-x="1255" 
d="M1188 666l-475 -871h-170l-475 871l475 870h172zM1006 666l-381 712l-375 -712l377 -713z" />
    <glyph glyph-name="commaaccent" unicode="&#xf6c3;" horiz-adv-x="440" 
d="M319 -18q0 -75 -65 -185l-74 -125l-74 27l68 129q25 50 29 59q-38 6 -62 33.5t-24 67.5q0 41 28.5 69.5t69.5 28.5q47 0 75.5 -29.5t28.5 -74.5z" />
    <glyph glyph-name="fi" unicode="&#xfb01;" horiz-adv-x="1101" 
d="M72 907v144h133v110q0 179 106.5 283t288.5 104q109 1 189 -28.5t129 -73.5l-70 -125q-49 38 -103.5 60t-134.5 22q-110 0 -174.5 -65t-64.5 -181v-106h569v-1051h-164v907h-405v-907h-166v907h-133z" />
    <glyph glyph-name="fl" unicode="&#xfb02;" horiz-adv-x="1177" 
d="M72 907v144h133v116q0 176 96.5 278.5t271.5 102.5q176 0 271.5 -102t95.5 -279v-1022h207v-145h-371v1165q0 110 -52 174t-151 64t-151.5 -64t-52.5 -174v-114h286v-144h-286v-907h-164v907h-133z" />
    <glyph glyph-name="S_S" horiz-adv-x="2226" 
d="M305 1198q0 -90 49.5 -149.5t161.5 -122.5l236 -140q142 -83 213 -179.5t71 -225.5q0 -188 -127 -301t-340 -113q-109 0 -197.5 34t-148 95t-95.5 141.5t-48 176.5l149 43q9 -66 34.5 -124.5t67 -107t105.5 -76.5t142 -28q134 0 210 70t76 186q0 159 -202 274l-220 129
q-60 35 -100 62t-82.5 65t-67 76.5t-40 91.5t-15.5 115q0 162 116.5 270.5t311.5 108.5q187 0 302.5 -93.5t152.5 -265.5l-146 -43q-30 125 -111 188.5t-204 63.5q-117 0 -185.5 -61.5t-68.5 -159.5zM2099 0h-860v150h692v573h-282q-188 0 -303 108t-115 297
q0 190 117.5 299t306.5 109h424v-147h-414q-122 0 -194 -70t-72 -191q0 -122 71.5 -191t194.5 -69h434v-868z" />
    <glyph glyph-name="acute.uc" horiz-adv-x="628" 
d="M98 1247l221 275h211l-258 -275h-174z" />
    <glyph glyph-name="breve.uc" horiz-adv-x="837" 
d="M82 1511h149q0 -71 49.5 -112t141.5 -41q90 0 139 41t49 112h148q0 -129 -90 -206.5t-246 -77.5q-161 0 -250.5 77t-89.5 207z" />
    <glyph glyph-name="caron.uc" horiz-adv-x="845" 
d="M80 1522h164l180 -193l176 193h168l-227 -275h-234z" />
    <glyph glyph-name="circumflex.uc" horiz-adv-x="845" 
d="M78 1247l229 275h234l227 -275h-168l-176 193l-178 -193h-168z" />
    <glyph glyph-name="dieresis.uc" horiz-adv-x="897" 
d="M236 1233q-45 0 -78 31.5t-33 76.5q0 44 33 75.5t78 31.5q44 0 75 -31.5t31 -75.5q0 -46 -31 -77t-75 -31zM664 1233q-44 0 -76.5 31.5t-32.5 76.5q0 44 33 75.5t76 31.5q44 0 76 -31.5t32 -75.5q0 -45 -31.5 -76.5t-76.5 -31.5z" />
    <glyph glyph-name="dotaccent.uc" horiz-adv-x="497" 
d="M248 1231q-51 0 -87 35t-36 86t36 86t87 35t87 -35t36 -86t-36 -86t-87 -35z" />
    <glyph glyph-name="grave.uc" horiz-adv-x="628" 
d="M522 1247h-174l-258 275h211z" />
    <glyph glyph-name="hungarumlaut.uc" horiz-adv-x="876" 
d="M80 1247l219 275h172l-248 -275h-143zM410 1247l221 275h172l-248 -275h-145z" />
    <glyph glyph-name="macron.uc" horiz-adv-x="724" 
d="M86 1247v137h553v-137h-553z" />
    <glyph glyph-name="ring.uc" horiz-adv-x="743" 
d="M373 1219q-141 0 -219 55.5t-78 144.5q0 91 78.5 149t218.5 58q139 0 218 -58t79 -149q0 -89 -79 -144.5t-218 -55.5zM373 1329q81 0 125.5 25t44.5 65q0 42 -44.5 68t-125.5 26t-126.5 -26t-45.5 -68q0 -40 45.5 -65t126.5 -25z" />
    <glyph glyph-name="ringacute.uc" horiz-adv-x="792" 
d="M104 1632l543 162l41 -133l-561 -121zM399 1184q-147 0 -222 49t-75 129q0 79 76 128.5t221 49.5t221 -49.5t76 -128.5q0 -80 -76 -129t-221 -49zM399 1294q73 0 121.5 19.5t48.5 48.5t-48.5 48.5t-121.5 19.5q-86 0 -130 -18.5t-44 -49.5t44 -49.5t130 -18.5z" />
    <glyph glyph-name="tilde.uc" horiz-adv-x="935" 
d="M834 1511q11 -142 -39 -212t-142 -70q-33 0 -64 8.5t-47.5 17t-45.5 25.5l-109 68q-61 38 -100 38q-74 0 -64 -139h-127q-11 142 40.5 212.5t144.5 70.5q78 0 155 -47l111 -70q6 -3 21.5 -12t25.5 -14t25 -10t28 -5q67 0 60 139h127z" />
    <glyph glyph-name="i.dot" horiz-adv-x="489" 
d="M244 1247q-44 0 -74.5 30.5t-30.5 76.5q0 43 30.5 72.5t74.5 29.5q43 0 73.5 -29.5t30.5 -72.5q0 -45 -30.5 -76t-73.5 -31zM326 0h-164v1051h164v-1051z" />
    <glyph glyph-name="caron.alt" horiz-adv-x="417" 
d="M338 1536l-119 -387h-117l60 387h176z" />
    <glyph glyph-name="commaturn" horiz-adv-x="440" 
d="M125 1348q0 74 65 184l74 125l74 -27l-68 -129q-16 -32 -28 -59q38 -6 62 -33.5t24 -67.5q0 -41 -29 -69.5t-70 -28.5q-46 0 -75 30t-29 75z" />
    <glyph glyph-name="ogonek.alt" horiz-adv-x="608" 
d="M373 23q-81 -52 -124.5 -104t-43.5 -112q0 -55 36 -84.5t91 -29.5q82 0 137 67l70 -94q-82 -104 -224 -104q-106 0 -172.5 59t-66.5 160q0 80 45 135t139 111z" />
    <glyph glyph-name="ringacute" horiz-adv-x="792" 
d="M104 1722l543 162l41 -133l-561 -121zM399 1202q-135 0 -216 59t-81 148q0 92 81.5 151.5t215.5 59.5q133 0 215 -59.5t82 -151.5q0 -88 -82.5 -147.5t-214.5 -59.5zM399 1317q79 0 124.5 26t45.5 66q0 45 -45 72.5t-125 27.5q-81 0 -127.5 -27.5t-46.5 -72.5
q0 -39 47 -65.5t127 -26.5z" />
    <glyph glyph-name="zero.osf" horiz-adv-x="1363" 
d="M682 -33q-256 0 -419 167.5t-163 428.5t163 428.5t419 167.5t419 -167.5t163 -428.5t-163 -428.5t-419 -167.5zM682 1014q-184 0 -299 -126t-115 -325q0 -198 115 -323t299 -125t299 125t115 323q0 199 -115 325t-299 126z" />
    <glyph glyph-name="one.osf" horiz-adv-x="778" 
d="M432 0v983h-387v143h551v-1126h-164z" />
    <glyph glyph-name="two.osf" horiz-adv-x="1097" 
d="M1004 145v-145h-900v76l357 297q183 154 225 195q90 88 108 165q7 28 7 60q0 98 -78 159.5t-197 61.5q-228 0 -350 -185l-100 103q154 227 459 227q192 0 313 -95t121 -257q0 -120 -63.5 -210t-231.5 -228l-262 -215v-9h592z" />
    <glyph glyph-name="three.osf" horiz-adv-x="1107" 
d="M1010 0q0 -197 -136 -319.5t-354 -122.5q-166 0 -287 77.5t-182 217.5l125 84q98 -232 344 -232q146 0 234 85t88 224q0 134 -91 213.5t-241 79.5h-197v146h183q143 0 227 82t84 213q0 120 -79.5 193t-207.5 73q-106 0 -186 -50.5t-129 -142.5l-107 92q64 118 174.5 182
t255.5 64q194 0 317.5 -107.5t123.5 -279.5q0 -140 -65.5 -237.5t-182.5 -137.5v-8q134 -29 211.5 -133t77.5 -256z" />
    <glyph glyph-name="four.osf" horiz-adv-x="1232" 
d="M784 -410v451h-698l238 1085h159l-209 -938h510v529h168v-529h244v-147h-244v-451h-168z" />
    <glyph glyph-name="five.osf" horiz-adv-x="1128" 
d="M78 -195l117 99q52 -91 140.5 -143t199.5 -52q151 0 249.5 96t98.5 244t-97.5 242t-246.5 94q-168 0 -273 -127l-116 51v817h833v-147h-674v-520q115 76 264 76q213 0 347.5 -136t134.5 -350q0 -212 -145.5 -351.5t-374.5 -139.5q-154 0 -271 65t-186 182z" />
    <glyph glyph-name="six.osf" horiz-adv-x="1167" 
d="M1102 489q0 -232 -142.5 -377t-375.5 -145q-122 0 -222.5 43t-164 114.5t-97.5 161t-34 185.5q0 91 16 169.5t49.5 147.5t68 121.5t87.5 118.5l454 569l121 -96l-387 -479q-46 -58 -119 -135l6 -6q97 102 275 102q196 0 330.5 -139.5t134.5 -354.5zM584 115
q156 0 253 104.5t97 263.5q0 158 -98 256.5t-252 98.5q-156 0 -254.5 -98.5t-98.5 -256.5q0 -160 98 -264t255 -104z" />
    <glyph glyph-name="seven.osf" horiz-adv-x="1077" 
d="M33 981v145h1022l-678 -1568l-164 45l608 1378h-788z" />
    <glyph glyph-name="eight.osf" horiz-adv-x="1212" 
d="M1102 408q0 -195 -137.5 -318t-358.5 -123t-359 123t-138 318q0 144 78.5 247t201.5 136v6q-109 38 -175.5 133.5t-66.5 230.5q0 181 127.5 294.5t331.5 113.5t331.5 -113.5t127.5 -294.5q0 -135 -66.5 -229.5t-177.5 -134.5v-6q127 -34 204 -136t77 -247zM606 860
q132 0 213.5 78t81.5 207q0 122 -81.5 198t-213.5 76t-213.5 -76t-81.5 -198q0 -129 81.5 -207t213.5 -78zM606 119q145 0 234.5 83t89.5 218q0 133 -89.5 214t-234.5 81q-146 0 -235.5 -81t-89.5 -214q0 -135 89.5 -218t235.5 -83z" />
    <glyph glyph-name="nine.osf" horiz-adv-x="1150" 
d="M1094 659q0 -92 -16.5 -171t-50.5 -149t-68 -122t-87 -119l-454 -569l-123 96l389 479q67 80 117 136l-6 6q-100 -103 -273 -103q-196 0 -330.5 139.5t-134.5 354.5q0 232 142.5 377t375.5 145q123 0 223 -41.5t164 -111.5t98 -159t34 -188zM225 643q0 -158 97 -256
t253 -98t253.5 98t97.5 256q0 160 -97.5 264.5t-253.5 104.5q-157 0 -253.5 -104.5t-96.5 -264.5z" />
    <glyph glyph-name="zero.tf" horiz-adv-x="1290" 
d="M645 -33q-228 0 -372 150.5t-152 386.5q-9 266 0 532q8 234 152 383.5t372 149.5t372.5 -149.5t153.5 -383.5q6 -266 0 -532q-9 -236 -153.5 -386.5t-372.5 -150.5zM645 1419q-156 0 -252 -103t-104 -265q-9 -281 0 -562q8 -163 103.5 -265.5t252.5 -102.5
q155 0 250.5 102.5t103.5 265.5q12 283 0 562q-8 162 -103.5 265t-250.5 103z" />
    <glyph glyph-name="one.tf" horiz-adv-x="1290" 
d="M170 150h451v1239h-394v147h561v-1386h375v-150h-993v150z" />
    <glyph glyph-name="two.tf" horiz-adv-x="1290" 
d="M160 49l553 666q5 7 30 37.5t32.5 39.5t29.5 37.5t30 40.5l26 39t25 42.5t19 40.5t16.5 44.5t8.5 43t4 46.5q0 130 -82 212.5t-217 82.5q-134 0 -225.5 -89t-116.5 -238l-148 39q37 212 173.5 324t322.5 112q209 0 337 -118.5t128 -309.5q0 -68 -20.5 -133.5
t-66.5 -137.5t-79.5 -115.5t-99.5 -123.5l-400 -473v-8h682v-150h-962v49z" />
    <glyph glyph-name="three.tf" horiz-adv-x="1290" 
d="M1133 432q0 -204 -143.5 -334.5t-368.5 -130.5q-177 0 -302 77t-184 218l123 86q99 -227 360 -227q153 0 248 87.5t95 227.5q0 138 -95.5 221.5t-251.5 83.5q-129 0 -225 -43l-76 117l555 574h-661v147h862v-147l-524 -525q59 15 121 15q209 0 338 -126.5t129 -320.5z
" />
    <glyph glyph-name="four.tf" horiz-adv-x="1290" 
d="M827 0v406h-718l208 1130h160l-180 -983h530v573h166v-573h224v-147h-224v-406h-166z" />
    <glyph glyph-name="five.tf" horiz-adv-x="1290" 
d="M152 215l114 98q52 -91 143.5 -142.5t206.5 -51.5q154 0 255.5 96.5t101.5 243.5q0 148 -100 242t-252 94q-176 0 -281 -127l-119 51v817h854v-147h-694v-523q116 78 274 78q217 0 353.5 -135.5t136.5 -349.5q0 -212 -148.5 -352t-380.5 -140q-156 0 -275.5 65.5
t-188.5 182.5z" />
    <glyph glyph-name="six.tf" horiz-adv-x="1290" 
d="M662 -33q-211 0 -349 137t-147 347q-10 204 0 585q9 242 147 387.5t363 145.5q168 0 285.5 -78.5t177.5 -228.5l-135 -80q-45 118 -131 177.5t-203 59.5q-147 0 -238 -105t-98 -296q-1 -28 -6 -266q50 90 147.5 138t218.5 48q202 0 335.5 -135.5t133.5 -341.5
q0 -217 -141.5 -355.5t-359.5 -138.5zM662 119q141 0 235 96.5t94 241.5q0 146 -94 240t-235 94q-142 0 -235 -93.5t-93 -240.5q0 -145 93.5 -241.5t234.5 -96.5z" />
    <glyph glyph-name="seven.tf" horiz-adv-x="1290" 
d="M117 1389v147h1071v-49l-733 -1487h-185l688 1389h-841z" />
    <glyph glyph-name="eight.tf" horiz-adv-x="1290" 
d="M1147 408q0 -195 -139 -318t-363 -123t-363 123t-139 318q0 144 77 247t196 136v6q-106 38 -170 133t-64 231q0 182 128 295t335 113t336 -113t129 -295q0 -135 -65 -229.5t-175 -134.5v-6q126 -34 201.5 -136t75.5 -247zM645 860q135 0 218 78t83 207q0 122 -83 198
t-218 76q-133 0 -216 -76t-83 -198q0 -129 82.5 -207t216.5 -78zM645 119q148 0 239 83t91 218q0 133 -91 214t-239 81t-239 -81t-91 -214q0 -135 91 -218t239 -83z" />
    <glyph glyph-name="nine.tf" horiz-adv-x="1290" 
d="M592 1569q220 0 359 -140.5t139 -363.5v-1065h-844v150h678v622q-53 -87 -150 -133.5t-215 -46.5q-202 0 -336.5 138t-134.5 345q0 214 143 354t361 140zM592 1419q-141 0 -236.5 -97.5t-95.5 -242.5q0 -146 96 -241t238 -95q143 0 237.5 94.5t94.5 241.5
q0 145 -95 242.5t-239 97.5z" />
    <glyph glyph-name="zero.dnom" horiz-adv-x="860" 
d="M430 -18q-152 0 -246 88t-100 229q-3 121 0 240q6 141 100 228t246 87t245 -87t99 -228q6 -119 0 -240q-6 -141 -99 -229t-245 -88zM430 729q-86 0 -137.5 -49t-56.5 -129q-6 -133 0 -262q5 -81 56.5 -129.5t137.5 -48.5q87 0 138.5 48.5t56.5 129.5q6 129 0 262
q-5 80 -57 129t-138 49z" />
    <glyph glyph-name="one.dnom" horiz-adv-x="708" 
d="M78 0v125h237v586h-233v127h383v-713h209v-125h-596z" />
    <glyph glyph-name="two.dnom" horiz-adv-x="739" 
d="M78 41l321 362q103 99 103 185q0 62 -39.5 101.5t-104.5 39.5t-109 -45t-56 -121l-132 33q23 131 106 194.5t198 63.5q130 0 208 -70.5t78 -181.5q0 -67 -35.5 -127.5t-99.5 -130.5l-197 -211v-6h351v-127h-592v41z" />
    <glyph glyph-name="three.dnom" horiz-adv-x="722" 
d="M659 238q0 -111 -87.5 -183.5t-229.5 -72.5q-204 0 -287 153l105 74q58 -98 180 -98q78 0 125 36t47 97q0 63 -48 100t-126 37q-67 0 -113 -25l-71 109l282 246h-340v127h520v-127l-266 -226v-8q24 8 58 8q105 0 178 -72t73 -175z" />
    <glyph glyph-name="four.dnom" horiz-adv-x="788" 
d="M467 0v203h-416l135 635h138l-107 -510h250v286h145v-286h131v-125h-131v-203h-145z" />
    <glyph glyph-name="five.dnom" horiz-adv-x="733" 
d="M61 119l99 82q70 -92 188 -92q73 0 120.5 39t47.5 104t-47 105t-121 40q-73 0 -137 -49l-98 41q2 0 2 2l-4 -2v449h514v-127h-375v-228q64 33 133 33q127 0 205 -71.5t78 -190.5q0 -121 -88.5 -196.5t-231.5 -75.5q-191 0 -285 137z" />
    <glyph glyph-name="six.dnom" horiz-adv-x="817" 
d="M721 0h-610v520q0 159 89.5 246.5t245.5 87.5q203 0 287 -164l-119 -67q-56 106 -174 106q-82 0 -130 -47.5t-48 -138.5v-58h459v-485zM262 125h313v248h-313v-248z" />
    <glyph glyph-name="seven.dnom" horiz-adv-x="710" 
d="M45 711v127h651l-405 -838h-166l358 711h-438z" />
    <glyph glyph-name="eight.dnom" horiz-adv-x="792" 
d="M717 227q0 -109 -89.5 -177t-232.5 -68q-142 0 -230.5 68t-88.5 177q0 74 42.5 129t114.5 72v8q-60 19 -97.5 71t-37.5 118q0 104 82 166.5t215 62.5t215 -62.5t82 -166.5q0 -66 -37.5 -117t-97.5 -70v-10q71 -17 115.5 -72.5t44.5 -128.5zM395 485q69 0 111.5 35.5
t42.5 93.5q0 53 -42.5 86t-111.5 33t-111 -33t-42 -86q0 -58 42 -93.5t111 -35.5zM395 106q76 0 124 36.5t48 97.5q0 58 -48 92.5t-124 34.5t-123 -34.5t-47 -92.5q0 -61 47 -97.5t123 -36.5z" />
    <glyph glyph-name="nine.dnom" horiz-adv-x="790" 
d="M367 854q140 0 225.5 -78t85.5 -211v-565h-528v127h376v266q-66 -82 -192 -82q-120 0 -199.5 76.5t-79.5 192.5q0 121 87 197.5t225 76.5zM367 729q-71 0 -116.5 -41.5t-45.5 -105.5t46 -104t116 -40t114.5 40t44.5 104q0 65 -44.5 106t-114.5 41z" />
    </font>
</defs>
</svg>
